<svg stroke-miterlimit="10" style="fill-rule:nonzero;clip-rule:evenodd;stroke-linecap:round;stroke-linejoin:round" viewBox="0 0 5000 5000" xml:space="preserve" xmlns="http://www.w3.org/2000/svg" xmlns:vectornator="http://vectornator.io"><path d="M4736 2923c9 73 14 221 14 221l-3 134-8 101-17 121-23 115-30 105-37 106-49 110-48 97-56 77-87 100-106 87-119 83-124 78-122 64-88 37-3-11-52-257-39-124-26-98s-10-24-6-38c3-13 21-36 21-36l36-42 51-48 57-48 73-63 83-67 54-49s18-16 30-24c11-7 28-11 28-11l31-11 101-42 49-19 31-9-43-152 31-22c30-20 39-89 47-105 8-17 62-93 113-165 51-73 52-67 95-110 43-42 78-60 78-60s31-17 52-23c11-4 8-16 9-17l2 15Z" fill="#7ec9cf" fill-rule="evenodd" vectornator:layerName="Слой 10"/><g vectornator:layerName="Jj" fill-rule="evenodd"><path d="M2271 1895s2 171 4 190c1 18 5 13 5 37s8 64 8 64l161 7 140 9 172 21 108 2h19l58-130 76-128 16-18 90 27 60 23 19 13-21 33-34 59-35 64s-20 42-32 73l-26 68-9 31 25 56 38 83 36 62c-34 10-58 19-58 19l-763 256-148 45-24 9 55 208 32 120 56 193 36 132 61 214 94 338 56 164 233-95 221-82 75-25s20 13 46 22c23 9 82 20 82 20s76 9 133 1c58-7 96-32 96-32l53-68 6-13 31-69 11-37 101-37 133 434 78 218 13 67s-238 62-243 62c-21 0-166 19-166 19l-81-3-63-5-142-1-163-13-177-35-182-32-188 10-176 6-154 24-158 41-128 29h-167s36-218 80-382 80-167 113-280 58-211 58-211 67-204 116-382c41-152 21-128 39-204s17-55 21-82c5-32 4-25 2-48s-4-27-9-44c-9-29-8-24-15-42l-27-63s-32-33-47-68-15-44-24-75-17-70-17-70-3-49 7-98c9-46 7-55 23-97l16-34c20-50-8-2 23-52 20-33 33-66 46-81s25-29 24-44c-2-28-1-89-1-89l1-164v-119l55-2 82-11 35-8Z" fill="#7277dd"/><path d="m2175 3062 24-1 11 11v13l-1 10-7 5-12-1h-6l-9-2-4-10 1-14 3-11Z" fill="#5054a3"/><path d="m2180 3099 9 1 8-1 4-6-6-18-6-14-10 1-5 1-6 20 9 12 3 4Z" fill="#5054a3"/></g><path d="m2145 2391-27 61s-19 45-11 79c9 34 16 45 48 71 14 12 138 29 138 29l122 2s126-12 193-21c68-10 92-12 161-28 69-17 97-35 98-43s5-17-12-22c-18-6-58-1-58-1l-88 7-134 2s-46 2-88-1c-42-4-91-14-91-14s-72-22-90-50c-18-29-30-105-40-126-11-20-21-56-51-42s-52 57-70 97Z" fill="#8084ea" fill-rule="evenodd" vectornator:layerName="Слой 27"/><path d="M2168 3217s11 88 17 228c6 141 6 194 6 333 0 138-2 121-6 222s-3 100-10 181c-8 82-19 146-19 146l-13 102-8 39-262 43s27-135 56-269l66-299 48-181 45-187 36-140 31-142 13-76Z" fill="#8084ea" fill-rule="evenodd" vectornator:layerName="Слой 29"/><g vectornator:layerName="Слой 25" fill-rule="evenodd"><path d="M2531 930c-66 100-124 236-124 236l-17 178 12 146 78 170s33 24 63 40c29 17 24 17 54 27 30 11 36 14 66 20s31 5 61 4c31 0 34-1 64-8s31-10 55-19c26-10 42-22 42-22l62-60 89-126 76-146s11-81 15-99c4-17-6-108-6-108l-67-83-175-96-154-58-146-3s18-94-48 7Z" fill="#fe9fdb"/><path d="m2515 1682 4 53s32 31 71 49c40 19 54 23 96 28 37 5 51 2 51 2l16-1a207 207 0 0 0 10 59s11 32 31 57 52 43 52 43a585 585 0 0 0 150 60l44-71-94-41-44-15-19-17-15-29-4-44 1-57 6-46-58 25-32 8-39 6c-13 1-34 0-46-1-16-1-47-7-47-7l-31-8-23-8-25-11-10-5-14-9-13-7-18-13Z" fill="#dc7bb8"/><path d="m2523 1667-23 105-38 75-95 26-100 21 10 210 21 72 149 21 172 11 179 19 84 38 176-323-98-70-43-140-33-45" fill="#fe9fdb"/></g><g vectornator:layerName="Слой 26" fill-rule="evenodd"><path d="M2986 1102c11 55 19 103 19 129v83l-9 93-11 66s-9 45-24 91c-15 47-18 46-36 90-17 44-11 51 14 19 26-31 27-29 55-86 28-56 15-31 47-87 31-56 37-23 54-110l19-106c8-49 27-47 13-91-15-44 1-30-20-46-20-16-41-18-74-31-34-13-59-69-47-14Z" fill="#dc7bb8"/><path d="M2510 1102s-14 91-20 169c-5 78-4 84-2 143 2 58 1 43 10 90a573 573 0 0 0 89 204c1 1-29-14-54-40s-50-75-50-75-16-36-26-75c-11-38-10-40-12-80-3-39 2-78 2-78l4-52s5-51 13-87c8-35 5-26 16-56 12-30 30-63 30-63Z" fill="#ffb9e4"/><path d="m2298 1911-3 100 1 67a520 520 0 0 0 10 85l71 5 55 2 66 4 112 8 91 14s57 7 102 15c45 7 54 8 77 14 24 6 22 4 22 4l-19 24s4 6-10 3l-120-20-466-39s-14-36-20-82c-7-46-7-74-7-85l1-56c-1-49 3-44 2-58 0-13 35-5 35-5Z" fill="#dc7bb8"/><path d="M2342 1961s-5 74 0 111 31 43 31 43 9 7 37 14 29 4 66 8l82 9c43 4 47 6 90 9s47 2 81 3 37 3 56 4c20 1 29 7 21 0-9-8-21-15-55-30-34-14-49-17-81-28l-45-14-51-13-49-9-46-18-38-19-30-18c-15-10-16-12-33-25l-36-27Z" fill="#ffb9e4"/><path d="M2510 1685s42 35 81 55a270 270 0 0 0 139 25c32-2 36-4 67-13s55-24 55-24l34-24-12 103 11 62 43 34 56 24 61 35-27 43-26 54-111-60c-41-22-39-21-65-41-7-6-30-26-48-56-16-27-19-82-19-82s-23 2-40 1c-14-1-30-1-63-10a239 239 0 0 1-123-73" fill="#dc7bb8"/></g><path d="M2309 945c-53 70-94 156-94 156s-46 47-76 134c-23 66-3 95-13 111l-62 132s-38 69-59 148c-20 76-34 120-34 120l-19 97 16 101 79-6 21-5 27 1s22-19 31-20l92-3 115-12 64-9s45-1 54-16 45-93 45-93l-2-82-68-178-10-113 20-181 52-157 64-99 81 101c33 11 5-65 5-65l6-32 19 27 115 62 29-7-33-44-28-35 40 60 86 47 31-14 77 42 78 40 52 31-9 88-25 122-82 184-56 78-55 60-14 16-5 56 28 105 19 15 131 48a6482 6482 0 0 0 204 90c77 37 60 30 102 63a1318 1318 0 0 1 132 129l92 138 47-15 126-37-1-148-26-176-6-236-79-147s-54-107-75-136c-45-62-68-109-68-109l-116-237-123-228s-33-29-91-68c-20-13-79-93-79-93s-57-41-119-54c-61-12-92-12-129-10s-82-30-147-5c-66 26-91 35-158 78l-136 85s-30 35-83 105Z" fill="#464ba9" fill-rule="evenodd" vectornator:layerName="Слой 19"/><g vectornator:layerName="Слой 23" fill-rule="evenodd"><path d="M3138 1195s8 4 8 44c-1 40-6 77-11 118-6 41-15 52-23 76-9 23-52 99-52 99l-50 95-37 98s15 24 16 44v84l110 50 188 76 113 77 128 104 77 104s4 63 11 74c8 10 16 54 16 54l-42 17-17-32-33-49-31-46-30-42c-9-12-21-23-30-32-21-23-35-36-48-49a665 665 0 0 0-211-140s4-4-18-12c-34-14-20-9-47-18l-43-13-46-15s-85-27-114-41c-30-14-48-31-54-50-6-20-8-42-8-42v-57s5-37 5-47 2-9 5-13c7-10 7-8 28-29 13-12 24-26 24-26l22-26c27-36 33-43 53-80 22-41 16-29 34-70l26-57 17-48c13-46 11-45 19-92 7-48 7-74 7-74l2-19-21-17-22-14-29-9-18-7-22-11a569 569 0 0 1-78-53l-11-9 1 12c-1 4-3 8-6 11-4 3-9 4-12 4-8 0-15-4-24-8a303 303 0 0 1-36-23l-5-4-1 6-5 9c-2 2-4 4-9 5-4 1-5 2-9 1-6 0-12-2-15-3l-24-12a465 465 0 0 1-61-41l-15-13-15-13-6-7-4-4-2-2c-3-3-9-12-10-10v8l3 19a286 286 0 0 0 13 57s2 8 1 13c-2 6-4 7-7 10s-10 5-14 3c-3-1-11-5-16-10l-19-21-13-16-18-22-16-24c-3-5-5-8-5-11 0-2-4 4-8 11a2015 2015 0 0 1-39 65l-7 13c-2 6-9 16-9 17l-14 32-16 48c-2 2-23 97-25 120-3 23-8 86-8 112 0 13 8 82 15 114 4 22 25 78 40 109 5 11 21 36 32 50l14 18c1 4 2 5 1 18l-6 47c-2 13-13 46-20 59-6 12-10 23-19 36a96 96 0 0 1-46 36 1540 1540 0 0 1-176 27c-3 1-3-3-2-5 0-1 3-4-1-3-31 4-147-5-150 8-6 24-50 18-52 18-14 1-9 7-8 1 0-2 6-7 17-13 28-17 86-43 133-59l62-22c35-14 91-42 91-42s49-37 60-96 0-74-5-134c-5-59-4-108-4-108l1-95c13-93 12-71 18-117l16-66 16-48c15-42 32-74 41-91l38-61 21-28c6-8 6-2 9 2l16 24 20 28 21 26 18 24c-2-3-4-20-5-38l-2-36 1-46 8 10 12 14 20 20 50 40s15 11 25 16c5 4 11 6 20 11 3 2 20 10 24 10 4 1-1-5-3-8l-8-11-9-12-13-19-15-28-18-31c-8-16-20-44-15-40 2 2 17 31 28 45l13 16 35 31 33 26 18 13 28 14 13 6-20-24-19-25-12-19-11-20-10-22-7-17-12-30c0-5 16 26 26 39l18 23c9 11 9 10 19 20l21 21 14 15 13 12 26 21c7 6 20 17 35 26l26 17 26 16 23 10 24 8c6 1 8 5 13 10l16 14 52 38Zm51-8c-32-26-53-48-53-48l-35-39-25-34-21-28-22-35c-10-16-21-38-21-38l-16-32-14-30-18-51s19 40 46 81c27 42 29 44 61 89l69 92s82 99 49 73Zm-205-130c-11-9-42-46-42-46l-24-29-17-26-13-27-12-27-7-21-4-19-2-21 31 68 19 36 22 38 21 29s39 54 28 45Z" fill="#2e3172"/><path d="M2128 1733c22-50 54-88 83-146s46-98 46-98 24-62 36-107 13-42 22-82c9-41 9-45 19-84s11-42 22-73c10-31 22-53 22-53 13-27 15-30 31-58 17-27 17-28 36-53 20-24 19-26 37-45s19-20 36-34c16-14 31-22 31-22s-73 123-112 212c-14 32-30 78-34 93l-12 51s-9 43-14 95c-4 51-2 58-5 112s-10 109-10 109-10 53-27 95c-18 43-13 39-37 73-23 34-27 40-56 62-30 22-35 22-61 27-27 4-46-10-46-10s-29-13-7-64Z" fill="#373b80"/></g><path d="M2041 1683c-13 47-17 95-17 95l-5 63 7 61s-3 34 7 43c1 1 8-4 17-7l14-4 3-1h3l30-3s-51-73-38-156c9-57 19-74 36-128 18-53 37-98 37-98l39-106c15-43 33-102 63-181 31-80 59-136 59-136s17-53 59-115c43-62 64-91 115-144s46-43 87-71c42-28 39-24 80-40 40-17 93-29 93-29s64-14 132-6c68 7 135 40 135 40l46 24s45 30 69 52c19 16 40 35 54 52 26 30 40 54 62 86 23 31 38 58 48 76 11 18 16 26 43 88 25 58 61 160 61 160s14 86 45 158c32 72 47 69 80 129l56 101s41 93 65 191c25 98 34 202 34 202l-78-67-117-71s-20-15-48-28c-28-12-29-13-80-32-52-18-60-13-108-22-47-9-65-6-90-12-68-19-70-27-81-34-9-6-21-25-24-31l-5-23c-2-19 3-44 3-44s7-23 20-52l33-62 52-95c19-35 28-71 29-74 3-7 11-35 20-89 9-55 5-113 5-113s-55-41-55-36l2 19-1 44c-1 24-5 51-5 51l-9 53s-10 34-23 65c-12 30-9 21-28 56-39 75-102 197-107 223-11 55 1 118 1 118s7 45 66 73 91 35 153 66a933 933 0 0 1 153 93c28 20 56 42 82 66 79 71 94 90 107 105 18 22 40 53 63 87s40 79 40 79 71-41 97-49c28-8-5-172-11-225-6-52-16-178-16-178l-45-174-84-170-74-117-59-105-65-182-69-174-99-134-144-131-132-67-138 4-154 31-133 69-118 111-26 37-74 106-97 179-88 297s-46 115-60 163Z" fill="#373b80" fill-rule="evenodd" vectornator:layerName="Слой 20"/><path d="M2690 967c-2-2-10-4-18-12-8-7-17-19-17-19s-12-19-18-35c-7-16-7-15-11-31-5-16-7-25-8-39s5-18 5-18 16-10 23 8c8 18 10 26 13 41a2117 2117 0 0 0 21 83l10 22Zm109-140c-1 3-2 7-1 15l4 17 7 15 7 13s8 13 7 5c-1-9-6-24-11-40l-5-14-4-9c-1-2-3-5-4-2Zm255 274s-15-14-27-30c-13-16-23-34-23-34l-26-36-18-29-10-23c-4-10-5-16-2-18 3-3 8 5 8 5l50 85 27 42 21 38Zm47-121s26 58 44 86 32 28 32 28 6 2 8-1c1-2 9-6-10-30s-74-83-74-83Zm128 869c-6-7-50-16-86-45-28-22-33-36-35-43s-4-20-5-41c-1-51 22-82 47-155 27-76 37-143 37-143l6-60-4-76s3 45-6 98c-8 52-23 114-37 147l-33 77-22 60s-10 24-12 46c-1 23-1 28 8 50s35 39 32 36c-2-2 21 19 47 31 24 10 68 25 63 18Z" fill="#4f53b3" fill-rule="evenodd" vectornator:layerName="Слой 24"/><path d="M861 4211c28 47 48 76 105 141s67 72 122 118c56 45 53 39 100 70 48 30 53 30 93 48 41 18 69 23 69 23s-69-43-85-75c-16-31-36-146-36-146l-24-131-33-93-45-67-65-7-120 75s-33 16-50 30c-8 7-40-1-31 14Z" fill="#6b74ab" fill-rule="evenodd" vectornator:layerName="Слой 2"/><path d="M779 4059c8 12 0 6 5 18a1335 1335 0 0 0 87 153s61-47 75-56l65-41 29-15c25-10 51-23 81-10 30 12 42 63 42 63s16 45 29 100c14 55 14 59 26 120l23 122s4 46 54 76c50 31 145 45 145 45s81 15 141 19l105 5 3-2 4-92-80 1-132-77-111-103-91-143-73-130-101-79-101-30-85-8s-61 10-83 32c-22 23-78 1-57 32Z" fill="#030303" fill-rule="evenodd" vectornator:layerName="Слой 18"/><path d="M998 2457c-8 53-9 89-12 137l-12 156 19 225v225l49 194 79 196 174 150 196 149 155 164 106 236 75-134 148-481-157 109s28-139 26-260c-2-78 22-230 22-230l-102-15-200 31s-91 39-195 52c-105 14-164-104-164-104l-34-88-47-262-70-240s-37-349-56-210Z" fill="#6b74ab" fill-rule="evenodd" vectornator:layerName="Слой 17"/><path d="M648 2292c21-64 60-105 60-105l72-48 64-5 42 6 52 38 37 106 35 105 6 82-12 74 3 116v99s-1 58 3 121c3 63 10 133 10 133l5 110s-1 33 14 108c14 75 18 117 47 199 30 83 49 104 70 129 24 29 50 47 109 82 59 34 69 33 131 70s99 74 114 88c14 15 52 57 100 126s56 78 91 147c34 69 51 125 64 175 3 12-11 36-15 50-6 21-10 27-19 66l-16 62-13 71-9 73c-2 14 0 32-4 31-14-1-81-17-121-38-70-37-95-48-162-119-68-71-108-165-108-165s-53-104-112-164c-60-60-143-93-143-93s-66-30-130-11c-65 18-130 66-130 66l-57-126s-20-43-29-103c-8-60-17-115-20-161-6-87-6-214-7-232-5-78-7-183-7-183s4-79 6-159l6-259-3-249c-1-69-34-280-24-313Z" fill="#7ec9cf" fill-rule="evenodd" vectornator:layerName="Слой 12"/><path d="m478 1728 83 249 35 136 32 133 21 127s16-59 34-102 39-69 39-69 30-37 71-47c41-11 93 4 93 4l7-39-45-74-140-120s-83-38-102-56-147-199-128-142Z" fill="#001d56" fill-rule="evenodd" vectornator:layerName="Слой 15"/><path d="m987 2393 16 164 3 69s38 50 60 111 16 62 30 117c13 55 11 39 24 104 13 66 27 158 27 158s9 96 39 147c23 39 50 70 97 96s69 24 130 15c59-8 122-29 122-29s65-19 131-28c66-8 133-6 133-6l91 16 2-169-49-171-102-68-131 4-135-13-110-27-98-68-93-111-77-124-110-187Z" fill="#001d56" fill-rule="evenodd" vectornator:layerName="Слой 16"/><path d="m3641 3838 108-41 79-30 90-32 90-37 60-23 41-16-43 42-44 40-53 46-58 44-29 29-60 56c-24 23-23 20-45 44-23 25-54 53-54 53l-43 40s10-47-4-88l-17-57-21-60c-3-11-3-7 3-10Z" fill="#030303" fill-rule="evenodd" vectornator:layerName="Слой 11"/><path d="m3274 917 83 137 59 113 79 86 51 27 88-21 83-59 39-62-91-129-113-29-115-35-103-18-60-10Z" fill="#7ec9cf" fill-rule="evenodd" vectornator:layerName="!"/><path d="M3838 1293c-87 48-160 100-160 100l13 56-5 141 30 102 50 86 57 66 84 12 74 69 36 80 19 114 9 58 3 26 23 16 314 1074 33-49 38-56 39-53 32-38 35-37 50-50 55-46 21-13c7-4 23-10 29-12l13-2c6 0 5 1 5-2l-4-35-16-140-28-125-34-129-38-122-36-94-55-144-71-153-63-123-70-142-42-96-39-96-31-86-16-52-60 210-9 128-47 43-14-66-30-153-56-168-54-63s4-84-84-36Z" fill="#001d56" fill-rule="evenodd" vectornator:layerName="Слой 9"/><path d="M3345 578c35-1 81-5 110-5 37 1 64-4 64-4l80 5 31 7 38 5 61 9 43 7 37 15s1 3 12 14 38 17 38 17l23 19 21 25s15 16 33 50l32 58 42 85c21 43 24 45 42 89 19 44 25 57 41 99 15 42 17 51 29 91l23 80 23 78 19 60 14 46s-1 11-6 29c-5 19-4 17-7 40-4 23-5 20-7 45-3 26-2 26-3 44l-3 41c-1 19-2 17-4 36-2 18 2 6-2 25l-7 46-7 32-7 31-9 27-9 26-9 21s-4 11-11 19c-7 9-18 15-18 15-21 8-31-1-40-15-10-16-14-31-14-31l-13-34-11-39-8-27-1-8-3-13-3-19-4-22-7-32-4-23-5-23-5-27-12-50-9-39-9-39c-5-19-3-15-11-36-8-22-9-28-20-49s-13-22-24-35c-11-14-20-19-20-19l-28-20 28-22 34-24v-26l-5-32-21-29-20-22-53-12-54 10-23 12-18-31-12-19-9-13-13-17-9-10-15-11-19-12-26-14-59-22-50-14-62-18s-34-8-50-14l-40-12-16-4-18-6-23-8-14-6c-6-3-12-11-27-26l-21-21c-15-13-23-6-23-6l-37-19-28-36c-20-46-23-1-17-56 5-54-22-45 15-77 37-33 16-28 65-49 49-22 56-33 78-38 22-6 32-22 66-23Z" fill="#6b74ab" fill-rule="evenodd" vectornator:layerName="Слой 5"/><path d="m3829 651-27-11-29-8-31-7-36-8-43-8-2-5-4-8-4-10-3-10-2-9-2-9-2-11-1-13-2-15-1-12-1-12-1-14-1-13v-20l2-17 2-10 1-12 39 25 31 25 31 26 41 43 29 32 28 35 17 24 17 27 16 24 12 22-23-16-36-18-15-7Z" fill="#001d56" fill-rule="evenodd" vectornator:layerName="Слой 6"/><path d="M3121 810c15 10 29 16 38 22a657 657 0 0 1 103 78s31 31 53 63l42 66 40 64s22 41 34 58c13 16 23 33 44 53 23 23 22 25 43 35s50 5 50 5 24-8 44-19c19-10 33-18 44-26l38-27 37-28s26-15 39-18c13-4 34-9 56-1 8 2 23 6 34 13 15 10 19 12 31 28 13 15 15 14 20 34 4 20 4 27-2 46-3 9-9 16-9 16s-5 7-13 14c-15 14-40 26-40 26l-47 21-32 12c-9 4-13 5-20 12-7 5-22 21-32 40-9 18-16 46-16 56-1 29-5 97 2 122a610 610 0 0 0 71 169s14 30 39 45 29 13 62 18c31 4 38 3 67 21 28 17 46 48 46 48l30 65 22 77 12 50 7 33 11 37c5 18 27 77 15 108-15 40-53 27-116 48-13 5-59 10-68 15-33 20-62 18-62 18l-52 11-92 38s29-107 24-179c-4-71-12-150-12-150s-3-59-12-111-11-48-24-97c-14-48-30-95-30-95s-16-44-37-84c-21-41-47-79-47-79s-24-24-50-61c-26-36-34-39-55-85-20-46-12-49-28-98s-23-63-35-97c-11-34-7-22-26-65s-27-61-51-107-25-44-45-77c-21-33-39-54-39-54l-35-45-27-32-26-27c-15-14-68-56-62-58 2-1 29 26 44 35Z" fill="#030303" fill-rule="evenodd" vectornator:layerName="Слой 7"/><g vectornator:layerName="Слой 4"><path d="M2333 524c-10 4-17 12-27 16" fill="#7ec9cf" fill-rule="evenodd"/><path d="M2333 520h-1l-7 3-10 10-4 4-5 3 5-2 11-5 7-2 6-2c2-1 3-4 2-6 0-2-2-3-4-3Z" fill="none"/><path d="M2326 526c-51 33-53 35-84 57-32 23-43 23-64 53-22 29-27 54 6 36l72-38c32-19 53-21 72-24 18-3 23 12 4 40-18 28-8 13-45 57-37 45-40 52-70 87s-25 35-51 70-28 43-49 76c-22 32-27 22-35 56s-19 50-5 71c15 21 1 43 37 49 35 6 28 20 66 1 26-13 94-61 132-95 17-15 7-7 27-31l34-44c7-10 18-22 35-41 6-7 19-26 52-59 27-27 36-38 62-55l17-12c48-32 51-33 72-41 23-9 44-20 90-30 42-9 91-14 91-14s54-7 116 10c63 17 90 29 139 59l68 42 47 28s-11 2-22-45c-11-48-2-65 3-81 5-17 27-42 27-42s27-23 40-29c44-22 23-10 45-22 9-4 52-15 58-16 22-5 33-5 56-8 22-2 48 0 48 0l56-1 42 2 52 5 34 4 39 4 36 6s-6-8-10-18l-6-16-5-13-3-16-4-14-3-19-2-20-2-18-1-19v-21l2-28-51-33-42-25-36-18-25-12-40-18-26-11-25-10-31-11-46-15-42-13-30-9-287 51s-227 81-410 150c-111 42-206 79-225 91Z" fill="#7ec9cf" fill-rule="evenodd"/></g><g vectornator:layerName="I"><path d="M287 1082c-3-32-6-69-6-97 0-16-2-33-1-48l4-62 1-24 1-27s5-42 10-58l8-40 14-52 20-51 4-11 6-11 8-16 21-37 15-24 22-31 12-17 12-14 10-13 29-33 20-23 16-15 21-19 12-11 10-8 8-7 9-7 18-14 25-18 24-15 33-17 38-17 28-10 34-11 28-7 31-6 36-4 33-4 49 1 43 2 46 4 41 6 36 3 38 5 45 7 37 7 40 5 43 10 58 13 42 7 50 10 31 6 31 7 38 8 34 8 26 6 25 6 29 7 28 6 32 6 23 3 26 5s2 3 36 5c37 3 100-7 100-7l-157 62-40 32-27 34-14 44-4 40 8 50 16 39 29 38 39 37 48 25 65 12 64-9 48-15 51-16 52-30 32-18 44-27 37-24 28-18 27-14 12-5 13-4 11-2h11s13-1 22 2l5 3a24 24 0 0 1 7 9 36 36 0 0 1 4 15 81 81 0 0 1-1 14l-2 7-2 4c-13 38-36 64-36 64l-45 57-37 47-36 45-44 53-36 48s-20 27-27 44c-8 17-10 39-8 51 1 11 3 24 13 38 11 16 41 21 63 17 24-5 49-25 49-25l42-23 43-27 35-20-60 113s-44 93-67 155c-22 62-26 79-55 159s-59 149-59 149-35 76-51 147-17 85-15 137c3 53 27 69 26 73l-12 7c-11 7 2-3-33 21s-50 48-101 93c-51 44-29 39-90 98-57 56-63 87-102 137s-42 42-63 65c-20 23-25 24-41 31-16 6-38-13-38-13s-8-1-33-23-23-15-58-56-90-115-90-115l-48-137-41-84-46-50-27-20-15-106-55-122c-8-61 29-154 29-154l54-12 89-57s38 4 75-72c38-76 5-74 5-74s30-8 25-66c-6-58-39-32-54-81-16-49 2-21-22-65-24-43-27-69-27-69l-34-86-34-78-66-26S978 674 957 676c-33 2-206 239-254 256-34 13 58 175 58 175s-31 103-41 119l126 55-58-54s-128 100-101 169c27 70 120 128 120 128l-106-83c4 2-15-1-15-1l-4 7 23 10c5 2 6 18 6 18l8 2 15 1s30 13 42 16c10 3 7-17 9-17 5 1 17 30 17 30l26 11 42 21 53 34 70-11 48 211 19 106-24 23-13 10-8 11-3 12s-8 5-9 11l-5 23c3-9 0 35 0 35l-21 21-4 22-6 39 19 39-13 27 6 34 2 23 14 14 7 15 3 21 1 19 9 11v12s5 12 22 28c10 9 23 35 23 35s13 27 24 37c9 8 16 6 25 7 19 4 39 4 39 4l17 88 23 107 11 62 13 22 17 7 45-9s89-16 81-9c-3 2 4 12 9 21l17 32c12 23 12 31 36 64 25 33 34 37 69 57 16 9 22 10 40 15 18 4 11 4 33 6 41 3 42 1 84-12 19-6 54-22 54-22l33-19 80-52 59-52 85-94s17-3 17 14c0 18 5 29 5 46l5 44s-1 16 3 29c5 13 4 29 10 44s13 20 13 20-28 4-1 3c27-2 23 35 23 35l-14-18 26 43a587 587 0 0 0 49 83s-11 30 11 29c22-2 0 15 2 28l9 46s6 12 4 43c-3 30-13 93-13 93l-23 95-28 115-33 100-38 99-18 63-44 125-12 34-13 34s-10 23-20 36c-10 12-21 14-21 14s-12 6-25 3c-12-3-24-13-24-13s-9-11-12-23c-4-11-6-29-6-29l-1-33c0-20-1-10 1-49 1-42 9-118 9-118l11-94 15-95 13-102 5-82s2-27-1-61c-3-35-4-39-11-76-6-37-6-41-16-72-10-32-8-30-25-54-16-24-15-25-42-44-26-19-30-20-64-32s-31-11-72-14c-40-3-44-3-90 0-57 4-107 2-107 2s-43-2-65-12-38-15-71-39c-34-25-39-29-69-64-30-34-35-34-65-85-31-51-37-60-68-118l-55-100-29-109s-8-62-25-114c-16-51-17-56-43-95s-24-26-48-53c-25-27-22-24-47-48l-54-50-64-48-45-30-68-54s-22-20-50-65c-29-45-68-121-68-121l-47-123-29-70-27-70s-17-44-21-64c-6-29-12-35-17-57l-8-34a471 471 0 0 1-12-62c-2-13-5-21-5-21l-8-36-7-44" fill="#030303" fill-rule="evenodd"/><path d="M901 203h-6l-9 1-18 2-11 2-17 2-8 1-17 3-9 2h-5l-12 4-16 4-8 2-13 4-13 4-16 6-9 3-4 1-6 3-10 5-14 6-8 3-7 4-10 6-11 6-4 2-14 8-7 5-3 2-13 9-12 9-5 3-9 7-3 3-1 1-9 6-7 6-4 4-8 6-17 15-11 10-5 5-6 6-9 9-9 10-12 13-11 13-17 20-3 3-5 6-6 7-7 10-7 9-13 18-11 15-5 7-9 14-6 10-5 9-9 17-8 15-7 14-3 5-3 7-4 7-3 8a1989 1989 0 0 0-12 35l-3 6-1 3-14 52-1 4a648 648 0 0 1-4 23l-6 21-4 29-3 21-1 3v20l-3 47-1 32-1 21v46a595 595 0 0 0 1 0v-16l-1-30 2-21 1-32 3-45v-25l1-2v-5a1172 1172 0 0 1 8-44l3-16a488 488 0 0 0 6-27l1-3 8-30 4-16 1-5 1-2 1-2 1-3a4555 4555 0 0 1 13-35l5-12 3-8 2-4 3-7 7-13 3-6 8-14 8-15 4-7 5-8 10-16 5-7 10-13 14-20 7-10 8-10 5-6 5-6 2-3 17-19 12-13 13-15 8-8 9-10 6-6 5-5 11-9 17-15 7-6 5-4 7-6 6-5 2-2 13-9 5-5 13-9 12-8 3-3 8-4 13-8 6-3 10-6 12-6 5-3 8-4 14-6 11-5 5-2 5-2 7-2 16-6 16-5 18-5 6-2 12-3 11-3h4l9-2 17-3 16-2 20-3 16-1 11-2h44l11 1 19 1 24 1 19 1 18 1 9 1 10 2 21 2 10 2 9 1 27 2 17 3 21 3 24 3 21 3 27 6 10 1 10 2 20 2 7 1 3 1 5 1 8 2 24 5 37 8 27 6 10 2 21 3 10 2 21 4 41 9 89 18 18 4 16 4 25 6 46 11 25 6 12 3 14 2 18 3 23 4 18 3 6 1h2v1h1l2 1 6 1a196 196 0 0 0 44 3 546 546 0 0 0 74-6l5-1-11 4-47 19-65 25-21 8-7 3-2 1-3 2-3 3-11 8-16 13-6 5-2 1-1 2-3 4-8 10-10 13-3 4-1 1-1 3-2 6-5 16-4 14-2 4v4l-1 5-2 16-1 12v8l1 5 3 17 3 17 1 6v2l1 3 2 5 7 15 4 11 1 4 1 1 2 2 2 4 8 10 11 15 4 5 2 3 2 2 4 3 12 12 15 13 5 5 1 1 3 1 4 3 17 9 16 8 6 3 1 1 3 1h1l9 2 24 4 20 3 7 2h6l5-1 18-3 25-3 8-1 4-1 4-1 6-2 20-6 18-6 29-9 16-5 5-1 2-1 3-2 3-1 11-7 37-21 29-17 24-14 20-13 18-12 42-26 5-4 5-3 11-5 9-4 3-2 5-2 6-3 8-2 5-1 6-1 5-1 8-1 17 1 10 2 7 7 3 5 2 4 2 10-1 13-4 10-5 14a213 213 0 0 1-28 48l-6 7-19 24-96 122-32 38-8 10-4 5-7 9-13 18c-10 13-21 27-30 41a105 105 0 0 0-22 73l1 8 3 12a70 70 0 0 0 13 24c5 5 12 9 19 11 12 4 25 4 38 2s25-7 36-13l11-8 5-3 3-2 5-3 15-8 19-11 21-12 42-26 10-6 4-2h-1l-2 4-3 6-10 20-33 62-11 20-3 7a2335 2335 0 0 0-70 168l-30 89a3092 3092 0 0 1-74 192l-11 26a986 986 0 0 0-48 149c-4 19-8 38-10 57l-1 47 3 32c3 14 7 28 15 40l7 9c0 1 2 3 1 4l-2 1-4 3-9 5-3 2-4 2-16 11-17 12-20 17-25 25a1032 1032 0 0 1-42 39l-28 27-11 13-11 15a273 273 0 0 1-36 40l-19 19c-14 15-27 31-39 48l-40 61a514 514 0 0 1-52 60l-11 9-22 23-11 10-12 6-5 3-5 1h-6c-8 0-15-4-22-8l-4-4-2-1-1-1h-2l-5-3c-13-7-23-17-34-26l-23-19-24-27a1327 1327 0 0 1-88-111l-3-5-2-2-10-30-21-60-11-32-4-11-1-4-3-5-4-9-13-27-15-29-5-10-1-3-1-1-2-2-3-4-12-13-19-21-8-8-2-2-3-2-4-3-12-10-5-3-1-1-1-1-1-2v-3l-1-8-4-27-7-45-2-15v-5l-1-1-1-3-3-6-7-16-30-66-9-21-3-7-1-2-1-1v-4a164 164 0 0 1 0-25c1-23 5-46 11-68a555 555 0 0 1 18-56l37-9 12-2 3-1 2-1h2l1-1 3-2 9-6 30-19 30-20 10-6 3-2h4l5-1 13-5c13-8 24-19 33-30a240 240 0 0 0 39-82c1-7 2-16-2-23a13 13 0 0 0-10-6 26 26 0 0 0 9-5c5-5 9-11 11-18 5-13 5-27 4-41l-4-22c-3-8-7-14-13-19-6-6-14-9-20-15-8-6-13-15-16-24a216 216 0 0 1-8-33l-1-6-1-4-5-12-9-16a335 335 0 0 1-26-65v-1l-10-24-19-49-5-13-7-17-15-33-8-20-3-6v-1l-1-1-2-1-3-2-13-5-48-19h-1l-2-2-6-4a7112 7112 0 0 0-185-118 410 410 0 0 0-45-21c-3 0-6 2-8 3l-14 11a384 384 0 0 0-43 44l-87 99a1772 1772 0 0 1-87 89 80 80 0 0 1-14 10l-3 1-4 4c-2 4-2 10-2 14l4 22 14 38a777 777 0 0 0 45 92l2 3 1 1v1l-1 1-1 4a2509 2509 0 0 1-39 111v2h1l1 1 2 1 14 6 27 12-6 6c-17 17-34 35-48 54-9 14-18 28-23 44-4 11-6 23-4 35 1 7 4 13 6 19l12 21c11 18 26 34 41 48l-22-17-14-11-4-3-1-1h-1 1-6l-6-1h-4l-1 2-2 3-1 1v1h2l4 2 12 6 3 1 2 2 3 4a38 38 0 0 1 2 11v1l1 1h1l4 1 3 1h5l10 1h1l3 1 6 3 15 6a461 461 0 0 0 46 35h1v1h1v-1l-1-1-4-2-1-2-20-15-17-13 4 1 7 3h3c4 0 5-5 6-8v-6l1-2v-1h1l2 2 3 5 8 17 2 4 1 2h1v1l2 1 8 3 15 7 12 5 21 11 7 3 2 2 9 5 16 10 20 13 5 3 2 1 1 1h2l3-1 11-1 37-6 13-2h1l2-1h1l1 2v3l3 10 8 39 24 106 8 34 3 17 2 9 3 17 10 50 4 21 1 6v3h-1v1l-2 1-7 7-11 10-4 4-3 3-7 5-1 1-1 1-1 1-2 3-4 6-1 1v1l-1 4-1 6-1 1-1 1-2 1-5 6-1 5-1 5-4 17 1-1v-1 5a318 318 0 0 1-1 26v5l-14 14-6 6-1 1v1l-1 5-2 9-5 33-2 9v5l1 2 3 6 10 21 4 7v3l-1 2-2 5-7 14-1 4-1 1v3l2 7 3 17 1 7 1 6 1 11v6l1 1 3 3 7 7 2 2 1 1 1 2 1 4 3 6 2 3v4l1 5 2 8v11l1 8v4h1v1l1 2 5 5 1 2 1 1v12l1 2c3 8 9 14 15 20l7 7 5 7c6 8 12 16 16 25l4 8a211 211 0 0 0 16 26c3 4 7 7 11 9l15 3 7 1a203 203 0 0 0 35 3h1v4l2 7 4 22 13 65 14 65 6 32 6 27 4 23 1 8 1 2v2l1 1 2 3 4 9a2464 2464 0 0 0 5 8l1 1 1 1h1l5 2 8 3 1 1h2l4-1 11-2 29-6 7-1 11-2 33-5 23-3h5l2 1c1 0 0 0 0 0l-1 2 2 5 5 10 5 9 18 35 10 21 11 18a377 377 0 0 0 39 48c9 9 20 15 31 21l26 14 25 7 9 2 7 2 10 1 12 1c10 1 21 2 31 1 11-1 22-5 32-8l27-9a516 516 0 0 0 38-16l5-2 18-11 10-5 5-3 12-8 25-16 29-19 10-7 4-2 4-4 8-7 24-21 16-13 5-5 2-2 3-3 5-5 15-17 45-50 12-13 4-5 1-1h5c3 0 5 1 8 3 5 5 4 12 4 18l4 23v6l1 12a187 187 0 0 0 4 32l1 10v2a94 94 0 0 0 2 24l3 8 2 14 4 17a77 77 0 0 0 13 27l1 1-2 1-6 1h-3l-1 1h7c6 0 11-1 16 2 8 3 11 13 12 21a60 60 0 0 1 0 10v1l-1-1v-1l-7-7-1-2-4-5v-1h-1v1l1 1 2 4a1315 1315 0 0 0 23 37l1 2 2 6a852 852 0 0 0 18 34l10 14 14 21 3 4 1 1v1l-2 7c-1 5-2 11 1 16 2 5 7 6 12 6h2c2 0 6 0 7 2v3l-2 5-4 11-1 6 1 3 1 5 3 18 3 14 1 5v2l1 1 1 4 2 14a950 950 0 0 1-11 98l-2 13-1 6-14 62-8 33 5-18 18-77 1-6a2441 2441 0 0 0 12-91 127 127 0 0 0-2-35l-1-3-1-1-5-29-3-13-1-6c0-5 3-11 5-15 1-3 3-5 3-8s-4-3-7-3h-5c-3 0-6-1-8-4l-2-2c-2-5-2-11-1-16l2-6v-2l-2-2-3-4-9-13-13-20a306 306 0 0 1-18-36l-3-5-1-2a1001 1001 0 0 1-22-36l-2-5-1-1 2 2 8 11 2 3 1 1v-10c0-9-3-19-12-23l-3-2h-19l2-1 4-1h5l1-1h-1v-1a35 35 0 0 1-3-3 59 59 0 0 1-6-11l-5-11c-3-9-3-20-5-29l-2-7-1-5a76 76 0 0 1-3-21v-9l-1-5a428 428 0 0 1-3-31l-1-9v-3l-3-18-2-14v-8c0-3-1-7-4-9-3-3-6-4-10-4h-2l-1 1-7 7-10 12-45 50-15 17-5 5-3 3-3 3-5 4-15 13-24 21-9 7-3 4-5 3-10 6-29 19-25 17-12 7-5 3-10 6-17 10-6 2-10 5-27 11c-9 4-19 6-28 9-10 3-20 6-31 7h-32l-12-1-9-1-7-2-9-2c-8-2-17-4-25-8-9-3-18-9-26-13-11-7-22-13-31-21a377 377 0 0 1-50-66l-10-22-18-35-6-10-4-9c-1-1-2-3-1-4v-3h-8a332 332 0 0 0-56 8l-11 2-6 1-30 6-11 2-3 1h-1l-1-1h-2l-7-3-5-2-1-1h-1l-1-1-1-3-5-8-4-7-1-2-1-1v-4l-1-4-3-15-7-35-8-39-10-49-5-23-4-21-9-46-3-14-1-6v-1h-1a183 183 0 0 1-33-3l-7-1-12-2c-6-1-11-5-14-9l-9-11-9-16-3-6a223 223 0 0 0-22-34l-6-6a100 100 0 0 1-16-21l-1-2a990 990 0 0 0 0-11v-1l-1-2-1-2-4-5-2-2-1-1v-12l-1-6v-5l-2-8v-5l-1-3-1-3-3-7-2-3-1-2-2-2-1-2-7-6-3-3-1-1v-7l-1-12v-4l-2-9-3-15-2-8v-2l1-1 1-2 1-4 7-13v-2l1-2 1-2 1-2-1-1v-1l-1-1-3-6-10-21-3-6v-1l-1-1v-1l1-4 1-10 3-16 1-8 2-8 2-10v-4l2-1 1-1 3-3 10-11 4-3 1-2v-3l1-6v-27l1-5 2-12 2-8 5-6 3-1 1-1v-3l2-6v-1l1-2v-1l2-3 4-5 1-2 1-1 2-1 4-3 4-3 2-1 5-6 15-14 3-3 1-1v-3l-1-6-4-18-11-62-3-17-4-17-7-31-18-82-12-55-4-18-2-5v-3h-5l-1 1h-1l-22 3-30 5-8 1h-2l-2 1-1-1-4-3-11-7a34701 34701 0 0 1-33-21l-4-2-3-1-7-4-22-11-10-5-14-6-8-4-3-1h-1v-2l-2-2a260 260 0 0 0-10-22l-4-4c-2-1-2 2-2 3v5c-1 3-2 9-5 9l-4-1-4-1-8-3-15-12a350 350 0 0 1-49-58 157 157 0 0 1-13-28c-2-5-2-10-2-15 0-17 6-34 14-48a407 407 0 0 1 67-81l31 13 38 16 9 4 2 1v-1l-1-1-6-5-15-14-26-25-7-6v-1l-1-1h-2l-1 1-6 5-14 13-23-10-16-7-5-3h-2v-1h1v-1l3-6 9-22a1461 1461 0 0 0 26-82l2-4v-4l-2-2-4-9a1161 1161 0 0 1-52-111c-3-10-6-20-7-31-1-5-1-11 2-16l3-4 3-1 3-1 12-8a248 248 0 0 0 39-38l49-53 86-98a964 964 0 0 1 57-55l7-3 6 1 8 4 31 16a1749 1749 0 0 1 105 66 6578 6578 0 0 1 80 53l6 4 2 1 1 1 47 19 14 5 4 2h1v1l1 1v2l2 4 9 20 15 34 7 16 5 15 20 50 6 15 2 5v1l1 5 2 8a226 226 0 0 0 24 55l9 16a95 95 0 0 1 6 15v5l1 6a152 152 0 0 0 8 27c3 9 8 18 16 25l20 14c6 5 10 12 12 19 3 8 4 16 5 24 1 15 0 31-7 44-3 6-7 11-12 15a26 26 0 0 1-6 3v1h2c3 0 5 1 6 3 4 3 5 9 5 14l-3 18-7 22a301 301 0 0 1-33 57c-8 10-18 19-29 25a51 51 0 0 1-19 6h-2l-7 5-14 8-42 27-18 12-5 3-2 1-1 1h-2l-3 1-9 2-26 6-10 2-2 1h-2v1l-1 2a349 349 0 0 0-17 53 378 378 0 0 0-12 85v9l1 4v1l1 2 3 6 8 18 29 64 10 21 3 7v2l1 1v3l1 7 3 16 7 52 3 20 1 7v1l2 2h1l5 4 13 10 4 3 1 1 4 4 6 7 20 22 11 12 4 4 2 1 1 3 3 5 7 15 20 42 7 13 3 6 2 6 3 8 9 27 23 64 7 21 4 11 1 2 2 3a5012 5012 0 0 0 96 120l16 18c9 10 20 18 31 26 8 7 16 15 25 20a49 49 0 0 0 9 5h2l1 1 4 4c7 4 15 8 23 9h7l4-2 6-2 11-6c5-3 9-7 12-11l21-22 12-10 10-9a321 321 0 0 0 41-50c15-20 27-42 41-62 11-17 24-33 39-48l19-19a465 465 0 0 0 35-40l11-15 12-13 27-26a832 832 0 0 0 43-41l25-24a266 266 0 0 1 52-39l4-3 4-2 8-5 5-2 2-1c1-2-1-4-2-5l-7-10c-7-12-12-26-14-39l-3-33a337 337 0 0 1 11-103 834 834 0 0 1 47-149l12-26a2796 2796 0 0 0 73-191l31-90a1296 1296 0 0 1 65-157l5-12 3-6 24-46 27-51 7-13 1-1 1-2h-2l-2 1-9 6-43 26-22 14-13 7-29 16-2 1a138 138 0 0 1-10 7c-12 7-24 13-37 16a81 81 0 0 1-43-2c-6-3-12-6-16-10l-5-6-5-8c-3-7-5-15-6-22l-1-8-1-8a107 107 0 0 1 8-39l15-27 17-23 13-18 14-18 5-8 5-6 8-10 31-37 97-122 19-24 6-7 6-8c9-13 16-26 22-39l5-14c1-4 3-7 3-11l2-13c0-4-1-8-3-11a66 66 0 0 0-4-8c-2-3-5-6-8-7-3-2-8-3-12-3h-23l-6 1-5 1-5 1-8 3-5 1-7 3-4 3-6 3-11 5-6 3-4 3-43 28-18 12-21 12-23 14-30 18-36 20-13 8-3 2-2 1h-2l-6 2-14 4-29 9-18 6-21 7-7 2-3 1h-5l-8 1-24 4-19 2-5 1h-5l-7-2-18-3-26-5-7-1h-2l-2-1-3-1-6-3-16-9-15-8-6-3-2-1-2-2-5-5-13-12-13-11-5-5-1-1-2-4-4-4-11-15-8-11-2-3-1-2-1-2-1-3-5-10-6-16-2-5-1-2-1-4-1-5-3-18-2-16-1-6-1-1 1-3v-2l1-11 2-17 1-5v-2l1-3 1-4 4-12 5-17 2-5 1-3 1-2 3-4 9-11 9-12 2-3 2-2 3-3 4-3 17-13 11-9 4-3 1-1 2-1 3-1 8-3 26-10 81-32a83768 83768 0 0 1 31-12l2-1 3-1 1-1v-1l-1 1h-3a727 727 0 0 1-89 7 265 265 0 0 1-43-5l-1-1h-2l-22-4-24-4-18-3-14-2-14-3-28-7-40-9-26-7-34-8-92-19-41-8-17-4-11-1-22-4-9-2-9-2-20-4-36-8-24-5-8-2-4-1-4-1-7-1-20-2-9-2-10-1-27-5-21-4-24-3-22-3-16-2-10-1-18-2-8-1-10-1-21-3-10-2h-7l-15-1-24-2-20-1-23-1-28-1h-21Zm1179 3098-16 64-8 35-3 10-1 6-2 6-3 9-10 30-12 37-6 18-4 10-8 20-22 60-4 9-2 6-2 10-9 31-3 11-2 5-4 11-7 19-22 63-14 42-6 16-4 12-9 22-4 10-12 24c-6 10-14 20-26 24h-2l-4 2a51 51 0 0 1-17 1l4 1 13-2 5-1 1-1c12-4 20-14 26-24l12-24 5-12 8-20 5-13 5-16 14-41 23-62 7-22 3-9 2-6 3-10 9-31 3-11 1-5 4-11 23-59 7-19 4-10 6-19 13-37 9-30 3-10 2-4 1-6 3-10 8-33 16-66ZM788 1227l5 5 9 9 30 27 10 10 3 2h-1l-3-1-9-4-26-11-40-18a474 474 0 0 1 20-17l1-2h1Zm-467 50 3 18 10 40-10-40-3-18Zm18 79 10 30-10-30Zm15 53Zm8 25 1 2 6 17-7-19Zm324 6 2 1h3l9 1h3l1 1 7 6 20 15 16 13 11 10h-1l-16-7-5-2-2-1h-14l-1-1h-3l-1-1h-3l-1-1v-1a71 71 0 0 0-1-7c-1-2-2-7-4-9l-2-1-3-1-13-6-4-2h-1v-2l2-3 1-1v-1Zm-317 15 1 3 4 9 14 37-14-37-5-12Zm46 114 2 6 9 22 5 11 46 122 1 2 2 4a2342 2342 0 0 0 51 92 500 500 0 0 0 64 88l3 3 7 5 18 14 27 22 9 7 4 4 4 2 7 5 23 15 11 8 8 6 14 10 42 31 5 4 7 7a1585 1585 0 0 1 49 46l17 17 23 25 14 13 15 14 19 25 15 24 12 22 13 39a783 783 0 0 1 28 119v5l29 109 1 1 1 2 4 6a14742 14742 0 0 1 78 145l29 48 21 34 15 22c10 14 22 26 34 39 15 17 29 35 46 49l24 18a350 350 0 0 0 63 37l14 6-6-3a1801 1801 0 0 0-36-17l-35-23-24-18c-17-14-32-32-47-50l-33-38-17-25-20-32-28-47-31-56-36-68-12-21-3-7-1-2h-1l-29-109v-5a800 800 0 0 0-28-121l-13-37-12-22a689 689 0 0 0-34-49l-15-14-14-13-23-25-18-19a1666 1666 0 0 0-49-45l-7-7-3-3-44-32-14-10-7-6-11-7-23-15-8-6-3-2-5-4-9-7-26-21-19-15-7-5-1-1-1-1-15-17a500 500 0 0 1-72-111l-21-39-7-14-2-4-1-1-33-86-14-37-15-38Zm337-88 10 8-2-1-2-1-6-6Zm9 7 2 1 26 21 14 11-2-1a418 418 0 0 1-40-32Zm588 1436 6 2 27 6 6 1-8-1a184 184 0 0 1-31-8Zm39 9Zm12 1 6 1a226 226 0 0 0 37 1l68-2 51-3c16-1 31 1 46 2l21 2 19 2c11 2 22 6 32 10l25 9a362 362 0 0 0-75-21l-18-2c-16-1-33-3-50-2l-55 3a1322 1322 0 0 1-85 2l-16-1-6-1Zm305 22 4 2-4-2Zm4 2 6 2 23 15a770 770 0 0 1 30 23c6 6 11 15 16 22l9 13a99 99 0 0 1 12 27l5 14 9 30c3 11 4 23 6 34l7 37a570 570 0 0 1 7 111l-1 12-1 22-2 33-1 15-2 15-4 29-4 38-3 20-3 20-8 51-4 24-2 15-3 29-7 50-1 19a4498 4498 0 0 0-7 82l-1 33-1 16 1 11v18l3 33a89 89 0 0 0 9 30l5 7 2 3 2 2a75 75 0 0 0 15 9l11 2c-5 0-9-1-13-3a67 67 0 0 1-14-9l-1-1-2-2a102 102 0 0 1-9-18l-4-14-3-18-1-35v-32l2-34a2159 2159 0 0 1 6-80l2-19 6-50 3-30 2-14 1-9 3-17 8-50 3-19 3-20 4-38 4-29 2-15 1-16 2-32 2-23v-11a353 353 0 0 0-2-69 656 656 0 0 0-5-44l-7-37c-2-11-3-22-6-32l-9-31-5-15-5-12-7-14-9-12c-5-8-10-16-16-22l-15-12a854 854 0 0 0-38-26l-6-2Z" fill="none"/><path d="m1131 1768 2-1 2 1-2 2-2-2Z" fill="#474ba9" fill-rule="evenodd"/><path d="m2166 3066 15-4 19-3 9 11s3 17 2 18l-8 13-7 3-7-4h-18l-5-18v-16Z" fill="#5054a3" fill-rule="evenodd"/><path d="m2178 3062 17-1 8 22v17l-5 4-9-4h-6l-9-1-2-15-1-13 7-9Z" fill="#868fc7" fill-rule="evenodd"/></g><path d="m1233 1910 68 43 58 121 29 120 4 89 7-82 120 133 76 60 41-19 136-164 79-91 75-87 90-72 73-24 21 29-6 180-3 129-64 118s-93 132-113 149c-20 18-162 163-173 180-11 16-176 72-176 72l-168-138-115-248-59-498Z" fill="#fe9fdb" fill-rule="evenodd" vectornator:layerName="Слой 43"/><g vectornator:layerName="Слой 31" fill-rule="evenodd"><path d="m979 1638 202 1068" fill="#7277dd"/><path d="m985 1536 183-17c2 0 5 2 5 4l181 1153c1 2 2 9 0 10l-172 28c-3 0-13 2-14 0L982 1541c-1-2 1-5 3-5Z" fill="#474ba9"/></g><path d="m1022 1655 145-24c2 0 5 1 5 4l165 1032c0 2-2 5-4 5l-145 24c-2 0-4-2-5-4l-130-819-34-213c-1-3 1-5 3-5Z" fill="#e2e6fe" fill-rule="evenodd" vectornator:layerName="Слой 32"/><g vectornator:layerName="Слой 42" fill="#dc7bb8" fill-rule="evenodd"><path d="m2096 1930-1 28s-17-6-45 5c-27 11-65 40-65 40s-27 24-54 52l-55 58-29 31-44 52-54 67-39 51c-19 25-32 41-40 48-13 12-38 32-38 40-1 4-2 5 12 20s40 35 45 46c5 12 3 23-20 9s-60-48-85-69c-25-20-23-13-53-40-30-28-34-31-67-69s-60-76-60-76c2 55 11 77 9 90-1 13-14 8-20-3-6-10-8-41-8-41l-8-55c-4-25-20-69-32-112-12-42-35-101-35-101l-29-43s-20-25-31-30c-12-5-14-3-14-3l-6-41s5 5 31 20c25 15 27 15 50 51 22 36 36 77 44 97l26 76s12 34 23 54c11 21 60 80 60 80l55 63s30 27 54 43c25 15 43 4 43 4s32-21 70-71c34-44 43-61 84-110 42-50 49-61 93-109 37-39 47-48 89-87 42-38 71-50 71-50l37-12c12-4 36-3 36-3Z"/><path d="M1037 1874c-11 2-22 20-22 20s-19 42-23 64c-4 23-4 20-2 31 2 8 13 17 13 17l30 23s22 14 37 21a363 363 0 0 0 74 23c18 4 49 6 49 6s18 0 26-2 22-5 38-12c0 0 15-6 26-14 11-9 14-10 20-21 7-11 7-12 11-22 4-11-2-20-3-22-1-5-3-11-12-17-8-6-30-11-48-16-26-6-54-16-54-16l-43-15-37-14c-17-6-16-7-28-13l-20-9s-21-15-32-12Z"/><path d="M1002 1994s-19 13-25 24c-6 12-6 14-9 28-3 15-3 23-2 36 0 14 3 17 6 25 2 5 5 11 17 21 12 9 14 10 29 18a372 372 0 0 0 150 33c13 0 25-2 30-6 6-5 9-10 12-18 4-8 7-14 10-29 2-15 2-19 2-31-1-13-1-14-3-19-2-4-45-25-50-25-6 0-58-20-58-20s-41-20-46-21l-63-16Z"/><path d="M977 2112s-3 4-6 16c-2 11-5 14-5 28a137 137 0 0 0 9 55 57 57 0 0 0 25 29s39 18 70 27c30 10 28 9 51 12 23 2 27 1 46-2 18-2 24-6 32-9 9-2 16-13 19-19 4-6 6-12 7-24 0-11-1-15-4-27-2-11-5-16-8-21-3-7-12-18-12-18s-41-25-47-24c-7 1-71-24-71-24l-39-12c-4-1-39 5-39 5l-22 7-6 1Z"/><path d="M997 2237c-4 14-3 18-1 33a119 119 0 0 0 24 56c7 9 12 16 22 25l14 13c1 0 1 14 8 24 6 11 18 19 18 19s10 10 24 14 19 3 33 3c11 0 36-9 36-9s18-9 29-24 12-22 16-37c3-15 3-45 2-57l-1-28-2-22-90 28-75-21s-53-32-57-17Zm310 143s39 75 68 124c28 48 37 61 61 97a639 639 0 0 0 107 126c23 20 24 15 44 22s56-4 56-4 27-11 57-33c29-21 39-32 71-63 32-32 34-33 63-70l62-77s36-52 67-88l72-84 64-64-99 187-25 84-18 83-19 26s-33 44-57 72a458 458 0 0 1-140 115s-64 35-87 44c-24 8-56 18-97 14-41-5-52-13-80-34-38-29-46-41-70-71-22-29-33-57-33-57l-18-42-49-307Z"/></g><path d="M1053 1909c-7 3-12 14-19 29-8 14-8 15-13 29-4 13-6 25-3 29 6 8 21 19 54 34s47 18 77 26c30 7 51 3 51 3l33-5s20-7 33-15c12-9 18-16 21-25 1-6 1-12-5-19-5-8-17-11-17-11l-79-22-35-13-48-20-30-14c-11-6-14-9-20-6Zm-44 110s-10 19-13 35-3 19-3 32c0 12 4 19 6 24s5 7 9 9l14 7c13 5 17 8 41 16 24 7 31 8 57 12s30 4 48 3c19-1 25-7 25-7s6-8 8-23c2-14 2-22 2-34s-2-12-2-12h-26c-15-1-33-2-49-6l-46-15-30-14c-14-7-29-18-29-18l-12-9Zm-11 120 8 53s1 13 6 21 14 11 14 11 47 18 73 26c26 9 21 7 32 8 10 1 27 0 43-5 16-6 24-18 24-18s4-14 4-26c0-13-1-15-4-23-4-9-6-10-10-11-12-2-38 3-44 3-5 0-16 0-36-3-19-3-29-4-43-9l-67-27Zm23 108c0 3 1 17 5 30 3 13 4 13 8 23 4 11 11 22 11 22s9 15 25 25c17 10 21 11 43 16 21 5 42 0 42 0s23-10 36-24c13-13 11-15 15-29 4-15 2-19 0-29-1-11-6-13-6-13s-17 8-33 10c-10 1-15 2-35 1-21-1-29-3-51-10l-41-14s-19-11-19-8Z" fill="#fe9fdb" fill-rule="evenodd" vectornator:layerName="Слой 44"/><path d="M494 1123a526 526 0 1 1 1051 0 526 526 0 0 1-1051 0Z" fill="#474ba9" fill-rule="evenodd" vectornator:layerName="Слой 13"/><path d="M532 1120c0-260 218-471 487-471 268 0 486 211 486 471 0 261-218 472-486 472a479 479 0 0 1-487-472Z" fill="#e2e6fe" fill-rule="evenodd" vectornator:layerName="Слой 1"/><path d="m1259 908-50-35-47-30c-22-12-23-12-42-20-18-8-15-6-31-11l-32-8-33-5-29-3-28 1-31 5-28 5-26 11-22 10s-16 9-26 17c-10 7-10 7-21 19-10 12-13 14-22 33-10 20-15 44-15 44s-4 18-4 37c0 15 5 31 5 31s5 24 10 32c4 7 11 25 24 39a191 191 0 0 0 72 61c19 10 36 17 35 18a566 566 0 0 0 79 34l50 24c26 13 46 25 63 43 10 11 15 19 18 35 4 15-1 28-6 38-7 13-18 23-18 23s-17 12-26 16c-18 7-44 13-44 13s-26 1-37-1l-25-2-27-4c-12-2-35-6-39-8l-30-9a257 257 0 0 1-58-34l-29-21c-7-5-10-10-10-10l-5 6-24 32 15 11 36 26c17 12 13 10 33 21l32 17 30 13 28 9 44 8c9 1 17 3 25 2h32c13 1 29-1 55-4 48-5 82-26 90-29 6-2-5-51-2-54l-10 8 13-30 4-13c2-12 1-25-2-38-3-12-5-14-9-22a154 154 0 0 0-51-57c-18-13-33-19-33-19s-18-11-27-14l-35-15-48-21c-15-6-22-8-33-15l-33-16c-10-5-15-10-22-15-11-8-21-16-25-23-8-12-18-23-23-32a129 129 0 0 1-16-64c1-16 3-19 4-24 1-9 5-19 9-24 3-7 11-19 18-25 6-7 12-12 15-14l19-13 21-10c4-3 8-4 13-5l16-6-17 19-12 12-12 16-8 16-4 17-1 17s0 8 3 18l6 21s4 10 12 20c7 9 8 10 19 20s22 17 29 22l26 14c30 16 68 30 68 30l42 19s25 10 51 28c27 17 37 21 58 45 22 24 27 50 27 50s5 30 1 53c-2 11-7 21-7 21l-14 20c-7 9-19 20-32 29l-61 45 63 9s28-18 46-34c19-15 30-34 30-34s8-9 15-29l6-27c2-10 2-22 1-29l-2-19c-2-20-8-36-8-36s-11-29-36-56c-24-27-64-50-64-50l-51-26c-24-12-21-9-44-19l-45-20-27-13-31-20c-11-6-25-24-27-28-6-16-6-26-6-26s-1-9 3-20c5-11 13-20 13-20l15-15s20-17 34-22l19-6c8-2 15-2 32-2l22 2 27 8 23 10 20 12 24 14 25 17 46 32" fill="#4a4a4a" fill-rule="evenodd" vectornator:layerName="Слой 14"/><path d="M2166 2253s-73 104-104 182c-32 78-42 135-4 207s122 84 146 85c34 1 202-21 268-34 66-14 230-58 294-79 63-20 75-23 152-45s103-31 152-47 50-19 50-19 12 14 14 28c2 11-146 50-146 50l-171 61-205 61-185 68-180 59-105 35 14 94 18 67 16 66-72-2-31-118-57-101-40-70-23-71v-75l6-87 25-96 56-97 44-70 68-52Z" fill="#6064bd" fill-rule="evenodd" vectornator:layerName="Слой 8"/><path d="m3227 1069 17 32s18 32 24 46c5 13 2 6 6 25a894 894 0 0 1 20 172v88l13 85 8 78 29 62c10 20 25 35 41 52s59 51 66 56c8 5 41 34 53 45s-121-31-121-31-47-16-82-32c-36-16-67-39-67-39-26-25-28-19-40-54-11-35-8-51-6-86 2-34 27-97 39-166l18-108s6-44 3-78c-3-48-3-30-5-58-1-28-3-28-6-51-4-22-12-44-10-38Z" fill="#2e3172" fill-rule="evenodd" vectornator:layerName="Слой 22"/><path d="M3265 1139s17 31 27 64c11 34 14 45 20 85 7 39 4 38 7 73a2024 2024 0 0 0 20 131c5 28 4 28 11 53 7 26 9 26 17 50l17 44c9 22 7 20 19 41s15 24 28 44 13 20 25 35c11 15 64 66 45 48-20-18-60-46-88-68-27-21-36-32-36-32s-14-12-29-38c-13-23-15-25-27-53-12-27-14-29-20-63-6-33-6-71-6-71l-2-88-1-62s2-23-4-69c-6-47-23-124-23-124Z" fill="#373b80" fill-rule="evenodd" vectornator:layerName="Слой 21"/><g vectornator:layerName="Слой 3"><path d="m1862 366-28 10c-14 5-15 4-29 10-7 3-5 1-20 9l-26 16c-13 9-15 11-27 23-11 10-12 10-23 27a162 162 0 0 0-27 76v33l5 35a199 199 0 0 0 71 114s11 10 19 15l8 5 11 6 20 10 27 9 16 5 13 2 15 2 14 1 13-1h17l28-7 20-6 21-6 19-7 35-13 41-23 39-24 38-28 33-29 37-31 36-26 36-22 33-20 35-17 37-21 40-19 45-20 51-21 40-14 44-14 45-14 41-13 44-10 44-12 36-8 28-6 22-5 34-8 29-7 23-4 32-5 34-8 33-8 30-7 27-10c12-3 22-8 31-11 17-6 35-15 35-15l25-12 16-8c-9-2-17-6-17-6l-16-4-25-6-22-4-21-3-26-4c-14-3-32-4-32-4l-27-3-24-2-25-2-24-1-28-1-28-1-22 1h-42l-21 2-29 3-34 4-31 5-24 4-32 4-27 4-27 3-29 3-35 6-29 4-34 6-30 5-28 5-33 6-42 6-41 7s-28 2-40 5l-36 4-36 5-35 6-48 8-48 9-43 11-46 10-51 12-41 10-57 15Z" fill="#001d56" fill-rule="evenodd"/><path d="M2933 193h-22l-15 1h-27l-6 1-13 1-22 2-9 1-16 2-18 2-14 2-23 4-18 3-34 5-17 2-8 1-19 2-8 1-13 1-16 2-10 2-25 4-29 4-14 3-27 4-23 4-28 5-33 6-83 12-10 1-19 3-20 3a512 512 0 0 1-24 3h-3l-71 11-10 2-20 3-24 4a514 514 0 0 0-35 6l-7 2-29 7-14 4-15 3-31 7-25 5-47 12h-1l61-15 41-8 17-4 15-4 28-7 8-2a788 788 0 0 1 34-6l24-4 21-3 9-2 71-11h3a682 682 0 0 0 23-3l24-3 17-2 9-1 41-6 25-4 17-3 33-6 28-4 23-4 28-5 13-3 29-4 25-4 11-1 15-3 13-1 10-1 17-2 7-1 15-2 37-5 14-2 26-4 15-3 22-3 12-1 19-2 21-2h7l3-1h54l10-1 18 1 44 1 18 1 34 3 15 1 27 3 7 1 14 1 21 4 11 1 5 1 9 2 24 4 10 1 11 3 14 3 11 3 5 1 1 1a71 71 0 0 0 15 5h1-1l-1 1-6 3a543 543 0 0 1-33 16l-3 1a507 507 0 0 1-19 9l-17 6-18 7-12 4-24 9-6 1-12 3-36 8-43 10-2 1a713 713 0 0 0-18 3l-22 4-9 2h-4l-7 2-13 3-20 4-23 6-44 10-31 6-11 3-11 3-22 6-11 2-11 3-22 5-11 3-10 3-18 6-46 14-37 12-19 6-19 6-15 6-7 2-8 3-17 7-25 11-30 13-15 7-8 3-15 8-11 5-6 3-9 5-19 10-9 5-9 5-17 8-9 5-4 2-7 5-24 14-23 14-8 5-3 2-7 5-12 9-12 7-5 4-6 5-11 9-14 11-7 6-8 8-16 14-6 6-2 2-7 5-13 10-12 9-6 4-6 4-11 6-14 9-8 5-6 3-11 6-17 9-5 3-3 1-5 2-9 4-26 10-9 3-4 2-6 1-15 5-14 4-6 2-7 2-16 3-3 1h-2l-1 1a301 301 0 0 1-10 0h-33l-10-1-5-1-6-1-13-4c-7-2-15-3-22-6-13-4-26-10-39-17l-12-7c-12-8-22-18-32-27l-17-19-9-9-2-4a199 199 0 0 1-38-128l2-22a161 161 0 0 1 24-65l12-16 13-12 15-15a154 154 0 0 1 24-16l12-7 14-7 6-2 7-3 20-7 25-8 5-2h1v-1h-1l-2 1-11 4-19 6-14 4-12 5-6 3-13 7-10 5a285 285 0 0 0-26 17l-15 14-15 15-10 15c-5 7-10 14-13 22l-7 21a183 183 0 0 0-7 37v18a210 210 0 0 0 6 46 176 176 0 0 0 35 76l3 3 5 6 11 11 7 8c9 9 18 17 29 25l3 2 12 7a239 239 0 0 0 48 20l10 3 15 3 7 2h2l5 1 8 1h18a88 88 0 0 1 9 0h12l4-1h1l19-4 9-2 3-1 5-2 17-5 12-3 4-2 11-4 19-7 16-6 8-3 4-2 5-3 17-9 10-6 6-2 7-5 15-9 11-7 6-3 7-6 11-8 13-10 6-5 3-2 5-5 17-15 8-7 7-6 14-12 12-9 4-4 7-5 11-8 12-8 6-4 4-3 8-5 23-14 24-14 7-5 3-2 9-4 17-9 9-4 11-6 18-10 8-4 16-8 17-8 7-4 13-5 24-11 38-16 14-6 7-3 6-2 12-4 22-8 11-3 33-11 45-14 29-9 9-3 4-1 4-1 8-2 22-5 9-2 12-3 21-6 11-3 11-2 25-5 17-4 33-8 22-5 41-9h1l3-1 9-1 24-5 13-2 5-1 87-21 7-1 3-1 20-7 8-2 8-3 18-7 17-7 15-6 5-3 2-1a302 302 0 0 0 35-16l5-3 2-1-2-1h-2l-12-4-2-1-7-2-13-3-21-5-17-3-26-4-11-2-26-4-14-2h-6l-28-4-17-1-32-2-31-1-37-2h-12ZM1923 350h-4v1l1-1h3Zm-15 4-21 5-14 4 22-6 13-3Z" fill="none"/></g><g vectornator:layerName="Слой 28" fill-rule="evenodd"><path d="M2095 1938c1 49-1 100-1 165v83l-2 59c0 24-2 34-2 34l-44 77s-17 26-36 68l-20 47-21 61s-11 39-15 70l-6 70s9 74 28 122c18 43 59 106 59 106l34 62s15 27 24 52 9 26 12 47c4 22 2 39 2 39l-53 235-37 138-29 120-29 91-100 299c-35 105-26 75-45 127s-40 93-60 165c-21 72-34 127-52 211-17 83-14 81-20 123s0 46 0 46l13 1 65-5s7-173 34-286c25-101 38-140 65-226l11-35c19-65 9-36 39-121 35-97 35-102 72-214s73-243 73-243l47-213c24-112 31-122 37-210 0-4 50-1 50-1l-3-11-7-30-36 2c-2-1-11 1-12-2-1-11-4-25-6-32-8-28-26-56-59-122-18-35-63-99-82-165-16-55-9-113-5-140 11-59 23-96 42-144s12-32 26-60l17-29 18-30s19-27 27-48c8-22 5-41 5-41l8-325 127-11s-2 74 3 125l5 52a2684 2684 0 0 0 24 115l221 12 152 13 111 14 100 14 25 8 168-298 123 44-39 73-46 93-41 96c-16 40-23 63-23 63s-3 4-6 29l-6 73c-6 20 9-20 9-20s6-33 14-38 18 19 18 19 63 114 61 116l-1003 328 55 198 9 35c38 142 84 325 110 469 50 280 17 442 17 442s-20 159-39 285l-33 215c-2 11-204 51-154 42l-204 47c-89 19-115 5-127 11-28 14-13 36-19 60-4 14 181-9 266-28 85-18 420-71 420-71s176-13 266-1c90 11 103 17 210 36 84 14 269 47 356 48 70 1 296-13 366-25 14-2 46-10 51-12 22-15-52-141-101-240-40-80-141-243-134-253 32-49 59-67 88-119 18-32 44-93 37-97-1-1 55-17 55-17a16553 16553 0 0 1 79 232l131 404s-115 28-166 34c-10 2 5 18 4 37-1 11-42 27-27 25 17-2 15 2 56-6 53-11 112-23 140-33l18-7c16-6 19-14 12-34-10-30-209-694-215-695-10-1-58 18-101 34-26 10-37 62-51 91a482 482 0 0 1-101 106c-31 11-124 21-156 16-31-5-148-40-168-40-9 0-13 336-24 459-3 31-7 46-9 45-79-13-303-41-303-41l-28-152c-8-60-10-117-10-117s211-94 252-108c18-7 157-57 184-73 32-19 30-49 31-50 0-3-261 82-438 160a949 949 0 0 1-182 69c-20-116-170-588-168-582 171 601-214-780-214-780l972-327 17-6-68-134-26-59 20-62 96-208c16-33 23-43 27-49 4-5 6-10 5-15-2-5-14-10-21-13l-53-20c-18-6-73-27-81-24-11 4-37 61-37 61l-40 75-39 71-20 41-8 16-18 33s-155-22-180-23l-218-16-194-12-19-93c-7-39-8-93-8-93l3-82s7-33-9-33c-36-2-120 1-152 10-16 5-13 25-13 36Z" fill="#5054a3"/><path d="m3162 3867-64 56-36 47-27 37 8 44 34 41s68 34 84 32c17-2 88 3 88 3l135-25 61-49 49-72 12-57-150-84-79-18s-61 13-75 19-40 26-40 26Z" fill="#5054a3"/><path d="m3084 3976-14 18-18 34 4 38" fill="#cdd4fe"/><path d="m3628 4549-15 25 7 18-3 16 46-7 35-8 5-33-13-16-18-5-17 2-21 4-6 4Z" fill="#5054a3"/><path d="m3479 3940 16 5 12-17 37-84 47-121 27-84 17-48-14-32-39 112-33 121-44 91-26 57Z" fill="#dc7bb8"/></g><path d="m2180 3060-4 2-4 2-6 6 1 16 8 15 22 1 7-3 7-8 3-24-12-10-15 2-7 1Z" fill="#5054a3" fill-rule="evenodd" vectornator:layerName="Слой 45"/><path d="m2137 2865 1918-636c3-1 27-8 28-5l24 82 355 1201c1 2 6 10 0 25-5 15-1937 726-1937 726l-343-1205-51-178c-1-3 3-9 6-10Z" fill="#868fc7" fill-rule="evenodd" vectornator:layerName="Слой 35"/><path d="M2566 2737c470-162 1486-480 1486-480 3 0 5 1 6 4 0 0 377 1242 377 1254 1 6-16 16-37 25-29 13-65 25-67 26l-87 34-4 1s-1668 627-1681 634c-13 6-28-8-29-11 0 0-72-264-172-604-100-339-155-521-216-739-2-6-36 15 424-144Z" fill="#cdd4fe" fill-rule="evenodd" vectornator:layerName="Слой 30"/><g vectornator:layerName="Слой 40" fill="#ffb9e4" fill-rule="evenodd"><path d="m2867 3273-1 96s-17 50-36 94c-18 44-28 55-33 89-6 34-5 69 18 69 22-1 59-11 99-37 41-26 41-60 62-67 20-7 21 38 21 38s-7 41-21 84c-14 42-27 59-21 103 5 44 8 73 42 87s62-5 115-39c54-33 55-39 100-95 44-56 74-119 77-170 4-50-16-61-32-90-17-29-42-15-42-15l-72-34-40-202-20-104 63-81s11-36 5-71c-5-34-25-83-64-67-39 17-92 133-92 133l-101 114-33 113 6 52Zm934-654c-4 4-11 19-13 27s-1 23 8 28c9 6 31-11 31-11s13-16 20-32c6-17 9-30 0-38-15-12-41 21-46 26Zm199 774c-32 43-50 47-77 64-24 15-41 31-57 59-15 28-15 50-7 71 8 20 25 27 37 28 25 3 43-1 85-18 42-18 53-22 82-48 20-17 45-53 56-67 13-17 39-65 39-65s28-39 44-88c16-50 23-66 19-109-3-43-12-97-24-110-18-19-30-18-57-1-26 18-39 72-52 97-18 34-16 41-37 84-21 42-19 59-51 103Z"/><path d="m3696 2613 1 46 24 70 65 103 61 143 4-83 46-146s20-70 23-123c2-54-10-89-10-89s-12-45-48-46-60 9-100 39c-40 29-66 86-66 86Z"/></g><path d="M3014 3093s23 34 23 93c1 58-17 131-17 131s-24 120-8 162c16 41 54 29 68 21 10-6 68-71 102-61 15 5 12 52 12 64 1 13 4 45 29 51 25 7 48-4 70-24 77-72 231 86 343 83 112-4 78-85 124-211 34-93 48-210 82-287 35-76 43-6 43-6s6 19-3 56c-10 38-24 74-31 106-7 33-2 92 37 28 40-65 95-148 124-238s6-116-3-125c-7-7-19-16-42-19s-35 5-54 9c-13 3-26 7-31 7-21 4-42-27-46-41-5-19 1-55 6-98 2-19 25-88 34-144 10-55 6-67 2-79-4-16-32-22-39-21-10 2-42 9-79 44-38 35-83 86-83 86l-31 146-129 118-123 6-57-43s-12-35-52-18c-39 17-106 86-106 86s-31 25-59 21c-16-3-22-34-26-41-8-13-14 0-14 0" fill="#777dc8" fill-rule="evenodd" vectornator:layerName="Слой 41"/><path d="m3117 2497 10 31 211 459s-45 583-64 650-67 130-67 130-221 265-219 297c3 45 149-23 200-75 29-29-32-30-19-60 24-55 107-132 110-133 15-6 45-100 45-100l49-337 7-176 5-236-29-58-91-169-115-176-33-47Z" fill="#4b4f9c" fill-rule="evenodd" vectornator:layerName="Слой 34"/><path d="m3198 2017-69 131-64 142s-22 47-18 57c3 6 28 76 91 189 58 103 52 83 118 182 24 36 43 71 58 103 26 55 57 107 64 127 6 20-5 182-11 329-6 146-11 162-22 248-11 85-21 198-59 248-39 51-128 135-128 135l-96 62c-4 57 89 44 89 44l60-32-131 80 115 32 116-4s90-8 137-62c48-53 83-171 83-171s69-165 117-333 75-338 75-338 31-239 33-287c3-41 9-97-36-218a1677 1677 0 0 0-176-353c-36-61-81-110-81-110l-66-64c-31-29-88-75-123-95l-76-42Z" fill="#fe9fdb" fill-rule="evenodd" vectornator:layerName="Слой 33"/><g vectornator:layerName="Слой 39" fill-rule="evenodd"><path d="m3085 2346 112-227s124 81 165 124c69 70 73 84 119 156a1376 1376 0 0 0 142 275c21 58 19 49 35 115s20 74 26 171 0 127-10 225c-9 98-6 81-20 171a2316 2316 0 0 1-65 305s-15 60-31 99c-20 51-33 113-33 113l-13 45 67-155 72-219s35-115 61-261c26-147 33-183 44-306 12-123 9-101-5-187-14-87-56-174-103-284-48-111-34-77-88-160-55-83-61-94-125-162-64-69-86-79-143-116-57-38-95-54-95-54l-69 138-17 35c-9 21-65 129-65 151 0 21 16 49 50 120a5531 5531 0 0 0 167 283l69 116s27 48 39 94c12 47 3 103 3 103l-7 188s-7 53-11 111l-12 119-16 118s-7 54-15 85c-9 31-13 55-27 89-15 34-29 42-29 42l-51 53s-26 26-46 43c-19 16-19 15-38 28l-36 22c-15 9-24 11-27 24-4 12 3 20 16 31s35 10 35 10l47-2-40 10-13 2-24 5-35 12s12 11 44 24c31 12 44 21 97 26s72 3 122-4c21-3 54-6 81-19 36-18 47-31 69-52 19-19 32-55 56-102 15-31 88-255 90-262l-42 101s-103 241-123 251c-20 11-22 11-42 16-19 5-19 3-37 4-18 0-26 1-35-1-9-3-20-5-30-15s-9-21-10-22 4-24 4-24l17-39 16-38-41 24-32 19-32 12s-25 9-31 2c-5-6 10-27 10-27l49-54 27-32s21-28 35-56 22-56 22-56l43-192 40-271 12-165 18-112s3-26 20-47c16-20 49-38 49-38s38-23 31-29c-6-7-55 10-55 10s-55 23-69 6c-15-16-19-22-51-69-35-52-46-66-86-127-41-61-35-49-66-100l-72-122-58-118Z" fill="#dc7bb8"/><path d="M3118 2363c-5-14 32-100 32-100l135 280 130 276c38 82-8 6 1 18l-190-278s-103-182-108-196Zm344 604c4-51 44-35 43-1-4 75-33 281-33 281l-31 174s-10 63-20 109-25 102-25 102 22-200 41-393c11-104 19-217 25-272Z" fill="#ffb9e4"/><path d="M2456 2933c-17 24-37 68-37 68s-19 61-12 80c7 20 11 29 25 43 13 15 22 12 25 32 2 19-4 28-9 57-4 28-7 29-5 56 2 28 1 33 13 53 13 20 20 25 37 27 16 2 43-21 43-21s21-24 49-70 30-59 56-113c27-53 31-61 49-110 17-49 16-47 22-86s9-44-3-72c-12-29-19-35-44-39-26-4-43 17-54 18-17 2-36-8-63 3a188 188 0 0 0-92 74Zm128 588c-15 24-22 44-23 54-1 14-3 30 6 50s18 28 28 33c10 4 41-1 54-9 11-7 27-19 39-48 13-28 18-48 13-79-5-32-24-42-33-46-13-6-35 0-43 4-11 5-25 16-41 41Zm57 359c-7 27-10 50-10 50s-4 50 14 72c17 22 29 21 56 17 28-5 49-26 59-39 12-15 30-43 50-88 21-45 34-71 35-117 1-45-20-67-31-74-11-6-49 0-71 17-23 17-55 52-55 52l-23 42c-10 22-17 41-24 68Zm1359-1246s-15 22-25 44c-10 23-18 55-18 55l-7 36s1 27 10 41c8 15 12 18 29 19s42-13 42-13 21-16 41-40c19-24 25-36 37-56 11-21 14-28 15-54 2-27-5-43-9-52s-18-21-41-20c-22 1-29 7-45 16-14 7-29 24-29 24Zm94 347c-5 7-5 8-6 19-1 12 1 24 5 34 5 10 10 15 14 17 3 3 10 7 18 5 8-1 11-4 18-13s9-10 11-22c3-12 0-29 0-29s-4-13-9-19-12-8-24-7-22 8-27 15Z" fill="#7ec9cf"/><path d="M3007 3155c-11 14-39 48-102 103s-153 123-153 123-39 22-77 15c-37-6-44-78-44-78s9-55 35-122 30-80 69-145 91-122 91-122 49-53 94-81c45-29 86-40 86-40s35-7 58 2c17 7 43 20 57 59s10 71-2 105a827 827 0 0 1-111 182Zm38-15c-9 24-11 36-19 94-8 57-15 75-14 136 1 62-4 101 26 124 31 22 91-33 98-43a692 692 0 0 0 89-249c7-38 18-91-16-123-35-33-97-18-112-10-18 10-43 44-52 71Z" fill="#7277dd"/><path d="M3018 2856c-29 17-42 32-60 61s-19 45-15 58c4 12 20 29 35 26 12-3 26-7 46-22 12-9 34-24 49-47 10-14 13-20 15-28 4-12 7-18 6-27 0-22-18-28-18-28s-28-10-58 7Z" fill="#ffb9e4"/><path d="M3849 3377c-1 13 0 22 9 30 6 5 12 8 24 6 11-2 17-6 26-16 8-10 7-26 7-26s0-22-10-29c-11-7-22-5-32-1s-24 23-24 36Zm-74 258c-10 6-14 13-19 22s-4 26 3 35c9 11 24 16 39 7 16-10 22-33 21-44s-6-20-16-25c-8-4-20 0-28 5Z" fill="#7ec9cf"/></g><g vectornator:layerName="Слой 37" fill-rule="evenodd"><path d="M3512 3870c-31 84 13 16 13 16l34-77 22-53 22-65 43-128 26-94-35-2-17 73c-2 10-78 246-108 330Z" fill="#dc7bb8"/><path d="m1765 4589-4-2s-9-8-19-10-32-5-42 6c-11 11-12 26-12 26l-6 30c0 4-3 12-1 17a38395 38395 0 0 0 111-4s26-2 30-13c3-11-6-21-16-32-7-7-22-18-26-18h-15Z" fill="#5054a3"/></g><path d="M1490 763c-11-2 8-88 8-88s19-88 35-142c8-24 11-31 14-37l17-38c17-35 45-64 57-55 12 10 6 34 0 69-5 35-22 72-22 72l-34 86-22 56s-42 80-53 77Z" fill="#e2e6fe" fill-rule="evenodd" vectornator:layerName="Слой 36"/><path d="M1631 1244c0-10 47-1 47-1s48 8 77 17c14 4 17 6 21 8l21 10c20 11 38 31 34 42-4 10-17 7-36 5-19-1-40-12-40-12l-48-20-31-13s-46-27-45-36Z" fill="#e2e6fe" fill-rule="evenodd" vectornator:layerName="Слой 36 скопировать"/><path d="M1587 882c-6-7 45-56 45-56s52-51 88-79c16-13 22-16 27-19l28-17c28-15 61-23 65-10 5 12-10 25-30 46-19 21-48 39-48 39l-62 42-41 27s-65 35-72 27Z" fill="#e2e6fe" fill-rule="evenodd" vectornator:layerName="Слой 36 скопировать скопировать"/><path d="M1643 1030c-3-9 65-30 65-30s70-22 114-32l32-5 34-2c31-2 64 7 62 20-1 13-20 17-47 28-27 10-60 13-60 13l-75 10-48 6s-74 2-77-8Z" fill="#e2e6fe" fill-rule="evenodd" vectornator:layerName="Слой 36 скопировать скопировать скопировать"/><g vectornator:layerName="Слой 36 скопировать скопировать скопировать скопировать" fill-rule="evenodd"><path d="M1528 1446c6-7 60 39 60 39s55 48 88 80c14 15 17 20 21 25l19 27c19 26 29 58 17 64-12 5-26-9-49-26s-43-44-43-44l-48-58-31-38s-41-61-34-69Z" fill="#e2e6fe"/><path d="M1114 1429c14-1 21-6 36-11 15-6 25-13 25-13l19-12 23-19 21-26-10-13-29-6-22 19-47 32-34 9-16 16 12 13s7 11 22 11Z" fill="#4a4a4a"/></g></svg>