<svg stroke-miterlimit="10" style="fill-rule:nonzero;clip-rule:evenodd;stroke-linecap:round;stroke-linejoin:round" viewBox="0 0 2048 2048" xml:space="preserve" xmlns="http://www.w3.org/2000/svg" xmlns:vectornator="http://vectornator.io"><defs><linearGradient gradientUnits="userSpaceOnUse" id="a" x1="1249.12" x2="1461.88" y1="772.834" y2="772.834"><stop offset="0" stop-color="#8fd8ec"/><stop offset="1" stop-color="#757cdc"/></linearGradient><linearGradient gradientUnits="userSpaceOnUse" id="b" x1="1208.2" x2="1302.03" y1="823.824" y2="823.824"><stop offset="0" stop-color="#8fd8ec"/><stop offset="1" stop-color="#757cdc"/></linearGradient><linearGradient gradientUnits="userSpaceOnUse" id="c" x1="1287.12" x2="1420.23" y1="838.553" y2="838.553"><stop offset="0" stop-color="#8fd8ec"/><stop offset="1" stop-color="#757cdc"/></linearGradient><linearGradient gradientUnits="userSpaceOnUse" id="d" x1="1207.84" x2="1348.95" y1="924.563" y2="924.563"><stop offset="0" stop-color="#8fd8ec"/><stop offset="1" stop-color="#757cdc"/></linearGradient><linearGradient gradientUnits="userSpaceOnUse" id="e" x1="1290.03" x2="1422.05" y1="943.474" y2="943.474"><stop offset="0" stop-color="#8fd8ec"/><stop offset="1" stop-color="#757cdc"/></linearGradient><linearGradient gradientUnits="userSpaceOnUse" id="f" x1="1408.59" x2="1503.15" y1="824.551" y2="824.551"><stop offset="0" stop-color="#8fd8ec"/><stop offset="1" stop-color="#757cdc"/></linearGradient><linearGradient gradientUnits="userSpaceOnUse" id="g" x1="1364.95" x2="1503.15" y1="922.381" y2="922.381"><stop offset="0" stop-color="#8fd8ec"/><stop offset="1" stop-color="#757cdc"/></linearGradient></defs><path d="M129.643 409.13s-63.9012 80.991-94.8247 210.989C24.4082 663.882 20.8619 725.704 20.554 775.08c-.5573 89.355 17.3935 184.286 38.4319 264.77 2.6079 9.97 7.5877 21.19 10.1796 30.63 22.3747 81.52 42.7225 141.53 36.3615 151.87-13.0433 21.19-49.3184 299.2-49.3184 299.2l829.5694 108.14 855.592-237.32 273.72-650.6s39.02-235.444-38.8-380.748c-43.97-82.098-89.6-155.844-225.63-223.974-136.04-68.1293-207.47-85.1996-307.39-82.3178-106.11 3.0601-212.38 43.5925-283.58 73.7788-115.38 48.919-131.87 73.679-271.156 113.655-151.983 43.62-295.793 11.11-460.468 23.526-164.675 12.415-189.257 26.574-189.257 26.574L129.643 409.13Z" fill="#030303" fill-rule="evenodd" vectornator:layerName="Слой 17"/><path d="M68.7385 656.474s.0718 98.78 46.3165 56.842c46.244-41.937 36.401-182.653 163.315-240.705 126.914-58.053 206.614-26.79 344.339 8.496 64.671 16.569 97.595 58.189 135.232 57.645 18.937-.274 32.045-12.569 9.118-52.581-24.488-42.736-103.665-62.071-128.749-87.825-35.591-36.541 30.645-90.438 30.645-90.438s-191.469-62.609-299.084-57.969c-61.355 2.646-131.514 42.948-131.514 42.948L95.0546 579.631l-26.3161 76.843Z" fill="#7ec9cf" fill-rule="evenodd" vectornator:layerName="Слой 15"/><path d="M160.398 353.472c14.079-14.08 139.398-29.866 139.398-29.866s50.482-1.319 6.323 49.56c-44.159 50.879-103.704 81.578-163.926 153.921-60.2214 72.342-64.3754 117.438-74.6515 135.45-11.1919 19.617-34.4844 28.068-37.5749-10.579-1.0019-12.53 10.938-65.819 15.7814-85.106 6.1742-24.586 14.1901-54.73 31.7984-90.559 26.7116-54.353 79.1176-119.088 82.8516-122.821Z" fill="#6b74ab" fill-rule="evenodd" vectornator:layerName="Слой 14"/><path d="M1628.34 1394.05s-53.59 182.59 4.26 100.99c48.81-68.86 256.76-175.35 314.37-342.94 41.56-120.94 95.58-260.885 94.16-455.211-.93-125.923-20.37-247.216-58.63-325.592-36.35-74.481-75.8-124.143-114.52-142.364-38.72-18.22-64.27 9.362-63.51 43.029 2.27 99.974 113.88 353.785 113.88 353.785v282.421l-188.28 299.122-101.73 186.76ZM55.6143 781.337c-23.1034 18.101-34.0254 62.539-26.3605 115.052 7.6649 52.514 22.6425 114.161 22.6425 114.161s59.5707-53.929 76.4817-99.421c16.911-45.492 13.457-65.484-7.026-95.495-20.484-30.01-42.6343-52.399-65.7377-34.297ZM318.582 259.734c28.384-12.336 89.669-15.786 185.913-16.696 96.244-.911 103.683 12.667 199.063 13.053 95.379.387 133.369-1.024 194.596-16.456 58.914-14.848 93.833 77.745 80.758 105.091-23.968 50.132-72.227 54.242-112.705 51.699-35.407-2.224-146.585-34.889-146.585-34.889l-79.187-13.952-119.463-20.413s-92.319-11.388-142.916-28.247c-50.598-16.859-87.858-26.853-59.474-39.19ZM151.256 365.983c.108-7.955 46.07-46.069 46.07-46.069s41.454-33.869 52.402-30.046c10.949 3.824 2.17 25.44-13.688 38.176-8.232 6.611-18.696 15.265-39.143 23.693-20.448 8.428-45.748 22.202-45.641 14.246ZM1707.52 200.802c-68.75-60.381-203.33-105.0216-305-11.51-101.66 93.513-43.92 166.953-101.66 385.558-57.75 218.604-264.77 224.101-336.537 495.5-71.768 271.4-419.06 468.56-419.06 468.56l445.458-184.79 570.849-839.767s133.22-55.683 89.09-146.837c-44.13-91.154 125.6-106.333 56.86-166.714Z" vectornator:layerName="Слой 13" fill="#001d56" fill-rule="evenodd"/><g vectornator:layerName="Слой 12" fill-rule="evenodd"><path d="m826.007 1653.26-38.971-99.21 203.726-262.32L1455.1 327.078s99.04-191.266 147.87-70.98c48.83 120.285-33.92 476.832 47.44 552.122 74.48 68.922 167.41-215.311 236.31-232.154 68.9-16.842 91.74 16.495 105.65 88.806 15.31 79.619 4.33 194.649 4.33 194.649s2.63 136.123-67.81 254.459c-70.45 118.34-202.07 232.5-202.07 232.5l-100.77 71.98s-307.57 241.56-515.14 232.07c-183.273-8.39-284.903 2.73-284.903 2.73ZM80.0753 1108.88s9.6673 36.93 4.2419 139.98c-5.4254 103.05-28.1268 184.54-30.7536 272.54-3.0962 103.72 82.3014 132.34 82.3014 132.34l128.715-359.87s-15.105-91.61-44.656-111.64c-29.552-20.03-74.865 21.01-74.865 21.01l-64.9837-94.36Z" fill="#7ec9cf"/><path d="M754.8 1399.42s32.785 36.02 89.327-5.36c56.543-41.38 136.843-160.16 136.843-160.16l45.49 36.64s-66.879 157.41-121.842 228.49c-54.963 71.07-98.013 55.8-98.013 55.8L754.8 1399.42Z" fill="#6b74ab"/></g><g opacity=".367521" vectornator:layerName="Слой 19"><path d="M1002.17 412.747s311.15-153.92 414.34-144.946c76.88 6.684 367.4 82.435 444.89 169.809 95.38 107.536 131.78 269.266 135.12 402.961 2.35 93.795-34.51 238.509-105.28 364.319-70.78 125.81-222.27 245.66-222.27 245.66s-666.78 181.66-690.2 187.18c-23.426 5.51-195.529-362.65-195.529-362.65l148.735-267.39s-12.606-312.982 6.685-330.896c19.291-17.913 68.519-197.2 68.519-197.2l-5.01-66.847Z" fill="#030303" fill-rule="evenodd" opacity="1"/></g><g vectornator:layerName="Слой 16" fill-rule="evenodd"><path d="m312.568 477.272 105.38-73.887 86.605 38.761 39.367 48.45 30.887 164.733 15.746 120.521-6.056 87.211-158.676 20.591-107.197-98.112-41.789-86.606 14.536-169.577 21.197-52.085Zm6.056 12.719 91.451-66.62" fill="#dd7bb8"/><path d="M359.892 544.272c4.51-57.591 13.17-114.602 13.17-114.602l146.027 28.828s46.633 132.028 44.816 141.112c-1.816 9.085-50.237 65.183-50.237 65.183s-17.714 29.936-58.685 36.63c-40.97 6.694-87.043-40.962-87.043-40.962s-12.558-58.599-8.048-116.189Zm.784 262.685 52.706-89.268s20.328 14.585 42.735 11.396c22.406-3.19 43.209-15.195 43.209-15.195s14.483 18.4 33.238 30.864c18.756 12.464 44.634 17.094 44.634 17.094l-.474 102.089-174.738 26.59-41.31-83.57Z" fill="#fe9edb"/><path d="M478.268 670.208c-.594-14.199 18.813-38.898 25.164-82.015 6.351-43.117.241-90.453.241-90.453s20.353 37.003 20.551 75.133c.199 38.129-19.756 77.386-19.756 77.386s-25.606 34.149-26.2 19.949Zm-40.999 136.586c21.938-6.099 34.981-2.611 60.532-15.59 25.551-12.979 23.234-32.888 39.269-32.724 16.035.163 28.705 29.985 24.288 44.711-4.418 14.726-19.403 15.415-50.837 23.217-31.433 7.802-47.173 8.939-74.896 7.992-27.723-.947-25.386-12.799-25.575-18.8-.189-6.001 5.281-2.707 27.219-8.806Z" fill="#ffb9e5"/></g><g vectornator:layerName="Слой 4" fill-rule="evenodd"><path d="m283.856 766.001 48.765-23.143 78.522 105.797 163.654-23.143-9.918-80.174 48.95 11.83 27.918 69.17 34.715 69.43v91.745l-25.623 54.557-143.818 49.59-201.98 23.36 23.448-168.007-40.501-143.818-4.132-37.194Z" fill="#4f53b4"/><path d="m305.652 776.039 30.564-15.706 71.315 95.936 173.618-21.65-8.914-77.258 35.233 8.066 15.282 83.201s39.751 50.666 41.176 81.503c1.425 30.836-28.017 43.723-28.017 43.723s-171.905 37.596-211.03 37.236c-33.054-.31-72.722-13.865-77.202-41.057-5.516-33.484 5.778-56.145-4.669-109.519-10.448-53.375-37.356-84.475-37.356-84.475Z" fill="#7277dd"/><path d="M427.273 944.157c38.004-14.675 60.04-16.605 106.681-37.544 46.641-20.939 58.225-56.288 79.884-46.214 21.658 10.074 50.505 57.107 13.864 87.146-36.641 30.039-95.452 27.218-160.428 33.01-64.976 5.792-98.862 5.34-98.369-12.544.372-13.515 20.365-9.18 58.368-23.854Z" fill="#8083ea"/><path d="M249.345 1164.5s-59.341 116.29-103.043 222.39c-43.701 106.1-75.1382 213.69-75.1382 213.69s34.0472 57.01 114.2952 87.64c80.247 30.63 105.159 36.4 206.695 34.87 101.535-1.52 126.55-26.63 240.651-46.92 114.1-20.28 214.163-24.21 214.163-24.21s-48.532-180.29-97.924-322.16c-49.393-141.86-99.645-245.31-99.645-245.31l-264.384 30.44-135.67 49.57Z" fill="#4f53b4"/><path d="M263.619 1166.89s-75.989 151.39-95.694 207.83c-19.705 56.43-88.9277 226.18-88.9277 226.18s32.7667 42.11 70.5627 58c36.449 15.32 84.785 35.76 93.485 24.16 8.699-11.6 46.865-161.86 77.587-305.63 30.722-143.77 66.325-220.16 45.302-269.45-21.024-49.3-102.315 58.91-102.315 58.91Zm137.751-20.62s.54 95.51-8.102 214.45c-8.642 118.95-23.881 351.37-23.881 351.37s56.858 1.96 116.516-10.09c59.659-12.04 107.635-26.51 107.635-26.51s-21.94-138.36-38.76-283.86c-16.82-145.5-28.518-298.14-28.518-298.14l-124.89 52.78Zm239.477-61.09s54.634 123.99 101.043 260.19c46.408 136.21 91.049 295.31 91.049 295.31l-121.796 12.84-155.509-537.27 85.213-31.07Z" fill="#7277dd"/><path d="M424.361 1145.42s-22.408 223.69-14.232 360.03c8.175 136.33 15.915 190.61 46.933 185.32 31.018-5.29 35.172-42.89 41.664-185.24 6.492-142.35-15.695-384.15-15.695-384.15l-31.772-16.29-26.898 40.33Zm136.885-59.3s69.196 281.21 131.624 417.6c62.428 136.38 102.463 175.1 84.604 67.82-17.859-107.28-156.041-496.94-156.041-496.94l-60.187 11.52Zm-293.411 99.4s-137.603 287.71-154.371 396.04c-16.7681 108.32 62.547 18.36 122.432-87.3 59.886-105.67 118.174-339.62 118.174-339.62l-73.459-6.39-12.776 37.27Z" fill="#8083ea"/></g><g vectornator:layerName="Слой 2" fill-rule="evenodd"><path d="m247.233 520.426-24.266 71.766s-23.75 33.559-42.853 61.439c-19.103 27.88-33.143 63.831-37.294 91.533-5.687 37.948-1.846 63.91 14.061 97.432 15.906 33.523 46.517 43.093 46.517 43.093s16.072-54.809 45.743-82.831c18.521-17.492 50.97-28.131 73.353-40.386 26.096-14.288 32.393-14.009 45.33-37.088 12.938-23.08 10.877-39.833 6.278-55.207-8.091-27.052-30.586-82.719-33.174-112.137-3.161-35.935-5.513-43.49-5.513-43.49s.384 3.173 19.616-9.089 39.582-29.11 39.582-29.11l-10.605 15.44s28.342-2.488 45.216-10.268c16.873-7.779 29.692-21.504 29.692-21.504s-6.58 25.504-.95 31.447c3.737 3.945 36.838-23.781 40.208-22.871 5.979 1.615 17.863 17.89 25.583 43.277 6.871 22.596 10.45 34.129 11.487 66.36.805 25.037-.099 38.772-8.128 62.586-8.029 23.815-25.185 37.522-25.185 37.522s-.871 25.256 4.666 35.597c18.734 34.981 110.306 49.149 110.306 49.149s28.705-13.098 30.253-47.794c1.548-34.697-9.51-52.628-24.06-90.991-14.477-38.169-29.873-69.182-47.709-116.414-18.377-48.661-21.47-58.101-38.754-79.265-16.423-20.111-38.479-36.864-63.155-48.558-24.599-11.658-48.294-15.474-72.13-13.283-19.028 1.75-38.444 3.462-67.16 20.208-28.717 16.747-35.057 21.913-55.192 52.762-20.136 30.848-31.763 80.675-31.763 80.675Z" fill="#2e3273"/><path d="M202.588 879.697s10.861-38.778 25.417-66.886c9.892-19.102 27.209-38.885 37.902-50.388 29.43-31.66 52.172-46.375 59.077-66.134 5.377-15.385 7.53-16.729 3.797-59.613s-18.729-111.923-18.729-111.923 3.753 55.314-13.515 94.021-130.65 102.208-138.216 135.677c-3.272 14.469-2.976 63.847 7.257 83.777 13.436 26.169 37.01 41.469 37.01 41.469Z" fill="#383c85"/><path d="M613.851 762.693s46.904 9.478 69.969 40.316c23.064 30.839 28.159 88.744 28.159 88.744l27.036-54.434s10.953-69.562 17.556-87.777c10.747-29.649 76.948-101.493 82.106-86.359.925 2.715-4.286 29.754-23.945 65.45-8.569 15.558-8.682 37.958-5.154 48.881 4.674 14.471-16.015 71.717-16.015 71.717l-7.61 62.196s-1.476 36.821-6.372 81.377c-5.255 47.836-14.452 104.576-29.996 134.256-11.563 22.08-40.44 36.41-64.367 30.27-23.927-6.13-30.218-44.77-30.218-44.77s-3.761-67.08 13.794-121.005c16.643-51.118-6.829-92.417-6.829-92.417l-33.298-52.415-14.816-84.03Z" fill="#dc7ab7"/><path d="M820.962 674.137c-9.1 8.384-22.127 22.6-36.203 42.295-14.075 19.696-21.482 29.819-23.93 38.689-7.441 26.966-16.34 90.341-16.34 90.341s-45.37 69.937-67.568 137.575c-22.197 67.643-25.247 87.243-17.15 127.403 8.097 40.15 30.381 40.18 38.711 41.65 8.33 1.47 49.918-7.14 61.958-74.29 4.408-24.58 15.755-145.605 19.553-181.308 3.805-35.763 6.087-35.763 11.794-61.254 5.707-25.491 12.668-42.853 11.794-49.84-1.715-13.721-6.697-23.817-5.706-30.056 8.376-52.771 32.593-70.875 32.593-70.875s10.313-28.591-9.506-10.33Z" fill="#f897d4"/><path d="M710.464 939.268c-22.194 47.398-18.056 37.617-33.103 86.522-14.113 45.87-19.751 115.71 2.257 91.03 22.008-24.67 47.023-96.89 66.206-164.01 19.184-67.124 27.483-108.611 20.314-116.613-7.169-8.003-33.48 55.673-55.674 103.071Z" fill="#ffb9e5"/></g><g vectornator:layerName="Слой 10" fill-rule="evenodd"><path d="m1033.82 1301.38-98.121 344.59s292.001 37.11 469.971 4.33c130.45-24.03 267.76-195.67 267.76-195.67l-48.54-141.57" fill="#20225d"/><path d="m1041.29 1376.83-68.375 242.3s274.995 40.13 437.025-4.46c162.02-44.6 191.01-133.78 211.08-173.92 20.07-40.13-13.38-22.3-121.89 2.97-108.52 25.27-189.16 37.91-298.78 20.82-109.63-17.1-159.06-87.71-159.06-87.71Z" fill="#4f53b4"/></g><g vectornator:layerName="Слой 8" fill-rule="evenodd"><path d="M779.952 859.132c0-316.665 254.798-573.373 569.098-573.373 314.31 0 573.05 254.405 573.05 571.07 0 316.661-258.74 575.681-573.05 575.681-314.3 0-569.098-256.71-569.098-573.378Z" fill="#4f53b4"/><path d="M787.607 858.497c0-310.888 252.513-562.912 564.013-562.912 311.49 0 564.01 252.024 564.01 562.912 0 310.883-252.52 562.913-564.01 562.913-311.5 0-564.013-252.03-564.013-562.913Z" fill="#20225d"/></g><g vectornator:layerName="Слой 7" fill-rule="evenodd"><path d="M825.273 857.734c0-288.946 235.517-523.184 526.037-523.184 290.52 0 526.03 234.238 526.03 523.184 0 288.946-235.51 523.186-526.03 523.186s-526.037-234.24-526.037-523.186Z" fill="#747698"/><path d="M868.375 852.514c0-260.754 217.615-472.138 486.055-472.138 248.83 0 453.99 181.634 482.64 415.858 2.25 18.455 3.41 37.236 3.41 56.28 0 260.756-217.61 472.136-486.05 472.136s-486.055-211.38-486.055-472.136Z" fill="#a7aed9"/><path d="M930.286 869.991c0-229.972 190.794-416.401 426.144-416.401s426.14 186.429 426.14 416.401c0 229.969-190.79 416.399-426.14 416.399s-426.144-186.43-426.144-416.399Z" fill="#7177a0"/><path d="M903.147 870.552c0-224.51 193.003-406.511 431.073-406.511 84.02 0 162.42 22.665 228.7 61.865 121.56 71.882 202.38 199.364 202.38 344.646 0 224.508-193 406.508-431.08 406.508-238.07 0-431.073-182-431.073-406.508Z" fill="#a7aed9"/></g><g vectornator:layerName="Слой 11" fill-rule="evenodd"><path d="M914.222 845.758c0-177.173 145.768-320.799 325.588-320.799 179.81 0 325.58 143.626 325.58 320.799 0 177.172-145.77 320.802-325.58 320.802-179.82 0-325.588-143.63-325.588-320.802Z" fill="#7177a0"/><path d="M936.721 849.014c0-182.312 143.559-330.104 320.659-330.104 177.09 0 320.65 147.792 320.65 330.104 0 182.316-143.56 330.106-320.65 330.106-177.1 0-320.659-147.79-320.659-330.106Z" fill="#a7aed9"/></g><g opacity=".561965" vectornator:layerName="Слой 6"><path d="M1104.92 862.759c0-139.884 111.68-253.283 249.44-253.283s249.44 113.399 249.44 253.283c0 139.881-111.68 253.281-249.44 253.281s-249.44-113.4-249.44-253.281Z" fill="#474d73" fill-rule="evenodd" opacity="1"/></g><g vectornator:layerName="Слой 18" fill-rule="evenodd"><path d="M1064.12 863.241c0-175.699 148.34-318.131 331.33-318.131 182.99 0 331.33 142.432 331.33 318.131 0 175.699-148.34 318.129-331.33 318.129-182.99 0-331.33-142.43-331.33-318.129Z" fill="#c7cbdf"/><path d="M1046.08 870.832c0-174.505 147.02-315.969 328.39-315.969 181.36 0 328.39 141.464 328.39 315.969 0 174.508-147.03 315.968-328.39 315.968-181.37 0-328.39-141.46-328.39-315.968Z" fill="#a7aed9"/></g><g vectornator:layerName="Слой 3" fill-rule="evenodd"><path d="M301.433 424.984c-14.425 19.195-15.876 20.39-33.413 62.646-17.536 42.257-26.498 81.439-34.558 100.104-11.053 25.596-24.768 39.612-36.723 56.798-11.888 17.089-24.518 36.406-33.434 63.525-10.904 33.166-6.129 60.266-6.129 60.266s93.948-68.271 135.412-134.859c22.79-36.599 20.614-70.772 20.614-70.772s-2.181-27.53 3.866-47.364c5.286-17.335 31.75-39.222 35.853-41.096 3.253-1.486-28.868 40.453-26.182 39 7.687-4.161 11.324-7.38 18.227-11.017 14.359-7.567 57.927-34.412 57.927-34.412l-9.359 18.718s11.838 1.877 30.293-7.389 44.511-29.675 44.511-29.675-8.468 26.722-8.307 33.616c.246 10.59 37.434-24.382 42.606-21.919 15.489 7.375 52.746 75.109 57.633 133.723 4.886 58.613-16.177 80.979 0 110.882 16.177 29.903 75.194 36.277 81.407-.351 3.095-18.251-8.382-42.489-19.91-69.956-11.608-27.657-21.455-57.471-31.603-80.87-20.225-46.637-27.899-74.77-38.675-93.948-12.632-22.478-23.936-39.598-50.437-58.226-31.295-21.998-53.115-27.902-75.518-29.685-25.668-2.043-56.772 4.517-75.309 12.865-17.767 8.001-33.723 19.346-48.792 39.396Z" fill="#464ba7"/><path d="M543.805 481.767s18.929 57.075 31.909 112.283c9.772 41.567-1.49 84.555 5.667 100.907 16.664 38.069 36.576-8.43 23.57-60.996-13.006-52.565-61.146-152.194-61.146-152.194Z" fill="#383c85"/><path d="M296.61 777.55c-3.089-2.461-31.481.47-62.72 38.792-31.239 38.322-42.741 79.699-44.185 124.98-1.167 36.572 2.561 107.468 15.17 160.158 12.711 53.11 39.821 114.25 67.24 122.96 20.893 6.64 47.662-7.17 89.655-20.11 24.836-7.66 101.612-29.46 133.865-40.13 83.92-27.77 129.481-49.36 129.481-49.36l48.663 1.29s19.821-2.57 38.832-8.4c19.012-5.82 16.982-12 30.485-15.62 13.503-3.62 22.717-1 29.798-2.07 8.811-1.33 13.688-4.07 17.156-8.59 3.468-4.51-3.783-8.86-3.783-8.86s14.381-2.92 15.931-6.29c1.468-3.2-7.765-12.51-6.476-11.27 1.288 1.24 6.425-3.97 4.996-7.78-1.43-3.82-10.109-14.17-18.92-20.12-12.714-8.58-32.456-20.65-42.987-25.02-13.404-5.559-42.032-8.771-46.893-8.057-11.864 1.744-28.555 12.057-55.029 23.587-26.474 11.53-38.638 15.15-58.118 21.45-18.413 5.96-103.029 6.67-153.56 7.74-50.532 1.07-92.9 20.89-92.9 20.89s18.632-157.575 3.51-219.063c-6.017-24.465-30.315-64.02-39.211-71.107Z" fill="#dd7bb8"/><path d="M274.256 823.576c-23.223 8.4-51.281 24.691-65.051 66.951-19.263 59.115-7.654 125.013 2.207 170.523 18.089 83.48 25.086 118.49 51.012 137.42 26.902 19.63 33.286 12.42 65.47 1.1 10.325-3.63 23.307-7.69 40.475-11.42 69.893-15.18 86.95-21.93 151.081-42.68 64.131-20.74 113.5-42.89 105.443-40.29-8.056 2.6 39.83-.31 43.736-.75 9.975-1.11 24.388-3.45 39.874-10.15 8.201-3.54 20.949-15.02 37.331-12.96 16.381 2.07 32.198-.61 30.827-8.4-.59-3.35-19.311-8.87-41.147-11.36-8.317-.95-31.542 2.99-39.241 2.58-11.078-.59 5.238-3.52 5.238-3.52l28.547-5.05s16.568 2.14 28.082 4.67c6.559 1.44 12.336 3.33 18.313 3.43 6.626.11 13.134-1.72 13.35-3.18 1.293-8.77-29.552-18.66-46.112-24.65-4.533-1.64-9.163-3.18-13.655-4.6-7.762-2.45-31.727.55-37.429-.98-6.831-1.83 26.979-2.58 36.189-2.61 9.21-.03 41.016 19.95 54.03 18.68 13.013-1.27-5.509-16-23.876-25.42-9.673-4.96-33.357-13.85-33.357-13.85s-12.55-5.2-23.428-5.29c-10.878-.09-17.055 2.69-25.879 5.98-8.824 3.29-95.921 43.48-95.921 43.48s-85.508 2.2-146.359 4.39c-60.85 2.2-96.198 21.99-96.198 21.99l-60.838 84.62s47.682-98.49 48.439-103.79c7.808-54.65 9.369-87.967 8.328-136.897-1.041-48.931-11.972-98.381-11.972-98.381s-25.192-7.658-47.509.414Z" fill="#fe9edb"/><path d="M297.859 946.305c-4.599 63.705-24.995 169.355-16.099 176.635 8.895 7.29 36.031-110.02 40.479-167.895 4.448-57.875-6.257-84.519-22.08-86.938-15.822-2.42 2.3 14.489-2.3 78.198Z" fill="#ffb9e5"/><path d="M311.311 457.357s10.691 55.764-16.273 115.658-75.741 117.762-83.111 124.956c-7.369 7.194 24.41-46.495 58.726-104.118 27.71-46.531 15.086-83.026 21.479-101.624 11.71-34.066 19.179-34.872 19.179-34.872Z" fill="#4f53b4"/><path d="M637.411 778.638c13.658-1.563 44.78 23.456 55.442 53.842 10.662 30.387 12.261 63.439 12.261 63.439s-20.23 51.228-21.829 42.698c-1.599-8.529-6.717-29.473-17.941-51.601-11.224-22.129-18.517-24.085-26.957-36.912-8.439-12.826-14.634-69.904-.976-71.466Z" fill="#fe9edb"/><path d="M366.604 1084.13c10.274-3.39 5.267-3.13 55.51-10.37 50.243-7.23 102.202-7.2 122.682-.42 20.479 6.78-28.483 12.3-68.494 22.28-40.011 9.98-91.551 17.64-91.551 17.64s-48.299 9.7-52.466 3.19c-4.168-6.52 10.705-24.54 34.319-32.32Z" fill="#ffb9e5"/><path d="M410.696 460.273s15.868-10.644 28.631-23.213c12.764-12.57 22.422-27.064 22.422-27.064s-18.171 13.284-27.69 23.912c-10.622 11.86-23.363 26.365-23.363 26.365Zm-51.096 2.974s15.814-17.559 28.068-34.515c3.009-4.164 5.803-8.292 8.307-12.15 7.691-11.853 12.639-21.162 12.639-21.162s-12.858 10.368-25.112 27.324c-12.254 16.957-23.902 40.503-23.902 40.503Z" fill="#2e3273"/><path d="M383.445 454.08c14.459-18.343 19.605-30.666 33.055-45.306 13.45-14.64 24.325-22.347 20.745-13.254-3.58 9.092-15.419 27.968-35.064 49.625-19.646 21.656-43.518 37-43.518 37s10.322-9.723 24.782-28.065Zm78.189-23.988c11.624-11.806 29.664-20.052 23.44-11.676-6.224 8.377-56.04 50.888-56.04 50.888s20.977-27.406 32.6-39.212Z" fill="#4f53b4"/><path d="M1126.46 861.631c0-129.61 102.62-234.68 229.21-234.68s229.21 105.07 229.21 234.68-102.62 234.679-229.21 234.679-229.21-105.069-229.21-234.679Z" fill="#383b7f"/><path d="M1169.23 862.752c0-104.066 84.01-188.428 187.64-188.428 103.64 0 187.65 84.362 187.65 188.428s-84.01 188.428-187.65 188.428c-103.63 0-187.64-84.362-187.64-188.428Z" fill="#26285e"/></g><g opacity=".412393" vectornator:layerName="Слой 9"><path d="m1270.62 290.499 80.44 237.69s60.02-121.967 83.87-180.982c23.84-59.016 19.07-52.657 19.07-52.657l-97.06-19.156-86.32 15.105Z" fill-rule="evenodd" opacity="1"/></g><g vectornator:layerName="Слой 5" fill-rule="evenodd"><path d="M1269.49 263.77s45.87-21.232 89.64-19.921c43.78 1.31 85.98 17.824 85.98 17.824s-7.73 25.819-29.88 81.258c-22.15 55.439-59.24 147.838-59.24 147.838l-86.5-226.999Z" fill="#2f3174"/><path d="M1291.26 268.487s30.09-13.811 62.48-13.811 73.01 11.18 73.01 11.18l-68.4 182.839-67.09-180.208Z" fill="#3c3f8d"/></g><g vectornator:layerName="Слой 20" fill-rule="evenodd"><path d="m1307.01 742.827-59.58 31.404 63.52 28.848 91.46.427 61.7-29.073-58.45-31.658-98.65.052Z" fill="url(#a)"/><path d="m1244.57 780.182-36.37 45.824 69.47 41.459 24.36-60.734-57.46-26.549Z" fill="url(#b)"/><path d="m1310.4 809.64-23.28 57.098 133.11 1.091-18.91-58.553-90.92.364Z" fill="url(#c)"/><path d="m1207.84 833.279 73.1 41.824 68.01 140.747-141.11-182.571Z" fill="url(#d)"/><path d="m1290.03 875.83 132.02-1.091-67.28 137.471-64.74-136.38Z" fill="url(#e)"/><path d="m1408.59 808.185 20.73 58.917 73.83-43.278-36-41.824-58.56 26.185Z" fill="url(#f)"/><path d="m1430.37 876.415-65.42 132.885 139.07-176.673-73.65 43.788Z" fill="url(#g)"/><path d="m1307.38 280.333 52.25 147.378 1.34-157.203s-15.63-10.495-29.03-8.039c-13.4 2.457-24.56 17.864-24.56 17.864Z" fill="#5e61bb"/></g><g opacity=".504274" vectornator:layerName="Слой 21" fill="#acacc2" fill-rule="evenodd"><path d="M823.726 520.939s62.973-112.945 162.69-180.515c99.714-67.571 224.724-88.872 236.174-89.768 9.21-.721-129.29 38.502-229.006 106.073-99.717 67.571-169.858 164.21-169.858 164.21Zm552.894-338.846s128.98-9.261 240.16 37.084c111.18 46.346 197.53 139.208 204.56 148.297 5.66 7.308-103.08-87.017-214.27-133.362-111.18-46.346-230.45-52.019-230.45-52.019Zm471.28 292.516s87.38 95.324 120.13 211.241c32.75 115.917 13.62 241.272 10.87 252.428-2.22 8.969 4.15-134.84-28.6-250.757s-102.4-212.912-102.4-212.912ZM661.528 706.483s10.242-128.908 72.78-231.855c62.539-102.948 167.33-174.352 177.373-179.935 8.075-4.49-101.53 88.829-164.068 191.776-62.538 102.948-86.085 220.014-86.085 220.014Zm519.962 783.027s-126.51-26.75-220.555-102.02c-94.041-75.27-151.362-188.38-155.606-199.05-3.412-8.59 75.021 112.11 169.062 187.38 94.039 75.27 207.099 113.69 207.099 113.69Zm449.88-24s-102.37 79.01-220.64 101.84c-118.27 22.84-241.56-6.82-252.45-10.51-8.75-2.97 134.01 15.54 252.28-7.3 118.27-22.83 220.81-84.03 220.81-84.03Z" opacity="1"/></g></svg>