<svg stroke-miterlimit="10" style="fill-rule:nonzero;clip-rule:evenodd;stroke-linecap:round;stroke-linejoin:round" viewBox="0 0 5000 5000" xml:space="preserve" xmlns="http://www.w3.org/2000/svg" xmlns:vectornator="http://vectornator.io"><defs><linearGradient gradientTransform="matrix(1.22581 0 0 .42028 -746.931 2823.92)" gradientUnits="userSpaceOnUse" id="a" x1="3887.31" x2="4485.91" y1="3015.37" y2="3023.9"><stop offset="0" stop-color="#606485"/><stop offset="1"/></linearGradient><linearGradient gradientTransform="matrix(1.22581 0 0 .42028 -738.889 2774.66)" gradientUnits="userSpaceOnUse" id="b" x1="3887.31" x2="4485.91" y1="3015.37" y2="3023.9"><stop offset="0" stop-color="#606485"/><stop offset="1"/></linearGradient><linearGradient gradientTransform="matrix(1.22581 0 0 .42028 -738.889 2726.2)" gradientUnits="userSpaceOnUse" id="c" x1="3887.31" x2="4485.91" y1="3015.37" y2="3023.9"><stop offset="0" stop-color="#606485"/><stop offset="1"/></linearGradient><linearGradient gradientTransform="matrix(1.22581 0 0 .42028 -732.163 2658.25)" gradientUnits="userSpaceOnUse" id="d" x1="3887.31" x2="4485.91" y1="3015.37" y2="3023.9"><stop offset="0" stop-color="#606485"/><stop offset="1"/></linearGradient><linearGradient gradientTransform="matrix(1.22581 0 0 .42028 -724.121 2608.99)" gradientUnits="userSpaceOnUse" id="e" x1="3887.31" x2="4485.91" y1="3015.37" y2="3023.9"><stop offset="0" stop-color="#606485"/><stop offset="1"/></linearGradient><linearGradient gradientTransform="matrix(.78822 0 0 .88031 -172.129 -1867.99)" gradientUnits="userSpaceOnUse" id="f" x1="3887.31" x2="4485.91" y1="3015.37" y2="3023.9"><stop offset="0" stop-color="#606485"/><stop offset="1"/></linearGradient><linearGradient gradientTransform="matrix(.51979 0 0 .57461 -169.284 -949.578)" gradientUnits="userSpaceOnUse" id="g" x1="3887.31" x2="4485.91" y1="3015.37" y2="3023.9"><stop offset="0" stop-color="#606485"/><stop offset="1"/></linearGradient><linearGradient gradientTransform="matrix(.96197 0 0 1.03355 83.7675 -112.372)" gradientUnits="userSpaceOnUse" id="h" x1="3887.31" x2="4485.91" y1="3015.37" y2="3023.9"><stop offset="0" stop-color="#606485"/><stop offset="1"/></linearGradient><linearGradient gradientTransform="matrix(1.22581 0 0 .42028 -724.121 2560.54)" gradientUnits="userSpaceOnUse" id="i" x1="3887.31" x2="4485.91" y1="3015.37" y2="3023.9"><stop offset="0" stop-color="#606485"/><stop offset="1"/></linearGradient><linearGradient gradientTransform="matrix(1.22581 0 0 .42028 -993.587 3318.41)" gradientUnits="userSpaceOnUse" id="j" x1="3887.31" x2="4485.91" y1="3015.37" y2="3023.9"><stop offset="0" stop-color="#606485"/><stop offset="1"/></linearGradient><linearGradient gradientTransform="matrix(.90253 0 0 .88718 -954.163 -360.851)" gradientUnits="userSpaceOnUse" id="k" x1="3888.1" x2="4533.63" y1="3009.62" y2="3009.62"><stop offset="0" stop-color="#606485"/><stop offset="1"/></linearGradient></defs><g vectornator:layerName="Слой 2"><path d="M636.066 884.471C471.3 1111.3 373.065 1295.75 304.252 1480.29c-96.51 258.82-128.896 504.08-150.955 746.05-37.786 414.5-80.5134 955.02 47.749 1479.64 128.262 524.61 67.884 518.28 234.462 769.31 166.577 251.03 472.056 341.02 1139.752 373.84 572.49 28.14 809.93-125.82 1283.65-162.08 213.86-16.37 479.33 136.33 802.33 191.56 334.77 57.23 679.64 97.33 919.06-83.95 481.24-364.38 357.83-1373.29 348.43-1768.49-6.5-272.85-194.02-1049.46-392.23-1553.94-169.05-430.29-547.04-1068.356-1107.56-1236.588-649.95-195.0711-949.95 136.339-1260.88 148.298-310.94 11.959-1037.2-180.64-1531.994 500.531Z" fill="#030303"/><path d="M4314.01 1893.68s-434.1-408.91-820.87-621.94c-233.42-128.57-445.11 10.01-587.08-37.59-377.22-126.49-684.2-303.892-714.45-77.02-18.03 135.23 375.69 82.5 671.03 234.36 209.13 107.53 310.04 439.44 441.75 473.07 361.86 92.39 1009.62 29.12 1009.62 29.12ZM126.845 2568.79S99.5883 2839 111.861 3024.57c12.273 185.57 26.203 318.87 26.203 318.87s244.336-103.47 391.877-170.11C620.127 3132.6 1425.1 3024.01 1867.36 2598c281.25-270.93 562.75-931.17 392.3-987.47-170.45-56.3-461.26 342.45-702.38 386.16-423.19 76.72-960.419 62.97-1047.354 72.81-136.469 15.44-383.081 499.29-383.081 499.29Z" fill="#001d56"/><path d="m2922.9 4148.68 471.28-710.7 602.13-487.11s269.29-1201.25 424.85-1103.11c155.56 98.15 52.25 1370.39 261.22 1368.97 208.98-1.43 59.29-1143.08 181.05-651.12 121.92 492.64 114.68 889.95 74.9 1394.98-35.88 455.47-270.49 669.19-270.49 669.19s-116.27 153.9-488.73 171.82c-372.47 17.92-1008.77-153.6-1008.77-153.6l-247.44-499.32Z" fill="#001d56"/><path d="M205.006 3700.3s379.542 361.89 410.946 257.18c44.953-149.89-223.988-744.87-82.791-691.71 239.836 90.3 322.227 693.12 645.599 828.2 323.37 135.08 383.81 249.92 738.2 308.94 354.39 59.02 1160.35-447.15 1327.25-360.74 65.37 33.85-182.45 244.58-79.77 354.01 159.48 169.95 865.53 394.93 637.89 481.08-162.86 61.64-510.09-123.95-912.62-183.16-160.11-23.55-457.11 110.42-785.43 134.11-328.31 23.69-636.28 84.07-1062.34-10.94-426.066-95.02-493.311-149.51-641.904-369.12-148.593-219.62-195.03-747.85-195.03-747.85ZM1453.28 871.658c-47.82 146.912 254.8 361.272 515.53 276.272 209.28-68.23 393.44-614.833 765.27-767.161 371.82-152.329 473.04 149.662 790.11 184.654 421.37 46.505 592.9 175.071 592.9 175.071s-199.47-271.148-508.54-437.683c-234.1-126.136-372.32-143.766-665.37-133.684-293.05 10.083-1403.69 437.697-1489.9 702.531Z" fill="#7ec9cf"/><path d="M857.609 830.102c232.231-185.387 809.021-533.7 885.461-391.072 76.45 142.628-313.17 233.114-508.63 390.878-191.31 154.42-207.2 573.722-390.883 875.702-157.651 259.19-292.163-81.6-399.98 8.17-203.645 169.55-296.502 574.02-296.502 574.02s9.731-331.79 60.977-522.4c36.131-134.39 125.37-359.31 125.37-359.31s39.621 115.17 171.14-172.84c96.382-211.05 120.82-217.76 353.047-403.148Z" fill="#6b74ab"/><path d="M625.891 4173.35s-92.261 157.61-79.637 223.94c12.625 66.32 59.545 80.62 107.265 102.05 47.72 21.42 90.855-19.4 113.361-7.31 63.251 33.95 161.092 145.07 270 148.04 90.69 2.47 186.75-78.53 170.24-146.32-10.38-42.59-108.1-71.6-145.44-97.53-96.753-67.2-164.096-131.09-164.096-131.09l-214.332-28.1-57.361-63.68Zm611.489-57.09s-92.26 157.61-79.64 223.93c12.62 66.33 59.54 80.63 107.26 102.05 47.72 21.43 90.86-19.39 113.37-7.31 63.25 33.96 161.09 145.08 269.99 148.05 90.69 2.47 186.75-78.53 170.24-146.32-10.37-42.59-108.1-71.6-145.43-97.53-96.76-67.2-164.1-131.09-164.1-131.09l-214.33-28.1-57.36-63.68Z" fill="#3a3d7a"/><path d="M811.524 3293.91s-223.81 838.77-222.354 923.37c1.359 79 85.792 92.57 176.164 118.42 68.525 19.6 166.407 10.6 185.646-14.45 83.45-108.66 313.86-823.54 313.86-823.54s-90.87 540.93-82.46 690.58c7.14 126.93 349.47 80.23 385.45 7.18 45.15-91.67 31.02-650.78 31.02-650.78l-621.112-352.84-166.214 102.06Z" fill="#4b4f9c"/><path d="M1348.03 3516.17c-23.32 64.15-87.67 454.44-87.67 611.27 0 90.54 71.54 91.57 134.47 81.96 62.94-9.62 117.27-29.88 132.26-125.18 34.58-219.81 59.28-668.08 59.28-668.08s-32.9 249.88-122.26 239.57c-96.32-11.11-106.42-166.09-116.08-139.54Zm-434.547-154.56s-194.562 708.07-204.717 837.98c-2.007 25.68 31.964 50.64 81.117 61.94 49.153 11.31 99.363 15.96 111.896-2 35.253-50.52 285.901-624.9 361.351-881.4 26.37-89.66-106.21 150.69-193.62 146.56-87.409-4.13-156.027-163.08-156.027-163.08Z" fill="#6266c1"/><path d="M1887.81 2245.83c18.6 32.7 53.33 107.59 79.44 150.16 68.87 112.3 110.31 186.35 110.31 186.35s35.26 59.07 47.01 136.82c11.75 77.74-54.18 110.72-89.72 148.26-35.55 37.54-95.44-4.24-95.44-4.24l-73.15-156.01-172.3-216.88-2.52-162.24s141.86-178.04 196.37-82.22Z" fill="#da7ab7"/><path d="M1758.22 2423.93s6.07-56.9 50.83-77.38c44.77-20.49 84.98-36.01 100.91-8.35 28.83 50.08 61.36 87.08 124.89 207.45 63.53 120.37 41.8 267.61 41.8 267.61l-57.57 92.49-300.86-298.49 40-183.33Z" fill="#fe9fdb"/><path d="m631.76 1988.52 1303.23 499.46 252.54 96.78c3.72 1.43 5.6 5.66 4.21 9.46L1779.45 3714.4c-1.39 3.8-5.55 5.72-9.27 4.3L214.416 3122.45c-3.722-1.42-5.606-5.66-4.208-9.46l412.281-1120.18c1.398-3.8 5.549-5.72 9.271-4.29Z" fill="#8992cd"/><path d="M654.539 2012.75 2160.6 2597.17c3.61 1.4 5.4 5.47 4.01 9.1l-409.58 1070.28c-1.39 3.63-5.44 5.44-9.04 4.04L239.925 3096.17c-3.603-1.4-5.398-5.48-4.009-9.11L645.5 2016.79c1.389-3.63 5.436-5.44 9.039-4.04Z" fill="#cdd4fe"/><path d="M1256.93 2292.76c-122.8-60.91-18.7 125.19-80.71 170.07-62.66 45.34-230.651-15.58-252.812 31.96-22.51 48.3 76.562 173.72 250.142 240.52 166.46 64.06 407.28 70.56 407.28 70.56s130.68 12.02 86.59-99.42c-4.41-11.15 150.94 94.91 169.78 223.47 18.84 128.56-53.84 240.29-94.42 290.77-51.97 64.65-165.98 140.33-150.97 144.14 23.26 5.91 167.42-27.61 254.31-151.11 86.89-123.5 105.23-253.93 93.25-342.89-12.34-91.65-73.71-236.26-210.53-355.14-127.75-110.99-404.98-189.74-471.91-222.93Z" fill="#777dc8"/><path d="M1427.85 2636.06c-60.87 70.86 118.97 256.56 47.5 312.98-71.47 56.42-282.73-141.43-333.38-87.3-50.66 54.13 10.57 230.75 130.75 303.81 120.18 73.07 234.82 126.44 394.2-11.82 71.97-62.44 90.96-270.39 42.25-399.88-48.71-129.49-220.45-188.65-281.32-117.79Z" fill="#7ec9cf"/><path d="M539.582 2698.76c40.722-131.12 108.452-252.16 227.671-304.47 119.219-52.32 178.222 30.21 249.207 95.22 70.98 65.01 36.75 165.08 34.94 195.7-1.81 30.63-107.692 201.35-44.47 352.29 63.22 150.94 354.67 212.93 297.36 251.46-57.32 38.53-351.692-12.52-526.62-97.34-174.927-84.82-278.81-361.73-238.088-492.86Z" fill="#7ec9cf"/><path d="M755.839 2034.2c-25.643 19.87-94.626 84.12-111.308 166.57-17.602 87.01 19.479 179.11 134.146 275.17 86.496 72.47 209.436 173.43 217.43 203.64 3.161 11.94 63.323 163.98 86.403 195.56 29.6 40.51 55.41 71.26 81.51 69 20.28-1.76 17.28-23.59 17.28-23.59s19.6 19.68 40.34 10.8c31.4-13.45 14.6-40.19 14.6-40.19s27.38 14.19 45.36-1.74c24.61-21.81 3.93-46.69 3.93-46.69s34.07.18 39.7-24.01c9.19-39.46-80.52-104.47-93.51-128.88-6.9-12.96 73.5 9.09 76.94-33.35 4.21-52.02-29.27-44.23-69.41-68.75-33.64-20.56-36.89-23.69-56.22-39.37-31.88-25.87-56.54-15.78-93.63-65.5-49.98-67.01-86.18-155.63-120.266-212.89-60.749-102.06-5.478-119.56-5.478-119.56s-182.174-136.1-207.817-116.22Z" fill="#da7ab7"/><path d="M711.594 2099.74 918.036 2201s95.934 236.44 175.474 318.44c18.69 19.27 48.02 20.54 82.8 47.11 78.75 60.16 120.3 53.02 110.94 87.87-7.9 29.43-108.74-18.17-117.67.98-3 6.42 45.11 51.68 74.39 78.57 29.29 26.9 71.36 58.37 54.88 77.21-17.79 20.33-38.55 4.32-72.64-26.13-15.59-13.92-41.16-30.27-41.16-30.27s110.71 90.8 82.22 116.12c-16.16 14.37-48.41-14.52-73.07-36.99-18.8-17.13-39.23-36.82-39.23-36.82s84.47 83.87 61.58 111.15c-21.02 25.06-91.98-81.63-91.98-81.63s47.58 75.37 39.07 84.95c-24.67 27.78-68.49-62.19-88.55-98.41-35.38-63.87-56.87-146.08-80.208-171.85-65.947-72.84-180.21-209.25-217.578-275.45-69.01-122.24-65.71-266.11-65.71-266.11Z" fill="#fe9fdb"/><path d="M1277.44 1752.87s-115.02 7.91-210.62 56.07c-118.903 59.9-125.086 74.04-240.103 166.06-115.017 92.01-128.813 112.36-150.241 142.33-7.457 10.43 9.371 13.73 9.371 13.73s88.492 10.45 190.154 61.82c85.953 43.43 103.977 99.9 103.977 99.9s79.992-31.07 118.662-54.34c38.68-23.27 57.04-44.31 57.04-44.31l577.33 217.34s.13-31.33 19.13-48.78c19-17.45 18.98-20.7 68.29-41.94 49.32-21.24 79.15-11.29 96.13-18.57 7.1-3.04-56.09-170.35-100.14-257.55-70.31-139.19-153.91-182.87-253.74-213.33-54.81-16.72-148.47-46.96-148.47-46.96l2.29 62.64-59.38-51.8-79.68-42.31Z" fill="#6064bd"/><path d="M709.774 2108.36s42.621-39.85 91.778-82.4c24.683-21.36 51.014-43.4 74.424-61.42 70.033-53.9 68.793-62.89 157.014-114.67 97.07-56.97 231.98-75.42 231.98-75.42s56.06 155.41 149.13 172.8c93.07 17.39 127.42-106.15 127.42-106.15s98.17 20.61 168.44 83.04c70.27 62.43 82.05 106.19 126.62 197.12 44.57 90.92 64.56 165.5 64.56 165.5s-49.61-.76-88.58 12.7c-38.97 13.45-67.3 41.12-67.3 41.12s-60.97-234.2-54.71-252.16c6.26-17.96 4.65 104.67 3.01 175.97-1.65 71.3-9.58 109.23-9.58 109.23s-108.82-49.54-239.54-94.48c-130.73-44.94-282.88-101.34-282.88-101.34l-20.27-174.53s15.06 112.87-19.37 176.48c-34.44 63.6-118.36 77.94-118.36 77.94s-68.846-64.95-138.747-93.25c-69.901-28.3-155.039-56.08-155.039-56.08Z" fill="#7277dd"/><path d="m1304.82 1650.53-40.79 88.14s63.31 114.74 108.97 157.76c45.67 43.02 77.66 24.67 88.57 21.4 27.93-8.37 41.54-34.61 50.85-65.41 11-36.43 15.31-122.52 15.31-122.52l-29.68-14-171.12-70.18-22.11 4.81Z" fill="#da7ab7"/><path d="M1340.39 1753.39s47.02 60.51 89.53 73.38c42.51 12.87 80.5-21.88 80.5-21.88s-9.32 72.73-36.82 92.03c-27.51 19.31-49.5 14.06-82.25-3.54-32.75-17.61-66.59-96-66.59-96l15.63-43.99Z" fill="#fe9fdb"/><path d="m1436.17 1768.8-152.32-78.4-88.47-105.27s25.76-71.68 42.56-80.64c16.8-8.96 79.62 6.82 79.62 6.82l26.77-100.9s35.84-35.84 60.48-47.04c24.64-11.19 124.31-34.71 124.31-34.71l56 10.08 23.52 278.87-56 89.59-116.47 61.6Z" fill="#da7ab7"/><path d="M1338.17 1591.58c18.3-10.06 23.43-110.13 89.99-168.67 66.57-58.54 156.64-74.73 156.64-74.73s31.16 143.53 35.61 229.2c4.45 85.67-34.75 181.89-83.6 199.72-48.85 17.83-72.89 21.25-131.09 1.41s-105.51-116.27-105.51-116.27-26.22-20.67-33.38-38.03c-7.17-17.36-13.04-27.39-15.57-46.29-1.45-10.74 6.82-38.98 34.28-36.36 27.46 2.61 45.57 53.9 52.63 50.02Z" fill="#fe9fdb"/><path d="M1165.42 1221.84c-2.17 9.34 77.63 27.89 80.05 38.88 3.21 14.53-101.41 45.45-109.73 56.23-7.6 9.85 57.32 11.03 57.32 11.03s-39.6 16.24-59.09 50.84c-19.43 34.52-28.41 77.34-13.05 130.77 19.61 68.16 37.04 87.32 76.53 151.74 39.49 64.41 81.37 104.97 81.37 104.97s36.8-86.8 25.31-103.6c-11.5-16.8-59.85-34.99-68.38-71.59-8.52-36.59 19.96-61.52 39.73-68.53 30.21-10.71 41.17 22.44 47.35 16.65 10.13-9.5 15.58-87.89 50.61-127.02 32.52-36.33 67.61-14.6 125.01-22.18 39.94-5.28 78.82-14.14 102.38-38.84 8.73-9.15 27.18-37.12 32.09-67.41 6.12-37.75-.9-57.83-8.5-63.28-7.6-5.46-60.19 44.79-86.97 58.41-26.78 13.63 3.86-21.73-51.61-65.4-24.29-19.12-53.47-29.08-111-32.4-57.52-3.33-126.8 15.1-126.8 15.1s-80.64 17.11-82.62 25.63Z" fill="#373b84"/><path d="M1193.41 1222.53c-6.56 5.54 85.6 26.25 81.06 37.92-5.38 13.85-101.68 47.59-108.38 52.29-8.95 6.29 64.63-3 59.23 4.07-13.57 17.77-57.85 26.47-79.8 71.85-20.49 42.36-27.8 71.94 3.79 155.71 31.58 83.77 124.75 199.07 124.75 199.07s21.64-64.5 18.57-72.92c-4.22-11.59-55.23-27.31-67.19-66.16-13.94-45.33.34-71.83 27.46-88.06 36.83-22.04 57.87 4.69 62.83.6 8.01-6.6 16.62-95.29 56.68-128.82 21.26-17.79 58.96-5.82 101.93-9.67 42.97-3.84 86.44-5.99 120-40.03 33.55-34.03 36.18-115.9 14.22-96.1-21.95 19.8-110.9 76.65-110.9 76.65s20.79-41.66 4.25-65.4c-24.27-34.84-40.61-55.68-110.03-61.55-69.41-5.88-189.19 22.7-198.47 30.55Z" fill="#464ba9"/><path d="M1258.58 1297.86s31.4-40.7 75.65-54.53c44.25-13.83 101.35-.8 101.35-.8s-60.1 13.85-103.18 25.25c-43.07 11.4-73.82 30.08-73.82 30.08Zm88.71 64.79s46.84-62.14 78.45-71.28 73.47-3.13 73.47-3.13-39.6 10.18-77.58 28.78-74.34 45.63-74.34 45.63Z" fill="#4f53b3"/><path d="M1444.08 1348.22s58.2-6.43 95.5-24.25 53.71-47.03 53.71-47.03-18.6 50.26-55.9 68.08-93.31 3.2-93.31 3.2Zm-209.61 79.33s-2.44-46.72 21.89-76.14c24.32-29.43 91.39-55.13 91.39-55.13s-56.98 51.19-81.31 80.61c-24.32 29.43-31.97 50.66-31.97 50.66Zm-16.63 139.63s-40.43-23.53-51.74-59.99c-11.31-36.47 3.89-106.66 3.89-106.66s11.65 75.7 22.96 112.17c11.31 36.46 24.89 54.48 24.89 54.48Z" fill="#2e3172"/><path d="M2756.26 1783.81h1583.06c4.47 0 8.1 3.78 8.1 8.43v2293.55c0 4.66-3.63 8.44-8.1 8.44H2756.26c-4.47 0-8.1-3.78-8.1-8.44V1792.24c0-4.65 3.63-8.43 8.1-8.43Z" fill="#858ec7"/><path d="M2824.07 1811.7h1486.24c5.73 0 10.36 3.56 10.36 7.95v2234.78c0 4.39-4.63 7.94-10.36 7.94H2824.07c-5.72 0-10.36-3.55-10.36-7.94V1819.65c0-4.39 4.64-7.95 10.36-7.95Z" fill="#cdd4fe"/><path d="M4118.74 2303.86c50.87 27.56 178.03-175.9 111.27-224.64-61.91-45.21-162.13 197.09-111.27 224.64Z" fill="#edb3e8"/><path d="M4088.69 2229.3c-36.95 117.49-44.67 263.68 14.36 275.69 84.72 17.23 124.61-145.26 137.85-248.41 13.24-103.15 18.66-198.15-35.03-207.63-36.39-6.42-80.22 62.86-117.18 180.35Zm-443.17 760.45c-114.35-127.83 124.14-197.61 30.71-257.25-93.42-59.65-320.61-253.42-382.04-213.1-47.62 31.24 180.52 164.28 178.61 254.99-1.92 90.71-10.15 149.44-186.29 107.85s117.3 237.28 117.3 237.28l-90.22 172.43s-267.4 319.33-243.34 477.72c24.06 158.39 71.71 236.89 265.7 191.78 193.99-45.11 415.22-462.49 470.86-454.97 55.64 7.52-36.09 291.72 0 400.99 36.09 109.27 98.37-211.69 190.03-286.1 91.67-74.4 101.76 92.15 188.15 15.36 111.62-99.22 83.49-231.15-51.37-392.9-134.87-161.74-373.76-126.24-488.1-254.08Z" fill="#7ec9cf"/><path d="M3440.76 2156.49s54.41 54.11 102.08 4.98c47.67-49.13 87.09-206.46 113.28-216.77 131.46-51.74 84.48 178.23 120.27 226.56 35.78 48.33 64.33 39.16 127.26-20.98 62.93-60.13 93.17-197.28 138.45-230.75 45.29-33.47 80.11-4.03 60.14 106.29-19.98 110.31-83.26 198.21-132.86 362.21-49.6 164 49.57 149.34 23.78 243.34-25.8 94-84.18 129.08-126.97 132.65-52.14 4.35-86.04-96.07-102.39-135.45-29.76-71.7 50.35-278.3-23.77-206.98-74.12 71.33-41.96-20.63-78.32 33.57-36.36 54.19 58.74 138.45-22.38 156.63-81.11 18.18-68.31-114.98-117.47-174.81-49.16-59.84-79.16-64.52-79.16-64.52l-1.94-215.97Z" fill="#777dc8"/><path d="M3876.95 3478.59c-33.31 83.48 85.86 88.86 104.99 225.15 11.02 78.5-59.51 212.62-6.99 248.01 52.52 35.4 129.73 21.86 217.08-106.43 87.36-128.29 126.81-308.46 69.56-321.41-57.26-12.95-332.16-176.87-384.64-45.32Zm-176.6-413.33c32.3-66.84 84.4-108.51 116.38-93.09 31.98 15.42 31.73 82.1-.57 148.93-32.29 66.84-84.39 108.51-116.37 93.09-31.98-15.42-31.73-82.1.56-148.93Z" fill="#edb3e8"/><path d="M3964.3 4066.69c37.14-77.02 226.09-119.26 493.84-119.26 108.78 0 377.46 110.51 377.46 110.51s51.73 110.43-81.08 155.75c-51.46 17.55-129.03 54.13-373.03 58.93-257.79 5.06-354.59-63.72-388.36-90.01-33.2-25.85-42.21-88.17-28.83-115.92Z" fill="#484c6a"/><path d="M3960.12 4086.15c0-83.82 197.81-151.76 441.82-151.76s441.82 67.94 441.82 151.76c0 83.81-197.81 151.76-441.82 151.76s-441.82-67.95-441.82-151.76Z" fill="#9292a1"/><path d="M4033.69 4027.97c89.93-63.09 334.77-93.99 519.55-69.73 194.33 25.51 299.37 101.55 209.44 164.64-89.94 63.09-352.19 115.22-538.84 81.38-173.03-31.38-280.09-113.2-190.15-176.29Z" fill="#6f728b"/><path d="M4019.12 4088.79c0-73.62 174.82-122.06 393.33-122.06s383.17 49.1 383.17 122.72c0 73.63-162.33 132.65-380.85 132.65-218.51 0-395.65-59.68-395.65-133.31Z" fill="url(#a)"/><g fill="#fff"><path d="M4326.39 4008.72s-45.9 7.4-60.15 17.93c-14.25 10.54-11.9 18.28.45 25.78 22.73 13.81 53.76 20.46 122.57 35.23 61.15 13.12 68.02 13.87 101.65 23.19 33.63 9.31 39.61 19.12 37.62 25.59-1.5 4.88-19.01 14.35-19.01 14.35s-27.5 10.45-38.16 10.31c-10.67-.13-89.8-5.32-89.8-5.32s64.81-.2 82.82-9.89c18.01-9.69 12.74-19.44-10.48-25.73-41.8-11.34-64.07-13.82-118.96-25.98-60.38-13.38-87.8-21.7-107.56-33.36-8.92-5.26-21.36-13.92-11.46-29.75 5.17-8.26 22.95-22.3 79.08-30.87 51.41-7.85 92.93-7.7 132.82-6.38 39.88 1.32 46.09 5.45 46.09 5.45l-147.52 9.45Z"/><path d="m4659.21 4037.65-28.91 8.59s-42.71-15.07-100.4-27.45c-33.45-7.19-130.24-16.24-162.96-6.36-20.84 6.3-37.3 14.86 21.61 31.96 46.6 13.52 136.21 30.55 179.26 43.33 51.98 15.42 50.6 29.33 43.99 39.84-6.86 10.91-52.22 30.15-136.25 38.25-84.04 8.1-165.49-1.49-205.67-9.35-33.08-6.47-119.92-32.04-119.92-32.04l34.94-10.43s58.36 19.6 107.67 30.47c50.67 11.17 95.44 11.36 126.11 11.65 37.54.35 90.72-7.67 121.5-16.71 32.93-9.66 47.14-19.86 13.85-34.85-35.96-16.19-112.64-31.07-112.64-31.07s-72.08-12.85-105.08-24.15c-32.99-11.3-35.65-19.42-34.85-28.12.64-6.93 38.07-23.31 74.98-25.96 35.76-2.58 100.02-1.64 169.99 11.93 53.55 10.39 112.78 30.47 112.78 30.47Z"/></g><path d="M3972.34 4017.44c37.14-77.03 226.09-119.27 493.84-119.27 108.78 0 377.46 110.51 377.46 110.51s51.73 110.43-81.08 155.75c-51.45 17.56-129.03 54.13-373.03 58.93-257.79 5.07-354.59-63.72-388.36-90.01-33.2-25.85-42.21-88.16-28.83-115.91Z" fill="#484c6a"/><path d="M3968.16 4036.89c0-83.81 197.81-151.76 441.83-151.76 244.01 0 441.82 67.95 441.82 151.76 0 83.82-197.81 151.76-441.82 151.76-244.02 0-441.83-67.94-441.83-151.76Z" fill="#9292a1"/><path d="M4041.73 3978.71c89.93-63.09 334.77-93.99 519.55-69.73 194.33 25.51 299.37 101.56 209.44 164.65s-352.19 115.22-538.84 81.37c-173.03-31.38-280.09-113.2-190.15-176.29Z" fill="#6f728b"/><path d="M4027.16 4039.53c0-73.62 174.82-122.06 393.33-122.06 218.52 0 383.17 49.1 383.17 122.73 0 73.62-162.33 132.64-380.84 132.64-218.52 0-395.66-59.68-395.66-133.31Z" fill="url(#b)"/><g fill="#fff"><path d="M4334.44 3959.46s-45.91 7.4-60.16 17.94c-14.25 10.53-11.9 18.27.45 25.77 22.73 13.81 53.76 20.46 122.57 35.23 61.15 13.12 68.02 13.88 101.65 23.19 33.63 9.32 39.61 19.12 37.62 25.59-1.5 4.88-19.01 14.35-19.01 14.35s-27.49 10.45-38.16 10.32c-10.66-.14-89.79-5.33-89.79-5.33s64.8-.2 82.81-9.89c18.02-9.68 12.74-19.43-10.48-25.73-41.8-11.33-64.07-13.82-118.96-25.98-60.38-13.38-87.8-21.7-107.56-33.36-8.91-5.26-21.36-13.92-11.46-29.75 5.17-8.26 22.95-22.29 79.08-30.86 51.41-7.85 92.94-7.71 132.82-6.39 39.89 1.33 46.1 5.45 46.1 5.45l-147.52 9.45Z"/><path d="m4667.25 3988.39-28.91 8.59s-42.71-15.07-100.4-27.45c-33.45-7.18-130.24-16.24-162.96-6.35-20.84 6.29-37.3 14.85 21.62 31.95 46.59 13.52 136.2 30.55 179.26 43.33 51.97 15.42 50.59 29.33 43.98 39.84-6.86 10.91-52.21 30.15-136.25 38.25-84.04 8.11-165.49-1.49-205.67-9.34-33.08-6.47-119.92-32.05-119.92-32.05l34.94-10.43s58.36 19.6 107.67 30.47c50.67 11.17 95.45 11.36 126.11 11.65 37.54.36 90.72-7.67 121.51-16.71 32.93-9.66 47.13-19.86 13.84-34.85-35.96-16.19-112.64-31.06-112.64-31.06s-72.08-12.85-105.08-24.16c-32.99-11.3-35.65-19.42-34.84-28.11.64-6.94 38.06-23.31 74.97-25.97 35.76-2.57 100.02-1.63 169.99 11.94 53.56 10.38 112.78 30.46 112.78 30.46Z"/></g><path d="M3972.34 3968.98c37.14-77.03 226.09-119.27 493.84-119.27 108.78 0 377.46 110.51 377.46 110.51s51.73 110.43-81.08 155.75c-51.45 17.56-129.03 54.13-373.03 58.93-257.79 5.07-354.59-63.72-388.36-90.01-33.2-25.85-42.21-88.16-28.83-115.91Z" fill="#484c6a"/><path d="M3968.16 3988.43c0-83.81 197.81-151.76 441.83-151.76 244.01 0 441.82 67.95 441.82 151.76 0 83.82-197.81 151.76-441.82 151.76-244.02 0-441.83-67.94-441.83-151.76Z" fill="#9292a1"/><path d="M4041.73 3930.25c89.93-63.09 334.77-93.99 519.55-69.73 194.33 25.51 299.37 101.56 209.44 164.65s-352.19 115.22-538.84 81.37c-173.03-31.38-280.09-113.2-190.15-176.29Z" fill="#6f728b"/><path d="M4027.16 3991.07c0-73.62 174.82-122.06 393.33-122.06 218.52 0 383.17 49.1 383.17 122.73 0 73.62-162.33 132.64-380.84 132.64-218.52 0-395.66-59.68-395.66-133.31Z" fill="url(#c)"/><g fill="#fff"><path d="M4334.44 3911s-45.91 7.4-60.16 17.94c-14.25 10.53-11.9 18.27.45 25.77 22.73 13.81 53.76 20.46 122.57 35.23 61.15 13.12 68.02 13.88 101.65 23.19 33.63 9.32 39.61 19.12 37.62 25.59-1.5 4.88-19.01 14.35-19.01 14.35s-27.49 10.45-38.16 10.32c-10.66-.14-89.79-5.33-89.79-5.33s64.8-.2 82.81-9.89c18.02-9.68 12.74-19.43-10.48-25.73-41.8-11.33-64.07-13.82-118.96-25.98-60.38-13.38-87.8-21.7-107.56-33.36-8.91-5.26-21.36-13.92-11.46-29.75 5.17-8.26 22.95-22.29 79.08-30.86 51.41-7.85 92.94-7.71 132.82-6.39 39.89 1.33 46.1 5.45 46.1 5.45l-147.52 9.45Z"/><path d="m4667.25 3939.93-28.91 8.59s-42.71-15.06-100.4-27.45c-33.45-7.18-130.24-16.24-162.96-6.35-20.84 6.29-37.3 14.85 21.62 31.95 46.59 13.52 136.2 30.55 179.26 43.33 51.97 15.42 50.59 29.33 43.98 39.84-6.86 10.91-52.21 30.15-136.25 38.25-84.04 8.11-165.49-1.49-205.67-9.34-33.08-6.47-119.92-32.05-119.92-32.05l34.94-10.43s58.36 19.6 107.67 30.47c50.67 11.17 95.45 11.36 126.11 11.65 37.54.36 90.72-7.67 121.51-16.71 32.93-9.66 47.13-19.86 13.84-34.85-35.96-16.19-112.64-31.06-112.64-31.06s-72.08-12.85-105.08-24.16c-32.99-11.3-35.65-19.42-34.84-28.11.64-6.94 38.06-23.31 74.97-25.97 35.76-2.57 100.02-1.63 169.99 11.94 53.56 10.38 112.78 30.46 112.78 30.46Z"/></g><path d="M3979.07 3901.03c37.14-77.02 226.08-119.27 493.84-119.27 108.78 0 377.46 110.51 377.46 110.51s51.73 110.43-81.08 155.75c-51.46 17.56-129.04 54.13-373.03 58.93-257.79 5.07-354.59-63.72-388.36-90.01-33.2-25.85-42.21-88.16-28.83-115.91Z" fill="#484c6a"/><path d="M3974.89 3920.48c0-83.81 197.81-151.76 441.82-151.76s441.82 67.95 441.82 151.76c0 83.82-197.81 151.77-441.82 151.77s-441.82-67.95-441.82-151.77Z" fill="#9292a1"/><path d="M4048.45 3862.3c89.94-63.09 334.78-93.99 519.56-69.73 194.33 25.52 299.37 101.56 209.44 164.65-89.94 63.09-352.19 115.22-538.84 81.37-173.04-31.38-280.09-113.2-190.16-176.29Z" fill="#6f728b"/><path d="M4033.89 3923.13c0-73.63 174.82-122.07 393.33-122.07s383.17 49.1 383.17 122.73c0 73.62-162.34 132.64-380.85 132.64-218.51 0-395.65-59.68-395.65-133.3Z" fill="url(#d)"/><g fill="#fff"><path d="M4341.16 3843.05s-45.9 7.4-60.15 17.94c-14.25 10.53-11.9 18.27.44 25.77 22.74 13.82 53.77 20.46 122.58 35.23 61.15 13.12 68.02 13.88 101.65 23.19 33.63 9.32 39.61 19.12 37.62 25.6-1.5 4.88-19.01 14.34-19.01 14.34s-27.5 10.45-38.16 10.32c-10.67-.14-89.8-5.33-89.8-5.33s64.81-.2 82.82-9.88c18.01-9.69 12.73-19.44-10.48-25.74-41.81-11.33-64.07-13.82-118.96-25.98-60.38-13.38-87.8-21.7-107.56-33.36-8.92-5.26-21.36-13.92-11.46-29.74 5.17-8.27 22.94-22.3 79.07-30.87 51.42-7.85 92.94-7.7 132.83-6.38 39.88 1.32 46.09 5.44 46.09 5.44l-147.52 9.45Z"/><path d="m4673.98 3871.98-28.92 8.59s-42.7-15.06-100.39-27.45c-33.45-7.18-130.24-16.23-162.96-6.35-20.85 6.29-37.3 14.85 21.61 31.95 46.6 13.52 136.21 30.55 179.26 43.33 51.98 15.42 50.6 29.33 43.99 39.84-6.87 10.91-52.22 30.15-136.25 38.25-84.04 8.11-165.49-1.49-205.67-9.34-33.08-6.47-119.92-32.05-119.92-32.05l34.94-10.43s58.36 19.6 107.67 30.47c50.66 11.17 95.44 11.37 126.11 11.65 37.54.36 90.72-7.67 121.5-16.71 32.93-9.66 47.14-19.86 13.85-34.85-35.97-16.19-112.64-31.06-112.64-31.06s-72.08-12.85-105.08-24.15c-32.99-11.31-35.65-19.43-34.85-28.12.64-6.94 38.07-23.31 74.98-25.97 35.75-2.57 100.02-1.63 169.99 11.94 53.55 10.38 112.78 30.46 112.78 30.46Z"/></g><path d="M3987.11 3851.77c37.14-77.02 226.09-119.27 493.84-119.27 108.78 0 377.46 110.51 377.46 110.51s51.73 110.43-81.08 155.75c-51.46 17.56-129.03 54.13-373.03 58.93-257.79 5.07-354.59-63.72-388.36-90-33.2-25.85-42.21-88.17-28.83-115.92Z" fill="#484c6a"/><path d="M3982.93 3871.23c0-83.82 197.81-151.77 441.82-151.77 244.02 0 441.83 67.95 441.83 151.77 0 83.81-197.81 151.76-441.83 151.76-244.01 0-441.82-67.95-441.82-151.76Z" fill="#9292a1"/><path d="M4056.5 3813.04c89.93-63.09 334.77-93.99 519.55-69.73 194.33 25.52 299.37 101.56 209.44 164.65s-352.19 115.22-538.84 81.37c-173.03-31.38-280.09-113.2-190.15-176.29Z" fill="#6f728b"/><path d="M4041.93 3873.87c0-73.62 174.82-122.07 393.33-122.07s383.17 49.11 383.17 122.73-162.33 132.65-380.85 132.65c-218.51 0-395.65-59.69-395.65-133.31Z" fill="url(#e)"/><g fill="#fff"><path d="M4349.21 3793.79s-45.91 7.41-60.16 17.94c-14.25 10.54-11.9 18.27.45 25.77 22.73 13.82 53.76 20.47 122.57 35.23 61.15 13.13 68.02 13.88 101.65 23.2 33.63 9.31 39.61 19.12 37.62 25.59-1.5 4.88-19.01 14.35-19.01 14.35s-27.5 10.44-38.16 10.31c-10.67-.13-89.8-5.33-89.8-5.33s64.81-.19 82.82-9.88c18.02-9.69 12.74-19.44-10.48-25.74-41.8-11.33-64.07-13.82-118.96-25.98-60.38-13.38-87.8-21.69-107.56-33.36-8.91-5.26-21.36-13.92-11.46-29.74 5.17-8.27 22.95-22.3 79.08-30.87 51.41-7.85 92.94-7.7 132.82-6.38 39.88 1.32 46.09 5.44 46.09 5.44l-147.51 9.45Z"/><path d="m4682.02 3822.73-28.91 8.59s-42.71-15.07-100.4-27.46c-33.45-7.18-130.24-16.23-162.96-6.35-20.84 6.3-37.3 14.86 21.62 31.95 46.59 13.52 136.2 30.56 179.25 43.33 51.98 15.43 50.6 29.34 43.99 39.84-6.86 10.91-52.21 30.15-136.25 38.26-84.04 8.1-165.49-1.49-205.67-9.35-33.08-6.47-119.92-32.05-119.92-32.05l34.94-10.43s58.36 19.61 107.67 30.48c50.67 11.16 95.44 11.36 126.11 11.65 37.54.35 90.72-7.68 121.5-16.71 32.94-9.67 47.14-19.87 13.85-34.85-35.96-16.2-112.64-31.07-112.64-31.07s-72.08-12.85-105.08-24.15c-32.99-11.31-35.65-19.42-34.84-28.12.63-6.93 38.06-23.31 74.97-25.97 35.76-2.57 100.02-1.63 169.99 11.94 53.55 10.39 112.78 30.47 112.78 30.47Z"/></g><path d="M2856.93 775.07c0-179.106 139.58-324.299 311.75-324.299s311.74 145.193 311.74 324.299c0 179.105-139.57 324.3-311.74 324.3-172.17 0-311.75-145.195-311.75-324.3Z" fill="#484c6a"/><path d="M2854.6 775.876c0-175.561 130.38-317.881 291.21-317.881 160.82 0 291.2 142.32 291.2 317.881 0 175.56-130.38 317.884-291.2 317.884-160.83 0-291.21-142.324-291.21-317.884Z" fill="#9292a1"/><path d="M2901.9 654.008c57.83-132.149 215.27-196.869 334.09-146.054 124.95 53.441 192.5 212.717 134.67 344.866-57.83 132.148-226.47 241.34-346.48 170.44-111.27-65.724-180.1-237.103-122.28-369.252Z" fill="#6f728b"/><path d="M2892.54 781.412c0-154.211 113.9-279.224 254.41-279.224s254.41 125.013 254.41 279.224c0 154.211-113.9 279.228-254.41 279.228s-254.41-125.017-254.41-279.228Z" fill="url(#f)"/><g fill="#fff"><path d="M3090.12 613.688s-29.51 15.507-38.68 37.571c-9.16 22.065-7.65 38.27.29 53.984 14.62 28.935 34.57 42.859 78.82 73.79 39.32 27.485 43.74 29.07 65.36 48.58 21.62 19.51 25.47 40.05 24.19 53.604-.97 10.222-12.22 30.056-12.22 30.056s-17.69 21.884-24.54 21.603c-6.86-.28-57.74-11.157-57.74-11.157s41.67-.413 53.25-20.707c11.58-20.294 8.19-40.715-6.74-53.901-26.88-23.743-41.2-28.948-76.49-54.423-38.83-28.022-56.46-45.442-69.17-69.874-5.73-11.019-13.73-29.154-7.37-62.304 3.33-17.312 14.76-46.705 50.85-64.656 33.06-16.443 59.76-16.133 85.41-13.366 25.65 2.767 29.64 11.403 29.64 11.403l-94.86 19.797Z"/><path d="m3304.13 674.288-18.59 17.994s-27.47-31.56-64.56-57.505c-21.51-15.046-83.75-34.004-104.79-13.305-13.4 13.189-23.98 31.117 13.9 66.925 29.96 28.321 87.59 64.002 115.27 90.761 33.42 32.304 32.53 61.445 28.28 83.451-4.41 22.854-33.57 63.154-87.61 80.126-54.04 16.971-106.41-3.121-132.25-19.581-21.27-13.551-77.11-67.124-77.11-67.124l22.47-21.844s37.52 41.058 69.23 63.826c32.58 23.392 61.37 23.799 81.09 24.404 24.14.741 58.34-16.076 78.13-35 21.18-20.244 30.31-41.604 8.91-72.996-23.13-33.919-72.43-65.075-72.43-65.075s-46.35-26.912-67.57-50.588c-21.22-23.677-22.92-40.678-22.41-58.895.41-14.523 24.48-48.822 48.21-54.387 22.99-5.391 64.32-3.421 109.31 24.999 34.43 21.754 72.52 63.814 72.52 63.814Z"/></g><path d="M1828.22 775.645c0-116.909 92.04-211.682 205.58-211.682 113.53 0 205.57 94.773 205.57 211.682 0 116.908-92.04 211.681-205.57 211.681-113.54 0-205.58-94.773-205.58-211.681Z" fill="#484c6a"/><path d="M1826.68 776.171c0-114.595 85.98-207.493 192.04-207.493 106.05 0 192.03 92.898 192.03 207.493s-85.98 207.492-192.03 207.492c-106.06 0-192.04-92.897-192.04-207.492Z" fill="#9292a1"/><path d="M1857.88 696.623c38.13-86.258 141.95-128.504 220.31-95.335 82.4 34.883 126.94 138.849 88.81 225.107-38.14 86.258-149.35 157.531-228.49 111.254-73.37-42.901-118.77-154.767-80.63-241.026Z" fill="#6f728b"/><path d="M1851.7 779.784c0-100.659 75.11-182.26 167.77-182.26 92.66 0 167.77 81.601 167.77 182.26 0 100.66-75.11 182.26-167.77 182.26-92.66 0-167.77-81.6-167.77-182.26Z" fill="url(#g)"/><g fill="#fff"><path d="M1982 670.305s-19.47 10.122-25.51 24.524c-6.04 14.402-5.05 24.98.19 35.237 9.64 18.887 22.79 27.976 51.97 48.165 25.93 17.941 28.85 18.976 43.11 31.711 14.26 12.735 16.79 26.142 15.95 34.989-.64 6.672-8.06 19.619-8.06 19.619s-11.66 14.284-16.18 14.101c-4.53-.183-38.08-7.283-38.08-7.283s27.48-.269 35.12-13.516c7.64-13.247 5.4-26.577-4.45-35.183-17.72-15.498-27.16-18.896-50.44-35.524-25.6-18.291-37.23-29.662-45.61-45.61-3.78-7.192-9.06-19.029-4.86-40.668 2.19-11.3 9.73-30.486 33.53-42.203 21.8-10.733 39.41-10.531 56.32-8.725 16.92 1.806 19.55 7.443 19.55 7.443L1982 670.305Z"/><path d="m2123.12 709.861-12.26 11.745s-18.11-20.601-42.57-37.536c-14.18-9.821-55.23-22.195-69.1-8.684-8.84 8.608-15.82 20.311 9.16 43.684 19.76 18.487 57.76 41.777 76.02 59.243 22.03 21.087 21.45 40.107 18.65 54.472-2.91 14.917-22.14 41.223-57.78 52.301-35.63 11.078-70.17-2.037-87.21-12.781-14.03-8.845-50.85-43.814-50.85-43.814l14.82-14.259s24.74 26.8 45.65 41.662c21.49 15.268 40.47 15.534 53.48 15.929 15.92.484 38.47-10.493 51.52-22.846 13.96-13.214 19.99-27.156 5.87-47.647-15.25-22.14-47.76-42.477-47.76-42.477s-30.57-17.566-44.56-33.021c-13.99-15.454-15.12-26.552-14.78-38.443.28-9.479 16.14-31.868 31.8-35.5 15.16-3.519 42.41-2.233 72.08 16.318 22.71 14.2 47.82 41.654 47.82 41.654Z"/></g><path d="M3780.55 2990.78c0-210.29 170.34-380.75 380.46-380.75 210.12 0 380.46 170.46 380.46 380.75 0 210.28-170.34 380.75-380.46 380.75-210.12 0-380.46-170.47-380.46-380.75Z" fill="#484c6a"/><path d="M3777.7 2991.72c0-206.12 159.12-373.21 355.4-373.21 196.28 0 355.4 167.09 355.4 373.21 0 206.13-159.12 373.22-355.4 373.22-196.28 0-355.4-167.09-355.4-373.22Z" fill="#9292a1"/><path d="M3835.43 2848.64c70.58-155.15 262.72-231.14 407.73-171.48 152.5 62.75 234.94 249.75 164.36 404.9-70.58 155.15-276.39 283.35-422.86 200.11-135.79-77.16-219.8-278.38-149.23-433.53Z" fill="#6f728b"/><path d="M3824 2998.22c0-181.05 139.02-327.83 310.5-327.83s310.49 146.78 310.49 327.83c0 181.06-139.01 327.83-310.49 327.83-171.48 0-310.5-146.77-310.5-327.83Z" fill="url(#h)"/><g fill="#fff"><path d="M4065.14 2801.3s-36.02 18.21-47.21 44.12c-11.18 25.9-9.34 44.93.35 63.38 17.84 33.97 42.19 50.32 96.19 86.63 47.99 32.27 53.39 34.13 79.78 57.04 26.39 22.9 31.08 47.02 29.52 62.93-1.18 12-14.92 35.29-14.92 35.29s-21.58 25.69-29.95 25.36c-8.37-.32-70.47-13.09-70.47-13.09s50.86-.49 65-24.32c14.13-23.82 9.99-47.8-8.23-63.28-32.8-27.88-50.28-33.99-93.35-63.9-47.39-32.9-68.91-53.35-84.42-82.03-6.99-12.94-16.76-34.23-8.99-73.15 4.06-20.33 18.01-54.84 62.06-75.91 40.35-19.31 72.93-18.95 104.23-15.7 31.3 3.25 36.18 13.39 36.18 13.39l-115.77 23.24Z"/><path d="m4326.32 2872.45-22.69 21.13s-33.52-37.06-78.78-67.52c-26.26-17.66-102.21-39.92-127.89-15.62-16.36 15.49-29.27 36.54 16.96 78.58 36.57 33.25 106.89 75.14 140.68 106.56 40.78 37.93 39.7 72.14 34.52 97.98-5.39 26.83-40.98 74.14-106.93 94.07-65.95 19.93-129.87-3.66-161.4-22.99-25.96-15.91-94.11-78.81-94.11-78.81l27.42-25.64s45.8 48.2 84.5 74.93c39.76 27.47 74.9 27.94 98.96 28.65 29.46.87 71.2-18.87 95.35-41.09 25.85-23.77 37-48.84 10.87-85.7-28.22-39.83-88.39-76.4-88.39-76.4s-56.57-31.6-82.47-59.4c-25.89-27.8-27.97-47.76-27.34-69.15.5-17.05 29.87-57.32 58.83-63.85 28.06-6.33 78.5-4.02 133.4 29.35 42.03 25.54 88.51 74.92 88.51 74.92Z"/></g><path d="M3987.11 3803.31c37.14-77.02 226.09-119.26 493.84-119.26 108.78 0 377.46 110.5 377.46 110.5s51.73 110.43-81.08 155.75c-51.46 17.56-129.03 54.13-373.03 58.93-257.79 5.07-354.59-63.72-388.36-90-33.2-25.85-42.21-88.17-28.83-115.92Z" fill="#484c6a"/><path d="M3982.93 3822.77c0-83.82 197.81-151.77 441.82-151.77 244.02 0 441.83 67.95 441.83 151.77 0 83.81-197.81 151.76-441.83 151.76-244.01 0-441.82-67.95-441.82-151.76Z" fill="#9292a1"/><path d="M4056.5 3764.58c89.93-63.09 334.77-93.99 519.55-69.72 194.33 25.51 299.37 101.55 209.44 164.64-89.93 63.09-352.19 115.22-538.84 81.37-173.03-31.38-280.09-113.2-190.15-176.29Z" fill="#6f728b"/><path d="M4041.93 3825.41c0-73.62 174.82-122.07 393.33-122.07s383.17 49.11 383.17 122.73-162.33 132.65-380.85 132.65c-218.51 0-395.65-59.69-395.65-133.31Z" fill="url(#i)"/><g fill="#fff"><path d="M4349.21 3745.33s-45.91 7.41-60.16 17.94c-14.25 10.54-11.9 18.27.45 25.77 22.73 13.82 53.76 20.47 122.57 35.23 61.15 13.13 68.02 13.88 101.65 23.2 33.63 9.31 39.61 19.12 37.62 25.59-1.5 4.88-19.01 14.35-19.01 14.35s-27.5 10.44-38.16 10.31c-10.67-.13-89.8-5.33-89.8-5.33s64.81-.19 82.82-9.88c18.02-9.69 12.74-19.44-10.48-25.73-41.8-11.34-64.07-13.83-118.96-25.99-60.38-13.38-87.8-21.69-107.56-33.36-8.91-5.26-21.36-13.92-11.46-29.74 5.17-8.27 22.95-22.3 79.08-30.87 51.41-7.85 92.94-7.7 132.82-6.38 39.88 1.32 46.09 5.44 46.09 5.44l-147.51 9.45Z"/><path d="m4682.02 3774.27-28.91 8.59s-42.71-15.07-100.4-27.46c-33.45-7.18-130.24-16.23-162.96-6.35-20.84 6.3-37.3 14.86 21.62 31.95 46.59 13.52 136.2 30.56 179.25 43.33 51.98 15.43 50.6 29.34 43.99 39.84-6.86 10.91-52.21 30.15-136.25 38.26-84.04 8.1-165.49-1.49-205.67-9.35-33.08-6.47-119.92-32.05-119.92-32.05l34.94-10.43s58.36 19.61 107.67 30.48c50.67 11.16 95.44 11.36 126.11 11.65 37.54.35 90.72-7.68 121.5-16.71 32.94-9.67 47.14-19.86 13.85-34.85-35.96-16.2-112.64-31.07-112.64-31.07s-72.08-12.85-105.08-24.15c-32.99-11.31-35.65-19.42-34.84-28.12.63-6.93 38.06-23.31 74.97-25.96 35.76-2.58 100.02-1.64 169.99 11.93 53.55 10.39 112.78 30.47 112.78 30.47Z"/></g><path d="M3717.65 4561.18c37.13-77.02 226.08-119.26 493.83-119.26 108.78 0 377.47 110.51 377.47 110.51s51.72 110.43-81.09 155.75c-51.45 17.55-129.03 54.13-373.03 58.93-257.79 5.06-354.59-63.72-388.35-90.01-33.2-25.85-42.21-88.17-28.83-115.92Z" fill="#484c6a"/><path d="M3713.47 4580.64c0-83.82 197.81-151.76 441.82-151.76s441.82 67.94 441.82 151.76c0 83.81-197.81 151.76-441.82 151.76s-441.82-67.95-441.82-151.76Z" fill="#9292a1"/><path d="M3787.03 4522.46c89.93-63.09 334.78-93.99 519.56-69.73 194.32 25.51 299.37 101.55 209.43 164.64-89.93 63.09-352.19 115.22-538.84 81.38-173.03-31.38-280.08-113.2-190.15-176.29Z" fill="#6f728b"/><path d="M3772.47 4583.28c0-73.62 174.81-122.06 393.33-122.06 218.51 0 383.17 49.1 383.17 122.72 0 73.63-162.34 132.65-380.85 132.65-218.51 0-395.65-59.68-395.65-133.31Z" fill="url(#j)"/><g fill="#fff"><path d="M4079.74 4503.21s-45.9 7.4-60.15 17.93c-14.25 10.54-11.91 18.28.44 25.78 22.73 13.81 53.76 20.46 122.58 35.23 61.14 13.12 68.02 13.87 101.65 23.19 33.63 9.31 39.6 19.12 37.61 25.59-1.5 4.88-19 14.35-19 14.35s-27.5 10.45-38.17 10.31c-10.66-.13-89.79-5.32-89.79-5.32s64.8-.2 82.82-9.89c18.01-9.69 12.73-19.44-10.49-25.73-41.8-11.34-64.06-13.82-118.96-25.98-60.37-13.38-87.8-21.7-107.56-33.36-8.91-5.26-21.35-13.92-11.46-29.75 5.17-8.26 22.95-22.3 79.08-30.87 51.41-7.85 92.94-7.7 132.82-6.38 39.89 1.32 46.1 5.45 46.1 5.45l-147.52 9.45Z"/><path d="m4412.56 4532.14-28.92 8.59s-42.71-15.07-100.39-27.45c-33.45-7.19-130.24-16.24-162.96-6.36-20.85 6.3-37.3 14.86 21.61 31.96 46.59 13.52 136.21 30.55 179.26 43.33 51.97 15.42 50.59 29.33 43.98 39.84-6.86 10.91-52.21 30.15-136.25 38.25-84.03 8.1-165.48-1.49-205.67-9.35-33.08-6.47-119.92-32.04-119.92-32.04l34.94-10.43s58.36 19.6 107.68 30.47c50.66 11.17 95.44 11.36 126.1 11.65 37.54.35 90.73-7.67 121.51-16.71 32.93-9.66 47.14-19.86 13.85-34.85-35.97-16.19-112.64-31.07-112.64-31.07s-72.09-12.85-105.08-24.15c-33-11.3-35.65-19.42-34.85-28.12.64-6.93 38.06-23.31 74.97-25.96 35.76-2.58 100.03-1.64 169.99 11.93 53.56 10.39 112.79 30.47 112.79 30.47Z"/></g><path d="m2676.74 4046.42 125.23-2.16s65.53 110.86 30.47 163.19c-35.07 52.33-93.32 21.76-157.54 50.85s-96.81 66.88-182.22 70.3c-85.4 3.43-121.46-31.5-111.55-77.48 9.91-45.98 41.1-39.47 116.14-96.3 75.03-56.84 179.47-108.4 179.47-108.4Zm299.89-17.59c13.47-79.1 179.35-95.71 155.36-14.97-29.82 100.35 7.38 242.85-42.97 332.58-50.35 89.73-90.22 71.49-129.36 64.22-39.13-7.28-92.76-47.72-74.51-134.83 18.26-87.12 79.89-178.92 91.48-247Z" fill="#4b4f9c"/><path d="M2356.55 3412.91c-46.51 61.32 53.22 120.59 134.03 119.97 121.84-.94 312.18-23.7 417.07-21.56 104.89 2.15 352.6 63.32 519.23 17.57 133.32-36.61 134.61-151.12 129.39-170.08-23.18-84.08-707.28 19.1-707.28 19.1l-221.05-31.06s-230.15 11.7-271.39 66.06Z" fill="#404387"/><path d="M2623.85 3340.17s29.82 687.21 40.42 713.76c10.6 26.56 137.38 19.73 142.76 6.25 5.88-14.73 29.36-93.81 47.58-225.66 13.23-95.81 30.58-202.78 36.82-271.02 14.82-162.16 2.25-194.57 2.25-194.57l-269.83-28.76Zm308.12-15.38s22.51 657.53 44.03 736.6c12.1 44.47 128.61 27.72 137.31 7.68 7.69-17.71 27.2-63.41 45.42-195.26 13.23-95.8 37.68-280.24 43.12-348.55 5.06-63.54-7.25-178.05-7.15-195.82.11-17.78-262.73-4.65-262.73-4.65Z" fill="#dc7bb8"/><path d="m3318.1 2064.75-53.13 155.35-82.91 63.84-429-7.4-146.79-321.92 711.83 110.13Z" fill="#2e3172"/><path d="M2558.35 2689.34s-211.67 639.05-216.18 760.08c-1.62 43.55 140.82-12.33 290.9-33.65 150.08-21.32 148.94-2.15 378.99 20.32 224.96 21.98 574.5-.04 543.55-81.92-13.43-35.51-28.7-92.77-48.43-149.39-93.76-269.11-164.85-499.38-251.39-710.48-86.55-211.11-72.92-147.06-94.79-133.94-21.87 13.12-445.19 214.16-445.19 214.16l-96.51-125.56-60.95 240.38Z" fill="#4b4f9c"/><path d="M2623.65 2504.48s-91.68 333.01-166.55 602.02c-48.6 174.62-95.72 325.73-87.02 329.5 21.09 9.14 65.51-9.14 138.51-27.51 73-18.37 145.3-9.56 157.04-30.16 15.03-26.38 93.37-823.57 93.37-823.57l-135.35-50.28Zm498.67-74.35s213.88 959.15 235.43 983.9c12.44 14.28 188.94-10.47 180.18-57.93-8.85-47.98-326.09-936.11-326.09-936.11l-89.52 10.14Z" fill="#7277dd"/><path d="M2621.44 2625.51c-38.85 102.29-91.09 292.16-138.88 459.33-38.97 136.34-78.2 258.75-78.21 296.56-.01 15.71 53.34 1.19 103.29-6.26 54.14-8.07 105.71-10.68 119.01-34.23 40.84-72.29 77.39-705.05 77.39-705.05s-12.07-196.05-82.6-10.35Z" fill="#8084ea"/><path d="M2898.02 2581.24c-1.1 24.06-67.84 749.32-38.11 793.38 14.02 20.79 72.9 21.11 145.88 28.17 107.71 10.44 128.67 2.6 137.17-10.18 15.76-23.71-91.86-841.98-91.86-841.98s-151.99 6.56-153.08 30.61Z" fill="#7277dd"/><path d="M2930.62 2584.28c-13.17 109.79-18.32 308.79-24.6 484.43-5.11 143.24-27.31 241.69-18.24 278.81 3.76 15.42 58.98 29.94 111.89 28.06 52.91-1.87 104.58 4.72 111.84-21.61 22.3-80.83-98.21-779.48-98.21-779.48s-58.77-189.53-82.68 9.79Zm214.61-129.41s191.6 872.54 217.49 932.25c17.82 41.11 166.11-3.22 159.09-37.36-12.52-60.9-312.34-879.48-319.28-904.71-6.93-25.23-44.32 7.59-44.32 7.59l-12.98 2.23Z" fill="#8084ea"/><path d="M2695.39 1849.73s-148.17 120.55-226.44 192.3c-78.27 71.75-131.12 147.33-133.9 272.21-1.49 67.15 208.69 173.11 208.69 173.11s74.35-244.52 121.19-332.85c46.84-88.33 10.32-46.65 41.44-119.4 31.12-72.75 13.34-191.73 13.34-191.73m342.29 38.45-61.87 161.71s92.11 41.53 132.91 80.54c32.38 30.96 25.34 34.74 70.33 79.76 45 45.02 87.33 69.11 87.33 69.11s-142.26 54.6-159.33 93.27c-17.07 38.67-36.73-45.53-60.97-22.66-24.25 22.86-104.37 17.42-98.17 88.78 6.97 80.06 148.98-8.23 151.08 15.58.38 4.34 33.84-15.93 62.38-10.65 32.78 6.07 62.21 8.42 114.7 8.96 52.48.54 173.94-20.48 198.04-57.19 36.08-54.93 15.68-122.95-17.28-200.54-29.52-69.47-81.46-132.91-131.77-194.78-34.33-42.22-94.85-80.18-123.6-115.56-44.65-54.94 40.82.93 40.82.93l-169.72-68.32-34.88 71.06Z" fill="#dc7bb8"/><path d="m2704.75 1847.43 79.92-20.14 28.87 146.37 164.55 6.98 4.63-12.29 48.96-129.57s15.32-13.87 37.62-10.28c22.31 3.59 57.09 18.26 57.09 18.26s-12.88 54.89-24.71 105.43c-8.07 34.47-15.31 63.99-12.66 83.53 2.98 21.98 45.88 79.85 67.13 109.9 9.85 13.93 32.03 42.39 32.03 42.39s-1.87 41.42-1.55 63.28c.28 19.31-7.99 74.63-7.99 74.63s-36.53 26.75-44.53 32.29c-35.11 24.31-67.28 14.69-67.28 14.69l59.23-193.12-114.1-116.55s-94.83-54.6-113.59-56.71c-20.43-2.3-82.86 3.98-132.22 11.12-49.36 7.14-65.75 15.6-65.75 15.6s1.73-46.24 1.92-92.5c.19-46.27 2.43-93.31 2.43-93.31Z" fill="#6064bd"/><path d="M2717.45 1870.58c2.32-11.26 56.24-17.64 56.05-10.05-.45 16.95 6.44 103.44 13.81 119.01 6.93 14.62 43.03 12.82 93.34 14.65 48.49 1.76 101.93 12.03 108.74-.7 3.33-6.22 13.39-35.87 27.86-72.18 14.46-36.31 20.64-64.42 27.49-71.84 2.73-2.96 16.49-2.73 32.05.24 15.55 2.96 31.66 7.9 31.22 13.04-.6 7.02-8.6 52.31-21.26 96.37-8.18 28.46-14.93 54.2-18.69 68.85-2.05 8.03-33.46 19.13-33.46 19.13l43.44 3.87 19.56 44.24s48.21 104.14 51.84 161.81c3.63 57.67-.84 71.63-.84 71.63l-23.92 28.53s14.96-46.44-.57-108.19c-15.53-61.75-22.05-85.25-59.8-131.35-37.74-46.09-114.28-92.12-173.13-99.32-58.84-7.21-138.78 5.36-138.78 5.36l-42.66 6.01s5.38-147.85 7.71-159.11Z" fill="#7277dd"/><path d="M2524.73 2309.84c0-169.88 142.42-307.59 318.11-307.59 175.68 0 318.1 137.71 318.1 307.59 0 169.88-142.42 307.59-318.1 307.59-175.69 0-318.11-137.71-318.11-307.59Z" fill="#9292a1"/><path d="M2554.97 2309.21c0-155.41 130.43-281.4 291.31-281.4 160.89 0 291.31 125.99 291.31 281.4 0 155.41-130.42 281.4-291.31 281.4-160.88 0-291.31-125.99-291.31-281.4Z" fill="url(#k)"/><g fill="#fff"><path d="M2764.37 2161.45s-26.46 20.29-31.74 43.59c-5.29 23.3-1.05 39.01 9.44 53.15 19.32 26.03 41.34 36.37 90.2 59.34 43.41 20.42 48.04 21.23 72.66 36.78 24.62 15.56 31.89 35.15 32.93 48.73.79 10.23-6.94 31.69-6.94 31.69s-13.71 24.57-20.52 25.45c-6.8.89-58.79-1.19-58.79-1.19s40.99-7.48 48.96-29.45c7.97-21.96 1.16-41.51-15.79-51.97-30.52-18.84-45.51-21.54-84.62-40.65-43.02-21.03-63.35-35.2-80.02-57.12-7.52-9.89-18.48-26.4-17.83-60.15.33-17.63 6.61-48.54 39.13-72.35 29.79-21.82 56.16-26.04 81.9-27.67 25.75-1.62 31.15 6.21 31.15 6.21l-90.12 35.61Z"/><path d="m2985.56 2184.85-15.27 20.89s-32.42-26.45-73.38-45.72c-23.75-11.18-88.31-19.3-105.53 4.67-10.97 15.28-18.35 34.74 25.06 63.6 34.33 22.82 97.17 48.21 129 69.88 38.41 26.16 42.49 55.03 42.03 77.44-.47 23.27-22.37 67.94-72.74 93.83-50.37 25.9-105.4 14.99-133.65 3.15-23.27-9.74-87.39-53.06-87.39-53.06l18.44-25.34s43.94 34.09 79.06 51.15c36.07 17.52 64.52 13.04 84.05 10.29 23.92-3.37 54.77-25.75 71.06-47.76 17.43-23.54 22.81-46.14-3.61-73.45-28.55-29.5-82.43-51.83-82.43-51.83s-50.24-18.66-75.17-38.39-29.49-36.2-32.08-54.24c-2.06-14.38 15.84-52.27 38.28-61.78 21.75-9.21 62.8-14.28 111.97 6.09 37.63 15.59 82.3 50.58 82.3 50.58Z"/></g><path d="M3007.73 1315.49c49.72 24.88 94.61 70.59 114.04 95.64 48.86 62.99 67.44 92.57 120.17 215.15 52.74 122.58 86.54 345.55 86.54 345.55s-7.62-9.69-31.94-28.33c-15-11.49-37.59-28.18-65.01-42.77-32.64-17.38-107.75-42.86-107.75-42.86s-1.15-3.03-4.86-4.9c-8.25-4.17-22.33-11.62-36.93-14.48-30.82-6.06-60.68 2.42-63.33 1.48-3.37-1.19-13.06-5.64-21.52-17.16-18.06-24.58-31.32-68.18-31.32-68.18l55.23-134.8s-12.83-61.97-14.69-68.81c-1.86-6.84-50.97-3.11-50.97-3.11l-32.32-22.37-72.73-48.49-45.38 18.65-46.61 10.57 4.65 113.68 53.15 109.47 23.61 54.37-20.67 42.54s8.9 5.42-21.17 14.24c-2.93.86-7.76 10.7-9.93 9.66-3.19-1.53-1.64-7.48-7.38-8.05-11.59-1.16-18.01-.94-31.9 1.52-16.89 3-17.66 3.28-38.35 8.55-5.95 1.51-6.04 6.81-6.04 6.81s-22.25 4.81-45.04 21.84c-25.77 19.25-55.28 44.49-55.28 44.49s.01-72.11 2.81-133.71c3.62-79.64 7.13-108.06 25.69-193.63 18.57-85.57 24.82-110.49 40.2-147.99 21.6-52.64 48.54-79.06 75.89-101.19 25.17-20.37 71.81-46.7 127.29-53.35 55.48-6.66 84.02-3.96 131.85 19.97Z" fill="#2e3172"/><path d="m3076.48 1490.1-42.66-5.94 20.4 77.43-28.59 177.77 38.54 54.7 182.12 37.3s28.59 3.64 33.6-10.76c11.91-34.25-25.3-155.93-79.07-262.02-53.78-106.09-93.17-151.97-123.44-181.61-18.47-18.09-70.99-53.71-91.37-60.42-19.75-6.51-40.7-15.48-83.01-12.81-42.31 2.68-78.63 12.51-104.08 27.38-37.41 21.87-59.61 40.12-77.22 61.79-17.61 21.66-37.9 56.63-62.14 147.69-24.24 91.06-36.1 225.49-36.1 225.49s-6.83 99.07 1.81 115.74c3.25 6.29 48.57-26.31 67.39-34.47 19.62-8.5 70.04-23.46 70.04-23.46s22.71-11.23 17.06-36.35c-8.19-36.48-47.03-101.11-56.11-162.05-12.86-86.36-2.13-114.8 3.04-139.56 3.45-16.55 11.34-44.98 16.45-48.97 3.17-2.48 51.81 44.75 54.55 40.72 2.75-4.04-28.53-50.49-21.01-54.77 2.06-1.17 23.4 15.14 47.48 25.39 24.59 10.47 50.16 17.92 51.89 14.9 3.3-5.74-48.54-41.38-44.07-42.33 8-1.71 65.17 33.28 75.32 32.64 3.83-.24-45.36-54.78-40.8-54.17 4.14.56 25.08 19.85 43.21 30.71 25.44 15.23 49.41 23.37 49.41 23.37l117.36 36.67Z" fill="#464ba8"/><path d="m3031.97 1481 26.91 6.72s25.15 51.33 20.69 110.28c-4.46 58.95-33.53 95.76-26.84 132.99 4.86 27.02 34.14 40.91 55.51 48.09 25.47 8.55 170.31-9.02 170.31-9.02s14.67 55.7-12.48 68.92c-27.15 13.22-106.32-1.88-106.32-1.88s-100.23-12.89-122.79-48.59c-26.28-41.59-23.61-60.59-17.77-85.77 5.84-25.17 16.4-65.89 24.84-109.15 8.01-41.06-12.06-112.59-12.06-112.59Z" fill="#383c85"/><path d="M3050.91 1465.06c-2.81 1.22-51.71-33.93-75.48-54.24-31.52-26.93-53.27-52-50.59-53.48 2.23-1.23 61.82 48.61 61.82 48.61s67.05 57.9 64.25 59.11Zm-183.6-109.17c-1.42 1.99 19.54 28.56 36.02 45.61 16.48 17.06 41.93 33.94 43.83 31.99 1.9-1.94-21.69-22.88-38.17-39.94s-40.27-39.65-41.68-37.66Z" fill="#2e3172"/><path d="M3071.5 1421.36s42.73 57.85 67.57 107.53c24.85 49.69 26.11 70.57 41.29 93.68 12.13 18.47 66.42 82.82 76.13 98.39 1.48 2.38-71.05-25.19-71.05-25.19l-61.53-66.02s-6.05-84.44-8.6-89.27c-2.55-4.83-43.81-119.12-43.81-119.12Z" fill="#383c85"/><path d="M2762.67 1371.77c6.5-7.16 17.67 15.91 26.13 29.07 8.45 13.16 29.88 36.06 29.88 36.06s-26.78-15.51-40.51-30.61c-9.99-10.99-22-27.37-15.5-34.52Zm79.45-13.33c-5.02 3.11 4.52 11.15 14.04 21.49 9.52 10.35 25.16 23.1 24.05 19.89 0 0-9.09-14.16-18.61-24.5-9.52-10.35-15.17-19.55-19.48-16.88Zm76.55 21.55c-4.15 4.76 6.97 16.04 24.93 34.51 17.95 18.48 58.31 40.53 58.31 40.53s-36.19-31.89-51.04-47.53c-14.86-15.64-28.05-32.27-32.2-27.51Zm76.35 9.54c2.46 5.02 21.92 27.06 34.27 35.14 12.35 8.08 20.53 9.3 11.96.51-8.57-8.78-48.69-40.67-46.23-35.65Zm77.94 106.76c1.67.52 16.19 35.83 19.64 65.18 3.45 29.35-7.42 63.4-8.36 102.37-.94 38.96 1.2 48.88 10.61 59.42 19.19 21.49 111.92 24.87 107.22 29.15-4.7 4.29-68.73 8.15-103.2-.41-34.47-8.57-34.53-21.45-36.05-36.14-1.53-14.68 11.19-49.41 15.99-85.03 4.81-35.62 8.57-37.82 7.11-71.45-1.47-33.63-14.63-63.61-12.96-63.09Z" fill="#4f53b3"/><path d="M2721.64 1420.89s-17.02 99.55-15.54 173.65c1.47 74.09 17.3 101.12 21.43 122.73 4.83 25.19 12.6 50.64.54 66.45-12.06 15.81-39.12 16.62-47.16 2.15-11.53-20.74-8.31-20.28-3.75-81.47 3.1-41.71-9.47-84.63-2.68-124.34 16.74-97.94 47.16-159.17 47.16-159.17Z" fill="#3d4193"/><path d="M3070.25 1419.03s32.49 56.17 51.15 104.16c18.65 47.99 23.93 84.85 36.27 113.14 15.54 35.63 98.78 84.57 98.66 84.72-3.04 3.64-133.53-14.2-145.11-47.4-7.47-21.43-1.08-80.26-9.24-138.16-8.17-57.89-31.73-116.46-31.73-116.46Z" fill="#2e3172"/><path d="m2939.79 1459.94 46.18 158.71-7.65 110.12s-13.96 33.82 6.62 4.85c16.64-23.42 39.79-78.15 46.96-136.51 7.17-58.37-10.03-113.25-10.03-113.25s-24.21-7.42-39.06-10.45c-16.44-3.36-43.02-13.47-43.02-13.47Z" fill="#dc7bb8" stroke="#d87ab7"/><path d="M2800.44 1979.04c8.44 5.64 168.58 11.25 178.56 7.28 4.81-1.91 27.13-73.8 27.13-73.8l28.77-72.76s-24.24-10.35-38.3-35.5c-14.06-25.15-18.91-61.8-17.93-65.1.99-3.29-53.6.09-53.6.09l-83.31 16.3-16.92 13.07s-1.56 33.15-10.41 53.18c-8.84 20.03-29.91 22.52-29.91 22.52s-.52 38.68 2.48 70.72c3 32.03 5.76 58.87 13.44 64Z" fill="#dc7bb8" stroke="#d87ab7"/><path d="M2832.6 1797.09c-4.79 3.86-2.78 20.01-13.44 33.9-10.65 13.89-22.74 12.87-25.68 18.9-2.94 6.02-1.57 17.37.22 42.35s3.69 45.77 23.86 60.81c24.05 17.94 153.48 23.33 162.73 14.24 6.31-6.21 9.66-22.04 20.68-54.33 11.02-32.3 14-37.03 11.73-46.1-1.68-6.74-28.01-7.38-45.56-21.17-14.04-11.04-22.82-40.45-31.01-43.31-9.33-3.25-33.14 7.17-59.56 5-26.42-2.16-38.1-15.02-43.97-10.29Z" fill="#fe9fdb"/><path d="M2811.19 1876.76c-3.54 2.24-6.89 55.34 14.57 65.16 32.96 15.07 145.19 19.54 155.85 14.81 10.67-4.72-71.03-14.37-113.18-33.72-42.16-19.36-50.34-50.59-57.24-46.25Z" fill="#ffb9e4"/><path d="M2747.88 1451.82s-11.41 34.84-15.91 68.69c-4.49 33.84.23 92.26 6.58 122.34 5.82 27.61 13.15 50.01 34.7 85.12 23.02 37.52 61.65 57.79 86.43 61.62 24.14 3.74 56.35.77 91-19.98s47.6-63.01 47.6-63.01 11.89-45.13 9.97-90.59c-1.91-45.46-6.83-58.41-11.71-79.56-3.77-16.38-19.74-64.92-19.74-64.92s-9.96-2.78-24.92-7.92c-14.97-5.15-34.95-12.65-34.95-12.65s9.64 11.15 7.16 12.37c-8.46 4.17-44.12-4.83-44.12-4.83s7.97 8.77 5.05 11.45c-2.17 1.99-21.28-.23-44.72-6.51-23.44-6.29-49.54-22.26-49.54-22.26s24.86 48.69 17.31 50.35c-6.94 1.53-60.19-39.71-60.19-39.71Z" fill="#fe9fdb"/><path d="M2753.14 1504.6s3.67 80.86 21.35 139.61c17.69 58.76 69.23 129.47 69.23 129.47s-68.12-46.19-90.05-114.57c-21.94-68.38-.53-154.51-.53-154.51Z" fill="#ffb9e4"/><path d="M3129.11 1907.18c-12.25 15.39-34.05 103.01-29.64 118.39 7.52 26.16 29.22 55.86 76 123.52 46.79 67.66 99.53 105.45 120.02 113.25 14.45 5.51 36.52 3.54 73.52 9.09 36.99 5.55 74.85 17.92 78.7 20.93 10.44 8.17-8.25-47.9-20.95-88.63-11.05-35.43-27.09-73.59-42.15-100.02-41.38-72.62-91.55-123.02-148.03-159.08-48.4-30.9-95.21-52.83-107.47-37.45Zm-435.34-34.27s-4.94 33.92-5.01 67.29c-.07 33.36.95 81.75.95 81.75s-50.73 15.45-94.98 64.69c-44.25 49.24-89.01 123.98-111.75 133.24-22.74 9.27-133.62 64.58-122.12 4.21 8.62-45.23 42.11-92.64 96.85-154.12 54.75-61.48 236.06-197.06 236.06-197.06Z" fill="#fe9fdb"/><path d="M3169.34 1978.23c29.05 26.64 33.76 72.06 85.78 138.8 52.02 66.74 127.58 116.48 127.58 116.48l-127.46-68.88s-98.42-104.65-116.32-154.17c-17.89-49.51 1.37-58.87 30.42-32.23Zm-534.77-39.36c19.29-12.95 33.69-10.44 24.07 8.57-9.61 19.01-38.07 39.72-56.06 62-22.09 27.37-64.16 89.03-64.16 89.03s14.35-55.84 39.43-97.28c25.07-41.43 37.43-49.38 56.72-62.32Z" fill="#ffb9e4"/><path d="M2493.56 2224.73c11.54 2.71 20.99 53.89 23.31 115.19 1.42 37.5 28.09 48.38 28.09 48.38l-25.35 43.49s-58.36-25.95-95.53-65.65c-37.18-39.69-41.44-56.04-42.98-82.01-.9-15.14 34.63-26.14 66.25-38.38 22.62-8.75 43.58-21.64 46.21-21.02Z" fill="#fe9fdb"/><path d="M3114.86 2471.06c43.11-.61 54.72-5.92 81.2-36.44 26.48-30.52 16.6-107.73 1.58-137.03-15.02-29.3-48.06-64.63-48.06-64.63s5.3 26.41 6.81 33.79c3.88 19.05 4.65 31.2-5.09 29.38-19.57-3.65-37.3-7.51-75.63-8.89-28.07-1.02-30.97 10.12-28 23.95 2.96 13.84 11.97 12.26-3.38 14.99-15.89 2.82-21.75 22.12-8.84 35.23 12.9 13.11 23.64 14.45 5.41 19.03-10.94 2.75-18.37 23.05-3.3 32.06 5 2.99 11.64 8.67 12.97 13.2 1.58 5.38-11.3 8.59-9.32 21.57 1.99 12.99 30.55 24.4 73.65 23.79Zm-508.26 30.03c-36.61 5.42-47.31 1.81-74.7-24.61-27.39-26.42-53.06-119.39-48.88-151.12 3.78-28.66 34.78-56.22 34.78-56.22s-5.51 65.56 2.44 62.41c15.98-6.34 22.75-14.94 54.98-21.66 23.62-4.92 64.97 2.11 69.15 19.57 3.27 13.68-14.01 15.43.97 21.67 9.1 3.79 19.47 15.95 10.68 30.69-8.79 14.73-12.73 15.71-3.81 22.35 8.91 6.63 14.89 19.66 10.33 28.35-4.56 8.69-8.45 10.18-8.84 14.84-.46 5.52 10.97 6.89 11.4 19.98.43 13.09-21.9 28.34-58.5 33.75Z" fill="#dc7bb8"/><path d="M2650.8 3504.21c-4.04-132.87 19.37 6.59 62.73 8.93 43.36 2.33 104.52-135.71 112.59-3.28 8.07 132.44-53.24 516.85-60.95 535.63-8.45 20.6-79.24 13.83-85.17-.61-7.54-18.32-24.06-371.9-29.2-540.67Zm309.44 16.47c-6.04-120.91 10.28 2.06 52.72 4.81 42.44 2.74 108.47-122.64 117.04 6.18 8.57 128.82-43.04 490.79-53.55 516.56-7.04 17.27-75.03 23.09-84.11-.38-9.31-24.03-10.21-155.26-17.4-289.32-4.86-90.71-12.1-185.72-14.7-237.85Z" fill="#fe9fdb"/><path d="M2402.2 4243.41c-9.16 29.23 16.51 55.83 69.77 53.96 53.27-1.86 74.16-16.07 134.91-56.75 60.75-40.67 131.03-148.82 131.03-148.82s-26.24 2.72-47.45-3.31c-21.21-6.03-35.69-17.79-35.69-17.79s-83.36 51.17-145.58 94.56c-62.22 43.39-97.84 48.93-106.99 78.15Z" fill="#7277dd"/><path d="M2981.83 4098.75s-54.16 105.24-61.22 176.98c-6.93 70.5 50.93 99.55 77.24 97.94 39.21-2.4 77.48-63.99 83.91-100.62 4.27-24.31 11.43-168.45 11.43-168.45s-28.22 13.61-55.42 12.87c-27.21-.73-55.94-18.72-55.94-18.72Z" fill="#7379e0"/><path d="M3053.49 2333.6c-16.13 1.43-24.74 19.52-3.26 30.12 21.48 10.61 46.97 15.5 70.37 13.38 23.39-2.12 29.08-11.16 23.22-21.85-5.86-10.7-71.1-23.36-90.33-21.65Zm4.08 50.82c-18.18 2.26-27.12 20.77-2.33 30.26 17.02 6.52 62.26 8.37 87.6 2 11.57-2.91 8.6-17.02 2.66-21.63-9.95-7.72-66.25-13.32-87.93-10.63Zm8.27 44.97c-17.83 4.18-24.74 23.54.92 30.33 25.65 6.8 56.14 11.07 80.81 1.15 18.64-7.49 13.07-22.53 4.72-27.38-10.88-6.33-65.18-9.1-86.45-4.1Zm5.8-133.83c-14.75.87-23.3 16.78-4.12 26.78 19.19 10.01 41.6 14.9 63.02 13.62 21.42-1.29 27.61-9.07 22.67-18.76-4.94-9.69-23.65-16.78-44.34-19.21-20.36-2.39-19.62-3.46-37.23-2.43Zm-528.3 33.33c-13.81 5.27-17.18 23.01 4.13 26.78 21.31 3.77 44.15 1.69 64.19-5.98s23.6-16.96 15.98-24.71c-7.63-7.75-37.21-6.58-46.99-5.5-14.21 1.57-20.83 3.13-37.31 9.41Zm19 49.03c-13.17 6.73-14.58 24.74 7.01 26.17 21.59 1.44 44.07-3.11 63.16-12.92 19.09-9.8 21.62-19.42 13.2-26.29-8.43-6.88-28.41-5.84-48.33.27-19.59 6.01-19.34 4.74-35.04 12.77Zm4.82 42.58c-13.81 5.26-17.18 23.01 4.13 26.78 21.31 3.77 44.15 1.69 64.19-5.99 20.04-7.67 23.6-16.95 15.98-24.71-7.63-7.75-27.6-8.89-48.07-4.97-20.13 3.85-19.75 2.61-36.23 8.89Zm0 42.68c-13.81 5.27-17.18 23.01 4.13 26.78 21.31 3.77 44.15 1.7 64.19-5.98 20.04-7.67 23.6-16.95 15.98-24.71-7.63-7.75-27.6-8.89-48.07-4.97-20.13 3.85-19.75 2.6-36.23 8.88Zm643.01-138.46s4.79 18.53 5.21 38.84c.42 20.3-3.53 42.39-3.53 42.39s92.45-56.37 158.57-70.71c66.12-14.33 103.94-15.97 72.21-32.47-15.78-8.2-47.51-15.95-79.54-18.8-32.37-2.88-81.06 4.14-81.06 4.14l-71.86 36.61Z" fill="#fe9fdb"/><path d="M3797.91 1981.08c-7.42 65.28 5.56 118.5 35.28 122.55 50.22 6.85 62.9-66.44 70.32-131.73 7.42-65.28.76-136.45-40.64-129.41-41.4 7.03-57.54 73.3-64.96 138.59Z" fill="#7ec9cf"/><path d="M1592.99 1471.5c7.14 6.04 19.96 143.16-9.42 216.97-29.38 73.81-116.32 78.77-123.46 72.72-7.14-6.04 60.23-25.82 94.89-96.9 41.86-85.87 30.85-198.84 37.99-192.79Z" fill="#ffb9e4"/><path d="M1644.45 2299.79c45.97-46.17 25.55-289.6-9.38-315.25-40.09-29.44-19.59 105.15-126.28 129.51-106.7 24.36-216.06-5.11-278.72 4.59-62.66 9.71 404.93 190.64 414.38 181.15Z" fill="#8084ea"/><path d="M841.199 2198.65c8.407 13.7 161.251 305.68 220.431 355.61 39.55 33.37-92.654-6.31-170.505-109.68-77.852-103.36-138.682-281.98-138.682-281.98s80.35 22.36 88.756 36.05Z" fill="#ffb9e4"/><path d="M1420.66 3322.19c-69.17 12.62-169.15 20.4-156.09 66.16 13.05 45.77 230.89 29.76 271.89.58 41.01-29.18-46.63-79.36-115.8-66.74Z" fill="#777dc8"/><path d="M509.831 2799.43c0-94.45 49.475-171.01 110.505-171.01 61.03 0 110.505 76.56 110.505 171.01 0 94.44-49.475 171-110.505 171-61.03 0-110.505-76.56-110.505-171Z" fill="#edb3e8"/><path d="M2073.04 2686.86c-28.19-15.07-75.61-37.83-97.54-5.96-17.69 25.71 1.15 50.79 1.15 50.79s-38.06-14.69-53.19 22.31c-9.98 24.4 16 46.74 16 46.74s-29.19 3.91-34.8 20.03c-12.64 36.28 27.14 50.63 27.14 50.63s-29.25-2.48-35.3 23.85c-9.27 40.37 91.16 76.5 148.32 76.32 11.98-.04 28.72-2.46 39-23.64 8.22-16.94-5.7-30.18-5.7-30.18s19.57-11.88 24.64-25.09c5.06-13.22-2.53-31.95-2.53-31.95s21.27-12.8 27.08-29.65c5.82-16.86-3.82-37.77-3.82-37.77s13.96-3.23 20.21-22.55c6.25-19.31 8.98-41.31-70.66-83.88Z" fill="#da7ab7"/><path d="M1075.25 1886.68c-39.77-12.97-237.639 120.55-241.315 182.55-2.897 48.86 98.733 97.5 159.061 51.86 60.324-45.64 122.014-221.45 82.254-234.41Z" fill="#8084ea"/><path d="M2018.61 2745.62c-29.86-18.42-41.12-35.02-28.89-53.8 12.23-18.78 54.97-.78 81.9 13.77 26.94 14.55 40.72 20.87 49.64 33.23 4.08 5.65 16.89 15.18 8.83 32.04-7.88 16.51-27.5 19.95-38.58 15.35-19.13-7.96-58.66-31.81-72.9-40.59Z" fill="#fe9fdb"/><path d="M1997.67 2817.4c-40.57-16.04-71.25-37.59-61.29-58.01 18.34-37.61 126.57 11.44 155.13 23.85 12.76 5.54 34.63 21.65 23.13 47.72-16.93 38.38-64.89 7.04-116.97-13.56Z" fill="#fe9fdb"/><path d="M2030.19 2904.09c-19.3-7.93-95.74-34.18-108.42-51.02-12.67-16.83-2.9-34.52 8.96-39.11 21.46-8.3 98.39 16.47 142 33.09 12.92 4.93 26.93 33.08 14.52 49.71-9.29 12.45-35.78 16.08-57.06 7.33Z" fill="#fe9fdb"/><path d="M1949.7 2937.91c-37.99-19.95-47.75-37.73-30.57-52.48 17.89-15.36 94.35 2.24 132.34 22.19 37.99 19.94 19.03 47.48-2 52.19-21.03 4.72-61.78-1.96-99.77-21.9Z" fill="#fe9fdb"/><path d="M962.737 4348.91s-31.997 22.74-84.337 26.03c-52.34 3.29-116.293-6.07-116.293-6.07s89.358 89.7 175.843 137.38c86.49 47.67 121.29 58.87 170.1 53.32 48.8-5.56 62.24-43.4 46.2-70.41-19.11-32.17-55.37-41.6-100.68-71.58-45.31-29.99-90.833-68.67-90.833-68.67Zm555.863-84.46s-34.8 16.31-69.81 25.19c-35.01 8.88-81.67 3.75-81.67 3.75s86.97 133.58 171.94 172.2c84.96 38.63 163.1 46.97 215.67 34.74 52.58-12.24 32.2-75.18-40.43-102.31-67.36-25.16-195.7-133.57-195.7-133.57Z" fill="#4b4f9c"/><path d="M3766.65 1270.94c206.63 170.38 556.62 399.39 591.65 350.76 35.03-48.63-227.41-443.97-434.04-614.35-206.64-170.379-357.46-115.789-392.5-67.16-35.03 48.628 28.25 160.37 234.89 330.75Z" fill="#001d56"/><path d="M2557.9 355.509c-101.02 111.505-125.79 214.993-111.9 273.83 73.19 310.013 227.19-118.331 414.54-199.828 79.87-34.741 114.45 7.732 198.16-23.808s-16.47-102.251 136.69-102.351c153.17-.099 463.08 54.716 482.89 47.506 19.8-7.209-147.91-104.005-311.14-153.276-155.65-46.984-339.22-37.659-373.84-35.114-70.94 5.212-136.96 17.337-136.96 17.337s3.73 108.412-67.57 145.376c-54.9 28.46-186.92-18.178-230.87 30.328Z" fill="#6b74ab"/><path d="m2314.39 721.618 490.65-109.616m-.01-.002c-60.12 10.121-120.24 20.301-180.41 30.156-16.17 2.65-32.34 5.358-48.53 7.938-20.08 3.2-40.14 6.455-60.25 9.468-9.73 1.46-19.47 2.919-29.22 4.313-6.5.93-13.03 1.729-19.53 2.687-3.24.479-6.49.987-9.71 1.563-3.23.576-6.42 1.342-9.63 1.969-3.21.627-6.46 1.163-9.69 1.687-3.89.631-7.78 1.107-11.68 1.657-6.5.915-13.01 1.878-19.47 3-12.91 2.239-25.77 4.728-38.63 7.218-19.93 3.859-39.82 7.884-59.72 11.906-14.39 3.217-23.46 17.48-20.25 31.876 3.22 14.395 17.51 23.466 31.91 20.25 20.35-4.984 40.69-10.006 61-15.157 12.06-3.059 24.12-6.112 36.12-9.406 6.33-1.737 12.61-3.625 18.88-5.563 3.76-1.162 7.52-2.415 11.31-3.5 3.15-.9 6.3-1.793 9.47-2.593 3.17-.8 6.4-1.463 9.56-2.313 3.16-.85 6.31-1.772 9.44-2.718 6.29-1.898 12.53-3.95 18.81-5.876 9.41-2.885 18.85-5.676 28.28-8.5 19.48-5.83 39.03-11.444 58.57-17.093 15.74-4.555 31.54-8.982 47.31-13.469 58.64-16.687 117.35-33.072 176.06-49.5Z" fill="#fff"/><g fill="#fff"><path d="m1612.37 1126.25 29.99-31.23 186.77-194.504"/><path d="M1829.12 900.531c-28.6 25.118-57.15 50.272-85.93 75.188-7.73 6.693-15.44 13.425-23.22 20.062-9.67 8.249-19.27 16.529-29.06 24.629-4.63 3.83-9.28 7.67-13.94 11.47-3.3 2.68-6.69 5.26-9.97 7.96-1.63 1.34-3.26 2.7-4.81 4.13-1.55 1.43-2.96 3-4.5 4.44-1.54 1.43-3.14 2.87-4.75 4.21-4.89 4.09-9.94 7.91-14.69 12.16-15.48 13.85-30.29 28.47-45.16 42.97-10.21 10.64-9.86 27.56.79 37.78 10.63 10.22 27.53 9.86 37.74-.78 13.89-15.44 27.92-30.81 41.13-46.84 4.05-4.92 7.65-10.14 11.53-15.19 1.28-1.67 2.66-3.31 4.03-4.91 1.38-1.59 2.89-3.08 4.25-4.69 1.37-1.6 2.67-3.29 3.94-4.96 2.57-3.39 4.98-6.88 7.53-10.28 3.6-4.81 7.27-9.6 10.91-14.38 7.69-10.11 15.59-20.07 23.44-30.06 6.53-8.32 13.15-16.574 19.74-24.846 23.51-29.49 47.29-58.74 71-88.063Z"/></g></g></svg>