<svg stroke-miterlimit="10" style="fill-rule:nonzero;clip-rule:evenodd;stroke-linecap:round;stroke-linejoin:round" viewBox="0 0 5000 5000" xml:space="preserve" xmlns="http://www.w3.org/2000/svg" xmlns:vectornator="http://vectornator.io"><defs><linearGradient gradientUnits="userSpaceOnUse" id="a" x1="2873.13" x2="3224.43" y1="3472.27" y2="3472.27"><stop offset="0" stop-color="#575fdf"/><stop offset="1" stop-color="#3fc1bf"/></linearGradient><linearGradient gradientUnits="userSpaceOnUse" id="b" x1="1958.71" x2="2461.98" y1="3398.84" y2="3398.84"><stop offset="0" stop-color="#626bf9"/><stop offset="1" stop-color="#3fc1bf"/></linearGradient><linearGradient gradientUnits="userSpaceOnUse" id="c" x1="2513.96" x2="2628.66" y1="2255.61" y2="2255.61"><stop offset="0" stop-color="#626bf9"/><stop offset="1" stop-color="#71add5"/></linearGradient><linearGradient gradientUnits="userSpaceOnUse" id="d" x1="2580.04" x2="2726.29" y1="2240.14" y2="2240.14"><stop offset="0" stop-color="#626bf9"/><stop offset="1" stop-color="#71add5"/></linearGradient><linearGradient gradientUnits="userSpaceOnUse" id="e" x1="2425.49" x2="2546.4" y1="2230.36" y2="2230.36"><stop offset="0" stop-color="#626bf9"/><stop offset="1" stop-color="#71add5"/></linearGradient><linearGradient gradientUnits="userSpaceOnUse" id="f" x1="2516.3" x2="2624.93" y1="2147.72" y2="2147.72"><stop offset="0" stop-color="#626bf9"/><stop offset="1" stop-color="#71add5"/></linearGradient><linearGradient gradientUnits="userSpaceOnUse" id="g" x1="2472.19" x2="2684.69" y1="2076.01" y2="2076.01"><stop offset="0" stop-color="#626bf9"/><stop offset="1" stop-color="#71add5"/></linearGradient><linearGradient gradientUnits="userSpaceOnUse" id="h" x1="2635.73" x2="2726.83" y1="2139.41" y2="2139.41"><stop offset="0" stop-color="#626bf9"/><stop offset="1" stop-color="#71add5"/></linearGradient><linearGradient gradientUnits="userSpaceOnUse" id="i" x1="2427.77" x2="2520.23" y1="2112.65" y2="2112.65"><stop offset="0" stop-color="#626bf9"/><stop offset="1" stop-color="#71add5"/></linearGradient><linearGradient gradientTransform="matrix(1.35395 -.3978 .38134 1.37853 -2149.06 693.593)" gradientUnits="userSpaceOnUse" id="j" x1="2513.96" x2="2628.66" y1="2255.61" y2="2255.61"><stop offset="0" stop-color="#626bf9"/><stop offset="1" stop-color="#71add5"/></linearGradient><linearGradient gradientTransform="matrix(1.35395 -.3978 .38134 1.37853 -2149.06 693.593)" gradientUnits="userSpaceOnUse" id="k" x1="2580.04" x2="2726.29" y1="2240.14" y2="2240.14"><stop offset="0" stop-color="#626bf9"/><stop offset="1" stop-color="#71add5"/></linearGradient><linearGradient gradientTransform="matrix(1.35395 -.3978 .38134 1.37853 -2149.06 693.593)" gradientUnits="userSpaceOnUse" id="l" x1="2425.49" x2="2546.4" y1="2230.36" y2="2230.36"><stop offset="0" stop-color="#626bf9"/><stop offset="1" stop-color="#71add5"/></linearGradient><linearGradient gradientTransform="matrix(1.35395 -.3978 .38134 1.37853 -2149.06 693.593)" gradientUnits="userSpaceOnUse" id="m" x1="2516.3" x2="2624.93" y1="2147.72" y2="2147.72"><stop offset="0" stop-color="#626bf9"/><stop offset="1" stop-color="#71add5"/></linearGradient><linearGradient gradientTransform="matrix(1.35395 -.3978 .38134 1.37853 -2149.06 693.593)" gradientUnits="userSpaceOnUse" id="n" x1="2472.19" x2="2684.69" y1="2076.01" y2="2076.01"><stop offset="0" stop-color="#626bf9"/><stop offset="1" stop-color="#71add5"/></linearGradient><linearGradient gradientTransform="matrix(1.35395 -.3978 .38134 1.37853 -2149.06 693.593)" gradientUnits="userSpaceOnUse" id="o" x1="2635.73" x2="2726.83" y1="2139.41" y2="2139.41"><stop offset="0" stop-color="#626bf9"/><stop offset="1" stop-color="#71add5"/></linearGradient><linearGradient gradientTransform="matrix(1.35395 -.3978 .38134 1.37853 -2149.06 693.593)" gradientUnits="userSpaceOnUse" id="p" x1="2427.77" x2="2520.23" y1="2112.65" y2="2112.65"><stop offset="0" stop-color="#626bf9"/><stop offset="1" stop-color="#71add5"/></linearGradient><linearGradient gradientTransform="matrix(1.4098 .06244 -.08597 1.42772 -781.17 287.574)" gradientUnits="userSpaceOnUse" id="q" x1="2513.96" x2="2628.66" y1="2255.61" y2="2255.61"><stop offset="0" stop-color="#626bf9"/><stop offset="1" stop-color="#71add5"/></linearGradient><linearGradient gradientTransform="matrix(1.4098 .06244 -.08597 1.42772 -781.17 287.574)" gradientUnits="userSpaceOnUse" id="r" x1="2580.04" x2="2726.29" y1="2240.14" y2="2240.14"><stop offset="0" stop-color="#626bf9"/><stop offset="1" stop-color="#71add5"/></linearGradient><linearGradient gradientTransform="matrix(1.4098 .06244 -.08597 1.42772 -781.17 287.574)" gradientUnits="userSpaceOnUse" id="s" x1="2425.49" x2="2546.4" y1="2230.36" y2="2230.36"><stop offset="0" stop-color="#626bf9"/><stop offset="1" stop-color="#71add5"/></linearGradient><linearGradient gradientTransform="matrix(1.4098 .06244 -.08597 1.42772 -781.17 287.574)" gradientUnits="userSpaceOnUse" id="t" x1="2516.3" x2="2624.93" y1="2147.72" y2="2147.72"><stop offset="0" stop-color="#626bf9"/><stop offset="1" stop-color="#71add5"/></linearGradient><linearGradient gradientTransform="matrix(1.4098 .06244 -.08597 1.42772 -781.17 287.574)" gradientUnits="userSpaceOnUse" id="u" x1="2472.19" x2="2684.69" y1="2076.01" y2="2076.01"><stop offset="0" stop-color="#626bf9"/><stop offset="1" stop-color="#71add5"/></linearGradient><linearGradient gradientTransform="matrix(1.4098 .06244 -.08597 1.42772 -781.17 287.574)" gradientUnits="userSpaceOnUse" id="v" x1="2635.73" x2="2726.83" y1="2139.41" y2="2139.41"><stop offset="0" stop-color="#626bf9"/><stop offset="1" stop-color="#71add5"/></linearGradient><linearGradient gradientTransform="matrix(1.4098 .06244 -.08597 1.42772 -781.17 287.574)" gradientUnits="userSpaceOnUse" id="w" x1="2427.77" x2="2520.23" y1="2112.65" y2="2112.65"><stop offset="0" stop-color="#626bf9"/><stop offset="1" stop-color="#71add5"/></linearGradient></defs><g vectornator:layerName="Слой 2"><path d="M269.547 869.759c53.782-182.948 33.856-306.468 97.051-395.235 78.64-110.46 219.696-179.138 420.394-265.083C1157.05 50.9734 1613.53 74.8723 1901.2 57.3044c287.68-17.568 338.63 442.6436 710.43 227.2026 392.15-227.2321 432.46-209.0903 871.96-200.9503 232.51 4.3065 974.51-73.1928 1171.85 339.9563 76.76 160.698-214.29 660.117-231.69 1055.247-13.46 305.77 268.61 383.96 317.76 697.07 18.15 115.57-3.46 206.86-24.77 285.36-36.44 134.18-92.55 226.33-96.41 304.94-27.14 553.94 244.23 843.89-117.54 1389.13-451.87 681.01-1421.18 744.54-1504.63 770.9-83.45 26.35-1039.98-115.3-1039.98-115.3s-1165.325 64.73-1366.633-86.64c-159.975-120.29-246.451-208.98-295.279-353.18-39.012-115.22-55.073-266.91-57.444-490.86-5.338-504.24 615.291-738.9 397.658-1200.79-289.799-615.06-534.555-1239.44-366.935-1809.631Z" fill="#030303"/><path d="M241.382 3785.07c31.105-383.63 353.183-508.35 402.964-833.72 44.981-294-141.009-498.48-286.129-841.19C131.421 1574.55-18.5241 849.566 315.49 501.14c597.783-623.576 102.18 778.43 533.545 1064.06 431.365 285.62 560.525 32.14 795.185 154.36 258.22 134.5-713.714 680.44-442.54 1019.21 271.18 338.76 1657.52-91.23 1527.25 335.85-16.66 54.62 89.83 788.03 356.39 1192.71 266.56 404.67 495.78 221.58 818.06 297.79 265.16 62.72-371.31 335.55-952.95 367.89-427.12 23.74-914.49-86.33-1249.84-88.3-574.45-3.38-973.269 4.75-1136.825-140.83-76.531-68.11 717.785-216.9 978.595-526.36 147-174.43-139.9-150.97-186.28-356.68-46.38-205.72 61.39-435.7.77-466.18-217.49-109.35-1119.68 482.36-1115.468 430.41ZM4423.84 1477.81s-716.44 663.71-720.95 863.49c-4.51 199.79 564.67-171.16 692.98-40.06 128.32 131.11 37.75 388.43-27.02 552.52-68.3 173.02-360.37 594.88-312.42 641.56 137.68 134.04 432.61-320.11 482.09-473.25 36.88-114.17 259.94-641.48 227.88-875.04-28.04-204.29-168.42-244.83-260.37-412.59-91.94-167.76-82.19-256.63-82.19-256.63Z" fill="#7ec9cf"/><path d="M3338.99 1135.4c-232.61 300.79-428.23 505.99-311.04 615.46 180.42 168.54 815.97-327.46 937.2-476.31 131.62-161.61 298.27-1.67 445.5-171.42 79.09-91.19 354.21-404.532 248.35-669.466-105.86-264.934-357.3-327.798-611.55-343.7752-152-9.5519-138.27 456.4072-272.16 732.5032-90.06 185.728-320.38 163.114-436.3 313.008ZM240.368 3959.42s-2.003 179.54 22.194 297.56c24.196 118.02 69.113 196.86 69.113 196.86s1116.165-366.93 680.975-493.65c-331.028-96.39-772.282-.77-772.282-.77Z" fill="#6c74ab"/><path d="M3911.15 4204.51c-372.72 234.61-163.38-286.05-752.07-71.37-610.58 222.67-713.99-679.88-1107.69-1262.37-302.78-447.95 1865.4 308.65 1678.44 445.16-348.52 254.48-2275.47-388.9-2217.13 280.42 25.75 295.35 948.47 109.01 792.63 407.53-135.92 260.36-1480.122 736.87-1245.4 828.63 103.58 40.49 646.03-190.65 1119.45-231.03 256.78-21.9 127 170.17 564.51 191.66 437.5 21.49 697.25 140.58 1185.51-105.69 228.07-115.04 572.49-406.76 674.97-632.13 160.6-353.23 58.67-754.44 45.58-860.62-21.46-173.93-366.08 775.2-738.8 1009.81Z" fill="#001d56"/><path d="M1376.88 2505.46s506.38 210.42 703.4 121.57c197.03-88.84 20.6-471.22 20.6-471.22s413.27 217.17 445.85 184.59c0 0 257.62-48.51 313.33-105.98 60.95-62.89 180.04-242.74 180.04-242.74s-184.35 560.83-13.64 648.73c170.7 87.9 586.82-351.71 586.82-351.71s-271.31 330.88-252.32 527.57c18.99 196.69 631.41 197.18 631.41 197.18s-604.86 100.17-667.74 234.91c-54.12 115.95 527.91 544.92 527.91 544.92l-633.19-19.69s-810.54-14.96-1225.57 20.59c-442.57 37.92-658.13 142.49-658.13 142.49s542.59-354.73 498.42-527.46c-44.16-172.72-655.82-212.05-655.82-212.05s604.34-44.52 627.6-213.94c23.26-169.42-428.97-477.76-428.97-477.76Z" fill="#c8cff7"/><path d="M2226.23 2351.46s21.72 262.28-99.15 345.77c-120.88 83.48-384.34-11.83-384.34-11.83s218.6 206.26 183.49 344.88c-35.12 138.62-401.7 180.52-401.7 180.52s399.32 47.94 444.92 183.05c45.59 135.1-419.5 414.41-419.5 414.41l820.91-74.14s470.06 31.44 513.85 2.95c43.8-28.48 706.79-63.56 706.79-63.56s-425.71-294.58-424.58-437.29c1.13-142.71 429.67-226.28 429.67-226.28s-457.93-28.11-607.64-213.56c-149.71-185.44-113.8-499.03-113.8-499.03s-149.7 241.03-310.78 262.59c-161.07 21.56-338.14-208.48-338.14-208.48Z" fill="#f8f9ff"/><path d="M2941.41 2130.71c1.69.27 27.24 3.39 56.26 6.92 39.9 4.85 86.37 10.46 86.37 10.46l84.75 98.13-131.48-7.13s-99.9-109-95.9-108.38Z" fill="#ffb9e4"/><path d="m2941.43 2130.55 95.23 105.61-76.59 152.72-101.87-110.31 83.23-148.02Z" fill="#de7bb7"/><path d="m3036.24 2235.94 132.6 10.24-64.67 145.01-144.06-2.45 76.13-152.8Z" fill="#b75390"/><path d="m2977.67 2170.67-81.78 145.66 25.41 28.64 82.49-148.22-26.12-26.08Z" fill="#c396e5"/><path d="m3077.73 2239.07-63.17 150.53 37.74-.83 64.47-146.74-39.04-2.96Z" fill="#a178c0"/><path d="m2999 2137.8 78.55 101.37 39.27 3.02-77.07-99.99-40.75-4.4Z" fill="#c396e5"/><path d="m2977.54 2170.62 25.26 27.8h59.74l36.42-.01-35.17-26.53-86.25-1.26Z" fill="#d0acec"/><path d="M3024.19 2077.83c1.92-.85 28.59 14.67 31.27 37.65 2.16 18.54-1 47.91-1 47.91s11.81 7.47 10.92 4.24c-.17-.62 3.44-.71 4.01-2.08 2.43-5.76 8.49.66 8.49.66s6.51-40.21 3.62-61.22c-2.89-21-24.6-32.93-24.6-32.93l-6.02-1.1-19.81-1.61s-8.79 9.32-6.88 8.48Zm64.73 99.91s34.93 1.96 47.69-7.19c16.4-11.76 30.87-30.72 30.87-30.72l11.43 9.4s-10.66 36.83-36.08 47.86c-25.42 11.02-65.83-4.23-65.83-4.23l11.92-15.12Z" fill="#a178c0"/><path d="M3057.49 2072.37s-2.09-.51-5.27-.8c-7.61-.7-21.47-.14-27.58 11.76-10.17 19.79 4 45.36 18.34 63.43 8.64 10.89 22.99 22.46 22.99 22.46l-7.77 11.19s-32.1-13.98-48.63-37.26c-9.57-13.47-22.44-37.03-17.69-56.09 4.74-19.06 13.99-27.19 24.21-28.35 14.32-1.62 41.4 13.66 41.4 13.66Zm19.24 96.06s7.32-24.58 26.14-37.65c18.83-13.06 37.14-15.69 49.79-12.57 12.65 3.11 26.25 31.03 26.25 31.03s-8.46-6.59-19.93-8.18c-11.81-1.64-26.74 1.78-34.17 5.5-14.64 7.33-39.53 37.64-39.53 37.64l-8.55-15.77Z" fill="#d0acec"/><path d="M3049.01 2163.54c3.87-8.04 16-9.01 27.09-2.17 11.08 6.84 16.92 18.89 13.05 26.93-3.88 8.03-16 9-27.09 2.17-11.08-6.84-16.93-18.9-13.05-26.93Z" fill="#c396e5"/><path d="M2586.64 2980.02c1.69.26 27.24 3.38 56.26 6.91 39.9 4.85 86.37 10.46 86.37 10.46l84.75 98.13-131.49-7.12s-99.89-109.01-95.89-108.38Z" fill="#ffb9e4"/><path d="m2586.65 2979.85 95.24 105.61-76.59 152.72-101.87-110.31 83.22-148.02Z" fill="#de7bb7"/><path d="m2681.47 3085.24 132.59 10.24-64.66 145.01-144.06-2.44 76.13-152.81Z" fill="#b75390"/><path d="m2622.9 3019.97-81.78 145.67 25.41 28.63 82.49-148.22-26.12-26.08Z" fill="#c396e5"/><path d="m2722.96 3088.38-63.17 150.52 37.74-.83 64.47-146.74-39.04-2.95Z" fill="#a178c0"/><path d="m2644.23 2987.1 78.55 101.37 39.27 3.02-77.07-99.99-40.75-4.4Z" fill="#c396e5"/><path d="m2622.77 3019.92 25.26 27.81 59.74-.01 36.42-.01-35.17-26.53-86.25-1.26Z" fill="#d0acec"/><path d="M2669.42 2927.13c1.92-.84 28.59 14.67 31.27 37.65 2.15 18.55-1.01 47.91-1.01 47.91s11.82 7.47 10.93 4.24c-.17-.62 3.43-.71 4.01-2.08 2.43-5.76 8.48.66 8.48.66s6.52-40.21 3.63-61.21c-2.89-21.01-24.6-32.94-24.6-32.94l-6.02-1.1-19.81-1.61s-8.8 9.33-6.88 8.48Zm64.73 99.91s34.92 1.97 47.69-7.18c16.4-11.77 30.87-30.73 30.87-30.73l11.43 9.4s-10.66 36.83-36.08 47.86c-25.42 11.03-65.84-4.23-65.84-4.23l11.93-15.12Z" fill="#a178c0"/><path d="M2702.72 2921.67s-2.1-.51-5.27-.8c-7.62-.7-21.47-.14-27.58 11.76-10.18 19.8 3.99 45.36 18.34 63.43 8.64 10.9 22.99 22.46 22.99 22.46l-7.77 11.19s-32.1-13.98-48.64-37.26c-9.56-13.46-22.43-37.03-17.68-56.09 4.74-19.06 13.98-27.19 24.2-28.35 14.33-1.62 41.41 13.66 41.41 13.66Zm19.24 96.06s7.31-24.58 26.14-37.65c18.83-13.06 37.14-15.69 49.79-12.57 12.64 3.11 26.25 31.03 26.25 31.03s-8.46-6.59-19.93-8.18c-11.81-1.64-26.74 1.78-34.17 5.5-14.64 7.33-39.53 37.64-39.53 37.64l-8.55-15.77Z" fill="#d0acec"/><path d="M2694.24 3012.84c3.87-8.03 16-9.01 27.08-2.17 11.09 6.84 16.93 18.89 13.06 26.93-3.88 8.03-16.01 9.01-27.09 2.17-11.08-6.84-16.93-18.89-13.05-26.93Z" fill="#c396e5"/><path d="M1731.65 2930.63c1.2-1.21 18.76-20.03 38.69-41.41 27.41-29.41 59.29-63.68 59.29-63.68l129.22-10.77-83.15 102.11s-146.92 16.62-144.05 13.75Z" fill="#ffb9e4"/><path d="m1731.52 2930.52 141.43-14.85 78.4 151.81-149.13 17.44-70.7-154.4Z" fill="#de7bb7"/><path d="m1872.52 2915.89 86.32-101.18 79.18 137.61-86.75 115.04-78.75-151.47Z" fill="#b75390"/><path d="m1785.29 2924.83 69.64 151.84 38.11-3.69-71.3-153.92-36.45 5.77Z" fill="#c396e5"/><path d="m1899.48 2884.19 84.53 139.65 21.53-31-80.7-138.48-25.36 29.83Z" fill="#a178c0"/><path d="m1771.26 2888.24 128.19-3.85 25.55-29.97-126.2 3.47-27.54 30.35Z" fill="#c396e5"/><path d="m1785.17 2924.91 37.35-4.07 35.15-48.3 21.42-29.45-42.14 12.83-51.78 68.99Z" fill="#d0acec"/><path d="M1737.6 2832.58c.45-2.05 28.69-14.48 48.85-3.12 16.26 9.17 38.14 29 38.14 29s12.99-5.15 9.85-6.34c-.6-.22 1.45-3.19.68-4.46-3.22-5.36 5.53-6.47 5.53-6.47s-28.67-28.93-47.36-38.96c-18.68-10.02-41.11.51-41.11.51l-4.43 4.22-12.95 15.07s2.36 12.6 2.8 10.55Zm118.87 6.46s22.15-27.08 22.26-42.78c.14-20.18-6.67-43.04-6.67-43.04l14.32-3.72s23.51 30.3 17.46 57.34c-6.04 27.05-42.16 50.75-42.16 50.75l-5.21-18.55Z" fill="#a178c0"/><path d="M1752.78 2802.45s-1.64 1.39-3.74 3.78c-5.05 5.75-12.75 17.28-6.73 29.23 10.02 19.87 39.03 23.46 62.08 22.5 13.9-.58 31.69-5.37 31.69-5.37l4.47 12.86s-30.19 17.73-58.74 17.4c-16.52-.2-43.14-3.65-55.76-18.71-12.62-15.05-13.75-27.31-8.68-36.25 7.12-12.54 35.41-25.44 35.41-25.44Zm88.99 40.97s-15.57-20.38-15.05-43.29c.51-22.91 9.17-39.26 19.13-47.65 9.96-8.39 40.54-2.96 40.54-2.96s-10.31 2.96-18.34 11.29c-8.28 8.59-14.3 22.67-15.67 30.87-2.68 16.15 7.17 54.1 7.17 54.1l-17.78-2.36Z" fill="#d0acec"/><path d="M1821.5 2862.96c-4.21-7.86 2.14-18.24 14.19-23.18 12.05-4.94 25.24-2.57 29.45 5.29 4.22 7.87-2.13 18.24-14.18 23.18-12.05 4.94-25.24 2.57-29.46-5.29Z" fill="#c396e5"/><path d="M3667.32 1312.71c1.2-1.2 18.77-20.03 38.69-41.41 27.41-29.41 59.29-63.68 59.29-63.68l129.22-10.77-83.14 102.11s-146.93 16.62-144.06 13.75Z" fill="#ffb9e4"/><path d="m3667.19 1312.6 141.43-14.85 78.4 151.81-149.13 17.44-70.7-154.4Z" fill="#de7bb7"/><path d="m3808.2 1297.97 86.31-101.18 79.19 137.61-86.76 115.04-78.74-151.47Z" fill="#b75390"/><path d="m3720.96 1306.91 69.65 151.84 38.1-3.69-71.29-153.92-36.46 5.77Z" fill="#c396e5"/><path d="m3835.15 1266.27 84.53 139.65 21.53-31-80.7-138.48-25.36 29.83Z" fill="#a178c0"/><path d="m3706.94 1270.32 128.18-3.85 25.55-29.97-126.2 3.47-27.53 30.35Z" fill="#c396e5"/><path d="m3720.85 1306.99 37.34-4.06 35.15-48.31 21.42-29.45-42.14 12.83-51.77 68.99Z" fill="#d0acec"/><path d="M3673.28 1214.66c.44-2.05 28.68-14.48 48.84-3.12 16.26 9.17 38.14 29 38.14 29s12.99-5.15 9.86-6.34c-.6-.22 1.44-3.19.68-4.46-3.23-5.36 5.53-6.47 5.53-6.47s-28.68-28.93-47.36-38.95c-18.69-10.03-41.11.5-41.11.5l-4.44 4.22-12.95 15.07s2.36 12.6 2.81 10.55Zm118.87 6.46s22.14-27.08 22.25-42.78c.14-20.18-6.67-43.04-6.67-43.04l14.32-3.72s23.51 30.3 17.47 57.34c-6.05 27.05-42.16 50.75-42.16 50.75l-5.21-18.55Z" fill="#a178c0"/><path d="M3688.45 1184.53s-1.64 1.39-3.74 3.78c-5.05 5.75-12.75 17.28-6.73 29.23 10.02 19.87 39.03 23.46 62.08 22.5 13.9-.58 31.69-5.37 31.69-5.37l4.47 12.86s-30.19 17.73-58.74 17.4c-16.51-.19-43.14-3.65-55.76-18.71-12.62-15.05-13.75-27.31-8.67-36.25 7.12-12.54 35.4-25.44 35.4-25.44Zm89 40.97s-15.58-20.38-15.06-43.29c.52-22.91 9.17-39.26 19.13-47.65 9.96-8.39 40.54-2.96 40.54-2.96s-10.31 2.96-18.34 11.29c-8.28 8.59-14.3 22.67-15.66 30.87-2.69 16.15 7.16 54.11 7.16 54.11l-17.77-2.37Z" fill="#d0acec"/><path d="M3757.18 1245.04c-4.22-7.86 2.13-18.24 14.18-23.18 12.05-4.94 25.24-2.57 29.46 5.29 4.21 7.87-2.14 18.24-14.19 23.18-12.05 4.94-25.24 2.57-29.45-5.29Z" fill="#c396e5"/><path d="M988.278 1408.91c1.206-1.2 18.762-20.02 38.692-41.41 27.41-29.41 59.29-63.68 59.29-63.68l129.22-10.77-83.14 102.11s-146.927 16.62-144.062 13.75Z" fill="#ffb9e4"/><path d="m988.149 1408.8 141.431-14.85 78.4 151.81-149.13 17.44-70.701-154.4Z" fill="#de7bb7"/><path d="m1129.16 1394.17 86.31-101.18 79.19 137.61-86.76 115.04-78.74-151.47Z" fill="#b75390"/><path d="m1041.92 1403.12 69.64 151.83 38.11-3.69-71.3-153.92-36.45 5.78Z" fill="#c396e5"/><path d="m1156.11 1362.47 84.53 139.65 21.53-31-80.7-138.48-25.36 29.83Z" fill="#a178c0"/><path d="m1027.89 1366.52 128.19-3.85 25.55-29.97-126.2 3.47-27.54 30.35Z" fill="#c396e5"/><path d="m1041.8 1403.19 37.35-4.06 35.15-48.31 21.42-29.45-42.14 12.83-51.78 68.99Z" fill="#d0acec"/><path d="M994.236 1310.86c.446-2.04 28.684-14.48 48.844-3.12 16.26 9.17 38.14 29 38.14 29s12.99-5.15 9.86-6.34c-.61-.22 1.44-3.19.68-4.46-3.23-5.35 5.52-6.47 5.52-6.47s-28.67-28.93-47.36-38.95c-18.68-10.03-41.1.5-41.1.5l-4.44 4.22-12.953 15.07s2.363 12.6 2.809 10.55Zm118.864 6.46s22.15-27.07 22.26-42.78c.14-20.18-6.67-43.04-6.67-43.04l14.32-3.71s23.51 30.29 17.46 57.34c-6.04 27.04-42.16 50.74-42.16 50.74l-5.21-18.55Z" fill="#a178c0"/><path d="M1009.41 1280.73s-1.64 1.39-3.74 3.79c-5.05 5.74-12.75 17.28-6.727 29.22 10.017 19.87 39.027 23.46 62.077 22.5 13.9-.58 31.69-5.37 31.69-5.37l4.47 12.86s-30.19 17.73-58.74 17.4c-16.51-.19-43.14-3.65-55.759-18.71-12.619-15.05-13.754-27.31-8.675-36.25 7.119-12.54 35.404-25.44 35.404-25.44Zm88.99 40.97s-15.57-20.38-15.05-43.29c.52-22.91 9.17-39.26 19.13-47.65 9.96-8.39 40.54-2.96 40.54-2.96s-10.31 2.96-18.34 11.29c-8.28 8.59-14.3 22.67-15.66 30.87-2.69 16.15 7.16 54.11 7.16 54.11l-17.78-2.37Z" fill="#d0acec"/><path d="M1078.14 1341.24c-4.22-7.86 2.13-18.24 14.18-23.18 12.05-4.94 25.24-2.57 29.45 5.3 4.22 7.86-2.13 18.23-14.18 23.17-12.05 4.94-25.24 2.57-29.45-5.29Z" fill="#c396e5"/><path d="M2895.61 3275.76s-6.14 28.3-23.81 51.83c-17.67 23.54-34.78 40.8-34.78 40.8s-2.92 62.33 21.15 140.73c24.07 78.41 69.19 172.6 69.19 172.6l157.83 11.03s62.06-59.02 104.2-110.85c42.13-51.83 80.85-103.21 80.85-103.21s-19.01-18.01-20.68-44.01c-1.68-26 11.93-58.6 11.93-58.6s-79.57-74.21-169.18-101.69c-107.2-32.87-196.7 1.37-196.7 1.37Z" fill="#494ea1"/><path d="M2920.57 3308.58s-7.05 19.12-18.91 36.16c-11.86 17.03-28.53 31.98-28.53 31.98s.58 86.8 23.73 152c23.15 65.2 50.56 116.87 50.56 116.87l138.54.4s36.28-31.79 73.51-79.53c37.24-47.74 64.67-92.21 64.67-92.21s-6.77-24.51-9.68-40.65c-2.9-16.14 8.84-43.14 8.84-43.14s-27.25-50.11-159.79-85.3c-71.84-19.08-142.94 3.42-142.94 3.42Z" fill="url(#a)"/><path d="m2094.42 3640.9-105.28-254.73-154.84-74.45 249.61-102.71 27.84-100.66 93.01 49.5 273.98-102.08-65.04 158.65 85.78 218.51 6.86 150.29s-39.59 70.57-77.71 130.38c-38.12 59.81-324.99-14.88-324.99-14.88l-9.22-57.82Z" fill="#494ea1"/><path d="m1958.71 3309.3 170.57-66.26 7.42-76.31 68.23 43.68 81.65-34.02 104.39-43.5-28.88 86.43 99.54 249.87s3.37 56.57-10.6 95.32c-13.96 38.76-84.73 91.48-84.73 91.48l-222.43-21.19-115.45-285.46-69.71-40.04Z" fill="url(#b)"/><path d="m2574.41 3675.66 1.65 959.9 688.95-23.13-3.31-720.34-459.3 28.09-227.99-244.52Z" fill="#6372c0"/><path d="m2574.41 3675.66 1.65 959.9 688.95-23.13-3.31-720.34-459.3 28.09-227.99-244.52Z" fill="#4b4e9c"/><path d="M1885.53 3892.72v731.52l687.97-17.42-10.45-917.88-677.52 203.78Z" fill="#7a88d4"/><path d="m1877.55 3669.33-204.73 213.14 135.36 19.77 435.5-.56 121.52-29.46 180.1-185.57-667.75-17.32Z" fill="#8d9ded"/><path d="m2538.61 3671.73 595.93-17.63 127.51-1.19 248.02 222.23-692.32 19.69-279.14-223.1Z" fill="#7987ce"/><path d="M1624.18 3877.16h726.44c4.5 0 8.16 3.66 8.16 8.16v36.25c0 4.5-3.66 8.16-8.16 8.16h-726.44c-4.51 0-8.16-3.66-8.16-8.16v-36.25c0-4.5 3.65-8.16 8.16-8.16Z" fill="#5563ac"/><path d="M1867.66 3917.03h36.46c4.5 0 8.16 3.75 8.16 8.38v709.35c0 4.63-3.66 8.38-8.16 8.38h-36.46c-4.51 0-8.16-3.75-8.16-8.38v-709.35c0-4.63 3.65-8.38 8.16-8.38Z" fill="#5563ac"/><path d="M1867.48 4598.63h1399.93c4.5 0 8.16 3.65 8.16 8.16v35.1c0 4.51-3.66 8.16-8.16 8.16H1867.48c-4.51 0-8.16-3.65-8.16-8.16v-35.1c0-4.51 3.65-8.16 8.16-8.16Z" fill="#5563ac"/><path d="M2549.81 3648.6h32.33c3.52 0 6.38 3.65 6.38 8.16v976.42c0 4.51-2.86 8.16-6.38 8.16h-32.33c-3.52 0-6.37-3.65-6.37-8.16v-976.42c0-4.51 2.85-8.16 6.37-8.16Zm681.13 268.69h36.46c4.5 0 8.16 3.75 8.16 8.37v709.36c0 4.63-3.66 8.38-8.16 8.38h-36.46c-4.51 0-8.16-3.75-8.16-8.38v-709.36c0-4.62 3.65-8.37 8.16-8.37Zm-1612.67-37.78 240.16-244.69c2.88-2.93 8.02-3.33 11.48-.9l34.69 24.37c3.46 2.43 3.94 6.78 1.06 9.71l-240.16 244.69c-2.87 2.93-8.01 3.34-11.48.9l-34.69-24.37c-3.46-2.43-3.94-6.78-1.06-9.71Z" fill="#5563ac"/><path d="M2807.98 3875.36h726.44c4.51 0 8.16 3.65 8.16 8.16v36.24c0 4.51-3.65 8.16-8.16 8.16h-726.44c-4.5 0-8.16-3.65-8.16-8.16v-36.24c0-4.51 3.66-8.16 8.16-8.16Z" fill="#5563ac"/><path d="m2802.43 3925.8-269.18-212.36c-3.22-2.54-4.18-7.61-2.13-11.31l20.48-37.12c2.05-3.7 6.32-4.65 9.54-2.1l269.18 212.35c3.22 2.54 4.18 7.61 2.13 11.32l-20.48 37.11c-2.05 3.71-6.32 4.65-9.54 2.11Z" fill="#5563ac"/><path d="m2310.11 3893.87 240.16-244.68c2.87-2.94 8.02-3.34 11.48-.9l34.69 24.36c3.46 2.44 3.94 6.79 1.06 9.72l-240.16 244.69c-2.87 2.93-8.01 3.33-11.48.9l-34.69-24.37c-3.46-2.44-3.94-6.78-1.06-9.72Zm1198.43 32.22-294.39-242.37c-3.42-2.8-.77-4.3 1.39-8.38l27.44-36.79c2.16-4.09 6.69-5.13 10.1-2.33l284.99 234.14c3.41 2.81 4.42 8.4 2.26 12.48l-21.69 40.92c-2.16 4.09-6.69 5.13-10.1 2.33Z" fill="#5563ac"/><path d="M2449.31 2529.2s8.09-57.37 45.21-84.1c37.12-26.73 103.27-22.81 103.27-22.81l3.12 54.35s-39.59-.99-62.28 20.45c-22.69 21.45-30.18 50.89-30.18 50.89l-59.14-18.78Z" fill="#71add5"/><path d="M3799.41 1018.99c3.13-14.61 147.33-324.578 221.21-430.575 96.89-139.011 258.55-232.812 338.78-263.84 76.02-29.396 171.08 9.768 135.87 73.668-35.21 63.9-131.71 85.809-251.43 180.485-119.71 94.676-129.1 106.674-236.82 215.956-107.72 109.282-210.74 238.906-207.61 224.306Zm62.32 13.52c14.27-17.32 218.87-184.24 218.87-184.24s90.1-72.655 190.76-98.259c100.65-25.605 215.47 4.649 214.72 35.541-1.19 48.674-165.08 60.983-282.66 97.696-117.58 36.712-355.96 166.582-341.69 149.262Zm-343.99 837.45c11.31-16.29 66.4-161.87 156.69-253.8 90.29-91.93 247.56-144.39 280.34-95.38 28.44 42.51-123.67 109.54-216.01 174.95-92.33 65.42-232.34 190.52-221.02 174.23Zm-2002.33 150.15c-7.73-16.29-45.4-161.87-107.12-253.8-61.72-91.93-169.24-144.39-191.65-95.38-19.44 42.52 84.54 109.54 147.67 174.96 63.12 65.41 158.83 190.51 151.1 174.22Zm2504.31 123.63s165.73-153.21 288.29-199.33c122.56-46.12 253.62-70.53 246.02-11.29-7.91 61.63-110.1 63.39-216.92 90.43-106.82 27.05-317.39 120.19-317.39 120.19Zm-229.8 131.32s121.8-191.57 205.89-276.84c84.09-85.27 143.16-124.04 190.23-131.99 47.07-7.95 98.69 14.87-1.96 100.18-11.64 9.87-72.59 39.58-138.5 88.98-114.21 85.58-255.66 219.67-255.66 219.67Zm136.55 42.57s145.74-130.93 255.8-173.04c110.06-42.1 198.55-51.71 193.45-3.61-5.1 48.1-115.82 53.82-225.88 95.93-110.06 42.1-223.37 80.72-223.37 80.72Zm-2833.15-19.04s-159.147-150.3-276.835-195.54c-117.688-45.25-243.548-69.19-236.248-11.08 7.596 60.46 105.728 62.18 208.305 88.71 102.577 26.53 304.778 117.91 304.778 117.91Zm220.66 128.82s-116.95-187.93-197.7-271.58c-80.75-83.65-137.475-121.67-182.673-129.48-45.199-7.8-94.768 14.59 1.877 98.28 11.185 9.68 69.706 38.83 133.006 87.28 109.67 83.96 245.49 215.5 245.49 215.5Zm-131.12 41.76s-139.95-128.44-245.636-169.75c-105.684-41.3-190.656-50.73-185.761-3.54 4.894 47.19 111.219 52.8 216.903 94.1 105.684 41.31 214.494 79.19 214.494 79.19Z" fill="#e3e6fe"/><path d="m3264.32 2210.67 14.96 124.19-109.45 51.6 114.49 5.13 14.82 130.65 40.8-129.35 103.29 55.35-67.81-104.83 64.06-84.19-104.99 48.56-70.17-97.11ZM3438 962.642l-48.45 59.838-71.86-30.484 48.93 56.964-51.37 62.51 75.67-35.35 21.63 72.91 16.2-76.92 66.03-5.05-68.51-29.65 11.73-74.768ZM1635.17 1157.02l14.09 109.69-103.06 45.58 107.8 4.53 13.96 115.39 38.41-114.24 97.27 48.88-63.86-92.59 60.33-74.36-98.87 42.89-66.07-85.77Z" fill="#fff"/><path d="m2548.87 2567.62 1.82 100.31-99.42 30.83 98.69 14.82 1.12 105.43 46.93-99.18 84.49 53.76-49.32-89.84 63.03-61.04-95.28 28.83-52.06-83.92Zm765.01 417.44-71.83 70.04-90.57-51.29 56.82 82.04-76.04 73.05 104.41-33.77 18.72 98.38 31.65-97.48 87.65 4.1-86.28-49.66 25.47-95.41Zm-124.62-1166.97 67.48 10.69s-4.91-48.67 13.88-82.83c18.78-34.15 61.27-53.79 61.27-53.79l-2.82-49.13s-57.56 24.25-92.52 68.02c-34.95 43.77-47.29 107.04-47.29 107.04Zm105.86-401.99 74.07-9.8s-19.28-37.19-9.79-71.01c9.49-33.82 47.75-64.28 47.75-64.28l-26.94-34.89s-57.69 32.75-78.97 77.74c-21.27 45-6.12 102.24-6.12 102.24Z" fill="#f5f0bd"/><path d="m3431.39 2062.58-19.53 60.19s58.61 37.18 89.18 64.99c30.58 27.81 65.05 105.5 65.05 105.5l39.87-72.79s-28.13-58.75-71.77-98.22c-43.64-39.48-102.8-59.67-102.8-59.67Z" fill="#71add5"/><path d="m3533.88 2630.66 66.62-58.38s36.22 33.65 52.19 81.73c15.97 48.07 21.29 106.44 11.67 110.56-9.61 4.12-48.75 43.27-48.75 43.27s7.38-73.83-13.05-118.12c-20.43-44.3-68.68-59.06-68.68-59.06Zm366.93 742.89 66.62-58.37s36.22 33.65 52.19 81.72c15.97 48.08 21.29 106.45 11.67 110.57-9.61 4.12-48.76 43.26-48.76 43.26s7.39-73.82-13.04-118.12c-20.43-44.29-68.68-59.06-68.68-59.06Z" fill="#ffb9e4"/><path d="m3739.97 2536.92 62.99 47.56s10.99-54.73 41.84-80.76c30.85-26.03 81.58-23.37 81.58-23.37l7.71-82.27s-75.83 16.61-124.36 51.32-69.76 87.52-69.76 87.52Zm371.86 253.75-36.84 69.94s63.84 48.39 121.13 31.84c57.29-16.55 108.02-98.03 108.02-98.03l-43.71-56.19s-37.77 49.95-74.93 63.06c-37.15 13.11-73.67-10.62-73.67-10.62ZM632.333 1258.88l-36.839 69.93s63.844 48.39 121.132 31.84c57.288-16.54 108.019-98.03 108.019-98.03l-43.707-56.19s-37.775 49.95-74.927 63.06c-37.151 13.11-73.678-10.61-73.678-10.61Z" fill="#f5f0bd"/><path d="m3580.91 3164.77 79.41 3.84s-65.32 40.67-80.69 85.81c-15.37 45.15 19.21 94.78 19.21 94.78l-73 5.13s-20.17-75.57-6.41-122.96c13.77-47.39 61.48-66.6 61.48-66.6Zm300.12 698.7 47.09 64.06s-72.75-25.05-117.48-8.51c-44.73 16.54-61.44 74.68-61.44 74.68l-50.02-53.43s45.93-63.31 91.39-82.51c45.46-19.2 90.46 5.71 90.46 5.71Zm-603.18-1149.36 71.5-36.34s45.71 60.95 30.47 135.97c-15.24 75.02-101.97 86.74-101.97 86.74s42.78-59.49 30.47-105.49c-12.31-46.01-30.47-80.88-30.47-80.88Z" fill="#71add5"/><path d="m2925.21 3017.01-36.98 62.08s43.41 3.7 75.17 23.95c31.75 20.26 51.84 57.07 51.84 57.07l47.12-42.99s-20.68-34.4-54.97-59.43c-34.29-25.02-82.18-40.68-82.18-40.68Zm-753.43 24.09 65.04 27.88s-7.15-54.15 27.44-80.74c34.59-26.58 110.91-25.61 110.91-25.61l-37.17-51.62s-65.82-4.65-107.37 27.88c-41.56 32.52-58.85 102.21-58.85 102.21Z" fill="#ffb9e4"/><path d="m1912.63 2006.35-90.82 58.41s19.63 55.17 59.99 83.19c40.35 28.03 101.42 28.91 101.42 28.91l30.56-47.79s-60.81-10.79-86.09-41.47c-25.29-30.68-15.06-81.25-15.06-81.25Z" fill="#71add5"/><path d="m1620.62 1618.96-23.24 79.42s58.37-10.91 91.95.24c33.58 11.14 75.59 81.17 75.59 81.17l28.39-54.77s-24.21-52.3-67.39-78.82c-43.17-26.51-105.3-27.24-105.3-27.24Z" fill="#f5f0bd"/><path d="m1463.07 3491.44 48.18-75.36s8.21 71.12 42.01 101.51c33.8 30.4 93.19 20.08 93.19 20.08l-38.54 77.44s-55.46-3.97-91.67-34.88c-36.21-30.92-53.17-88.79-53.17-88.79Zm-82.45-1275.67-56.98 80.65s72.13 59.76 138.62 57.91c66.48-1.86 127.31-65.33 127.31-65.33l-48.19-62.07s-42.88 38.14-83.07 35.35c-40.19-2.79-77.69-46.51-77.69-46.51Zm2816.19-1063.51-56.98 80.65s72.14 59.77 138.62 57.91c66.48-1.86 127.31-65.33 127.31-65.33l-48.19-62.07s-42.88 38.14-83.07 35.35c-40.19-2.79-77.69-46.51-77.69-46.51Z" fill="#ffb9e4"/><path d="m1443.72 2803.8 77.01 19.25s-56.14 43.24-82.18 86.56c-26.03 43.32-21.96 86.71-21.96 86.71l-49.01 9.62s-14.33-72.79 4.7-123.32c19.04-50.54 71.44-78.82 71.44-78.82Z" fill="#71add5"/><path d="m1033.59 2657.38-41.272 68.82s71.102-4.92 116.362 29.36c45.26 34.28 64.68 107.75 64.68 107.75l41.43-56.83s-29.74-94.02-79.88-123.95c-50.14-29.92-101.32-25.15-101.32-25.15Zm55.28 774.54 49.71 105.38s25.74-84.43 71.53-110.48c45.79-26.04 108.52-15.14 108.52-15.14l-4.95-59.96s-78.17-10.54-134.37 9.51c-56.2 20.05-90.44 70.69-90.44 70.69Z" fill="#f5f0bd"/><path d="M3873.45 550.242c-24.56-14.671-69.15-2.423-101.36 92.638-41.27 121.787-61.17 395.37-61.17 395.37s152.02-304.01 171.94-384.456c16.07-64.936 12.92-90.21-9.41-103.552ZM1292.5 1115c-3.17-13.94-149.12-309.763-223.89-410.923-98.066-132.669-261.693-222.191-342.902-251.802-76.939-28.055-173.152 9.322-137.514 70.306 35.638 60.985 133.311 81.894 254.48 172.251 121.168 90.356 130.671 101.807 239.696 206.103C1191.4 1005.23 1295.67 1128.94 1292.5 1115Zm-63.08 12.91c-14.44-16.53-221.52-175.834-221.52-175.834s-91.198-69.34-193.076-93.776c-101.877-24.437-218.086 4.437-217.326 33.919 1.198 46.454 167.085 58.201 286.09 93.239 119.002 35.042 360.272 158.982 345.832 142.452Zm-11.86-460.265c24.86-14.001 69.99-2.312 102.59 88.412 41.78 116.23 61.91 377.333 61.91 377.333s-153.86-290.141-174.02-366.917c-16.27-61.973-13.08-86.095 9.52-98.828Z" fill="#e3e6fe"/><path d="m2174.46 2166.03-10.9 37.76s86.65 116 195.53 163.9c83.2 36.61 178.04 42.44 286.2 18.31 108.17-24.14 234.63-172.23 234.63-172.23l-80.97-181.95-487.12-24.26-104.47 44.4-32.9 114.07" fill="#4c4f9d"/><path d="M2213.96 2126.89c-18.91 46.6-28.87 100.64-28.87 100.64s22.78 39.58 74.14 77.57c12.07 8.93 47.62 34.08 47.62 34.08s22.7-147.35 22.79-181.61c.1-34.26-22.43-46.9-41.04-52.94-25.16-8.17-59.61-14.77-74.64 22.26Z" fill="#6064bd"/><path d="M2361.7 2200.24c-10.74 56.52-21.7 158.22-21.7 158.22s46.94 25.51 96.84 34.57c48.29 8.77 58.33 6.45 58.33 6.45s5.66-216.72-14.69-233.33c-20.35-16.61-25.84-10.2-60.72-12.34-34.89-2.15-52.17 15.45-58.06 46.43Z" fill="#8083ea"/><path d="m2515.55 2157.9 30.5 242.42s45.99 1.32 87.69-9.58c41.71-10.9 79.12-34.03 79.12-34.03l-47.01-202.99-83.5-20.87-66.8 25.05Z" fill="#6064bd"/><path d="M2753.38 2331s-61.06-174.46-61.71-201.87c-.64-27.41 80.03-75.7 98.48-58.04 22.57 21.61 73.59 159.77 73.59 159.77s-26.86 30.25-55.27 55.66c-28.41 25.4-55.09 44.48-55.09 44.48Z" fill="#8083ea"/><path d="m2278.11 2353.99 9.04-3.04c4.23-1.42 8.81.86 10.23 5.09 1.42 4.23-.86 8.81-5.09 10.23l-9.03 3.03c-4.23 1.42-8.81-.86-10.23-5.08-1.42-4.23.85-8.81 5.08-10.23Zm-11.54-31.53 9.03-3.04c4.23-1.42 8.81.86 10.23 5.09 1.42 4.23-.85 8.81-5.08 10.23l-9.04 3.03c-4.23 1.42-8.81-.86-10.23-5.08-1.42-4.23.86-8.81 5.09-10.23Z" fill="#f5f0bd"/><path d="m2270.23 2364.1-9.64-30.95c-1.34-4.3 1.06-8.88 5.36-10.22l2.79-.87c4.31-1.34 8.88 1.06 10.22 5.37l9.64 30.95c1.34 4.3-1.06 8.87-5.36 10.21l-2.79.87c-4.3 1.34-8.88-1.06-10.22-5.36Z" fill="#f5f0bd"/><path d="m2239.76 2347.8 31.18-8.86c4.33-1.24 8.85 1.28 10.08 5.61l.8 2.82c1.23 4.33-1.29 8.85-5.62 10.08l-31.18 8.86c-4.34 1.23-8.85-1.28-10.08-5.62l-.8-2.81c-1.23-4.34 1.28-8.85 5.62-10.08Zm-50.83-108.27 31.18-8.86c4.33-1.24 8.85 1.28 10.08 5.61l.8 2.82c1.23 4.33-1.29 8.84-5.62 10.08l-31.18 8.86c-4.34 1.23-8.85-1.28-10.08-5.62l-.8-2.81c-1.23-4.34 1.28-8.85 5.62-10.08Z" fill="#f5f0bd"/><path d="m2189.91 2195.61 3.05-.98c4.29-1.38 8.89.99 10.26 5.28l55.79 174.2c1.37 4.29-.99 8.88-5.28 10.26l-3.05.97c-4.3 1.38-8.89-.99-10.26-5.28l-55.79-174.19c-1.38-4.3.99-8.89 5.28-10.26Z" fill="#f5f0bd"/><path d="M2098.81 2151.23c0-41.17 34.09-74.54 76.14-74.54s76.13 33.37 76.13 74.54c0 41.16-34.08 74.53-76.13 74.53s-76.14-33.37-76.14-74.53Z" fill="#f5f0bd"/><path d="m2825.99 1837.61 94.55-37.82s82.68-35.67 99.16-88.56c16.49-52.89-10.2-127.8-18-173.04-7.8-45.24-40.48-79.42-40.48-79.42l-104.96 146.22-57.63 127.65 27.36 104.97Zm-759.56-397.4c-46.12-7.93-112.16 156.23-102.38 238.3 9.59 80.55 41.33 110.28 81.12 135.69 26.53 16.94 120.82 48.75 120.82 48.75l-27.9-121.5s-25.54-293.31-71.66-301.24Z" fill="#2f3172"/><path d="M1996.28 1571.58s-16.16 51.81-16.08 79.52c.09 27.71 4.98 61.34 19.83 93.25 18.49 39.71 82.06 65.86 82.06 65.86l63.26 27.32-51.54-201.63-97.53-64.32Zm850.03 226.48s104.38-24.75 137.18-75.64c32.81-50.89-6.36-173.07-6.36-173.07l-40.41-7.05-76.03 136.12-14.38 119.64Z" fill="#3a3d87"/><path d="M2254.76 894.966c-13.36 20.324-57.57 110.794-80.95 174.414-15.62 42.53-42.38 110.92-60.28 185.06-17.92 74.25 48.82 168.23 48.82 168.23s170.34-2.12 183.43-7.93c13.08-5.82 103.06-67.55 103.06-67.55l-38.67-111.76-63.93-182.7-14.3-46.15 74.54 24.22 97.42-43.617s73.43-1.454 85.06-.727c11.63.727 44.35 53.074 44.35 53.074l-13.09 153.39-67.61 97.42s34.17 109.05 51.62 114.86c17.44 5.82 159.15 17.83 159.15 17.83l68.47-154.05 38.23-113.97s-35.36-66.85-69.97-126.31c-34.61-59.457-48.67-86.755-68.25-119.891-23.25-39.365-74.69-89.836-108.58-111.083-35.51-22.261-58.86-35.096-107.51-42.934-31.24-5.033-106.53 7.967-139.08 23.128-35.46 16.52-80.53 54.074-121.93 117.046Z" fill="#2f3172"/><path d="M2177.38 1112.55c-22.8 60.71-42.6 122.57-42.6 122.57s-20.48 154.47 39.93 153.66c23.82-.31 113.73-4.4 151.18-28.42 37.45-24.03 24.7-47.97 20.7-59.71-4.43-13-23.13-42.33-39.78-92.07-16.65-49.74-17.94-115.77-17.94-115.77s-3.26-58.22 2.84-91.29c6.11-33.065 11.75-57.232 17.81-59.749 13.74-5.704 62.56 42.887 64.13 37.238 2.15-7.743-28.7-53.151-22.1-57.58 6.41-4.304 106.13 44.581 113.46 38.356 6.29-5.33-61.25-55.935-61.25-55.935l91.6 34.72-70.84-54.4s57.35 35.232 120.86 55.056c44.66 13.939 98.27 21.053 127.45 25.455 12.33 1.858 22.07 5.178 22.07 5.178s-7.42-.405-15.06.64c-4.93.673-10.94 1.518-11.82 4.895-6.09 23.299 5.75 81.766 3.58 131.206-2.97 67.73-22.06 158.52-22.06 158.52l130.68 97.05 80.16-192.38-75.37-128.92-66.72-122.586s-26.37-43.423-68.1-78.358c-41.73-34.935-72.49-52.126-109.01-63.185-41.94-12.702-70.27-8.26-97.66-2.456-27.4 5.804-72.57 18.391-96.17 39.156-46.01 40.488-89.04 100.718-113.83 157.608-24.79 56.891-33.35 80.791-56.14 141.501Z" fill="#454ca9"/><path d="M2447.7 833.539s24.64 35.157 44.96 52.166c18.8 15.739 53.03 37.03 48.92 33.288-4.11-3.743-93.88-85.454-93.88-85.454Zm66.58.351c1.66 3.465 44.69 51.939 44.69 51.939 26.28 25.049 26.12 22.61 40.02 33.088 8.95 6.751 56.9 31.696 60.86 31.824 3.97.127-37.74-30.507-72.81-58.591-35.08-28.085-67.48-53.747-67.48-53.747m261.76 289.007c.57 15.47 25.06 91.63 43.73 128.02 18.67 36.4 26.51 28.39 30.94 17.55 4.44-10.85-19.15-63.64-19.15-63.64s-56.1-97.4-55.52-81.93Zm-98.43-225.419c-3.61 15.049 20.06 65.466 32.7 121.319 12.64 55.85 13.71 76.83 17.26 82.74 7.22 12.04 8.46-9.62 8.43-52.07-.03-42.45-56.58-159.515-58.39-151.989Z" fill="#2f3372"/><path d="m2653.46 966.633 24.86 3.808s7 121.459 9.34 150.759c5.17 64.64 5.02 110.87 13.89 128.86 9.9 20.06 99.45 70.27 99.45 70.27s-14.72 38.59-22.16 51.51c-11.3 19.61-128.3-43.13-132.75-83.53-4.45-40.4 4.41-88.38 10.17-131.67 5.55-41.59 6.54-63.77 5.22-116.07-1.32-52.309-8.02-73.937-8.02-73.937Zm-378.49-55.319c-3.11 8.436-6.42 116.846-2.27 196.206 4.15 79.36 31.32 178.5 18.15 212.61-13.18 34.11-32.9 45.91-51.96 45.07-19.07-.84-35.08-18.24-33.73-47.12 1.35-28.88 20.24-58.31 24.52-77.58 4.17-18.79 2.68-54.01 5.83-112.36 3.16-58.35 2-87.02 12.68-136.265 10.69-49.248 29.88-88.996 26.78-80.561Z" fill="#3a3d87"/><path d="M2497.32 851.435s5.22 9.661 20.61 27.043c15.39 17.382 23.38 27.219 40.94 42.485 17.56 15.266 31.46 22.864 29.3 18.58-2.17-4.284-19.92-19.848-36.85-37.22-16.92-17.372-54-50.888-54-50.888Zm93.24 9.932c1.31 1.934 33.76 33.954 51.22 46.76 17.46 12.807 18.36 6.781 18.63 4.465.26-2.316-1.3-8.318-14.79-17.37-18.13-12.168-56.36-35.789-55.06-33.855Zm-272.77 11.592c8.66 12.297 24.67 22.77 42.13 33.954 22.41 14.356 51.94 16.698 51.94 16.698s-30.12-21.609-51.67-36.304c-21.55-14.696-25.26-18.627-34.54-22.479-9.28-3.852-16.52-4.167-7.86 8.131Zm103.96-33.576c2.88 5.222 16.2 26.985 33.9 44.82 17.7 17.834 34.21 29.041 36.9 26.519 4.81-4.504-15.76-21.406-32.5-38.309-14.52-14.663-31.86-31.782-31.86-31.782l-14.62-13.528s5.3 7.058 8.18 12.28Z" fill="#5054b5"/><path d="m2206.41 1405.46-50.94 259s-45.41 62.64-28.84 149.97c17.23 90.84 76.97 256.23 76.97 256.23s13.16 5.04 36.21 11.66c37.66 10.84 101.73 25.92 177.9 30.21 122.77 6.93 188.52-7.29 257.74-19.76 96.35-17.37 123.73-50.16 123.73-50.16s3.93-15.27 9.47-38.31c8.77-36.48 21.59-92.44 29.29-138.04 9.42-55.76 20.25-79.25 19.49-128.14-.76-48.89-16.24-61.39-19.62-86.27-18.15-133.58-67.98-258.09-67.98-258.09s-22.82-6.94-47.26-9.13c-27.25-2.45-51.35-3.77-51.35-3.77l-4.74 10.38-45.24 199.59-230.59-6.78-48.74-186.47s-17.36 5.7-28.2 4.28c-11.07-1.46-27.15-3.69-43.43-3.12-32.21 1.13-63.87 6.72-63.87 6.72Z" fill="#4c4f9d"/><path d="M2149.34 1820.27s49.26 218.05 63.85 229.48c37.14 29.11 129.46 50.56 251.62 51.13 10.87.05 25.02-.05 36.46-.23 139.91-2.23 253.49-48.5 271.57-59.81 18.09-11.3 57.94-240.63 57.94-240.63l-558.82 128.6-122.62-108.54Z" fill="#6064bd"/><path d="M2227.55 1422.35s-24.37 152.35-34.66 204.71c-7.89 40.15-76.2 120.21-37.33 220.29 28.56 73.51 186.6 126.78 345.31 116.71 187.41-11.88 323.96-55.41 332.78-179.99 6.89-97.38-34.77-137.78-47.82-175.75-13.04-37.97-39.64-203.55-39.64-203.55s-7.71-3.08-22.9-6.04c-15.2-2.95-39.35-2.53-39.35-2.53s4.14 47.82-2.69 104.3c-2.06 17-6.07 111.09-17.26 129.71-14.32 23.83-62.51 29.29-167.67 35.56-72.84 4.35-149.33 3.4-166.03-25.83-11.32-19.81-21.37-69.84-25.76-119.08-4.59-51.54-3.26-101.91-3.26-101.91s-19.35-4.67-38.69-4.35c-15.18.26-35.03 7.75-35.03 7.75Z" fill="#7277dd"/><path d="M2246.32 1684.05c-50.72 1.52-63.62 77.09-33.08 143.64 24.38 53.1 148.58 99.67 261.16 106.2 112.58 6.54 337.42-97.17 275.95-110.55-61.46-13.39-184.78 18.89-295.97-6.1-111.2-24.98-149.73-134.93-208.06-133.19Z" fill="#8083ea"/><path d="M1792.29 156.663c-4.85 40.704-2.74 74.595-2.74 74.595s-.5-12.637-12.59-12.881c-6.97-.14-14.48 6.189-14.48 6.189s-8.44-10.805-25.62-9.315c-15.07 1.306-27.02 13.32-27.02 13.32s-19.54-3.2-32.59 12.213c-9.6 11.333-10.59 16.02-13.86 31.206-2.34 10.808-2.53 17.933-2.53 17.933s-5.76 6.407-12.65 18.584c-6.89 12.176 1.42 39.538 1.42 39.538s-2.12 16.321-2.18 18.506c-.25 8.633-2.75 35.582 4.22 59.876 9.27 32.339 23 57.783 23 57.783s1.72 82.668 18.38 158.163c17.83 80.804 48.83 162.806 60.51 207.697 8.29 31.875 57.1 160.14 94.4 235.96 15.22 30.96 31.63 50.75 31.63 50.75s-9.05 26.97-2.18 57.27c24.06 106.07 39.36 182.23 76.06 301.79 59.61 194.18 177.96 340.2 177.96 340.2s-16.5-48.4 3.09-113.71c18.25-60.82 36.56-76.56 47.62-124.97 12.68-55.48 11.15-63.42 19.04-121 5.25-38.36 8.75-59.86 5.8-78.11-8.76-54.06-40.11-152.32-101.21-277.78-21.95-45.06-48.53-55.18-51.36-70.74-2.65-14.62 1.7-53.57-21.96-111.9-17.56-43.292-98.37-229.8-106.44-242.724-8.44-13.522-108.36-223.114-115.16-255.26-4.74-22.38 16.27-27.895 34.77-101.008 17.09-67.554 24.93-105.068 19.87-155.374-6.39-63.519-30.59-74.65-44.76-71.874-19.93 3.901-26.04 24.923-28.44 45.073Z" fill="#de7bb7"/><path d="M1719.4 228.074c-12.39 10.735-16.26 21.291-23.55 43.055-7.29 21.764-9.28 33.625-7.49 50.792 1.79 17.167 15.96 6.181 15.96 6.181l32.1-72.173s12.38-20.349 8.36-27.863c-4.02-7.514-12.99-10.728-25.38.008Zm5.04 87.033c-10.75 32.168-16.74 55.249-6.43 61.983 6.04 3.954 16.96-4.542 29.87-17.136 16.88-16.471 38.75-71.053 37.67-93.303-1.08-22.251-5.96-45.137-23-26.574-15.66 17.065-27.37 42.863-38.11 75.03Zm-54.34-33.674c-1.79 18.065.16 43.955 4.84 44.297 4.67.342 3.51-27.917 9.61-49.995 6.09-22.078 15.72-30.366 14.76-38.317-.96-7.952-15.13 5.833-19.26 11.667-4.12 5.834-8.16 14.283-9.95 32.348Zm-17.16 32.482c-1.88 9.345 6.43 35.006 14.1 33.247 4.34-.998.49-11.062-3.14-25.73-2.47-9.977-1.5-21.984-2.52-23.235-2.37-2.89-6.56 6.373-8.44 15.718Z" fill="#fe9fdb"/><path d="M1682.42 345.998s-4.93 7.471-11.44 9.697c-4.89 1.667-15.39-1.037-15.39-1.037s-1.69 25.501 2.18 44.084c6.84 32.84 17.62 58.067 46.14 75.136 28.51 17.07 60.83 3.202 60.83 3.202s-10.56 16.112-31.3 25.971c-20.75 9.859-44.01-3.071-44.01-3.071s5.95 116.029 60.31 271.865c54.35 155.836 69.61 230.165 125.72 308.785 14.39 20.16 47.07 45.47 98.71 24.25 11.7-4.81-9.78 23.84-33.15 41.39-20.77 15.59-41.87 3.39-44.21 35.34-2.34 31.95 106.06 450.73 182.28 518.99 56.64 50.71 106.96-244.45 108.01-279.25 1.01-33.72-79.95-237.77-118.81-318.72-8.78-18.27-34.99-22.91-39.57-34.74-3.46-8.93 1.44-46.68-5.89-70.853-14.71-48.471-43.18-107.126-46.5-115.63-61.68-157.94-191.01-436.811-191.01-436.811l-.26-37.155s21.97-29.532 38.35-78.409c16.38-48.877 23.88-78.972 24.53-126.926.64-47.954-16.02-81.827-31.77-75.539-12.47 4.981-11.61 14.908-12.59 55.758-1.19 50.122-5.93 101.235-15.34 134.073-9.29 32.412-45.08 76.868-72.24 72.522-27.16-4.346-10.5-37.848-10.5-37.848s-6.78 2.307-12.55 1.039c-5.77-1.269-10.53-6.113-10.53-6.113Z" fill="#fe9fdb"/><path d="M1663.87 384.024c-3.94 3.965.2 32.163 15.38 53.496 15.17 21.334 33.32 26.394 40.81 27.557 10.06 1.563 23.15-6.513 16.89-17.367-6.27-10.854-20.82-8.137-41.95-26.049-21.13-17.911-27.19-41.602-31.13-37.637Zm51.44 140.802c-3.26 12.315 37.43 229.932 93.39 360.916 55.97 130.988 104.73 210.638 121.73 178.228 17-32.42-46.99-116.136-96.92-215.668-45.83-91.344-114.93-335.791-118.2-323.476Zm1543.71 50.634c14.99-7.041-72.2 214.518-118.49 327.824-4.43 10.843 2.79 2.846-.68 11.729-55.2 141.357-116.54 218.287-136.4 209.677-19.86-8.6 88.63-183.467 138.65-290.262 50.03-106.795 101.88-251.902 116.92-258.968Z" fill="#ffb9e4"/><path d="M3203.75 137.36c4.93 39.522 2.78 72.43 2.78 72.43s5.44-4.984 13.49-5.668c5.71-.486 14.55 6.642 14.55 6.642s10.03-14.78 27.5-13.333c15.32 1.268 26.2 14.077 26.2 14.077s21.13.093 33.47 15.767c1.58 2 7.86 13.509 10.65 23.558 2.89 10.376 2.26 19.271 2.26 19.271s8.56 2.87 15.57 14.693c7.01 11.824 7.52 30.445 7.52 30.445s4.73 61.614-2.36 85.203c-9.42 31.401-27.61 62.522-27.61 62.522s.3 75.7-16.64 149.003c-18.12 78.46-50.55 161.534-62.43 205.122-8.43 30.951-41.99 126.903-71.19 193.928-13.53 31.07-62.51 78.01-62.51 78.01s13.83 36.92 6.85 66.34c-24.46 102.99-37.81 149.84-68.49 249.21-17.72 57.4-65.61 176.33-107.16 243.01-38.33 61.51-95.54 150.67-95.54 150.67s12.61-44.23 4.55-75.61c-8.05-31.37-19.46-54.63-27.07-69.87-16.22-32.45-23.13-41.99-30.96-68.05-26.74-88.96-33.58-192.23-33.58-192.23s25.38-42.39 81.42-192.18c15.15-40.5 37.08-97.41 59.69-133.79 16.33-26.28 36.94-39.44 36.94-39.44s-.72-24.53 7.55-54.46c8.04-29.114 24.86-63.191 38.67-95.28 28.02-65.084 60.43-141.314 95.66-214.275 35.24-72.96 107.41-211.355 114.33-242.569 4.82-21.73-23.52-45.614-45.52-114.579-15.87-49.759-16.68-77.267-11.54-126.113 6.5-61.676 24.43-70.254 35.71-71.381 11.28-1.128 24.8 9.361 27.24 28.927Z" fill="#de7bb7"/><path d="M3274.71 215.478c12.73 10.424 16.71 20.674 24.21 41.806 7.49 21.132 9.54 32.65 7.7 49.318-1.84 16.669-16.41 6.002-16.41 6.002l-33-70.079s-12.73-19.758-8.6-27.054c4.14-7.296 13.37-10.417 26.1.007Zm-2.74 83.899c11.05 31.234 17.2 53.645 6.61 60.184-6.22 3.839-17.44-4.41-30.71-16.638-17.35-15.994-39.84-68.992-38.73-90.597 1.12-21.604 6.13-43.827 23.65-25.802 16.1 16.569 28.14 41.619 39.18 72.853Zm53.42-32.088c1.84 17.541-.17 42.679-4.97 43.012-4.81.332-3.62-27.107-9.88-48.545-6.26-21.437-16.16-29.484-15.18-37.205.98-7.721 15.56 5.664 19.8 11.329 4.24 5.665 8.39 13.869 10.23 31.409Zm17.64 31.54c1.94 9.073-6.61 33.989-14.49 32.282-4.47-.969-.51-10.741 3.23-24.983 2.54-9.689 1.53-21.347 2.59-22.561 2.43-2.807 6.74 6.188 8.67 15.262Z" fill="#fe9fdb"/><path d="M3320.79 338.803s5.06 7.254 11.77 9.415c5.01 1.619 15.81-1.007 15.81-1.007s1.74 24.761-2.24 42.805c-7.03 31.887-18.12 56.382-47.43 72.956-29.31 16.574-62.54 3.109-62.54 3.109s10.86 15.644 32.18 25.217c21.33 9.573 45.24-2.981 45.24-2.981s-6.12 112.661-62 263.976c-55.88 151.314-71.56 223.485-129.24 299.817-14.8 19.58-48.4 44.16-101.48 23.55-12.03-4.67 10.05 23.15 34.08 40.19 21.35 15.14 43.04 3.3 45.44 34.32 2.41 31.02-126.86 456.79-205.22 523.07-58.22 49.24-110.22-230-111.3-263.79-1.04-32.74 100.29-257.37 140.24-335.97 9.02-17.74 45.38-28.87 45.38-28.87s-6.18-50.184 1.36-73.66c15.12-47.064 44.39-104.017 47.8-112.274 63.41-153.358 196.37-424.136 196.37-424.136l.26-36.078s-22.59-28.675-39.42-76.133c-16.84-47.459-24.56-76.68-25.22-123.243-.66-46.563 16.47-79.452 32.66-73.347 12.82 4.836 11.94 14.475 12.94 54.14.69 27.336-.76 53.023 2.43 77.651 2.5 19.219 9.11 38.556 13.35 52.531 9.54 31.472 46.34 74.638 74.26 70.418 27.92-4.22 10.8-36.75 10.8-36.75s6.97 2.241 12.9 1.009c5.93-1.232 10.82-5.935 10.82-5.935Z" fill="#fe9fdb"/><path d="M3331.8 366.903c4.04 3.85-.21 31.23-15.81 51.944-15.6 20.715-34.26 25.628-41.96 26.758-10.34 1.517-23.8-6.325-17.36-16.864 6.44-10.539 21.4-7.9 43.12-25.293 21.73-17.392 27.96-40.394 32.01-36.545Zm-52.89 136.716c3.36 11.958-38.48 223.261-96.01 350.444-57.53 127.183-107.67 204.527-125.14 173.047-17.48-31.472 48.3-112.757 99.64-209.401 47.11-88.693 118.15-326.048 121.51-314.09Z" fill="#ffb9e4"/><path d="M2567.74 961.423s15.02 2.44 27.81 3.704c12.78 1.264 38.53 3.078 38.53 3.078s9.96 62.735 11.41 102.825c1.44 40.1 3.38 52.39-8.68 100.18-9.42 37.33-28.41 69.89-28.41 69.89l-45.86-264.641 5.2-15.036Zm-173.38 305.987s24.27 86.8 5.33 102.37c-10.87 8.94-14.09 10.95-35.69 20.31-4.83 2.09-47.44 12.18-47.44 12.18s-4.13 79.43 5.22 144.62c8.25 57.49 15.29 81 29.15 89.67 13.86 8.66 96.53 19.26 162.91 13.73 66.38-5.53 118.76-10.97 131.93-22.15 12.05-10.22 22.48-162.52 22.48-162.52l3.71-52.67 1.86-31.99s-39.64-9.73-62.59-41.12c-22.94-31.4-16.03-84.1-16.03-84.1l-200.84 11.67Z" fill="#de7bb7"/><path d="M2315.52 956.888c-7.19 7.988-11.34 34.584-15.19 77.272-3.58 39.6-.79 80.57 6.73 121.96 15.62 85.99 77.97 140.32 77.97 140.32s44.57 39.58 92.57 36.55c48-3.04 85.05-22.61 96.98-35.43 11.68-12.55 46.28-46.97 47.14-123.88.86-76.9-34.67-209.316-34.67-209.316s-28.98-5.091-47.3-11.144c-18.32-6.053-40.77-18.527-40.77-18.527s15.7 7.975 10.62 18.67c-5.08 10.694-44.4-5.925-44.4-5.925s29.24 26.053 5.52 22.343c-11.74-1.837-38.16-5.957-61.55-14.079-23.85-8.279-44.57-20.545-44.57-20.545s20.5 52.132 16.7 57.171c-3.8 5.039-60.45-41.359-65.78-35.44Z" fill="#fe9fdb"/><path d="M2323.91 1025.97c9.76 14.1 19.61 101.45 44.34 157.93 25.76 58.82 76.46 126.85 72.04 127.28-4.42.44-63.89-49.63-91.94-92.71-19.58-30.07-30.58-76.38-34.81-112.09-5.46-46.13 2.81-91.35 10.37-80.41Z" fill="#ffb9e4"/><path d="M2431 1363.39c-11.53 1.67-24.44 17-50.98 31.6-25.36 13.95-51.11 19.66-51.11 19.66s3.11 41.09 8.93 80.58c5.82 39.48 15.69 71.73 30.83 93.22 13.35 18.93 30.71 33.69 66.94 37.99 58.34 6.92 180.98 14.03 213.39-5.65 5.46-3.31 11.94-74.04 16.91-123.53 4.97-49.49 6.19-86.78 6.19-86.78s-21.01-7.03-47-18.45c-25.98-11.42-36.51-23.57-58.03-28.99-10.37-2.62-36.82 13.71-71.17 13.01-34.35-.71-43.31-15.79-64.9-12.66Z" fill="#fe9fdb"/><path d="M2348.2 1422.7c-18.49-4.23 15.51 86.98 30.97 123.88 15.46 36.9 49.17 55.06 62.99 58.03 20.5 4.42 172.01-3.13 176.77-23.67 4.14-17.79-114.54-24.08-165.07-47.58-50.52-23.51-90.38-107.17-105.66-110.66Z" fill="#ffb9e4"/><path d="M2131.55 2198.5c-25.92-22.31-27.77-61.32-4.12-87.14 23.66-25.81 63.85-28.66 89.78-6.35 25.92 22.31 27.77 61.32 4.12 87.14-23.66 25.81-63.85 28.65-89.78 6.35Z" fill="#4c4f9d"/><path d="m2419.79 2131.27 2.38-5.84 2.23-5.48 30.83-39.15 4.28-8.14 8.54-7.63 58.88 4.45 158.16 11.97 8.71 9.35 32.95 51.77-.46 14.04-168.02 185.41-116.84-178.5-21.64-32.25Z" fill="#303273"/><path d="m2513.96 2192.25 114.7 10.48-69.4 129.95-45.3-140.43Z" fill="url(#c)"/><path d="m2645.99 2201.04 80.3-44.45-153.11 168.54 72.81-124.09Z" fill="url(#d)"/><path d="m2419.64 2131.22 72.82 54.85 55.34 139.79-128.16-194.64Z" fill="url(#e)"/><path d="m2509.75 2174.47 19.22-67.41 94.89 7.25 3.67 73.86-117.78-13.7Z" fill="url(#f)"/><path d="m2467.93 2065.1 59.72-16.65 105.07 9 52.7 24.22-58.74 22.73-102.24-9.03-56.51-30.27Z" fill="url(#g)"/><path d="m2635.73 2115.13 8.6 73.05 82.5-45.55-33.09-52-58.01 24.5Z" fill="url(#h)"/><path d="m2424.34 2120 70.53 48.36 20.69-64.31-56.08-31.4-35.14 47.35Z" fill="url(#i)"/><path d="M2527.75 2048.23s-17.81 9.14-18.67 21.05c-.86 11.91 14.8 27.17 14.8 27.17l-55.98-31.37 59.85-16.85Zm-68.15 24.34-35.37 47.6 70.78 48.26s-22.25-25.93-31.1-49.89c-8.86-23.97-4.31-45.97-4.31-45.97Zm-39.7 58.92 35.45 26.54 102.62 183.55-138.07-210.09Zm270.51 45.02 35.84-19.92-118.53 130.83-47.57 52.86 130.26-163.77Z" fill="#fff"/><path d="m1939.96 2669.02.99-9 .93-8.44 26.81-66.23 2.68-12.93 8.67-13.92 81.41-17.28 218.71-46.41 15.36 9.42 64.35 58.26 4.73 19.54-156.78 322.42-226.27-199.58-41.59-35.85Z" fill="#303273"/><path d="m2090.71 2715.62 159.29-31.17-44.4 206.74-114.89-175.57Z" fill="url(#j)"/><path d="m2272.83 2675.22 91.77-93.22-143.04 293.25 51.27-200.03Z" fill="url(#k)"/><path d="m1939.74 2669.01 119.51 46.65 128.22 170.69-247.73-217.34Z" fill="url(#l)"/><path d="m2078.22 2692.79.33-100.57 131.24-27.76 33.13 100.37-164.7 27.96Z" fill="url(#m)"/><path d="m1979.91 2558.66 74.5-46.71 145.69-29.4 80.59 12.44-70.87 54.7-141.86 28.21-88.05-19.24Z" fill="url(#n)"/><path d="m2226.17 2560.87 39.5 97.29 94.34-95.62-64.63-58.51-69.21 56.84Z" fill="url(#o)"/><path d="m1941.81 2651.68 113.94 38.6 3.49-96.87-87.9-20.99-29.53 79.26Z" fill="url(#p)"/><path d="M2054.46 2511.6s-20.63 19.69-17.26 36.45c3.38 16.76 30.4 31.56 30.4 31.56l-87.75-20.97 74.61-47.04Zm-82.99 60.67-29.74 79.69 114.24 38.37s-40.02-26.9-61.14-56.41c-21.13-29.51-23.36-61.65-23.36-61.65Z" fill="#fff"/><path d="m2447.02 3481.5 3.85-8.19 3.62-7.68 46.82-53.97 6.73-11.36 12.71-10.36 82.62 10.04 221.95 26.96 11.48 13.89 41.99 75.98-1.85 20.01-110.42 111.43-197.21-3.29-42.63-24.06-51.94-92-27.72-47.4Z" fill="#303273"/><path d="m2574.54 3574.44 160.79 22.13-31.67 47.08-112.64 2.44-9.61-41.77-6.87-29.88Z" fill="url(#q)"/><path d="m2759.92 3595.24 117.02-58.44-109.16 109.49-37.5-1.94 29.64-49.11Z" fill="url(#r)"/><path d="m2446.81 3481.42 97.95 82.86 21.77 74.42-34.53 1.68-85.19-158.96Z" fill="url(#s)"/><path d="m2570.12 3548.8 32.9-95.04 133.15 16.28-1.18 105.68-164.87-26.92Z" fill="url(#t)"/><path d="m2520.57 3390.05 85.62-20.05 147.36 19.4 72.21 37.88-84.77 28.78-143.35-19.27-77.07-46.74Z" fill="url(#u)"/><path d="m2752.83 3471.94 5.84 104.84 120.23-59.88-42.17-76.31-83.9 31.35Z" fill="url(#v)"/><path d="m2454.39 3465.71 95.28 73.43 34.7-90.51-76.36-48.34-53.62 65.42Z" fill="url(#w)"/><path d="m2508.18 3400.19-53.95 65.75 95.63 73.32s-29.14-38.41-39.56-73.18c-10.42-34.77-2.12-65.89-2.12-65.89Z" fill="#fff"/><path d="M1864.6 3632.29h1381.98c4.38 0 7.93 3.65 7.93 8.16v36.75c0 4.51-3.55 8.16-7.93 8.16H1864.6c-4.38 0-7.93-3.65-7.93-8.16v-36.75c0-4.51 3.55-8.16 7.93-8.16Z" fill="#5563ac"/><path d="M2779.36 2752.78c0-133.92 108.54-242.49 242.43-242.49s242.42 108.57 242.42 242.49c0 133.92-108.53 242.49-242.42 242.49s-242.43-108.57-242.43-242.49Z" fill="#b8b592"/><path d="M2792.17 2754.21c0-126.55 102.6-229.15 229.17-229.15s229.17 102.6 229.17 229.15c0 126.56-102.6 229.16-229.17 229.16s-229.17-102.6-229.17-229.16Z" fill="#f5f0bd"/><path d="M2895.64 2716.1c0-13.7 11.19-24.81 24.99-24.81 13.8 0 24.99 11.11 24.99 24.81s-11.19 24.8-24.99 24.8c-13.8 0-24.99-11.1-24.99-24.8Zm206.71-6.47c0-13.7 11.19-24.81 24.99-24.81 13.81 0 25 11.11 25 24.81s-11.19 24.8-25 24.8c-13.8 0-24.99-11.1-24.99-24.8Zm-159.49 95.38 174.34-7.73s-19.12 66.73-86.01 71.33c-62.63 4.31-88.33-63.6-88.33-63.6Zm-1544.47 456.15c-49.19-38.9-58.78-108.64-21.4-155.77 37.37-47.13 107.55-53.81 156.74-14.91 49.19 38.9 58.77 108.64 21.4 155.77-37.37 47.13-107.55 53.81-156.74 14.91Z" fill="#b8b592"/><path d="M1402.49 3257.07c-46.49-36.76-55.53-102.68-20.2-147.23 35.33-44.56 101.66-50.88 148.14-14.12 46.49 36.76 55.53 102.68 20.2 147.23-35.33 44.56-101.66 50.88-148.14 14.12Z" fill="#f5f0bd"/><path d="M1417.37 3209.57c-5.03-3.97-5.99-11.14-2.14-16 3.86-4.86 11.06-5.57 16.09-1.59 5.04 3.98 5.99 11.14 2.14 16-3.85 4.86-11.06 5.57-16.09 1.59Zm55.33-74.64c-5.04-3.98-5.99-11.15-2.14-16.01 3.85-4.86 11.06-5.57 16.09-1.59 5.03 3.98 5.99 11.14 2.14 16-3.86 4.86-11.06 5.57-16.09 1.6Zm-9.49 83.84 45.83-63.61s19.17 26.11 2.19 50.99c-15.9 23.3-48.02 12.62-48.02 12.62ZM3574.17 299.242c35.81-51.488 104.83-65.332 154.17-30.922 49.33 34.41 60.3 104.043 24.5 155.531-35.81 51.487-104.83 65.331-154.16 30.921-49.34-34.41-60.31-104.043-24.51-155.53Z" fill="#b8b592"/><path d="M3578.51 303.083c33.83-48.656 99.07-61.729 145.71-29.2 46.64 32.529 57.02 98.342 23.19 146.998-33.84 48.655-99.08 61.729-145.72 29.2-46.64-32.529-57.02-98.342-23.18-146.998Z" fill="#f5f0bd"/><path d="M3626.82 315.021c3.67-5.267 10.76-6.661 15.85-3.113 5.08 3.547 6.24 10.693 2.57 15.96-3.66 5.267-10.75 6.661-15.84 3.114-5.08-3.548-6.24-10.694-2.58-15.961Zm77.91 50.64c3.66-5.267 10.76-6.661 15.84-3.114 5.09 3.548 6.24 10.693 2.58 15.96-3.66 5.267-10.76 6.661-15.84 3.114-5.09-3.548-6.24-10.693-2.58-15.96Zm-84.27-4.321 66.31 41.835s-24.89 20.742-50.77 5.321c-24.23-14.441-15.54-47.156-15.54-47.156ZM1273.33 497.361c-49.19-38.898-58.77-108.639-21.4-155.772 37.37-47.132 107.55-53.807 156.74-14.908 49.19 38.898 58.77 108.639 21.4 155.771-37.37 47.133-107.55 53.808-156.74 14.909Z" fill="#b8b592"/><path d="M1277.43 493.272c-46.49-36.759-55.53-102.678-20.2-147.234 35.33-44.555 101.66-50.876 148.14-14.117 46.49 36.759 55.53 102.677 20.2 147.233s-101.65 50.876-148.14 14.118Z" fill="#f5f0bd"/><path d="M1292.31 445.776c-5.03-3.979-5.99-11.144-2.13-16.003 3.85-4.859 11.05-5.573 16.08-1.593 5.04 3.979 5.99 11.144 2.14 16.003s-11.06 5.572-16.09 1.593Zm55.33-74.65c-5.03-3.979-5.99-11.144-2.14-16.003 3.86-4.859 11.06-5.572 16.09-1.593 5.03 3.979 5.99 11.144 2.14 16.003-3.86 4.859-11.06 5.572-16.09 1.593Zm-9.49 83.85 45.83-63.617s19.17 26.115 2.19 50.995c-15.9 23.298-48.02 12.622-48.02 12.622Z" fill="#b8b592"/><path d="M2115.28 3284.36c-22.74 21.43-35.09 123.16-7.75 143.58 27.33 20.43 44.67-67.35 88.61-91.16 43.95-23.81 68.57 12.91 71.15 40.06 2.1 22.07-63.65 125.14-43.82 161.87 19.82 36.73 110.68-4.6 110.68-4.6s64.83-97.25 53.89-166.88c-10.93-69.63-39-102.84-85.16-122-46.17-19.16-52.6 35.57-99.5 45.36-46.89 9.78-36.64-54.69-88.1-6.23Z" fill="#fff" fill-opacity=".42703"/><path d="M2129.76 3465.24c-5.4 30.62 12.61 68.19 29.85 65.87 17.24-2.31 33.71-44.51 39.12-75.13 5.4-30.62-.26-49.67-17.5-47.35-17.24 2.32-46.06 25.99-51.47 56.61Zm882.56-83.58c-28.84 20.95-102.11 37.24-84.01 58.81 18.11 21.57 131.65-34.63 164.66-7.56 33 27.06-7.52 92.24 14.28 110.89 21.8 18.65 72.92-36.3 72.92-36.3s26.37-47.75-4.88-93.07c-31.25-45.32-73.36-88.45-120.13-88.21-46.76.24-14 34.49-42.84 55.44Z" fill="#fff" fill-opacity=".42703"/><path d="M2933.67 3490.27c-14.68 31.6 21.82 93.91 41.56 107.98 19.74 14.06 12.36-46.62 37.39-51.73 25.04-5.11 43.57 34.24 62.76 31.27 33.85-5.23-21.35-89.59-41.43-105.97-38.1-31.1-85.6-13.16-100.28 18.45Z" fill="#fff" fill-opacity=".42703"/><path d="m2193.94 2092.28-26.9 121s-19.76-1-36.32-15.37c-14.06-12.2-18.14-26.2-18.89-32.67-.65-5.52-5.17-28.51 10.65-50.05 14.4-19.61 48-25.91 48-25.91l23.46 3Z" fill="#030303"/></g></svg>