<svg stroke-miterlimit="10" style="fill-rule:nonzero;clip-rule:evenodd;stroke-linecap:round;stroke-linejoin:round" viewBox="0 0 5000 5000" xml:space="preserve" xmlns="http://www.w3.org/2000/svg" xmlns:vectornator="http://vectornator.io"><defs><linearGradient gradientUnits="userSpaceOnUse" id="a" x1="1740.14" x2="1957.02" y1="1958.38" y2="1958.38"><stop offset="0" stop-color="#557da7"/><stop offset="1" stop-color="#7377d2"/></linearGradient><linearGradient gradientUnits="userSpaceOnUse" id="b" x1="2133.54" x2="2343.85" y1="1747.36" y2="1747.36"><stop offset="0" stop-color="#557da7"/><stop offset="1" stop-color="#7377d2"/></linearGradient><linearGradient gradientUnits="userSpaceOnUse" id="c" x1="1926.23" x2="2234.95" y1="1891.7" y2="1891.7"><stop offset="0" stop-color="#557da7"/><stop offset="1" stop-color="#7377d2"/></linearGradient><linearGradient gradientTransform="matrix(1.04532 -.20718 .21039 1.03402 -271.872 504.284)" gradientUnits="userSpaceOnUse" id="d" x1="1819.29" x2="2031.2" y1="1913.06" y2="1913.06"><stop offset="0" stop-color="#557da7"/><stop offset="1" stop-color="#7377d2"/></linearGradient><linearGradient gradientTransform="matrix(1.04532 -.20718 .21039 1.03402 -442.944 621.568)" gradientUnits="userSpaceOnUse" id="e" x1="1819.29" x2="2031.2" y1="1913.06" y2="1913.06"><stop offset="0" stop-color="#557da7"/><stop offset="1" stop-color="#7377d2"/></linearGradient><linearGradient gradientTransform="matrix(1.04532 -.20718 .21039 1.03402 -138.646 469.715)" gradientUnits="userSpaceOnUse" id="f" x1="1819.29" x2="2031.2" y1="1913.06" y2="1913.06"><stop offset="0" stop-color="#557da7"/><stop offset="1" stop-color="#7377d2"/></linearGradient><linearGradient gradientUnits="userSpaceOnUse" id="g" x1="1770.1" x2="2187.84" y1="1761.57" y2="1761.57"><stop offset="0" stop-color="#557da7"/><stop offset="1" stop-color="#575ea5"/></linearGradient><linearGradient gradientTransform="matrix(1.07091 -.09309 .12473 1.06266 6.12969 145.656)" gradientUnits="userSpaceOnUse" id="h" x1="1819.29" x2="2031.2" y1="1913.06" y2="1913.06"><stop offset="0" stop-color="#7374d2"/><stop offset="1" stop-color="#415a86"/></linearGradient><linearGradient gradientTransform="matrix(1.07091 -.09309 .12473 1.06266 417.403 -40.5777)" gradientUnits="userSpaceOnUse" id="i" x1="1819.29" x2="2031.2" y1="1913.06" y2="1913.06"><stop offset="0" stop-color="#7374d2"/><stop offset="1" stop-color="#415a86"/></linearGradient><linearGradient gradientUnits="userSpaceOnUse" id="j" x1="2398.98" x2="2711.96" y1="1944.33" y2="1944.33"><stop offset="0" stop-color="#7374d2"/><stop offset="1" stop-color="#415a86"/></linearGradient><linearGradient gradientTransform="matrix(1.07091 -.09309 .12473 1.06266 300.276 294.035)" gradientUnits="userSpaceOnUse" id="k" x1="1819.29" x2="2031.2" y1="1913.06" y2="1913.06"><stop offset="0" stop-color="#7374d2"/><stop offset="1" stop-color="#415a86"/></linearGradient><linearGradient gradientTransform="matrix(1.07091 -.09309 .12473 1.06266 117.977 393.088)" gradientUnits="userSpaceOnUse" id="l" x1="1819.29" x2="2031.2" y1="1913.06" y2="1913.06"><stop offset="0" stop-color="#7374d2"/><stop offset="1" stop-color="#415a86"/></linearGradient><linearGradient gradientTransform="matrix(1.07091 -.09309 .12473 1.06266 437.452 273.963)" gradientUnits="userSpaceOnUse" id="m" x1="1819.29" x2="2031.2" y1="1913.06" y2="1913.06"><stop offset="0" stop-color="#7374d2"/><stop offset="1" stop-color="#415a86"/></linearGradient><linearGradient gradientUnits="userSpaceOnUse" id="n" x1="2241.66" x2="2683.21" y1="1804.99" y2="1804.99"><stop offset="0" stop-color="#557da7"/><stop offset="1" stop-color="#7377d2"/></linearGradient><linearGradient gradientTransform="matrix(.92603 -.19065 .18638 .95152 668.189 845.885)" gradientUnits="userSpaceOnUse" id="o" x1="1819.29" x2="2031.2" y1="1913.06" y2="1913.06"><stop offset="0" stop-color="#71add5"/><stop offset="1" stop-color="#7377d2"/></linearGradient><linearGradient gradientTransform="matrix(.92603 -.19065 .18638 .95152 1012.82 636.171)" gradientUnits="userSpaceOnUse" id="p" x1="1819.29" x2="2031.2" y1="1913.06" y2="1913.06"><stop offset="0" stop-color="#71add5"/><stop offset="1" stop-color="#7377d2"/></linearGradient><linearGradient gradientTransform="matrix(.92603 -.19065 .18638 .95152 848.194 779.628)" gradientUnits="userSpaceOnUse" id="q" x1="1819.29" x2="2031.2" y1="1913.06" y2="1913.06"><stop offset="0" stop-color="#71add5"/><stop offset="1" stop-color="#7377d2"/></linearGradient><linearGradient gradientTransform="matrix(.92603 -.19065 .18638 .95152 935.263 951.301)" gradientUnits="userSpaceOnUse" id="r" x1="1819.29" x2="2031.2" y1="1913.06" y2="1913.06"><stop offset="0" stop-color="#71add5"/><stop offset="1" stop-color="#7377d2"/></linearGradient><linearGradient gradientTransform="matrix(.92603 -.19065 .18638 .95152 783.713 1059.23)" gradientUnits="userSpaceOnUse" id="s" x1="1819.29" x2="2031.2" y1="1913.06" y2="1913.06"><stop offset="0" stop-color="#71add5"/><stop offset="1" stop-color="#7377d2"/></linearGradient><linearGradient gradientTransform="matrix(.92603 -.19065 .18638 .95152 1053.28 919.49)" gradientUnits="userSpaceOnUse" id="t" x1="1819.29" x2="2031.2" y1="1913.06" y2="1913.06"><stop offset="0" stop-color="#71add5"/><stop offset="1" stop-color="#7377d2"/></linearGradient><linearGradient gradientTransform="matrix(.92603 -.19065 .18638 .95152 668.189 845.885)" gradientUnits="userSpaceOnUse" id="u" x1="1889.69" x2="2281.87" y1="1723.27" y2="1723.27"><stop offset="0" stop-color="#71add5"/><stop offset="1" stop-color="#7377d2"/></linearGradient><linearGradient gradientTransform="matrix(.68863 -.07387 .0802 .84331 1503.23 1420.01)" gradientUnits="userSpaceOnUse" id="v" x1="1819.29" x2="2031.2" y1="1913.06" y2="1913.06"><stop offset="0" stop-color="#71add5"/><stop offset="1" stop-color="#7377d2"/></linearGradient><linearGradient gradientTransform="matrix(.68863 -.07387 .0802 .84331 1767.69 1272.22)" gradientUnits="userSpaceOnUse" id="w" x1="1819.29" x2="2031.2" y1="1913.06" y2="1913.06"><stop offset="0" stop-color="#71add5"/><stop offset="1" stop-color="#7377d2"/></linearGradient><linearGradient gradientTransform="matrix(.68863 -.07387 .0802 .84331 1638.81 1380.34)" gradientUnits="userSpaceOnUse" id="x" x1="1819.29" x2="2031.2" y1="1913.06" y2="1913.06"><stop offset="0" stop-color="#71add5"/><stop offset="1" stop-color="#7377d2"/></linearGradient><linearGradient gradientTransform="matrix(.68863 -.07387 .0802 .84331 1692.37 1537.76)" gradientUnits="userSpaceOnUse" id="y" x1="1819.29" x2="2031.2" y1="1913.06" y2="1913.06"><stop offset="0" stop-color="#71add5"/><stop offset="1" stop-color="#7377d2"/></linearGradient><linearGradient gradientTransform="matrix(.68863 -.07387 .0802 .84331 1575.15 1616.37)" gradientUnits="userSpaceOnUse" id="z" x1="1819.29" x2="2031.2" y1="1913.06" y2="1913.06"><stop offset="0" stop-color="#71add5"/><stop offset="1" stop-color="#7377d2"/></linearGradient><linearGradient gradientTransform="matrix(.68863 -.07387 .0802 .84331 1780.58 1521.83)" gradientUnits="userSpaceOnUse" id="A" x1="1819.29" x2="2031.2" y1="1913.06" y2="1913.06"><stop offset="0" stop-color="#71add5"/><stop offset="1" stop-color="#7377d2"/></linearGradient><linearGradient gradientTransform="matrix(.68863 -.07387 .0802 .84331 1503.23 1420.01)" gradientUnits="userSpaceOnUse" id="B" x1="1889.69" x2="2281.87" y1="1723.27" y2="1723.27"><stop offset="0" stop-color="#71add5"/><stop offset="1" stop-color="#7377d2"/></linearGradient><linearGradient gradientTransform="matrix(1.05741 -.09561 .12316 1.09146 529.51 1330.35)" gradientUnits="userSpaceOnUse" id="C" x1="1819.29" x2="2031.2" y1="1913.06" y2="1913.06"><stop offset="0" stop-color="#71add5"/><stop offset="1" stop-color="#7377d2"/></linearGradient><linearGradient gradientTransform="matrix(1.05741 -.09561 .12316 1.09146 935.597 1139.07)" gradientUnits="userSpaceOnUse" id="D" x1="1819.29" x2="2031.2" y1="1913.06" y2="1913.06"><stop offset="0" stop-color="#71add5"/><stop offset="1" stop-color="#7377d2"/></linearGradient><linearGradient gradientTransform="matrix(1.05741 -.09561 .12316 1.09146 737.697 1279)" gradientUnits="userSpaceOnUse" id="E" x1="1819.29" x2="2031.2" y1="1913.06" y2="1913.06"><stop offset="0" stop-color="#71add5"/><stop offset="1" stop-color="#7377d2"/></linearGradient><linearGradient gradientTransform="matrix(1.05741 -.09561 .12316 1.09146 819.947 1482.75)" gradientUnits="userSpaceOnUse" id="F" x1="1819.29" x2="2031.2" y1="1913.06" y2="1913.06"><stop offset="0" stop-color="#71add5"/><stop offset="1" stop-color="#7377d2"/></linearGradient><linearGradient gradientTransform="matrix(1.05741 -.09561 .12316 1.09146 639.947 1584.49)" gradientUnits="userSpaceOnUse" id="G" x1="1819.29" x2="2031.2" y1="1913.06" y2="1913.06"><stop offset="0" stop-color="#71add5"/><stop offset="1" stop-color="#7377d2"/></linearGradient><linearGradient gradientTransform="matrix(1.05741 -.09561 .12316 1.09146 955.393 1462.14)" gradientUnits="userSpaceOnUse" id="H" x1="1819.29" x2="2031.2" y1="1913.06" y2="1913.06"><stop offset="0" stop-color="#71add5"/><stop offset="1" stop-color="#7377d2"/></linearGradient><linearGradient gradientTransform="matrix(1.05741 -.09561 .12316 1.09146 529.51 1330.35)" gradientUnits="userSpaceOnUse" id="I" x1="1889.69" x2="2281.87" y1="1723.27" y2="1723.27"><stop offset="0" stop-color="#71add5"/><stop offset="1" stop-color="#7377d2"/></linearGradient><linearGradient gradientTransform="matrix(.68863 -.07387 .0802 .84331 1616.74 1250.94)" gradientUnits="userSpaceOnUse" id="J" x1="1819.29" x2="2031.2" y1="1913.06" y2="1913.06"><stop offset="0" stop-color="#71add5"/><stop offset="1" stop-color="#7377d2"/></linearGradient><linearGradient gradientTransform="matrix(.68863 -.07387 .0802 .84331 1881.2 1103.15)" gradientUnits="userSpaceOnUse" id="K" x1="1819.29" x2="2031.2" y1="1913.06" y2="1913.06"><stop offset="0" stop-color="#71add5"/><stop offset="1" stop-color="#7377d2"/></linearGradient><linearGradient gradientTransform="matrix(.68863 -.07387 .0802 .84331 1752.32 1211.27)" gradientUnits="userSpaceOnUse" id="L" x1="1819.29" x2="2031.2" y1="1913.06" y2="1913.06"><stop offset="0" stop-color="#71add5"/><stop offset="1" stop-color="#7377d2"/></linearGradient><linearGradient gradientTransform="matrix(.68863 -.07387 .0802 .84331 1805.88 1368.69)" gradientUnits="userSpaceOnUse" id="M" x1="1819.29" x2="2031.2" y1="1913.06" y2="1913.06"><stop offset="0" stop-color="#71add5"/><stop offset="1" stop-color="#7377d2"/></linearGradient><linearGradient gradientTransform="matrix(.68863 -.07387 .0802 .84331 1688.66 1447.3)" gradientUnits="userSpaceOnUse" id="N" x1="1819.29" x2="2031.2" y1="1913.06" y2="1913.06"><stop offset="0" stop-color="#71add5"/><stop offset="1" stop-color="#7377d2"/></linearGradient><linearGradient gradientTransform="matrix(.68863 -.07387 .0802 .84331 1894.09 1352.76)" gradientUnits="userSpaceOnUse" id="O" x1="1819.29" x2="2031.2" y1="1913.06" y2="1913.06"><stop offset="0" stop-color="#71add5"/><stop offset="1" stop-color="#7377d2"/></linearGradient><linearGradient gradientTransform="matrix(.68863 -.07387 .0802 .84331 1616.74 1250.94)" gradientUnits="userSpaceOnUse" id="P" x1="1889.69" x2="2281.87" y1="1723.27" y2="1723.27"><stop offset="0" stop-color="#71add5"/><stop offset="1" stop-color="#7377d2"/></linearGradient><linearGradient gradientUnits="userSpaceOnUse" id="Q" x1="3563.83" x2="3926.61" y1="2313.67" y2="2313.67"><stop offset="0" stop-color="#71add5"/><stop offset="1" stop-color="#6062fe"/></linearGradient><linearGradient gradientUnits="userSpaceOnUse" id="R" x1="2588.47" x2="2984.66" y1="1196.73" y2="1196.73"><stop offset="0" stop-color="#71add5"/><stop offset="1" stop-color="#6062fe"/></linearGradient><linearGradient gradientTransform="matrix(.78036 -.9489 1.23844 .56898 -4064.61 5999.04)" gradientUnits="userSpaceOnUse" id="S" x1="3563.83" x2="3933.44" y1="2311.82" y2="2323.4"><stop offset="0" stop-color="#71add5"/><stop offset="1" stop-color="#6062fe"/></linearGradient><linearGradient gradientTransform="matrix(-.14556 -.71808 .89094 -.3384 392.54 7798.87)" gradientUnits="userSpaceOnUse" id="T" x1="3469.07" x2="3933.44" y1="2295.53" y2="2323.4"><stop offset="0" stop-color="#71add5"/><stop offset="1" stop-color="#6062fe"/></linearGradient><linearGradient gradientTransform="matrix(-.41396 -.60453 .68855 -.65893 2705.83 7843.32)" gradientUnits="userSpaceOnUse" id="U" x1="3469.07" x2="3933.44" y1="2295.53" y2="2323.4"><stop offset="0" stop-color="#71add5"/><stop offset="1" stop-color="#6062fe"/></linearGradient><linearGradient gradientUnits="userSpaceOnUse" id="V" x1="3478.05" x2="3646.75" y1="2425.32" y2="2425.32"><stop offset="0" stop-color="#71add5"/><stop offset="1" stop-color="#6062fe"/></linearGradient><linearGradient gradientTransform="rotate(15.82 7279.91483955 -1791.33894415)" gradientUnits="userSpaceOnUse" id="W" x1="3478.05" x2="3646.75" y1="2425.32" y2="2425.32"><stop offset="0" stop-color="#71add5"/><stop offset="1" stop-color="#6062fe"/></linearGradient><linearGradient gradientTransform="matrix(.72782 1.26716 -1.59088 .56839 3244.85 -2227.46)" gradientUnits="userSpaceOnUse" id="X" x1="3474.02" x2="3646.75" y1="2434.91" y2="2425.32"><stop offset="0" stop-color="#71add5"/><stop offset="1" stop-color="#6062fe"/></linearGradient><linearGradient gradientTransform="matrix(1.05579 .48647 -.70644 1.257 -83.2342 -563.374)" gradientUnits="userSpaceOnUse" id="Y" x1="3575.43" x2="3646.75" y1="2369.75" y2="2425.32"><stop offset="0" stop-color="#71add5"/><stop offset="1" stop-color="#6062fe"/></linearGradient><linearGradient gradientTransform="matrix(.69377 .93275 -1.22222 .76503 2491.71 -840.199)" gradientUnits="userSpaceOnUse" id="Z" x1="3575.43" x2="3646.75" y1="2369.75" y2="2425.32"><stop offset="0" stop-color="#71add5"/><stop offset="1" stop-color="#6062fe"/></linearGradient><linearGradient gradientTransform="matrix(.69377 .93275 -1.22222 .76503 2645.4 -850.319)" gradientUnits="userSpaceOnUse" id="aa" x1="3575.43" x2="3646.75" y1="2369.75" y2="2425.32"><stop offset="0" stop-color="#71add5"/><stop offset="1" stop-color="#6062fe"/></linearGradient><linearGradient gradientTransform="matrix(.69377 .93275 -1.22222 .76503 2571.5 -1041.43)" gradientUnits="userSpaceOnUse" id="ab" x1="3575.43" x2="3646.75" y1="2369.75" y2="2425.32"><stop offset="0" stop-color="#71add5"/><stop offset="1" stop-color="#6062fe"/></linearGradient><linearGradient gradientTransform="matrix(.72782 1.26716 -1.59088 .56839 3451.75 -2050.79)" gradientUnits="userSpaceOnUse" id="ac" x1="3362.23" x2="3646.75" y1="2384.91" y2="2425.32"><stop offset="0" stop-color="#71add5"/><stop offset="1" stop-color="#6062fe"/></linearGradient><linearGradient gradientTransform="matrix(.72782 1.26716 -1.59088 .56839 3766.4 -1839.24)" gradientUnits="userSpaceOnUse" id="ad" x1="3495" x2="3646.75" y1="2411.21" y2="2425.32"><stop offset="0" stop-color="#71add5"/><stop offset="1" stop-color="#6062fe"/></linearGradient><linearGradient gradientTransform="matrix(.72782 1.26716 -1.59088 .56839 3887.17 -1925.44)" gradientUnits="userSpaceOnUse" id="ae" x1="3495" x2="3646.75" y1="2411.21" y2="2425.32"><stop offset="0" stop-color="#71add5"/><stop offset="1" stop-color="#6062fe"/></linearGradient><linearGradient gradientTransform="matrix(.95008 1.23889 -2.07671 .55571 4338.76 -1617.98)" gradientUnits="userSpaceOnUse" id="af" x1="3490.5" x2="3646.75" y1="2406.69" y2="2425.32"><stop offset="0" stop-color="#71add5"/><stop offset="1" stop-color="#6062fe"/></linearGradient><linearGradient gradientTransform="matrix(.72782 1.26716 -1.59088 .56839 3832.35 -1698.29)" gradientUnits="userSpaceOnUse" id="ag" x1="3495" x2="3646.75" y1="2411.21" y2="2425.32"><stop offset="0" stop-color="#71add5"/><stop offset="1" stop-color="#6062fe"/></linearGradient><linearGradient gradientTransform="matrix(.09043 -1.4585 1.6409 .4018 -2408.43 8090.25)" gradientUnits="userSpaceOnUse" id="ah" x1="3421.76" x2="3646.75" y1="2405.97" y2="2425.32"><stop offset="0" stop-color="#71add5"/><stop offset="1" stop-color="#6062fe"/></linearGradient><linearGradient gradientTransform="matrix(.09043 -1.4585 1.6409 .4018 -2254.08 8240.91)" gradientUnits="userSpaceOnUse" id="ai" x1="3421.76" x2="3646.75" y1="2405.97" y2="2425.32"><stop offset="0" stop-color="#71add5"/><stop offset="1" stop-color="#6062fe"/></linearGradient><linearGradient gradientTransform="rotate(-7.875 -4651.89025143 8064.42499237)" gradientUnits="userSpaceOnUse" id="aj" x1="3457.39" x2="3646.75" y1="2438.8" y2="2425.32"><stop offset="0" stop-color="#71add5"/><stop offset="1" stop-color="#6062fe"/></linearGradient><linearGradient gradientUnits="userSpaceOnUse" id="ak" x1="3633.22" x2="3871.11" y1="2450.4" y2="2450.4"><stop offset="0" stop-color="#71add5"/><stop offset="1" stop-color="#6062fe"/></linearGradient><linearGradient gradientUnits="userSpaceOnUse" id="al" x1="3857.22" x2="3970.31" y1="2372.7" y2="2388.58"><stop offset="0" stop-color="#71add5" stop-opacity=".0861501"/><stop offset="1" stop-color="#71add5" stop-opacity=".345435"/></linearGradient><linearGradient gradientTransform="translate(-1029.08 -900.241)" gradientUnits="userSpaceOnUse" id="am" x1="3903.01" x2="3970.31" y1="2369.41" y2="2388.58"><stop offset="0" stop-color="#71add5"/><stop offset="1" stop-color="#6062fe"/></linearGradient><linearGradient gradientTransform="rotate(37.02 5187.27228885 519.48593099)" gradientUnits="userSpaceOnUse" id="an" x1="4087.17" x2="3970.31" y1="2164.47" y2="2388.58"><stop offset="0" stop-color="#71add5"/><stop offset="1" stop-color="#6062fe"/></linearGradient><linearGradient gradientTransform="rotate(37.02 547.53714265 1.94429615)" gradientUnits="userSpaceOnUse" id="ao" x1="4087.17" x2="3970.31" y1="2164.47" y2="2388.58"><stop offset="0" stop-color="#71add5" stop-opacity=".0861501"/><stop offset="1" stop-color="#71add5" stop-opacity=".345435"/></linearGradient><linearGradient gradientTransform="rotate(37.02 34.52737047 756.93927674)" gradientUnits="userSpaceOnUse" id="ap" x1="4087.17" x2="3970.31" y1="2164.47" y2="2388.58"><stop offset="0" stop-color="#71add5" stop-opacity=".0861501"/><stop offset="1" stop-color="#71add5" stop-opacity=".345435"/></linearGradient><linearGradient gradientTransform="rotate(37.02 688.6828721 1748.95375717)" gradientUnits="userSpaceOnUse" id="aq" x1="4087.17" x2="3970.31" y1="2164.47" y2="2388.58"><stop offset="0" stop-color="#71add5" stop-opacity=".0861501"/><stop offset="1" stop-color="#71add5" stop-opacity=".345435"/></linearGradient><linearGradient gradientTransform="rotate(37.02 434.14620454 1488.50107736)" gradientUnits="userSpaceOnUse" id="ar" x1="4087.17" x2="3970.31" y1="2164.47" y2="2388.58"><stop offset="0" stop-color="#71add5" stop-opacity=".0861501"/><stop offset="1" stop-color="#71add5" stop-opacity=".345435"/></linearGradient><linearGradient gradientTransform="rotate(37.02 204.15186278 953.60023004)" gradientUnits="userSpaceOnUse" id="as" x1="4087.17" x2="3970.31" y1="2164.47" y2="2388.58"><stop offset="0" stop-color="#71add5" stop-opacity=".0861501"/><stop offset="1" stop-color="#71add5" stop-opacity=".345435"/></linearGradient><linearGradient gradientTransform="rotate(37.02 405.0469042 327.5445531)" gradientUnits="userSpaceOnUse" id="at" x1="4087.17" x2="3970.31" y1="2164.47" y2="2388.58"><stop offset="0" stop-color="#71add5" stop-opacity=".0861501"/><stop offset="1" stop-color="#71add5" stop-opacity=".345435"/></linearGradient><linearGradient gradientUnits="userSpaceOnUse" id="au" x1="3483.64" x2="3617.16" y1="2515.49" y2="2515.49"><stop offset="0" stop-color="#71add5"/><stop offset="1" stop-color="#7374d2"/></linearGradient><linearGradient gradientTransform="rotate(14.546 7579.16738777 -2034.33581038)" gradientUnits="userSpaceOnUse" id="av" x1="3483.64" x2="3617.16" y1="2515.49" y2="2515.49"><stop offset="0" stop-color="#71add5"/><stop offset="1" stop-color="#6062fe"/></linearGradient><linearGradient gradientTransform="rotate(14.546 7113.66712603 -1312.41069605)" gradientUnits="userSpaceOnUse" id="aw" x1="3483.64" x2="3617.16" y1="2515.49" y2="2515.49"><stop offset="0" stop-color="#71add5"/><stop offset="1" stop-color="#6062fe"/></linearGradient><linearGradient gradientUnits="userSpaceOnUse" id="ax" x1="3618.84" x2="3875.97" y1="2694.26" y2="2694.26"><stop offset="0" stop-color="#71add5"/><stop offset="1" stop-color="#7374d2"/></linearGradient><linearGradient gradientUnits="userSpaceOnUse" id="ay" x1="3640.4" x2="3856.22" y1="2656.78" y2="2656.78"><stop offset="0" stop-color="#71add5" stop-opacity=".0861501"/><stop offset="1" stop-color="#71add5" stop-opacity=".345435"/></linearGradient><linearGradient gradientTransform="matrix(.78467 .24015 -.2407 .78644 1202.23 383.129)" gradientUnits="userSpaceOnUse" id="az" x1="1819.29" x2="2031.2" y1="1913.06" y2="1913.06"><stop offset="0" stop-color="#71add5"/><stop offset="1" stop-color="#7374d2"/></linearGradient><linearGradient gradientTransform="matrix(.78467 .24015 -.2407 .78644 1550.13 369.033)" gradientUnits="userSpaceOnUse" id="aA" x1="1819.29" x2="2031.2" y1="1913.06" y2="1913.06"><stop offset="0" stop-color="#71add5"/><stop offset="1" stop-color="#7374d2"/></linearGradient><linearGradient gradientTransform="matrix(.78467 .24015 -.2407 .78644 1366.52 408.038)" gradientUnits="userSpaceOnUse" id="aB" x1="1819.29" x2="2031.2" y1="1913.06" y2="1913.06"><stop offset="0" stop-color="#71add5"/><stop offset="1" stop-color="#7374d2"/></linearGradient><linearGradient gradientTransform="matrix(.78467 .24015 -.2407 .78644 1363.95 571.991)" gradientUnits="userSpaceOnUse" id="aC" x1="1819.29" x2="2031.2" y1="1913.06" y2="1913.06"><stop offset="0" stop-color="#71add5"/><stop offset="1" stop-color="#7374d2"/></linearGradient><linearGradient gradientTransform="matrix(.78467 .24015 -.2407 .78644 1204.63 589.899)" gradientUnits="userSpaceOnUse" id="aD" x1="1819.29" x2="2031.2" y1="1913.06" y2="1913.06"><stop offset="0" stop-color="#71add5"/><stop offset="1" stop-color="#7374d2"/></linearGradient><linearGradient gradientTransform="matrix(.78467 .24015 -.2407 .78644 1466.98 596.995)" gradientUnits="userSpaceOnUse" id="aE" x1="1819.29" x2="2031.2" y1="1913.06" y2="1913.06"><stop offset="0" stop-color="#71add5"/><stop offset="1" stop-color="#7374d2"/></linearGradient><linearGradient gradientTransform="matrix(.78467 .24015 -.2407 .78644 1202.23 383.129)" gradientUnits="userSpaceOnUse" id="aF" x1="1889.69" x2="2281.87" y1="1723.27" y2="1723.27"><stop offset="0" stop-color="#71add5"/><stop offset="1" stop-color="#7374d2"/></linearGradient><linearGradient gradientTransform="matrix(.80454 -.16156 .16193 .80635 -4.67932 1124.18)" gradientUnits="userSpaceOnUse" id="aG" x1="1819.29" x2="2031.2" y1="1913.06" y2="1913.06"><stop offset="0" stop-color="#71add5"/><stop offset="1" stop-color="#7374d2"/></linearGradient><linearGradient gradientUnits="userSpaceOnUse" id="aH" x1="2078.7" x2="2240.56" y1="2182.89" y2="2182.89"><stop offset="0" stop-color="#71add5"/><stop offset="1" stop-color="#7377d2"/></linearGradient><linearGradient gradientUnits="userSpaceOnUse" id="aI" x1="1919.14" x2="2156.75" y1="2295.46" y2="2295.46"><stop offset="0" stop-color="#71add5"/><stop offset="1" stop-color="#7374d2"/></linearGradient><linearGradient gradientTransform="matrix(.80454 -.16156 .16193 .80635 227.356 1213.51)" gradientUnits="userSpaceOnUse" id="aJ" x1="1819.29" x2="2031.2" y1="1913.06" y2="1913.06"><stop offset="0" stop-color="#71add5"/><stop offset="1" stop-color="#7374d2"/></linearGradient><linearGradient gradientTransform="matrix(.80454 -.16156 .16193 .80635 95.6887 1304.97)" gradientUnits="userSpaceOnUse" id="aK" x1="1819.29" x2="2031.2" y1="1913.06" y2="1913.06"><stop offset="0" stop-color="#71add5"/><stop offset="1" stop-color="#7374d2"/></linearGradient><linearGradient gradientTransform="matrix(.80454 -.16156 .16193 .80635 329.894 1186.56)" gradientUnits="userSpaceOnUse" id="aL" x1="1819.29" x2="2031.2" y1="1913.06" y2="1913.06"><stop offset="0" stop-color="#71add5"/><stop offset="1" stop-color="#7374d2"/></linearGradient><linearGradient gradientTransform="matrix(.80454 -.16156 .16193 .80635 -4.67932 1124.18)" gradientUnits="userSpaceOnUse" id="aM" x1="1889.69" x2="2281.87" y1="1723.27" y2="1723.27"><stop offset="0" stop-color="#71add5"/><stop offset="1" stop-color="#7374d2"/></linearGradient><linearGradient gradientTransform="matrix(.92603 -.19065 .18638 .95152 391.815 1226.82)" gradientUnits="userSpaceOnUse" id="aN" x1="1819.29" x2="2031.2" y1="1913.06" y2="1913.06"><stop offset="0" stop-color="#71add5"/><stop offset="1" stop-color="#7377d2"/></linearGradient><linearGradient gradientTransform="matrix(.92603 -.19065 .18638 .95152 736.441 1017.11)" gradientUnits="userSpaceOnUse" id="aO" x1="1819.29" x2="2031.2" y1="1913.06" y2="1913.06"><stop offset="0" stop-color="#71add5"/><stop offset="1" stop-color="#7377d2"/></linearGradient><linearGradient gradientTransform="matrix(.92603 -.19065 .18638 .95152 571.819 1160.56)" gradientUnits="userSpaceOnUse" id="aP" x1="1819.29" x2="2031.2" y1="1913.06" y2="1913.06"><stop offset="0" stop-color="#71add5"/><stop offset="1" stop-color="#7377d2"/></linearGradient><linearGradient gradientTransform="matrix(.92603 -.19065 .18638 .95152 658.889 1332.24)" gradientUnits="userSpaceOnUse" id="aQ" x1="1819.29" x2="2031.2" y1="1913.06" y2="1913.06"><stop offset="0" stop-color="#71add5"/><stop offset="1" stop-color="#7377d2"/></linearGradient><linearGradient gradientTransform="matrix(.92603 -.19065 .18638 .95152 507.339 1440.16)" gradientUnits="userSpaceOnUse" id="aR" x1="1819.29" x2="2031.2" y1="1913.06" y2="1913.06"><stop offset="0" stop-color="#71add5"/><stop offset="1" stop-color="#7377d2"/></linearGradient><linearGradient gradientTransform="matrix(.92603 -.19065 .18638 .95152 776.911 1300.42)" gradientUnits="userSpaceOnUse" id="aS" x1="1819.29" x2="2031.2" y1="1913.06" y2="1913.06"><stop offset="0" stop-color="#71add5"/><stop offset="1" stop-color="#7377d2"/></linearGradient><linearGradient gradientTransform="matrix(.92817 -.19032 .1868 .94988 387.016 1229.19)" gradientUnits="userSpaceOnUse" id="aT" x1="1889.69" x2="2281.87" y1="1723.27" y2="1723.27"><stop offset="0" stop-color="#71add5"/><stop offset="1" stop-color="#7377d2"/></linearGradient><linearGradient gradientTransform="matrix(1.14592 -.22614 .23063 1.12868 -394.534 1444.73)" gradientUnits="userSpaceOnUse" id="aU" x1="1819.29" x2="2031.2" y1="1913.06" y2="1913.06"><stop offset="0" stop-color="#71add5"/><stop offset="1" stop-color="#7377d2"/></linearGradient><linearGradient gradientTransform="matrix(1.14592 -.22614 .23063 1.12868 31.9251 1195.97)" gradientUnits="userSpaceOnUse" id="aV" x1="1819.29" x2="2031.2" y1="1913.06" y2="1913.06"><stop offset="0" stop-color="#71add5"/><stop offset="1" stop-color="#7377d2"/></linearGradient><linearGradient gradientTransform="matrix(1.14592 -.22614 .23063 1.12868 -171.787 1366.13)" gradientUnits="userSpaceOnUse" id="aW" x1="1819.29" x2="2031.2" y1="1913.06" y2="1913.06"><stop offset="0" stop-color="#71add5"/><stop offset="1" stop-color="#7377d2"/></linearGradient><linearGradient gradientTransform="matrix(1.14592 -.22614 .23063 1.12868 -64.042 1569.77)" gradientUnits="userSpaceOnUse" id="aX" x1="1819.29" x2="2031.2" y1="1913.06" y2="1913.06"><stop offset="0" stop-color="#71add5"/><stop offset="1" stop-color="#7377d2"/></linearGradient><linearGradient gradientTransform="matrix(1.14592 -.22614 .23063 1.12868 -251.578 1697.79)" gradientUnits="userSpaceOnUse" id="aY" x1="1819.29" x2="2031.2" y1="1913.06" y2="1913.06"><stop offset="0" stop-color="#71add5"/><stop offset="1" stop-color="#7377d2"/></linearGradient><linearGradient gradientTransform="matrix(1.14592 -.22614 .23063 1.12868 82.0045 1532.03)" gradientUnits="userSpaceOnUse" id="aZ" x1="1819.29" x2="2031.2" y1="1913.06" y2="1913.06"><stop offset="0" stop-color="#71add5"/><stop offset="1" stop-color="#7377d2"/></linearGradient><linearGradient gradientTransform="matrix(1.14592 -.22614 .23063 1.12868 -394.534 1444.73)" gradientUnits="userSpaceOnUse" id="ba" x1="1889.69" x2="2281.87" y1="1723.27" y2="1723.27"><stop offset="0" stop-color="#71add5"/><stop offset="1" stop-color="#7377d2"/></linearGradient><linearGradient gradientTransform="matrix(.75217 .70852 -.67942 .82755 1812.71 -346.427)" gradientUnits="userSpaceOnUse" id="bb" x1="1819.29" x2="2031.2" y1="1913.06" y2="1913.06"><stop offset="0" stop-color="#71add5"/><stop offset="1" stop-color="#7377d2"/></linearGradient><linearGradient gradientTransform="matrix(.75217 .70852 -.67942 .82755 2209.1 -178.763)" gradientUnits="userSpaceOnUse" id="bc" x1="1819.29" x2="2031.2" y1="1913.06" y2="1913.06"><stop offset="0" stop-color="#71add5"/><stop offset="1" stop-color="#7377d2"/></linearGradient><linearGradient gradientTransform="matrix(.75217 .70852 -.67942 .82755 1983.43 -228.905)" gradientUnits="userSpaceOnUse" id="bd" x1="1819.29" x2="2031.2" y1="1913.06" y2="1913.06"><stop offset="0" stop-color="#71add5"/><stop offset="1" stop-color="#7377d2"/></linearGradient><linearGradient gradientTransform="matrix(.75217 .70852 -.67942 .82755 1895.02 -31.0947)" gradientUnits="userSpaceOnUse" id="be" x1="1819.29" x2="2031.2" y1="1913.06" y2="1913.06"><stop offset="0" stop-color="#71add5"/><stop offset="1" stop-color="#7377d2"/></linearGradient><linearGradient gradientTransform="matrix(.75217 .70852 -.67942 .82755 1707.53 -93.9585)" gradientUnits="userSpaceOnUse" id="bf" x1="1819.29" x2="2031.2" y1="1913.06" y2="1913.06"><stop offset="0" stop-color="#71add5"/><stop offset="1" stop-color="#7377d2"/></linearGradient><linearGradient gradientTransform="matrix(.75217 .70852 -.67942 .82755 1997.19 54.0076)" gradientUnits="userSpaceOnUse" id="bg" x1="1819.29" x2="2031.2" y1="1913.06" y2="1913.06"><stop offset="0" stop-color="#71add5"/><stop offset="1" stop-color="#7377d2"/></linearGradient><linearGradient gradientTransform="matrix(.75217 .70852 -.67942 .82755 1812.71 -346.427)" gradientUnits="userSpaceOnUse" id="bh" x1="1889.69" x2="2281.87" y1="1723.27" y2="1723.27"><stop offset="0" stop-color="#71add5"/><stop offset="1" stop-color="#7377d2"/></linearGradient></defs><path d="M918.32 722.448c328.58-232.337 468.06-237.91 722.96-313.811 254.91-75.9 427.84-125.895 672.08-124.558 221.34 1.211 226.29 66.422 332.07 121.924 10.94 5.742 124.11 81.464 424.26 47.995s717.65-147.629 776.35-181.87c58.7-34.241 533.13 54.237 533.13 54.237l391.38 801.795s-58.7 606.55-29.35 675.04c29.35 68.48 39.13 1276.7 39.13 1276.7l-332.63 841.35-675.04 391.33-1041.91 44.03-973.42 63.59-743.82-278.72-361.681-264.25-557.6418-978.32s-73.0059-419.61-62.7916-664.79c10.3141-247.58 74.5464-406.15 112.0604-504.64 46.129-121.11 18.565-120.05 183.518-391.5 164.953-271.44 262.768-383.196 591.346-615.532Z" fill="#030303" vectornator:layerName="Слой 13"/><g vectornator:layerName="Слой 12"><path d="M4622.98 1297.93c-23.03 48.94-142.68 62.67-132.13 197.99 10.56 135.32 119.84 131.78 147.11 274.23 27.28 142.44-17.16 215.31-80.41 332.39-63.25 117.07-172.58 135.9-172.58 135.9l-426.11 994.25s30.34 222.45 94.64 343.55c64.3 121.09 162.56 140.84 162.56 140.84l276.4 106.79 360.85-188.1s111.4-360.29 113.96-508.24c.95-54.71 1.68-41.84 1.2-70.54-1.72-103.71-56.11-405.95-71.54-594.81-20.15-246.64-9.07-538.52-9.07-538.52l-157.39-656.44-145.88-26.88s61.42 8.64 38.39 57.59Z" fill="#001d56"/><path d="M2770.94 775.542c-9.08 62.66 458.47-85.584 692.34-123.594 233.87-38.01 229.58-74.273 259.16-46.327 26.01 24.565-90.51 80.75-151.35 140.419-69.96 68.606-118.73 142.635-62.41 152.949 37.42 6.852 141.43 4.95 238.97-28.439 177.02-60.593 219.04-165.245 359.61-117.54 140.58 47.705-49.19 269.4 104.25 379.5 134.32 96.39 577.38-303.844 577.38-303.844s-17.08-127.634-92.61-253.357-120.14-149.488-238.22-220.154c-118.09-70.666-153.73-77.812-266.01-100.875-112.27-23.063-202.69-16.862-202.69-16.862L3598.8 388.184s-818.79 324.699-827.86 387.358Z" fill="#7ec9cf"/></g><path d="M1529.42 4702.59s673.2 65.51 952.53-78.51c153.16-78.97 183.31 63.12 445.27 80.05 261.96 16.94 210.46-8.4 602.57-12.3 150.89-1.5 356.69-6 487.04-66.31 130.34-60.31 143.82-202.24 327.47-374.69 183.66-172.45 311.55-158.56 407.13-315.12 244.08-399.78 217.75-883.59 217.16-882.19-.59 1.4-148.91 587.05-206.14 629.85-57.23 42.79 75.27-449.28-5.93-461.14-81.19-11.86-163.05 232.32-298.4 380.82-135.35 148.5-129.53 153.37-261.16 232.35-131.64 78.98-128.13 83.75-346.17 134.73-218.04 50.98-525.98 69.19-525.98 69.19l-477.93 8.1-1057.13 121.51-390.04 297.82 129.71 235.84Z" fill="#7ec9cf" vectornator:layerName="Слой 11"/><g vectornator:layerName="Слой 10"><path d="M2600.77 515.34s-134.47 28.014-203.2 82.175c-68.73 54.161-89.64 137.457-89.64 137.457s-11.96 142.686 249.51 106.08c261.47-36.605 403.78-106.827 796.35-252.502 392.58-145.674 561.16-244.518 656.03-313.62 94.88-69.101-96.69-31.347-235.53-8.528-138.85 22.819-135.07 35.42-315.49 83.231-180.41 47.811-251.43 80.543-442.67 113.414-191.25 32.87-415.36 52.293-415.36 52.293Z" fill="#001d56"/><path d="M1183.25 1014.56s432.49-327.682 539.73-399.697c107.23-72.016 179.88-98.432 261.64-116.986 81.77-18.554 120.13-5.032 130.83 30.19 10.69 35.221-50.32 99.375-105.67 127.049-62.78 31.392-201.26 81.764-201.26 81.764l-625.27 277.68ZM22.0838 2415.14s-18.3747 176.19 5.6083 437.08c23.9831 260.88 50.9018 346.39 141.1559 629.71 90.254 283.32 155.316 391.73 272.59 577.07 117.274 185.34 259.436 215.69 302.794 203.33 96.95-27.65-3.488-444.82-51.602-690.08C644.517 3326.99 591.414 3340 591.414 3340s-103.608-10.7-170.149-171.96c-66.54-161.26-64.431-224.21-122.964-436.3-58.534-212.08-43.216-311.47-111.171-412.04-67.955-100.58-156.6289-53.41-156.6289-53.41l-8.4173 148.85Zm4635.0662-428.5s31.41 229.01 19.54 413.7c-11.87 184.7-68.16 186.17-86.55 327.69-19.27 148.29 49.21 248.24 91.81 272.63 42.61 24.39 135.68-38.88 158.55-187.01 22.76-147.39 11.03-187.13-19.7-396.21-30.74-209.08-163.65-430.8-163.65-430.8Z" fill="#7ec9cf"/><path d="M4625.35 1034.32c39.12 82.38-33.18 122.46-40.04 198.93-6.86 76.47 9.47 100.63 56.92 139.51 47.44 38.88 66.4 8.91 104.74 118.37 38.33 109.46 37.44 461.56 65.66 587.93 28.23 126.37 76.07 303.11 80.14 76.66 2.48-138.16-9.63-348.97-26.89-568.29-11.04-140.16-24.18-283.8-36.98-414.19-32.81-334.425-29.58-373.449-100.27-514.32-70.69-140.872-119.7-149.281-190.5-167.445-99.7-25.578-156.37 9.354-206.38 57.9-50.01 48.545-50.76 86.847-34.91 175.034 10.55 58.701 63.74 124.499 121.34 184.123 74.16 76.78 168.04 43.413 207.17 125.788Z" fill="#6c74ab"/><path d="M1513.79 4452.67s272.19 136.31 433.54 175.65c161.34 39.33 176.39-20.79 291.63-71.46 115.24-50.67 73.95-132.41 198.47-138.93 124.52-6.53 165.84 118.28 363.13 159.76 197.28 41.47 315.46 8.74 553.9 15.19 238.43 6.46 258.57 85.71 399.84 10.62 141.26-75.08 174.68-126.05 124.95-241.67-49.74-115.63-114.28-224.67-323.89-220.84-209.61 3.84-243.51 136.73-390.05 136.24-146.54-.49-73.95-99.43-196.11-138.21-122.17-38.79-292.54-16.94-292.54-16.94s-207.24-106.49-329.3-134.13c-122.05-27.64-158.93 23.56-158.93 23.56l-250.16 168.22-147.33-26.91s-155.21 103.16-272.81 63.27c-117.6-39.88-148.75-171.43-207.89-191.47-59.15-20.04-89.1 54.95-173.71 59.79-84.62 4.84-116.74 13.4-199.526-32.19-82.79-45.59-154.79-140.22-154.79-140.22s-63.232-141.88-162.274-120.94c-64.55 13.64 35.502 229.87 44.947 354.45 9.445 124.59-162.128-6.83-166.896-10.77-4.768-3.95 329.413 361.71 578.749 475.21 249.33 113.51 508.3 99.06 508.3 99.06s-115.42-136.5-133.23-200.59c-17.81-64.08 61.98-55.75 61.98-55.75Z" fill="#001d56"/></g><path d="M1468.58 2338.44c0-827.51 663.87-1498.346 1482.79-1498.346 818.93 0 1482.8 670.836 1482.8 1498.346 0 827.52-663.87 1498.35-1482.8 1498.35-818.92 0-1482.79-670.83-1482.79-1498.35Z" fill="#676fac" vectornator:layerName="Слой 9"/><g vectornator:layerName="Слой 8"><path d="M1514.55 2327.42c0-788.06 640.13-1426.908 1429.76-1426.908S4374.06 1539.36 4374.06 2327.42c0 788.05-640.12 1426.9-1429.75 1426.9s-1429.76-638.85-1429.76-1426.9Z" fill="#9199d5"/><path d="m667.743 1914.64-279.579 189.07s-12.931 182.25-14.018 319.3c-1.087 137.06 14.584 238.69 14.584 238.69l245.003 181.13 34.01-928.19Z" fill="#676fac"/><path d="m481.686 2261.04 58.778-11.26 69.781-13.36s-5.979-53.92-6.059-54.22c-2.055-7.59-59.906 15.14-116.948 28.58-57.042 13.45-106.848 22.3-106.848 22.3l-2.654 47.94s45.822-8.83 103.95-19.98Zm-2.535 131.34 59.49-6.51 70.628-7.74s-1.643-54.23-1.699-54.53c-1.44-7.73-60.926 10.29-118.861 19.13-57.936 8.83-113.844 16.4-113.844 16.4l-.93 44.84s46.382-5.13 105.216-11.59Zm-4.283 135.72 59.082 9.53 70.143 11.32s12.829-52.72 12.855-53.02c.667-7.84-61.469-6.27-119.669-13.15-58.2-6.89-123.06-12.89-123.06-12.89l1.055 40.59s41.16 8.21 99.594 17.62Zm1.883 140.57 55.075 23.42 65.383 27.8s25.094-48.1 25.193-48.39c2.526-7.45-58.174-20.83-113.026-41.46-54.852-20.64-129.246-47.9-129.246-47.9l3.824 44.88s38.324 18.5 92.797 41.65Zm9.341-536.79c53.843-13.46 114.146-27.28 114.146-27.28s13.689-56.25 12.923-59.58c-.465-2.02-127.787 41.64-127.787 41.64l-98.551 33.96-2.264 37.25s47.69-12.52 101.533-25.99Z" fill="#4c5387"/></g><path d="M1605.98 2321.63c0-725.82 597.28-1314.22 1334.06-1314.22 414.22 0 784.34 185.98 1029.03 477.79 190.55 227.24 305.03 518.66 305.03 836.43 0 725.81-597.28 1314.21-1334.06 1314.21s-1334.06-588.4-1334.06-1314.21Z" fill="#676fac" vectornator:layerName="Слой 7"/><g vectornator:layerName="Слой 1"><path d="M1667.65 2336.69c0-655.81 601.58-1252.74 1290.85-1252.74 689.26 0 1233.69 575.21 1250.5 1230.81 18.44 718.93-566.57 1283.54-1255.83 1283.54-689.27 0-1285.52-605.79-1285.52-1261.61Z" fill="#121538"/><path d="M1241.41 1143.46s-192.81 103.61-189.06 744.81c3.75 641.2 167.86 1727.9 167.86 1727.9l362.24-821.33s74.25-259.94 71.93-122.63c-2.32 137.31.88 375.46-60.88 618.81-61.01 240.37-225.11 499.9-289.22 554-21.18 17.87-151.69 62.11-243.78 32.39-53.77-17.36-90.234-74.87-136.474-142.75-141.155-207.23-288.317-833.82-288.317-1508.51 0-225.52 15.849-410.1 42.934-565.87 48.021-276.16 131.363-461.75 224.323-624.3 31.627-55.302 69.269-112.061 112.604-128.637 71.16-27.215 261.77-12.574 313.63 16.363 51.37 28.672 95.63 90.684 170.28 246.914s103.65 265.93 127.68 381.45c47.57 228.66 44.73 486.08 24.2 570.73-20.53 84.66-106.33-232.12-106.33-232.12l-303.62-747.22Z" fill="#9199d5"/></g><path d="M585.508 2399.33c0-891.25 269.96-1613.754 602.972-1613.754 333.01 0 602.97 722.504 602.97 1613.754 0 891.26-269.96 1613.76-602.97 1613.76-333.012 0-602.972-722.5-602.972-1613.76Z" fill="#676fac" vectornator:layerName="Слой 14"/><path d="M645.262 2400.35c0-852.6 243.115-1543.774 543.008-1543.774 299.9 0 543.01 691.174 543.01 1543.774 0 852.61-243.11 1543.78-543.01 1543.78-299.893 0-543.008-691.17-543.008-1543.78Z" fill="#9199d5" vectornator:layerName="Слой 15"/><path d="m609.499 1949.14-5.083 48.76s-177.635 75.85-191.495 104.95c-11.247 23.62-35.252 516.58-4.774 553.4 19.637 23.73 194.107 121.21 194.107 121.21l5.508 58.54s-232.952-112-247.686-149.84c-25.859-66.41-13.613-543.96 5.722-598.55 23.561-66.53 243.701-138.47 243.701-138.47Z" fill="#4c5387" vectornator:layerName="Слой 16"/><path d="m3468.75 2405.2 100.77-125.96 126.8-47.87 157.87 5.88 135.2 82.29 56.27 52.91-186.43 359.41-64.66 97.56-135.2-98.4-171.31-188.94-31.07-148.64 11.76 11.76Zm-880.22-1266.49-53.05 41.68-64.52 46.92-12.94 10.75 197.78 467.5 403.25-296.02-74.47-158.05-97.43-82.23-163.22-52.55-135.4 22ZM1604.66 3808.3l122.95-164.04 155.94-87.72 219.53-7.44 162.67 632.28 91.31 39.06-256.22 341.64-148.76-55.47-94.73-220.01 21.33-103.79-249.28-13.96-55.94-203.3 31.2-157.25Zm872.92 101.59-120.51 461.41 456.29 3.15 69.22-155.01-125.32-248.6-116.59-57.12-18.64-3.88-144.45.05Z" vectornator:layerName="Слой 6" fill="#303273"/><g vectornator:layerName="Слой 5"><path d="m1851.11 1771.33 205.17-124.17 132.56-7.18 171.36 52.3-75.73 565.6-531.98-212.19-12.49-17.87 30.04-143.79 81.07-112.7Z" fill="#141428"/><path d="m1766.46 1900.09-26.32 127.47 216.88 1.43-41.47-141.22-149.09 12.32Z" fill="url(#a)"/><path d="m2201.54 1644.26-68 108.65 115.12 97.55 95.19-162.76-142.31-43.44Z" fill="url(#b)"/><path d="m1926.23 1883.69 45.83 137.24 262.89-159.37-112.28-99.08-196.44 121.21Z" fill="url(#c)"/><path d="m1978.91 2038.4 291.41 197.6-23.57-359.16-267.84 161.56Z" fill="url(#d)"/><path d="m1752.72 2046.05 253.91 101.05 256.17 101.93-219.47-143.38-87.41-57.11-203.2-2.49Z" fill="url(#e)"/><path d="m2360.06 1694.13-47.05 362.55-25 170.16-25.09-361.2 46.69-82.43 50.45-89.08Z" fill="url(#f)"/><path d="m1770.1 1883.45 143.08-11.17 205.08-124.85 69.58-107.74-133.85 8.2-203.07 123.31-80.82 112.25Z" fill="url(#g)"/><path d="M2332.76 1801.7 2550 1699.47l134.19 7.39 168.28 71.46-124.06 560.25-518.19-271.93-11.09-19.35 42.42-141.23 91.21-104.36Z" fill="#141428"/><path d="m2236.59 1921.81-37.29 125.24 218.44 25.34-29.87-146.54-151.28-4.04Z" fill="url(#h)"/><path d="m2696.63 1712.57-77.7 101.73 107.78 110.75 109.67-153.13-82.53-35.05-57.22-24.3Z" fill="url(#i)"/><path d="m2398.98 1922.92 34.59 143.02 278.39-131.25-104.79-111.97-208.19 100.2Z" fill="url(#j)"/><path d="m2439 2084.26 277 230.76 6.56-363.66-283.56 132.9Z" fill="url(#k)"/><path d="m2210.42 2067.03 496.9 260.25-292.34-235.36-204.56-24.89Z" fill="url(#l)"/><path d="m2852.17 1780.17-78.01 359.28-39.57 168.3 5.21-365.87 54.01-77.72 58.36-83.99Z" fill="url(#m)"/><path d="m2241.66 1905.48 145.13 4.54L2604 1807.1l79.21-100.63-135.58-6.51-215.05 101.58-90.92 103.94Z" fill="url(#n)"/><path d="m2815.97 2117.26 181.75-114.27 117.44-6.61 151.8 48.13-67.08 520.48-471.27-195.26-11.08-16.45 26.62-132.32 71.82-103.7Z" fill="#141428"/><path d="m2740.98 2235.74-23.32 117.31 192.14 1.31-36.75-129.95-132.07 11.33Z" fill="url(#o)"/><path d="m3126.41 2000.33-60.24 99.98 101.98 89.76 84.33-149.77-126.07-39.97Z" fill="url(#p)"/><path d="m2882.52 2220.65 40.59 126.3 232.9-146.67-99.47-91.17-174.02 111.54Z" fill="url(#q)"/><path d="m2929.18 2363.02 258.16 181.84-20.88-330.51-237.28 148.67Z" fill="url(#r)"/><path d="m2728.81 2370.06 451.87 186.79-271.86-184.5-180.01-2.29Z" fill="url(#s)"/><path d="m3266.84 2046.22-41.68 333.62-22.15 156.59-22.23-332.39 41.37-75.85 44.69-81.97Z" fill="url(#t)"/><path d="m2744.2 2220.43 126.76-10.28 181.67-114.89 61.64-99.14-118.57 7.54-179.9 113.48-71.6 103.29Z" fill="url(#u)"/><path d="m2999.33 2734.22 139.7-81.12 86.29 5.86 108.21 56.71-79.78 444.6-333.21-215.8-7.13-15.35 27.27-112.08 58.65-82.82Z" fill="#141428"/><path d="m2937.49 2829.54-23.98 99.39 140.47 20.1-19.21-116.28-97.28-3.21Z" fill="url(#v)"/><path d="m3233.32 2663.49-49.97 80.73 69.31 87.89 70.52-121.52-89.86-47.1Z" fill="url(#w)"/><path d="m3041.92 2830.42 22.24 113.5 179.01-104.16-67.38-88.86-133.87 79.52Z" fill="url(#x)"/><path d="m3067.65 2958.46 178.12 183.12 4.22-288.59-182.34 105.47Z" fill="url(#y)"/><path d="m2920.66 2944.78 319.53 206.54-187.99-186.79-131.54-19.75Z" fill="url(#z)"/><path d="m3333.34 2717.14-50.17 285.11-25.44 133.57 3.35-290.36 34.73-61.67 37.53-66.65Z" fill="url(#A)"/><path d="m2940.75 2816.58 93.33 3.6 139.67-81.67 50.93-79.87-87.17-5.16-138.29 80.62-58.47 82.48Z" fill="url(#B)"/><path d="m2826.8 3031.27 214.5-104.99 132.51 7.59 166.15 73.39-122.49 575.43-511.66-279.3-10.95-19.87 41.89-145.06 90.05-107.19Z" fill="#141428"/><path d="m2731.85 3154.63-36.82 128.65 215.69 26.01-29.5-150.5-149.37-4.16Z" fill="url(#C)"/><path d="m3186.09 2939.73-76.72 104.49 106.42 113.74 108.28-157.27-137.98-60.96Z" fill="url(#D)"/><path d="m2892.19 3155.78 34.16 146.9 274.88-134.81-103.47-115.01-205.57 102.92Z" fill="url(#E)"/><path d="m2931.71 3321.49 273.5 237.01 6.48-373.51-279.98 136.5Z" fill="url(#F)"/><path d="m2706 3303.79 490.64 267.31-288.65-241.74-201.99-25.57Z" fill="url(#G)"/><path d="m3339.67 3009.16-77.03 369.01-39.07 172.87 5.14-375.79 53.33-79.83 57.63-86.26Z" fill="url(#H)"/><path d="m2736.85 3137.87 143.3 4.66 214.47-105.71 78.21-103.36-133.86-6.69-212.35 104.34-89.77 106.76Z" fill="url(#I)"/><path d="m3112.84 2565.15 139.7-81.12 86.29 5.86 108.21 56.71-79.78 444.6-333.21-215.8-7.13-15.35 27.27-112.08 58.65-82.82Z" fill="#141428"/><path d="m3051 2660.47-23.98 99.39 140.47 20.1-19.21-116.28-97.28-3.21Z" fill="url(#J)"/><path d="m3346.83 2494.42-49.97 80.73 69.31 87.89 70.52-121.52-89.86-47.1Z" fill="url(#K)"/><path d="m3155.43 2661.35 22.24 113.5 179.02-104.16-67.39-88.86-133.87 79.52Z" fill="url(#L)"/><path d="m3181.16 2789.39 178.12 183.12 4.22-288.59-182.34 105.47Z" fill="url(#M)"/><path d="m3034.17 2775.71 319.53 206.54-187.99-186.79-131.54-19.75Z" fill="url(#N)"/><path d="m3446.85 2548.07-50.17 285.11-25.44 133.57 3.35-290.36 34.73-61.67 37.53-66.65Z" fill="url(#O)"/><path d="m3054.26 2647.51 93.33 3.6 139.67-81.67 50.93-79.86-87.17-5.17-138.29 80.62-58.47 82.48Z" fill="url(#P)"/><path d="M3264.32 3566.22c.71-2.21.13-1.28 1.66-2.84m43.33-10.07c-.38-.38-.76-.75-1.14-1.12m-46.21 5.03-1.16-3.38-1.69.59-.52 3.95" fill="#6064bd"/><path d="m3599.99 3519.87-410.71 45.49-88.99 13.39-86.51 3.12s-22.21 25.53 22.79 39.14c45.01 13.61 102.7 23.41 169.97 25.96 67.27 2.55 458.78-20.65 458.78-20.65m185.77-57.25-10.28 70.39s75.49 6.39 155.76-3.64 107.11-11.73 170.39-40.05c63.28-28.32 90.28-76.37 90.28-76.37l-406.15 49.67Z" fill="#414487"/><path d="M3300.8 3546.48s16.83 97.14 26.62 258.87c9.78 161.72 12.53 388.02 12.53 388.02s31.69 19.17 68.11 20.84c36.42 1.68 77.56-14.13 77.56-14.13s41.02-276.49 64.37-445.54c23.36-169.04 19.36-233.06 19.36-233.06l-268.55 25Zm279.03-16.94s-4.24 244.56 1.62 412.1c5.85 167.53 7.25 260.48 7.25 260.48s32.46 23.59 66.13 22.58c33.67-1.01 68.55-26.61 68.55-26.61l132.37-641.36-275.92-27.19Z" fill="#de7bb8"/><path d="m3563.83 2316.43 103.31-57.23 168.78-.48 90.69 55.29-77.75 48.75-130.32 4.17-52.67 1.68-93.31-48.3-8.73-3.88Z" fill="url(#Q)"/><path d="m2588.47 1138.67 135.31-22.78 164.49 51.21 96.39 84.32-115.75 26.15-178.94-48.65-101.5-90.25Z" fill="url(#R)"/><path d="m1573.3 3965.35 29.82-157.32 123.38-166.58 158.35-85.34-19.54 148.06-141.89 189.2-150.12 71.98Z" fill="url(#S)"/><path d="m1951.79 4506.4-68.18-88.3-36.79-136.47 33.71-116.52 69.04 87.36 32.22 144.16-30 109.77Z" fill="url(#T)"/><path d="m2882.6 4219.57-108.89-52.35-112.55-143.27-20.34-110.43 116.44 56.98 92.33 130.97 33.01 118.1Z" fill="url(#U)"/><path d="m3475.53 2426.54 80.04-99.95 99.57 53.99-35.79 128.55-143.82-82.59Z" fill="url(#V)"/><path d="m2470.45 1228.09 105.16-79.12 100.65 92.91-77.32 128.92-128.49-142.71Z" fill="url(#W)"/><path d="m1903.18 3556.78 185.09-6.65-31.24 230.7-172.19-75.91 18.34-148.14Z" fill="url(#X)"/><path d="m1888.92 4155.08 75.27-94.12 106.99 117.98-116.48 55.46-65.78-79.32Z" fill="url(#Y)"/><path d="m1963.48 4246.34 114.54-54.11 47.77 205.15-126.64-3.26-35.67-147.78Z" fill="url(#Z)"/><path d="m2091.59 4192.96 257.13 29.5-206.92 168.9-50.21-198.4Z" fill="url(#aa)"/><path d="m1967.41 4046.75 381.7 170.27-264.6-42.61-117.1-127.66Z" fill="url(#ab)"/><path d="m2106.33 3561.71 95.69 371.78 57.23 222.32-176.26-370.76 23.34-223.34Z" fill="url(#ac)"/><path d="m2477.51 3910.14 21.32 184.15-134.28 249.57 112.96-433.72Z" fill="url(#ad)"/><path d="m2621.76 3909.8 20.98 118.86-129.54 50.07-20-168.8 128.56-.13Z" fill="url(#ae)"/><path d="m2652.18 4042.15 99.5 128.25-91.94 110.78L2521.1 4099l131.08-56.85Z" fill="url(#af)"/><path d="m2508.46 4110.51 133.77 180.5-270.02 64.02 136.25-244.52Z" fill="url(#ag)"/><path d="m1856.02 4054.04-91.1-121.13-23.6-31.37 134.31-178.95 179.03 78.03-198.64 253.42Z" fill="url(#ah)"/><path d="m1875.26 4073.95 195.16-254.53 182.3 355.81-280.65-123.69-11.61 16.12-29.1 34.56-56.1-28.27Z" fill="url(#ai)"/><path d="m2613.12 1378.31 73.89-129.56 175.99 49.43-10.65 150.56-69.14-20.35-170.09-50.08Z" fill="url(#aj)"/><path d="m3671.22 2383.26-38 136.25 176.6 4.15 61.29-55.58-24.5-90.94-175.39 6.12Z" fill="url(#ak)"/><path d="m3859.63 2375.99 23.43 84.3 101.8-102.32-50.94-35.98-74.29 54Z" fill="url(#al)"/><path d="M2867.35 1466.5s-107.29 124.17-150.27 173.91c-42.99 49.74-21.66 25.06-21.66 25.06l-26.07 30.17 388.22-285.52-190.22 56.38Z" fill="url(#am)"/><path d="m2876.12 1297.83-3.34 143.92 179.94-45.72-58.67-123.69-117.93 25.49Z" fill="url(#an)"/><path d="m1577.78 3979.44 49.29 178.34 207.7-86.49-109.48-161.05-147.51 69.2Z" fill="url(#ao)"/><path d="m1968.84 4512.79 132.04 49.33 25.91-147.27-129.55-7.09-28.4 105.03Z" fill="url(#ap)"/><path d="m2820.4 4358.91 55.54-124.18-111.38-52.77-86.81 108.38 142.65 68.57Z" fill="url(#aq)"/><path d="m2813.6 4374.77-154.42-70.2-281.45 66.81 312.82 2.43 123.05.96Z" fill="url(#ar)"/><path d="m2122.06 4533.26 231.5-308.16-208.35 181.35-23.15 126.81Z" fill="url(#as)"/><path d="m1662.83 4170.34 212.28 13.51 5.43-18.78 43.91-53.06-67.41-22.48-194.21 80.81Z" fill="url(#at)"/><path d="m3465.02 2435.29 151.06 96.35-42.33 38.68-86.1-103.85-22.63-31.18Z" fill="url(#au)"/><path d="m2458 1238.03 137.25 152.92 13.73 77.82 38.18 216.25s-62.35-125.07-105.36-229.58c-43-104.51-83.8-217.41-83.8-217.41Z" fill="url(#av)"/><path d="m2609.32 1397.95 236.35 66.7-186.22 216.96-50.13-283.66Z" fill="url(#aw)"/><path d="m3618.84 2732.46 257.13-76.4" fill="url(#ax)"/><path d="m3640.4 2532.38 215.82 4.71-73.37 244.1-142.45-248.81Z" fill="url(#ay)"/><path d="m3578.16 2577.26 43.31-41.12 150.66 251.19-193.97-210.07Z" fill="#4c4f9d"/><path d="M3306.31 1940.5s53.69 3.01 79.34-8.73c25.65-11.75 32.5-49.89 32.5-49.89l152.27-.99 88.09 59.75-74.01 147.75-263.73-29.12-14.46-118.77Z" fill="#fe9fdb"/><path d="M3317.77 1409.46c-49.89 53.12-59.46 78.81-74.88 113.99-14.92 34-26.21 63.54-47.12 140.76-20.91 77.22-37.88 234.27-37.88 234.27l53.98 63.07s66.43-19.93 105.62-20.75c37.84-.78 26.21 1.41 58.27-5.23 12.44-2.58 24.57-12.92 33.1-27.24 11.86-19.9 8.09-47.84 8.09-47.84l-108.51-205.63 25.38-111.13 96.25 26.25 63.01-29.75 90.13 15.75 35.91 39.7-45.54 204.44 17.5 112.88 423.61 225.43s-6.38-45.97-66.9-181.21-69.41-139.27-134.17-268.81c-64.76-129.54-90.07-197.68-124.88-249.34-25.28-37.52-68.22-69.85-108.65-81.88-31.82-9.46-65.52-12.56-95.07-10.62-26.24 1.72-57.28 2.42-90.58 14.42-28.24 10.17-59.44 30.12-76.67 48.47Z" fill="#2f3172"/></g><g vectornator:layerName="Слой 4"><path d="M3227.86 1942.52c-8 20.02-6.11 174.23-6.11 174.23s-16.98 43.53-25.59 85.25c-.08.4-.17.8-.25 1.2-3.61 17.76-5.9 34.8-4.24 48.45.51 4.16 1.15 8.42 1.92 12.76 3.35 18.95 9.04 39.43 15.56 59.28 3.63 11.03 7.52 21.87 11.42 32.13.53 1.39 1.06 2.78 1.59 4.15 14.66 38.04 28.87 67.16 28.87 67.16s16.93 38.75 26.32 66.55c1.42 4.21 2.67 8.18 3.66 11.72.42 1.49.79 2.9 1.11 4.22.33 1.38.31 3.81-.08 7.3-.18 1.66-.44 3.55-.79 5.69-.08.5-.17 1.02-.26 1.54-.01.1-.03.19-.05.29-.02.12-.04.25-.06.38-.19 1.04-.39 2.14-.6 3.28-3.19 16.75-10.05 44.2-20.85 82.78-1.24 4.45-2.86 9.36-4.53 14.42-1.35 4.1-2.73 8.29-3.98 12.43-1.9 6.28-5.72 16.9-7.89 24.14-3.56 11.91-8.57 25.98-12.5 39.02-2.38 7.88-5.95 18.65-8.44 26.88-3.74 12.39-8.25 26.1-12.5 39.65-1.31 4.16-2.59 8.31-3.82 12.4-3.07 10.24-6.11 21.44-9.28 32.04-5.2 17.38-12.16 39.99-17.53 58.11l-.3 1.02c-6.01 20.29-12.6 40.44-18.66 61.4-8.87 30.64-17.24 62.4-26.06 93.79-74.16 263.88-139.44 540.01-124.71 574.71 10.28 24.23 374.8-57.78 374.8-57.78s140.21-11.2 291.2.45c150.99 11.66 166.24 56.27 312.76 46.17 146.51-10.1 270.65-46.32 270.09-71.94-2.1-95.03-292.26-908.09-292.26-908.09l-104.11 37.38-73.86 164.74-102.04-106.2-78.44-4.31s14.73-10.98-4.25-24.02c-8.36-5.74-2.12-20.97-1.61-33.33.98-23.87-3.08-38.34-2.33-39.64.76-1.29-130.76-165.56-130.76-165.56l95.32-119.4 102.65-57.3 175.7-.32s-73.61-36.59-111.01-68c-37.39-31.42-45.94-58.06-48.63-67.56-2.68-9.49-.71-22.94 16.19-67.75 16.89-44.8 37.25-88.28 36.82-112.92-.16-9.28-56.12-30.21-66.28-18.16-10.13 12-81.4 156.97-81.4 156.97s-255.67-17.8-266.01-24.18c-5.23-3.23-8.8-32.75-13.65-68.07-3.09-22.49-1.15-46.57-6.56-54.63-3.17-4.74-22.03-3.99-39.18-3.32-16.63.65-32.37 3.04-34.52 8.4Z" fill="#4c4f9d"/><path d="M3663.65 2143.28c-4.75 6.87-35.93 51.79-35.93 51.79l16.38 34.87s24.31-93.53 19.55-86.66Zm-182.09 2050.76-.93 1.86m6.52-1.86-2.79.93" fill="#6064bd"/><path d="M3486.01 4195.69s-.23 53.75-14.63 109.09c-3.86 14.83-32.09 18.54-34.89 28.52-7.67 27.26 11.22 50.07-8.07 83.75-27.47 47.98-48.32 69.08-75.78 86.58-35.63 22.7-59.88 28.42-120.55 34.21-60.68 5.79-96.34-.36-118.08-15.97-32.92-23.63-35.33-53.7-26.24-94.69 9.08-41 67.68-81.27 67.68-81.27l108.08-81.99 78.57-76.35s32.06 18.87 67.63 20.02c35.56 1.15 76.28-11.9 76.28-11.9Zm102.2-6.78s.93-2.1-14.44 40.53-47.03 129.99-47.03 129.99-19.06 49.39-22.42 96.89c-3.35 47.5 35.42 91.15 103.49 105.8 57.57 12.39 120.46-9.19 146.94-30.29 20.72-16.51 49.31-48.39 42.05-92.52-9.11-55.39-23.94-94.69-36.88-137.31-6.49-21.39-34.88-110.3-34.88-110.3s-29.2 14.77-72.93 17.93c-43.72 3.16-63.9-20.72-63.9-20.72Z" fill="#2f3374"/><path d="M3756.23 1947.99c20.14 8.15 53.41 20.56 84.42 41.72 67.56 46.08 80.53 49.47 155.98 124.14 75.45 74.66 102.62 122.43 128.09 180.11 23.02 52.14 32.12 117.37 6.57 173.92-20.71 45.87-41.98 64.5-88.51 107.1-19.6 17.95-50.7 38.67-81.29 54.05-43.18 21.72-113.74 42.44-181.58 63.71-60.18 18.87-57.7 19.02-89.32 25.64-22.36 4.69-31.81 4.58-60.81 2.04-11.29-.99-29.81-6.17-35.67-13.14-7.33-8.72-.4-20.54-.4-20.54s-20.63-5.64-23.26-21.1c-1.82-10.73 9.82-23.04 9.82-23.04s-16.54-8.81-14.71-22.76c1.65-12.57 13.76-19.9 13.76-19.9s-8.75-3.32-9.9-15.36c-1.45-15.11 13.16-18.69 41.16-19.72 10.85-.4 40.44 1.29 71.36 5.4 33.32 4.44 52.5 13.85 73.2 7.16 24.7-7.98 102.03-74.71 102.03-74.71l136.76-132.86 14.13-13.26-132.86-77.83-72.23-38.75s-30.75-10.82-59.73-35.78c-34.93-30.08-65.62-59.82-68.84-82.37-2.31-16.17 12.05-51.21 30.48-95.04 10.01-23.82 30.09-83.43 30.09-83.43s13.46 1.44 21.26 4.6Zm-995.1 705.18c-1.7.32-4.63-.7-5.1.97-.53 1.86 2.34 3.08 3.51 4.62m795.06-1120.43s22.22 3.45 37.78 6.61c14.99 3.04 21.89 9.64 21.89 9.64s4.26 14.72 8.02 36.91c4.09 24.13 7.59 57.08 4.4 89.53-6.12 62.28-42.61 133.44-42.61 133.44l-6.39 1.24s-28.57-3.49-31.36-14.64c-2.79-11.15-28.58-198.63-28.58-198.63l36.85-64.1Z" fill="#de7bb7"/><path d="M3413.58 1862.41c.34.69.69 1.38 1.04 2.08m3.12 16.12c-1.54 1.53-1.04.55-1.04 3.12" fill="#fe9fdb"/><path d="M3608.89 1903.57c-5.36-3.93-9.88-8.42-12.88-13.53-15.51-26.44-18.68-83.9-18.68-83.9l-101.88 50.03-66.17 1.53s4.91 8.47 6.1 17.48c1.2 9.01-.68 19.93-.68 19.93s26.27 19.38 65.85 21.28c27.95 1.34 49.08-8.47 69.11-6.43 7.96.81 38.71 14.81 49.78 19.52 39.55 16.83 55.1 20.76 55.1 20.76l13.54-23.78s-36.82-6.5-59.19-22.89m-258.56 160.14s82.86 9.62 149.9 17.36c38.21 4.41 76.22 11.93 82.72 7.3 5.19-3.69 8.18-12.37 8.32-13.87.13-1.5-248.56-23.85-258.49-32.69-12.02-10.71-12.54-101.8-12.54-101.8l-16.51-.47s-1.19-2.77.16 12.45c1.34 15.22.23 26.42 3.01 46.8 4.21 30.81 6.68 53.92 12.4 59.52 3.95 3.86 31.03 5.4 31.03 5.4m-639.55-398.48s60.59 139.74 130.65 247.99c48.53 75.01 72.57 109.42 111.21 147.16 17.12 16.73 37.12 34.12 63.39 55.99 85.53 71.21 180 87.12 180 87.12s.45-3 2.15-10.46c1.33-5.79 3.26-14.19 7.04-26.66 8.18-26.96 14.39-79.91 14.39-79.91s5.13-129.57 5.32-132.05c.2-2.49 1.14-12.61 1.19-12.51.4.87-209.66-133.01-278.13-204.44-29.4-30.67-124.38-155.59-124.38-155.59l-54.92 39.83-57.91 43.53Z" fill="#de7bb7"/></g><g vectornator:layerName="Слой 3"><path d="M965.429 2376.97c0-745.29 156.931-1349.48 350.511-1349.48s350.51 604.19 350.51 1349.48c0 745.3-156.93 1349.48-350.51 1349.48-193.58 0-350.511-604.18-350.511-1349.48Z" fill="#676fac"/><path d="M3298.23 2522.33c-8.32 23.49-21.89 137.12-85.52 398.19-63.64 261.06-154 516.19-151.78 610.28.48 20.64 52.11 16.14 122.33-.82s137.4-19 141.56-33c11.39-38.24 30.45-352.25 56.55-594 26.09-241.74 50.89-341.99 49.21-364.73-.87-11.78-30.63-6.32-64.42-10.1-33.79-3.79-63.58-18.11-67.93-5.82Zm278.17 572.27c4.91 203.44 20.86 366.44 29.59 404.91 3.79 16.73 52.1 11.96 103.02 15.85 50.26 3.85 94.7 15.94 97.05-1.43 8-59.38-4.54-201.87-1.28-383.01 3.27-181.13-21.07-278.31-34.31-299.03-10.63-16.64-77.36-70.56-105.8-84.43-21.87-10.66-74.51-21.04-90.36-35.92-19.1-17.93-33.62-56.99-32.53-43.56 7.75 95.45 30.76 266.99 34.62 426.62Zm319.11-384.55c-1.13 15.7 16.61 224.58 70.32 442.23 53.72 217.65 139.45 393.45 139.45 393.45l116.69-38.51s-234.39-806.69-263.34-834.63c-2.93-2.83-13.54 6.4-29.62 12.51-16.08 6.1-32.38 9.24-33.5 24.95Z" fill="#7277dd"/><path d="M3240 1948.48s-3.67 33.69-4.94 69.01c-.21 6.08-.11 72.25-.11 72.25s16.54-15.36 18.76-13.06c2.23 2.31-9.86 22.28-9.86 22.28s-31.04 52.88-35.44 97.65c-1.29 13.16-4.26 38.09-.46 69.15 3.79 31.05 15.64 55.06 15.64 55.06s84.05 27.43 208.08 6.47c61.68-10.42 213.17-93.54 213.17-93.54s79.49-3.24 90.67-9.64c3.88-2.23-16.49-27.87-29.43-40.6-12.95-12.73-36.96-43.76-39.73-43.26-7.38 1.33-41.08 49.78-47.55 53.23-6.46 3.45-7.13 3.3 18.01-43.85 15.95-29.92 38.27-80.76 55.78-122.94 15.27-36.78 27.43-70.99 27.43-70.99s-9.53-11.25-20.04-14.36c-10.85-3.2-23.01-4.51-26.92-.16-10.28 11.44-73.49 152.09-80.94 158.24-8.42 6.96-81.65-5.08-152.82-12.7-71.17-7.61-120.1-10.5-130.16-15.36-9.29-4.48-21.67-123.59-21.67-123.59s-11.27-2.39-23.14-2.39c-14.55 0-24.33 3.1-24.33 3.1Z" fill="#7277dd" stroke="#7277dd"/><path d="M3341.15 3591.56c-8.03 58.15 29.34 574.83 29.34 574.83s18.26 8.5 40.68 10.65c22.42 2.15 49.01-2.06 49.01-2.06s26.84-180 40-333.24c3.99-46.46 4.18-263.31-7.67-276.95-9.38-10.81-36.55-14.16-72.59-11.84-36.55 2.35-75 11.38-78.77 38.61Zm254.55-17.98c-10.84 78.31 1.49 198.68 6.34 351.16 4.85 152.49 13.06 258.79 13.06 258.79s19.04 9.65 37.9 9.74c18.87.1 37.56-9.35 37.56-9.35s106.16-498.94 101.86-592.83c-.57-12.36-53.7-25.8-99.76-30.15-48.1-4.54-96.18 7.01-96.96 12.64Z" fill="#fe9fdb"/><path d="M3344.32 4197.33s-44.46 46.39-93.69 88.08c-49.23 41.7-72.77 52.16-109.64 83.86-36.87 31.7-38.55 48.82-40.68 85.71-2.14 36.89 43.83 58.28 67.36 58.28 27.31 0 67.32 7.75 116.74-5.57 39.67-10.7 62.21-23.02 89.46-51.66 27.37-28.77 4.58-86.13 18.48-130.51 13.98-44.62 82.26-108.02 82.26-108.02s-44.12 3.18-74.42.24c-30.3-2.94-55.87-20.41-55.87-20.41Zm250.36 9.55s-40.74 98.52-55.29 149.65c-18.93 66.52-22.86 100.37-18.82 116.9 6.77 27.76 61.25 53.82 74.94 57.69 41.63 11.78 68.55 12.72 107.25 0 29.1-9.56 49.4-25.72 67.55-60.85s5.06-79.66 5.06-79.66l-56.59-182.68s-44.27 16.18-72.55 14.33c-25.36-1.66-51.55-15.38-51.55-15.38Z" fill="#4c4f9d"/><path d="M3742.88 1979.04c-30.66 51.01-67.02 134.89-40.52 163.35 18.16 19.51 43.1 40.25 70.99 60.79 88.53 65.19 206.85 128.33 233.06 143.42 10.24 5.9 36.14-20.86 53.41-28.92 19.83-9.26-186.65 186.97-219.29 211.91-51.05 39.01-66.01 59.04-100.48 63.08-21.82 2.55-74.97-12.34-74.97-12.34s-41.11-8.9-60.89-6.25c-8.37 1.12-9.59 10.8-5.82 18.04 3.77 7.25 20.89 10.93 20.89 10.93s-20.69 4.34-23.5 19.43c-2.81 15.1 23.52 23.05 23.52 23.05s-29.23 3.05-27.81 19.75c1.08 12.67 29.12 14.65 29.12 14.65s-28.3 7.78-15.92 15.96 27.45 12.32 66.29 10.12c38.84-2.19 102.03-30.69 102.03-30.69s122.13-36.87 206.29-91.6c84.15-54.74 122.83-105.44 130.33-127.35 9.68-28.3 19.73-70.67 6.94-122.42-21.48-86.82-73.92-140.75-119.19-187.2-54.12-55.54-142.82-119.45-142.82-119.45s-97.93-71.1-111.66-48.26Zm-411.83-453.79s-22.35 49.88-20.44 114.23c1.91 64.35 16.83 121.04 32.86 153.5 32.36 65.51 101.29 92.5 139.04 86.1 24.31-4.11 55.54-18.13 84-42.81 28.46-24.67 33.87-72.6 33.87-72.6s5.71-47.96-4.63-103.88c-10.34-55.91-36.5-120.75-36.5-120.75l-10.08-3.29-40.99-13.38s.07 10.05-.4 11.32c-1.76 4.7-8.53 4-21.76.13-9.9-2.9-19.68-7.5-19.68-7.5s9.85 12.67-.2 14.91c-10.05 2.25-15.46 1.42-40.01-5.92-24.56-7.34-56.47-24.46-56.47-24.46s27.84 46.46 17.89 51.19c-9.96 4.73-56.5-36.79-56.5-36.79Zm-531.2 270.87c38.2 72.11 87.02 133.16 128.01 177.61 100.79 109.33 138.61 128.14 175.74 155.68 40.49 30.04 97.29 52.46 97.29 52.46s2.62-8.33 4.12-14.19c4.54-17.65 17.16-47.9 18.21-53.56 1.72-9.32.49-20.16.57-51.93.08-31.77-.26-75.14-.26-75.14s-254.91-185.59-296.91-229.23c-35.18-36.56-118.05-145.99-118.05-145.99l-70.36 60.31s29.95 64.16 61.64 123.98Z" fill="#fe9fdb"/><path d="M3272.35 1492.26c-38.15 63.62-65.79 179.93-65.79 179.93s-43.22 170-23.08 231.16c10.09 30.61 126.07 20.61 157.66-11.57 31.58-32.18 3.64-48.76-15.93-116.43-19.48-67.36-25.36-113.26-20.73-170.61 4.63-57.36 16.02-85.79 20.59-88.87 8.41-5.67 47.69 39.14 53.56 37.4 6.78-2.01-22.67-50.95-18.46-57.42 2.17-3.32 18.66 9.8 39.98 21.63 19.28 10.7 44.12 14.05 49.05 13.74 10.37-.65-49.34-44.96-45.96-50.04 3.38-5.09 22.75 17.83 43.61 27.44 20.86 9.61 49 19.5 44.35 11.04-3.29-5.98-53.63-44.77-52.61-48.75 1.02-3.99 30.23 19.17 56.69 32.81 22.59 11.65 48.94 20.55 55.09 22.28 13.38 3.76 59.19 13.44 59.19 13.44s29.58 8.16 45.36 13.64c11.72 4.07 19.73 10.47 19.73 10.47l-31.57-5.83 15.13 279.01 70.96 56.26 136.25 79.38 105.88 90.76s-33.41-88.19-55.36-141.17c-21.96-52.98-41.83-80-88.95-172.7-17.83-35.09-43.47-84.99-57.56-118.3-25.51-60.28-39.5-94.41-60.17-129.79-20.67-35.38-38.34-81.43-89.11-111.01-49.16-28.64-111.6-38.76-196.35-23.59-84.75 15.17-139.64 106-151.45 125.69Z" fill="#454ca9"/></g><g vectornator:layerName="Слой 2"><path d="M3269.6 2122.21c-12.47 11.39-21.13 48.29-21.13 48.29s-14.31 48.62-1.72 72.13c12.58 23.51 49.4 22.3 49.4 22.3s79.78-.66 152.24-13.53c72.47-12.86 137.63-37.91 137.63-37.91l-221.27-5.53s-30.98-1.41-44.5-16.51c-13.52-15.09-8.58-46.71-15.8-61.82-7.21-15.11-22.37-18.8-34.85-7.42Zm54.15 483.47c-13.39 38.88-14.71 83.41-41.42 198.3-26.71 114.9-31.81 150.44-58.49 271.47-26.67 121.03-54.58 230.9-54.58 230.9s-37.99 142.34-51.29 196.46c-2.95 12.02 40.7-5.93 81.18-13.79 40.49-7.86 78.71-2.1 80.75-17.66 9.8-74.75 20.33-288.09 32.94-477.57 12.61-189.49 16-201.42 17.51-280.37 1.5-78.95 6.79-146.62-6.6-107.74Zm295.96 143.92c-9.33 60.45-11.6 183.68-10.31 345.44 1.28 161.76 12.08 326.34 21.91 363.48 4.52 17.09 50.81 16.93 70.79 18.17 28.53 1.76 68.29 11.43 67.96 3.53-2.41-56.86-44.29-199.96-67.86-329.76-26.75-147.26-28.36-153.7-48.98-253.92-20.62-100.21-30.84-164.22-33.51-146.94Zm313.32 28.59s20.97 154.1 64.82 326.62c43.85 172.53 101.43 380.92 109.45 400.7 6.83 16.85 29.3 5.37 51.12-2.17 21.83-7.53 47.81-5.85 43.53-24.03-12.95-55.05-141.83-357.97-141.83-357.97l-127.09-343.15Z" fill="#8083ea"/><path d="M3210.43 2283.07s1.4 7.72 5.35 19.81c7.85 23.96 22.86 65.81 39.04 103.29 24.33 56.39 31.05 74.64 48.6 87.57 10.55 7.77 33.62 12.34 70.93 13.94 37.31 1.61 78.06 3.69 79.87-3.96 1.16-4.9-41.26-66.01-41.26-66.01l67.99-90.35 49.97-56.12s-84.52 24.22-164.35 20.9c-79.82-3.31-156.14-29.07-156.14-29.07Zm456.96-144.71c-7.98-1.16-19.6 19.71-27.48 29.85-8.36 10.75-23.73 26.85-23.73 26.85s11.31 8.53 17.75 18.57c6.45 10.05 9.83 20.61 9.83 20.61s26.92-2.12 67.82-2.87c10.57-.19 19.62.14 23.88-3.18 16.08-12.55-8.89-23.51-29.63-45.74s-29.83-42.84-38.44-44.09Zm-294.48 1360.75c1.58 8.11 42.09-3.02 87.22-2.63 45.13.39 91.55 11.9 93.29 4.18 10.48-46.34-42.86-706.74-72.29-679.27-29.53 27.55-114.61 644.84-108.22 677.72Zm474.47 7.52c-1.14 24.5 45.94 35.77 99.03 38.21 53.09 2.44 98.09 10.27 100.56-7.86 1.96-14.42-48.32-147.49-98.67-320.62-50.36-173.12-78.41-397.96-95.05-380.83-3.21 3.31 2.84 199.69.1 370.38-2.74 170.68-5.09 281.97-5.97 300.72Z" fill="#6064bd"/><path d="M3379.13 3590.2c-6.44 42.9 7.07 118.99 11.07 195.21 7.91 150.99 17.82 295.76 22.28 345.89 3.69 41.57 22.83-67.96 28.4-188.82 3.21-69.48 2.81-154.79 3.09-181.1.81-78.45 5.21-159.8-10.91-176.83s-51.44-10.86-53.93 5.65Zm245.53 22.9c-.89-45.29 57.38-32.56 62.47-15.75 7.2 23.82-1.8 118.37-9.28 231.54-7.02 106.39-30.58 340.82-36.74 328.83-20.94-40.77-13.72-405.84-16.45-544.62Z" fill="#ffb8e5"/><path d="M3343.73 4221.72c-40.96 19.29-52.84 51.67-103.33 88-50.49 36.34-104.79 67.84-120.19 105.22-15.4 37.38 18.79 56.38 58.61 44.32 30.65-9.29 71.88-94.62 113.17-115.68 41.29-21.06 34.73-59.6 53.15-92.54 20.14-36.02 39.55-48.62-1.41-29.32Zm305.1 33.87c17.36-26.65 41.2-6.04 52.15 25.51 14.17 40.81 34.58 102.04 34.58 102.04 7.85 47.62-11.34 78.79-45.35 82.76-44.84 5.23-62.27-55.2-57.26-100.34 5.02-45.14-1.48-83.32 15.88-109.97Z" fill="#7277dd"/><path d="M3769.94 2104.35c-45.47-31.62-94.34-15.45-27.63 45.88 66.71 61.34 247.84 173.01 254.74 161.54 6.91-11.47-177.71-173.06-227.11-207.42Zm-33.19 551.19c-12.32-5.28 82.27-45.17 146.66-90.93 64.38-45.76 68.64-52.06 103.25-86.82 34.61-34.76 33.29-42.33 47.44-58.64 9.26-10.67 23.72-5.94 19.67 8.16-5.52 19.18-6.54 24.37-35.43 56.93s-52.8 53.39-83.31 75.68c-38.49 28.13-45.9 32.7-90.93 54.56-45.02 21.85-95.03 46.34-107.35 41.06Zm-394.96-698.1c-18.35-2.46-5.57 58.22 20.57 69.01 45.92 18.95 198.74 24.51 198.74 24.51s-82.93-36.76-134.55-57.24c-14.2-5.63-70.97-34.44-84.76-36.28Zm-8.55-363.1c6.6-3.82 20.19 105.19 40.02 147.71 19.69 42.21 77.69 114.46 71.08 118.28-6.6 3.81-70.74-33.98-98.52-100.48-27.77-66.5-19.19-161.69-12.58-165.51Zm-344.07 325.98c47.56 45.25 180.99 155.63 165.99 164.78-15 9.15-97.02-19.28-179.2-107.91-82.19-88.64-201.26-270.16-186.26-279.31 15-9.15 152.61 177.86 199.47 222.44" fill="#ffb9e4"/><path d="M3303.29 1482.75s-13.62 85.6-10.8 167.09c2.82 81.48 21.59 127.91 22.08 158.85.33 20.86 8.11 67.46-17.09 84.14-25.21 16.68-65.11 25.15-75.74.47-10.63-24.67 37.11-66 41.12-109.42 3.46-37.51-4.53-73.61-4.16-134.49.38-60.89 21.74-116.97 21.74-116.97l22.85-49.67Zm333.22 73.65 24.5 4.42s17.07 62.51 19.57 123.51c2.51 61-11.09 102.83-7.99 123.53 2.91 19.5 9.65 31.32 22.59 45.05 13.65 14.48 25.79 21.13 84.76 51.17 57.36 29.2 90.5 55.3 139.99 95.77 49.49 40.48 57.96 66.12 57.96 66.12l14.75 35.83s-83.12-86.69-117.27-111.71c-33.11-24.27-87.28-50.52-113.96-61.63-21.19-8.82-46.86-15.93-62.1-21.16-25.86-8.86-61.3-28.28-70.86-59.18-5.83-18.86-.68-35.33 5.96-79.08s10.28-55.64 12.62-98.37c2.18-39.95-10.52-114.27-10.52-114.27Z" fill="#3a3d86"/><path d="M3750.58 1685.51s7.81 51.92 20.91 95.48c13.11 43.55 24.67 71.49 42.32 101.98 17.66 30.5 42.09 45.96 35.91 17.95-6.17-28-30.12-54.79-53.69-107.6-23.56-52.82-45.45-107.81-45.45-107.81Zm-85.98-197.97c-3.93 6.47 13.29 40.46 23.75 77.33 10.46 36.88 17.37 146.84 20.56 132.12 3.2-14.72 10.16-71.27 8.84-111.99-1.33-40.73-49.22-103.92-53.15-97.46Zm-156.16-71.64s28.62 45.19 65.23 75.08c36.6 29.9 81.19 44.51 81.19 44.51s-34.06-22.42-70.66-52.32c-36.61-29.9-75.76-67.27-75.76-67.27Zm-50.82 6.92s12.55 26.74 30.22 44.92c17.67 18.19 40.47 27.82 40.47 27.82s-19.08-18.37-36.75-36.55c-17.67-18.18-33.94-36.19-33.94-36.19Z" fill="#2f3372"/><path d="M3506.79 1452.09c4.63 4.89 19.75 24 34.94 37.36 21.98 19.33 45.09 33.6 45.09 33.6s-25.1-25.56-45.11-43.3c-20.01-17.74-46.24-39.64-34.92-27.66Zm80.52 2.23s37.48 35.14 48.43 41.11c10.95 5.96 11.59-6.42-4.63-17.24-16.22-10.83-43.8-23.87-43.8-23.87Zm-165.82-39.34s9.06 16.27 21.44 30.2c12.39 13.94 25.71 23.99 28.09 25.54 4.71 3.07-11.92-16.44-24.3-30.38-12.38-13.94-25.23-25.36-25.23-25.36Zm-78.21 37.99c4.82 10.83 7.9 14.95 22.16 28.38 14.26 13.42 43.13 29.73 43.13 29.73s-24.05-23.31-37.93-43.4c-13.88-20.08-17.38-25.8-24.5-29.69-7.11-3.88-7.68 4.14-2.86 14.98Z" fill="#5054b5"/><path d="M964.913 2351.94c0-312.72 21.492-509.13 77.627-819.54 56.14-310.41 163.9-437.05 163.9-437.05s6.84-2.37 25.99-2.37c142.14 0 257.36 556.69 257.36 1243.4s-100.61 1313.06-242.75 1313.06c-16.54 0-52.75-6.37-52.75-6.37s-42.42-61.46-80.93-163.49c-26.02-68.89-47.8-151.91-71.37-256.14-55.186-243.91-77.077-576.94-77.077-871.5Z" fill="#575f99"/><path d="m2332.13 2217.82 184.96-10.17 92.43 43.56 96.67 98.55-260.87 360.4L2163.69 2370l-1.85-16.83 73.63-87.67 96.66-47.68Z" fill="#141428"/><path d="m2227.1 2275.21-65.06 77.84 146.34 80.3 24.25-112.07-105.53-46.07Z" fill="url(#az)"/><path d="m2617.08 2258.81-86.86 49.66 41.82 109.04 125.05-77.11-80.01-81.59Z" fill="url(#aA)"/><path d="m2341.37 2322.39-19.82 110.93 237.1-13.21-39.33-109.05-177.95 11.33Z" fill="url(#aB)"/><path d="m2319.72 2447.81 124.12 242.16 117.13-255.06-241.25 12.9Z" fill="url(#aC)"/><path d="m2163.7 2370.34 270.22 325.82-133.53-249.8-136.69-76.02Z" fill="url(#aD)"/><path d="m2705.41 2350.99-166.21 231.55-79.99 107.62 116.86-257.02 62.17-39.49 67.17-42.66Z" fill="url(#aE)"/><path d="m2235.73 2265.12 101.03 44.67 185.15-10.67 87.62-47.88-92.63-43.71-184.85 10.13-96.32 47.46Z" fill="url(#aF)"/><path d="m1861.32 2201.59 157.91-96.84 102.03-5.6 131.89 40.79-58.29 441.07-409.44-165.47-9.62-13.94 23.13-112.13 62.39-87.88Z" fill="#141428"/><path d="m1796.18 2301.99-20.27 99.41 166.93 1.11-31.92-110.12-114.74 9.6Z" fill="url(#aG)"/><path d="m2131.04 2102.49-52.34 84.73 88.6 76.07 73.26-126.92-109.52-33.88Z" fill="url(#aH)"/><path d="m1919.14 2289.2 35.27 107.03 202.34-124.29-86.42-77.26-151.19 94.52Z" fill="url(#aI)"/><path d="m1959.68 2409.86 224.3 154.09-18.15-280.08-206.15 125.99Z" fill="url(#aJ)"/><path d="m1785.6 2415.82 392.59 158.29-236.2-156.35-156.39-1.94Z" fill="url(#aK)"/><path d="m2253.04 2141.38-36.21 282.73-19.24 132.69-19.31-281.67 35.93-64.28 38.83-69.47Z" fill="url(#aL)"/><path d="m1798.97 2289.02 110.13-8.71 56.04-34.58 101.8-62.78 53.55-84.02-103.02 6.39-156.29 96.16-62.21 87.54Z" fill="url(#aM)"/><path d="m2539.59 2498.19 181.76-114.26 117.43-6.61 151.81 48.13-67.09 520.48-471.27-195.27-11.07-16.45 26.62-132.31 71.81-103.71Z" fill="#141428"/><path d="m2464.61 2616.68-23.32 117.3 192.13 1.32-36.74-129.96-132.07 11.34Z" fill="url(#aN)"/><path d="m2849.99 2380.88-60.2 100.36 101.99 89.77 84.32-149.77-126.11-40.36Z" fill="url(#aO)"/><path d="m2606.14 2601.59 40.6 126.29 232.9-146.66-99.47-91.17-174.03 111.54Z" fill="url(#aP)"/><path d="m2652.81 2743.96 258.16 181.83-20.89-330.5-237.27 148.67Z" fill="url(#aQ)"/><path d="m2452.43 2751 451.87 186.78-271.86-184.49-180.01-2.29Z" fill="url(#aR)"/><path d="m2990.47 2427.15-41.68 333.63-22.16 156.58-22.22-332.38 41.36-75.86 44.7-81.97Z" fill="url(#aS)"/><path d="m2467.83 2601.37 127.04-10.26 182.1-114.7 61.78-99.09-117.72 6.57-181.44 114.36-71.76 103.12Z" fill="url(#aT)"/><path d="m2263.24 2952.8 224.92-135.54 145.32-7.84 187.85 57.09-83.02 617.38-583.17-231.62-13.7-19.51 32.94-156.95 88.86-123.01Z" fill="#141428"/><path d="m2170.45 3093.34-28.85 139.15 237.75 1.56-45.46-154.15-163.44 13.44Z" fill="url(#aU)"/><path d="m2647.4 2814.1-74.54 118.6 126.2 106.47 104.35-177.66-156.01-47.41Z" fill="url(#aV)"/><path d="m2345.6 3075.44 50.23 149.81 288.2-173.97-123.09-108.14-215.34 132.3Z" fill="url(#aW)"/><path d="m2403.34 3244.32 319.46 215.69-25.84-392.04-293.62 176.35Z" fill="url(#aX)"/><path d="m2155.39 3252.67 559.17 221.56-336.42-218.84-222.75-2.72Z" fill="url(#aY)"/><path d="m2821.18 2868.53-51.58 395.74-27.41 185.74-27.5-394.27 51.18-89.98 55.31-97.23Z" fill="url(#aZ)"/><path d="m2174.44 3075.19 156.85-12.2 224.81-136.28 76.28-117.6-146.72 8.95-222.62 134.6-88.6 122.53Z" fill="url(#ba)"/><path d="m2119.09 2482.57 212.14 85.89 80.64 102.01 56.68 171.08-479.74 299.26-137.47-562.83 6.72-21.43 128.07-67.4 132.96-6.58Z" fill="#141428"/><path d="m1971.7 2496.5-113.36 60 121.76 175.29 85.57-123.27-93.97-112.02Z" fill="url(#bb)"/><path d="m2415.75 2683.41-122.43 14.51-10.13 154.67 179.63-27.1-47.07-142.08Z" fill="url(#bc)"/><path d="m2074.88 2614.51-80.04 124.23 272.02 109.89 12.91-153.36-204.89-80.76Z" fill="url(#bd)"/><path d="m1985.22 2755.38 12.48 360.12 264.03-247.65-276.51-112.47Z" fill="url(#be)"/><path d="m1851.18 2578.39 132.19 539.36-19-374.4-113.19-164.96Z" fill="url(#bf)"/><path d="m2467.04 2842.62-306.66 193.02-145.59 88.24 264.76-250.16 90.11-14.95 97.38-16.15Z" fill="url(#bg)"/><path d="m1986.61 2488.83 89.68 107.93 212.61 85.38 122.62-12.66-82.15-102.39-210.28-84.76-132.48 6.5Z" fill="url(#bh)"/><path d="M696.953 2019.61c0-69.53 56.076-125.89 125.25-125.89s125.25 56.36 125.25 125.89-56.076 125.9-125.25 125.9-125.25-56.37-125.25-125.9Zm-26.427 410.19c0-69.53 56.076-125.89 125.25-125.89s125.251 56.36 125.251 125.89-56.077 125.89-125.251 125.89-125.25-56.36-125.25-125.89Zm8.606 438.39c0-69.53 56.076-125.89 125.25-125.89s125.251 56.36 125.251 125.89-56.077 125.9-125.251 125.9-125.25-56.37-125.25-125.9Z" fill="#4a5183"/><path d="M726.368 2016.16c0-55.18 42.8-99.91 95.596-99.91 52.796 0 95.596 44.73 95.596 99.91 0 55.17-42.8 99.9-95.596 99.9-52.796 0-95.596-44.73-95.596-99.9ZM699.53 2430c0-55.18 42.8-99.91 95.596-99.91 52.797 0 95.596 44.73 95.596 99.91s-42.799 99.9-95.596 99.9c-52.796 0-95.596-44.72-95.596-99.9Zm8.244 436.91c0-55.18 42.8-99.91 95.596-99.91 52.797 0 95.596 44.73 95.596 99.91 0 55.17-42.799 99.9-95.596 99.9-52.796 0-95.596-44.73-95.596-99.9Z" fill="#575f99"/><path d="M2503.53 1347.45c12.43-13.27 21.72-4.91 27.85 3.59 6.13 8.51-3.33 30.43-3.33 30.43s19.37-20.82 30.62-1.62c11.24 19.19-12.48 40.69-12.48 40.69s19.24-19.78 26.69-14.67c25.15 17.28-10.35 49.98-10.35 49.98s25.4-24.62 35.76-11.39c15.27 19.49-17.33 59.14-17.33 59.14s-13.52 22.47-32.65 8.2-22.69-20.78-39.97-59.48c-17.28-38.71-20.32-44.2-19.69-64.67.81-26.46 4.89-29.54 14.88-40.2Z" fill="#de7bb7"/><path d="M2498.44 1361.54s-2.99 9.68-3.05 18.48c-.06 8.8 2.52 19.13 2.52 19.13s14.42-2.48 20.19-14.54c5.77-12.06 15.43-26.54 2.9-33.7-10-5.72-22.56 10.63-22.56 10.63Zm5.86 49.19s.3 8.54 3.15 15.31c2.84 6.76 8.24 11.74 8.24 11.74s28.79-25.05 32.72-31.72c6.06-10.26 6.35-23.81-1.33-25.38-7.68-1.58-15.62 5.4-27.01 13.36-11.39 7.96-15.77 16.69-15.77 16.69Zm14.41 41.09s1.1 8.5 4.09 14.27c3 5.76 7.9 8.79 7.9 8.79s30.49-25.67 40.54-40.71c5.19-7.77 5.96-20.58-1.71-20.31-7.67.26-14.95 6.38-27.42 16.21-12.46 9.84-23.4 21.75-23.4 21.75Zm19.23 37.82s5.24 7.33 11.69 11.92c6.46 4.59 14.13 6.45 14.13 6.45s26.47-30.18 31.16-44.74c4.69-14.55-3.13-17.77-12.41-13.49-9.28 4.28-16.16 11.74-26.02 20.88-9.86 9.14-18.55 18.98-18.55 18.98Z" fill="#fe9fdb"/><path d="M1729.44 2361.48c0-188.14-17.35-335.62-23.31-417.75-1.9-26.19-4.7-59.66-4.7-59.66s29.82-19.3 50.88-19.3c120.8 0 127.33 200.4 127.33 497.41 0 64.87-.42 127.99-2.33 187.05-6.82 211.38-32.77 370.63-127.19 370.63-18.43 0-49.02-9.03-49.02-9.03s7.16-74.27 14.51-147.73c10.21-102.03 13.83-255.27 13.83-401.62Z" fill="#4a5183"/></g><g vectornator:layerName="Слой 17" fill="#dff3f4"><path d="m2712.71 1427.3 40 11.02s-26.86 52.2-50.25 113.3c-23.39 61.1-43 130.22-43 130.22s33.92-125.82 35.93-133.03c6.73-24.14 17.32-121.51 17.32-121.51Zm188.42 116.2-22.66-54.58 67.26 16.18-63.63-30.79 41.07-32.28-46.86 22.8 23.72-80.64-32.86 76.46-31.12-43.3 20.83 48.34-77.44-15.38 70.17 27.46-47.91 37.81 54.34-25.76-27.25 91.56 37.27-86.71 35.07 48.83Zm802.08 882.86-22.67-54.58 170.04-9.6-166.41-5.01 41.07-32.28-46.85 22.8 23.71-80.64-32.85 76.46-31.12-43.3 20.82 48.34-95.8-32.24 88.53 44.32-47.91 37.81 54.34-25.76-27.24 91.56 37.26-86.71 35.08 48.83Zm-1243.9-475.87-44.77-38.58 190.88-105.96-194.2 91.28 22.19-47.29-31.62 41.42-15.04-82.69 5 83.06-47.26-24.7 40.33 33.83-142.75 4.64 141.68 9.41-25.82 55.31 36.98-47.42 16.79 94.03-5.66-94.2 53.27 27.86Zm-434.52 108.44-44.77-38.58 253.49-158.81-256.81 144.13 22.19-47.29-31.62 41.42-15.04-82.69 5 83.07-47.26-24.71 38.12 38.19-75.53 14.61 72.52.45-21.67 49.94 36.98-47.42 16.79 94.03-5.66-94.2 53.27 27.86Zm57.45 1799.13-21.5-55.05 170.2-5.99-166.26-8.54 41.74-31.4-47.32 21.8 29.29-226.87-38.34 222.5-30.2-43.95 19.8 48.77-95.1-34.27 87.58 46.19-48.71 36.79 54.88-24.6-74.5 110.61 84.41-105.55 34.03 49.56Zm13.53 382.73-6.31-58.76 165.81 38.85-158.2-51.83 48.51-19.36-51.38 8.63 45.53-70.65-53.12 64.06-17.61-50.34 6.31 52.26-82.78-58 72.4 67.53-56.65 22.73 59.41-9.35-52.02 80.12 60.25-72.64 19.85 56.75Zm427.28-85.04-13.12-57.62 169.21 19.25-163.17-33.04 128.47-56.44-132.56 46.12 36.98-75.47-45.29 69.81-23.36-47.94 12.37 51.17-88.99-47.96 79.78 58.63-53.61 29.18 57.91-16.21-121.12 244.12 130.18-237.65 26.32 54.05Zm-792.03-182.73-6.31-58.76 165.81 38.85-158.21-51.84 48.52-19.36-51.39 8.63 45.54-70.64-53.12 64.05-17.62-50.33 6.32 52.26-82.79-58.01 72.4 67.54-56.64 22.73 59.4-9.35-52.01 80.12 60.25-72.64 19.85 56.75Z"/><path d="m2487.95 2111.78-44.77-38.59L2706.67 1935l-266.81 123.52 22.19-47.3-31.62 41.42-15.04-82.69 5 83.07-47.26-24.71 40.32 33.83-213.88-15.68 212.82 29.74-25.82 55.31 36.97-47.43 16.8 94.04-5.67-94.21 53.28 27.87Zm242.44-815.08-22.66-54.59 167.39 35.86-163.76-50.46 41.07-32.28-46.86 22.79 23.72-80.63-32.86 76.46-31.12-43.3 20.83 48.34-96.09-79.87 88.82 91.94-47.91 37.82 54.34-25.76-27.25 91.55 37.27-86.7 35.07 48.83Zm85.4 820.35 119.03-74.89s18.87 19.29 37.27 36.28c18.4 16.98 36.32 31.64 36.32 31.64l-192.62 6.97Zm327.38 71.37 13.06 11.92-41.32 25.86 28.26-37.78Zm-189.87 780.85 92.34-45.14 114.5 8.59-8.47 29.22-56.99 74.95s10.73-56.73-25.18-73.67c-35.9-16.95-116.2 6.05-116.2 6.05Zm213.37-755.11-44.13 27.72 63.54 281.67-19.41-309.39Zm396.85 102.97 102.56-56.36s-30.01 30.05-28.84 55.69c1.18 25.65 29.08 52.07 29.08 52.07l-102.8-51.4Zm-450.77 248.09-58.79 82.29 94.52 3.45s-30.44-13.13-39.37-34.57c-8.93-21.43 3.64-51.17 3.64-51.17Zm-61.87 94.42-24.64 101.15s19.05-41.92 49.56-66.23c30.51-24.32 72.48-31.02 72.48-31.02l-97.4-3.9Zm-14.05 117.37 142.09 92.99 6.8-22.52-148.89-70.47Zm-144.88 378.72 15.22-7.43 73.18 128.32-55.91 27.72-32.49-148.61Zm664.23-829.33-80.1 100.23 37.92 21.86 24.01 13.84 35.52 20.48 41.46 23.9s-62.41-35.42-78.42-79.84c-16-44.42 19.61-100.47 19.61-100.47Z"/><path d="M2723.72 1115.85s-40.65 15.75-49.12 44.07c-8.47 28.32 15.23 69.2 15.23 69.2l-100.87-90.61 134.76-22.66Zm-758.58 2945.29-76.46 94.09s39.63-33.01 85.06-26.84c45.43 6.16 97.31 50.66 97.31 50.66l-105.91-117.91Zm7.84-9.25 372.91 163.76s-147.56-56.81-212.82-67.07c-65.26-10.25-48.23 26.06-48.23 26.06l-111.86-122.75Zm-370.47-239.61-28.74 152.56 150.25-71.94s-66.53 14.01-97.39-5.96c-30.86-19.98-24.12-74.66-24.12-74.66Zm139 89.27 111.53 156.24 201.8-257.16s-118.55 131.71-184.14 141.95c-65.6 10.23-129.19-41.03-129.19-41.03Zm736.01 8.35-65.92 250.71-46.27 181.24s49.32-162.93 79.03-237.02 54.44-10.67 54.44-10.67l-21.28-184.26Zm16.15.32 19.52 168.47s6.19-113.1 37.12-139.93c30.93-26.82 71.6-28.81 71.6-28.81l-128.24.27Zm-161.79-2107.95-90.38 103.21 145.87 4.41s-40.92-18.94-56.12-47.16c-15.2-28.21.63-60.46.63-60.46Zm-95.18 119.76-37.38 124.42 218.62 25.35s-81.29-29.32-127.71-67.37c-46.42-38.05-53.53-82.4-53.53-82.4Zm-317.38 367.42s9.75 31.02 18.92 57.92c9.17 26.89 16.13 49.31 16.13 49.31l48.3-30.84 154.27-93.87s-69.97 34.17-128.81 40c-58.84 5.83-108.81-22.52-108.81-22.52Zm620.49 208.38-72.12 103.88 126.85-10.77s-38.95-14.75-52-39.32c-13.04-24.57-2.73-53.79-2.73-53.79Zm56.51 108.01-131.93 11.17-23.2 117.17s20.16-48.67 59.23-80.13c39.07-31.46 95.9-48.21 95.9-48.21Zm-264.1-388.33-96.45 47.7 101.57 44.8s-22.28-26.37-23.51-49.91c-1.23-23.54 18.39-42.59 18.39-42.59Zm-360.89 278.78-92.79 49.72s33.71-1.65 84.33 11.88c50.61 13.53 102.87 50.65 102.87 50.65l-94.41-112.25Zm147.42-13.36-131.87 5.99 24.05 29.25 64.91 78.93 213.21 85.05s-107.26-62.91-149.59-112.43c-42.33-49.52-20.71-86.79-20.71-86.79Zm-268.41-711.44 202.32-124.71 135.79-7.52-71.15 109.4s9.31-65.09-57.43-59.38c-66.74 5.71-209.53 82.21-209.53 82.21Zm748-400.95-129.06-142.04 105.99-79.17s-25.78 46.63-20.64 99.64c5.14 53 43.59 119.05 43.71 121.57Zm395.58-98.74 58.92 124.48-179.71 45.46s75.14-27.06 104.5-68.94c29.37-41.88 16.29-101 16.29-101Zm816.64 1252.19-177.52-4.31 14.38-50.42s19.36 27.48 61.47 40.32c42.1 12.84 101.67 14.41 101.67 14.41Z"/><path d="m2409.43 2355.61-44.77-38.59 158.08-18.18-161.4 3.5 22.19-47.29-31.62 41.42-15.04-82.69 5 83.07-47.26-24.71 40.33 33.83-142.75 4.64 141.68 9.42-25.82 55.31 36.97-47.43 16.8 94.04-5.67-94.21 53.28 27.87Zm-71.88 534.15-44.77-38.58 169.4-25.99-172.72 11.31 22.19-47.29-31.62 41.42-15.04-82.69 5 83.06-47.26-24.7 40.33 33.83-211.81-79.33 210.74 93.38-25.82 55.31 36.98-47.42 18.65 110.42-7.52-110.59 53.27 27.86Zm309.26-75.99 156.68 47.15-72.96 125.12s14.71-92.66-17.71-117.2c-32.41-24.53-111.95 19.08-111.95 19.08l45.94-74.15Z"/><path d="M2468.54 2841.83s-100.67 65.1-213.89 135.48c-113.21 70.38-238.96 146.04-238.96 146.04l399.96-272.17 52.89-9.35Zm-473.79-102.91 80.08-124.36 44.29 17.5-58.36 133.31-66.01-26.45Zm936.38 582.62 57.53-27.87 60.09 61.05-13.15 57.57-104.47-90.75Zm-945.91-566.25 67.23 27.44-54.95 332.67-12.28-360.11Zm864.97-374.46 126.7 40.21-85.09 150.03s11.57-95.39-14.1-117.13c-25.67-21.74-88.05 27.13-88.05 27.13m114.78 103.78 86.29-159.89-65 510.31s16.9-183.66 13.09-274.59c-3.8-90.93-34.38-75.83-34.38-75.83Zm-197.19 173.57-54.38-23.12 226.89-154.77-234.52 141.79 6.74-51.8-17.51 49.08-39.49-74.19 30.04 77.6-52.54-9.15 48.71 19.95-180.24-.14 183.5 13.86-7.76 60.54 20.79-56.43 44.61 84.47-34.06-88.02 59.22 10.33Zm12.73-374.3 118.88-6.97-61.96 99.35s13.58-43.81-1.87-66.26c-15.46-22.45-55.05-26.12-55.05-26.12Zm-180.74-80.64s69.28-8.6 86.9 14.08c17.62 22.69-16.42 76.64-16.42 76.64l87.97-53.66-80.38-81.41m-101.27-52.32 93.47 44.49-88.32 48.03s35.3-24.48 33.78-47.74c-1.52-23.27-38.93-44.78-38.93-44.78Z"/><path d="m2983 3327.67-53.3-25.52 148.96-74.24-156.01 60.94 9.03-51.45-19.67 48.25-36.16-75.87 26.57 78.87-52.08-11.47 47.78 22.09-128.41-7.39 131.05 21.23-10.43 60.14 23.27-55.45 40.82 86.36-30.13-89.44 58.71 12.95Zm-535.75-78.14-49.1-25.59 286.25-173.7-297.5 160.48 9.03-51.45-19.67 48.25-36.17-75.87 26.57 78.86-52.07-11.47 47.77 22.09-221.16 12.06 223.81 1.79-10.44 60.14 23.27-55.46 40.83 86.36-30.13-89.43 58.71 12.94Z"/><path d="m2949.83 3166.05-53.3-25.51 198.35-103.86-205.4 90.56 9.03-51.45-19.67 48.25-36.16-75.87 26.57 78.86-52.08-11.47 47.78 22.09-77.49 1.84 80.13 12.01-10.43 60.14 23.27-55.46 40.82 86.36-30.12-89.43 58.7 12.94Z"/></g><path d="M1852.39 2877.55c0-56.82 16.3-172.23 17.81-198.42.81-14.07 5.37-76.26 5.82-94.35.31-12.38 2.73-58.32 2.94-70.01.87-49.53.11-113.16 1.03-157.51.13-5.94-.13-13.69-.14-20.16-.04-14.75-.06-29.07-.19-44.38-.29-34.58-.57-68.51-1.56-96.41-.58-16.51-1.26-44.16-2.82-69.61-1.82-29.59-4.51-56.04-4.51-56.04l-2.35-21.98-3.88-29.15s-4.95-27.2-6.47-32.65c-1.51-5.44-2.4-12.25-4.34-17.88-1.45-4.21-2.53-9.56-3.99-13.64-.82-2.3-1.79-4.39-2.67-7.11-3.54-10.95-10.18-25.54-16.75-36.92-3.06-5.31-6.7-10.06-10.12-14.34-3.48-4.37-6.77-8.25-11.16-12.02-1.96-1.69-3.62-2.78-5.33-3.97-1.95-1.36-3.94-2.78-6.28-4.22-1.18-.72-2.31-1.38-3.62-2.09-.88-.49-1.81-1-3.02-1.57-.36-.17-.86-.41-1.99-.91-1.13-.51-1.62-.74-2.53-1.11-1.24-.5-2.49-.97-3.52-1.34-.37-.13-.7-.25-1.06-.37-.79-.27-1.57-.52-2.16-.78-.68-.29-1.17-.6-1.63-.97-.13-.1-.25-.21-.38-.32-.91-.82-1.43-1.9-1.5-3.54-.55-12.61 14.96-33.64 20.56-41.08 263.41-349.76 350.97-155.88 802.09-137.14 20.1.84 37.6 19.61 59.21 19.61 40.88 0 60.38-11.52 77.85 16.41 4.31 6.88 10.03 18.86 16.3 31.44 7.56 15.16 15.76 31.25 20.95 41.21 7.04 13.52 14.74 28.54 23.44 43.92 8.47 14.97 15.69 29.22 24.94 43.44 35.82 55.07 65 120.23 111.24 158.57 1.72 1.42 5.2 4.97 8.46 8.27 1.95 1.96 4.04 3.99 5.02 4.99 1.88 1.93 4.48 4.51 7.16 7.11 3.73 3.63 7.07 6.87 9.45 9.13 10.89 10.33 21.62 19.98 21.62 19.98s43.57 39.35 83.52 63.45c38.95 23.5 74.79 35.35 74.79 35.35l20.64 7.24 19.21 4.89 13.41 2.9s-2.91 14.34-3.98 24.84c-.61 6.11-.61 7.25-.72 10.19-.12 3.18-.22 2.93-.06 6.7.12 2.78.32 4.32.5 5.91.21 1.8.42 3.55.74 5.51.24 1.41.52 3.55.87 5.78.13.77.15 1.38.34 2.21.8 3.51 2.15 10.23 2.15 10.23l.99 4.11s.11 1.54 1.77 8.05c1.19 4.65 1.39 5.16 2.63 9.78.49 1.86 1.44 4.66 2.25 8.24.52 2.26.98 3.43 1.68 5.63.18.56.82 2.58.82 2.58s1.02 3.36 2.02 6.45c.32 1 .61 1.91.89 2.73.1.27.18.58.27.82.07.19.18.36.23.51 2.53 8.69 5.82 17.14 8.98 25.69.74 2.01 1.43 3.92 2.22 5.94.28.73.79 1.58 1.01 2.31.2.66.63 2.07.63 2.07s2.8 6.65 4.25 10.87c.04.11-.07.22-.04.33 1.33 3.88 1.27 4.04 1.59 5.64 1.21 5.99.83 15.23 2.61 21.08 11.03 36.23 36.61 65.25 45.54 92.29.47 1.41 1.64 4.43 3.09 9.06 1.45 4.63 1.97 6.65 2.72 9.46.26 1 .44 1.99.47 3.03.05 1.67-.17 3.32-.19 4.33-.01.26-.36 3.06-.36 3.06s-.11.51-.54 3.6c-.02.15-.08.49-.11.63-.08.48-.15.92-.22 1.32-.2 1.11-.35 2.01-.64 3.47-.13.66-.23 1.29-.42 2.26-.07.37-.2.94-.27 1.36-.93 5.11-2.47 11.45-2.47 11.45s-1.98 9.78-6.2 26.41c-4.22 16.62-11.09 40-11.09 40s-1.73 5.9-3.09 10.26c-.26.82-1.61 4.97-1.61 4.97s-7.17 21.66-10.81 33.03c-7.32 22.91-14.98 46.71-22.39 70.67-2.02 6.55-4.11 13.07-6.15 19.56-2.06 6.54-4.19 13.09-6.23 19.61-4.44 14.23-7.99 26.66-11.74 39.78-.57 2.01-1.66 5.56-2.2 7.39-4.25 14.4-7.09 23.5-9.04 29.92-4.27 14.04-4.41 15.41-8.91 30.44-.06.17-.11.35-.16.52-1.32 4.47-2.78 10.18-4.99 17.86-1.49 5.14-5.99 18.59-11.47 37.34-.69 2.38-1.41 4.85-2.15 7.39-1.67 5.78-3.44 11.93-5.29 18.39-8.83 30.89-19.34 68.53-28.96 102.98-17.32 62.1-31.68 116.88-31.68 116.88l-29.63 116.39-22.4 95.82-23.47 106.73s-150.91 83.12-219.02 84.78c-126.97 3.1-181.81-64.62-241.1-94.46-94.92-47.78-150.28-41.76-246.13-87.42-131.41-62.59-186.21-128.33-282.02-224.68-16.68-16.78-36.72-34.21-57.22-53.62-57.95-54.87-119.58-125.59-119.58-242.38Z" fill="#121538" fill-opacity=".346837" vectornator:layerName="Слой 18"/></svg>