<svg stroke-miterlimit="10" style="fill-rule:nonzero;clip-rule:evenodd;stroke-linecap:round;stroke-linejoin:round" viewBox="0 0 5000 5000" xml:space="preserve" xmlns="http://www.w3.org/2000/svg" xmlns:vectornator="http://vectornator.io"><defs><linearGradient gradientUnits="userSpaceOnUse" id="a" x1="1910.38" x2="2083.39" y1="2795.79" y2="2795.79"><stop offset="0" stop-color="#7ec9cf"/><stop offset="1" stop-color="#5f67fa"/></linearGradient><linearGradient gradientTransform="matrix(.74925 0 0 .93273 715.984 240)" gradientUnits="userSpaceOnUse" id="b" x1="1910.38" x2="2083.39" y1="2795.79" y2="2795.79"><stop offset="0" stop-color="#7ec9cf"/><stop offset="1" stop-color="#5f67fa"/></linearGradient><linearGradient gradientUnits="userSpaceOnUse" id="c" x1="1781.24" x2="1902.15" y1="2719.43" y2="2719.43"><stop offset="0" stop-color="#7ec9cf"/><stop offset="1" stop-color="#5f67fa"/></linearGradient><linearGradient gradientTransform="translate(55.1586 -70.0514)" gradientUnits="userSpaceOnUse" id="d" x1="1781.24" x2="1902.15" y1="2719.43" y2="2719.43"><stop offset="0" stop-color="#7ec9cf"/><stop offset="1" stop-color="#5f67fa"/></linearGradient><linearGradient gradientTransform="translate(199.356 22.3097)" gradientUnits="userSpaceOnUse" id="e" x1="1781.24" x2="1902.15" y1="2719.43" y2="2719.43"><stop offset="0" stop-color="#7ec9cf"/><stop offset="1" stop-color="#5f67fa"/></linearGradient><linearGradient gradientTransform="translate(348.258 11.7344)" gradientUnits="userSpaceOnUse" id="f" x1="1781.24" x2="1902.15" y1="2719.43" y2="2719.43"><stop offset="0" stop-color="#7ec9cf"/><stop offset="1" stop-color="#5f67fa"/></linearGradient><linearGradient gradientUnits="userSpaceOnUse" id="g" x1="1903.13" x2="2235.34" y1="2517.8" y2="2517.8"><stop offset="0" stop-color="#7ec9cf"/><stop offset="1" stop-color="#5f67fa"/></linearGradient><linearGradient gradientTransform="rotate(-39.182 4066.28407537 3391.6712534)" gradientUnits="userSpaceOnUse" id="h" x1="1910.38" x2="2083.39" y1="2795.79" y2="2795.79"><stop offset="0" stop-color="#7ec9cf"/><stop offset="1" stop-color="#5f67fa"/></linearGradient><linearGradient gradientTransform="matrix(.58078 -.47336 .58929 .723 -521.857 3065.33)" gradientUnits="userSpaceOnUse" id="i" x1="1910.38" x2="2083.39" y1="2795.79" y2="2795.79"><stop offset="0" stop-color="#7ec9cf"/><stop offset="1" stop-color="#5f67fa"/></linearGradient><linearGradient gradientTransform="rotate(-39.182 4066.28407537 3391.6712534)" gradientUnits="userSpaceOnUse" id="j" x1="1781.24" x2="1902.15" y1="2719.43" y2="2719.43"><stop offset="0" stop-color="#7ec9cf"/><stop offset="1" stop-color="#5f67fa"/></linearGradient><linearGradient gradientTransform="rotate(-39.182 3940.28987619 3349.20366616)" gradientUnits="userSpaceOnUse" id="k" x1="1781.24" x2="1902.15" y1="2719.43" y2="2719.43"><stop offset="0" stop-color="#7ec9cf"/><stop offset="1" stop-color="#5f67fa"/></linearGradient><linearGradient gradientTransform="rotate(-39.182 3997.94564926 3100.43807925)" gradientUnits="userSpaceOnUse" id="l" x1="1781.24" x2="1902.15" y1="2719.43" y2="2719.43"><stop offset="0" stop-color="#7ec9cf"/><stop offset="1" stop-color="#5f67fa"/></linearGradient><linearGradient gradientTransform="rotate(-39.182 3908.6379173 2896.54180353)" gradientUnits="userSpaceOnUse" id="m" x1="1781.24" x2="1902.15" y1="2719.43" y2="2719.43"><stop offset="0" stop-color="#7ec9cf"/><stop offset="1" stop-color="#5f67fa"/></linearGradient><linearGradient gradientTransform="rotate(-39.182 4066.28407537 3391.6712534)" gradientUnits="userSpaceOnUse" id="n" x1="1903.13" x2="2235.34" y1="2517.8" y2="2517.8"><stop offset="0" stop-color="#7ec9cf"/><stop offset="1" stop-color="#5f67fa"/></linearGradient><linearGradient gradientTransform="rotate(-39.182 2423.13416026 3493.6226655)" gradientUnits="userSpaceOnUse" id="o" x1="1910.38" x2="2083.39" y1="2795.79" y2="2795.79"><stop offset="0" stop-color="#7ec9cf"/><stop offset="1" stop-color="#5f67fa"/></linearGradient><linearGradient gradientTransform="matrix(.58078 -.47336 .58929 .723 -955.742 2050.14)" gradientUnits="userSpaceOnUse" id="p" x1="1910.38" x2="2083.39" y1="2795.79" y2="2795.79"><stop offset="0" stop-color="#7ec9cf"/><stop offset="1" stop-color="#5f67fa"/></linearGradient><linearGradient gradientTransform="rotate(-39.182 2423.13416026 3493.6226655)" gradientUnits="userSpaceOnUse" id="q" x1="1781.24" x2="1902.15" y1="2719.43" y2="2719.43"><stop offset="0" stop-color="#7ec9cf"/><stop offset="1" stop-color="#5f67fa"/></linearGradient><linearGradient gradientTransform="rotate(-39.182 2297.13996108 3451.15507826)" gradientUnits="userSpaceOnUse" id="r" x1="1781.24" x2="1902.15" y1="2719.43" y2="2719.43"><stop offset="0" stop-color="#7ec9cf"/><stop offset="1" stop-color="#5f67fa"/></linearGradient><linearGradient gradientTransform="rotate(-39.182 2354.80478287 3202.40854003)" gradientUnits="userSpaceOnUse" id="s" x1="1781.24" x2="1902.15" y1="2719.43" y2="2719.43"><stop offset="0" stop-color="#7ec9cf"/><stop offset="1" stop-color="#5f67fa"/></linearGradient><linearGradient gradientTransform="rotate(-39.182 2265.4845022 2998.50304972)" gradientUnits="userSpaceOnUse" id="t" x1="1781.24" x2="1902.15" y1="2719.43" y2="2719.43"><stop offset="0" stop-color="#7ec9cf"/><stop offset="1" stop-color="#5f67fa"/></linearGradient><linearGradient gradientTransform="rotate(-39.182 2423.13416026 3493.6226655)" gradientUnits="userSpaceOnUse" id="u" x1="1903.13" x2="2235.34" y1="2517.8" y2="2517.8"><stop offset="0" stop-color="#7ec9cf"/><stop offset="1" stop-color="#5f67fa"/></linearGradient><linearGradient gradientTransform="rotate(-28.882 1597.3436745 4690.95841672)" gradientUnits="userSpaceOnUse" id="v" x1="1910.38" x2="2083.39" y1="2795.79" y2="2795.79"><stop offset="0" stop-color="#7ec9cf"/><stop offset="1" stop-color="#5f67fa"/></linearGradient><linearGradient gradientTransform="matrix(.65606 -.36189 .45051 .81672 -1324.21 1219.31)" gradientUnits="userSpaceOnUse" id="w" x1="1910.38" x2="2083.39" y1="2795.79" y2="2795.79"><stop offset="0" stop-color="#7ec9cf"/><stop offset="1" stop-color="#5f67fa"/></linearGradient><linearGradient gradientTransform="rotate(-28.882 1597.3436745 4690.95841672)" gradientUnits="userSpaceOnUse" id="x" x1="1781.24" x2="1902.15" y1="2719.43" y2="2719.43"><stop offset="0" stop-color="#7ec9cf"/><stop offset="1" stop-color="#5f67fa"/></linearGradient><linearGradient gradientTransform="rotate(-28.882 1433.748901 4618.89248326)" gradientUnits="userSpaceOnUse" id="y" x1="1781.24" x2="1902.15" y1="2719.43" y2="2719.43"><stop offset="0" stop-color="#7ec9cf"/><stop offset="1" stop-color="#5f67fa"/></linearGradient><linearGradient gradientTransform="rotate(-28.882 1540.97388913 4292.71643812)" gradientUnits="userSpaceOnUse" id="z" x1="1781.24" x2="1902.15" y1="2719.43" y2="2719.43"><stop offset="0" stop-color="#7ec9cf"/><stop offset="1" stop-color="#5f67fa"/></linearGradient><linearGradient gradientTransform="rotate(-28.882 1445.98713364 4008.8982832)" gradientUnits="userSpaceOnUse" id="A" x1="1781.24" x2="1902.15" y1="2719.43" y2="2719.43"><stop offset="0" stop-color="#7ec9cf"/><stop offset="1" stop-color="#5f67fa"/></linearGradient><linearGradient gradientTransform="rotate(-28.882 1597.3436745 4690.95841672)" gradientUnits="userSpaceOnUse" id="B" x1="1903.13" x2="2235.34" y1="2517.8" y2="2517.8"><stop offset="0" stop-color="#7ec9cf"/><stop offset="1" stop-color="#5f67fa"/></linearGradient><linearGradient gradientTransform="matrix(1.18643 -.01113 .01157 1.14123 -628.476 -961.224)" gradientUnits="userSpaceOnUse" id="C" x1="1910.38" x2="2083.39" y1="2795.79" y2="2795.79"><stop offset="0" stop-color="#7ec9cf"/><stop offset="1" stop-color="#5f67fa"/></linearGradient><linearGradient gradientTransform="matrix(.89275 -.00843 .01084 1.07554 217.45 -727.121)" gradientUnits="userSpaceOnUse" id="D" x1="1910.38" x2="2083.39" y1="2795.79" y2="2795.79"><stop offset="0" stop-color="#7ec9cf"/><stop offset="1" stop-color="#5f67fa"/></linearGradient><linearGradient gradientTransform="matrix(1.18643 -.01113 .01157 1.14123 -628.476 -961.224)" gradientUnits="userSpaceOnUse" id="E" x1="1781.24" x2="1902.15" y1="2719.43" y2="2719.43"><stop offset="0" stop-color="#7ec9cf"/><stop offset="1" stop-color="#5f67fa"/></linearGradient><linearGradient gradientTransform="matrix(1.18643 -.01113 .01157 1.14123 -563.846 -1041.78)" gradientUnits="userSpaceOnUse" id="F" x1="1781.24" x2="1902.15" y1="2719.43" y2="2719.43"><stop offset="0" stop-color="#7ec9cf"/><stop offset="1" stop-color="#5f67fa"/></linearGradient><linearGradient gradientTransform="matrix(1.18643 -.01113 .01157 1.14123 -391.697 -937.983)" gradientUnits="userSpaceOnUse" id="G" x1="1781.24" x2="1902.15" y1="2719.43" y2="2719.43"><stop offset="0" stop-color="#7ec9cf"/><stop offset="1" stop-color="#5f67fa"/></linearGradient><linearGradient gradientTransform="matrix(1.18643 -.01113 .01157 1.14123 -215.159 -951.709)" gradientUnits="userSpaceOnUse" id="H" x1="1781.24" x2="1902.15" y1="2719.43" y2="2719.43"><stop offset="0" stop-color="#7ec9cf"/><stop offset="1" stop-color="#5f67fa"/></linearGradient><linearGradient gradientTransform="matrix(1.18643 -.01113 .01157 1.14123 -628.476 -961.224)" gradientUnits="userSpaceOnUse" id="I" x1="1903.13" x2="2235.34" y1="2517.8" y2="2517.8"><stop offset="0" stop-color="#7ec9cf"/><stop offset="1" stop-color="#5f67fa"/></linearGradient><linearGradient gradientTransform="matrix(.38344 -.81347 .8157 .35334 -2295.76 2694)" gradientUnits="userSpaceOnUse" id="J" x1="1910.38" x2="2083.39" y1="2795.79" y2="2795.79"><stop offset="0" stop-color="#7ec9cf"/><stop offset="1" stop-color="#5f67fa"/></linearGradient><linearGradient gradientTransform="matrix(.28729 -.6095 .76083 .32958 -1825.46 2196.37)" gradientUnits="userSpaceOnUse" id="K" x1="1910.38" x2="2083.39" y1="2795.79" y2="2795.79"><stop offset="0" stop-color="#7ec9cf"/><stop offset="1" stop-color="#5f67fa"/></linearGradient><linearGradient gradientTransform="matrix(.38344 -.81347 .8157 .35334 -2295.76 2694)" gradientUnits="userSpaceOnUse" id="L" x1="1781.24" x2="1902.15" y1="2719.43" y2="2719.43"><stop offset="0" stop-color="#7ec9cf"/><stop offset="1" stop-color="#5f67fa"/></linearGradient><linearGradient gradientTransform="matrix(.38344 -.81347 .8157 .35334 -2331.75 2624.37)" gradientUnits="userSpaceOnUse" id="M" x1="1781.24" x2="1902.15" y1="2719.43" y2="2719.43"><stop offset="0" stop-color="#7ec9cf"/><stop offset="1" stop-color="#5f67fa"/></linearGradient><linearGradient gradientTransform="matrix(.38344 -.81347 .8157 .35334 -2201.12 2539.71)" gradientUnits="userSpaceOnUse" id="N" x1="1781.24" x2="1902.15" y1="2719.43" y2="2719.43"><stop offset="0" stop-color="#7ec9cf"/><stop offset="1" stop-color="#5f67fa"/></linearGradient><linearGradient gradientTransform="matrix(.38344 -.81347 .8157 .35334 -2152.65 2414.85)" gradientUnits="userSpaceOnUse" id="O" x1="1781.24" x2="1902.15" y1="2719.43" y2="2719.43"><stop offset="0" stop-color="#7ec9cf"/><stop offset="1" stop-color="#5f67fa"/></linearGradient><linearGradient gradientTransform="matrix(.38344 -.81347 .8157 .35334 -2295.76 2694)" gradientUnits="userSpaceOnUse" id="P" x1="1903.13" x2="2235.34" y1="2517.8" y2="2517.8"><stop offset="0" stop-color="#7ec9cf"/><stop offset="1" stop-color="#5f67fa"/></linearGradient><linearGradient gradientTransform="matrix(.38344 -.81347 .8157 .35334 -2618.14 3590.16)" gradientUnits="userSpaceOnUse" id="Q" x1="1910.38" x2="2083.39" y1="2795.79" y2="2795.79"><stop offset="0" stop-color="#7ec9cf"/><stop offset="1" stop-color="#5f67fa"/></linearGradient><linearGradient gradientTransform="matrix(.28729 -.6095 .76083 .32958 -2147.84 3092.53)" gradientUnits="userSpaceOnUse" id="R" x1="1910.38" x2="2083.39" y1="2795.79" y2="2795.79"><stop offset="0" stop-color="#7ec9cf"/><stop offset="1" stop-color="#5f67fa"/></linearGradient><linearGradient gradientTransform="matrix(.38344 -.81347 .8157 .35334 -2618.14 3590.16)" gradientUnits="userSpaceOnUse" id="S" x1="1781.24" x2="1902.15" y1="2719.43" y2="2719.43"><stop offset="0" stop-color="#7ec9cf"/><stop offset="1" stop-color="#5f67fa"/></linearGradient><linearGradient gradientTransform="matrix(.38344 -.81347 .8157 .35334 -2654.13 3520.54)" gradientUnits="userSpaceOnUse" id="T" x1="1781.24" x2="1902.15" y1="2719.43" y2="2719.43"><stop offset="0" stop-color="#7ec9cf"/><stop offset="1" stop-color="#5f67fa"/></linearGradient><linearGradient gradientTransform="matrix(.38344 -.81347 .8157 .35334 -2523.5 3435.87)" gradientUnits="userSpaceOnUse" id="U" x1="1781.24" x2="1902.15" y1="2719.43" y2="2719.43"><stop offset="0" stop-color="#7ec9cf"/><stop offset="1" stop-color="#5f67fa"/></linearGradient><linearGradient gradientTransform="matrix(.38344 -.81347 .8157 .35334 -2475.03 3311.01)" gradientUnits="userSpaceOnUse" id="V" x1="1781.24" x2="1902.15" y1="2719.43" y2="2719.43"><stop offset="0" stop-color="#7ec9cf"/><stop offset="1" stop-color="#5f67fa"/></linearGradient><linearGradient gradientTransform="matrix(.38344 -.81347 .8157 .35334 -2618.14 3590.16)" gradientUnits="userSpaceOnUse" id="W" x1="1903.13" x2="2235.34" y1="2517.8" y2="2517.8"><stop offset="0" stop-color="#7ec9cf"/><stop offset="1" stop-color="#5f67fa"/></linearGradient><linearGradient gradientTransform="matrix(.98851 -.6707 .69753 .85266 -2450.33 2969.75)" gradientUnits="userSpaceOnUse" id="X" x1="1910.38" x2="2083.39" y1="2795.79" y2="2795.79"><stop offset="0" stop-color="#7ec9cf"/><stop offset="1" stop-color="#5f67fa"/></linearGradient><linearGradient gradientTransform="matrix(.74064 -.50252 .65061 .7953 -1575.16 2694.18)" gradientUnits="userSpaceOnUse" id="Y" x1="1910.38" x2="2083.39" y1="2795.79" y2="2795.79"><stop offset="0" stop-color="#7ec9cf"/><stop offset="1" stop-color="#5f67fa"/></linearGradient><linearGradient gradientTransform="matrix(.98851 -.6707 .69753 .85266 -2450.33 2969.75)" gradientUnits="userSpaceOnUse" id="Z" x1="1781.24" x2="1902.15" y1="2719.43" y2="2719.43"><stop offset="0" stop-color="#7ec9cf"/><stop offset="1" stop-color="#5f67fa"/></linearGradient><linearGradient gradientTransform="matrix(.98851 -.6707 .69753 .85266 -2444.67 2873.03)" gradientUnits="userSpaceOnUse" id="aa" x1="1781.24" x2="1902.15" y1="2719.43" y2="2719.43"><stop offset="0" stop-color="#7ec9cf"/><stop offset="1" stop-color="#5f67fa"/></linearGradient><linearGradient gradientTransform="matrix(.98851 -.6707 .69753 .85266 -2237.7 2855.07)" gradientUnits="userSpaceOnUse" id="ab" x1="1781.24" x2="1902.15" y1="2719.43" y2="2719.43"><stop offset="0" stop-color="#7ec9cf"/><stop offset="1" stop-color="#5f67fa"/></linearGradient><linearGradient gradientTransform="matrix(.98851 -.6707 .69753 .85266 -2097.88 2746.18)" gradientUnits="userSpaceOnUse" id="ac" x1="1781.24" x2="1902.15" y1="2719.43" y2="2719.43"><stop offset="0" stop-color="#7ec9cf"/><stop offset="1" stop-color="#5f67fa"/></linearGradient><linearGradient gradientTransform="matrix(.98851 -.6707 .69753 .85266 -2450.33 2969.75)" gradientUnits="userSpaceOnUse" id="ad" x1="1903.13" x2="2235.34" y1="2517.8" y2="2517.8"><stop offset="0" stop-color="#7ec9cf"/><stop offset="1" stop-color="#5f67fa"/></linearGradient><linearGradient gradientUnits="userSpaceOnUse" id="ae" x1="1659.37" x2="2128.41" y1="1440.48" y2="1440.48"><stop offset="0" stop-color="#666b8e"/><stop offset="1"/></linearGradient><linearGradient gradientTransform="rotate(-109.692 2423.36685058 3232.61450204)" gradientUnits="userSpaceOnUse" id="af" x1="1659.37" x2="2128.41" y1="1440.48" y2="1440.48"><stop offset="0" stop-color="#666b8e"/><stop offset="1"/></linearGradient><linearGradient gradientTransform="matrix(.60808 0 0 .60089 447.089 544.638)" gradientUnits="userSpaceOnUse" id="ag" x1="1157.08" x2="1618.16" y1="727.936" y2="727.936"><stop offset="0" stop-color="#474c6b"/><stop offset="1"/></linearGradient><linearGradient gradientUnits="userSpaceOnUse" id="ah" x1="792.543" x2="1154.27" y1="1468.92" y2="1468.92"><stop offset="0" stop-color="#474c6b"/><stop offset="1"/></linearGradient><linearGradient gradientUnits="userSpaceOnUse" id="ai" x1="2396.63" x2="2873.24" y1="2789.13" y2="2789.13"><stop offset="0" stop-color="#474c6b"/><stop offset="1"/></linearGradient><linearGradient gradientUnits="userSpaceOnUse" id="aj" x1="790.222" x2="1120.93" y1="2446.9" y2="2446.9"><stop offset="0" stop-color="#474c6b"/><stop offset="1"/></linearGradient><linearGradient gradientUnits="userSpaceOnUse" id="ak" x1="566.251" x2="860.446" y1="3201.94" y2="3201.94"><stop offset="0" stop-color="#474c6b"/><stop offset="1"/></linearGradient></defs><path d="M978.825 626.878C506.4 867.465 275.297 1162.48 196.666 1546.9c-86.418 422.49-54.211 605.38-134.858 991.08-89.9572 430.23 28.0512 641.01 141.137 792.7 126.06 169.09 244.83 230.48 283.711 420.4 46.521 227.24-71.572 382.91-16.104 613.72 55.468 230.82 255.663 323.59 687.088 382.91 429.42 59.05 770.86-35.95 1329.02-30.76 558.16 5.19 357.2 102.24 883.68 47.03 526.48-55.2 723.63-108.51 874.94-245.4 81.44-73.68 243.06-187.87 404.58-779.78 161.52-591.9 227.15-1567.01 227.15-1567.01s58.13-738.39 4.39-939.1c-39.51-147.56-80.68-498.783-429.07-791.356-348.4-292.574-699.38-323.965-962.59-343.4172-316.34-23.3787-361.15-10.5587-720.3 105.4982C2410.29 319.471 2283.83 530 1995.26 599.007c-266.51 63.73-607.64-180.313-1016.435 27.871Z" fill="#030303" vectornator:layerName="Слой 16"/><path d="M4867.17 2382.69c156.36-12.37-396.69 766.95-481.91 1200.92-85.22 433.97 141.03 534.97 141.03 534.97s-160.76 407.53-382.28 503.8c-221.52 96.28-543.31 110.7-728.03 146.42-420.89 81.37-310.56-300.18-404.18-290.32-46.85 4.93-1130.85 285.82-1575.2 288.97-260.14 1.85-581.777-61.04-732.254-129.83-106.092-48.5-113.856-117.21-12.901-92.74 322.125 78.1 1985.385-246.07 1985.385-246.07s260.71-359.75 512.42-468.32c251.7-108.57 136.22 347.49 401.78 110.25 128.99-115.24 238.08-1072.99 466.69-669.7 177.42 312.98 729.05-881.98 809.45-888.35Z" fill="#7ec9cf" vectornator:layerName="Слой 13"/><g vectornator:layerName="Слой 2"><path d="M2335.52 591.372c-223.12 111.284-429.02 318.807-326.54 363.854 102.48 45.044 159.39-61.267 439.71-138.779 280.33-77.512 785.23-61.677 785.23-61.677s-675.29-274.682-898.4-163.398ZM3495 490.445c57.44-108.111 344.39-28.674 566.99 192.176 222.6 220.85 323.41 691.229 323.41 691.229l-490.2-450.419S3437.57 598.555 3495 490.445Zm1043.01 729.085c-107.46-42.43 100.91 593.46-77.51 1012.57-130.73 307.07-553.97 437.9-561.59 587.81-18.02 354.51 683.28 182.5 683.28 182.5l308.14-600.59s-244.86-1139.86-352.32-1182.29Z" fill="#001d56"/><path d="M3181.82 2739.9c50.48-163.33 481.45-209.57 481.45-209.57s468.09-365.9 473.72-269.05c5.63 96.85-451.19 656.44-451.19 656.44l-414.43 378.39s-158.33 213.32-211.26 176.16c-52.93-37.17 140.28-373.41 140.28-373.41s-69.04-195.63-18.57-358.96Z" fill="#001d56"/><path d="M4322.9 876.478c28.01 280.412 348.78 525.042 355.24 864.712 2.73 143.64-86.03 533.25 13.74 393.75 225.23-314.91-108.08 328.86-65.82 458.03 42.26 129.16 228.5 83.38 234.88 58.63 46.76-181.67 87.02-836.45 43.58-1295.84-43.45-459.394-260.6-724.187-338.39-736.212-77.79-12.025-271.23-23.479-243.23 256.93Z" fill="#7ec9cf"/><path d="M4774.86 873.939s-109.01-292.81-399.22-494.477c-346.45-240.741-539.73-251.37-757.99-272.182-240.74-22.9553-315.86-9.9304-132.94 136.77 182.93 146.701 562.95 205.503 883.16 360.764 320.22 155.26 406.99 269.125 406.99 269.125Z" fill="#6d74ab"/></g><path d="M4426.35 3048.13c114.48-226.7 387.47-663.06 446.35-667.2 58.88-4.15-53.55 635.68-90.5 841.22-36.95 205.54-116.56 500.49-230.81 832.13-120.02 348.41-198.69 6.29-304.07 136.3-107.64 132.8-60.73 424.7-171.86 456.19-111.14 31.5-272.68-330.21-272.68-330.21s300.57-951.69 439.62-678.02c139.04 273.67 69.47-363.7 183.95-590.41Z" fill="#6d74ab" vectornator:layerName="Слой 15"/><g vectornator:layerName="Слой 12"><path d="m4282.99 1949.45 63.18 108.6s-403.04 246.28-412.01 271.21c-7.1 19.76 287.86-62.69 385.08-103.07 122.21-50.77 159.73-70.1 306.92-209.8 136.4-129.47 272.54-310.18 253.47-319.12-20.38-9.57-223.77 160.56-329.21 235.66-105.43 75.1-92.75 62.91-92.75 62.91l-72.64-124.7-64.37 38.68-37.67 39.63Z" fill="#35367c"/><path d="M1349.94 3205.76s-75.66 133.39-152.73 283.54c-77.07 150.15-215.967 322.86-215.967 322.86s130.107 140.15 118.847 194.81c-18.79 91.22-172.337 360.81-178.205 411.85-7.993 69.5 10.234 151.94 38.446 179.83 30.993 30.65 116.649 59.37 233.579 70 116.93 10.63 196.94 4.95 250.71-6.84 67.01-14.71 240.18-140.33 282.26-140.68 20.2-.16 51.95 18.52 114.66 38.21 62.71 19.7 96.84 40.68 136.18 40.58 47.45-.13 112.31-17.8 224.81-54.56 112.5-36.76 239.14-68.8 265.11-107.62 40.25-60.15 20.57-387.4 17.55-417.71-4.66-46.79-46.83-250.71-113.83-417.76-41.03-102.27-133.2-258.47-133.2-258.47l-63.55-338.02s-161.71 10.27-264.66 7.95c-102.94-2.31-129.63 19.64-129.63 19.64s-7.56 24.84-22.2 29.34c-53.22 16.36-32.83 37.23-95.5 74.53-62.67 37.3-67.13 48.93-145.3 66.06-78.17 17.13-167.38 2.46-167.38 2.46Z" fill="#343a5f"/></g><path d="M4312.71 1958.45 4375.2 2068l-379.57 237.53s267.66-61.09 465.12-183.29c190.67-118.01 376.87-380.93 376.87-380.93l-384.3 283.29-65.98-111.03s-24.42 6.98-43.08 18.2c-18.65 11.22-31.55 26.68-31.55 26.68Z" fill="#464cae" vectornator:layerName="Слой 11"/><path d="M3528.95 667.241s18.01-23.985 44.02-39.636c26.01-15.652 60.92-9.409 79.7 9.996 50.21 51.899 136.81 213.235 277.71 453.239 92.66 157.84 196.13 322.57 248.41 412.06 27.21 46.59 32.34 67.68 32.34 67.68l187.06 323.22s-34.17 5.34-61.22 20.36c-28.16 15.65-51.78 39.7-51.78 39.7s-316.52-517.41-504.46-837.35c-188.01-320.064-251.78-449.269-251.78-449.269Z" fill="#282f55" vectornator:layerName="Слой 10"/><path d="M3554.21 687.148s13.44-6.284 30.29-18.545c15.92-11.594 27.03-24.874 48.79-15.223 28.84 12.792 166.3 260.189 322.18 518.68 200.84 333.04 415.63 710.59 415.63 710.59s-22.56 7.26-43.04 17.61c-20.48 10.36-36.32 27.17-36.32 27.17L3554.21 687.148Z" fill="#3e4676" vectornator:layerName="Слой 9"/><g vectornator:layerName="Слой 8"><path d="M3385.66 1990.77c-1.88-1.14-3.79-4.59-5.65-3.41-2.08 1.31-.39 4.91-.59 7.36" fill="#2e306d"/><path d="M3283.56 656.987s51.6-43.463 119.06-38.583c34.27 2.48 60.34 8.668 83.09 17.623 22.03 8.669 40.79 19.699 71.13 46.319 45.22 39.677 57.84 70.56 88.84 142.23 27.47 63.497 40.14 81.308 52.52 151.762 12.37 70.452-6.47 101.362-6.47 101.362s6.5 88.51-22.47 110.74c-22.04 16.92-47.74-.05-47.74-.05s-25.24-178.63-55.7-139.79c-30.46 38.84-20.18-49.508-20.18-49.508L3362 933.76l-152.55 8.479s-77.26 13.631-89.49 14.018c-12.23.387-40.75 6.853-59.82-18.769-13.27-17.83 3.49-49.329 30.46-65.144 3.86-2.267 47.22-39.988 47.22-39.988l8.69-87.983 82.92-91.895 54.13 4.509Z" fill="#3a3c7a"/><path d="m3406.75 2014.86-2.12-4 1.47-2.06 3.83 1.18" fill="#2e306d"/></g><g vectornator:layerName="Слой 7"><path d="M2951.26 2284.18s-68.44 145.53-154.73 296.7c-48.19 84.44-78.03 127.7-140.7 238.84-95.36 169.14-107.96 230.25-112.32 253.03-38.49 200.97 98.97 565.35 98.97 565.35l312.31-12.01 82.75-589.06 144.83-352.36s4.39 25.79 21.75 97.09c14.51 59.59 37.89 152.69 77.26 272.9 88.55 270.42 281.2 600.26 281.2 600.26l314.11-102.73-157.95-867.83s-50.45-350.74-33.63-377.17c16.81-26.42-52.86-235.43-52.86-235.43L3488.68 1908l-305.99-134.96-163.76 51.24s-36.56 164.6-53.47 279.58c-16.92 114.97-14.2 180.32-14.2 180.32Z" fill="#3a3c7a"/><path d="M3162.76 859.719s-57.24 22.367-73.03 38.09c-15.79 15.724-16.78 30.818.76 32.837 17.54 2.02 38.5-13.378 67.52-23.029 29.02-9.651 142.03-25.352 142.03-25.352l-137.28-22.546Z" fill="#6064bd"/></g><g vectornator:layerName="Слой 6"><path d="M2982.25 2317.61c35.34-2.53 425.75 88.52 507.94 153.3 68.35 53.88 158.83 529.46 158.83 529.46s89.94 344.78 101.41 463.84c8.71 90.45-181.22 159.23-181.22 159.23s-66.31-114.06-132.51-251.41c-66.21-137.34-81.85-159.38-134.78-316.42-32.08-95.19-40.79-124.72-59.69-195.02-14.9-55.4-19.1-81.6-27.63-136.35-19.26-123.52-16.13-134.12-16.13-134.12l-18.44 21.74-18.71 45.04-37.56 91.22-49.28 119.68-90.42 585.73-46.55 73.66-16.83 40.37-250.51 68.97s-85.78-254.89-98.73-425.73c-12.95-170.84 21.12-207.34 46.82-265.12 37.37-84 135.07-250.82 160.73-290.14 25.65-39.33 167.92-335.41 203.26-337.93Zm54.99-428.94c-13.59 35.87-29.11 100.71-43.42 193.7-14.32 92.99-34.24 155.6-13.85 178.26 15.13 16.82 300.17 92.49 300.17 92.49l363.66 9.73 1.57-237.4-149.73-198.84-107.18-93.25s-124.11-30.73-215.92-34c-58.11-2.08-48-38.91-74.82 24.08-1.61 3.76-50.82 39.73-60.48 65.23Z" fill="#5c60b5"/><path d="M3130.73 767.303c0-71.564 48.77-129.579 108.93-129.579 60.16 0 108.93 58.015 108.93 129.579 0 71.565-48.77 129.58-108.93 129.58-60.16 0-108.93-58.015-108.93-129.58Z" fill="#3d4190"/><path d="M2070.41 3431.65c-54.2 24.44-67.55 37.74-89.8 68.46-36.21 49.99-32.25 125.92-5.58 178.64 35.35 69.88 149.64 99.52 149.64 99.52l-71.48-243.42 121.91-108.48s-63.89-13.11-104.69 5.28ZM987.744 4485.73c-13.602 23.47-2.445 69.22 16.346 89.3 24.34 26 140.2 30.23 140.2 30.23l210.25-197.39L1510.8 4326s-151.61 15.97-246.38 31.16c-94.76 15.19-115.83 20.47-170.18 49.89-59.83 32.38-92.89 55.2-106.496 78.68Z" fill="#4a5283"/></g><g vectornator:layerName="Слой 5"><path d="M3083.85 1935.24c-2.69 19.56 43.47 15.97 82.15 23.42 42.1 8.11 81.26 12.14 162.54 28.83 67.87 13.93 77.11 34.44 79.57 76.09 1.77 29.92-5.31 88.98-9.75 132.33-5.23 51.2-6.84 41.59-10.39 72.79-2.32 20.34 15.6 26.77 20.32 6.73 6.86-29.16 7.8-42.09 17.24-107.18 7.26-50.04 6.29-103.29 5.91-120.08-.39-16.78-7.71-39.34-18.81-48.86-19.5-16.73-25.09-20.07-96.54-33.54-71.44-13.47-97.19-20.76-153.65-29.44-56.46-8.68-76.53-16.08-78.59-1.09Z" fill="#383b7e"/><path d="M3334.12 1375.04c-8.13 1.74-150.91 202.04-150.91 202.04l-98.19 128.43s37.88-3.1 70.82.45c32.94 3.56 60.94 13.78 60.94 13.78l173.68-317.99-23.23-44.14s-24.98 15.69-33.11 17.43Z" fill="#2e306d"/><path d="M3336.72 1396.24s-60.12 75.16-108.53 150.36c-48.4 75.2-85.09 150.46-85.09 150.46s17.1.48 32.39 2.36c15.29 1.87 31.87 8.86 31.87 8.86s27.03-69.58 59.02-130.5c34.72-66.12 64.93-115.25 64.93-115.25l51.74-72-46.33 5.71Z" fill="#464a94"/><path d="M3337.11 955.942c-22.01 11.076-42.08 17.811-56.28 25.516-4.02 2.184-10.22 7.96-15.2 21.602-4.97 13.64-5.31 29.02-7.82 34.59-5.11 11.35-15.07-56.404-22.73-58.559-6.65-1.872-33.53 8.991-54.31 47.289-8.87 16.35-14.2 33.15-17.65 45.35-5.32 18.8-6.64 39.3-12.25 44.32-6.44 5.75-38.31-12.93-38.31-12.93s-20.42 36.67-38.43 85.26c-18 48.6-29.58 114.86-29.58 114.86l152.56-48.95s88.63 97.26 91.56 106.62c2.93 9.37 94.79 43.51 94.79 43.51s8.4 14.66 17.48 27.15c2.91 4.01 5.44 8.42 8.24 11.4 1.12 1.18 2.81 1.06 3.78 2.24 10.93 13.41 18.34 8.64 18.34 8.64l118.47-28.59s13.91-13.55 28.51-22.55c14.6-9 31.55-8.95 31.55-8.95s-15.76-36.82-20.16-80.22c-4.41-43.41-7.49-74.77-.87-95.66.93-2.94 3.67-7.22 3.67-7.22s19.46 4.73 24.99-6.15c12.75-25.06 23.71-57.12 24.83-85.12.4-9.87-.17-23.24-2.58-31.62-2.17-7.59-5.67-23.28-10.44-31.23-8.37-13.98-25.49-21.58-37.26-17.47-21.34 7.43-22.59 79.33-27.22 64.75-6.64-20.94-10.42-40.98-32.96-75.67-22.54-34.686-27.32-38.68-46-50.534-33.66-21.356-101.05-43.337-116.97-40.463-10.69 1.929-9.75 7.713-31.75 18.789Z" fill="#dd7bb7"/><path d="M3616.41 1139.16s-14.24 6.95-17.98 20.54c-3.75 13.59-2.53 31.57 3 33.82 5.53 2.25 12.56-12.39 19.11-24.81 6.55-12.41 8.12-17.46 7.09-24.85-1.04-7.39-11.22-4.7-11.22-4.7Z" fill="#fe9edb"/><path d="M3670.99 689.725c-18.96 13.868-41.73 33.882-44.6 50.045-2.87 16.162 2.83 24.806 8.22 31.24 8.42 10.046 29.22 6.959 29.22 6.959s-8.94 14.941-7.42 30.637c1.52 15.696 13.84 23.664 13.84 23.664 9.82 6.88 27.22 4.011 27.22 4.011s-6.52 12.534-6.35 24.733c.17 12.199 4.64 19.064 15.54 23.563 10.53 4.345 27.24-2.173 27.24-2.173s-2.74 6.149.67 14.697c3.64 9.139 14.45 14.393 22.14 13.674 7.69-.719 20.69-9.631 28.46-17.269 9.06-8.894 21.67-23.62 21.67-23.62s12.35-14.185 10.59-29.037c-1.54-13.009-18.53-15.491-18.53-15.491s10.58-18.941 7.02-30.188c-2.2-6.947-8.79-18.634-17.05-21.307-10.36-3.347-19.65-3.405-19.65-3.405s7.6-12.857 7.44-23.625c-.15-9.661-4.21-17.234-12.48-23.399-8.44-6.295-14.45-3.986-19.69-11.269-2.48-3.454.59-17.946-6.34-27.968-6.93-10.022-14.52-12.268-21.23-12.892-13.07-1.215-29.35 6.293-45.93 18.42Zm315.91 822.795c-19.12 12.38-35.42 23.56-47.63 59.2-12.21 35.65-20.08 78.63-20.08 78.63s-83.26 109.96-134.99 210.68c-23.45 45.65-44.5 87.17-57.83 122.44-16.09 42.54-17.48 91.91-20.96 139.31-4.38 59.79 9.09 123.75 30.47 159.65 13.59 22.83 35.08 55.85 63.31 62.14 43 9.59 61.71-9.96 83.77-32.33 64.03-64.92 135.41-259.2 135.41-259.2l83.74-332.78s37.31-8.81 81.81-35.93c44.5-27.12 89.41-45.16 96.38-78.05 4.57-21.59-13.73-37.14-13.73-37.14s8.9-35.1 2.12-48.56c-8.5-16.84-32.08-22.4-32.08-22.4s-.39-23.8-2.87-30.99c-6.24-18.06-22.87-34.84-58.51-29.71-36.68 5.27-133.86 63.78-133.86 63.78s-35.34-1.11-54.47 11.26Z" fill="#dd7bb7"/><path d="M3757.8 1459.59c-7.76-2.41-32.92 26.67-50.13 48.39-50.86 64.18-126.1 197.47-160.99 254.8-9.6 15.78-13.84 26.19-13.84 26.19l51.7 188.16s12.23 6.03 57.51 55.74c12.06 13.23 14.14 57.86 19.01 75.85 9.15 33.76 42.18 28.59 42.18 28.59s4.84-106.38 37.89-179.59c15.35-33.99 35.37-78.65 54.45-112.2 23.28-40.92 47.36-78.28 68.2-108.8 33.49-49.05 58.62-80.41 58.62-80.41s4.34-28.56 7.64-47.02c3.29-18.45-2.88-32.95-7.33-42.62-3.77-8.19-15.81-29.89-28.71-38.4-40.98-27.04-88.27-53.82-136.2-68.68Zm-371.65-52.34s-11.52 1.78-34.92 43.56c-23.4 41.78-49.84 81.74-82.59 148.89-9.66 19.8-21.04 44.14-30.97 65.69-2.31 5-4.54 9.86-6.65 14.47-10.39 22.67-17.94 39.48-17.94 39.48l5.82 8.57-6.98 59.65 203.14 28.32s73.97-96.27 135.1-188.5c61.14-92.24 110.9-183.77 110.9-183.77s14.02-7.64 5.12-14.02c-8.89-6.38-15.05-10.4-35.74-25.65-11.56-8.52-27.87-30.63-27.87-30.63s-39.87 37.12-49.07 47.89c-7.81 9.14-16.81 17.96-37.64 27.28-45.35 20.3-56.18 10.88-88.8 2.92-5.26-1.28-9.84-2.4-13.67-5.5-5.89-4.75-10.99-12.75-14.63-17.66-8.7-11.75-12.61-20.99-12.61-20.99Zm-342.76-104.31s-15.72 42.01-26.21 110.7c-10.49 68.68-14.23 117-15.74 164.02-1.43 44.72 12.12 87.44 18 119.56 9.42 51.53-5.33 154.37-5.33 154.37l86.54-50.82s-9.86-33.89-.69-39.67c9.58-6.04 27.94-57.26 27.94-57.26s45.62-90.5 89.67-160.44c44.06-69.94 62.08-88.59 94.21-131.19 32.13-42.6 34.31-39.2 34.31-39.2l-107.4-101.21-37.92-25.31-157.38 56.45Z" fill="#4c4f9e"/><path d="M3092.89 958.987c-8.23 5.747-29.76 15.553-37.44 62.633-5.01 30.76 6.16 58.58 18.61 65.04 8.56 4.44 14.97-15.5 22.21-37.86 6.36-19.61 13.34 62.65 42.51 72.82 1.99.69 9.33.28 13.79-8.09 3.54-6.66 4.05-12.28 6.69-25.1 3.81-18.51 9.94-34.36 14.48-45.03 8.48-19.97 9.98-21.24 16.24-29.94 8.15-11.3 18.03-20.558 28.03-28.172 6.39-4.869 15.92-6.181 18.61-3.17 3.61 4.048 4.86 13.972 8 28.962 3.15 14.98 3.47 18.55 5.75 27.35 1.57 6.06 4.16 12.82 6.63 7.53 2.46-5.29 2.37-10.47 4.26-22.47 1.89-12.01 4.63-18.74 7.83-25.541 3.36-7.139 8.14-11.401 23.79-20.347 15.65-8.947 38.01-18.355 38.01-18.355s6.68-2.914 12.34-6.179c7.96-4.592 15.99-10.107 18.85-11.192 22.27-8.431 82.96 12.255 105.76 26.493 28.62 17.877 43.93 34.471 65.69 65.241 21.76 30.78 33.01 79.58 33.01 79.58l8.76-44.28s1.12-8.86 4.85-16.27c3.74-7.4 10.24-12.91 10.24-12.91s-34.59-36.14-61.9-53.986c-43.07-28.143-76.61-42.03-146.28-54.938-58.75-10.886-94.76-16.754-174.77-8.254-72.32 7.684-97.34 24.417-114.55 36.435Z" fill="#2a3276"/><path d="M3665.79 1429.29s-1.88 3.75-4.5 9.39c-2.34 5.03-7.6 15.74-9.94 20.23-45.22 86.86-197.33 299.67-197.33 299.67l85.42 15.25s53.48-87.62 110-166.84c20.31-28.47 45.56-64.72 63.93-88.17 20.8-26.55 33.97-39.52 43.15-58.56 2.33-4.82-20.82-16.83-49.34-24.67-16.11-4.43-41.39-6.3-41.39-6.3Zm-565 335.17 1.44 33.49 6.9 10.79s62.45-6.37 91.37 6.4c25.66 11.33 150.65 25.26 183.42 47.81 58.33 40.13 116.5 99.15 158.71 146.31 38.47 42.97 44.91 94.76 44.91 94.76s3.81 18.64 8.85 44.92c7.49 39.06 17.7 94.99 22.17 131.68 7.5 61.37-11.26 65.46-22.28 67.24-122.06 19.66-382.59-30.46-382.59-30.46l-223.42-50.62s160.24 63.76 257.31 92.85c89.18 26.72 136.52 30.8 225.4 34.88 4.9.23 49.73 1.82 60.27 1.72 73.27-.74 85.51-13.4 103.02 27.85 56.38 132.77 96.61 421.2 132.66 665.22 31.77 214.95 92.28 363.05 58.95 429.25-33.33 66.21-267.47 133.37-267.47 133.37s-26.35 55.59-10.85 94.21c15.5 38.63 72.86 60.3 72.86 60.3s2.67 37.31 20.16 64.96c17.31 27.37 25.13 28.3 25.13 28.3s-17.32 21.45-4.65 70.56c9.37 36.3 32.76 52.74 32.76 52.74s-70.33 28.9-123.94 70.42c-49.97 38.71-83.08 89.45-93.11 109.89-29.6 60.36 10.05 143.98 79.33 156.26 41.13 7.29 134.39 9.14 209.07-25.63 40.28-18.76 102.45-56.56 123.85-71.07 37.45-25.37 23.4-59.06 62.33-88.44 37.96-28.65 104.12-14.37 104.12-14.37s30.48-9.49 69.01-44c38.54-34.51 48.22-36.26 56.94-61.86 7.9-23.2-39.08-95.23-59.5-125.39-17.33-25.6-64.93-48.34-64.93-48.34s2.25-28.23-6.91-48.64c-9.17-20.41-29.74-33-29.74-33s2.89-35.76-3.83-68.85c-6.01-29.59-51.48-68.55-51.48-68.55s.46-60.46-29.33-122.33c-21.75-45.17-60.11-79.76-68.98-112.54-33.37-123.34-20.72-68.98-60.79-263.7-40.08-194.72-28.98-294.79-42.23-448.6-13.23-153.72-56.56-243.73-71.99-364.13-8.26-64.35 21.65-118.79 21.65-118.79l-12.07-94.16s-22.17-3.36-34.72-26.31c-12.56-22.95-12.27-50.59-17.81-63.7-5.14-12.16-11.65-23.29-21.24-33.79-9.59-10.51-10.92-13.15-42.62-35.08-35.32-24.44-56.57-86.64-56.57-86.64l-129.99-78.56s-66.05-10.49-120.77-19.41c-54.71-8.92-55.71-10.82-98.09-16.28-42.38-5.46-80.69-12.94-80.69-12.94Z" fill="#2e306d"/><path d="m3180.58 2611.34 24.53 174.61s-102.14 137.76-149.92 317.74c-47.78 179.99-39.28 264.27-58.05 392.47-18.77 128.2-21.01 121.99-21.01 121.99s22.07 22.42 30.3 58.46c9.05 39.58 2.68 95.97-15.6 111.77-1.87 1.62 8 9.55 17.09 22.15 4.44 6.15 20.79 40.13 17.92 69.31-3.74 38.13-21.15 68.44-22.88 69.63-1.81 1.26 16.8 38.07 21.91 83.19 7.51 66.22-3.26 99.46-1.42 151.37 1.84 51.91-1.54 59.59-1.54 59.59s-32.77 54.48-91.18 72.8c-10.09 3.17-21.25 5.53-32.98 7.34-26.78 4.12-57.21-21.95-83.95-20.6-27.44 1.39-130.13 33.44-144.83 38.29-95.45 31.48-183.25.16-183.25.16s4.61-103.01 3.99-148.95c-.45-32.8-.43-64.22-.55-85.58-.03-6.94-.72-25.86-.72-25.86s48.33-16.32 92-30.01c43.66-13.69 91.03-13.9 86.88-18.35-10.4-11.16-18.43-41.06-16.54-59.39 3.07-29.82 25.43-49.99 25.43-49.99s-21.91-27.29-27.89-53.91c-5.97-26.62 7.27-52.96 10.53-57.73 3.26-4.78 11.11-12.3 12.77-16.43 1.65-4.13-41.9-25.87-47-70.89-4.69-41.37 17.74-87.31 17.74-87.31l24.07-4.02s32.37-9.2 75.23-20.39c61.83-16.15 146.53-45.52 196.11-133.73 83.95-149.34 41.62-316.2 64.46-443.25 22.84-127.05 43.63-169.02 76.82-244.64 40.28-91.75 101.53-179.84 101.53-179.84Zm313.28-238.39 45.42 2.95s11.29 66.52 58.91 121.14c47.62 54.62 131.58 97.34 131.58 97.34s-57.32 10.97-105.33-22.72c-48-33.7-78.88-66.21-108.21-119.22-29.33-53.01-22.37-79.49-22.37-79.49Z" fill="#2e306d"/><path d="M2696.16 3795.66s-48.55-29.07-52.94-59.89c-4.39-30.83 10.12-54.7 10.12-54.7s79.56-2.17 151.85-19c72.29-16.83 81.68-37.66 116.11-17.99 30.52 17.45 27.52 27.9 32.38 73.66 3.1 29.18-28.89 85.68-28.89 85.68s43.09 27.7 50.94 72.1c7.85 44.41-11.7 85.15-11.7 85.15s28.49 72.28 6.06 178.25c-14.68 69.4-46.19 96.01-63.06 104.3-34.98 17.18-419.79 77.52-419.79 77.52l2.1-200.19s29.18-21.57 78.68-38.91c49.51-17.34 121.12-28.77 121.12-28.77s-28.07-47.18-24.13-72.3c3.56-22.69 34.31-47.07 34.31-47.07s-35.62-25.1-39.5-67.89c-3.88-42.79 36.34-69.95 36.34-69.95Zm884.15-125.26c-13.12 19.17-15.87 42.17-5.98 74.38 9.89 32.2 71.15 47.06 71.15 47.06s-5.89 26.4 7.28 52.61c13.18 26.22 38.06 48.77 38.06 48.77s-21.72 37.36-11.63 72.87c8.48 29.81 37.07 56.02 37.07 56.02s-50.26 28.36-90.35 54.77c-49.01 32.28-68.78 46.34-97.17 86.43-32.26 45.57-42.45 89.96-7.79 124.81 34.65 34.86 60.28 39.63 146.41 14.62 86.13-25.02 198.09-114.67 198.09-114.67s182.64-96.82 205.81-173.19c13.85-45.61-46.31-103.35-46.31-103.35s1.23-32.35-9.06-55.77c-10.29-23.43-32.1-37.92-32.1-37.92s.05-35.04-12.91-64.17c-12.96-29.13-46.47-61.13-46.47-61.13s-6.08-110.67-62.03-120.75c-55.95-10.07-84.48 26.23-142.47 47.66-58 21.42-126.49 31.79-139.6 50.95Z" fill="#4c4f9e"/><path d="M3157.9 770.43c0-60.215 34.41-109.029 76.86-109.029s76.92 48.276 76.92 108.491c0 60.215-34.47 109.566-76.92 109.566s-76.86-48.813-76.86-109.028Z" fill="#7278df"/></g><g vectornator:layerName="Слой 4"><path d="M3229.37 991.589c-3.18-6.69-24.22 13.991-39.51 42.851-15.3 28.85-17.75 43.74-19.26 78.27-2.69 61.22 13.41 125.59 37.72 166.12 44.72 74.56 100.2 121.43 175.1 131.03 41.53 5.33 110.07-12.59 136.36-39.79 43.18-44.64 41.13-73.25 45.02-119.32 4.72-55.97-24.44-110.42-30.32-125.7-5.88-15.27-42.84-99.51-84.7-137.727-22.25-20.316-63.38-41.386-77.91-39.385-5.22.717-18.22 10.972-41.15 22.244-14.36 7.059-35.12 11.215-47.49 22.913-12.38 11.695-10.6 21.005-14.05 32.015-5.14 16.4-5.37 30.15-10.04 32.38-6.33 3.01-12.99-12.88-18.73-30.61-5.74-17.73-6.48-25.7-11.04-35.291Zm181.82 452.131s43.69-7.65 76.47-23.98 54.65-41.35 54.65-41.35l9.88 44.12s-19.12 22.84-48.47 32c-29.36 9.15-36.44 9.45-59.57 6.76-23.13-2.7-32.96-17.55-32.96-17.55Zm-298.34-317.09c2.47-3.61 9.29-4.97 13.74-3.51 2.67.87 5.3.89 5.96 5.24 2.86 18.91-.2 29.24 5.68 61.92 5.89 32.68 16.6 56.2 14.67 63.73-1.63 6.35-82.14 32.92-85.73 29.49-9.77-9.32 2.94-47.41 16.05-88.85 13.11-41.44 18.03-51.09 29.63-68.02Zm622.93-395.842c-14.64 8.691-18.73 13.383-34.87 28.516-16.98 15.92-27.12 27.664-27.44 40.66-.33 12.996 14.25 19.223 21.86 17.654 9.17-1.891 24.63-16.714 42.37-33.871 17.75-17.156 22.9-24.42 25.24-31.914 3.94-12.647-12.52-29.737-27.16-21.045Zm31.11 54.848c-14.64 8.691-18.74 13.383-34.88 28.516-16.97 15.92-27.11 27.665-27.44 40.661-.32 12.996 14.26 19.223 21.87 17.653 9.17-1.891 24.62-16.714 42.37-33.87 17.75-17.157 22.89-24.421 25.23-31.915 3.95-12.647-12.52-29.737-27.15-21.045Zm19.64 51.69c-10.32 6.579-13.12 9.968-24.28 21.024-11.74 11.631-18.66 20.11-18.38 29.029.28 8.919 11.16 12.566 16.65 11.166 6.61-1.685 17.28-12.5 29.53-25.011 12.26-12.511 15.72-17.707 17.12-22.942 2.38-8.834-10.31-19.844-20.64-13.266ZM3705 681.962c-15.26 7.534-19.71 11.896-36.97 25.737-18.16 14.561-29.17 25.487-30.5 38.419-1.32 12.932 12.73 20.267 20.44 19.29 9.29-1.177 25.84-14.762 44.86-30.496 19.02-15.734 24.71-22.579 27.62-29.87 4.92-12.304-10.18-30.615-25.45-23.08ZM3933.17 1704.4c1.78-22.45 2.34-47.84 14.39-90.61 9.89-35.14 22.03-62.29 29.19-70.03 11.44-12.37 55.62-24.53 108.94-48.3 53.31-23.78 64.17-46.72 96.85-42.22 13.71 1.89 29.72 9.67 30.81 33.05.81 17.15-14.38 27.25-14.38 27.25s19.23-9.35 33.47-.46c15.37 9.6 16.95 32.98 15.36 39.17-2.61 10.2-17.97 22.44-17.97 22.44s22.33 4.52 25.71 13.06c4.67 11.8-8.33 31.01-11.85 33.22-5.96 3.75-44.28 27.65-103.16 55.64-48.22 22.92-88.81 37.78-118.19 41.04-25.94 2.87 26.73.87 25.55 7.11-21.59 114.06-92.26 294.13-157.77 437.99-65.5 143.86-89.6 143.19-105.59 143.68-20.18.62-35.76-26.57-50.43-69.76-14.67-43.18-13.5-108.6-13.09-112.85 5-51.48 13.89-99.88 33.04-153.83 25.38-71.49 35.85-91.89 77.63-159.72 41.6-67.53 68.4-102.62 91.87-130.8 5.14-6.18 8.78 35.6 9.62 24.93Z" fill="#fe9edb"/><path d="M3722.26 1519.83c-15.31 19.43-33.03 42.95-48.1 65.73-35.13 53.07-47.81 76.37-72.52 116.89-24.7 40.52-50.15 82.89-50.15 82.89s-9.34 10.16-8.71 17.46c.62 7.33-24.59 82.3-23.87 86.86 8.19 51.76 67.45 88.63 67.45 88.63l19.49-172.18 1.67-14.79s37.51 205.63 59.42 226.31c14.51 13.71 37.02-16.44 43.72-34.65 5.54-15.06 42.07-94.95 42.07-94.95s35.62-68.72 69.09-124.91c33.47-56.19 53.58-73.66 83.69-117.96 17.74-26.09-162.9-151.16-183.25-125.33Zm-342.17-91.67c-8.11 7.35-26.27 42.24-47.11 75.54-21.7 34.67-43.68 81.9-63.3 119.63-38.45 73.98-40.45 123.98-40.45 123.98s22.59 19.66 60.91 35.51c38.33 15.86 104.48 30.23 104.48 30.23l37.68-51.26 16.14-6.73s148.29-210.54 178.14-278.68c0 0-14.45-4.88-30.25-16.22-15.79-11.34-32.94-29.14-32.94-29.14s2.38-.25-8.12 8.57c-10.5 8.83-53.39 31.28-62.55 33.9-21.68 6.22-49.03 6.78-75.03-8.96-25.59-15.48-26.5-46.43-37.6-36.37Zm-332.1-112.53s118-50.48 127.7-40.79c33.09 33.1 72.06 127.1 47.66 208.95-2.21 7.4-36.01 64.78-68.9 108.11-32.89 43.34-55.07 67.09-68.55 78.24-12.42 10.28-55.35 39.4-66.3-45.97-10.95-85.38 28.39-308.54 28.39-308.54Z" fill="#6064bd"/><path d="M3101.29 964.994c-9.14 7.137-18.28 14.032-24.98 27.458-2.99 5.996-7.67 16.888-9.33 27.598-2.7 17.34 1.88 75.65 12.11 42.98 2.83-9.07 19.32-45.63 23.68-39.41 4.35 6.22 21.81 91.67 38.48 82.85 8.18-4.32 12.76-44.85 19.16-61.84 10.11-26.8 23.41-42.66 36.38-54.688 15.28-14.178 32.51-24.898 46.96-17.97 16.22 7.774 7.2 49.498 14.47 27.235 3.54-10.826 17.06-25.103 32.22-31.941 28.42-12.816 57.07-20.931 49.69-31.683-5.45-7.95-31.25-6.3-52.57-5.416-24.5 1.016-33.04-1.073-56.89 1.428-46.33 4.859-42.81 2.557-78.65 12.671-25.88 7.305-37.5 10.404-50.73 20.728Zm442.27 65.606c-1.95 7.47 21.44 41.23 21.44 41.23s10.61-26.61 8.24-30.33c-2.38-3.71-27.72-18.37-29.68-10.9Z" fill="#464cac"/><path d="M3672.04 1441.77c3.56-4.43 22.27-.78 40.13 4.38 17.86 5.16 31.85 13.13 31.32 16.25-1.57 9.38-17.91 25.71-42.37 59.37-19.9 27.4-45.66 60.66-71.6 98.04-53.95 77.73-91.2 134.04-91.2 134.04l-62.02-7.33s11.52-17.33 40.07-59.85c16.88-25.13 40.91-58.95 59.97-88.45 51.29-79.4 90.66-150.16 95.7-156.45Z" fill="#464a94"/><path d="M3366.85 895.951c77.16 12.409 97.38 21.396 152.23 54.734 48.77 29.642 82.93 73.555 82.93 73.555s28.26 6.34 42.27 34.36c10.09 20.18 12.67 58.31 8.46 85.37-3.82 24.54-10.09 41.72-10.09 41.72s21.27-22.63 24.85-48.39c2.17-15.63 1.74-32.16-2.13-55.6-3.87-23.43-15.39-41.65-15.39-41.65s-8.5-22.19-30.67-47.636c-22.17-25.447-29.86-34.248-58.01-54.156-28.16-19.909-41.23-29.108-71.84-43.155-34.55-15.855-51.96-21.411-92.91-31.883-40.96-10.472-72.58-13.57-72.58-13.57s-6.29 8.271-14.28 16.33c-7.98 8.058-21.65 17.599-21.65 17.599s26.27 3.924 78.81 12.372Z" fill="#6064bd"/><path d="M3175.01 769.796c0-49.198 26.25-89.081 58.62-89.081 32.38 0 58.63 39.883 58.63 89.081 0 49.199-26.25 89.082-58.63 89.082-32.37 0-58.62-39.883-58.62-89.082Z" fill="#454996"/><path d="m1382.24 3305.72-126.51 229.97 175.43-88.84-345.69 354.54 31.49 47.64 112.89-112.01 149.71-56.76 159.39 15.71 132.76 88.36s-46.88 87.66-96.49 171.21c-49.14 82.77-105.5 168.95-155.14 198.06-35.49 20.83-280.89-96.23-280.89-96.23l-141.418 302.79 529.308-60.43s-236.65 83.67-322.89 133.41c-122.29 70.53-238.909 141.98-164.94 158.05 32.39 7.03 17.23 5.93 197.98 28.5 50.63 6.32 91.84 26.87 186.14.83 163.83-45.24 240.85-126.17 295.42-136.11 27.71-5.05 65.38 13.2 126.26 37.44 60.88 24.23 108.98 45.57 142.21 45.69 47.77.16 83.38-12.61 197.18-46.7 113.79-34.09 243.79-65.04 261.2-94.28 31.26-52.49 19.23-320.85 10.49-394.44-8.73-73.59-47.23-250.79-107.89-403.85-46.84-118.2-143.22-224.62-143.22-224.62s-102.76 42.38-110.86 48.93c-8.09 6.54-79.54 58.2-91.29 122.42-11.74 64.21 7.61 106.43 38.28 147.89 38.92 52.6 118.06 61.99 118.06 61.99s-42.6 6.53-97.02-3.79c-79.97-15.16-169.43-125.68-211.72-135.79-89.92-21.48-153.62 78.44-153.62 78.44s56-71.33 120.35-150.87c39.29-48.57 74.39-109 123.04-132.47 70.04-33.79 179.63-25.93 203.81-73.01 44.67-86.99 1.27-286.42 1.27-286.42s-245.39 208.56-263.42 203.71c-9.75-2.63 6.22-65.68 18.25-125.01 12.03-59.33 29.87-112.3 29.87-112.3s-40.32 18.48-82.43 37.63c-42.12 19.15-49.22 39.49-71.09 101.55-21.87 62.07-16.41 146.72-16.41 146.72s-71.83 59.32-121.45 134.95c-49.62 75.62-77.03 167.55-77.03 167.55l-179.37-330.05Z" fill="#9099d4"/></g><g vectornator:layerName="Слой 3"><path d="M3186.74 1100.91s12.05 66.3 31.43 112.98c19.38 46.69 17.58 44.78 41.76 81.07 24.18 36.29 57.66 66.17 49.86 59.69-7.8-6.48 38.07 36.46 38.07 36.46s-57.42-26.74-82.85-49.06c-18.63-16.35-32.18-37.34-50.02-70.59-17.83-33.24-21.54-57.7-26.84-81.67-5.81-26.28-1.41-88.88-1.41-88.88Zm713.71 629.68s-88.84 168.87-108.16 232.66c-24.68 81.51-23.07 76.69-31.45 143.5-8.38 66.81.31 126.59.31 126.59s-19.06-43.16-24.34-82.36c-5.28-39.21-.81-72.16 12.85-130.21 13.67-58.05 13.67-56.52 37.55-111.95 23.87-55.43 32.97-67.81 60.36-111.35 27.38-43.54 52.88-66.88 52.88-66.88Z" fill="#ffbae4"/><path d="M3584.32 1157.35c-5.3-1.37-5.76-44.55-1.91-71.21 3.86-26.67 5.77-32.05 16.85-36.5 11.45-4.6 21.41 10 23.6 16.49 3.86 11.4 15.17 60.52.82 65.59-3.72 1.31-1.93-52.89-13.52-56.23-11.6-3.35-14.67 27.72-14.67 27.72s11.62 3.59 11.62 19.25c0 11.2-18.48 36.01-22.79 34.89Z" fill="#fe9edb"/><path d="M3161.5 962.486c-8.65 4.943-12.63 7.04-21.89 21.007-9.25 13.967-11.65 63.727-11.65 63.727s9.51-37.28 24.54-59.49 35.59-29.351 35.59-29.351-17.18-1.27-26.59 4.107Zm106.73-20.116c-5.44 6.085-5.44 25.115-5.44 25.115s6.67-11.134 11.91-18.383c5.25-7.25 18.9-11.651 18.9-11.651s-19.93-1.165-25.37 4.919Z" fill="#5c62c4"/><path d="M3051.39 1330.09s.04 90.65 5.69 163.54c4.91 63.14 12.61 94.9 36.82 86.3 24.21-8.59 123.11-112.54 123.11-112.54s-53.11 83.25-93.08 128.19-67.07 80.72-82.51 51.98c-16.55-30.83-13.22-55-12.02-127.96 1.21-72.97 21.99-189.51 21.99-189.51Zm302.71 194.84c8.1 18.18-26.86 100.04-16.02 160.69 10.84 60.65 79.6 88.66 79.6 88.66l-9.7 16s-100.09-15.92-126.08-48.57c-9.78-12.29-21.09-29.06-18.29-47.8 3.76-25.1 13.8-40.72 36.77-87.93 23.1-47.48 47.67-94.63 53.72-81.05Zm380.21 28.34c-1.66 13.59-3.78 6.17-28.18 65.51s-34.82 130.48-34.82 130.48-7.85 62.29-12.93 108.5c-5.09 46.22-2.45 99.81-7.42 76.36-4.96-23.45-16.65-129.02-13.95-161.59 3.56-42.83 4.57-52.72 18.73-101.23 8.16-27.91 33.98-74.88 57.01-106.89 23.03-32.02 23.21-24.73 21.56-11.14Z" fill="#8083ea"/><path d="M3052.63 2184.34c16.85 19.24 38.24 29.42 67.81 37.36 23 6.17 50.95 10.98 85.56 17.65 79.12 15.23 160.66 28.44 154.96 18.15-16.22-29.27-134.93-56.28-193.28-134.12-52.37-69.87-62.83-147.9-79.4-149.1-16.58-1.21-62.89 178.95-35.65 210.06Zm-153.21 320.81c-21.47 34.92-24.96 47.59-97.86 170.54-72.9 122.94-93.3 148.17-130.49 212.52-33.21 57.48-61.71 82.64-68.97 196.7-7.26 114.07 136.27 22.02 160.94-24.26 24.67-46.29 288.21-504.33 316.82-577.61 28.6-73.28-61.82-112.89-98.88-93.04-26.35 14.12-37.41 43.29-81.56 115.15Zm387.06-12.2c-25.63 32.84-32.46 95.16-19.11 196.17 13.34 101.01 54.84 225.13 54.84 225.13s30.68 136.07 70.62 198.84c39.94 62.76 63.93 69.73 89.13 52.23 25.2-17.5 22.29-112.18 18.75-195.03-6.34-148.05 20.25-262.68-34.81-397.51-55.07-134.83-147.51-120.71-179.42-79.83Z" fill="#8d91dd"/><path d="M3102.51 1709.96c8.39-11.01 22.87-9.49 58.24-4.9 35.38 4.59 60.91 12.56 60.99 20.57.18 16.93-18.23 115.99-27.17 121.42-14.94 9.06-118.07-8.66-122.52-21.58-7.42-21.57 17.82-98.93 30.46-115.51Zm315.77 50.42c19.62-13.63 124.06.03 128.59 9.35 8.86 18.21-13.79 123.75-23.76 134.44-12.27 13.15-137.86 2.29-142.48-15.26-3.01-11.47 22.18-117.78 37.65-128.53Z" fill="#8689c2"/><path d="M3113.06 1712.69c-10.54 8.58-16.2 28.07-21.96 46.23-5.76 18.17-11.34 45.44-11.06 59.28.19 9.05 26.42 14.85 52.89 18.43 23.12 3.13 46.26 4.82 54.31 2.26 8.79-2.8 8.93-10.97 12.95-27.75 2.73-11.38 5.38-25.94 7.63-38.46 5.08-28.25 11.22-38.07-.25-46.79-9.31-7.09-21.51-8.53-47.2-12.57-23.74-3.73-42.66-4.41-47.31-.63Z" fill="#b8bbee"/><path d="M3117.13 1733.54c-6.68 10.78-25.15 66.87-15.81 76.12 6.23 6.17 67.15 21.69 73.16 7.97 6.01-13.73 24.81-71.11 14.15-78.89-11.77-8.58-62.02-20.5-71.5-5.2Z" fill="#7377b5"/><path d="M3125.81 1735.7c-5.38 3.62-11.27 19.94-14.8 35.07-3.21 13.78-4.34 26.3-3.78 32.53.53 5.84 49.49 18.24 59.46 12.13 3.23-1.97 8.19-17.78 12.43-32.89 4.4-15.64 7.97-30.7 3.87-37.92-5.04-8.89-47.93-15.16-57.18-8.92Z" fill="#2e306d"/><path d="M3422.38 1772.11c-15.06 20.74-33.24 94.98-27.34 108.57 8.25 19.02 31.31 16.88 61.47 17.93 34.41 1.19 49.57 5.26 58.39-7.31 10.91-15.56 32.34-97.67 21.44-113.79-6.07-8.98-33.16-11.43-59.07-12.62-26.69-1.22-47.46-3.01-54.89 7.22Z" fill="#b8bbee"/><path d="M3441.61 1786.52c12.31-5.55 63.82-3.16 71.4 6.06 10.97 13.35-5.39 76.87-14.2 84.16-9.67 7.98-70.32 5.03-79.11-12.28-4.77-9.41 9.52-72.34 21.91-77.94Z" fill="#8689c2"/><path d="M3444.88 1794.91c7.75-8.32 58.07-1.13 61.4 4.65 4.73 8.21 2.45 22.5-.42 36.46-2.87 13.92-6.32 27.52-12.28 33.52-8.37 8.42-62.19 1.61-65.01-9.05-1.19-4.53-.46-20.07 3.86-36.85 2.66-10.3 6.61-22.46 12.45-28.73Z" fill="#2e306d"/><path d="M2701.57 3842.12c-12.09 10.37 7.26 47.09 54.36 57.15 49.22 10.51 75.56 15.15 125.08-5.31 49.52-20.46 73.5-61.24 52.53-70.74-20.97-9.5-42.63 27.28-101.82 35.85-56.47 8.18-118.06-27.33-130.15-16.95Zm9.17 128.67c-12.1 10.37 7.26 47.09 54.35 57.15 49.23 10.51 75.57 15.15 125.09-5.31 49.51-20.46 73.49-61.24 52.52-70.74-20.97-9.5-42.63 27.28-101.82 35.85-56.46 8.18-118.05-27.33-130.14-16.95Zm974.68 160.94c-34.81 8.2-38.84-7.29-68.3 1.95-29.47 9.24-59.17 36.26-72.81 64.26-13.64 28.01 6.5 44.61 41.28 50.55 34.78 5.95 54 .53 97.65-11.42 43.65-11.96 56.25-20.12 92.23-50.62 35.99-30.5 58.45-73.46 56.7-94.68-1.75-21.23-34.33-12.05-71.82.76-32.49 11.11-40.12 30.99-74.93 39.2Zm16.51-203.6c-9.8 26.23 32.54 40.9 51.7 40.66 19.17-.24 50.66-4.73 90.79-25.87 40.13-21.14 61.35-41.86 75.76-65.64 14.41-23.78 10.91-51.49-9.33-48.18-20.24 3.32-39.41 32.03-71.94 50.85-32.52 18.81-52.5 24.14-78.17 29.75-25.68 5.62-49.01-7.8-58.81 18.43Zm-31.07-127.65c15.38-18.25 55.91-16.22 113.65-42.1 57.73-25.88 88.23-62.23 117.29-61.42 29.06.81 2.8 34.83-11.65 56.76-17.66 26.79-46.69 45.75-81.35 63.84-34.65 18.08-55.6 19.86-90.08 15.59-34.49-4.27-63.24-14.43-47.86-32.67Zm-979.54 308.67c-24.97 1.86-27.12-12.81-54.41-11.59-27.28 1.22-40.52 4.85-58.78 19.74-18.27 14.89-32.95 30.96-31.23 49.69 1.73 18.72 43.45 30.03 68.96 34.32 25.51 4.29 50.78 2.06 87.3-8.78 36.52-10.84 49.17-16.52 73.31-36.75 24.13-20.23 32.57-36.16 27.94-53.74-4.63-17.58-30.38-19.64-55.54-15.94-25.16 3.69-32.58 21.19-57.55 23.05Zm618.8-3441.297s31.81 38.085 37.04 77.959c5.31 40.504-12.64 85.136-12.64 85.136s76.15 4.925 158.87 43.665c33.07 15.487 46.89 22.319 91.47 59.379 44.58 37.061 57.25 53.143 57.25 53.143s-11.8-117.446-37.59-169.545c-15.57-31.479-31.5-70.314-59.89-104.009-22.08-26.206-44.87-45.307-77.2-58.137-27.09-10.751-42.03-14.54-63.05-15.55-53.37-2.566-94.26 27.959-94.26 27.959Z" fill="#7278df"/><path d="M3196.51 767.731c0-34.795 15.78-63.002 35.24-63.002 19.47 0 35.25 28.207 35.25 63.002s-15.78 63.002-35.25 63.002c-19.46 0-35.24-28.207-35.24-63.002Z" fill="#fff"/><path d="M2696.92 1450.67s-150.9 385.32-257.05 691.62c-40.49 116.85-74.47 222.2-91.07 290.27-60.13 246.51 18.57 84.17 105.6-161.3 87.04-245.47 242.52-820.59 242.52-820.59Zm-1607.28 419.01s239.1 642.19 316.17 816.32c77.08 174.12 80.18 109.58-7.86-119.81s-308.31-696.51-308.31-696.51Zm408.43 329.05s41.58 294.37 72.76 458.82c31.18 164.45 31.56 171.88 51.97 198.98 20.42 27.1 31.18-36.01 0-200.46-31.18-164.45-124.73-457.34-124.73-457.34ZM378.498 3315.63s271.298 107.07 428.665 178.54c157.367 71.46 200.807 107.32 200.807 107.32s29.59 45.18-116.785-19.11c-146.371-64.3-512.687-266.75-512.687-266.75Z" fill="#3e4676"/><path d="M1809.95 3152.5c18.52-33.45 92.5-83.75 90.2-70.49-2.06 11.92-47.87 205.86-47.19 210.87 6.71 49.63-1.63 42.48 10.85 51.12 24.01 16.65 66.92-17.07 77.98-26.03 39.08-31.67 178.98-178.44 178.98-178.44l-13.41 214.59s-95.45 4.99-193.79 62.38c-98.33 57.39-199.55 167.17-199.55 167.17s70.68-152.01 71.73-243.9c1.06-91.9 9.6-160.9 24.2-187.27Zm-111.06 303.83s-36.05 38.23-70.65 91.95c-34.6 53.71-67.75 122.91-67.75 122.91s24.2 4.6 45.49 17.42c21.3 12.82 39.68 33.87 39.68 33.87s-3.63-57.34 9.68-123.88c13.31-66.54 43.55-142.27 43.55-142.27Zm-331.74 182.1c62.83-21.94 111.04-38.56 111.04-38.56l-63.83-105.06s-77.13 72.47-121.68 121.68c-44.55 49.2-65.83 71.15-65.83 71.15s77.46-27.27 140.3-49.21Zm266.35 291.75c-5.49-4.11 55.39-116.58 91.22-157.74 17.19-19.75 42.11-40.67 63.24-47.84 24.77-8.4 35.55-8.53 74.61 2.58 39.05 11.1 38.84 16.43 75.19 43.17 36.35 26.75 55.04 57.95 82.45 66.95 24.77 8.13 123.55 9.21 123.55 9.21s-51.13 26.96-102.57 30.05c-51.44 3.09-56.38-.95-98.46-21.66-42.08-20.72-45.33-50.48-82.51-62.35-37.19-11.87-59.3 2.19-71.83 11.4-12.54 9.22-47.24 35.38-82.24 66.96-37.09 33.46-67.16 63.39-72.65 59.27Zm514.52-472.11c11.58-6.9-22.27 54.56-20.49 97.98 1.79 43.42 6.38 68.75 26.73 98.87 22.26 32.96 37.85 57.9 73.03 84.62 35.19 26.72 67.7 22.27 67.7 22.27s-106.66 8.46-151.42-16.93c-44.76-25.38-89.52-126.26-75.71-171.91 13.8-45.65 68.58-108 80.16-114.9Zm-1020.89 697s-6.42 25.04-14.97 51.27c-8.54 26.23-19.2 53.66-19.2 53.66s74.78-12.72 187.14-15.21c112.37-2.5 260.55 22.11 262.32 5.22 1.76-16.89-166.67-51.72-255.25-72.78-88.58-21.06-160.04-22.16-160.04-22.16Zm438.28 201.86c-44.52 19.19-118.67 49.26-118.67 49.26s-38.03 22.43-91.77 42.15c-53.74 19.72-114.35 17.83-153.07 41.98-38.71 24.15-19.44 54.84 28.64 69.19 48.08 14.34 112.99 5.42 153.07-14.46 40.08-19.88 85.02-69.68 126.69-107.21 41.66-37.53 38.27-28.35 72.38-57.89 34.11-29.53 64.06-60.26 64.06-60.26s-36.81 18.04-81.33 37.24Z" fill="#b0b7e7"/><path d="M1725.58 3309.08s-79.3 75.57-109.04 113.19c-29.74 37.61-57.95 85.4-57.95 85.4l-188.78-253.78s100.24 80.49 142.94 76.93c42.7-3.56 212.83-21.74 212.83-21.74Zm243.74-258.91s-21.1 8.65-36.6 49.82-25.42 114.88-25.42 114.88l206.38-166.73-144.36 2.03Zm-101.39 882.95c75.74-37.87 163.73-43.24 232.14-39.32 66.68 3.82 187.27 100.78 187.27 100.78l-13.5 101.84 137.71 97.74-375.31 181.11-347.48-117.62s38.21-254.05 179.17-324.53Zm-768.06-109.26 113.45-123.49 190.03-59.38 165.4 14.2 162.65 109.44-3.01 90.36-5.02 64.26 58.05 64.58-165.48 65.94s-52.86 112.98-89.36 161.64c-21.09 28.12-324.25-142.17-324.25-142.17l132.55 33.66-169.75-165.58-65.26-113.46Z" fill="#4a5283"/><path d="M1790.24 4263.18s102.38 69.51 201.84 78.43c99.45 8.93 196.63-89.92 251.83-115.88 49.48-23.27 157.64-35.98 157.64-35.98s-141.31-49.56-294.13-31.2c-152.83 18.35-317.18 104.63-317.18 104.63Z" fill="#343a5f"/><path d="m1779.39 2532.78 106.16-69.66 343.05 120.04 36.04 127.59-350.42 230.95-134.83-408.92Z" fill="#2a3276"/><path d="m1905.66 2670.61 13.52 250.92 168.07-186.48-181.59-64.44Z" fill="url(#a)"/><path d="m2103.39 2741.45-175.19 190.98 336.23-221.44-161.04 30.46Z" fill="url(#b)"/><path d="m1779.47 2533.03 109.44 133.78 19.42 258.21-128.86-391.99Z" fill="url(#c)"/><path d="m1791.13 2525.02 82.17-53.85 83.81 82.59-63.17 92.93-102.81-121.67Z" fill="url(#d)"/><path d="m1909.91 2655.2 60.71-95 135.07 49.18-14.7 111.37-181.08-65.55Z" fill="url(#e)"/><path d="m2109.74 2721.39 11.07-109.81 112-13.46 28.02 99.1-151.09 24.17Z" fill="url(#f)"/><path d="m1885.24 2463.15 83.38 77.94 143.6 49.57 116.61-7.32-90.82-84.83-130.35-47.16-122.42 11.8Z" fill="url(#g)"/><path d="m1750.97 4170.73 38.28-121.08 341.76-123.67 108.54 76.12-81.05 257.99-17.16 12.29-110.88 51.16-27.83 7.55-251.66-160.36Z" fill="#2a3276"/><path d="m1935.93 4197.79 103.1 104.87 85.8-37.54-7.43-132.11-181.47 64.78Z" fill="url(#h)"/><path d="m2133.96 4127.78 5.81 131.98 24.61-17.99 75.43-236.69-105.85 122.7Z" fill="url(#i)"/><path d="m1751.09 4170.77 169.45 34.66 103.98 105.24-37.12 10.81-236.31-150.71Z" fill="url(#j)"/><path d="m1755.17 4157.3 29.5-93.05 117.32 10.46 9.74 111.94-156.56-29.35Z" fill="url(#k)"/><path d="m1929.49 4183.16-12.96-111.99 135.77-47.22 58.96 95.62-181.77 63.59Z" fill="url(#l)"/><path d="m2126.21 4108.22-60.8-92.12 78.31-81.19 84.34 59.12-101.85 114.19Z" fill="url(#m)"/><path d="m1789.04 4049.88 113.86 7.73 142.64-52.3 85.76-79.34-123.99-8.38-130.84 45.8-87.43 86.49Z" fill="url(#n)"/><path d="m1317.09 3155.54 38.28-121.07 341.75-123.68 108.55 76.12-76.66 242.37-187.62 69.29-224.3-143.03Z" fill="#2a3276"/><path d="m1502.05 3182.6 76.98 86.7 99.65-34.63 4.84-116.85-181.47 64.78Z" fill="url(#o)"/><path d="m1700.07 3112.59-7.42 115.84 41.18-14.75 71.92-226.66-105.68 125.57Z" fill="url(#p)"/><path d="m1317.83 3155.89 168.83 34.35 77.98 84.17-39.55 14.08-207.26-132.6Z" fill="url(#q)"/><path d="m1321.29 3142.11 29.73-93.67 117.08 11.08 9.75 111.95-156.56-29.36Z" fill="url(#r)"/><path d="m1495.61 3167.97-12.96-111.99 135.77-47.21 58.96 95.61-181.77 63.59Z" fill="url(#s)"/><path d="m1692.32 3093.03-60.79-92.11 78.31-81.2 84.33 59.12-101.85 114.19Z" fill="url(#t)"/><path d="m1355.15 3034.69 113.87 7.73 142.63-52.3 85.76-79.34-123.98-8.38-130.84 45.8-87.44 86.49Z" fill="url(#u)"/><path d="m714.339 2713.28 59.314-112.27 358.357-60.58 93.19 94.31-195.29 371.48-315.571-292.94Z" fill="#2a3276"/><path d="m891.479 2772.98 133.031 213.18 57.1-244.46-190.131 31.28Z" fill="url(#v)"/><path d="m1098.83 2739.51-61.15 251.83 187.24-353.63-126.09 101.8Z" fill="url(#w)"/><path d="m713.147 2713.38 161.828 64.36 141.725 216.72-303.553-281.08Z" fill="url(#x)"/><path d="m720.876 2700.82 46.114-86.99 113.1 31.99-10.425 111.88-148.789-56.88Z" fill="url(#y)"/><path d="m887.758 2757.44 7.277-112.51 142.025-22.17 40.91 104.61-190.212 30.07Z" fill="url(#z)"/><path d="m1094.7 2718.88-43.34-101.5 91.56-65.88 72.41 73.24-120.63 94.14Z" fill="url(#A)"/><path d="m773.4 2601.19 110.649 27.97 149.691-25.96 98.56-62.73-120.49-30.41-136.917 21.67-101.493 69.46Z" fill="url(#B)"/><path d="m767.036 2614.02-47.294 87.81s37.671-28.48 78.082-42.55c40.411-14.07 83.562-13.74 83.562-13.74l-114.35-31.52Z" fill="#e3e5ef"/><path d="m1511.94 1909.44 125.16-80.68 408.38 133.18 44.25 145.2-413.08 267.47-164.71-465.17Z" fill="#2a3276"/><path d="m1663.36 2065.33 18.94 286.21 197.24-214.69-216.18-71.52Z" fill="url(#C)"/><path d="m1899.65 2141.7-206.52 222.18 396.32-256.54-189.8 34.36Z" fill="url(#D)"/><path d="m1510.64 1908.9 132.8 152.28 26.02 294.46-158.82-446.74Z" fill="url(#E)"/><path d="m1525.79 1900.46 96.68-62.24 100.57 93.19-73.87 106.76-123.38-137.71Z" fill="url(#F)"/><path d="m1668.22 2047.7 70.93-109.09 160.82 54.62-16.16 127.26-215.59-72.79Z" fill="url(#G)"/><path d="m1906.06 2121.02 11.87-125.45 132.72-16.6 34.4 112.78-178.99 29.27Z" fill="url(#H)"/><path d="m1637.03 1828.76 99.52 88.06 170.95 54.97 138.26-9.65-108.73-95.79-155.2-52.37-144.8 14.78Z" fill="url(#I)"/><path d="m452.504 2141.46-16.116-110.98 229.459-236.63 117.89 15.75 54.02 366.67-385.253-34.81Z" fill="#2a3276"/><path d="m613.349 2087.44 209.861 77.67-87.669-202.62-122.192 124.95Z" fill="url(#J)"/><path d="m746.956 1951.63 88.603 209.99-51.718-351.91-36.885 141.92Z" fill="url(#K)"/><path d="m452.663 2141.61 151.163-41.88 219.786 75.13-370.949-33.25Z" fill="url(#L)"/><path d="m450.682 2129.17-12.542-86.66 99.626-38.2 51.582 84.22-138.666 40.64Z" fill="url(#M)"/><path d="m602.411 2078.54-54.21-82.95 91.907-92.5 85.2 51.31-122.897 124.14Z" fill="url(#N)"/><path d="m733.027 1939.38-85.33-47.81 31.965-95.87 91.586 12.22-38.221 131.46Z" fill="url(#O)"/><path d="m436.301 2030.75 95.539-40.29 95.499-99.3 38.74-97.44-104.014 43.9-88.45 89.38-37.314 103.75Z" fill="url(#P)"/><path d="m130.122 3037.62-16.116-110.97 229.458-236.64 117.891 15.76 54.02 366.66-385.253-34.81Z" fill="#2a3276"/><path d="m290.967 2983.6 209.861 77.67-87.669-202.61-122.192 124.94Z" fill="url(#Q)"/><path d="m424.574 2847.79 88.603 209.99-51.103-348.34-37.5 138.35Z" fill="url(#R)"/><path d="m129.305 3038.34 152.139-42.45 218.069 75.44-370.208-32.99Z" fill="url(#S)"/><path d="m128.3 3025.33-12.124-85.24 99.208-39.62 51.582 84.22-138.666 40.64Z" fill="url(#T)"/><path d="m280.029 2974.7-54.21-82.95 91.907-92.5 85.2 51.31-122.897 124.14Z" fill="url(#U)"/><path d="m410.645 2835.54-85.33-47.81 31.965-95.86 91.586 12.22-38.221 131.45Z" fill="url(#V)"/><path d="m113.919 2926.91 95.539-40.29 95.499-99.3 38.74-97.44-104.014 43.9-88.45 89.38-37.314 103.75Z" fill="url(#W)"/><path d="m1075.32 3935.92 56.35-130.6 422.84-127.72 124.63 84.6-116.91 271.73-201.82 77.81-285.09-175.82Z" fill="#2a3276"/><path d="m1296.28 3968.75 99.47 108.8 108.04-38.27 16.94-137.38-224.45 66.85Z" fill="url(#X)"/><path d="m1541.16 3896.54-22.11 136.09 50.96-16.75 109.19-250.44-138.04 131.1Z" fill="url(#Y)"/><path d="m1075.42 3936.06 201.65 40.69 103.13 107.18-37.75 16.62-267.03-164.49Z" fill="url(#Z)"/><path d="m1081.51 3921.43 42.6-100.96 141.52 14.15 2.38 121.6-186.5-34.79Z" fill="url(#aa)"/><path d="m1289.73 3952.76-6.25-121.72 167.83-48.65 63.14 104.81-224.72 65.56Z" fill="url(#ab)"/><path d="m1533.44 3875.18-65.66-101.06 101.33-86.59 96.83 65.7-132.5 121.95Z" fill="url(#ac)"/><path d="m1131.39 3805.56 136.78 10.52 176.53-54.04 110.17-84.45-148.95-11.42-161.75 47.22-112.78 92.17Z" fill="url(#ad)"/><path d="m1637 1828.77 99.47 88.18s-9.71-35.86 1.73-61.68c11.44-25.81 44.02-41.6 44.02-41.6l-145.22 15.1Zm-14.47 9.39-96.87 62.45 122.59 137.56s-34.29-58.14-40.48-108.28c-6.19-50.14 14.76-91.73 14.76-91.73Zm133.73 258.26 36.91 11.86-108.7 240.08 71.79-251.94Zm294.27-117.97 34.69 113.76-179.36 29.1s68.47-28.12 104.21-62.99c35.74-34.87 40.46-79.87 40.46-79.87Z" fill="#e3e5ef"/><path d="m1944.46 1836.01-30.15 116.93-49.55-58.81 32.39 63.07-163.51-41.95 162.89 61.99-102.18 74.68 108.1-54.72-10.05 132.79 33.76-128.3 68.47 88.1-48.59-100.48 97.94-26.94-95.08 6.08 32.83-47.66-47.14 38.25 9.87-123.03Zm-1339.161 28.24 93.428 76.49-74.182 20.24 70.841-2.88-94.39 122.1 112.319-113.11 24.823 124.1-4.227-121.09 116.274 64.92-102.241-84.55 108.721-25.1-111.594 1.87 25.625-116.67-43.357 105.3-29.45-49.82 14.899 58.86-107.489-60.66Zm1521.261 713.98-30.14 116.92-49.55-58.81 32.39 63.07-163.51-41.94 162.89 61.99-102.18 74.68 108.1-54.73-10.05 132.8 33.76-128.31 68.46 88.1-48.58-100.47 97.94-26.95-95.08 6.08 32.83-47.66-47.15 38.25 9.87-123.02Zm-647.58 449.4 1.36 120.74-63.15-43.87 47.7 52.46-143.25-15.33 147.87 34.84-79.19 98.73 90.11-81.01 24.9 130.83-.84-132.67 89.05 67.22-73.08-84.35 158.71-71.72-161.39 50.83 19.28-54.57-35.55 49.22-22.53-121.35Zm-451.56-435.95 40.27 113.83-73.933-21.12 62.083 34.23-140.523 31.75 151.203-14.77-43.08 119.01 59.13-105.76 65.81 115.78-43.64-125.29 106 34.86-96.41-56.23 127.05-119.12-136.33 100.21.63-57.87-17.76 58.06-60.5-107.57Zm-755.182 196.66 94.401 75.29-73.917 21.19 70.798-3.79-80.271 90.7 98.315-81.94 26.411 123.78-5.778-121.04 117.096 63.43-103.316-83.23 108.39-26.49-111.56 3.29 23.819-89.51 12.229-56.04-53.925 134.42-30.086-49.45 15.652 58.67-108.258-59.28Zm991.572 883.16 1.36 120.74-63.15-43.87 47.7 52.45-119.52 5.08 124.14 14.44-79.19 98.72 90.11-81 24.9 130.83-.85-132.67 89.06 67.22-73.09-84.35 140.9-57.89-143.57 37 19.28-54.57-35.55 49.22-22.53-121.35Zm687.64 226.96 57.53 106.16-76.32-9.34 66.66 24.14-96.49 37.98 109.69-22.88-23.99 124.28 41.91-113.69 83.06 104.1-62.64-116.96 110.13 17.91-104-40.51 73.15-83.92-85.26 66.7-8.41-57.27-8.48 60.12-76.54-96.82Zm-66.23-1435.23 121.88-11.71s-22.89 22.12-33.8 39.87c-13.56 22.08-4.71 49.73-4.71 49.73l-83.37-77.89Zm-12.02 8.06-82.85 54.29 103.57 122.17s-30.66-56.04-35.84-100.15c-5.18-44.12 15.12-76.31 15.12-76.31Zm-300.11 430.64 124.21 8.94-85.69 79.41s12.45-32.28 2.97-54.64c-9.48-22.35-41.49-33.71-41.49-33.71Zm57.85 99.47 78.84-81.8 84.56 59.29s-37.13-15.26-77.72-10.94c-40.59 4.32-85.68 33.45-85.68 33.45Zm-176.69 704.22c-10.96-23.1-48.61-39.65-48.61-39.65l86.64 6.82 62.45 4.92-105.28 80.67s15.75-29.66 4.8-52.76Zm13.47 68.71 100.98-86.79 96.24 65.36s-46.95-14.71-96.34-9.74c-49.38 4.96-100.88 31.17-100.88 31.17Zm-79.19 166.98 38.51-11.24 25.36 127.38-11.38 4.35-52.49-120.49Zm-312.57-4.77 268.94 165.19-153.46-141.56-115.48-23.63Z" fill="#e3e5ef"/><path d="m1875.76 3963.94-86.58 85.92 114.07 7.8s-26.97-16.18-34.64-40.11c-7.67-23.93 7.15-53.61 7.15-53.61Zm-91.12 100.27-29.33 93.05 156.87 29.38s-62.42-26.04-94.64-55.65c-32.22-29.62-32.9-66.78-32.9-66.78ZM971.665 2759.49l43.855-7.33 8.49 236.14-52.345-228.81Zm-498.02-832.52-37.299 103.96 96.192-40.81s-26.862-3.23-41.585-19.01c-14.723-15.79-17.308-44.14-17.308-44.14Zm131.118 171.25-41.342 12.86 254.671 63.15-213.329-76.01Zm-488.827 842.5 12.369 85.5 134.652-40.16s-50.675.98-88.397-10.12c-37.722-11.1-58.624-35.22-58.624-35.22Z" fill="#e3e5ef"/><path d="M3392.2 723.669c-6.41 37.252-1.67 82.792-1.67 82.792s33.83 2.698 65.78 10.499c31.94 7.8 62 20.703 62 20.703s-16.07-77.909-37.79-114.061c-21.73-36.153-30.86-45.713-52.91-44.97-22.05.744-30.08 14.014-35.41 45.037Z" fill="#9b9fe5"/></g><g vectornator:layerName="Слой 14"><path d="M1621.78 1434.74c0-159.08 127.33-288.04 284.41-288.04 157.07 0 284.4 128.96 284.4 288.04s-127.33 288.04-284.4 288.04c-157.08 0-284.41-128.96-284.41-288.04Z" fill="#474c6b"/><path d="M1623.69 1434.32c0-158.41 117.68-286.83 262.85-286.83 145.17 0 262.85 128.42 262.85 286.83s-117.68 286.83-262.85 286.83c-145.17 0-262.85-128.42-262.85-286.83Z" fill="#8b8b8b"/><path d="M1642.51 1437.23c0-144.44 108.46-261.53 242.25-261.53 133.79 0 242.25 117.09 242.25 261.53 0 144.45-108.46 261.54-242.25 261.54-133.79 0-242.25-117.09-242.25-261.54Z" fill="#72758a"/><path d="M1659.37 1440.48c0-141.86 104.99-256.86 234.52-256.86 129.52 0 234.52 115 234.52 256.86s-105 256.86-234.52 256.86c-129.53 0-234.52-115-234.52-256.86Z" fill="url(#ae)"/><g fill="#fff"><path d="m2035.18 1354.91-17.87 13.58s-9.36-13.88-21.69-28.76c-12.06-14.56-29.67-29.86-36.77-33.88-9.21-5.21-23.81-13.56-43.65-16.43-21.45-3.11-39.56-.83-52.19 9.96-14.35 12.28-15.98 31.36-7.03 44.38 11.97 17.41 50.26 44.25 86.14 69.2 32.7 22.73 48.22 32.63 59.03 63.84 7.49 21.58 4.09 51.56-4.51 66.88-8.41 14.96-24.42 33.12-49.48 43.32-22.12 9-68.42 12.79-87.35 9.5-18.96-3.3-53.42-14.65-71.03-28.82-33.61-27.03-51.8-62.44-51.8-62.44l18.21-10.41s23.34 39.9 53.93 59.19c25.55 16.12 34.14 22.79 65.95 23.62 30.62.8 60.35-8.15 60.35-8.15s35.49-18.41 43.78-45.84c5.63-18.61 2.23-43.66-10.4-57.41-19.13-20.83-28.65-24.92-56.22-43.37-28.98-19.38-44.59-29.43-59.34-43.39-14.22-13.46-24.76-28.06-25.18-52.98-.42-24.92 20.82-52.66 20.82-52.66s24.26-15.17 60.17-9.29c35.92 5.88 50.8 13.44 76.34 31.87 20.67 14.92 49.79 58.49 49.79 58.49Z"/><path d="M1896.33 1263.54s-32.84-3.19-51.17 2.91c-22.65 7.52-25.9 9.88-40.49 24.15-14.59 14.27-23.51 32.61-25.57 48.87-2.76 21.71-3.7 37.47 10.42 60.14 14.12 22.66 34.01 37.67 53.58 50.95 13.75 9.33 45.11 31.16 45.11 31.16s25.4 14.55 35.52 29.29c10.11 14.75 11.48 25.14 3.81 40.07-3.27 6.38-9.64 11.97-22.08 18.28-12.44 6.32-36.72 9.46-36.72 9.46l36.56.02 34.94-4.53s9.13-18.29 12-31.45c2.87-13.17-.52-21.21-.52-21.21s-2.89-18.03-19.8-35.57-47.84-34.59-47.84-34.59l-45.69-30.77s-27.81-21.88-34.11-43.35c-6.3-21.47-7.46-37.24 1.69-54.8 10.59-20.31 37.4-36.96 37.4-36.96l40.01-7.57 12.95-14.5Z"/></g><path d="M1000.75 4593.15c-149.778 53.61-314.102-22.83-367.031-170.71-52.929-147.89 25.581-311.23 175.357-364.84 149.776-53.6 314.104 22.83 367.034 170.72 52.92 147.89-25.59 311.23-175.36 364.83Z" fill="#474c6b"/><path d="M999.71 4591.5c-149.147 53.37-309.709-14.15-358.626-150.83-48.917-136.68 32.336-290.75 181.482-344.13 149.146-53.38 309.704 14.15 358.624 150.83 48.92 136.67-32.33 290.75-181.48 344.13Z" fill="#8b8b8b"/><path d="M996.109 4572.8c-135.995 48.67-282.788-13.99-327.872-139.96-45.083-125.97 28.615-267.54 164.61-316.21 135.995-48.67 282.783 13.99 327.873 139.95 45.08 125.97-28.62 267.54-164.611 316.22Z" fill="#72758a"/><path d="M993.484 4555.83c-133.562 47.8-277.216-12.31-320.861-134.25-43.645-121.95 29.246-259.56 162.808-307.36 133.562-47.81 277.219 12.3 320.859 134.25 43.65 121.95-29.24 259.56-162.806 307.36Z" fill="url(#af)"/><g fill="#fff"><path d="m786.283 4230.83 18.805 12.25s-9.916 13.49-19.77 30.11c-9.64 16.26-18.116 38-19.505 46.04-1.802 10.42-4.745 26.98-.763 46.63 4.304 21.24 12.551 37.53 26.968 45.78 16.39 9.37 34.908 4.48 44.151-8.34 12.358-17.13 24.727-62.22 36.123-104.42 10.383-38.44 14.481-56.39 40.214-77.09 17.803-14.32 47.17-21.22 64.489-18.28 16.919 2.87 39.415 11.83 57.465 31.98 15.93 17.79 35.1 60.11 38.38 79.04 3.28 18.97 4.2 55.24-3.2 76.6-14.13 40.74-41.33 69.8-41.33 69.8l-15.94-13.64s29.69-35.42 37.55-70.71c6.56-29.5 9.95-39.83.02-70.06-9.56-29.1-28.01-54.07-28.01-54.07s-29.297-27.21-57.912-25.78c-19.42.97-41.858 12.62-50.551 29.14-13.168 25.03-13.807 35.38-21.884 67.55-8.488 33.81-12.687 51.9-20.86 70.49-7.878 17.92-18.072 32.76-41.395 41.56-23.324 8.79-56.597-1.86-56.597-1.86s-22.459-17.73-29.023-53.52c-6.564-35.8-4.464-52.35 4.283-82.61 7.078-24.49 38.292-66.59 38.292-66.59Z"/><path d="M747.048 4392.35s8.063 31.99 19.973 47.19c14.723 18.79 18.037 21.05 36.388 29.99 18.351 8.93 38.625 11.14 54.63 7.6 21.37-4.71 36.525-9.14 53.104-30.07 16.58-20.93 24.013-44.71 29.92-67.62 4.149-16.09 14.14-52.97 14.14-52.97s5.133-28.82 15.609-43.31c10.476-14.49 19.798-19.28 36.438-17.09 7.11.93 14.51 5.04 24.65 14.63 10.15 9.58 21.28 31.38 21.28 31.38l-12.3-34.42-16.04-31.37s-20.29-2.44-33.653-.7c-13.362 1.73-19.794 7.64-19.794 7.64s-16.005 8.79-26.821 30.62c-10.817 21.83-16.444 56.7-16.444 56.7l-13.578 53.38s-11.223 33.56-29.316 46.73c-18.092 13.16-32.548 19.57-52.162 16.87-22.688-3.13-47.403-22.76-47.403-22.76l-20.61-35.11-18.011-7.31Z"/></g><path d="M1158.23 1064.21c-51.61-73.443-32.26-172.665 43.23-221.621 75.49-48.956 178.53-29.107 230.14 44.333 51.62 73.441 32.26 172.668-43.22 221.618-75.49 48.96-178.53 29.11-230.15-44.33Z" fill="#474c6b"/><path d="M1159.02 1063.42c-51.4-73.134-36.51-169.097 33.26-214.342 69.76-45.245 167.99-22.639 219.38 50.493 51.4 73.132 36.51 169.099-33.26 214.339-69.76 45.25-167.99 22.64-219.38-50.49Z" fill="#8b8b8b"/><path d="M1169 1058.9c-46.86-66.686-32.73-154.548 31.57-196.247 64.3-41.7 154.42-21.447 201.28 45.237 46.87 66.683 32.74 154.54-31.56 196.24-64.3 41.7-154.42 21.45-201.29-45.23Z" fill="#72758a"/><path d="M1178.16 1055.14c-46.03-65.489-32.88-151.305 29.37-191.674s150.02-20.004 196.05 45.486 32.88 151.308-29.37 191.678c-62.25 40.37-150.02 20-196.05-45.49Z" fill="url(#ag)"/><g fill="#fff"><path d="m1331.01 898.506-4.18 11.838s-9.01-3.491-19.76-6.518c-10.52-2.961-23.95-4.538-28.66-4.179-6.12.465-15.84 1.16-26.31 6.018-11.31 5.251-19.28 11.948-21.85 20.866-2.91 10.138 2.49 19.458 11.02 22.679 11.4 4.307 38.51 4.765 63.85 5.097 23.09.303 33.76.04 49.08 11.074 10.6 7.634 18.7 22.53 19.53 32.282.82 9.527-.98 22.907-9.72 35.427-7.71 11.05-28.73 27.23-38.9 31.61-10.18 4.38-30.43 9.88-43.49 8.83-24.91-2-45.15-12.68-45.15-12.68l5.38-10.48s24.16 11.14 45.12 10.51c17.51-.52 23.8-.12 39.36-9.65 14.97-9.17 26.36-22.57 26.36-22.57s11.08-19.56 6.17-34.807c-3.33-10.347-13.1-20.85-23.63-23.263-15.95-3.656-21.86-2.574-41.09-2.497-20.21.081-30.98.309-42.6-1.538-11.2-1.781-21-5.236-29.29-16.611-8.28-11.375-7.08-30.801-7.08-30.801s6.74-14.564 25.91-23.042c19.17-8.478 28.77-9.628 47.02-9.08 14.78.444 42.91 11.485 42.91 11.485Z"/><path d="M1234.63 899.602s-16.81 8.763-23.64 17.287c-8.45 10.536-9.24 12.636-11.63 23.772-2.38 11.135-.71 22.381 3.57 30.532 5.72 10.882 10.38 18.451 24.52 24.512 14.14 6.065 28.57 6.795 42.28 6.825 9.64.02 31.79.33 31.79.33s16.93-1.21 26.57 2.45c9.65 3.66 13.68 8.03 14.84 17.31.5 3.96-.75 8.53-4.68 15.32-3.93 6.79-14.58 15.81-14.58 15.81l17.58-11.38 15.32-12.99s-1.55-11.28-4.44-18.26c-2.89-6.97-7.13-9.62-7.13-9.62s-7.24-7.431-21.06-10.258c-13.81-2.827-34.21-1.056-34.21-1.056l-31.94.032s-20.47-1.429-30.46-9.378c-10-7.949-15.67-14.866-16.97-25.825-1.5-12.676 5.98-28.72 5.98-28.72l16.77-15.965 1.52-10.728Z"/></g><path d="M802.281 1575.59c-66.592-95.35-41.621-224.16 55.773-287.71 97.395-63.56 230.336-37.79 296.926 57.55 66.59 95.34 41.62 224.16-55.78 287.71-97.39 63.55-230.327 37.79-296.919-57.55Z" fill="#474c6b"/><path d="M803.29 1574.56c-66.312-94.94-47.099-219.52 42.913-278.26 90.011-58.73 216.737-29.39 283.047 65.55 66.31 94.94 47.1 219.52-42.91 278.26-90.013 58.74-216.738 29.39-283.05-65.55Z" fill="#8b8b8b"/><path d="M816.177 1568.69c-60.465-86.57-42.23-200.63 40.728-254.76 82.958-54.14 199.225-27.84 259.685 58.72 60.47 86.57 42.23 200.63-40.72 254.77-82.962 54.13-199.229 27.84-259.693-58.73Z" fill="#72758a"/><path d="M827.988 1563.82c-59.382-85.02-42.416-196.43 37.895-248.84 80.311-52.4 193.557-25.97 252.937 59.05 59.38 85.02 42.42 196.43-37.89 248.84-80.31 52.4-193.559 25.96-252.942-59.05Z" fill="url(#ah)"/><g fill="#fff"><path d="m1025.19 1360.47-5.4 15.37s-11.61-4.53-25.481-8.46c-13.57-3.85-30.896-5.89-36.981-5.43-7.893.61-20.44 1.51-33.942 7.82-14.598 6.81-24.88 15.51-28.188 27.08-3.76 13.17 3.212 25.26 14.215 29.45 14.71 5.59 49.684 6.18 82.379 6.61 29.788.4 43.558.05 63.328 14.38 13.67 9.91 24.12 29.25 25.2 41.91 1.05 12.37-1.28 29.73-12.55 45.98-9.94 14.35-37.07 35.35-50.18 41.04-13.14 5.69-39.263 12.83-56.113 11.47-32.148-2.6-58.254-16.46-58.254-16.46l6.936-13.61s31.173 14.46 58.211 13.65c22.595-.68 30.714-.16 50.78-12.53 19.32-11.9 34.01-29.3 34.01-29.3s14.3-25.4 7.96-45.19c-4.3-13.43-16.89-27.07-30.48-30.2-20.58-4.74-28.2-3.34-53.018-3.24-26.078.11-39.968.4-54.956-2-14.449-2.31-27.095-6.79-37.788-21.56-10.692-14.77-9.135-39.99-9.135-39.99s8.689-18.9 33.42-29.91c24.731-11.01 37.119-12.5 60.673-11.79 19.061.58 55.354 14.91 55.354 14.91Z"/><path d="M900.852 1361.89s-21.698 11.38-30.512 22.45c-10.894 13.67-11.918 16.4-14.995 30.86-3.076 14.45-.923 29.05 4.603 39.63 7.377 14.13 13.393 23.96 31.634 31.83 18.242 7.87 36.858 8.82 54.555 8.85 12.428.03 41.01.43 41.01.43s21.843-1.56 34.283 3.18c12.44 4.75 17.64 10.42 19.14 22.47.64 5.15-.97 11.08-6.04 19.9-5.06 8.82-18.8 20.52-18.8 20.52l22.67-14.78 19.77-16.85s-2-14.66-5.73-23.71c-3.73-9.05-9.2-12.5-9.2-12.5s-9.34-9.64-27.16-13.31c-17.83-3.67-44.151-1.37-44.151-1.37l-41.206.04s-26.404-1.85-39.298-12.17c-12.894-10.32-20.217-19.3-21.89-33.53-1.934-16.45 7.717-37.28 7.717-37.28l21.638-20.73 1.962-13.93Z"/></g><path d="M2387.93 2674.85c63.74-145.75 232.07-212.89 375.99-149.95 143.91 62.94 208.91 232.11 145.16 377.86-63.74 145.75-232.07 212.89-375.99 149.95-143.91-62.94-208.91-232.11-145.16-377.86Z" fill="#474c6b"/><path d="M2389.84 2675.23c63.48-145.14 222.75-215.65 355.76-157.48 133 58.17 189.37 222.98 125.9 368.12-63.47 145.14-222.75 215.64-355.76 157.47-133-58.16-189.37-222.97-125.9-368.11Z" fill="#8b8b8b"/><path d="M2405.92 2685.44c57.87-132.35 204.17-196.17 326.75-142.56 122.58 53.61 175.04 204.35 117.16 336.69-57.88 132.34-204.17 196.16-326.75 142.56-122.58-53.61-175.04-204.35-117.16-336.69Z" fill="#72758a"/><path d="M2420.06 2695.16c56.84-129.97 199.13-193.26 317.8-141.36 118.67 51.89 168.79 199.33 111.95 329.3-56.84 129.98-199.12 193.27-317.79 141.37-118.67-51.9-168.8-199.33-111.96-329.31Z" fill="url(#ai)"/><g fill="#fff"><path d="m2798.68 2767.35-21.82 5.27s-3.01-16.46-8.34-35.04c-5.22-18.16-15.22-39.24-20.12-45.77-6.35-8.46-16.38-21.96-33.41-32.54-18.4-11.44-35.91-16.61-51.8-11.78-18.07 5.49-27.22 22.32-24.23 37.84 3.99 20.75 28.32 60.68 51.2 97.91 20.85 33.93 31.1 49.23 28.51 82.15-1.8 22.77-16.92 48.88-30.94 59.46-13.69 10.35-35.65 20.57-62.69 19.87-23.87-.61-67.81-15.69-83.84-26.29-16.05-10.62-43.08-34.83-53.53-54.87-19.96-38.23-22.45-77.96-22.45-77.96l20.86-2.24s5.41 45.9 25.7 75.83c16.95 25.01 22.15 34.57 50.96 48.07 27.73 13.01 58.55 16.72 58.55 16.72s39.9-2.66 58.49-24.46c12.62-14.79 19.53-39.11 13.47-56.77-9.17-26.75-16.26-34.31-34.13-62.26-18.78-29.37-29.06-44.83-36.98-63.53-7.64-18.03-11.45-35.63-1.84-58.63 9.6-23 40.17-39.91 40.17-39.91s28.3-4.18 58.85 15.6 41.16 32.66 57.18 59.79c12.96 21.95 22.18 73.54 22.18 73.54Z"/><path d="M2708.07 2628s-28.81-16.08-48.04-17.84c-23.78-2.18-27.69-1.32-46.78 5.9-19.09 7.23-34.6 20.47-43.01 34.54-11.23 18.78-18.4 32.85-14.55 59.27 3.86 26.42 16.07 48.14 28.68 68.15 8.86 14.06 28.84 46.62 28.84 46.62s17.45 23.51 20.8 41.07c3.36 17.56.45 27.64-12.55 38.24-5.56 4.54-13.63 7.1-27.56 7.91-13.93.8-37.43-6.05-37.43-6.05l33.48 14.67 33.83 9.84s15.69-13.09 23.6-24.01c7.9-10.91 8.02-19.64 8.02-19.64s4.58-17.67-3.88-40.52c-8.47-22.84-29.98-50.86-29.98-50.86l-29.53-46.5s-16.72-31.19-13.89-53.38c2.84-22.2 8.09-37.11 23.51-49.53 17.84-14.36 49.08-18.88 49.08-18.88l39.69 9.09 17.67-8.09Z"/></g><path d="M780.684 2515.4c-43.87-97.22 1.666-209.71 101.707-251.28 100.042-41.56 216.709 3.56 260.579 100.77 43.87 97.21-1.67 209.71-101.71 251.27-100.042 41.56-216.706-3.55-260.576-100.76Z" fill="#474c6b"/><path d="M781.785 2514.63c-43.686-96.8-4.148-206.41 88.311-244.82 92.458-38.41 202.824 8.92 246.514 105.72 43.68 96.81 4.14 206.42-88.31 244.83-92.463 38.41-202.829-8.92-246.515-105.73Z" fill="#8b8b8b"/><path d="M794.573 2511.43c-39.833-88.26-3.046-188.52 82.167-223.92 85.213-35.4 186.58 7.46 226.42 95.72 39.83 88.27 3.04 188.52-82.17 223.93-85.213 35.4-186.583-7.46-226.417-95.73Z" fill="#72758a"/><path d="M806.206 2508.96c-39.121-86.69-3.96-184.75 78.534-219.02 82.494-34.27 181.08 8.22 220.2 94.91 39.12 86.69 3.96 184.74-78.53 219.01-82.495 34.28-181.084-8.22-220.204-94.9Z" fill="url(#aj)"/><g fill="#fff"><path d="m1021.97 2357.23-7.64 13.02s-9.79-6-21.747-11.84c-11.694-5.7-27.131-10.39-32.762-10.97-7.303-.74-18.903-1.98-32.33 1.51-14.516 3.78-25.428 9.96-30.491 19.9-5.755 11.3-1.536 23.39 7.758 28.98 12.425 7.47 44.211 13.74 73.947 19.49 27.095 5.24 39.715 7.19 55.205 23.39 10.72 11.21 16.82 30.43 15.57 42.07-1.23 11.36-6.42 26.7-19.57 39.56-11.6 11.36-40.049 25.92-53.014 28.92-12.985 3-38.066 5.18-53.19 1.19-28.853-7.63-50.209-24.45-50.209-24.45l8.73-11.18s25.869 18.2 50.667 21.89c20.723 3.09 28.034 4.9 48.519-3.01 19.727-7.61 36.187-20.95 36.187-20.95s17.53-20.64 15.25-39.6c-1.55-12.86-10.62-27.27-22.46-32.33-17.928-7.67-25.121-7.65-47.769-11.62-23.797-4.18-36.515-6.19-49.758-10.82-12.767-4.46-23.505-10.59-30.645-25.71-7.14-15.12-1.263-37.69-1.263-37.69s11.265-15.69 35.761-21.6c24.496-5.91 36.056-5.23 57.408-.72 17.279 3.64 47.846 22.57 47.846 22.57Z"/><path d="M908.334 2338.13s-21.796 6.74-31.788 15.31c-12.351 10.6-13.767 12.9-19.127 25.48-5.36 12.58-5.977 26.15-2.809 36.63 4.23 14 7.978 23.88 23.221 33.99 15.242 10.11 32.049 14.02 48.179 16.96 11.328 2.06 37.32 7.11 37.32 7.11s20.193 2.16 30.699 8.5c10.511 6.33 14.251 12.32 13.481 23.47-.33 4.77-2.84 9.87-9.021 17.02-6.18 7.15-20.777 15.49-20.777 15.49l23.288-9.66 21-12.01s.77-13.59-1.03-22.4c-1.8-8.8-6.18-12.82-6.18-12.82s-6.81-10.25-22.416-16.5c-15.607-6.24-40.013-8.48-40.013-8.48l-37.581-6.71s-23.748-6.01-33.681-17.46c-9.934-11.46-15.025-20.79-14.035-33.94 1.144-15.21 13.626-32.48 13.626-32.48l23.393-15.21 4.251-12.29Z"/></g><path d="M611.935 3326.43c-74.301-53.3-88.332-155.66-31.338-228.63 56.994-72.98 163.43-88.92 237.732-35.62 74.301 53.3 88.331 155.66 31.338 228.63-56.994 72.98-163.43 88.92-237.732 35.62Z" fill="#474c6b"/><path d="M612.432 3325.4c-73.989-53.07-91.268-150.77-38.594-218.21 52.673-67.44 155.354-79.09 229.343-26.01 73.989 53.07 91.268 150.77 38.595 218.21-52.674 67.45-155.355 79.09-229.344 26.01Z" fill="#8b8b8b"/><path d="M620.62 3317.64c-67.465-48.4-82.801-138.02-34.255-200.18 48.546-62.15 142.591-73.31 210.056-24.91 67.464 48.4 82.801 138.02 34.255 200.17-48.546 62.16-142.591 73.31-210.056 24.92Z" fill="#72758a"/><path d="M628.253 3310.89c-66.258-47.53-81.872-134.84-34.874-195.01 46.997-60.17 138.808-70.42 205.066-22.89 66.257 47.53 81.871 134.84 34.874 195.01-46.997 60.17-138.808 70.42-205.066 22.89Z" fill="url(#ak)"/><g fill="#fff"><path d="m724.65 3107.63-.145 12.85s-9.879-.3-21.301.44c-11.174.73-24.712 3.78-29.166 5.73-5.775 2.54-14.972 6.52-23.511 14.77-9.232 8.93-14.744 18.11-14.282 27.59.526 10.78 8.844 17.93 18.175 18.13 12.475.28 38.902-8.52 63.576-16.83 22.481-7.58 32.739-11.47 51.236-6.04 12.798 3.76 25.568 15.38 29.6 24.51 3.939 8.92 6.61 22.44 2.283 37.5-3.82 13.29-18.852 36.08-27.259 43.77-8.421 7.7-26.229 19.91-39.235 23.34-24.816 6.56-47.957 3.15-47.957 3.15l1.747-11.95s27.102 2.52 47.209-5.23c16.802-6.47 23.035-8.22 34.964-22.72 11.485-13.96 18.093-30.77 18.093-30.77s4.275-22.66-5.524-35.7c-6.65-8.85-19.585-15.66-30.591-14.4-16.671 1.9-22.036 4.96-40.656 11.59-19.566 6.96-29.926 10.85-41.797 13.03-11.444 2.09-22.087 2.1-33.88-6.06-11.793-8.15-17.042-27.31-17.042-27.31s1.714-16.36 17.493-31.07c15.779-14.72 24.707-19.1 42.584-24.79 14.467-4.6 45.386-3.53 45.386-3.53Z"/><path d="M631.593 3141.52s-13.406 14.19-17.21 24.75c-4.703 13.04-4.779 15.34-3.41 26.9 1.369 11.56 6.703 21.85 13.548 28.25 9.139 8.56 16.16 14.28 31.868 15.31 15.708 1.03 29.936-3.17 43.242-7.82 9.344-3.26 30.92-10.51 30.92-10.51s16.012-6.93 26.568-6.69c10.557.24 15.908 3.09 20.1 11.65 1.791 3.66 2.09 8.49.528 16.39-1.563 7.89-8.905 20.22-8.905 20.22l13.272-16.97 10.56-17.75s-5.227-10.37-10.335-16.12c-5.107-5.74-10.096-6.86-10.096-6.86s-9.467-4.7-23.796-2.72c-14.328 1.98-33.517 10.64-33.517 10.64l-30.947 10.91s-20.31 5.59-32.625 1.32c-12.314-4.26-20.102-9.01-24.98-19.14-5.643-11.73-3.694-29.76-3.694-29.76l10.98-21.12-2.071-10.88Z"/></g></g></svg>