<?xml version="1.0" encoding="UTF-8" standalone="no"?>
<svg
   stroke-miterlimit="10"
   style="clip-rule:evenodd;fill-rule:nonzero;stroke-linecap:round;stroke-linejoin:round"
   viewBox="0 0 1360 200"
   xml:space="preserve"
   version="1.1"
   id="svg435"
   sodipodi:docname="banner-feb-bg-1360x200.svg"
   width="1360"
   height="200"
   inkscape:version="1.2 (dc2aedaf03, 2022-05-15)"
   inkscape:export-filename="..\rasterised\banner-feb23-bg-1360x200.png"
   inkscape:export-xdpi="96"
   inkscape:export-ydpi="96"
   xmlns:inkscape="http://www.inkscape.org/namespaces/inkscape"
   xmlns:sodipodi="http://sodipodi.sourceforge.net/DTD/sodipodi-0.dtd"
   xmlns="http://www.w3.org/2000/svg"
   xmlns:svg="http://www.w3.org/2000/svg"
   xmlns:vectornator="http://vectornator.io"><sodipodi:namedview
     id="namedview437"
     pagecolor="#ffffff"
     bordercolor="#666666"
     borderopacity="1.0"
     inkscape:showpageshadow="2"
     inkscape:pageopacity="0.0"
     inkscape:pagecheckerboard="0"
     inkscape:deskcolor="#d1d1d1"
     showgrid="false"
     inkscape:zoom="0.7450077"
     inkscape:cx="609.38967"
     inkscape:cy="112.07938"
     inkscape:window-width="1746"
     inkscape:window-height="1565"
     inkscape:window-x="-8"
     inkscape:window-y="0"
     inkscape:window-maximized="0"
     inkscape:current-layer="g9166" /><defs
     id="defs299"><linearGradient
       gradientUnits="userSpaceOnUse"
       id="a"
       x1="661.41998"
       x2="1179.15"
       y1="1592.6"
       y2="1592.6"><stop
         offset="0"
         stop-color="#5309cd"
         id="stop224" /><stop
         offset="1"
         stop-color="#689aa9"
         id="stop226" /></linearGradient><linearGradient
       gradientUnits="userSpaceOnUse"
       id="b"
       x1="703.97498"
       x2="1146.33"
       y1="1588.24"
       y2="1588.24"><stop
         offset="0"
         stop-color="#7ec9cf"
         id="stop229" /><stop
         offset="1"
         stop-color="#c2c5df"
         id="stop231" /></linearGradient><linearGradient
       gradientUnits="userSpaceOnUse"
       id="c"
       x1="1447.84"
       x2="2155.6201"
       y1="1944.1801"
       y2="1944.1801"><stop
         offset="0"
         stop-color="#76149c"
         id="stop234" /><stop
         offset="1"
         stop-color="#212048"
         id="stop236" /></linearGradient><linearGradient
       gradientUnits="userSpaceOnUse"
       id="d"
       x1="1488.7"
       x2="2092.54"
       y1="1929.1801"
       y2="1929.1801"><stop
         offset="0"
         stop-color="#ec88db"
         id="stop239" /><stop
         offset=".661157"
         stop-color="#5309cd"
         id="stop241" /></linearGradient><linearGradient
       gradientUnits="userSpaceOnUse"
       id="e"
       x1="1599.92"
       x2="2055.97"
       y1="1945.8"
       y2="1945.8"><stop
         offset="0"
         stop-color="#553dd2"
         id="stop244" /><stop
         offset="1"
         stop-color="#3dd0bd"
         id="stop246" /></linearGradient><linearGradient
       gradientUnits="userSpaceOnUse"
       id="f"
       x1="393.746"
       x2="1034.23"
       y1="2446.03"
       y2="2445.2"><stop
         offset="0"
         stop-color="#5309cd"
         id="stop249" /><stop
         offset="1"
         stop-color="#689aa9"
         id="stop251" /></linearGradient><linearGradient
       gradientUnits="userSpaceOnUse"
       id="g"
       x1="421.121"
       x2="823.495"
       y1="2446.24"
       y2="2446.24"><stop
         offset="0"
         stop-color="#7ab2c5"
         id="stop254" /><stop
         offset="1"
         stop-color="#6d74ab"
         id="stop256" /></linearGradient><linearGradient
       gradientUnits="userSpaceOnUse"
       id="h"
       x1="2773.75"
       x2="3487.01"
       y1="1424.3199"
       y2="1424.3199"><stop
         offset="0"
         stop-color="#689aa9"
         id="stop259" /><stop
         offset="1"
         stop-color="#5309cd"
         id="stop261" /></linearGradient><linearGradient
       gradientUnits="userSpaceOnUse"
       id="i"
       x1="2879.77"
       x2="3399.25"
       y1="1415.98"
       y2="1415.98"><stop
         offset="0"
         stop-color="#c2c5df"
         id="stop264" /><stop
         offset="1"
         stop-color="#7ec9cf"
         id="stop266" /></linearGradient><linearGradient
       gradientUnits="userSpaceOnUse"
       id="j"
       x1="3249.26"
       x2="3863.3401"
       y1="2081.4399"
       y2="2081.4399"><stop
         offset="0"
         stop-color="#010111"
         id="stop269" /><stop
         offset="1"
         stop-color="#0d0b3b"
         id="stop271" /></linearGradient><linearGradient
       gradientUnits="userSpaceOnUse"
       id="k"
       x1="3573.1001"
       x2="4160.3701"
       y1="1816.62"
       y2="1816.62"><stop
         offset="0"
         stop-color="#689aa9"
         id="stop274" /><stop
         offset="1"
         stop-color="#5309cd"
         id="stop276" /></linearGradient><linearGradient
       gradientUnits="userSpaceOnUse"
       id="l"
       x1="3616.6899"
       x2="4076.1599"
       y1="1832.21"
       y2="1832.21"><stop
         offset="0"
         stop-color="#c2c5df"
         id="stop279" /><stop
         offset="1"
         stop-color="#7ec9cf"
         id="stop281" /></linearGradient><linearGradient
       gradientUnits="userSpaceOnUse"
       id="m"
       x1="4227.4502"
       x2="4735.8301"
       y1="2274.3601"
       y2="2258.8799"><stop
         offset="0"
         stop-color="#689aa9"
         id="stop284" /><stop
         offset="1"
         stop-color="#5309cd"
         id="stop286" /></linearGradient><linearGradient
       gradientUnits="userSpaceOnUse"
       id="n"
       x1="4245.5898"
       x2="4672.73"
       y1="2259.73"
       y2="2259.73"><stop
         offset="0"
         stop-color="#6d74ab"
         id="stop289" /><stop
         offset="1"
         stop-color="#7ab2c5"
         id="stop291" /></linearGradient><linearGradient
       gradientUnits="userSpaceOnUse"
       id="o"
       x1="4376.75"
       x2="4413.2202"
       y1="2244.6899"
       y2="2244.6899"><stop
         offset="0"
         stop-color="#6d74ab"
         id="stop294" /><stop
         offset="1"
         stop-color="#7ab2c5"
         id="stop296" /></linearGradient><clipPath
       clipPathUnits="userSpaceOnUse"
       id="clipPath9168"><rect
         style="fill:#000000;stroke-width:1.18601"
         id="rect9170"
         width="1360"
         height="200"
         x="0"
         y="0" /></clipPath></defs><rect
     style="fill:#003f5c;fill-opacity:1;stroke:none;stroke-width:1.86548"
     id="rect9224"
     width="1360"
     height="200"
     x="0"
     y="0" /><g
     id="g9166"
     clip-path="url(#clipPath9168)"><path
       d="m 689.6606,26.460534 c 17.04651,41.469554 53.4518,-10.29678 121.10396,26.861238 51.25943,28.153786 179.56383,-15.466086 199.46524,19.549891 19.9036,35.014897 85.6816,85.790517 103.14,64.527037 16.1138,-19.62682 -96.9922,-64.14348 -56.7055,-103.281178 14.0303,-13.630462 60.9595,13.83706 77.9581,15.241186 43.0107,3.552048 116.4402,45.390996 125.5998,121.902032 9.1575,76.51103 95.0962,100.86912 95.0962,100.86912 0,0 -9.6064,-47.72024 -37.4514,-93.47256 C 1286.2213,126.66344 1230.1325,69.989095 1197.9529,51.525807 1137.4576,16.81602 1124.0854,10.221008 1061.8336,4.265622 999.58391,-1.6897643 927.41063,-2.0928662 927.41063,-2.0928662 c 0,0 -60.72728,38.3273652 -114.66944,21.3274792 -53.94215,-16.9998852 -115.89325,-72.570852 -164.13652,-66.190937 -48.24327,6.379698 26.14294,37.1351372 41.05593,73.416858 z"
       fill="#7ec9cf"
       id="path305"
       sodipodi:nodetypes="cccccccccsccscc"
       style="stroke-width:0.21793;fill:#ffa600;fill-opacity:1" /><path
       d="m 154.04387,23.12892 c -38.0616,-47.670102 161.77608,42.965 235.83324,-9.745835 74.05496,-52.71302 143.33944,85.572575 176.02463,29.037071 14.00423,-24.225201 70.63781,9.035374 129.95847,-14.65367 59.31857,-23.6868532 131.42304,-86.102158 168.24894,-137.860586 36.3203,-51.04587 67.3056,-88.6367 68.9314,-20.75352 1.6279,67.883093 -120.7161,98.820503 -133.9074,157.483061 -13.1935,58.664699 -88.7675,93.043229 -88.7675,93.043229 0,0 -40.34329,12.80121 -75.48673,18.94033 -34.79695,6.0781 -69.67455,9.43202 -76.17757,6.27421 -17.37123,-8.43392 -2.62608,-26.96671 -16.2816,-23.06354 -51.65611,14.76038 -38.05502,-38.86359 -76.30836,-57.93901 -8.50365,-4.24092 -19.57017,-6.77328 -34.48754,-6.46603 -23.66505,0.48384 -92.11266,71.48995 -119.27114,73.1353 -12.69664,0.76929 -30.19863,-7.50769 -41.29566,-11.10793 -18.49576,-5.99961 -38.53882,-8.20287 -53.64577,-22.09376 -23.6215,-21.7233 -43.90208,-49.84943 -63.36741,-74.22932 z"
       fill="#6d74ab"
       vectornator:layerName="Слой 6"
       id="path309"
       style="stroke-width:0.21793;fill:#ff6361;fill-opacity:1" /><path
       d="m 1015.8317,372.51264 c 20.6773,-68.13593 77.2171,-114.93869 98.9644,-147.90287 21.7495,-32.96636 -24.9334,-78.15204 21.8367,-106.52225 30.5887,-18.554587 59.8916,33.05352 108.1414,-45.76105 40.7095,-66.5014684 -10.1228,-45.458084 -35.5597,-67.1792347 -4.7094,-4.0229961 -8.5494,-9.5104833 -10.7745,-17.2927823 -14.2461,-49.810193 -55.3805,-84.543952 -63.2717,-135.238943 -6.4922,-41.71407 47.7224,-59.22043 79.4225,-46.57174 32.1165,12.81431 61.6264,48.07546 70.8318,122.629481 9.2076,74.5540192 0.2223,127.186414 -28.2634,210.407499 -15.2508,44.55371 -24.8702,65.97414 -69.6593,131.82833 -44.789,65.85423 -56.5116,84.42629 -109.4948,131.58861 -55.0688,49.01692 -120.56349,77.6247 -139.46678,63.81005 -18.90547,-13.81459 56.61615,-25.65692 77.29338,-93.7951 z"
       fill="#001d56"
       id="path311"
       style="stroke-width:0.21793;fill:#ff6361;fill-opacity:1" /><path
       d="m 758.72872,87.182396 c 37.46447,17.188174 -44.44037,88.089654 -126.79847,120.023024 -82.35811,31.93552 -164.9603,25.48043 -202.63394,7.71256 -72.66238,-34.27172 -13.6163,38.07682 -42.20442,36.38349 C 375.31275,250.6041 296.25193,241.31154 232.26318,172.8269 168.27225,104.34006 242.64103,268.86448 185.443,228.95924 109.80804,176.19176 178.76561,96.280986 119.93527,73.949656 61.102316,51.620513 -41.831912,44.019054 -82.52564,-21.562721 c -17.5638,-28.304859 -16.655031,-95.006829 -16.655031,-95.006829 0,0 27.305953,55.182169 43.022881,37.072152 10.73351,-12.367538 26.467003,-18.933763 66.45441,4.12545 39.987196,23.059212 88.113876,95.512374 125.10736,131.834842 36.99588,36.320332 62.16903,23.100622 86.0978,50.446556 46.59571,53.2557 98.82493,-12.095134 151.99125,5.43956 16.49516,5.43956 58.43152,27.41785 108.58387,26.11245 111.51284,-2.90287 239.1896,-68.465094 276.65182,-51.279064 z"
       fill="#7ec9cf"
       id="path313"
       style="stroke-width:0.21793;fill:#58508d;fill-opacity:1" /><path
       d="m 370.71328,-348.12176 c -21.10047,51.52749 -47.98043,143.38519 -23.09105,239.36177 24.88941,95.976582 82.84758,153.985322 150.33999,205.674094 86.34668,66.128826 162.19302,85.777436 214.12586,96.856986 85.46362,18.23207 140.03341,26.51562 223.96064,10.2362 83.92498,-16.2816 111.74168,-75.36255 111.74168,-75.36255 0,0 -45.5715,-35.256766 -83.60034,-27.03205 C 897.37475,116.06363 859.71855,69.027702 838.39405,80.876584 817.06955,92.723304 758.37869,132.06192 699.98422,116.81983 641.59192,101.57779 678.27834,59.124942 611.35843,28.442502 588.23818,17.842362 405.8149,-74.784628 397.2389,-114.29978 c -4.04217,-18.62653 -49.29195,-114.44619 -18.25887,-146.80451 20.58833,-21.46834 68.16234,-21.09785 104.1858,-25.17969 24.87873,-2.81784 44.24839,-7.76051 45.41541,-23.48419 5.00085,-67.38628 -55.81679,-87.03925 -88.78662,-141.92504 -10.48768,-17.45842 -36.38153,-95.68674 2.99698,-103.67171 39.37851,-7.9828 29.11398,-105.27634 11.32934,-93.98361 -40.42458,25.66849 -63.02484,251.45363 -83.40766,301.22677 z"
       fill="#001d56"
       id="path303"
       style="stroke-width:0.21793;fill:#bc5090;fill-opacity:1" /></g></svg>
