<?xml version="1.0" encoding="UTF-8" standalone="no"?>
<svg
   data-name="Layer 1"
   viewBox="0 0 23654.016 14277.23"
   width="6in"
   height="4in"
   class="css-1tw2bcv"
   version="1.1"
   id="svg31"
   sodipodi:docname="card-front-path.svg"
   inkscape:version="1.1 (c68e22c387, 2021-05-23)"
   xmlns:inkscape="http://www.inkscape.org/namespaces/inkscape"
   xmlns:sodipodi="http://sodipodi.sourceforge.net/DTD/sodipodi-0.dtd"
   xmlns:xlink="http://www.w3.org/1999/xlink"
   xmlns="http://www.w3.org/2000/svg"
   xmlns:svg="http://www.w3.org/2000/svg">
  <sodipodi:namedview
     id="namedview28"
     pagecolor="#ffffff"
     bordercolor="#666666"
     borderopacity="1.0"
     inkscape:pageshadow="2"
     inkscape:pageopacity="0.0"
     inkscape:pagecheckerboard="0"
     showgrid="false"
     units="in"
     inkscape:zoom="10.952727"
     inkscape:cx="277.55644"
     inkscape:cy="319.78337"
     inkscape:window-width="3200"
     inkscape:window-height="1261"
     inkscape:window-x="3111"
     inkscape:window-y="-9"
     inkscape:window-maximized="1"
     inkscape:current-layer="text2329"
     inkscape:document-units="in"
     showguides="true"
     inkscape:guide-bbox="true">
    <sodipodi:guide
       position="1289.7887,16694.196"
       orientation="1,0"
       id="guide1189" />
    <sodipodi:guide
       position="25495.824,12919.384"
       orientation="0,-1"
       id="guide1191" />
    <sodipodi:guide
       position="22406.33,16096.743"
       orientation="1,0"
       id="guide1193" />
    <sodipodi:guide
       position="31434.851,1106.1258"
       orientation="0,-1"
       id="guide1195" />
  </sodipodi:namedview>
  <defs
     id="defs15">
    <linearGradient
       id="linearGradient306">
      <stop
         style="stop-color:#1c2c4d;stop-opacity:1"
         offset="0"
         id="stop302" />
      <stop
         style="stop-color:#200e36;stop-opacity:1"
         offset="1"
         id="stop304" />
    </linearGradient>
    <linearGradient
       id="prefix__a"
       x1="455.51001"
       y1="1008.52"
       x2="994.83002"
       y2="1008.52"
       gradientUnits="userSpaceOnUse">
      <stop
         offset="0"
         stop-color="#84d5d1"
         id="stop2" />
      <stop
         offset="0.51"
         stop-color="#5b87e1"
         id="stop4" />
      <stop
         offset="1"
         stop-color="#806ce0"
         id="stop6" />
    </linearGradient>
    <linearGradient
       id="prefix__b"
       x1="299.89999"
       y1="1211.4301"
       x2="913.03003"
       y2="1211.4301"
       gradientTransform="matrix(0.89,0.11,0.11,0.9,-353.39,-297.52)"
       xlink:href="#prefix__a" />
    <linearGradient
       id="prefix__c"
       x1="798.96997"
       y1="853.39001"
       x2="1182.0699"
       y2="853.39001"
       gradientTransform="matrix(1.42,0,0,0.97,-678.68,-334.13)"
       xlink:href="#prefix__a" />
    <linearGradient
       id="prefix__d"
       x1="253.63"
       y1="772.84003"
       x2="784.57001"
       y2="772.84003"
       gradientTransform="matrix(0.82,-0.05,-0.11,0.92,-103.48,-285.07)"
       xlink:href="#prefix__a" />
    <linearGradient
       id="prefix__e"
       x1="228.42999"
       y1="132.94"
       x2="1216.15"
       y2="132.94"
       xlink:href="#prefix__a" />
    <linearGradient
       id="prefix__f"
       x1="1483.5"
       y1="812.15002"
       x2="2014.42"
       y2="812.15002"
       gradientTransform="matrix(-0.82,-0.05,0.11,0.92,2543.06,-255.2)"
       xlink:href="#prefix__a" />
    <linearGradient
       id="prefix__g"
       x1="1418.13"
       y1="1087.5"
       x2="2014.51"
       y2="1087.5"
       gradientTransform="matrix(-0.89,0.11,-0.11,0.9,2770.01,-297.52)"
       xlink:href="#prefix__a" />
    <linearGradient
       xlink:href="#prefix__a"
       id="linearGradient46"
       gradientUnits="userSpaceOnUse"
       x1="455.51001"
       y1="1008.52"
       x2="994.83002"
       y2="1008.52" />
    <linearGradient
       xlink:href="#linearGradient306"
       id="linearGradient308"
       x1="-38297.727"
       y1="-2229.1086"
       x2="-38297.727"
       y2="20187.582"
       gradientUnits="userSpaceOnUse"
       gradientTransform="matrix(1.0472727,0,0,0.69818176,51302.626,852.91177)" />
    <linearGradient
       inkscape:collect="always"
       xlink:href="#prefix__a"
       id="linearGradient3698"
       x1="2648.8875"
       y1="3341.9607"
       x2="5093.1304"
       y2="3341.9607"
       gradientUnits="userSpaceOnUse"
       gradientTransform="matrix(1.7142857,0,0,1.7142857,3612.2641,6474.4637)" />
  </defs>
  <rect
     style="fill:url(#linearGradient308);fill-opacity:1;fill-rule:evenodd;stroke-width:35.1155"
     id="rect258"
     width="23654.016"
     height="15769.344"
     x="0.0001875"
     y="-746.05688"
     sodipodi:insensitive="true" />
  <g
     id="g42"
     transform="matrix(5.1061653,0,0,5.1061653,8157.435,1538.2963)">
    <path
       fill="url(#prefix__a)"
       d="M 725.17,1301.31 455.51,715.72 h 539.32 z"
       id="path17"
       style="fill:url(#linearGradient46)" />
    <path
       fill="url(#prefix__b)"
       d="M 375.57,704.88 630.78,1247.98 0,460.57 Z"
       id="path19"
       style="fill:url(#prefix__b)" />
    <path
       fill="url(#prefix__c)"
       d="M 994.45,638.43 451.64,640.77 523.35,337 916.2,335.31 Z"
       id="path21"
       style="fill:url(#prefix__c)" />
    <path
       fill="url(#prefix__d)"
       d="M 380.27,617.06 23.93,391.06 176.78,185.26 462.92,323.24 Z"
       id="path23"
       style="fill:url(#prefix__d)" />
    <path
       fill="url(#prefix__e)"
       d="M 905.25,0 1216.14,132.84 931.02,265.89 499.83,262.82 228.43,130.59 527.44,0 Z"
       id="path25"
       style="fill:url(#prefix__e)" />
    <path
       fill="url(#prefix__f)"
       d="M 1060.73,620.27 1416.37,394.71 1253.84,193.04 978,326.5 Z"
       id="path27"
       style="fill:url(#prefix__f)" />
    <path
       fill="url(#prefix__g)"
       d="m 1074.13,708.4 -251.74,543.11 614.92,-777.3 z"
       id="path29"
       style="fill:url(#prefix__g)" />
  </g>
  <g
     aria-label="stashh.io"
     id="text3397"
     style="font-size:3379.15px;line-height:1.25;font-family:Stickler;-inkscape-font-specification:Stickler;stroke-width:70.3989">
    <path
       d="m 7020.1855,11007.582 q 223.0239,77.72 412.2563,77.72 283.8486,0 432.5312,-104.754 152.0618,-108.132 152.0618,-293.986 0,-128.407 -50.6873,-202.749 -50.6872,-74.341 -131.7868,-111.512 -81.0996,-40.549 -229.7822,-84.478 l -67.583,-20.275 q -158.8201,-50.688 -195.9907,-74.342 -64.2039,-33.791 -64.2039,-87.857 0,-54.067 50.6873,-77.721 64.2038,-27.033 199.3698,-27.033 118.2703,0 331.1567,57.445 v -273.7107 q -195.9907,-47.3081 -334.5358,-47.3081 -280.4695,0 -415.6355,94.6162 -135.166,91.237 -135.166,260.1946 0,250.057 250.0571,361.569 101.3745,47.308 250.0571,91.237 131.7869,43.929 179.095,67.583 54.0664,23.654 54.0664,70.962 0,64.204 -57.4456,94.616 -54.0664,30.413 -199.3698,30.413 -155.4409,0 -429.1521,-94.616 z"
       style="fill:#ffffff"
       id="path921" />
    <path
       d="m 9071.3263,10750.766 q -148.6826,37.171 -233.1614,37.171 -212.8864,0 -212.8864,-189.233 v -587.972 h 446.0478 3.3791 v -253.4359 h -449.4269 v -371.7065 h -324.3984 v 371.7065 h -216.2656 v 253.4359 h 216.2656 v 594.731 q 0,236.54 104.7536,341.294 108.1328,104.753 361.5691,104.753 43.9289,0 125.0285,-13.516 l 179.095,-43.929 z"
       style="fill:#ffffff"
       id="path923" />
    <path
       d="m 10024.242,10744.008 q -81.0998,47.308 -135.1662,60.825 -50.6872,13.516 -131.7868,13.516 -101.3745,0 -158.8201,-43.929 -57.4455,-43.929 -57.4455,-121.649 0,-77.721 60.8247,-118.27 60.8247,-40.55 192.6115,-50.688 l 229.7824,-16.895 z m -706.2425,-702.863 q 70.9621,-27.034 185.8532,-43.9293 118.2703,-16.8957 206.1282,-16.8957 131.7868,0 192.6115,20.275 60.8247,20.275 84.4788,74.341 23.6538,47.308 23.6538,172.337 l -253.436,13.516 q -260.1946,13.517 -402.1189,121.65 -138.5451,104.753 -138.5451,293.986 0,172.337 125.0285,280.469 125.0286,104.754 334.5359,104.754 226.403,0 378.4646,-121.649 l 3.379,114.891 h 290.607 v -821.134 q 0,-263.5735 -138.545,-378.4646 -135.166,-118.2702 -449.4269,-118.2702 -87.8579,0 -223.0239,20.2749 -131.7868,16.8957 -219.6447,47.3081 z"
       style="fill:#ffffff"
       id="path925" />
    <path
       d="m 10531.108,11007.582 q 223.024,77.72 412.256,77.72 283.849,0 432.531,-104.754 152.062,-108.132 152.062,-293.986 0,-128.407 -50.687,-202.749 -50.687,-74.341 -131.787,-111.512 -81.1,-40.549 -229.782,-84.478 l -67.583,-20.275 q -158.82,-50.688 -195.991,-74.342 -64.204,-33.791 -64.204,-87.857 0,-54.067 50.688,-77.721 64.203,-27.033 199.369,-27.033 118.271,0 331.157,57.445 v -273.7107 q -195.991,-47.3081 -334.536,-47.3081 -280.469,0 -415.635,94.6162 -135.166,91.237 -135.166,260.1946 0,250.057 250.057,361.569 101.374,47.308 250.057,91.237 131.787,43.929 179.095,67.583 54.066,23.654 54.066,70.962 0,64.204 -57.445,94.616 -54.067,30.413 -199.37,30.413 -155.441,0 -429.152,-94.616 z"
       style="fill:#ffffff"
       id="path927" />
    <path
       d="m 12295.021,10034.386 q 125.029,0 179.095,64.204 54.066,60.825 54.066,199.37 v 756.93 h 324.399 v -713.001 q 0,-297.365 -108.133,-435.9103 -108.133,-141.9243 -364.948,-141.9243 -202.749,0 -391.982,84.4787 V 9196.3572 H 11663.12 V 11054.89 h 324.398 v -949.541 q 182.475,-70.963 307.503,-70.963 z"
       style="fill:#ffffff"
       id="path929" />
    <path
       d="m 13619.642,10034.386 q 125.028,0 179.095,64.204 54.066,60.825 54.066,199.37 v 756.93 h 324.398 v -713.001 q 0,-297.365 -108.132,-435.9103 -108.133,-141.9243 -364.949,-141.9243 -202.749,0 -391.981,84.4787 v -652.1759 h -324.398 V 11054.89 h 324.398 v -949.541 q 182.474,-70.963 307.503,-70.963 z"
       style="fill:#ffffff"
       id="path931" />
    <path
       d="m 14488.078,11092.06 q -77.721,0 -135.166,-57.445 -57.446,-57.446 -57.446,-135.166 0,-77.721 57.446,-135.166 57.445,-57.446 135.166,-57.446 77.72,0 135.166,57.446 57.445,57.445 57.445,135.166 0,77.72 -57.445,135.166 -57.446,57.445 -135.166,57.445 z"
       style="fill:#ffffff"
       id="path933" />
    <path
       d="m 14842.885,11054.89 h 324.399 V 9757.2961 h -324.399 z m 162.2,-1517.2387 q -84.479,0 -145.304,-60.8247 -60.824,-60.8247 -60.824,-145.3034 0,-87.8579 60.824,-145.3034 60.825,-60.8247 145.304,-60.8247 87.858,0 145.303,60.8247 60.825,57.4455 60.825,145.3034 0,84.4787 -60.825,145.3034 -57.445,60.8247 -145.303,60.8247 z"
       style="fill:#ffffff"
       id="path935" />
    <path
       d="m 16012.067,11085.302 q 199.37,0 351.432,-84.479 152.061,-87.858 236.54,-239.919 81.1,-152.062 81.1,-351.432 0,-307.503 -182.474,-489.9767 -179.095,-182.4741 -483.219,-182.4741 -304.123,0 -486.597,182.4741 -182.474,179.0947 -182.474,493.3557 0,192.612 81.099,344.673 84.479,152.062 236.541,239.92 148.682,87.858 348.052,87.858 z m 0,-1094.8446 q 145.303,0 239.92,118.2706 94.616,114.891 94.616,304.123 0,192.612 -91.237,304.124 -91.237,111.512 -243.299,111.512 -145.303,0 -239.92,-111.512 -91.237,-114.891 -91.237,-304.124 0,-189.232 91.237,-304.123 94.617,-118.2706 239.92,-118.2706 z"
       style="fill:#ffffff"
       id="path937" />
  </g>
  <g
     aria-label="Secret NFT"
     id="text2329-3"
     style="font-size:1126.38px;line-height:1.25;font-family:Stickler;-inkscape-font-specification:Stickler;text-align:center;text-anchor:middle;fill:url(#linearGradient3698);stroke-width:70.3989">
    <path
       d="m 8539.5662,11905.612 q -64.2037,-20.274 -140.7975,-20.274 -69.8356,0 -123.9018,22.527 -54.0662,21.401 -83.3521,61.951 -30.4123,41.676 -30.4123,97.995 0,96.869 94.6159,141.924 52.9399,23.654 104.7534,39.423 66.4564,21.402 95.7423,37.171 29.2859,16.896 29.2859,48.434 0,16.896 -11.2638,32.665 -10.1375,15.77 -29.2859,25.907 -38.2969,21.401 -99.1215,21.401 -50.6871,0 -185.8527,-54.066 l -6.7582,-2.253 2.2527,118.27 q 65.3301,24.78 102.5006,33.792 38.2969,10.137 75.4675,10.137 84.4785,0 144.1766,-24.78 60.8245,-24.781 91.2368,-69.836 29.2859,-42.802 29.2859,-93.49 0,-48.434 -25.9068,-85.604 -24.7803,-38.297 -70.9619,-59.699 -59.6982,-24.78 -107.0061,-39.423 -64.2037,-21.401 -92.3632,-37.17 -28.1595,-14.643 -28.1595,-46.182 0,-33.791 33.7914,-54.066 33.7914,-21.401 91.2368,-21.401 34.9178,0 67.5828,6.758 32.665,6.758 75.4675,22.527 z"
       id="path855" />
    <path
       d="m 9010.3922,12424.874 q -43.9288,11.263 -129.5337,11.263 -136.292,0 -145.303,-97.995 h 293.9851 v -41.676 q 0,-105.879 -52.9398,-165.578 -52.9399,-59.698 -149.8086,-59.698 -54.0662,0 -99.1214,28.16 -45.0552,27.033 -73.2147,77.72 -28.1595,51.814 -28.1595,119.396 0,102.501 64.2037,164.452 65.33,60.824 175.7152,60.824 83.3522,0 144.1767,-16.895 z m -181.3472,-269.205 q 43.9288,0 68.7092,28.159 24.7803,28.16 24.7803,78.847 h -184.7263 q 2.2528,-47.308 28.1595,-76.594 25.9068,-30.412 63.0773,-30.412 z"
       id="path857" />
    <path
       d="m 9423.7721,12092.592 q -50.6871,-21.402 -125.0282,-21.402 -104.7534,0 -164.4515,56.319 -59.6981,56.319 -59.6981,157.694 0,101.374 60.8245,163.325 61.9509,61.951 163.3251,61.951 67.5828,0 125.0282,-22.528 v -85.605 q -41.6761,13.517 -61.9509,18.022 -19.1485,4.506 -45.0552,4.506 -59.6982,0 -95.7423,-38.297 -34.9178,-39.424 -34.9178,-101.374 0,-64.204 32.665,-96.869 33.7914,-32.665 97.9951,-32.665 25.9067,0 45.0552,4.505 20.2748,4.506 61.9509,18.022 z"
       id="path859" />
    <path
       d="m 9468.8256,12510.479 h 107.0061 v -328.903 q 37.1705,-12.391 70.9619,-12.391 50.6871,0 87.8577,20.275 v -105.88 q -28.1595,-5.631 -48.4344,-5.631 h -10.1374 q -82.2257,0 -145.303,27.033 -63.0773,25.906 -61.9509,84.478 z m -2.2528,-428.025 h 45.0552 14.643 q -21.4013,6.758 -38.297,19.149 -15.7693,12.39 -20.2748,24.78 z"
       id="path861" />
    <path
       d="m 10154.791,12424.874 q -43.929,11.263 -129.534,11.263 -136.2919,0 -145.3029,-97.995 h 293.9849 v -41.676 q 0,-105.879 -52.94,-165.578 -52.939,-59.698 -149.8081,-59.698 -54.0663,0 -99.1215,28.16 -45.0552,27.033 -73.2147,77.72 -28.1595,51.814 -28.1595,119.396 0,102.501 64.2037,164.452 65.33,60.824 175.7151,60.824 83.352,0 144.177,-16.895 z m -181.3474,-269.205 q 43.9284,0 68.7094,28.159 24.78,28.16 24.78,78.847 h -184.7262 q 2.2528,-47.308 28.1595,-76.594 25.9068,-30.412 63.0773,-30.412 z"
       id="path863" />
    <path
       d="m 10525.368,12409.104 q -49.561,12.39 -77.72,12.39 -70.962,0 -70.962,-63.077 v -195.99 h 148.682 1.127 v -84.478 h -149.809 v -123.902 h -108.132 v 123.902 h -72.089 v 84.478 h 72.089 v 198.243 q 0,78.847 34.917,113.764 36.044,34.918 120.523,34.918 14.643,0 41.676,-4.505 l 59.698,-14.643 z"
       id="path865" />
    <path
       d="m 10815.972,12510.479 h 110.385 v -460.69 l 298.491,460.69 h 134.039 v -619.509 h -111.511 v 459.563 l -299.618,-459.563 h -131.786 z"
       id="path867" />
    <path
       d="m 11793.669,11990.091 v -99.121 h -400.991 v 619.509 h 110.385 v -235.414 h 255.688 v -101.374 h -255.688 v -183.6 z"
       id="path869" />
    <path
       d="m 11827.46,11990.091 h 202.748 v 520.388 h 110.385 v -520.388 h 202.749 v -99.121 h -515.882 z"
       id="path871" />
  </g>
  <g
     aria-label="The Secret NFT Marketplace"
     id="text2329"
     style="font-size:1126.38px;line-height:1.25;font-family:Stickler;-inkscape-font-specification:Stickler;text-align:center;text-anchor:middle;fill:#9f9f9f;stroke-width:70.3989">
    <path
       d="m 6478.4082,11986.512 h 202.7484 v 520.387 h 110.3852 v -520.387 h 202.7484 v -99.122 h -515.882 z"
       id="path874" />
    <path
       d="m 7244.3454,12166.733 q 41.6761,0 59.6982,21.401 18.0221,20.275 18.0221,66.456 v 252.309 h 108.1324 v -237.666 q 0,-99.121 -36.0441,-145.303 -36.0442,-47.308 -121.6491,-47.308 -67.5828,0 -130.66,28.16 v -217.392 h -108.1325 v 619.509 h 108.1325 v -316.512 q 60.8245,-23.654 102.5005,-23.654 z"
       id="path876" />
    <path
       d="m 7848.0832,12421.295 q -43.9289,11.263 -129.5337,11.263 -136.292,0 -145.3031,-97.995 h 293.9852 v -41.676 q 0,-105.88 -52.9398,-165.578 -52.9399,-59.698 -149.8086,-59.698 -54.0662,0 -99.1214,28.16 -45.0552,27.033 -73.2147,77.72 -28.1595,51.813 -28.1595,119.396 0,102.501 64.2036,164.452 65.3301,60.824 175.7153,60.824 83.3521,0 144.1767,-16.895 z M 7666.736,12152.09 q 43.9288,0 68.7092,28.159 24.7803,28.16 24.7803,78.847 h -184.7263 q 2.2528,-47.308 28.1595,-76.594 25.9067,-30.412 63.0773,-30.412 z"
       id="path878" />
    <path
       d="m 12626.173,12506.899 h 110.386 v -467.447 l 155.44,308.628 h 94.616 l 156.567,-308.628 v 467.447 h 109.259 v -619.509 h -139.672 l -171.209,339.041 -167.831,-339.041 h -147.556 z"
       id="path898" />
    <path
       d="m 13561.067,12403.272 q -27.033,15.77 -45.055,20.275 -16.896,4.506 -43.929,4.506 -33.791,0 -52.94,-14.643 -19.148,-14.643 -19.148,-40.55 0,-25.907 20.275,-39.423 20.275,-13.517 64.203,-16.896 l 76.594,-5.632 z m -235.413,-234.287 q 23.654,-9.011 61.951,-14.643 39.423,-5.631 68.709,-5.631 43.929,0 64.203,6.758 20.275,6.758 28.16,24.78 7.885,15.77 7.885,57.446 l -84.479,4.505 q -86.731,4.506 -134.039,40.55 -46.182,34.918 -46.182,97.995 0,57.445 41.676,93.489 41.676,34.918 111.512,34.918 75.467,0 126.155,-40.55 l 1.126,38.297 h 96.869 v -273.71 q 0,-87.858 -46.182,-126.154 -45.055,-39.424 -149.808,-39.424 -29.286,0 -74.342,6.758 -43.928,5.632 -73.214,15.77 z"
       id="path900" />
    <path
       d="m 13714.252,12506.899 h 107.007 v -328.903 q 37.17,-12.39 70.962,-12.39 50.687,0 87.857,20.275 v -105.88 q -28.159,-5.632 -48.434,-5.632 h -10.138 q -82.225,0 -145.303,27.034 -63.077,25.906 -61.951,84.478 z m -2.252,-428.024 h 45.055 14.643 q -21.401,6.758 -38.297,19.148 -15.769,12.391 -20.275,24.781 z"
       id="path902" />
    <path
       d="m 14027.386,11887.39 v 619.509 h 108.133 v -619.509 z m 119.397,381.843 171.209,237.666 h 130.66 l -174.589,-237.666 166.705,-194.864 h -130.66 z"
       id="path904" />
    <path
       d="m 14838.38,12421.295 q -43.929,11.263 -129.534,11.263 -136.292,0 -145.303,-97.995 h 293.985 v -41.676 q 0,-105.88 -52.94,-165.578 -52.94,-59.698 -149.808,-59.698 -54.067,0 -99.122,28.16 -45.055,27.033 -73.214,77.72 -28.16,51.813 -28.16,119.396 0,102.501 64.204,164.452 65.33,60.824 175.715,60.824 83.352,0 144.177,-16.895 z m -181.348,-269.205 q 43.929,0 68.71,28.159 24.78,28.16 24.78,78.847 h -184.726 q 2.252,-47.308 28.159,-76.594 25.907,-30.412 63.077,-30.412 z"
       id="path906" />
    <path
       d="m 15208.957,12405.525 q -49.56,12.39 -77.72,12.39 -70.962,0 -70.962,-63.077 v -195.99 h 148.682 1.127 v -84.479 h -149.809 v -123.901 h -108.132 v 123.901 h -72.089 v 84.479 h 72.089 v 198.243 q 0,78.846 34.918,113.764 36.044,34.918 120.522,34.918 14.643,0 41.676,-4.505 l 59.698,-14.643 z"
       id="path908" />
    <path
       d="m 15257.39,12074.369 v 664.565 h 108.132 v -255.689 q 31.539,12.391 50.687,18.023 20.275,4.505 43.929,4.505 102.501,0 161.072,-55.193 59.699,-56.319 59.699,-152.061 0,-74.341 -28.16,-125.028 -28.159,-51.814 -79.973,-76.594 -48.434,-22.528 -97.995,-22.528 -68.709,0 -130.66,34.918 l 1.126,-34.918 z m 186.979,85.605 q 65.33,0 94.616,31.539 30.412,31.539 30.412,101.374 0,66.457 -32.665,97.995 -31.539,30.413 -95.742,30.413 -42.803,0 -74.341,-21.402 v -224.149 q 40.549,-15.77 77.72,-15.77 z"
       id="path910" />
    <path
       d="m 15881.402,12432.558 q -27.033,0 -38.297,-16.895 -11.263,-16.896 -11.263,-51.814 v -476.459 h -105.88 v 507.998 q 0,121.649 110.385,121.649 55.193,0 96.869,-21.401 v -70.962 q -23.654,7.884 -51.814,7.884 z"
       id="path912" />
    <path
       d="m 16236.211,12403.272 q -27.033,15.77 -45.055,20.275 -16.896,4.506 -43.929,4.506 -33.792,0 -52.94,-14.643 -19.149,-14.643 -19.149,-40.55 0,-25.907 20.275,-39.423 20.275,-13.517 64.204,-16.896 l 76.594,-5.632 z m -235.414,-234.287 q 23.654,-9.011 61.951,-14.643 39.424,-5.631 68.709,-5.631 43.929,0 64.204,6.758 20.275,6.758 28.16,24.78 7.884,15.77 7.884,57.446 l -84.478,4.505 q -86.732,4.506 -134.04,40.55 -46.181,34.918 -46.181,97.995 0,57.445 41.676,93.489 41.676,34.918 111.512,34.918 75.467,0 126.154,-40.55 l 1.127,38.297 h 96.868 v -273.71 q 0,-87.858 -46.181,-126.154 -45.056,-39.424 -149.809,-39.424 -29.286,0 -74.341,6.758 -43.929,5.632 -73.215,15.77 z"
       id="path914" />
    <path
       d="m 16738.574,12089.012 q -50.687,-21.401 -125.028,-21.401 -104.753,0 -164.451,56.319 -59.698,56.319 -59.698,157.693 0,101.375 60.824,163.326 61.951,61.95 163.325,61.95 67.583,0 125.028,-22.527 v -85.605 q -41.676,13.516 -61.951,18.022 -19.148,4.506 -45.055,4.506 -59.698,0 -95.742,-38.297 -34.918,-39.424 -34.918,-101.375 0,-64.203 32.665,-96.868 33.792,-32.665 97.995,-32.665 25.907,0 45.055,4.505 20.275,4.506 61.951,18.022 z"
       id="path916" />
    <path
       d="m 17156.46,12421.295 q -43.929,11.263 -129.534,11.263 -136.292,0 -145.303,-97.995 h 293.985 v -41.676 q 0,-105.88 -52.94,-165.578 -52.94,-59.698 -149.808,-59.698 -54.066,0 -99.122,28.16 -45.055,27.033 -73.214,77.72 -28.16,51.813 -28.16,119.396 0,102.501 64.204,164.452 65.33,60.824 175.715,60.824 83.352,0 144.177,-16.895 z m -181.347,-269.205 q 43.928,0 68.709,28.159 24.78,28.16 24.78,78.847 h -184.726 q 2.253,-47.308 28.159,-76.594 25.907,-30.412 63.078,-30.412 z"
       id="path918" />
  </g>
</svg>
