<?xml version="1.0" encoding="UTF-8" standalone="no"?>
<svg
   stroke-miterlimit="10"
   style="clip-rule:evenodd;fill-rule:nonzero;stroke-linecap:round;stroke-linejoin:round"
   viewBox="0 0 1500 500"
   xml:space="preserve"
   version="1.1"
   id="svg435"
   sodipodi:docname="stashh-of-the-day-banner-1500x500-prelaunch.svg"
   width="1500"
   height="500"
   inkscape:version="1.2 (dc2aedaf03, 2022-05-15)"
   inkscape:export-filename="..\rasterised\stashh-of-the-day-banner-1500x500-prelaunch.png"
   inkscape:export-xdpi="96"
   inkscape:export-ydpi="96"
   xmlns:inkscape="http://www.inkscape.org/namespaces/inkscape"
   xmlns:sodipodi="http://sodipodi.sourceforge.net/DTD/sodipodi-0.dtd"
   xmlns="http://www.w3.org/2000/svg"
   xmlns:svg="http://www.w3.org/2000/svg"
   xmlns:vectornator="http://vectornator.io"><sodipodi:namedview
     id="namedview437"
     pagecolor="#ffffff"
     bordercolor="#666666"
     borderopacity="1.0"
     inkscape:showpageshadow="2"
     inkscape:pageopacity="0.0"
     inkscape:pagecheckerboard="0"
     inkscape:deskcolor="#d1d1d1"
     showgrid="false"
     inkscape:zoom="0.7450077"
     inkscape:cx="498.65256"
     inkscape:cy="532.20926"
     inkscape:window-width="2496"
     inkscape:window-height="1575"
     inkscape:window-x="-9"
     inkscape:window-y="-9"
     inkscape:window-maximized="1"
     inkscape:current-layer="svg435" /><defs
     id="defs299"><linearGradient
       gradientUnits="userSpaceOnUse"
       id="a"
       x1="661.41998"
       x2="1179.15"
       y1="1592.6"
       y2="1592.6"><stop
         offset="0"
         stop-color="#5309cd"
         id="stop224" /><stop
         offset="1"
         stop-color="#689aa9"
         id="stop226" /></linearGradient><linearGradient
       gradientUnits="userSpaceOnUse"
       id="b"
       x1="703.97498"
       x2="1146.33"
       y1="1588.24"
       y2="1588.24"><stop
         offset="0"
         stop-color="#7ec9cf"
         id="stop229" /><stop
         offset="1"
         stop-color="#c2c5df"
         id="stop231" /></linearGradient><linearGradient
       gradientUnits="userSpaceOnUse"
       id="c"
       x1="1447.84"
       x2="2155.6201"
       y1="1944.1801"
       y2="1944.1801"><stop
         offset="0"
         stop-color="#76149c"
         id="stop234" /><stop
         offset="1"
         stop-color="#212048"
         id="stop236" /></linearGradient><linearGradient
       gradientUnits="userSpaceOnUse"
       id="d"
       x1="1488.7"
       x2="2092.54"
       y1="1929.1801"
       y2="1929.1801"><stop
         offset="0"
         stop-color="#ec88db"
         id="stop239" /><stop
         offset=".661157"
         stop-color="#5309cd"
         id="stop241" /></linearGradient><linearGradient
       gradientUnits="userSpaceOnUse"
       id="e"
       x1="1599.92"
       x2="2055.97"
       y1="1945.8"
       y2="1945.8"><stop
         offset="0"
         stop-color="#553dd2"
         id="stop244" /><stop
         offset="1"
         stop-color="#3dd0bd"
         id="stop246" /></linearGradient><linearGradient
       gradientUnits="userSpaceOnUse"
       id="f"
       x1="393.746"
       x2="1034.23"
       y1="2446.03"
       y2="2445.2"><stop
         offset="0"
         stop-color="#5309cd"
         id="stop249" /><stop
         offset="1"
         stop-color="#689aa9"
         id="stop251" /></linearGradient><linearGradient
       gradientUnits="userSpaceOnUse"
       id="g"
       x1="421.121"
       x2="823.495"
       y1="2446.24"
       y2="2446.24"><stop
         offset="0"
         stop-color="#7ab2c5"
         id="stop254" /><stop
         offset="1"
         stop-color="#6d74ab"
         id="stop256" /></linearGradient><linearGradient
       gradientUnits="userSpaceOnUse"
       id="h"
       x1="2773.75"
       x2="3487.01"
       y1="1424.3199"
       y2="1424.3199"><stop
         offset="0"
         stop-color="#689aa9"
         id="stop259" /><stop
         offset="1"
         stop-color="#5309cd"
         id="stop261" /></linearGradient><linearGradient
       gradientUnits="userSpaceOnUse"
       id="i"
       x1="2879.77"
       x2="3399.25"
       y1="1415.98"
       y2="1415.98"><stop
         offset="0"
         stop-color="#c2c5df"
         id="stop264" /><stop
         offset="1"
         stop-color="#7ec9cf"
         id="stop266" /></linearGradient><linearGradient
       gradientUnits="userSpaceOnUse"
       id="j"
       x1="3249.26"
       x2="3863.3401"
       y1="2081.4399"
       y2="2081.4399"><stop
         offset="0"
         stop-color="#010111"
         id="stop269" /><stop
         offset="1"
         stop-color="#0d0b3b"
         id="stop271" /></linearGradient><linearGradient
       gradientUnits="userSpaceOnUse"
       id="k"
       x1="3573.1001"
       x2="4160.3701"
       y1="1816.62"
       y2="1816.62"><stop
         offset="0"
         stop-color="#689aa9"
         id="stop274" /><stop
         offset="1"
         stop-color="#5309cd"
         id="stop276" /></linearGradient><linearGradient
       gradientUnits="userSpaceOnUse"
       id="l"
       x1="3616.6899"
       x2="4076.1599"
       y1="1832.21"
       y2="1832.21"><stop
         offset="0"
         stop-color="#c2c5df"
         id="stop279" /><stop
         offset="1"
         stop-color="#7ec9cf"
         id="stop281" /></linearGradient><linearGradient
       gradientUnits="userSpaceOnUse"
       id="m"
       x1="4227.4502"
       x2="4735.8301"
       y1="2274.3601"
       y2="2258.8799"><stop
         offset="0"
         stop-color="#689aa9"
         id="stop284" /><stop
         offset="1"
         stop-color="#5309cd"
         id="stop286" /></linearGradient><linearGradient
       gradientUnits="userSpaceOnUse"
       id="n"
       x1="4245.5898"
       x2="4672.73"
       y1="2259.73"
       y2="2259.73"><stop
         offset="0"
         stop-color="#6d74ab"
         id="stop289" /><stop
         offset="1"
         stop-color="#7ab2c5"
         id="stop291" /></linearGradient><linearGradient
       gradientUnits="userSpaceOnUse"
       id="o"
       x1="4376.75"
       x2="4413.2202"
       y1="2244.6899"
       y2="2244.6899"><stop
         offset="0"
         stop-color="#6d74ab"
         id="stop294" /><stop
         offset="1"
         stop-color="#7ab2c5"
         id="stop296" /></linearGradient><clipPath
       clipPathUnits="userSpaceOnUse"
       id="clipPath815"><rect
         style="fill:#000000;stroke-width:2.07382"
         id="rect817"
         width="1500"
         height="500"
         x="0"
         y="0" /></clipPath></defs><rect
     style="fill:#000000;stroke-width:1.96941"
     id="rect871"
     width="1500"
     height="500"
     x="0"
     y="0" /><g
     id="g813"
     clip-path="url(#clipPath815)"><path
       d="m 441.88427,40.936946 c 33.46621,81.414204 104.9381,-20.21493 237.75474,52.734744 100.63396,55.27231 352.52479,-30.36346 391.59579,38.3809 39.0753,68.74223 168.2125,168.42637 202.4873,126.68131 31.6351,-38.53193 -190.4177,-125.9283 -111.3258,-202.764539 27.5448,-26.759709 119.6774,27.165309 153.0495,29.921929 84.4399,6.97348 228.5988,89.11289 246.5812,239.32152 17.9782,150.20863 186.6955,198.02911 186.6955,198.02911 0,0 -18.8595,-93.68571 -73.5256,-183.50797 C 1613.0692,237.65814 1502.9541,126.39345 1439.7782,90.1458 1321.0121,22.002563 1294.7594,9.0550481 1172.5448,-2.6367349 1050.3345,-14.328518 908.64188,-15.119899 908.64188,-15.119899 c 0,0 -119.22153,75.245369 -225.12229,41.870711 C 577.61882,-6.6238439 455.99467,-115.72234 361.28211,-103.19711 c -94.71255,12.524803 51.32457,72.904753 80.60216,144.134056 z"
       fill="#7ec9cf"
       id="path305"
       sodipodi:nodetypes="cccccccccsccscc"
       style="stroke-width:0.427847" /><path
       d="m -177.48439,139.80337 c -74.7236,-93.587295 317.6034,84.3501 462.9945,-19.1333 145.3868,-103.487695 281.40805,167.9985 345.57655,57.0064 27.4935,-47.5596 138.67815,17.7385 255.13815,-28.7685 116.45589,-46.5027 258.01339,-169.038195 330.31109,-270.6518 71.305,-100.2147 132.1363,-174.0141 135.3281,-40.7439 3.196,133.270005 -236.9932,194.007205 -262.8908,309.1752 -25.9019,115.1722 -174.27089,182.6651 -174.27089,182.6651 0,0 -79.2031,25.1317 -148.1977,37.1842 -68.31435,11.9327 -136.78705,18.5172 -149.55395,12.3177 -34.1037,-16.5577 -5.1556,-52.9418 -31.9645,-45.279 -101.41275,28.978 -74.7107,-76.2981 -149.81075,-113.7475 -16.6946,-8.3259 -38.4207,-13.2975 -67.7069,-12.6943 -46.4599,0.9499 -180.8382,140.3511 -234.1565,143.5813 -24.9264,1.5103 -59.286798,-14.7393 -81.072798,-21.8074 -36.3114,-11.7786 -75.6605,-16.1041 -105.3189,-43.3751 -46.3744,-42.6478 -86.189802,-97.8658 -124.404702,-145.7291 z"
       fill="#6d74ab"
       vectornator:layerName="Слой 6"
       id="path309"
       style="stroke-width:0.427847" /><path
       d="m 1082.2327,720.31625 c 40.5941,-133.7664 151.5948,-225.6509 194.2897,-290.3671 42.6992,-64.7205 -48.95,-153.4303 42.8703,-209.1275 60.0526,-36.4269 117.581,64.8916 212.3064,-89.8394 C 1611.621,0.42468343 1511.8256,41.737653 1461.8872,-0.90592657 1452.6415,-8.8039866 1445.1028,-19.577177 1440.7345,-34.855607 1412.7661,-132.64439 1332.0099,-200.83469 1316.5176,-300.36053 c -12.7456,-81.89425 93.69,-116.26323 155.9246,-91.43097 63.0519,25.15742 120.9867,94.38312 139.059,240.74968 18.0765,146.3665634 0.4364,249.695973 -55.4876,413.07797 -29.9407,87.4691 -48.8259,129.5223 -136.7571,258.8091 -87.9311,129.2869 -110.9451,165.7481 -214.9633,258.3385 -108.1127,96.2314 -236.69365,152.395 -273.80513,125.2737 -37.11575,-27.1212 111.15043,-50.3704 151.74463,-184.1412 z"
       fill="#001d56"
       id="path311"
       style="stroke-width:0.427847" /><path
       d="m 743.49702,233.93283 c 73.5513,33.7443 -87.2466,172.9401 -248.93435,235.6326 -161.68778,62.6967 -323.85474,50.0239 -397.816699,15.1415 -142.65285,-67.2832 -26.7319,74.7535 -82.85691,71.4291 -23.1251503,-1.3691 -178.339591,-19.6125 -303.964111,-154.0635 -125.62881,-134.4553 20.37408,188.5437 -91.91872,110.2006 -148.48868,-103.5946 -13.10924,-260.4777 -128.60662,-304.3192 -115.50251,-43.8372 -317.58591,-58.7606 -397.47699,-187.5126 -34.48175,-55.5689 -32.69763,-186.5201 -32.69763,-186.5201 0,0 53.60782,108.3352 84.46374,72.7811 21.07233,-24.2803 51.96077,-37.1713 130.46518,8.0992 78.50399,45.2705 172.98765,187.5126 245.6143,258.8219 72.63136,71.3051 122.052,45.3518 169.02964,99.0381 91.47803,104.5531 194.01591,-23.7455 298.393541,10.6791 32.38376,10.6791 114.714419,53.8275 213.174919,51.2647 218.92518,-5.699 469.58381,-134.4126 543.13071,-100.6725 z"
       fill="#7ec9cf"
       id="path313"
       style="stroke-width:0.427847" /><path
       d="M -160.56554,-467.82826 C -201.99058,-366.66804 -254.76207,-186.3304 -205.89853,2.0935409 -157.03495,190.51749 -43.249815,304.40188 89.253196,405.87874 c 169.518234,129.826 318.421934,168.4007 420.377944,190.1524 167.7846,35.7937 274.91756,52.0562 439.68588,20.096 164.76388,-31.9645 219.37438,-147.9539 219.37438,-147.9539 0,0 -89.4672,-69.2171 -164.1265,-53.0701 -131.17371,28.3705 -205.10144,-63.97177 -246.9663,-40.7097 -41.86486,23.2578 -157.08842,100.4885 -271.7301,70.5648 C 371.23109,415.03464 443.25491,331.68999 311.87584,271.45336 266.48552,250.64287 -91.653035,68.794931 -108.48968,-8.7823391 -116.42539,-45.350449 -205.26104,-233.46634 -144.33601,-296.99311 c 40.41959,-42.14724 133.818226,-41.41989 204.540516,-49.43347 48.842624,-5.53207 86.869684,-15.23565 89.160814,-46.10483 9.81781,-132.29466 -109.581114,-170.87793 -174.308404,-278.63127 -20.589724,-34.27485 -71.425256,-187.85492 5.883756,-203.53124 77.308994,-15.67205 57.157384,-206.68148 22.2420742,-184.51128 -79.3626842,50.3931 -123.7321562,493.6609 -163.7482862,591.37694 z"
       fill="#001d56"
       id="path303"
       style="stroke-width:0.427847" /></g><g
     id="g1443"
     style="clip-rule:evenodd;fill-rule:nonzero;stroke-linecap:round;stroke-linejoin:round"
     transform="matrix(0.14897414,0,0,0.14897414,726.53366,-148.74837)"><g
       vectornator:layerName="Слой 9"
       id="g1031"><path
         d="m 661.42,1507.99 c 0,0 23.549,-40.71 61.426,-81.55 41.085,-44.3 87.198,-69.8 164.128,-100.58 97.069,-38.84 221.106,-13.07 221.106,-13.07 0,0 1.58,33.41 20.15,49.23 21.13,18 43.46,21.79 43.46,21.79 0,0 18.02,127.61 -1.95,250.29 -19.96,122.67 -86.41,246.69 -86.41,246.69 0,0 -138.219,-51.63 -218.769,-99.29 -80.549,-47.67 -201.384,-171.61 -201.384,-171.61 0,0 15.433,-12.7 19.146,-50.54 3.713,-37.85 -20.903,-51.36 -20.903,-51.36 z"
         fill="url(#a)"
         id="path1023"
         style="fill:url(#a)" /><path
         d="m 703.975,1508.42 c 0,0 18.961,-58.39 155.921,-131.57 87.677,-46.85 216.544,-32.91 216.544,-32.91 0,0 8.95,23.54 25.21,40.71 16.85,17.8 38.71,27.21 38.71,27.21 0,0 13.18,79.27 0.37,195.48 -11.76,106.58 -73.58,227.13 -73.58,227.13 0,0 -128.411,-43.53 -208.154,-98.9 -79.742,-55.36 -147.114,-134.63 -147.114,-134.63 0,0 11.284,-25.83 6.002,-52.43 -5.281,-26.6 -13.909,-40.09 -13.909,-40.09 z"
         fill="url(#b)"
         id="path1025"
         style="fill:url(#b)" /><path
         d="m 1027.33,1401.54 c -6.63,0.81 -16.77,94.79 -47.175,104.89 -41.768,13.88 -106.894,-51.97 -118.368,-20.23 -8.96,24.79 89.037,77.14 73.395,92.46 -50.258,49.22 -138.539,26.32 -138.539,26.32 0,0 195.156,174.43 255.817,166.35 60.67,-8.07 -5.45,-76.73 -19.14,-167.54 -13.7,-90.81 71.8,-211.83 -5.99,-202.25 z"
         fill="#ffffff"
         fill-opacity="0.689016"
         id="path1027" /><path
         d="m 1797.07,1607.67 c 0,0 -248.77,-529.45 -272.74,-512.04 -23.96,17.42 176.88,581.71 176.88,581.71 0,0 -602.33,-722.473 -628.07,-699.556 -25.74,22.916 525.11,791.226 525.11,791.226 l -523.67,-298.85 422.49,342.85 c 0,0 -1076.208,-82.03 -1077.509,-32.75 -1.301,49.28 1072.299,229.86 1072.299,229.86 0,0 -718.241,292.34 -709.053,324 9.187,31.65 745.803,-197.38 745.803,-197.38 0,0 -770.371,894.2 -738.996,940.74 31.376,46.55 864.506,-754.57 864.506,-754.57 0,0 -258.55,876.77 -228.13,889.59 30.43,12.83 349.82,-838.28 349.82,-838.28 0,0 95.62,1214.41 149.15,1172.57 53.54,-41.85 64.99,-1339.96 64.99,-1339.96 l 833.92,1034.6 -643.24,-1124.91 809.76,374.15 -752.94,-503.76 c 0,0 1085.68,-145.29 1085.02,-184.66 -0.66,-39.37 -1087.66,27.17 -1087.66,27.17 0,0 361.85,-317.31 349.64,-342.83 -12.21,-25.51 -398.47,240.77 -398.47,240.77 0,0 297.36,-643.39 328.96,-763.493 31.6,-120.1 -91.38,127.713 -202.55,283.093 -111.17,155.38 -242.13,338.43 -242.13,338.43 0,0 116.73,-473.34 91.04,-479.84 -25.7,-6.5 -193.83,453.84 -193.83,453.84 0,0 -62.03,-1000.891 -104.63,-988.821 -42.6,12.069 -65.77,1037.101 -65.77,1037.101 z"
         fill="#c2c7eb"
         fill-opacity="0.774775"
         id="path1029" /></g><g
       vectornator:layerName="Слой 4"
       id="g1075"><path
         d="m 2107.14,4148.99 c 0,0 2.85,43.82 -6.91,90.45 -7.47,35.7 -50.42,73.17 -52.81,157.97 -2.32,82.24 157.71,106.79 185.35,57.22 28.01,-50.24 28.98,-127.99 45.82,-160.62 19.92,-38.58 54.59,-85.05 54.59,-85.05 l -64.93,-80.22 z m 599.48,70.95 c 0,0 35.18,46.81 50.4,77.43 13.31,26.77 -8.56,79.9 36.69,151.65 43.89,69.59 190.47,0.83 185.8,-55.73 -4.72,-57.33 -48.16,-126.14 -54.45,-151.62 -6.42,-26.02 0.99,-108.34 0.99,-108.34 l -98.61,-30.45 z"
         fill="#2e306d"
         id="path1033" /><path
         d="m 2724.21,4210.94 c 0,0 2.85,26.09 22.36,40.34 24.3,17.76 47.64,23.62 87.25,13.82 39.61,-9.79 55.97,-28.8 71.69,-63.4 15.88,-34.91 10.5,-72.15 10.5,-72.15 l -59.29,7.33 -85.96,69.96 z m -610.15,-40.24 c 0,0 26.54,91.26 75.78,102.15 64.37,14.24 116.66,-41.76 116.66,-41.76 l -36.99,-47.05 z"
         fill="#cf66a6"
         id="path1035" /><path
         d="m 2219.56,3555.02 c 0,0 -23.91,91.6 -35.87,175.99 -11.95,84.39 -7.5,101.25 -24.39,161.41 -22.6,80.52 -67.47,229.24 -59.6,252.7 5.23,15.6 17.26,45.17 74.06,68.3 56.8,23.12 127.79,28.32 148.87,14.25 34.23,-22.85 117.62,-201.89 148.69,-238.04 30.36,-35.33 114.67,-30.87 133.62,-8.44 36.79,43.57 75.47,215.7 105.23,250.71 14.13,16.63 70.53,6.47 125.43,-21.45 54.9,-27.91 83.22,-55.05 91.61,-80.05 5.13,-15.25 -5.41,-76.76 -5.41,-76.76 l -24.31,-318.58 -1.24,-110.01 -467.22,66.16 -199.63,-160.1 z"
         fill="#2e306d"
         id="path1037" /><path
         d="m 2738.49,3885.4 c 3.93,10.23 -92.16,63.32 -99.28,92.81 -7.12,29.49 8.72,35.11 25.05,76.49 15.29,38.72 18.61,46.96 32.61,89.16 14,42.2 18.65,66.12 25.59,73.67 10.43,11.36 52.67,-3.33 95.66,-20.57 42.98,-17.25 77.95,-46.08 84,-63.37 8.69,-24.79 -14.06,-105.71 -14.06,-105.71 0,0 -102.53,49.53 -105.1,32.29 -1.17,-7.85 35,-25.29 56.64,-46.58 25.9,-25.49 38.17,-54.68 38.17,-54.68 l -1.03,-188.4 -4.12,-53.53 -127.65,125.6 -121.48,94.71 c 0,0 111.07,-62.12 115,-51.89 z m -495.74,-236.27 c -40.36,-19.33 -39.77,58.46 -40.19,74.31 -0.41,15.85 0.02,33.79 11.7,104.24 11.67,70.44 46.99,159.73 41.78,165.27 -5.21,5.53 -53.37,-102.83 -66.9,-116.01 -16.86,-16.43 -34.93,113.83 -34.93,113.83 0,0 -34.02,130.09 -33.05,147.7 0.98,17.61 25.1,37.1 61.87,51.61 42.13,16.63 97.98,31.32 126.6,17.35 26.87,-13.12 77.84,-117.27 109.18,-173.24 5.52,-9.85 39.53,-49.61 34.32,-58.9 -5.41,-9.64 -40.12,8.91 -66.43,16.66 -24.16,7.11 -56.84,3.77 -47.27,-4.56 14.99,-13.05 107.98,-43.01 100.57,-44.4 -15.65,-2.94 -137.09,-12.88 -137.09,-12.88 l -4.9,-71.41 c 0,0 9.83,-178.41 -55.26,-209.57 z"
         fill="#3a3c7a"
         id="path1039" /><path
         d="m 2923.91,3591.38 c -30.07,19.81 -30.81,38.5 -32.12,73.45 -1.18,31.64 2.33,63.21 2.33,63.21 l 3.88,41.45 c 0,0 2.72,63.42 7.13,116.58 4.4,53.17 3.23,23.23 6.43,57.76 3.19,34.54 -12.29,81.76 6.34,80.39 18.63,-1.37 61.71,-54.6 61.71,-54.6 0,0 12.99,-17.33 17.49,-34.97 4.5,-17.64 -25.91,-73.84 -25.91,-73.84 0,0 -15.48,-21.35 -4.63,-93.73 10.85,-72.38 48.03,-195.78 48.03,-195.78 0,0 -59.63,-33.16 -91.16,-21.27 -5.91,2.23 5.22,38.23 0.48,41.35 z"
         fill="#cf66a6"
         id="path1041" /><path
         d="m 2014.05,3161.61 c 53.09,106.43 147.52,169.77 175.48,217.15 32.15,54.49 17.71,155.47 45.7,203.57 16.04,27.56 51.93,73.28 105.56,119.24 44.97,38.54 110.98,71.71 134.7,79.59 23.72,7.88 56.31,19.37 135.4,16.84 80.85,-2.59 126.18,-19.36 175.8,-43.8 42.22,-20.8 67.28,-38.79 91.22,-71.59 23.94,-32.79 58.69,-107.52 58.69,-107.52 0,0 21.65,19.9 49.01,25.48 27.36,5.59 64.42,0.28 66.21,-21.41 4.1,-49.65 2.05,-153.26 -12.77,-247.13 -11.38,-72.12 -15.35,-127.34 -67.84,-185.41 -52.48,-58.07 -112.52,-53.19 -112.52,-53.19 l -144.33,96.37 -120.91,-50.28 -82.35,-104.95 c 0,0 -120.72,-42.98 -207.33,-171.4 -71.72,-106.34 -336.96,203.72 -289.72,298.44 z"
         fill="#404286"
         id="path1043" /><path
         d="m 2579.29,2021.35 c -8.93,16.19 -15.19,49.3 -6.52,85.1 8.21,33.92 25.57,58.25 16.32,57.46 -10.58,-0.9 -37.06,-1.58 -63.8,-11.22 -28.58,-10.29 -57.49,-29.42 -68.56,-24.82 -14.91,6.19 13.54,56.87 11.11,69.42 -1.89,9.75 -31.38,-6.08 -39.88,10.02 -5.23,9.92 35.29,63.98 35.29,63.98 l -66.02,38.83 c 0,0 -31.82,16.25 -30.85,26.9 0.74,8.09 16.83,6.18 37.08,6.26 18.37,0.06 34.67,-3.63 31.83,6.6 -5.97,21.51 -78.06,36.25 -86.18,57.75 -3.5,9.28 87.17,13.59 93.82,34.69 2.9,9.2 -49.3,26.86 -49.58,41.75 -0.27,14.89 57.63,33.76 57.63,33.76 l 63.78,67.6 109.39,-188.36 92.28,12.99 83.35,40.94 54.06,-23.08 143.22,34.26 2.21,66.97 -18.14,36.77 57.12,13.03 -44.4,93.55 29.56,24.3 -12.74,85.6 36.14,60.18 115.59,-97.11 c 0,0 24.63,-34.65 57.88,-96.14 35.71,-66.02 56.53,-108.24 62.94,-156.01 6.41,-47.78 -13.75,-120.02 -43.79,-169.92 -30.03,-49.91 -46.18,-67.59 -46.18,-67.59 0,0 52.09,-22.09 56.59,-49.83 3.34,-20.58 4.61,-28.83 -25.27,-60.75 -29.88,-31.91 -77.97,-45.06 -77.97,-45.06 0,0 26.47,43.11 33.11,78.35 6.63,35.23 -9.61,57.13 -9.61,57.13 0,0 -15.1,-17.19 -50.19,-36.76 -35.1,-19.57 -49.12,-25.5 -97.46,-35.23 -48.35,-9.73 -65.43,-11.09 -105.63,-19.2 -37.13,-7.49 -81.87,-30.55 -103.96,-66.52 -22.95,-37.36 -25.97,-76.5 -39.91,-74.32 -12.93,2.02 -24.67,42.45 -31.43,77.62 -6.77,35.18 5.03,65.55 -1.58,66.35 -14.62,1.75 -36.74,-23.53 -80.78,-60.44 -44.04,-36.92 -70.94,-81.98 -79.87,-65.8 z"
         fill="#2a3276"
         id="path1045" /><path
         d="m 2595.6,2060.96 c -11.11,-5.24 -4.33,48.78 3.5,71.34 6.53,18.83 23.49,41.32 21.53,46.22 -3.32,8.33 -41.86,18.9 -91.71,-2.69 -24.66,-10.68 -41.76,-24.26 -53.6,-30.06 -7.58,-3.71 1.49,25.88 11.85,40.42 11.75,16.48 30.51,25.35 28.28,29.37 -6.41,11.54 -55.19,-2.89 -53.01,12.4 2.14,14.96 56.83,80.2 58.14,103.02 1.31,22.82 -32.49,-32.49 -45.31,-32.06 -11.24,0.37 -69.84,23.15 -72.54,30.38 -2.7,7.24 39.98,-0.02 49.45,12.37 9.48,12.39 -37.19,41.46 -16.24,39.32 6.98,-0.71 37.12,-29.9 96.16,-42.25 50.7,-10.6 91.19,8.43 108.51,4.24 17.32,-4.18 30.94,-14.21 57.49,-8.44 26.55,5.78 59.3,57.01 58,33.12 -1.31,-23.89 -64.21,-96.21 -39.46,-86.81 26.53,10.07 81.82,79.84 145.17,93.47 26.6,5.72 90.73,31.03 100.21,19.88 8.67,-10.2 -28.47,-45.62 -5,-44.27 10.27,0.59 51.02,35.47 84.72,46.45 35.97,11.73 45.39,3.01 66.7,6.13 21.32,3.13 0,24.4 -7.47,36.08 -7.46,11.68 -41.19,54.43 -50,80.43 -4.95,14.63 25.65,21.99 27.27,35.68 3.63,30.61 8.82,43.07 -0.52,84.58 -1.84,8.17 14.69,5.75 30.1,12.97 9.4,4.41 -39.96,95.99 -39.96,95.99 0,0 39.6,7.36 67.31,-17.81 27.72,-25.17 19.84,-19.65 41.29,-51.57 21.44,-31.93 27.01,-38.41 44.41,-71.01 17.39,-32.59 28.29,-55.86 38.76,-99.4 10.46,-43.53 3.9,-71.09 -5.15,-105.09 -6.35,-23.88 -32.57,-80.52 -69.56,-124.57 -39.6,-47.15 -68.07,-60.53 -106.98,-78.07 -42.38,-19.1 -145.99,-17.48 -211.88,-51.83 -65.89,-34.35 -82.02,-75.77 -88.14,-100.3 -4.82,-19.29 -20.18,40.02 -19.5,69.42 0.69,29.39 21.44,54.71 14.75,56.54 -18.7,5.1 -51.43,-11.91 -89.81,-37.17 -38.39,-25.26 -76.64,-71.19 -87.76,-76.42 z"
         fill="#464cac"
         id="path1047" /><path
         d="m 2505.27,2568.8 c 0,0 -15.6,-41.4 -49.39,-51.42 -26.75,-7.94 -50.32,-0.54 -65.66,21.38 -12.83,18.32 -16.21,32.74 -20.47,56.19 -4.25,23.45 9.78,79.41 9.78,79.41 0,0 19.71,68.85 52.62,117.67 28.77,42.67 43.64,47.31 43.64,47.31 0,0 12.7,181.67 60.19,267.14 47.5,85.47 116,85.78 116,85.78 0,0 57.42,15.87 114.94,-10.67 57.53,-26.53 45.39,-25.99 78.79,-58.63 33.39,-32.63 22.11,-40.04 37.57,-58.09 15.25,-17.77 13.64,0.2 21.3,-9.05 11.89,-14.38 39.83,-40.4 61.69,-70.76 15.11,-20.99 31.01,-64.29 45.58,-46.53 13.51,16.46 60.71,-21.78 88.88,-41.57 28.17,-19.78 50.55,-46.2 62.12,-71.11 8.85,-19.07 14.54,-34.14 14.42,-55.38 -0.13,-21.25 -4.88,-33.3 -15.42,-45.97 -10.54,-12.67 -23.67,-20.04 -44.11,-13.52 -20.44,6.52 -30.42,26.14 -39.33,46.12 -8.91,19.97 -10.46,36.62 -17.82,53.39 -15.01,34.19 -0.43,-53.13 -8.27,-53.71 -9.92,-0.74 -17.28,12.34 -17.28,12.34 0,0 1.38,-19.92 10.1,-40.42 8.73,-20.5 37.49,-50.92 35.87,-59.25 -1.62,-8.32 -19.9,4.62 -38.27,1.47 -18.37,-3.15 -36.05,-4.41 -34.62,-9.77 1.44,-5.37 18.22,-9.2 26.81,-38.12 8.59,-28.92 10.37,-50.48 4.98,-69.56 -2.3,-8.12 -55.42,0.56 -36.53,-20.18 22.44,-24.64 68.32,-84.44 64.81,-102.47 -2.96,-15.28 -68.31,2.69 -116.44,0.8 -48.13,-1.89 -49.17,-5.28 -74.59,-10.55 -25.42,-5.27 -34.91,-15.67 -42.44,-16.46 -10.99,-1.14 6.79,21.68 -14.02,23.33 -11.03,0.87 -28.28,-4.1 -43.55,-9.62 -25.46,-9.21 -30.97,-22.51 -56.67,-29.16 -28.92,-7.48 -46.78,-2.25 -76.64,-5.17 -29.85,-2.92 -36.89,-11.12 -44.55,-2.29 -37.87,43.6 -94.02,187.1 -94.02,187.1 z"
         fill="#cf66a6"
         id="path1049" /><path
         d="m 2599.68,2380.04 c -22.18,25.68 -80.18,114.41 -111.36,232.57 -31.18,118.16 -30.1,188.92 -21.07,282.25 10.31,106.58 70.07,165.26 70.07,165.26 0,0 53.65,72.03 140.68,75.6 91.82,3.76 169.7,-9.03 220.88,-71.91 79.03,-97.09 125.29,-305.48 123.84,-353.35 -0.46,-15.35 -65.11,-31.96 -62.56,-45.39 2.74,-14.45 18.97,-17.57 32.67,-35.24 14.47,-18.68 18.03,-34.66 12.32,-47.89 -3.89,-8.98 -47.24,-11.73 -42.47,-28.83 14.1,-50.54 56.27,-79.64 53.89,-90.2 -1.24,-5.55 -25.1,-0.03 -57.75,-4.83 -32.65,-4.8 -51.41,-14.51 -89.84,-17.33 -38.43,-2.83 -25.85,17.58 -73.24,11.74 -47.4,-5.83 -51.01,-18.22 -87.63,-30.43 -36.62,-12.21 -35.8,-9.33 -58.86,-18.42 -23.07,-9.09 -40.7,-33.87 -49.57,-23.6 z"
         fill="#fe9edb"
         id="path1051" /><path
         d="m 1857.82,1456.93 c 0,0 -151.91,-350.59 -175.72,-338.34 -23.81,12.25 33.8,387.63 33.8,387.63 0,0 -338.03,-436.88 -427.79,-547.664 -89.76,-110.78 277.62,639.494 277.62,639.494 0,0 -239.87,-139.38 -336.29,-207.86 -96.41,-68.47 51.89,53.87 51.89,53.87 l 1.65,1.71 169.02,257.99 c 0,0 -845.966,-167.26 -853.146,-124.24 -7.18,43.01 812.836,325.72 812.836,325.72 0,0 -556.011,176.41 -551.552,205.31 4.46,28.89 527.372,25.74 527.372,25.74 0,0 -480.382,484.4 -611.759,626.5 -131.378,142.1 785.749,-443.43 785.749,-443.43 0,0 -252.23,626.74 -226.25,641.8 25.97,15.07 425.24,-487.78 425.24,-487.78 0,0 -67.92,873.42 -14.38,843.48 53.55,-29.93 247.71,-857.51 247.71,-857.51 l 310.09,136 -49.84,-352.16 c 0,0 891.62,375.87 908.42,349.27 16.81,-26.61 -846.64,-564.04 -846.64,-564.04 0,0 903.36,-29.84 907.56,-64.42 4.2,-34.59 -887.71,-123.98 -887.71,-123.98 0,0 304.1,-237.23 296.16,-261.13 -7.94,-23.89 -347.45,110.31 -347.45,110.31 0,0 410.27,-518.54 388.41,-553.28 -21.86,-34.74 -472.14,390.89 -472.14,390.89 0,0 79.15,-310.47 56.69,-319.4 -22.47,-8.92 -183.76,246.23 -183.76,246.23 0,0 32.52,-808.129 -7.51,-802.913 -40.03,5.217 -208.28,806.203 -208.28,806.203 z"
         fill="#ffffff"
         fill-opacity="0.902257"
         id="path1053" /><path
         d="m 1709.36,1764.87 4.59,-12.2 57.81,-159.7 139.94,139.86 213.85,-131.6 9.59,-6.6 -10.34,19.56 -27.42,125.4 c 0,0 22.1,82.01 36.04,147.89 16.43,77.66 22.2,148.65 22.2,148.65 0,0 -20.23,66.52 -55.7,109.69 -35.46,43.17 -96.67,60.96 -96.67,60.96 l -43.63,58.58 -39.4,30.03 -43.1,-30.23 -63.47,-5.13 c 0,0 -176.79,-44.09 -229.12,-166.16 -11.82,-27.56 -22.79,-73.7 -25.09,-126.97 -1.09,-25.15 39.62,-78.56 39.62,-78.56 l -151.22,-180.09 155.95,36.7 z"
         fill="url(#c)"
         id="path1055"
         style="fill:url(#c)" /><path
         d="m 1488.7,1731.72 131.39,149.51 -21.93,148.34 c 0,0 37.41,83.73 117.41,128.94 80,45.21 169.85,59.62 169.85,59.62 0,0 85.33,-51.12 132.59,-100.76 43.74,-45.95 54.16,-72.07 63.88,-115.19 9.51,-42.2 -51.14,-176.68 -52.67,-189.08 -1.99,-16.08 63.32,-172.87 63.32,-172.87 l -188.89,118.06 -112.15,-92.68 c 0,0 -68.92,121.57 -71.42,122.78 -11.9,5.78 -231.38,-56.67 -231.38,-56.67 z"
         fill="url(#d)"
         id="path1057"
         style="fill:url(#d)" /><path
         d="m 1803.77,1715.45 c -7.8,1.41 -62.59,97.85 -72.42,101.46 -9.83,3.6 -149.76,-44.96 -153.65,-39.14 -4.3,6.43 27.82,27.97 51.94,57.28 8.72,10.58 16.39,22.18 20.92,34.45 11.39,30.78 -11.53,96.96 11.96,162.97 23.49,66.01 43.65,81.31 68.38,94.1 61.17,31.64 86.97,22.1 120.43,33.45 33.46,11.34 30.6,14.59 30.6,14.59 l 6.43,0.65 c 0,0 -0.53,-11.75 21.47,-29.27 22.01,-17.52 70.5,-45.14 70.5,-45.14 0,0 65.45,-42.21 65.58,-132.25 0.08,-48.11 -40.73,-107.72 -43.24,-152.16 -2.51,-44.44 37.25,-111.36 30.71,-109.26 -12.73,4.08 -117.75,86.83 -130.25,86.3 -16.75,-0.71 -91.56,-79.44 -99.36,-78.03 z"
         fill="url(#e)"
         id="path1059"
         style="fill:url(#e)" /><path
         d="m 1603.64,1884.92 c -20.04,4.91 -37.55,25.94 -62.87,65.98 -25.33,40.04 -23.68,85.84 -23.68,85.84 0,0 -80.92,22.88 -100.2,75.71 -19.29,52.83 -3.09,127.85 -3.09,127.85 0,0 16.86,75.64 51.69,118.99 34.83,43.35 82.85,28.29 82.85,28.29 0,0 27.12,19.21 39.77,47.35 12.65,28.14 16.87,45.52 42,80.95 25.13,35.44 80.56,76.79 80.56,76.79 0,0 64.8,42.82 69.92,50.16 6.58,9.45 39.64,118.81 82.92,209.94 31.69,66.73 77.91,123.87 77.91,123.87 l 13.38,57.12 c 0,0 9.12,58.98 39.3,106.37 30.18,47.39 36.66,61.92 80.44,79.95 20.35,8.37 57.11,6.79 92.86,-3.67 41.27,-12.07 82.07,-31.58 135.37,-84.08 56.76,-55.89 69.65,-96.15 61.97,-137.24 -3.34,-17.87 -16.41,-66.16 -40.21,-108.22 -23.61,-41.73 -57.97,-77.3 -57.97,-77.3 0,0 -26.21,-78.31 -48.5,-130.35 -22.3,-52.03 -34.61,-56.66 -40.67,-77.79 -10.21,-35.54 -39.87,-135.09 -42.49,-180.03 -0.66,-11.15 39.2,-46.86 48.78,-153.16 9.57,-106.3 -9.43,-217.08 -31.67,-293.84 -17.73,-61.17 -5.98,-64.73 -16.83,-150.55 -10.85,-85.81 -10.08,-211.22 -10.08,-211.22 0,0 -81.77,182.09 -76.34,202.58 3.84,14.45 33.59,84.24 33.59,84.24 0,0 27.53,66.81 18.64,110.09 -17.32,84.36 -68.5,125.45 -122.91,166.73 -20.33,15.43 -28.36,32.81 -28.36,32.81 l -10.44,-8.81 c 0,0 -50.6,-39.32 -90.51,-25.79 -32.92,11.16 -44.89,57.51 -44.89,57.51 l -8.26,33.71 -89.6,-10.29 -6.94,-75.78 -4.09,-51.23 c 0,0 4.96,-115.93 -15.6,-181.44 -20.56,-65.51 -52.23,-67.8 -75.75,-62.04 z"
         fill="#cf66a6"
         id="path1061" /><path
         d="m 1769.88,1571.37 c -3.6,33.57 7.62,71.77 7.62,71.77 0,0 19.39,44.24 48.33,61.43 28.93,17.19 51.08,11.44 51.08,11.44 l 28.95,24.56 219.03,-138.84 c 0,0 -45.47,-74.61 -87.38,-106.75 -41.92,-32.16 -79.36,-41.98 -105.97,-41.34 -46.96,1.12 -65.12,5.07 -99.26,21.2 -30.13,14.23 -58.8,62.97 -62.4,96.53 z"
         fill="#cf66a6"
         id="path1063" /><path
         d="m 1606.92,1745.67 c 0,0 34.08,-42.19 75.13,-81.1 41.04,-38.91 89.04,-74.53 89.04,-74.53 l 20.83,49.98 c 0,0 -72.98,126.02 -77.27,128.94 -4.28,2.92 -107.73,-23.29 -107.73,-23.29 z"
         fill="#cf66a6"
         id="path1065" /><path
         d="m 2354.57,3102.96 c -39.57,52.92 -50.5,60.85 -93.23,90.2 -32.79,22.52 -64.57,36.7 -90.21,41.44 -24.57,4.54 -59,11.59 -71.81,13.12 -8.62,1.03 55.59,62.39 66.79,76.45 3.15,3.95 43.59,-1.55 81.08,-20.38 10.09,-5.07 20.46,-11 30.68,-17.23 43.32,-26.45 83.76,-58.33 87.63,-52.67 4.78,7 -150.61,117.94 -145.71,125.82 57.54,92.61 134.59,265.97 134.59,265.97 0,0 28.05,94.13 115.05,128.63 87.01,34.51 158.14,31.37 242.96,8.74 84.83,-22.63 117.12,-69.41 138.37,-90.17 33.31,-32.54 55.24,-79.75 67.23,-111.05 10.86,-28.32 -17.74,-40.82 -17.74,-40.82 l 61.18,-179.69 c 0,0 -2.15,64.88 -9.85,120.69 -5.6,40.6 -18.66,73.51 -13.86,87.3 8.86,25.52 32.83,31.81 53.94,35.27 21.03,3.46 38.95,1.63 44.08,-6.22 7.3,-11.17 3.53,-48.27 2.2,-88.41 -1.33,-40.14 -4.6,-64.71 -10.34,-117.24 -5.74,-52.53 -8.24,-67.55 -17.26,-111.47 -9.02,-43.9 -17.72,-61.92 -48.77,-96.41 -31.04,-34.49 -60.43,-43.68 -75.41,-41.55 -52.94,7.53 -56.56,54.38 -121.44,71.83 -52.28,14.07 -67.92,17.04 -104.37,13.14 -12.62,-1.35 -55.86,-13.5 -72.87,-20.33 -66.16,-26.56 -64.05,-32.35 -118.13,-79.67 -54.08,-47.32 -80.43,-94.34 -80.43,-94.34 0,0 -2.41,46.32 -34.35,89.05 z"
         fill="#4c4f9e"
         id="path1067" /><path
         d="m 2109.55,4277.87 c 0,0 -31.6,58.39 -31.13,82.7 0.48,24.3 20.48,53.36 53.46,65.21 32.98,11.85 54.6,4.02 82.33,-21.45 27.72,-25.48 28.57,-80.45 28.57,-80.45 0,0 -27.91,-20.1 -61.22,-31.6 -33.3,-11.51 -72.01,-14.41 -72.01,-14.41 z m 674.91,37.74 c 0,0 38.38,-18.05 68.19,-27.29 29.81,-9.24 62.76,-8.37 62.76,-8.37 0,0 31.09,55.35 28.66,80.61 -2.48,25.72 -13.2,42.4 -43.54,59.16 -30.33,16.77 -96.58,-0.04 -103.22,-27.71 -6.64,-27.68 -12.85,-76.4 -12.85,-76.4 z"
         fill="#3a3c7a"
         id="path1069" /><path
         d="m 2109.08,4291.4 -12.02,31.13 c 0,0 31.91,1.21 65.11,11.43 33.19,10.22 67.65,29.47 67.65,29.47 l 7.96,-30.02 c 0,0 -32.12,-16.76 -64.29,-27.26 -32.17,-10.51 -64.41,-14.75 -64.41,-14.75 z m 678.38,42.43 4.75,33.82 c 0,0 32.22,-18.49 65.54,-28.31 33.31,-9.82 79.02,-13.39 79.02,-13.39 l -11.27,-26.89 c 0,0 -41.07,1.82 -73.68,10.84 -32.62,9.03 -64.36,23.93 -64.36,23.93 z"
         fill="#4a4d98"
         id="path1071" /><path
         d="m 1476.44,3762.33 c -50.67,237.07 -142.83,569.76 -59.28,606.49 83.55,36.73 107.33,-299.43 148.21,-583.69 42.83,-297.87 95.93,-783.26 95.93,-783.26 0,0 -130.34,505.42 -184.86,760.46 z M 841.108,3424.29 c -141.438,197.98 -296.544,422.49 -249.053,454.79 54.142,36.81 189.911,-204.83 331.348,-402.82 141.437,-197.98 407.147,-688.68 407.147,-688.68 0,0 -348.005,438.72 -489.442,636.71 z M 801.209,1208.33 C 620.579,1117.32 536.33,1072.96 519.628,1112 c -16.702,39.04 265.834,182.94 265.834,182.94 l 456.688,181.1 c 0,0 -260.31,-176.7 -440.941,-267.71 z M 1345.71,503.121 c 20.56,97.104 250.62,570.819 250.62,570.819 0,0 -46.34,-242.15 -108.99,-384.854 -62.66,-142.705 -162.2,-283.07 -141.63,-185.965 z"
         fill="#ffffff"
         fill-opacity="0.733299"
         id="path1073" /></g><g
       vectornator:layerName="Слой 3"
       id="g1085"><path
         d="m 3096.14,2750.76 c -5.59,11.99 27.63,5.15 27.3,25 -0.17,9.83 -7.87,39.36 -20.88,48.4 -13.24,9.2 -12.71,-10.39 -32.74,2.01 -16.83,10.41 -42.72,64.56 -35.54,76.82 7.17,12.26 33.48,0.24 64.25,-27.78 30.76,-28.02 36.51,-32.85 48.1,-53.2 11.59,-20.35 16.9,-42.77 17.56,-50.9 1.31,-16.27 -4.1,-40.06 -23.22,-44.76 -18.5,-4.55 -39.91,13.84 -44.83,24.41 z m -644.63,-213.37 c 12.02,2.87 36.23,24.25 34.98,36.27 -1.26,12.01 -25.93,-1.57 -40.32,9.31 -14.39,10.89 -17.78,36.12 -18.43,51.21 -0.58,13.25 34.6,0.28 36.46,28.09 1.85,27.8 -9,87.05 -23.44,88.01 -14.43,0.97 -25.83,-48.36 -36.43,-81.18 -10.59,-32.83 -16.04,-47.33 -12.69,-74.5 3.35,-27.16 14.26,-38.46 22.83,-46.7 8.57,-8.23 25.01,-13.38 37.04,-10.51 z m -600.1,-328.36 c -17.48,17.73 -16.36,65.73 -10.68,92.62 14.06,66.59 72.6,193.85 72.6,193.85 0,0 22.52,61.59 2.38,33.03 -20.15,-28.56 -51.23,-74.96 -82.96,-147.25 -14.41,-32.82 -25.09,-66.05 -27.17,-97.43 -2.49,-37.75 5.29,-70.84 5.29,-70.84 0,0 -19.45,-7.06 -47.22,-17.61 -27.77,-10.56 -65.93,-30.91 -65.93,-30.91 0,0 -3.09,54.96 -28.16,76.87 -23.48,20.51 -62.26,10.5 -62.26,10.5 0,0 13.76,35.27 4.39,66.54 -9.38,31.26 -41.89,58.52 -41.89,58.52 0,0 41.42,45.08 47.79,63.5 6.8,19.68 19.07,52.3 52.31,80.33 55.36,46.68 78.88,62.47 162.37,90.1 83.48,27.63 175.92,-4.74 171.89,7.73 -6.46,20.03 -159.83,17.03 -167.68,49.41 -5.35,22.05 3.66,87.48 45.51,166.62 36.42,68.88 48.58,88.32 86.15,119.45 23.81,19.72 73.66,52.67 135.04,28.08 61.37,-24.59 124.66,-92.65 126.79,-142.15 1.08,-25.14 -2.35,-63.48 -18.09,-106.29 -19.76,-53.73 -57.92,-116.84 -57.92,-116.84 -28.01,-105.79 -47.3,-200.9 -47.3,-200.9 0,0 31.87,-41.8 46.73,-121.64 13.22,-71.06 5.48,-120.88 -4.26,-200.39 -9.75,-79.51 -30.5,-125.05 -30.5,-125.05 0,0 1.82,46.27 -8.36,76.51 -9.18,27.22 -10.07,37.06 -43.64,76.52 -33.57,39.45 -29.72,32.82 -60.5,58.79 -26.12,22.05 -40.41,38.88 -40.41,38.88 0,0 7.86,12.19 26.36,46.12 18.5,33.93 23.79,45.31 35.03,80.66 11.25,35.36 21.96,81.18 21.96,81.18 0,0 -32.68,-52.04 -60.36,-101.44 -23.83,-42.51 -42.36,-78.52 -73.03,-102.63 -30.67,-24.12 -46.8,-32.18 -64.27,-14.44 z"
         fill="#fe9edb"
         id="path1077" /><path
         d="m 1515.92,2096.57 c 13.11,25.18 8.47,41.13 19.36,70.34 12.25,32.87 14.73,32.49 29.08,56.59 14.35,24.09 26.57,49.06 28.45,62.41 3.72,26.44 -10.78,52.71 -32.03,69.4 -21.25,16.68 -45.89,13.65 -66.04,-5.63 -18.98,-18.16 -30.18,-36.55 -45.38,-86.01 -15.2,-49.45 -18.98,-70.16 -12.64,-114.86 6.34,-44.71 27.74,-56.57 40.92,-64.08 13.19,-7.5 30.84,-2.45 38.28,11.84 z m 97.98,-192.07 c 22.95,3.48 27.53,2.41 39.57,51.04 12.05,48.62 10.72,97.6 14.33,158.42 3.61,60.82 4.25,56.22 -3.14,84.24 -7.38,28.01 -24.23,39.9 -49.68,25.11 -25.51,-14.83 -45.45,-36.32 -57.07,-68.91 -11.21,-31.45 -14.27,-67.71 -13.34,-107.79 0.94,-40.08 13.64,-83.45 24.93,-100.94 11.29,-17.49 29.62,-43.42 44.4,-41.17 z m 137.48,-235.81 c 5.44,12.63 -37.52,69.57 -34.8,65.81 2.71,-3.75 -22.65,31.83 -22.65,31.83 l -55.87,-13.58 c 0,0 29.98,-42.72 47.86,-61.64 17.88,-18.92 56.29,-43.75 65.46,-22.42 z m 50.9,-90.01 c -8.45,37.2 9.03,66.47 28.62,85.15 19.58,18.68 47.84,14.35 65.81,2.14 33.99,-23.09 38.19,-31.81 63.92,-68.66 20.34,-29.14 46.33,-26.73 50.06,-16.24 5.27,14.85 -24.36,53.9 -25.06,75.09 -0.7,21.18 19.47,21.17 19.47,21.17 l 91.15,-57.39 c 0,0 -11.01,-31.4 -38.14,-61.5 -27.13,-30.09 -46.23,-48.92 -79.12,-61.68 -32.9,-12.76 -49.06,-15.35 -79.65,-11.31 -25.71,3.39 -54,13.88 -68.88,30.9 -17.46,19.96 -19.74,25.13 -28.18,62.33 z"
         fill="#fe9edb"
         id="path1079" /><path
         d="m 3177.33,2127.13 c 0,0 22.15,29.47 22.31,56.42 0.15,26.95 -21.47,60.36 -21.47,60.36 0,0 19.79,-7.92 25.85,-11.48 13.06,-7.68 24.38,-18.01 28.35,-31.58 3.27,-11.2 0.45,-22.97 -13.31,-41.4 -13.76,-18.42 -41.73,-32.32 -41.73,-32.32 z"
         fill="#464cac"
         id="path1081" /><path
         d="m 2272.69,3339.17 c 21.5,-26.7 119.48,-111.97 164.87,-128.53 33.75,-12.31 35.04,16.95 116.98,29.33 81.95,12.38 141.76,21.29 231.28,-0.66 89.52,-21.94 67.38,-70.03 99.39,-86.06 33.15,-16.6 83.13,16.01 80.5,86.75 -2.63,70.74 -26.27,106.36 -82.18,181.67 -55.91,75.32 -127.07,111.67 -128.07,142.09 -1,30.43 35.71,16.9 72.18,4.73 42.9,-14.31 80.66,-53.28 80.5,-23.39 -0.16,29.89 -54.18,77.98 -106.37,111.09 -52.19,33.11 -202.87,147.57 -326.87,100.79 -124,-46.78 -211.95,-166.72 -227.14,-200.73 -9.72,-21.77 -26.17,-96.48 -7.69,-73.72 24.4,30.07 109.59,121.11 118.47,108.03 8.87,-13.09 -53.88,-135.87 -53.88,-135.87 l -34.44,-54.25 c 0,0 -24.63,-27.62 2.47,-61.27 z"
         fill="#6064bd"
         id="path1083" /></g><g
       vectornator:layerName="Слой 2"
       id="g1139"><path
         d="m 1864.36,2250.35 c -7.18,1.45 -11.11,15.19 -11.11,15.19 0,0 6.57,63.25 39.54,119.43 32.97,56.19 92.32,105.31 92.32,105.31 0,0 -17.73,-28.3 -36.91,-69.45 -19.18,-41.14 -19.77,-40.18 -34.06,-73.66 -14.29,-33.49 -16.62,-55.02 -27.62,-73.86 -11.01,-18.83 -14.97,-24.42 -22.16,-22.96 z m -9.35,-605.21 c -17.96,4.22 -18.95,-64.64 -9.32,-83.28 9.93,-19.24 26.98,-40.29 55.32,-46 28.33,-5.71 64.64,5.11 69.15,5.11 4.51,0 -42.54,8.87 -69.45,41.49 -26.91,32.62 -21.35,76.97 -45.7,82.68 z m -273.82,355.32 c -6.35,23.72 -15.39,55.82 -7.12,95.08 8.27,39.25 21.55,59.7 34.24,66.99 12.69,7.29 16.75,-18.4 16.53,-37.83 -0.23,-19.42 -13.35,-26.95 -18.74,-52.72 -5.4,-25.77 0.2,-49.53 -6.17,-67.58 -6.37,-18.05 -12.38,-27.66 -18.74,-3.94 z m -104.73,116.01 c -14.05,3.57 -24.61,86.77 -7.57,139.51 17.03,52.75 63.46,83.57 75.71,71.48 12.24,-12.09 -30.45,-65.15 -44.66,-100.19 -14.21,-35.03 -3.46,-115.89 -23.48,-110.8 z"
         fill="#ffbae4"
         id="path1087" /><path
         d="m 2818.91,2154.05 c 0,0 59.77,72.64 95.78,95.37 53.67,33.89 92.38,41.47 119.75,50.55 27.36,9.07 48.74,-19.08 23.53,-34.35 -25.2,-15.26 -73.65,-19.9 -130.7,-46.96 -57.05,-27.06 -108.36,-64.61 -108.36,-64.61 z m -203.44,-46.98 c 0,0 64.29,64.68 122.46,108.13 25.84,19.29 54.75,36.2 80.11,50 31.74,17.29 57.92,29.72 65.53,35.94 10.52,8.6 31.94,38.66 -7.4,26.33 -39.35,-12.32 -81.38,-30.38 -135.35,-67.27 -28.83,-19.7 -50.43,-39.19 -81.77,-77.47 -31.34,-38.28 -43.58,-75.66 -43.58,-75.66 z"
         fill="#5c62c4"
         id="path1089" /><path
         d="m 2450.52,2568.32 c -7.49,11.22 -22.33,5.98 -30.09,33 -7.76,27.01 -2.59,77.96 -2.59,77.96 0,0 -22.08,-62.92 -15.53,-84.44 6.55,-21.51 13.09,-34.86 27.18,-43.67 5.17,-3.23 15.53,-6.63 20.38,-1.62 4.85,5.02 4.53,12.94 0.65,18.77 z m 147.3,-102.68 c 0,0 -47.6,149.88 -53.56,274.48 -5.95,124.59 29.76,223.9 29.76,223.9 l 23.06,98.19 c 0,0 -89.43,-129.62 -96.7,-233.57 -5.21,-74.39 -9.49,-103.58 8.92,-180.76 18.41,-77.17 27.9,-79.22 49.84,-126.45 21.95,-47.24 38.68,-55.79 38.68,-55.79 z m 535.07,272.93 c -14.03,3.25 6.62,51.71 -5.25,71.94 -11.87,20.23 -39.98,52 -39.98,52 0,0 20.45,-11.87 40.68,-33.81 14.51,-15.73 25.27,-33.09 26.45,-51.11 1.13,-17.38 -7.88,-42.28 -21.9,-39.02 z M 1643.21,2421.14 c 0,0 78.53,69.12 148.53,106.84 70.01,37.72 117.11,30.13 129.76,49.49 12.66,19.36 -70.74,35.45 -140.34,1.49 -69.59,-33.95 -137.95,-157.82 -137.95,-157.82 z"
         fill="#ffbae4"
         id="path1091" /><path
         d="m 2452.27,3270.36 c -27.94,-45.81 -56.41,37.79 -56.41,37.79 0,0 -82.8,0.25 -74.5,43.29 8.31,43.04 81.78,167.2 149.38,215.07 43.01,30.46 75.49,43.39 123.6,54.44 49.04,11.26 194.06,-0.41 137.65,-17.35 -49.07,-14.74 -133.63,-26.4 -200.82,-113.62 -67.19,-87.22 -50.96,-173.81 -78.9,-219.62 z"
         fill="#8083ea"
         id="path1093" /><path
         d="m 2249.31,3655.5 c -19.12,11.16 13.63,263.13 13.63,263.13 0,0 9.51,60.3 51.15,71.23 16.5,4.34 36.89,4.61 65.5,-7.07 14.62,-5.98 31.36,-27.01 50.88,-27.54 4.92,-0.14 10.51,-0.28 16.65,-0.44 53.04,-1.44 146.98,-4.73 196.6,-21.83 103.65,-35.71 176.17,-127.55 206.6,-172.4 10.53,-15.51 32.2,-52.33 18.9,-42.28 -41.12,31.06 -101.83,91.51 -216.18,101.97 -91.11,8.32 -176.06,-5.62 -236.96,-35.58 -60.91,-29.95 -158.67,-133.91 -166.77,-129.19 z"
         fill="#4a4d98"
         id="path1095" /><path
         d="m 2368.59,3903.46 c 31.58,-11.21 82.5,3.41 164.84,-9.58 82.33,-12.99 76.98,-11.91 131.18,-30.11 58.92,-19.8 115.13,-43.89 117.85,-46.78 2.72,-2.89 -113.05,79.06 -204.5,107.42 -91.45,28.36 -175.45,11.59 -175.45,11.59 0,0 -65.51,-21.32 -33.92,-32.54 z"
         fill="#686bbe"
         id="path1097" /><path
         d="m 391.284,2346.77 2.053,105.34 c 0,0 37.691,22.06 51.007,53.73 13.317,31.67 12.024,63.73 12.024,63.73 0,0 215.331,88.7 254.075,86.63 42.017,-2.25 87.749,-47.87 117.528,-125.82 29.542,-77.32 42.491,-143.46 23.071,-176.88 -13.869,-23.87 -261.049,-117.67 -261.049,-117.67 0,0 -26.706,23.11 -50.343,33.77 -23.638,10.65 -73.777,-1.43 -73.777,-1.43 z"
         fill="url(#f)"
         id="path1099"
         style="fill:url(#f)" /><path
         d="m 421.121,2443.49 c 0,0 29.265,14.03 44.94,38.33 15.675,24.3 17.201,61.05 17.201,61.05 l 208.167,77.17 c 0,0 24.286,4.03 46.444,-13.07 29.863,-23.05 47.945,-66.09 62.095,-106.22 14.879,-42.19 31.232,-103.35 19.554,-121.54 -3.095,-4.83 -17.566,-22.58 -35.051,-31.65 -64.243,-33.33 -195.824,-75.53 -195.824,-75.53 0,0 -18.531,21.35 -49.083,29.59 -27.293,7.37 -62.794,-2.35 -62.794,-2.35 l -55.362,62.24 z"
         fill="url(#g)"
         id="path1101"
         style="fill:url(#g)" /><path
         d="m 2773.75,1167.88 103.7,53 c 0,0 -34.62,164.66 -36.22,252.52 -2.34,128.57 178.29,280.43 178.29,280.43 0,0 200.53,-55.82 270.51,-187.26 41.53,-77.99 80.35,-222.9 80.35,-222.9 l 116.63,5.44 -319,-254.31 z"
         fill="url(#h)"
         id="path1103"
         style="fill:url(#h)" /><path
         d="m 2879.77,1187.21 277.54,-48.16 241.94,176.93 -68.02,-16.44 c 0,0 -8.35,80.97 -34.46,153.24 -26.11,72.27 -69.97,135.83 -69.97,135.83 0,0 -35.73,42.88 -85.16,68.96 -49.42,26.07 -112.54,35.33 -112.54,35.33 0,0 -34.25,-21.28 -62.78,-54.15 -28.54,-32.87 -51.37,-77.33 -51.37,-77.33 0,0 -26.45,-85.58 -22.23,-174.19 3.72,-78.08 41.05,-180.14 41.05,-180.14 z"
         fill="url(#i)"
         id="path1105"
         style="fill:url(#i)" /><path
         d="m 3863.34,2324.09 -614.08,-485.3"
         fill="url(#j)"
         id="path1107"
         style="fill:url(#j)" /><path
         d="m 3587.19,1820.69 c -13.14,34.53 -5.11,130.84 28.18,198.11 38.85,78.52 57.94,103.09 57.94,103.09 0,0 26.84,4.98 105.79,-3.8 78.96,-8.79 132.53,-11.47 186.59,-66.4 36.03,-36.61 52.58,-58.42 71.66,-88.6 9.11,-14.41 18.8,-30.73 31.47,-51.48 39.19,-64.18 45.87,-86.36 51.11,-117.77 6.29,-37.71 -39.17,-34.66 -39.17,-34.66 0,0 24.52,-28.11 17.27,-51.03 -7.33,-23.13 -50.42,-40.15 -50.42,-40.15 0,0 5.3,-23.99 -6.6,-59.31 -8.3,-24.62 -47.26,-52.23 -80.07,-52.22 -32.82,0.02 -59.12,16.8 -59.12,16.8 0,0 -13.66,-22.55 -46.41,-26.74 -24.69,-3.16 -44,24.99 -44,24.99 0,0 -6.4,-32.72 -40.5,-20.93 -37.56,12.98 -60.62,42.31 -89.51,83.58 -45.88,65.53 -67.95,117.53 -94.21,186.52 z"
         fill="url(#k)"
         id="path1109"
         style="fill:url(#k)" /><path
         d="m 3822.99,1647.92 c 0,0 -8.14,-57.41 24.12,-63.94 32.26,-6.53 46.73,34.66 46.73,34.66 0,0 22.96,-37.45 54.3,-36.15 31.33,1.29 55.33,11.41 71.04,41.33 15.7,29.93 -14.04,71.48 -14.04,71.48 0,0 32.71,-4.86 46.85,6.75 14.14,11.61 21.03,19.64 9.7,39.7 -11.33,20.05 -57.45,31.1 -57.45,31.1 0,0 81.95,-20.71 70.9,29.99 -11.05,50.7 -88.26,184.04 -163.93,247.54 -50.53,42.41 -217.65,29.85 -217.65,29.85 0,0 -99.05,-137.93 -72.28,-236.42 18.42,-67.76 85.95,-180.83 85.95,-180.83 0,0 39.93,-63.66 68.58,-69.67 28.65,-6.02 47.18,54.61 47.18,54.61 z"
         fill="url(#l)"
         id="path1111"
         style="fill:url(#l)" /><path
         d="m 4335.13,2135.33 c 0,0 -75.01,75.31 -108.83,141.37 -30.9,60.35 6.55,112.57 21.85,143.33 12.59,25.31 29.23,58.06 29.23,58.06 0,0 41.09,11.23 75.01,16.03 42.09,5.97 90.39,18.36 132.88,-17.74 41.87,-35.57 115.05,-139.94 115.05,-139.94 l 119.68,-35.08 -147.34,-120.77 4.58,-76.36 -74.47,19.14 -163.58,-124.71 z"
         fill="url(#m)"
         id="path1113"
         style="fill:url(#m)" /><path
         d="m 4364.03,2046.16 -2.73,95.64 c 0,0 -97.47,99.81 -113.58,152.9 -15.02,49.53 54.35,160.08 54.35,160.08 0,0 127.66,40.21 168.57,2.11 26.41,-24.6 118.97,-142.91 118.97,-142.91 l 83.12,-24.16 -130.64,-101.88 6.85,-54.16 -52.58,17.9 z"
         fill="url(#n)"
         id="path1115"
         style="fill:url(#n)" /><path
         d="m 2212.79,2459.43 234.39,322.04 6.33,8.71 207.91,285.66 c 0,0 -330.44,-567.12 -397.69,-721.02 -25.11,-57.47 -51.15,-101.17 -50.32,-94.95 3.04,22.88 -0.62,199.56 -0.62,199.56 z"
         fill="#e0e2f5"
         id="path1117" /><path
         d="m 2964.06,1217.52 c -8.5,21.54 103.39,117.87 92.5,143.16 -10.89,25.3 -62.31,25.12 -65.9,47.55 -3.59,22.42 45.71,33.76 37.13,53.72 -37.36,86.93 18.39,133.52 18.39,133.52 0,0 81.84,63.77 64.34,10.25 -24.99,-76.4 63.02,-87.45 79.39,-109.05 11.58,-15.3 -48.62,-49.97 -37.01,-79.99 10.26,-26.55 62.62,-20.19 59.74,-52.47 -2.87,-32.29 -100.15,-43.16 -71.23,-76.66 14.31,-16.57 64.65,18.59 88.61,0.25 31.45,-24.1 -26.97,-79.69 -55.9,-72.94 -27.72,6.46 -52.12,61.62 -81.38,27.95 -30.46,-35.06 -112.62,-66.01 -128.68,-25.29 z"
         fill="#ffffff"
         fill-opacity="0.681536"
         id="path1119" /><path
         d="m 522.35,2499.37 c 0,0 62.06,36.4 101.496,8.91 39.436,-27.48 44.374,-135.49 36.826,-148.23 -7.548,-12.73 -20.661,86.68 -66.798,97.5 -46.136,10.83 -89.351,-46.56 -98.327,-24.82 -8.976,21.74 26.803,66.64 26.803,66.64 z m 103.253,73.22 c 0,0 156.483,-45.52 150.389,-124.07 -2.64,-34.02 -55.665,-111.64 -72.278,-98.65 -21.741,17.01 10.357,69.73 -4.062,115.43 -14.418,45.7 -74.049,107.29 -74.049,107.29 z"
         fill="#ffffff"
         fill-opacity="0.689016"
         id="path1121" /><path
         d="m 598.401,2341.72 c -15.54,-12.14 -71.034,13.31 -73.992,33.94 -2.957,20.63 45.514,45.37 64.012,36.88 18.498,-8.48 25.521,-58.67 9.98,-70.82 z"
         fill="#ffffff"
         fill-opacity="0.689016"
         id="path1123" /><path
         d="m 4413.22,2190.5 -36.47,108.38"
         fill="url(#o)"
         id="path1125"
         style="fill:url(#o)" /><path
         d="m 4405.9,2172.83 c -32.63,5.99 -72.71,123.41 -34.52,155.34 38.18,31.94 179.13,-5.9 179.71,-36.52 0.57,-30.17 -43.76,1.26 -69,-15.81 -24.93,-16.88 -3.68,-60.61 -18.66,-66.92 -14.98,-6.32 -86.61,-5.59 -41.26,41.66 45.35,47.25 -6.58,51.15 -18.55,40.05 -27.87,-25.85 17.4,-120.57 2.28,-117.8 z"
         fill="#ffffff"
         fill-opacity="0.689016"
         id="path1127" /><path
         d="m 4280.34,2314.95 c 1.73,32.79 18.99,68.82 49.2,88.89 30.2,20.06 63,27.4 95.79,17.26 32.79,-10.14 51.18,-35.31 35.38,-57.83 -15.79,-22.51 -68.16,34.93 -104.62,1.27 -36.46,-33.65 -25.96,-134.59 -41.23,-135.9 -27.83,-2.37 -36.24,53.51 -34.52,86.31 z m -452.39,-543.74 c -19.25,19.82 55.27,69.23 60.4,110.63 3.34,26.98 -20.29,57.3 -35.09,69.83 -37.49,31.75 -159.99,-142.37 -159.99,-142.37 0,0 -14.3,61.49 18.77,116.4 33.08,54.9 49.84,109.88 113.54,103.23 63.71,-6.66 201.33,-140.6 175.63,-207.57 -21.4,-55.76 -62.82,33.6 -88.81,-15 -26.75,-50.01 -39.82,-128.23 -66.75,-130.46 -47.04,-3.89 14.09,62.56 -17.7,95.31 z"
         fill="#ffffff"
         fill-opacity="0.689016"
         id="path1129" /><path
         d="m 3729.39,1687.65 c -11.66,32.68 -17.46,45.13 6.75,99.07 24.22,53.94 65.6,118.55 81.64,105.01 16.03,-13.55 -12.9,-102.11 -20.88,-167.41 -7.98,-65.3 -5.14,-68.96 -17.49,-76.57 -12.36,-7.6 -38.36,7.21 -50.02,39.9 z"
         fill="#ffffff"
         fill-opacity="0.689016"
         id="path1131" /><path
         d="m 1705.21,1916.52 c 30.56,-47.15 135.93,-144.37 140.15,-109.59 4.21,34.77 -64.81,140.86 -11.59,158.07 29.99,9.69 59.06,-39.07 83.2,-83.67 18.7,-34.53 34.44,-66.56 45.36,-67.02 25.03,-1.06 34.53,182.47 -28.45,146.47 -62.98,-36 -10.38,155.92 -65.34,161.23 -54.96,5.31 -227.61,-119.08 -145.42,-126.45 82.19,-7.38 -48.47,-31.88 -17.91,-79.04 z"
         fill="#ffffff"
         fill-opacity="0.540938"
         id="path1133" /><path
         d="m 1857.18,1861.64 c -7.73,22.72 -14.04,47.17 -9.47,58.69 4.58,11.52 23.19,5.36 41.02,-19.56 17.83,-24.93 41.02,-78.25 30.29,-80.14 -10.73,-1.9 -24.04,-3.24 -39.5,7.01 -15.46,10.25 -14.61,11.29 -22.34,34 z"
         fill="#ffffff"
         fill-opacity="0.557511"
         id="path1135" /><path
         d="m 4052.38,3698.95 c 46.83,-81.72 -226.5,-248.85 -600.42,-554.88 -373.92,-306.02 -931.4,-705.11 -931.4,-705.11 0,0 468.67,439.66 842.59,745.68 373.92,306.03 642.4,596.03 689.23,514.31 z"
         fill="#ffffff"
         fill-opacity="0.733299"
         opacity="0.907692"
         id="path1137" /></g></g><rect
     style="fill:#000000;fill-opacity:0.263006;stroke-width:2"
     id="rect890"
     width="700"
     height="500"
     x="0"
     y="0" /><text
     xml:space="preserve"
     style="font-size:74.6667px;line-height:1.25;font-family:Stickler;-inkscape-font-specification:Stickler;text-align:center;text-anchor:middle"
     x="352.89661"
     y="93.354637"
     id="text508"><tspan
       sodipodi:role="line"
       id="tspan506"
       x="352.89661"
       y="93.354637"
       style="font-style:normal;font-variant:normal;font-weight:500;font-stretch:normal;font-size:74.6667px;font-family:Heebo;-inkscape-font-specification:'Heebo Medium';text-align:center;text-anchor:middle;fill:#ffffff">Stashh of the Day</tspan></text><text
     xml:space="preserve"
     style="font-size:42.6667px;line-height:1.25;font-family:Stickler;-inkscape-font-specification:Stickler;text-align:center;text-anchor:middle;clip-rule:evenodd;fill-rule:nonzero;stroke-linecap:round;stroke-linejoin:round"
     x="363.9299"
     y="156.98973"
     id="text508-7"><tspan
       sodipodi:role="line"
       id="tspan506-4"
       x="363.9299"
       y="156.98973"
       style="font-style:normal;font-variant:normal;font-weight:500;font-stretch:normal;font-size:42.6667px;font-family:Heebo;-inkscape-font-specification:'Heebo Medium';text-align:center;text-anchor:middle;fill:#ffffff">Launching </tspan><tspan
       sodipodi:role="line"
       x="363.9299"
       y="214.01672"
       style="font-style:normal;font-variant:normal;font-weight:500;font-stretch:normal;font-size:42.6667px;font-family:Heebo;-inkscape-font-specification:'Heebo Medium';text-align:center;text-anchor:middle;fill:#ffffff"
       id="tspan5374">November 1st</tspan></text><g
     id="g6904"
     transform="translate(0,-20)"><text
       xml:space="preserve"
       style="font-size:64px;line-height:1.25;font-family:Stickler;-inkscape-font-specification:Stickler;text-align:center;text-anchor:middle;clip-rule:evenodd;fill-rule:nonzero;stroke-linecap:round;stroke-linejoin:round"
       x="357.84451"
       y="328.50742"
       id="text508-7-8-4"><tspan
         sodipodi:role="line"
         id="tspan506-4-1-1"
         x="357.84451"
         y="328.50742"
         style="font-style:normal;font-variant:normal;font-weight:bold;font-stretch:normal;font-size:64px;font-family:Heebo;-inkscape-font-specification:'Heebo Bold';text-align:center;text-anchor:middle;fill:#0000ff">$10,000 in Prizes</tspan></text><text
       xml:space="preserve"
       style="font-size:64px;line-height:1.25;font-family:Stickler;-inkscape-font-specification:Stickler;text-align:center;text-anchor:middle;clip-rule:evenodd;fill:#800080;fill-rule:nonzero;stroke-linecap:round;stroke-linejoin:round"
       x="353.84451"
       y="324.50742"
       id="text508-7-8"><tspan
         sodipodi:role="line"
         id="tspan506-4-1"
         x="353.84451"
         y="324.50742"
         style="font-style:normal;font-variant:normal;font-weight:bold;font-stretch:normal;font-size:64px;font-family:Heebo;-inkscape-font-specification:'Heebo Bold';text-align:center;text-anchor:middle;fill:#800080">$10,000 in Prizes</tspan></text><text
       xml:space="preserve"
       style="font-size:64px;line-height:1.25;font-family:Stickler;-inkscape-font-specification:Stickler;text-align:center;text-anchor:middle;clip-rule:evenodd;fill:#800080;fill-rule:nonzero;stroke-linecap:round;stroke-linejoin:round"
       x="347.84451"
       y="320.50742"
       id="text508-7-8-0"><tspan
         sodipodi:role="line"
         id="tspan506-4-1-5"
         x="347.84451"
         y="320.50742"
         style="font-style:normal;font-variant:normal;font-weight:bold;font-stretch:normal;font-size:64px;font-family:Heebo;-inkscape-font-specification:'Heebo Bold';text-align:center;text-anchor:middle;fill:#ffffff">$10,000 in Prizes</tspan></text></g></svg>
