<?xml version="1.0" encoding="UTF-8" standalone="no"?>
<svg
   stroke-miterlimit="10"
   style="clip-rule:evenodd;fill-rule:nonzero;stroke-linecap:round;stroke-linejoin:round"
   viewBox="0 0 1500 500"
   xml:space="preserve"
   version="1.1"
   id="svg435"
   sodipodi:docname="banner-bg.svg"
   width="1500"
   height="500"
   inkscape:version="1.2 (dc2aedaf03, 2022-05-15)"
   inkscape:export-filename="banner-bg.png"
   inkscape:export-xdpi="96"
   inkscape:export-ydpi="96"
   xmlns:inkscape="http://www.inkscape.org/namespaces/inkscape"
   xmlns:sodipodi="http://sodipodi.sourceforge.net/DTD/sodipodi-0.dtd"
   xmlns="http://www.w3.org/2000/svg"
   xmlns:svg="http://www.w3.org/2000/svg"
   xmlns:vectornator="http://vectornator.io"><sodipodi:namedview
     id="namedview437"
     pagecolor="#ffffff"
     bordercolor="#666666"
     borderopacity="1.0"
     inkscape:showpageshadow="2"
     inkscape:pageopacity="0.0"
     inkscape:pagecheckerboard="0"
     inkscape:deskcolor="#d1d1d1"
     showgrid="false"
     inkscape:zoom="0.7450077"
     inkscape:cx="1027.5062"
     inkscape:cy="530.86699"
     inkscape:window-width="2496"
     inkscape:window-height="1575"
     inkscape:window-x="-9"
     inkscape:window-y="-9"
     inkscape:window-maximized="1"
     inkscape:current-layer="svg435" /><defs
     id="defs299"><linearGradient
       gradientUnits="userSpaceOnUse"
       id="a"
       x1="661.41998"
       x2="1179.15"
       y1="1592.6"
       y2="1592.6"><stop
         offset="0"
         stop-color="#5309cd"
         id="stop224" /><stop
         offset="1"
         stop-color="#689aa9"
         id="stop226" /></linearGradient><linearGradient
       gradientUnits="userSpaceOnUse"
       id="b"
       x1="703.97498"
       x2="1146.33"
       y1="1588.24"
       y2="1588.24"><stop
         offset="0"
         stop-color="#7ec9cf"
         id="stop229" /><stop
         offset="1"
         stop-color="#c2c5df"
         id="stop231" /></linearGradient><linearGradient
       gradientUnits="userSpaceOnUse"
       id="c"
       x1="1447.84"
       x2="2155.6201"
       y1="1944.1801"
       y2="1944.1801"><stop
         offset="0"
         stop-color="#76149c"
         id="stop234" /><stop
         offset="1"
         stop-color="#212048"
         id="stop236" /></linearGradient><linearGradient
       gradientUnits="userSpaceOnUse"
       id="d"
       x1="1488.7"
       x2="2092.54"
       y1="1929.1801"
       y2="1929.1801"><stop
         offset="0"
         stop-color="#ec88db"
         id="stop239" /><stop
         offset=".661157"
         stop-color="#5309cd"
         id="stop241" /></linearGradient><linearGradient
       gradientUnits="userSpaceOnUse"
       id="e"
       x1="1599.92"
       x2="2055.97"
       y1="1945.8"
       y2="1945.8"><stop
         offset="0"
         stop-color="#553dd2"
         id="stop244" /><stop
         offset="1"
         stop-color="#3dd0bd"
         id="stop246" /></linearGradient><linearGradient
       gradientUnits="userSpaceOnUse"
       id="f"
       x1="393.746"
       x2="1034.23"
       y1="2446.03"
       y2="2445.2"><stop
         offset="0"
         stop-color="#5309cd"
         id="stop249" /><stop
         offset="1"
         stop-color="#689aa9"
         id="stop251" /></linearGradient><linearGradient
       gradientUnits="userSpaceOnUse"
       id="g"
       x1="421.121"
       x2="823.495"
       y1="2446.24"
       y2="2446.24"><stop
         offset="0"
         stop-color="#7ab2c5"
         id="stop254" /><stop
         offset="1"
         stop-color="#6d74ab"
         id="stop256" /></linearGradient><linearGradient
       gradientUnits="userSpaceOnUse"
       id="h"
       x1="2773.75"
       x2="3487.01"
       y1="1424.3199"
       y2="1424.3199"><stop
         offset="0"
         stop-color="#689aa9"
         id="stop259" /><stop
         offset="1"
         stop-color="#5309cd"
         id="stop261" /></linearGradient><linearGradient
       gradientUnits="userSpaceOnUse"
       id="i"
       x1="2879.77"
       x2="3399.25"
       y1="1415.98"
       y2="1415.98"><stop
         offset="0"
         stop-color="#c2c5df"
         id="stop264" /><stop
         offset="1"
         stop-color="#7ec9cf"
         id="stop266" /></linearGradient><linearGradient
       gradientUnits="userSpaceOnUse"
       id="j"
       x1="3249.26"
       x2="3863.3401"
       y1="2081.4399"
       y2="2081.4399"><stop
         offset="0"
         stop-color="#010111"
         id="stop269" /><stop
         offset="1"
         stop-color="#0d0b3b"
         id="stop271" /></linearGradient><linearGradient
       gradientUnits="userSpaceOnUse"
       id="k"
       x1="3573.1001"
       x2="4160.3701"
       y1="1816.62"
       y2="1816.62"><stop
         offset="0"
         stop-color="#689aa9"
         id="stop274" /><stop
         offset="1"
         stop-color="#5309cd"
         id="stop276" /></linearGradient><linearGradient
       gradientUnits="userSpaceOnUse"
       id="l"
       x1="3616.6899"
       x2="4076.1599"
       y1="1832.21"
       y2="1832.21"><stop
         offset="0"
         stop-color="#c2c5df"
         id="stop279" /><stop
         offset="1"
         stop-color="#7ec9cf"
         id="stop281" /></linearGradient><linearGradient
       gradientUnits="userSpaceOnUse"
       id="m"
       x1="4227.4502"
       x2="4735.8301"
       y1="2274.3601"
       y2="2258.8799"><stop
         offset="0"
         stop-color="#689aa9"
         id="stop284" /><stop
         offset="1"
         stop-color="#5309cd"
         id="stop286" /></linearGradient><linearGradient
       gradientUnits="userSpaceOnUse"
       id="n"
       x1="4245.5898"
       x2="4672.73"
       y1="2259.73"
       y2="2259.73"><stop
         offset="0"
         stop-color="#6d74ab"
         id="stop289" /><stop
         offset="1"
         stop-color="#7ab2c5"
         id="stop291" /></linearGradient><linearGradient
       gradientUnits="userSpaceOnUse"
       id="o"
       x1="4376.75"
       x2="4413.2202"
       y1="2244.6899"
       y2="2244.6899"><stop
         offset="0"
         stop-color="#6d74ab"
         id="stop294" /><stop
         offset="1"
         stop-color="#7ab2c5"
         id="stop296" /></linearGradient><clipPath
       clipPathUnits="userSpaceOnUse"
       id="clipPath815"><rect
         style="fill:#000000;stroke-width:2.07382"
         id="rect817"
         width="1500"
         height="500"
         x="0"
         y="0" /></clipPath></defs><rect
     style="fill:#000000;stroke-width:1.96941"
     id="rect871"
     width="1500"
     height="500"
     x="0"
     y="0" /><g
     id="g813"
     clip-path="url(#clipPath815)"><path
       d="m 441.88427,40.936946 c 33.46621,81.414204 104.9381,-20.21493 237.75474,52.734744 100.63396,55.27231 352.52479,-30.36346 391.59579,38.3809 39.0753,68.74223 168.2125,168.42637 202.4873,126.68131 31.6351,-38.53193 -190.4177,-125.9283 -111.3258,-202.764539 27.5448,-26.759709 119.6774,27.165309 153.0495,29.921929 84.4399,6.97348 228.5988,89.11289 246.5812,239.32152 17.9782,150.20863 186.6955,198.02911 186.6955,198.02911 0,0 -18.8595,-93.68571 -73.5256,-183.50797 C 1613.0692,237.65814 1502.9541,126.39345 1439.7782,90.1458 1321.0121,22.002563 1294.7594,9.0550481 1172.5448,-2.6367349 1050.3345,-14.328518 908.64188,-15.119899 908.64188,-15.119899 c 0,0 -119.22153,75.245369 -225.12229,41.870711 C 577.61882,-6.6238439 455.99467,-115.72234 361.28211,-103.19711 c -94.71255,12.524803 51.32457,72.904753 80.60216,144.134056 z"
       fill="#7ec9cf"
       id="path305"
       sodipodi:nodetypes="cccccccccsccscc"
       style="stroke-width:0.427847" /><path
       d="m -177.48439,139.80337 c -74.7236,-93.587295 317.6034,84.3501 462.9945,-19.1333 145.3868,-103.487695 281.40805,167.9985 345.57655,57.0064 27.4935,-47.5596 138.67815,17.7385 255.13815,-28.7685 116.45589,-46.5027 258.01339,-169.038195 330.31109,-270.6518 71.305,-100.2147 132.1363,-174.0141 135.3281,-40.7439 3.196,133.270005 -236.9932,194.007205 -262.8908,309.1752 -25.9019,115.1722 -174.27089,182.6651 -174.27089,182.6651 0,0 -79.2031,25.1317 -148.1977,37.1842 -68.31435,11.9327 -136.78705,18.5172 -149.55395,12.3177 -34.1037,-16.5577 -5.1556,-52.9418 -31.9645,-45.279 -101.41275,28.978 -74.7107,-76.2981 -149.81075,-113.7475 -16.6946,-8.3259 -38.4207,-13.2975 -67.7069,-12.6943 -46.4599,0.9499 -180.8382,140.3511 -234.1565,143.5813 -24.9264,1.5103 -59.286798,-14.7393 -81.072798,-21.8074 -36.3114,-11.7786 -75.6605,-16.1041 -105.3189,-43.3751 -46.3744,-42.6478 -86.189802,-97.8658 -124.404702,-145.7291 z"
       fill="#6d74ab"
       vectornator:layerName="Слой 6"
       id="path309"
       style="stroke-width:0.427847" /><path
       d="m 1082.2327,720.31625 c 40.5941,-133.7664 151.5948,-225.6509 194.2897,-290.3671 42.6992,-64.7205 -48.95,-153.4303 42.8703,-209.1275 60.0526,-36.4269 117.581,64.8916 212.3064,-89.8394 C 1611.621,0.42468343 1511.8256,41.737653 1461.8872,-0.90592657 1452.6415,-8.8039866 1445.1028,-19.577177 1440.7345,-34.855607 1412.7661,-132.64439 1332.0099,-200.83469 1316.5176,-300.36053 c -12.7456,-81.89425 93.69,-116.26323 155.9246,-91.43097 63.0519,25.15742 120.9867,94.38312 139.059,240.74968 18.0765,146.3665634 0.4364,249.695973 -55.4876,413.07797 -29.9407,87.4691 -48.8259,129.5223 -136.7571,258.8091 -87.9311,129.2869 -110.9451,165.7481 -214.9633,258.3385 -108.1127,96.2314 -236.69365,152.395 -273.80513,125.2737 -37.11575,-27.1212 111.15043,-50.3704 151.74463,-184.1412 z"
       fill="#001d56"
       id="path311"
       style="stroke-width:0.427847" /><path
       d="m 743.49702,233.93283 c 73.5513,33.7443 -87.2466,172.9401 -248.93435,235.6326 -161.68778,62.6967 -323.85474,50.0239 -397.816699,15.1415 -142.65285,-67.2832 -26.7319,74.7535 -82.85691,71.4291 -23.1251503,-1.3691 -178.339591,-19.6125 -303.964111,-154.0635 -125.62881,-134.4553 20.37408,188.5437 -91.91872,110.2006 -148.48868,-103.5946 -13.10924,-260.4777 -128.60662,-304.3192 -115.50251,-43.8372 -317.58591,-58.7606 -397.47699,-187.5126 -34.48175,-55.5689 -32.69763,-186.5201 -32.69763,-186.5201 0,0 53.60782,108.3352 84.46374,72.7811 21.07233,-24.2803 51.96077,-37.1713 130.46518,8.0992 78.50399,45.2705 172.98765,187.5126 245.6143,258.8219 72.63136,71.3051 122.052,45.3518 169.02964,99.0381 91.47803,104.5531 194.01591,-23.7455 298.393541,10.6791 32.38376,10.6791 114.714419,53.8275 213.174919,51.2647 218.92518,-5.699 469.58381,-134.4126 543.13071,-100.6725 z"
       fill="#7ec9cf"
       id="path313"
       style="stroke-width:0.427847" /><path
       d="M -160.56554,-467.82826 C -201.99058,-366.66804 -254.76207,-186.3304 -205.89853,2.0935409 -157.03495,190.51749 -43.249815,304.40188 89.253196,405.87874 c 169.518234,129.826 318.421934,168.4007 420.377944,190.1524 167.7846,35.7937 274.91756,52.0562 439.68588,20.096 164.76388,-31.9645 219.37438,-147.9539 219.37438,-147.9539 0,0 -89.4672,-69.2171 -164.1265,-53.0701 -131.17371,28.3705 -205.10144,-63.97177 -246.9663,-40.7097 -41.86486,23.2578 -157.08842,100.4885 -271.7301,70.5648 C 371.23109,415.03464 443.25491,331.68999 311.87584,271.45336 266.48552,250.64287 -91.653035,68.794931 -108.48968,-8.7823391 -116.42539,-45.350449 -205.26104,-233.46634 -144.33601,-296.99311 c 40.41959,-42.14724 133.818226,-41.41989 204.540516,-49.43347 48.842624,-5.53207 86.869684,-15.23565 89.160814,-46.10483 9.81781,-132.29466 -109.581114,-170.87793 -174.308404,-278.63127 -20.589724,-34.27485 -71.425256,-187.85492 5.883756,-203.53124 77.308994,-15.67205 57.157384,-206.68148 22.2420742,-184.51128 -79.3626842,50.3931 -123.7321562,493.6609 -163.7482862,591.37694 z"
       fill="#001d56"
       id="path303"
       style="stroke-width:0.427847" /></g></svg>
