<svg stroke-miterlimit="10" style="fill-rule:nonzero;clip-rule:evenodd;stroke-linecap:round;stroke-linejoin:round" viewBox="0 0 5000 5000" xml:space="preserve" xmlns="http://www.w3.org/2000/svg" xmlns:vectornator="http://vectornator.io"><defs><linearGradient gradientUnits="userSpaceOnUse" id="a" x1="2336.87" x2="2938.2" y1="2003.48" y2="2003.48"><stop offset="0" stop-color="#7ec9cf"/><stop offset="1" stop-color="#7277dd"/></linearGradient><linearGradient gradientUnits="userSpaceOnUse" id="b" x1="2205.77" x2="2486.79" y1="2123.8" y2="2123.8"><stop offset="0" stop-color="#7ec9cf"/><stop offset="1" stop-color="#7277dd"/></linearGradient><linearGradient gradientUnits="userSpaceOnUse" id="c" x1="2412.68" x2="2790.7" y1="2201.14" y2="2201.14"><stop offset="0" stop-color="#7ec9cf"/><stop offset="1" stop-color="#7277dd"/></linearGradient><linearGradient gradientUnits="userSpaceOnUse" id="d" x1="2765.3" x2="3034.72" y1="2172.2" y2="2172.2"><stop offset=".22314" stop-color="#7277dd"/><stop offset=".977273" stop-color="#7ec9cf"/></linearGradient><linearGradient gradientUnits="userSpaceOnUse" id="e" x1="2208.79" x2="2387.04" y1="2284.89" y2="2284.89"><stop offset="0" stop-color="#7ec9cf"/><stop offset="1" stop-color="#7277dd"/></linearGradient><linearGradient gradientUnits="userSpaceOnUse" id="f" x1="2398.03" x2="2788.51" y1="2393.87" y2="2393.87"><stop offset="0" stop-color="#7ec9cf"/><stop offset="1" stop-color="#7277dd"/></linearGradient><linearGradient gradientUnits="userSpaceOnUse" id="g" x1="2780.95" x2="3018.14" y1="2369.21" y2="2369.21"><stop offset=".22314" stop-color="#7277dd"/><stop offset=".977273" stop-color="#7ec9cf"/></linearGradient><linearGradient gradientUnits="userSpaceOnUse" id="h" x1="2188.9" x2="2866.19" y1="2543.75" y2="2543.75"><stop offset="0" stop-color="#7ec9cf"/><stop offset="1" stop-color="#7277dd"/></linearGradient><linearGradient gradientUnits="userSpaceOnUse" id="i" x1="2086.87" x2="2356.05" y1="2645.03" y2="2645.03"><stop offset="0" stop-color="#7ec9cf"/><stop offset="1" stop-color="#7277dd"/></linearGradient><linearGradient gradientUnits="userSpaceOnUse" id="j" x1="2293.92" x2="2666.65" y1="2733.99" y2="2733.99"><stop offset="0" stop-color="#7ec9cf"/><stop offset="1" stop-color="#7277dd"/></linearGradient><linearGradient gradientUnits="userSpaceOnUse" id="k" x1="2671.12" x2="2901.28" y1="2740.01" y2="2740.01"><stop offset=".22314" stop-color="#7277dd"/><stop offset=".977273" stop-color="#7ec9cf"/></linearGradient><linearGradient gradientUnits="userSpaceOnUse" id="l" x1="2084.05" x2="2421.48" y1="2909.29" y2="2909.29"><stop offset="0" stop-color="#7ec9cf"/><stop offset="1" stop-color="#7277dd"/></linearGradient><linearGradient gradientUnits="userSpaceOnUse" id="m" x1="2314.41" x2="2650.58" y1="2966.34" y2="2966.34"><stop offset="0" stop-color="#7ec9cf"/><stop offset="1" stop-color="#7277dd"/></linearGradient><linearGradient gradientUnits="userSpaceOnUse" id="n" x1="2453.65" x2="2888.08" y1="2976.77" y2="2976.77"><stop offset=".22314" stop-color="#7277dd"/><stop offset=".977273" stop-color="#7ec9cf"/></linearGradient></defs><path d="M1640.52 1073.87s-110.75-824.704 10.89-851.28c121.63-26.576 671.7 377.201 671.7 377.201s229.56 121.102 483.06 119.058c157.58-1.271 469.74-497.927 784.1-497.231 191.34.423 320.54 48.083 320.54 48.083s751.62 365.766 816.63 583.378c52.68 176.341 47.44 176.581 4.09 396.601-43.35 220.01-187.25 403.98-155.2 470.72 32.05 66.73 283.4-203.8 283.4-203.8l-19.11 722.83 15.67 599.07-6.12 161.96s29.44 415.15-101.89 722.82c-131.34 307.67-206.92 339.89-423.45 507.85-216.53 167.97-460.96 121.31-460.96 121.31l-665.58-584.17-265.76-478.37-441.57 273.94-245.32 228.97-470.19 110.39-1022.161 241.23-299.013-13.84s-252.951-255.98-285.216-551.17c-32.265-295.2 45.312-387.3 53.49-715.41 8.177-328.11 158.082-422.03 131.894-841.03-23.257-372.11-191.159-475.14-137.774-799.89 40.708-247.644 147.792-432.712 302.138-620.789C673.154 414.224 1192.17 172.38 1192.17 172.38l264.36 603.015 183.99 298.475Z" fill="#030303" fill-rule="evenodd" vectornator:layerName="Слой 7"/><g vectornator:layerName="Слой 8" fill-rule="evenodd"><path d="M2193.1 937.422c34.06 106.448-314.81 23.996-87.01 23.996s199.94 413.892 394.17 461.742c169.95 41.87 56.76-359.23 274.04-390.42 205.95-29.56 623.88 660.74 760.86 493.64 7.54-9.2 14.22-20.99 19.98-35.65 110.32-280.9 505.42-762.158 639.88-941.067 147.31-196.02-798.92-289.053-527.49-259.983 134.81 14.438 608.64 274.122 767.25 345.442s-574.06 429.938-528.33 638.948c45.73 209 416.73 107.92 376.14 321.04-40.6 213.12 169.71 69.77 221.36 203.09 51.65 133.32 327.64 339.48 327.64 339.48s75.97-685.53 67.45-958.04c-8.51-272.505-172.99-557.62-172.99-557.62s-77.18-163.131-254.95-261.064c-177.77-97.932-413.03-121.832-413.03-121.832s-83.26-29.39-693.55-47.526c-180.31-5.358-23.6 549.677-492.6 535.473-469.01-14.205-1235.03-509.054-1382.55-537.385-267.54-51.38 366.93 553.951 366.93 553.951l268.67 117.142s34.07-29.805 68.13 76.643ZM4806.01 2184.36l-336.97 293.77" fill="#6b74ab"/><path d="M1256.56 153.892c220.02-51.892 459.48 53.915 557.76 156.727 69.09 72.269 165.96 176.884 249.66 262.875 202.76 208.328 334.87 185.595 407.29 412.018 45.16 141.198 16.02 267.858-36.61 363.628-31.77 57.8-72.09 104.35-109.8 136.06-149.35 125.59-418.3-101.21-638.5-343.21-220.19-241.996-433.26-355.719-545.04-562.478-37.7-69.747-148.061 3.923-278.87 109.661C731.641 794.91 689.175 912.636 618.088 1002.46c-134.236 169.62-307.775 358.05-377.54 288.28-69.765-69.76 64.654-405.704 166.031-569.215 48.188-77.722 183.076-234.245 345.29-344.723 179.05-121.944 389.251-195.685 504.691-222.91Z" fill="#7ec9cf"/><path d="M2072.2 3769.53c-47.96-43.6 599.59-534.59 599.59-534.59s549.4-82.85 623.52 13.08c74.13 95.92 148.26 475.27 135.17 571.2-13.08 95.92-200.57 117.73-200.57 117.73l-344.46-13.09-292.14 135.17-296.5 74.13-152.62-274.7s-24.02-45.32-71.99-88.93Z" fill="#001d55"/><path d="M3277.87 3775.61s-232.18 17.45-466.55 65.41c-234.37 47.96-470.91 126.45-470.91 126.45s-265.05 228.74-141.87 321.39c15.12 11.38 179.7 21.6 200.82 26.56 50.45 11.85 91.22 14.86 122.57 2.82 62.42-23.95 74.79-80.34 88.77-83.51 168.73-38.26 591.6 110.16 591.6 110.16l112 23.31 67.79 13.16c55.52 11.27 106.28 22.29 116.84 22.59 26.48.76 88.53-358 88.53-358l-309.59-270.34Zm1541.14-2215.44c-98.11-142.8-355.13 689.34-355.13 689.34l-640.97 488.35 257.26 213.66s383.71-39.25 479.63-47.97c95.93-8.72 296.5-82.84 296.5-82.84s60.81-1117.74-37.29-1260.54ZM558.488 2628.79c296.462-176.19 757.252-706.3 831.372-710.67 74.13-4.36 248.54 174.42 248.54 174.42l-736.521 914.13S596.369 4238.56 474.11 4152.84c-175.087-122.76-336.663-359.74-365.187-585.92-32.1798-255.17 88.094-783.07 173.232-1038.45 69.797-209.36-20.129 276.51 276.333 100.32Z" fill="#7ec9cf"/><path d="M3289.27 201.586c-257 81.634-311.25 365.791-709.93 367.675-74.99.354-155.04-20.733-236.15-53.301-350.1-140.577-650.24-321.583-745.68-327.092-95.45-5.509 116.82 136.531 363.91 305.055 85.78 58.514 429.05 301.886 725.22 364.51 304.99 64.491 653.02-356.9 966.91-426.129 229.19-50.548 287.23 215.032 127.44 887.806-159.79 672.78-868.68 1926.84-868.68 1926.84l1218.08-278.18s471.43-753.36 609.63-1220.33c148.17-500.69-316.6-218.01-355.31-575.69-38.72-357.685 260.47-353.074 227.91-578.933-32.55-225.859-154.98-240.448-358.13-324.503-285.86-118.272-608.83-180.9338-965.22-67.728Z" fill="#001d55"/><path d="m2315.73 2402.54-230.08 103.82" fill="#030303"/></g><g vectornator:layerName="Слой 5" fill-rule="evenodd"><path d="m2182.52 2122.86 117.79-139.62 233.51-98.35 236.75 25.51 200.01 123.47 86.47 155.75-249.6 342.7 84.4 97.26 28.95 141.31-506.98 453.19-349.22-613.54 100.7-115.08 153.91-63.71-136.69-308.89Z" fill="#323471"/><path d="m2336.87 1986.93 194.91-84.7 223.48 22.45 182.94 110.79-189.58 69.25-245.7-24.51-166.05-93.28Z" fill="url(#a)"/><path d="m2205.77 2125.77 110.42-131.81 170.6 99.67-95.02 160.02-186-127.88Z" fill="url(#b)"/><path d="m2504.38 2099.95-91.7 162.64 378.02 39.75-39.78-176.17-246.54-26.22Z" fill="url(#c)"/><path d="m2765.3 2123.23 40.97 173.59 228.45-105.46-77.82-143.78-102.91 40.63-88.69 35.02Z" fill="url(#d)"/><path d="m2208.79 2147.28 178.25 126.66-3.6 140.04-42.25 8.51-132.4-275.21Z" fill="url(#e)"/><path d="m2403.7 2277.72-5.67 136.58 316.58 46.55 54.86 49.18 3.46-37.53 15.58-151.93-384.81-42.85Z" fill="url(#f)"/><path d="m2808.07 2311.49-27.12 205.17 7.37 4.89 229.82-304.68-210.07 94.62Z" fill="url(#g)"/><path d="m2188.9 2503.02 205.88-74.39 315.02 47.11 61.35 58.46 95.04 90.57-195.03 34.1-308.32-52.95-173.94-102.9Z" fill="url(#h)"/><path d="m2168.79 2513.32-81.92 100.47 175.72 162.96 93.46-155.81-187.26-107.62Z" fill="url(#i)"/><path d="m2370.23 2630.82-76.31 136.47 363.18 69.86 9.55-159.31-296.42-47.02Z" fill="url(#j)"/><path d="m2684.35 2677.14-13.23 163.13 230.16-73.57-20.81-126.95-196.12 37.39Z" fill="url(#k)"/><path d="m2084.05 2629.75 216.52 201.11 120.91 357.97-337.43-559.08Z" fill="url(#l)"/><path d="m2465.1 3149.65-150.69-366.62 336.17 72.46-185.48 294.16Z" fill="url(#m)"/><path d="m2667.68 2855.44-214.03 311.33 434.43-380-220.4 68.67Z" fill="url(#n)"/></g><path d="M3339.78 2073.5c8.36 26.15-61.97 304.15-96.06 362.84-3.86 6.64-280.61-119.17-280.61-119.17l-161.61 215.7 128.2 142.32s-5.3 91.42 1.6 80.7c6.91-10.72-31.88 34.45-31.88 34.45s51.94 44.6 63.69 64.05c10.01 16.59-122.99-10.49-122.99-10.49l-84.88 73.32-179.37 261.43s-111.62 41.95 21.03 70.38c132.65 28.43 514.93 93.29 514.93 93.29l.72 233.44s7.09 156.14 23.66 205.25c16.57 49.11 206.77 67.61 206.77 67.61l393.94-56.28 450.21-5.11s159.68 83.01 240.46-66.51c80.77-149.52 82.65-531.57 82.65-531.57l40.76-710.06s-5.33-271.54-13.48-432.62c-3.14-62.14 4.07-156.93-22.53-202.12-27.94-47.48-89.67-43.83-89.67-43.83s70.08-111.8 34.83-168c-28.35-45.21-59.4-82.47-126.04-119.97-63.9-35.96-97.81-53.2-248.78-64.43-133.15-9.9-353.53 62.46-353.53 62.46s-118.88-22.51-200.71 12.56c-65.64 28.13-112.53 42.98-173.49 113.32-64.7 74.64-69.18 113.69-76.59 199.28-9.38 108.39 50.42 211.61 58.77 237.76Z" fill="#2a2c6d" fill-rule="evenodd" vectornator:layerName="Слой 9"/><g vectornator:layerName="Слой 4" fill-rule="evenodd"><path d="M988.893 1619.68c-42.015-2.62-194.32 126.05-236.335 144.43-42.015 18.38 147.053 173.31 147.053 173.31l123.419 291.48 65.65 401.77-70.9 330.87s-115.274 14.92-144.159 49.05c-28.885 34.14-452.196 1100.18-452.196 1100.18s145.579 171.78 353.751 229.78c208.172 58.01 478.934 2.24 478.934 2.24s382.74-68.27 674.87-68.27c292.14 0 332.84 89.28 493.68 68.27 160.84-21.01 194.32-81.4 149.68-152.3-44.64-70.9-216.64-519.28-365.01-871.82-148.36-352.53-265.22-606.59-228.45-666.99 36.76-60.4 42.01-320.36 42.01-320.36l-55.14-257.35-162.81-246.84-99.79-217.95-154.93-115.54-299.36-2.63-204.82 63.03s-13.13 68.27-55.147 65.64Z" fill="#4c4f9c"/><path d="m972.687 1746.64 139.843 205.31 64.18 121.63s106.45-22.49 230.64-46.89c124.18-24.39 271.16-52.95 271.16-52.95l-50.36-265.23 46.16 19.31 76.93 234.14s137.01 117.03 181.98 244.97c39.06 111.13 21 145.3-1.76 234.61-26.31 103.21-109.38 247.34-109.38 247.34l-61.6 77.57s-198.7-28.97-349.07-13.69c-150.38 15.29-252.44 74.82-252.44 74.82l-30.41-437.19s-15.21-207.83-59.56-323.15c-56.34-146.48-176.148-273.72-176.148-273.72l79.835-46.88Zm-114.38 1385.58s-364.065 811.25-373.546 933.31c-4.426 56.99 39.843 90.23 85.377 127.67 68.784 56.56 161.294 105.28 258.618 121.66 108.788 18.3 267.244 49.83 267.244-10.9 0-60.74 65.21-1134.96 65.21-1134.96l-302.903-36.78Zm482.493-41.48 81.01 1198.98s116.79-17.84 246.43-37.55c131.39-19.96 344.86-10.6 344.86-10.6l-379.62-1197.83-292.68 47Zm424.37-97.02 415.95 1269.23s95.58 49.29 177.79 48.95c100.87-.42 191.25-52.38 178.71-77.48-22.78-45.55-528.32-1260.73-528.32-1260.73l-244.13 20.03Z" fill="#7277dd"/><path d="M1175.12 2180.63c-14.39 100.42-14.11 225.07 115.73 291.12 129.83 66.06 255.62 35.32 403.61-26.91 147.99-62.22 186.67-133.69 188.35-221.98 1.69-88.29-132.56 3.07-309.48-7.48-176.93-10.56-383.82-135.18-398.21-34.75ZM861.595 3316.05c-85.153 109.44-244.514 555.72-262.88 754.13-18.366 198.41 226.812 44.8 263.381-115.72 57.198-251.07 51.442-705.16-.501-638.41Zm883.905 633.71c-40.16-240.96-102.09-575.86-199.09-741.05-97-165.18-3.84 674.54 48.21 906.42s188.18 58.47 150.88-165.37Zm269.74-558.78s144.61 547.21 244.3 729.08c99.68 181.86 175.69 134.43 134.85-56.17-40.85-190.59-298.22-706.23-298.22-706.23l-112.42-190.58 31.49 223.9Z" fill="#8083ea"/><path d="M1141.88 2601.96c2.21 81.72 14.37 249.69 14.37 249.69s130.32-66.26 262.84-90.55c132.52-24.3 337.18 11.53 337.18 11.53s52.86-42.74 90.37-105.73c37.51-62.98 92.43-248.85 92.43-248.85s-63.73 60.38-196.49 106.39c-132.76 46.01-199.26 69.48-334.53 77.63-135.28 8.15-172.65-10.7-203.16-31.45-41.72-28.37-70.27-63.5-70.27-63.5s5.05 13.12 7.26 94.84Z" fill="#6064bd"/><path d="M3430.77 1620.38c-116.01 95.19-130.83 200.85-103.55 318.07 16.65 71.53 227.49 68.49 227.49 68.49l-167.33 66.57-111.66 392.67c-1.48 6.41-90.16 456.48-113.8 449.83-27.36-7.7 93.38-446.56 75.03-452.59-96.06-31.59-287.34-128.6-287.34-128.6l-149.39 200.39 77.96 81.6 10.05 9.81 31.46 140.78 103.64 118.31-111.68-7.69-91.19-6.27-173.63-11.95s-57.08 307.09-35.5 347.02c18.27 33.82 127.5 47.77 250.82 66.43 133.01 20.13 280.07 43.65 280.07 43.65s8.55 77.31 2.34 276.02c-6.21 198.71 51.84 198.45 51.84 198.45s443.57 21.48 504.01 30.12c60.44 8.63 532.49 43.9 654.5-90.89 107.83-119.13 129.99-725.21 145.64-999.5 2.96-51.95 5.69-92 8.73-114.58 19.05-141.81-3.62-563-12.77-725.27-4.91-86.92-114.47-12.07-215.73 46.85-87.77 51.07-329.8 73.99-334.79 61.15-3.74-9.62 117.6-19.45 235.51-58.7 85.17-28.36 167.2-78.88 205.45-123.37 61.05-71 54.45-164.07 34.53-192.98-100.6-146.04-366.98-160.14-440.37-164.46-73.39-4.32-314.26 91.96-314.26 91.96s-120.06-26.51-236.08 68.68Z" fill="#4c4f9c"/><path d="m2319.45 2363.91 131.15-19.19" fill="#1c1c1c"/></g><g opacity=".352564" vectornator:layerName="Слой 6" fill-rule="evenodd"><path d="m2320.32 2369.99 74.18-45.46 233.63 64.97 158.01 29.77 112.14-43.55-109.55 146.16s-12.71-4.58-29.58-20.64c-17.2-16.38-44.67-38.65-44.67-38.65l-326.38-47.91-46.98 6.97-24.35-51.43 3.55-.23Z" fill="#1c1c1c" opacity="1"/><path d="M2140.52 2725.03s106.02-93.11 161.67-116.4c55.65-23.3 67.26 2.32 76.32 29.5 9.06 27.17-40.08 79.21-40.08 79.21s82.19-29.97 142.36-31.06c60.17-1.09 73.74 5.97 98.33 26.68 24.58 20.71 29.63 27.69 35.46 65.66 5.83 37.98-12.14 86.26-12.14 86.26s72.58-44.3 108.82-51.42c36.24-7.12 52.69-7.81 69.06-1.64 16.38 6.16 23.52 10.35 25.22 14.79 5.76 15.14 1.09 44.4 1.09 44.4l-93.21-6.68-66.45-3.85-12.93 74.4-26.42 43.89-111.3 100.94-108.71-18.11-163.22-210.76-83.87-125.81Z" opacity="1"/></g><g vectornator:layerName="Слой 3" fill-rule="evenodd"><path d="m1099.09 888.217-87.36 314.133s55.44 260.38 57.12 283.9c1.68 23.51-54.02 93.86-54.02 93.86l-40.052 119.48 73.912 109.19 82.32 139.75 67.22 57.74 460.25-53.03-59.05-278.73 17.74-113.23s-85.24-21.42-32.53 19.65c52.7 41.08 82.24-244.19 82.24-244.19l-33.6-421.645-223.42-144.468-226.78 40.317-83.99 77.273Z" fill="#e27fbc"/><path d="M861.591 1801.77c55.649 62.61 114.254 108.51 173.899 250.43 59.65 141.91 65.05 270.65 65.05 270.65 17.29 165.01 21.04 267.43 25.73 400.87 4.7 133.43 2.36 142.32 2.36 142.32s109.17-33.02 310.32-44.03c201.15-11.01 484.61 37.1 484.61 37.1l234.19-132.17s173.66-116.16 186.17-103.14c6.81 7.08-9.81 34.58-28.51 60.03-18.56 25.24-39.18 48.47-41.01 47.72-3.69-1.5 72.62-9.21 72.62-9.21s180.97-32.26 180.99-12.83c.04 32.16-96.57 66.18-96.57 66.18s92.85-24.61 104.54-25.56c20.02-1.63 41.68.68 44.1 7.2 11.24 30.34-135.81 71.82-135.81 71.82s120.87-32.18 134.95-8.39c15.16 25.64-121.26 71.89-121.26 71.89s98.48-24.47 83.25-1.51c-22.61 34.08-154.1 110.45-267.14 144.07-113.03 33.62-142.99 16.42-219.52 28.18-76.52 11.75-126.39 16.65-126.39 16.65l-296.61 69-338.39 67.77s-409.6 24.76-491.433-71.78c-98.426-116.12-147.377-234.73-175.449-388.19-35.403-193.54-47.376-278.04-35.403-467.32 11.974-189.28 21.815-244.33 70.508-338.24 48.693-93.9 151.515-149.51 151.515-149.51s-6.956-62.6 48.693 0Z" fill="#e27fbc"/><path d="M1681.58 1692.69s160.79 49.68 242.53 167.07c81.75 117.4 79.97 156.76 113.02 329.81 33.04 173.05 18.48 293.33 18.48 293.33l48.4-30.07s34.99-26.09 76.49-47.53c41.5-21.43 105.32-47.63 105.32-47.63l34.5 76.38-151.94 59.95-99.95 123.58 72.09 119.59-196.87 112.04s-31.2-198.28-15.78-297.76c11.87-76.58 46.16-141.57 48.68-239.76 3.47-135.32-109.71-260.3-109.71-260.3l-99.45-94.81-85.81-263.89Z" fill="#d171ac"/><path d="M1189.54 963.045s-68.99 245.885-81.95 376.875c-12.95 130.98-9.01 112.69-9.01 112.69s138.67 124.37 231.86 134.72c93.19 10.36 161.95-11.66 241.4-70.99 79.45-59.32 76.4-166.32 76.4-166.32l7.2-277.22-46.02-179.471-179.48-110.446s-94.33-6.903-147.26-2.301c-52.92 4.602-119.65 11.505-133.45 41.417-13.81 29.913 40.31 141.046 40.31 141.046Zm298.9 664.215s-54.44 23.37-125.63 34.3c-71.19 10.93-154.63-40.83-189.61-9.38-35.77 32.15-42.01 119.94-42.01 119.94l-32.99 121.74 90.08 151.48 472.61-84.06-54.94-280.24-117.51-53.78Zm-626.857 286.1c89.459 33.07 99.732 84.27 141.977 261.7 42.24 177.42 37.23 181.69 55.26 355.74 18.02 174.05 41.73 209.72 43.12 366.93 0 0 144.98-56.49 378.81-53.26 164.3 2.27 334.38 19.44 442.08 32.35 45.58 5.46 281-178.77 357.44-215.87 60.68-29.46-32.21 47.73-93.28 107.17-8.01 7.79 128.89-28.45 162.03-8.75 39.62 23.56 59.76 144.43 31.35 197.06-15.47 28.67-89.88 52.11-107.52 57.87-64.63 21.12-135.39 18.14-193.72 30.51-124 26.28-6.34-2.33-224.34 35.08-218.01 37.42-417.83 104.17-647.69 114.57-121.35 5.49-236.556-40.86-236.556-40.86-38.896 11.23 122.576-227.16 94.696-188.55-53.64 74.27-217.587 186.43-269.331 122.45-44.912-55.53-108.944-135.82-149.003-370.42-40.059-234.61-33.304-333.55-16.966-539.24 4.978-62.67 9.911-104.48 15.782-135.06 13.397-69.77 126.401-162.49 215.861-129.42Z" fill="#fe9edb"/><path d="M699.991 2352.46c22.497 244.78 149.466 620.31 149.466 620.31s-4.177-367.86-26.674-612.63c-22.498-244.77 9.593-397.16-63.315-366.46-33.812 14.24-81.974 114.01-59.477 358.78Zm784.359-959.22c34.2-102.6 30.85-158.61 29.75-240-.86-63.35 8.06-93.42 26.95-100.54 18.89-7.12 40.12-8.86 47.01 69.58 6.89 78.44-1.97 156.39-22.42 232.48-14.87 55.31-52.01 134.77-102.57 166.14-73.38 45.54-17.52-11.26 21.28-127.66Zm-345.79 482.82c-19.25 26.47 6.02 83.83 89.84 102.68 83.83 18.85 138.58 21.15 233.24-2.11 94.65-23.26 126.93-34.79 145.38-90.94 18.45-56.15-4.01-148.8-32.08-163.64-28.08-14.84-54.2 53.74-54.2 53.74s-40.69 57.65-85.38 76.21c-51.6 21.43-55.75 14.84-129.95 20.85-74.2 6.02-147.6-23.26-166.85 3.21Zm-32.18 1099.25c5.68-17.77 215.78-58.11 215.78-58.11l199.43-18.36s121.3 3.85 216.26 18.1c94.97 14.25 190.25 21.1 186.47 45.28-3.79 24.18-179.02 48.31-209.95 48.45-30.93.13-269.52 9.79-269.52 9.79s-344.16-27.37-338.47-45.15Zm940.86-125.05 94.16-91.01s116.78-84.46 117.26-78.87c.49 5.59-91.35 96.66-91.35 96.66l-120.07 73.22Z" fill="#fcbee5"/><path d="m3533.09 841.201-52.64 185.989 90.42 178.16s43.2 93.04 52.21 206.23c10.2 128.17-12.12 280.12 17.3 314.25 55.4 64.27-12 199.24 80.04 231.75 108.31 38.26 222.47-179.06 256.58-250.23 26.81-55.93 38.11-169.61 72.9-297.11 17.15-62.81 64.64-163.29 64.64-163.29s50.44-19.61 81.65-61.24c31.2-41.62 48.92-122.56 48.92-122.56l-35.5-122.723-187.52-93.131-72.53-170.978-174.32-62.287-127.95 44.337M2653.44 2879.75l-80.79-79.32m62.65 135.14s-30.82-4.73-87.58-17.08c-31.43-6.83-79.37-26.07-108.94-33.85-23.83-6.27-31.59-3.97-41 9.58-16 23.02 43.76 60.3 43.76 60.3s95.75 69.61 64.15 57.08c-31.59-12.52-66.29-48.87-117.39-21.14-45.28 24.58-89.6 24.55-112.31 57.61-21.84 31.78-2.95 46.48-4.82 87.27-.65 14.24-6.79 49.45 12.75 67.57 19.53 18.13 17.3 30.54 88.85 37.07 12.34 1.13 98.08-4.01 143.87-7.84 55.33-4.62 89.82-34.79 89.82-34.79l28.84-261.78Z" fill="#d171ac"/><path d="M3509.44 993.364c-14.97 67.386-15.97 254.016 28.95 359.626 45.37 106.67 134.8 211.07 183.76 211.31 75.97.36 175.01-29.46 261.09-161.27 38.16-58.43 122.98-164.71 122.98-164.71s86.27-60.65 106.48-120.47c20.21-59.81-9.14-120.463-38.72-138.748-29.58-18.285-84.94 68.978-84.94 68.978l-45.84-163.618-91.2-156.254s-176.74-72.222-280.74-16.19c-104 56.031-123.96 110.997-161.82 281.346Z" fill="#fe9edb"/><path d="M3547.15 1251.17c28.66 156.71 174.02 250.8 174.02 250.8s-95.31-161.53-104.22-316.46c-8.9-154.93 60.55-274.25-10.43-310.363-39.15-19.914-88.04 219.323-59.37 376.023Z" fill="#fcbee5"/><path d="M3624.23 1569.82c1.76 48.27-2.5 148.16-2.5 148.16s26.4 225.78 93.34 241.42c66.93 15.64 190.28-176.02 190.28-176.02s38.8-74.09 57.47-136.8c18.68-62.7 15.09-84.91 15.09-84.91s-47.89 44.57-108.55 64.28c-60.65 19.7-81.88 16.81-142.24 7.75-60.35-9.05-104.65-112.14-102.89-63.88Z" fill="#fe9edb"/><path d="M3167.33 3787.42c-18.21-4.82 21.59 161.11 45.94 288.25 29.4 153.53 35.64 197.53 73.44 286.3 7.74 18.17 351.12 98.94 606.22 27.99 160.03-44.5 226.54-50.54 298.01-77.97 42.47-16.3 94.95-34.8 147.18-88.04 140.15-142.86 55.61-562.9 55.61-562.9s-52.6 132.95-194.74 122.81c-142.14-10.13-248.85-75.97-422.52-50.07-182.99 27.28-186.23 47.95-333.05 61.97-146.83 14.03-257.88-3.53-276.09-8.34Z" fill="#2a2c6d"/><path d="M3644.68 2005.34c46.57 31.24-210.74-27.62-257.18 181.4-53.54 240.95-96.16 467.02-108.67 620.97-6.1 75.08 97.61 119.22 363.07-24.92 103.08-55.96 322.65-715.94 373.3-704.16 86.35 20.08-316.36 811.9-316.36 811.9l-331.61 60.6-672.58-43.86-3.44 76.57-20.65 205.61 286.11 53.66 356.92 52.82 324.91-55.84 118.84 14.31 72.4-1.12s57.93 46.36 123.14 23.54c34.13-11.95 334.95-521.45 356.94-497.91 6.85 7.33 110.96-624.51 142.73-550.22 31.77 74.3-4.59 367.86-97.96 675.56-93.38 307.7-354.05 474.99-395.29 497.33-22.83 12.38-203.5 37.87-361.05 36.72-126.94-.92-239.21-27.54-239.21-27.54s-188.41-53.65-187.2-22.11c5.03 131.27-9.18 277.01 32.37 319.42 165.76 169.14 440.74-27.11 713.04-17.47 208.9 7.39 179.28 71.78 343.81 45.9 14.69-2.31 120.2-119.49 132.66-244.36 9.01-90.36 24.55-165.05 28.51-296.24 10.06-333.15 170.7-1546.18-40.55-1285.36-144.86 178.87-679.81 159.58-634.79 117.02 83.6-79.01 490.37-38.71 624.04-222.13 133.67-183.41-63.05-258.95-126.98-278.55-70.33-21.55-191.47-28.7-191.47-28.7s-20.73 145.13-71.21 258.7c-53.31 119.96-244.85 307.25-295.85 231.22-79.09-117.92-89.29-144.9-132.71-239.8-43.41-94.89-16.13-152.61-40.95-139.79-13.67 7.05-112.04 37.23-139.17 171.1-27.12 133.88 251.16 211.69 272.09 225.73Z" fill="#6064bd"/><path d="M4250.12 2034.62c96.96-34.06 169.82-199.76 207.74-26.71 37.92 173.06 7.59 413.82-74.19 703.36-81.79 289.54-82.14 280.97-204.78 439.23-122.63 158.25-221.3 201.12-282.19 213.02-49.61 9.69-385.58-38.92-385.58-38.92s-295.01-31.78-520.5-65.05c-208.7-30.8-342.43-57.2-342.43-57.2l36.99-311.42 712.9 35.36s303.78-27.52 347.98-59.93c44.19-32.41 103.42-190.88 189.48-377.67 86.05-186.8 130.58-335.36 130.58-335.36s87.03-84.64 184-118.71Zm-369.38-88.49s149.27-69.69 219.83-157.88c70.56-88.2 25.49-147.65 62.4-194.91 36.92-47.25 80.89-9.96 85.26 5.88 9.62 34.86 18.37 54.39 2.94 108.78-15.44 54.39-64.68 108.77-64.68 108.77s-52.92 32.34-129.35 64.68c-76.44 32.34-176.4 64.68-176.4 64.68Zm-409.05-266.21c-13.74 34.73-16.82 95.27 7.87 157.95 24.69 62.68 150.1 120.34 150.1 120.34s-74.69-103.55-89.78-164.14c-15.08-60.59-29.77-105.78-29.77-105.78s-24.68-43.09-38.42-8.37Z" fill="#7277dd"/><path d="M3439.55 2166.82s-74.94 207.89-85.91 365.84c-10.97 157.95-35.95 282.43 42.05 265.97 77.99-16.47 283.4-293.88 283.4-293.88s121.76-172.21 157.79-286.68c22.02-69.96-25-91.52-25-91.52s-154.68-14.53-185.67-20.62c-31-6.09-66.96-13.36-113.62 1.87-46.66 15.22-73.04 59.02-73.04 59.02Z" fill="#7277dd"/><path d="M2520.39 3028.45c12.7-15.43-28.02-44.99-62.64-73.44-25.29-20.8-55.48-40.06-51.26-58.39 4.74-20.53 76.66 11.43 141.19 28.75 45.71 12.27 86.9 17.19 86.9 17.19s-22.8 199.6-26.01 238.09c-3.2 38.49-188.04 57.87-195.77 40.22-13.52-30.83-48.53-203.05 13.86-229.68 21.15-9.03 93.73 37.26 93.73 37.26Z" fill="#fe9edb"/><path d="M2231.27 1932.08s-170.34-142.05-253.7-236.36c-83.36-94.31-35.09-139.98 8.92-91.58 44 48.39 244.78 327.94 244.78 327.94Zm229.71-151.27s-62.73-71.62-87.38-150.56c-24.65-78.95 6.51-98.22 36.87-33.31s50.51 183.87 50.51 183.87Zm250.25-.22s-15.07-168.08 15.15-327.18c30.23-159.1 76.75-176.09 62.52-39.34-3.81 36.69-11.17 80.06-19.9 123.89-23.8 119.6-57.77 242.63-57.77 242.63Zm165.3 87.26s46.57-97.42 119.83-170.26c73.26-72.83 109.49-61.74 54.22 5.98-55.26 67.72-174.05 164.28-174.05 164.28Zm136.67 117.83s95.18-68.01 214.27-99.4c40.74-10.74 52.84-17.15 52.84-17.15s-.9 23.78 1.54 33.01c3.01 11.37 4.59 18.46.23 20.11-94.71 35.69-268.88 63.43-268.88 63.43Z" fill="#fcfcfc"/><path d="m3616.98 1982.61-177.62 620.24 24.65 11.55 194.25-623.21m156.59-16.12-21.52 644.82 26.71 5.22 36.93-651.75" fill="#444994"/><path d="M1731.33 1755.39c32.3 11.64 61.21 21.62 112.7 49.51 28.07 15.2 36.88 24.56 81.2 84.28 47.2 63.63 60.68 113.15 78.75 198.43 21.02 99.25 27.66 193.19 27.66 193.19s14.94 129.74 4.52 236.5c-10.94 112.15-62.29 210.53-62.29 210.53s10.49-201.6 11.07-325.33c.58-123.73-8.76-169.59-8.76-169.59s-15.62-76.05-49.74-140.35c-34.11-64.31-94.11-137.2-94.11-137.2s-157.62-220.36-101-199.97Z" fill="#fe9edb"/><path d="M377.894 459.906S1557.96 1682.5 1951.31 2090.04" fill="#fe9edb"/></g><g vectornator:layerName="Слой 10" fill-rule="evenodd"><path d="m2294.97 2378.51-126.25 68.58s-56.24 35.74-78.81 61.84c-53.8 62.18-113.94 229.07-74.65 229.07 39.28 0 123.72-3.98 123.72-3.98l-69.68-114.86 96.59-122.78 156.84-59.92-27.76-57.95Z" fill="#fe9edb"/><path d="M3043.21 2480.82c-60.34-20.75-75.62-76.97-127.62-47.25-52 29.71-3.1 43.15 34.44 127.95 37.55 84.81 72.61 201.94 125.62 237 53.01 35.06 55.37-30.13 86.44-96.75s49.61-136.68 37.84-169.74c-21.04-59.09-96.38-30.47-156.72-51.21Z" fill="#6064bd"/><path d="M3721.61 4338.46c-10.5-87.15 75.01-170.28-35.85-271.36-111.7-101.85-519.56-113.76-497.5-183.94 12.66-40.29 539.96-27.43 578.08-28.02 112.11-1.76 247.61-62.35 383.87-46.86 73.09 8.3 115.56 34.74 144.56 69.35 25.07 29.9 40.08 65.91 56.12 101.59 21.16 47.07 4.8 224.97 4.8 224.97s-38.78 56.73-120.57 94.73c-81.79 38-153.57 43.52-206.58 57.27-131.3 34.07-195.95 47.64-195.95 47.64l-104.85 11.86s4.36 9.92-6.13-77.23Z" fill="#20245d"/></g><g vectornator:layerName="Слой 2" fill-rule="evenodd"><path d="M1208.76 899.314s105.42 96.11 135.43 113.336c30.01 17.23 1.92-58.588 1.92-58.588s70.98 49.688 90.53 47.968c19.56-1.73-23.54-58.91-23.54-58.91s81.29 67.04 97.4 63.3c16.1-3.74-22.2-85.911-22.2-85.911s57.52 84.461 78.35 101.851c21.46 17.91 35.99-60.774 47.87-2.85 20.34 99.12 24.15 205.73 17.26 274.57-6.88 68.83-30.23 127.67-64.36 185.92-34.13 58.26-92.79 90.6-92.79 90.6s-15.36 19.66 10.12 46.09c35.78 37.09 371.15 173.22 383.15 181.54 60.28 41.86-96.62-271.7-108.87-351.55-11.45-74.72-14.45-130.12-24.76-258.85-10.3-128.73-14.18-138.5-26.21-212.009-19.11-116.791-40.9-173.322-105.7-252.779-64.1-78.608-235.74-119.193-321.31-111.31-136.6 12.584-195.24 42.463-272.63 119.141-58.161 57.623-116.076 157.702-150.879 281.627-39.306 139.95-101.891 167.09-207.676 345.46-97.384 164.21-101.846 230-116.543 345.94-14.697 115.95 38.236 389.63 61.159 406.19 38.895 28.09-9.134-31.55 76.192-169.09 83.149-134.03 185.887-132.71 299.337-215.39 113.45-82.67 112.37-118.22 124.04-164.36 20.77-82.05 8.28-147.24 8.28-147.24s-14.87-159.97-7.08-247.1c7.78-87.13 58.02-245.174 58.02-245.174s70.55 126.654 85.94 116.504c15.4-10.16-30.45-138.926-30.45-138.926Z" fill="#2e3273"/><path d="M835.803 1143.15s-72.48 110.66-142.627 219.78c-47.9 74.51-78.422 171.2-91.971 235.38-27.454 130.05 43.532 247.54 79.362 232.61 35.83-14.93 72.963-219.99 106.024-276.81 51.097-87.82 140.91 103.6 132.247-5.17-1.093-13.72 50.892-96.99 46.493-110.55-35.795-110.33 54.759-260.36 98.149-380.21 22.51-62.152 49.83-97.475 78.33-160.675 4.48-9.922 71.45 114.895 83.39 118.285 11.93 3.39-85.98-212.346-65.68-182.062 20.31 30.284 172.55 167.272 175.82 165.123 19.5-12.796-98.14-167.063-98.14-167.063s154.79 145.241 179.57 157.262c24.78 12.02-106.9-161.677-77.82-132.177 32.52 32.997 123.67 109.362 140.97 119.576 17.3 10.214-35.29-121.254-28.66-115.857 32.32 26.314 95.68 137.308 122.55 137.308 7.05 0 20.59-22.908 41.22-34.371 6.91-3.838 65.25 242.091 25.79 398.171-36.27 143.48-23.44 149.77-22.63 185.24.92 40.34 28.45 63.51 96.34 122.37 50.04 43.38 93.24 94.04 70.04 54.27-22.57-38.69-33.32-175.68-47.83-268.38-12.14-77.53-18.8-185.04-26.2-269.77-10.22-117-38.17-289.065-67.64-354.486-18.95-42.057-50.72-84.202-104.43-126.199-39.39-30.791-73.18-39.118-104.56-49.041-44.55-14.083-88.67-22.4-119.69-22.555-50.2-.252-117.79.844-195.73 41.605-59.48 31.105-103.45 62.952-148.145 137.441-56.377 93.961-134.542 330.955-134.542 330.955Z" fill="#464ba8"/><path d="M905.407 1370.2c-82.045 127.92-258.033 198.99-264.049 267.67-7.747 88.45 4.246 204.16 31.109 222.75 42.664 29.54 246.581-186.17 281.499-276.55 35.128-90.92 40.81-203.79 84.724-374.01 43.91-170.21 106.13-313.803 106.13-313.803s-27.46 10.218-87.58 129.643c-60.12 119.43-102.448 267.31-151.833 344.3Zm714.523-398.675s29.3 61.385 44.99 137.715c15.7 76.33 20.07 82.94 17.78 167.59-2.29 84.65-17.01 146.54-14.72 170.56 2.28 24.03 3.13 88.68 19.44 125.83 21.29 48.5 141.2 197.15 91.43 158.53-49.76-38.62-150.98-97.4-165.85-160.25-9.75-41.19 6.77-138.96 25.35-210.69 18.59-71.72 17.79-134.26 11.38-198.04-5.52-54.94-24.08-135.19-24.08-135.19l-5.72-56.055Z" fill="#383c85"/><path d="M855.273 1302.11s-29.09 4.28 10.07-91.95c26.136-64.23 90.736-232.217 161.557-350.675 42.7-71.429 120.42-123.931 120.42-123.931s-63.53 88.669-78.13 124.565c-35.6 87.47-84.172 220.121-120.543 307.711-51.298 123.52-93.374 134.28-93.374 134.28m587.297-522.626 127.57 158.634-99.88-153.469s-64.08-83.721-67.67-78.715c-3.6 5.007 39.98 73.55 39.98 73.55Zm-112.6 4.105c28.24 41.652 92.68 118.431 92.68 118.431l-62.22-102.983s-40.16-61.127-50.76-63.623c-10.59-2.495-7.95 6.524 20.3 48.175Z" fill="#383c85"/><path d="M1240.69 747.337c19.89 50.69 97.68 150.438 97.68 150.438s-86.26-200.15-101.96-219.597c-15.69-19.448-15.62 18.468 4.28 69.159Zm394 180.727s-139.65-226.712-159.6-233.469c-19.95-6.757 159.6 233.469 159.6 233.469ZM742.128 1433.03s113.717-305.27 177.384-456.356c45.451-107.86 65.753-152.732 65.753-152.732l52.965-75.878s82.72-68.561 68.5-33.337c-14.22 35.225-61.49 76.913-103.99 143.907-42.494 66.994-95.25 203.796-95.25 203.796l-165.362 370.6Z" fill="#4f53b4"/><path d="m3653.13 486.972-142.99-58.088-9.19 196.01-101.53-16.574s3.49 170.681 12.43 228.997c18.51 120.824 88.27 278.983 88.27 278.983s4.52-151.907 57.74-229.889c53.21-77.981 92.75-88.548 138.47-98.669 79.94-17.696 149.16 3.594 178.03 14.533 36.53 13.841 101.05 38.249 142.42 108.346 41.37 70.096 70.21 147.449 70.21 147.449s47.31-112.109 85.6-106.157c13.63 2.119 36.92 15.534 47.35 36.658 18.87 38.209 20.21 93.309 20.21 93.309s14.74-17.41 20.82-41.93c14.01-56.478 23.54-160.186-2.61-243.503-15.3-48.733-55.89-135.326-116.18-191.866-87.53-82.086-200.14-127.884-200.14-127.884s-17 21.875-57.49 17.816c-40.48-4.059-50.09-1.237-104.44-34.051-50.25-30.332-90.32-94.016-101.13-93.59-24.3.959-25.85 120.1-25.85 120.1Z" fill="#2e3273"/><path d="M3451.53 689.102c-8.06 25.049 34.73 302.352 34.73 302.352s27.69-182.885 68.77-282.944c41.09-100.06 32.88-64.008 38.97-38.724 6.08 25.285 8.17-40.827 30.31-63.626 22.13-22.8 74.06 34.27 74.06 34.27l-67.67-99.324s67.28 32.37 95.17 48.214c27.89 15.843 152.93 62.095 199.7 104.747 25.28 23.051 127.1 131.643 127.1 131.643l-154-208.976s112.16 58.807 176.67 130.309c64.5 71.501 85.16 152.597 89.2 157.288 4.58 5.309-26.2-108.476-67.41-167.49-54.32-77.793-122.53-151.528-122.53-151.528s126.48 54.277 184.66 139.472c42.25 61.86 84.85 166.4 86 159.177 1.16-7.224-21.98-131.667-77.7-213.494-73.79-108.353-230.09-171.247-230.09-171.247l20.37 37.72-90.53-10.562 62.81 71.07s-63.9-22.024-128.44-63.526c-31.09-19.99-58.17-30.411-79.21-49.79-20.57-18.934-40.74-56.936-40.74-51.299 0 23.386-1.04 96.382-1.04 96.382s-108.75-55.03-147.57-59.042c-17.94-1.855-3.77 175.654-3.77 175.654s-69.76 18.224-77.82 43.274Z" fill="#464ba8"/><path d="M3484.4 751.152c-2.33 48.58 1.38 133.699 1.38 133.699s17.24-69.857 25.45-112.881 7.57-37.371 7.4-59.216c-.17-21.844-1.2-35.792-7.66-38.771-6.45-2.978-24.25 28.59-26.57 77.169Zm257.59-195.821c27.83 21.333 37.6 25.724 71.62 44.984s83.49 44.494 83.49 44.494-66.11-61.989-101.19-88.726c-35.07-26.738-56.71-36.342-56.71-36.342s-39.74-13.734-36.89-4.76c2.85 8.974 11.86 19.016 39.68 40.35Zm343.99 72.138c38.26 38.505 103.2 113.446 103.2 113.446s-38.96-73.262-76.67-117.533-106.7-74.033-107.25-68.267c-.56 5.767 42.46 33.849 80.72 72.354Z" fill="#4f53b4"/></g></svg>