<svg stroke-miterlimit="10" style="fill-rule:nonzero;clip-rule:evenodd;stroke-linecap:round;stroke-linejoin:round" viewBox="0 0 5000 5000" xml:space="preserve" xmlns="http://www.w3.org/2000/svg" xmlns:vectornator="http://vectornator.io"><defs><linearGradient gradientTransform="matrix(1.07299 0 0 1.12207 -203.734 -238.476)" gradientUnits="userSpaceOnUse" id="b" x1="2450.23" x2="2724.85" y1="2191.52" y2="2208.73"><stop offset="0" stop-color="#6375f4"/><stop offset="1" stop-color="#3fc1bf"/></linearGradient><linearGradient gradientUnits="userSpaceOnUse" id="c" x1="2372.76" x2="2493.57" y1="821.209" y2="821.209"><stop offset="0" stop-color="#7ec9cf"/><stop offset="1" stop-color="#6272f5"/></linearGradient><linearGradient gradientUnits="userSpaceOnUse" id="d" x1="2477.43" x2="2618.42" y1="847.666" y2="847.666"><stop offset="0" stop-color="#7ec9cf"/><stop offset="1" stop-color="#6272f5"/></linearGradient><linearGradient gradientUnits="userSpaceOnUse" id="e" x1="2614.51" x2="2727.82" y1="827.358" y2="827.358"><stop offset="0" stop-color="#7ec9cf"/><stop offset="1" stop-color="#6272f5"/></linearGradient><linearGradient gradientUnits="userSpaceOnUse" id="f" x1="2547.35" x2="2729.2" y1="955.998" y2="955.998"><stop offset="0" stop-color="#7ec9cf"/><stop offset="1" stop-color="#6272f5"/></linearGradient><linearGradient gradientUnits="userSpaceOnUse" id="g" x1="2478.81" x2="2614.86" y1="977.18" y2="977.18"><stop offset="0" stop-color="#7ec9cf"/><stop offset="1" stop-color="#6272f5"/></linearGradient><linearGradient gradientUnits="userSpaceOnUse" id="h" x1="2365.84" x2="2527.03" y1="942.394" y2="942.394"><stop offset="0" stop-color="#7ec9cf"/><stop offset="1" stop-color="#6272f5"/></linearGradient><linearGradient gradientUnits="userSpaceOnUse" id="i" x1="2427.78" x2="2675.79" y1="762.006" y2="762.006"><stop offset="0" stop-color="#7ec9cf"/><stop offset="1" stop-color="#6272f5"/></linearGradient></defs><clipPath id="a"><path d="M0 0h5000v5000H0z"/></clipPath><g clip-path="url(#a)" vectornator:layerName="Слой 2"><path d="M1263.37 224.099c-69.51 7.864-181.48 26.618-216.34 32.396-161.607 26.79-629.852 136.594-784.965 520.019C73.4937 1242.65 386.573 1505 337.681 2095.28c-48.892 590.28-223.346 474.68-271.183 1042.35-47.8374 567.67 57.225 1227.6 57.225 1227.6s-14.729 448.56 450.888 517.66c465.619 69.1 861.899-276.48 1738.469-272.29 876.57 4.19 1191.71 255.6 1767.79 289.05 576.08 33.44 562.6-228.75 643.12-560.12 136.36-561.15 101.27-431.39 152.2-1364.05 50.93-932.65 48.8-1842.15-202.67-2045.465-360.28-291.287-288.2-322.315-775.53-309.403-487.33 12.912-525.93 17.574-754.88-34.895-244.35-55.997-267.12-271.887-748.88-391.135-177.83-44.017-357.57-57.878-518.01-51.357-292.76 11.899-534.18 71.976-612.85 80.874Z" fill="#030303"/><path d="M324.832 711.332c-24.989 88.627-11.197 826.418 164.206 825.358 69.061-.42-58.419-452.02 62.978-617.153 124.723-169.66 321.009-276.924 345.206-227.345 47.748 97.837-14.779 196.719 230.518 245.132 110.65 21.839 793.38-382.384 518.17-352.47-254.33 27.645-452.56 5.621-557.47-65.772-88.707-60.372-39.82-262.058-39.82-262.058s-37.78 2.55-64.124 8.409c-236.613 52.63-304.495 88.484-426.854 166.433-165.925 105.704-207.822 190.84-232.81 279.466Z" fill="#7ec9cf"/><path d="M833.728 4749.4c-44.983 101.12-279.687 162.12 30.782 134.03 305.16-27.6 736.47-156.32 1215.45-176.13 478.99-19.81 1042.74 65.21 1042.74 65.21s368.16 108.81 603.38 152.79c120.15 22.46 454.44 82.94 678 42.76 168.83-30.35 228.59-247.88 255.63-336.58 47-154.15-70.57-35.54-401.57-44.62-331.01-9.09-481.86 62.41-922.45 8.26-440.59-54.15-683.65-315.71-1130.56-246.5-446.9 69.22-388.05 141.47-730.9 241.67-342.85 100.19-595.519 58-640.502 159.11ZM423.689 538.555s-74.648 260.344-36.029 263.198c40.922 3.024 195.274-249.128 196.439-162.386 1.317 98.059-115.518 225.917-156.36 349.689-29.383 89.044 5.01 223.924 5.01 223.924s79.843 549.16 29.211 841.27c-43.643 251.78-123.951 228.02-190.845 496.58-34.682 139.24 1.978 410.77 3.895 523.85 2.441 144.04 19.264 520.39-152.11 380.18-92.5862-75.76-71.2526-435.01-36.8575-601.67 54.4115-263.64 176.6825-314.73 204.3375-761.54 27.654-446.8-107.27-667.73-93.719-1025.69 13.55-357.964 227.028-527.405 227.028-527.405Z" fill="#001d56"/><path d="M3241.53 710.515c-93.96 14.588-123.65 201.657 104.64 241.409 120.68 21.013 366.71-115.856 492.82-102.433 178.64 19.015 113.24 175.539 342.3 213.189 229.06 37.65 573.95-62.59 573.95-62.59s-37.74-60.579-108.34-126.752c-102.17-95.764-262.61-212.711-388.98-253.949-213.68-69.735-523.56 1.309-523.56 1.309s-385.74 73.189-492.83 89.817Z" fill="#6d74ab"/><path d="M4429.69 863.14c-97.32 12.98-254.21 138-290.18 239.9-70.44 199.61 226.25 551.37 273.03 606.65 17.12 20.23 147.68-355.87 230.58-270.84 143.58 147.26 263.67 778.75 263.67 778.75s2.76-650.33-37.15-848.33c-25.02-124.11-45.58-279.31-140.11-404.611-87.85-116.453-202.52-114.499-299.84-101.519Z" fill="#7ec9cf"/><path d="M1657.52 1795.99c80.69-336.81 379.42-439.04 379.42-439.04s245.67-155.58 523.84-157.04c278.17-1.46 532.15 193.65 590.55 216.98 58.4 23.33 411.47 404.06 411.47 404.06s18.34 968.2 9.12 1009.02c-2.49 11 23.54 207.16 6.99 290.08-8.25 41.32 29.04 533.55-37.42 807.04-25.9 106.6-120.36 170.33-160.33 175.62-45.54 6.03-565.2-161.32-565.2-161.32l-387.97 43.17-275.42 36.35-577.17-11.36s1.44-1876.74 82.12-2213.56Z" fill="#12133a"/><path d="M2899.09 4342.93c168.72-94.68 1264.68 168.06 1445.68 181.24 180.99 13.18 450.54-478.77 450.54-478.77s-87.39 668.17-269.76 864.99c-169.06 182.46-366.58-72.49-612.23-122.68-245.65-50.18-130.93-122.66-192.17-163.1-61.24-40.44-990.77-187-822.06-281.68Z" fill="#7ec9cf"/><path d="m845.357 1175.9 101.909 75.11s239.014 229.9 368.494 400.7c129.48 170.8 158.14 260.73 149.43 282.5-8.71 21.78-13.38 328.72-13.38 328.72l8.68 1828.03-727.427 377V1115.65l112.294 60.25Z" fill="#ccd5ff"/><path d="M1307.38 1835.33c-6.35-27.67 1.25-53.02 16.96-56.62 15.71-3.61 33.58 15.9 39.93 43.57 6.34 27.67-1.25 53.02-16.96 56.62-15.71 3.6-33.59-15.91-39.93-43.57Z" fill="#7ec9cf"/><path d="M858.485 1607.93c0-47.89 32.096-86.71 71.689-86.71 39.593 0 71.686 38.82 71.686 86.71 0 47.89-32.093 86.71-71.686 86.71s-71.689-38.82-71.689-86.71Z" fill="#edb2e8"/><path d="M904.11 1604.82c0-17.54 13.162-31.75 29.399-31.75 16.236 0 29.398 14.21 29.398 31.75s-13.162 31.75-29.398 31.75c-16.237 0-29.399-14.21-29.399-31.75Z" fill="#7ec9cf"/><path d="M1064 2930.65c-31.45 7.48-158.848 65.34-210.834 19.72-51.987-45.63 36.214-234.86 11.963-384.52-24.252-149.66-32.16-18.34-55.183-129.65-23.022-111.31-54.786-271.92-24.59-382.88 30.195-110.96 28.521-101.18 99.08-161 70.559-59.81 138.574 26.81 183.274-16.17 44.69-42.98-40.7-107.03-4.49-155.75 36.2-48.71 193.88-28.68 204.64 26.99 11.44 59.18-38.2 61.16-38.79 109.07-.59 47.91 7.93 32.28 24.71 57.93s39.74 39.91 60.48 91.08c20.74 51.17 7.71 29.49 22.48 113.6 14.77 84.1-33.59 202.24-33.59 202.24l-99.97 381.2s28.17 57.91 58.98 102.44c30.81 44.52 109.52 42.86 108.99 152-.38 78.81-33.9 118.73-39.97 193.94-2.23 27.64-28.99 103.02-26.07 162.2 5.03 101.86 42.32 194.71 42.32 194.71l-102.44 124.68s-129.72-140.19-228.26-176.07c-98.528-35.88-139.038 88.09-165.873 32.55-26.835-55.55-5.169-132.35 58.537-254.74 63.707-122.38 165.216-168.71 196.286-234.81 31.08-66.11-10.22-76.25-41.68-68.76Z" fill="#7277dd"/><path d="M909.812 3553.33c72.488-201.1 223.948-336.71 338.288-302.87 114.35 33.83 148.28 224.29 75.79 425.39-72.49 201.11-223.94 336.71-338.288 302.88-114.345-33.83-148.277-224.29-75.79-425.4Z" fill="#8589d4"/><path d="M906.37 3664.6c28.76-160.52 144.99-306.17 259.61-325.32 114.61-19.14 184.21 95.46 155.45 255.98-28.76 160.52-144.98 306.17-259.6 325.32-114.618 19.15-184.219-95.46-155.46-255.98Z" fill="#a8acf5"/><path d="M830.439 3060.94c20.625-33.93 52.59-52.16 71.396-40.72 18.805 11.43 17.33 48.2-3.296 82.12-20.625 33.93-52.59 52.16-71.395 40.72-18.805-11.43-17.33-48.2 3.295-82.12Z" fill="#2e306d"/><path d="M980.041 3562.33c61.139-166.24 180.099-291.21 265.709-279.14 85.61 12.08 105.45 156.63 44.31 322.86-61.14 166.23-180.1 291.21-265.71 279.13-85.61-12.07-105.447-156.62-44.309-322.85Z" fill="#7277dd"/><path d="m1053.18 3200.64-6.17 67.4-69.117-.17 18.788 65.95-55.244 27.69 46.105 39.08-42.913 54.77 57.621 21.8-26.945 67.4 67.665-4.01-5.89 69.78 61.52-23.58.8 73.35 53.39-40.66 28.89 60.99 40.93-63.4 70.61 27.29 10.01-72.4 76.12-1.79-29.12-71.84 67.92-21.37-44.91-49.59 40.92-50.75-56.8-19.22 31.14-61.34-64.17-3.93 14.16-66.14-67.44 11.67-20.98-59.89-53.58 41.99-42.33-48.22-37.46 64.27-63.52-35.13Z" fill="#edb2e8"/><path d="m1102.33 2000.69-52.34 51.14-46.94-42.72-24.064 60.77-70.585-32.82-7.033 80.96-73.689 1.94 22.545 69.05-61.974 24.67 36.703 57.17-62.576 48.13 45.729 43.32-51.746 55.36 55.962 39.21-47.404 49.26 58.712 32.65-48.603 72.56 78.932 3.71-20.652 76.07 77.567-2.99-9.189 84.42 90.095-29.85 37.22 82.4 58.35-70.71 66.68 51.43 19.64-77.68 85.28 16.23-13.38-80.76 88.42-5.27-43-76.23 89.26-21.87-66.72-70.43 66.83-53.39-53.81-44.15 51.9-76.75-174.05-4.91-102.07-309.92Z" fill="#7ec9cf"/><path d="M828.346 2402.6c0-182.95 104.903-331.26 234.304-331.26 129.41 0 234.31 148.31 234.31 331.26s-104.9 331.25-234.31 331.25c-129.401 0-234.304-148.3-234.304-331.25Z" fill="#6c74e1"/><path d="M880.106 2397.37c0-161.17 85.064-291.83 189.994-291.83s189.99 130.66 189.99 291.83c0 161.18-85.06 291.83-189.99 291.83s-189.994-130.65-189.994-291.83Z" fill="#5b61bc"/><path d="M903.799 2398.7c0-144.01 73.838-260.75 164.921-260.75 91.08 0 164.92 116.74 164.92 260.75s-73.84 260.75-164.92 260.75c-91.083 0-164.921-116.74-164.921-260.75Z" fill="#edb2e8"/><path d="M1094.44 2160.1c-23.28-117.34 26.14-226.27 110.39-243.29 84.25-17.02 171.41 64.3 194.69 181.64 23.28 117.34-26.15 226.26-110.39 243.28-84.25 17.03-171.42-64.3-194.69-181.63Z" fill="#8589d4"/><path d="M1499.35 1803.49c0-379.62 459.88-687.37 1027.18-687.37 567.29 0 1027.18 307.75 1027.18 687.37s-459.89 687.37-1027.18 687.37c-567.3 0-1027.18-307.75-1027.18-687.37Z" fill="#191b45"/><path d="M1543.28 1765.27c3.85-304.51 461.61-600.21 985.94-600.21 524.34 0 934.29 246.7 981.28 585.5 2.84 20.49 5.98 57.33 7.15 83.39 13.08 291.19-498.43 474.79-988.43 474.79-478.24 0-987-459.34-985.94-543.47Z" fill="#b1b7f1"/><path d="M1587.33 1799.92c0-110.06 47.8-213.11 131.06-301.38 163.93-173.79 465.32-290.29 809.99-290.29 519.72 0 942.77 265.53 942.77 592.31 0 10.42.17 27.38-.67 37.67-14.76 179.39-52.46 348.07-266.51 448.26-158.64 74.25-461.42 105.1-675.59 105.1-519.73 0-941.05-264.9-941.05-591.67Z" fill="#181946"/><path d="m3686.38 1652.46 346.87-341.07 298.05-197.81-4.81 3363.59-728.93-344.45 13.15-2345.88 75.67-134.38Z" fill="#ccd5ff"/><path d="M4289.94 1242.5s-55.55.26-78.13 22.32c-22.57 22.07-41.96 74.09-31.82 104.78 10.15 30.69 38.75 60.78 69.79 57.16 31.03-3.62 60.13-74.98 60.13-74.98l-19.97-109.28Z" fill="#7277dd"/><path d="M4139.42 3753.52c-17.01 86.77 59.4 182.18 107.28 218.8 71.99 55.05 68.55-66.77 68.55-66.77s-27.61-47.47-52.31-104.62c-24.7-57.15-109.4-119.4-123.52-47.41Z" fill="#7ec9cf"/><path d="m1821.34 1995.14-200.03 194.14 221.6 352.98 427.93-30.17 164.3 59.59 592.23-39.22 315.72-21.57 100.02-560.86s-47.07-152.96-54.91-194.14c-7.85-41.18-549.09 7.84-549.09 7.84l-839.32 182.38-178.45 49.03Z" fill="#12133a"/><path d="m3547.03 1838.07 147.56-209.83 118.26-159.66 142.04-157.42 126.41-109.84 119.44-78.06 113.53-67.41 47.57-12.29-12.09 54.87-21.96 46.49-179.18 113.78-177.09 140.42-173.71 183.18L3626 1831.64l-78.97 6.43Z" fill="#51589d"/><path d="M3753.02 1669.94c-52.21 63.31-103.71 154.52-103.71 154.52l-36.16-1.33s38.47-79.69 113.72-174.37c75.26-94.68 123.61-147.94 216.26-241.72 92.65-93.78 177.57-157.79 244.19-206.4 52.87-38.59 137.3-77.8 137.3-77.8l-2.67 39.71s-67.54 32.35-152.63 92.3c-68.72 48.41-149.03 122.7-202.97 176.7-128.67 128.83-170.52 186.47-213.33 238.39Z" fill="#181946"/><path d="M716.873 4446.76 1476 4093.42l27.02 70.02-769.705 353.79-16.442-70.47Z" fill="#51589d"/><path d="m3635.74 4076.77-11.98 27.3 705.9 379.47-5.31-37.49-688.61-369.28Z" fill="#181946"/><path d="M3992.06 1643.98c45.55 28.64 117.11-22.03 196.89 43.65 79.77 65.69 129.8 210.67 153.3 196.13 103.71-64.2 17.13-189.17-50.51-287.53-33.55-48.79-100.13-71.21-159.13-79.96-49.8-7.39-126.55 15.9-146.48 34.96-19.94 19.05-39.62 64.11 5.93 92.75Z" fill="#7ec9cf"/><path d="m709.19 1093.24 28.67 4.15c.535 0 7.33 1.9 7.33 2.91 0 0 2.784 3423.31 2.274 3472.36-.002.22-.005.37-.007.45-.001.06-.003.09-.004.09l-42.202 18.6c-.535 0 2.97-15.62 2.97-16.62V1095.06c0-1 .434-1.82.969-1.82Zm3579.91 54.19h36.86c.53 0 .97.79.97 1.77v3372.54c0 .97-.44 1.76-.97 1.76h-36.86c-.53 0-.96-.79-.96-1.76V1149.2c0-.98.43-1.77.96-1.77Z" fill="#181946"/><path d="m3617.03 4133 770.44 395.33-1.88 135.95-816.67-464.52-.4-25.36 48.51-41.4Z" fill="#181946"/><path d="M4324.9 1045.34H4427c1.04 0 1.88.82 1.88 1.84v3504.26c0 1.01-.84 1.84-1.88 1.84h-102.1c-1.04 0-1.88-.83-1.88-1.84V1047.18c0-1.02.84-1.84 1.88-1.84Zm-3710.975-36.47 30.137-12.951 53.664 27.281c1.039 0 20.928 28.82 20.928 29.86l-.752 30.2v3343.67l.007 159.28s-28.522 11.01-31.711 12.29c-13.725 5.52-25.384 10.63-25.384 10.63l-46.889-21.61c-1.038 0-1.88-.84-1.88-1.88V1010.75c0-1.04.842-1.88 1.88-1.88Z" fill="#51589d"/><path d="M1431.01 1782.94h42.48c.61 0 1.11.84 1.11 1.88l-4.58 2337.89c0 1.04-6.32 3.47-6.93 3.47l-32.08 14.97c-.61 0-1.11-.84-1.11-1.88V1784.82c0-1.04.5-1.88 1.11-1.88Zm2175.2 39.86h42.47c.61 0 1.11.84 1.11 1.87V4166.6c0 1.03-.5 1.87-1.11 1.87h-42.47c-.62 0-1.12-.84-1.12-1.87V1824.67c0-1.03.5-1.87 1.12-1.87Z" fill="#181946"/><path d="M1470.27 1802.08h54.65c.74 0 1.35.84 1.35 1.88v2350.85c0 1.04-.61 1.88-1.35 1.88h-54.65c-.74 0-1.34-.84-1.34-1.88V1803.96c0-1.04.6-1.88 1.34-1.88Zm2087.04 18.73h54.65c.74 0 1.35.84 1.35 1.88v2355.14c0 1.04-.61 1.89-1.35 1.89l-54.53-1.57c-.74 0-1.46.72-1.46-.32V1822.69c0-1.04.6-1.88 1.34-1.88Z" fill="#51589d"/><path d="M575.08 978.175h87.011c.818 0 1.48 3.907 1.48 8.725 0 0-.828 3622.52-1.646 3622.52l-86.845.61c-.818 0-1.481-3623.13-1.481-3623.13 0-4.818.663-8.725 1.481-8.725Zm3810.34 39.595h87.01c.82 0 1.48 3.92 1.48 8.76v3628.98c0 4.84-.66 8.76-1.48 8.76h-87.01c-.82 0-1.48-3.92-1.48-8.76V1026.53c0-4.84.66-8.76 1.48-8.76Z" fill="#181946"/><path d="m3512.92 1870.05 43.78 9.73.65-42.67 68.52-111.66s117.47-161.7 194.78-250.3c77.31-88.6 254.79-261.43 342.66-318.35 78.14-50.61 157.74-99.35 236.67-101.5 90.79-2.48 10.32-39.05-14.86-37.57-64.62 3.81-132.95 49.6-179.96 74.38-81.26 42.82-224.09 169.36-282.48 226.25-74.36 72.46-98.24 96.39-170.1 181.73-71.87 85.34-159.69 202.68-206.85 266.82-47.16 64.15-27.22 80.87-27.22 80.87l-5.59 22.27Z" fill="#181946"/><path d="m663.825 1091.47 125.096 43.44 228.499 189.4s186.01 168.12 190.11 184.86c2.9 11.86 157.76 170.48 225.34 268 30.48 44 41.22 53.36 41.22 53.36l60.32 17.17-43.17-109.31-199.86-258.72s-129.96-156.71-146.96-169.59c-17-12.88-187.107-139.75-187.107-139.75L762.11 1051.12l-99.168-46.23.883 86.58Z" fill="#51589d"/><path d="M657.577 1010.81s215.068 89.22 423.653 277.61c208.59 188.4 423.06 486.93 423.06 486.93l21.21-43.48s-33.34-34.43-139.85-163.1c-135.8-164.05-120.97-152.1-278.44-300.33-207.831-195.64-444.964-290.324-444.964-290.324l-4.669 32.694Z" fill="#181946"/><path d="M605.989 1020.27h25.818c4.506 0 8.16 3.59 8.16 8.02v3553.8c0 4.43-3.654 8.03-8.16 8.03h-25.818c-4.506 0-8.16-3.6-8.16-8.03v-3553.8c0-4.43 3.654-8.02 8.16-8.02Zm3811.341 27.17h25.82c4.5 0 8.16 3.63 8.16 8.09v3582.39c0 4.47-3.66 8.09-8.16 8.09h-25.82c-4.51 0-8.16-3.62-8.16-8.09V1055.53c0-4.46 3.65-8.09 8.16-8.09Z" fill="#313481"/><path d="M1604.93 3799.84h1853.91c1.08 0 1.95.84 1.95 1.88v336.83c0 1.04-.87 1.88-1.95 1.88H1604.93c-1.08 0-1.96-.84-1.96-1.88v-336.83c0-1.04.88-1.88 1.96-1.88Z" fill="#0a0b29"/><path d="M1502.47 4067.81H3566.1c1.12 0 2.04 1.11 2.04 2.48v120.29c0 1.36-.59 2.24-1.72 2.24 0 0-1.18-.28-3.1-.28-1.93 0-.27.19-4.35.21-4.07.03 3.21-.05-11.96-.1-15.17-.04-49.28.22-49.28.22l-1962.77-.06c-515.91 0-32.49.24-32.49.24-1.13 0-2.05-1.11-2.05-2.47v-120.29c0-1.37.92-2.48 2.05-2.48Z" fill="#7981cf"/><path d="M1503.66 4067.23h2062.79c1.13 0 2.04 1.15 2.04 2.56v124.64c0 1.42-.91 2.57-2.04 2.57H1503.66c-1.13 0-2.04-1.15-2.04-2.57v-124.64c0-1.41.91-2.56 2.04-2.56Z" fill="#181946"/><path d="M1633.22 3308h1827.07c1.04 0 1.88.84 1.88 1.88v530.4c0 1.04-.84 1.88-1.88 1.88H1633.22c-1.04 0-1.88-.84-1.88-1.88v-530.4c0-1.04.84-1.88 1.88-1.88Z" fill="#6e73d7"/><path d="M1629.6 3342.45h1812.3c1.01 0 1.83.84 1.83 1.88v45.35c0 1.04-.82 1.88-1.83 1.88H1629.6c-1.01 0-1.83-.84-1.83-1.88v-45.35c0-1.04.82-1.88 1.83-1.88Z" fill="#3e4092"/><path d="M1632.92 3550.09h1832.35c.88 0 1.6.99 1.6 2.21v126.4c0 1.22-.72 2.21-1.6 2.21H1632.92c-.88 0-1.6-.99-1.6-2.21v-126.4c0-1.22.72-2.21 1.6-2.21Zm-31.7-397.11h1860.63c1.01 0 1.84.79 1.84 1.76v173.85c0 .97-.83 1.76-1.84 1.76H1601.22c-1.01 0-1.84-.79-1.84-1.76v-173.85c0-.97.83-1.76 1.84-1.76Z" fill="#272a67"/><path d="M718.001 1133.1s222.701 127.39 343.489 245.83c120.79 118.43 195.35 208.62 269.89 310.14 78.11 106.37 118.64 186.59 118.64 186.59l19.08-50.97s-35.85-66.96-124.72-182.01c-61.46-79.57-182.49-219.46-245.65-282.83-143.29-143.76-381.734-278.09-381.734-278.09l1.005 51.34Z" fill="#181946"/><path d="M2259.5 2910.04h83.37c1.04 0 1.88.85 1.88 1.88v212.15c0 1.04-.84 1.88-1.88 1.88h-83.37c-1.03 0-1.88-.84-1.88-1.88v-212.15c0-1.03.85-1.88 1.88-1.88Z" fill="#404397"/><path d="M2190.21 2965.23h457.84c1.04 0 1.88.84 1.88 1.88v106.21c0 1.04-.84 1.88-1.88 1.88h-457.84c-1.04 0-1.88-.84-1.88-1.88v-106.21c0-1.04.84-1.88 1.88-1.88Z" fill="#404397"/><path d="M2639.16 2888.26h821.46c1.04 0 1.88.84 1.88 1.88v263.37c0 1.04-.84 1.88-1.88 1.88h-821.46c-1.04 0-1.88-.84-1.88-1.88v-263.37c0-1.04.84-1.88 1.88-1.88Z" fill="#3e4092"/><path d="M2272.75 2926.82h56.73c.61 0 1.11.57 1.11 1.28v179.96c0 .71-.5 1.28-1.11 1.28h-56.73c-.62 0-1.11-.57-1.11-1.28V2928.1c0-.71.49-1.28 1.11-1.28Zm-75.28 52.81h57.63c.66 0 1.2.61 1.2 1.36v76.66c0 .75-.54 1.36-1.2 1.36h-57.63c-.66 0-1.2-.61-1.2-1.36v-76.66c0-.75.54-1.36 1.2-1.36Zm149.94 3.66h288.73c.64 0 1.16.41 1.16.92v73.67c0 .51-.52.92-1.16.92h-288.73c-.64 0-1.16-.41-1.16-.92v-73.67c0-.51.52-.92 1.16-.92Z" fill="#939ae1"/><path d="M2144.21 2470.42h1302.45c1.09 0 1.97.84 1.97 1.88v88.14c0 1.04-.88 1.88-1.97 1.88H2144.21c-1.08 0-1.96-.84-1.96-1.88v-88.14c0-1.04.88-1.88 1.96-1.88Z" fill="#0a0b29"/><path d="M2144.3 2470.42h1358.68c1.13 0 2.05.84 2.05 1.88v88.14c0 1.04-.92 1.88-2.05 1.88H2144.3c-1.13 0-2.05-.84-2.05-1.88v-88.14c0-1.04.92-1.88 2.05-1.88Z" fill="#0a0b29"/><path d="M3231.12 2050.58h173.34c1.07 0 1.95.84 1.95 1.88v589.06c0 1.04-.88 1.88-1.95 1.88h-173.34c-1.08 0-1.95-.84-1.95-1.88v-589.06c0-1.04.87-1.88 1.95-1.88Z" fill="#373d89"/><path d="M3142.48 2023.4h314.83c.89 0 1.62.8 1.62 1.78v218.07c0 .98-.73 1.78-1.62 1.78h-314.83c-.89 0-1.62-.8-1.62-1.78v-218.07c0-.98.73-1.78 1.62-1.78Z" fill="#373d89"/><path d="M3299.38 2058.67h155.51c1.03 0 1.88 1.07 1.88 2.38v145.97c0 1.31-.85 2.37-1.88 2.37h-155.51c-1.04 0-1.88-1.06-1.88-2.37v-145.97c0-1.31.84-2.38 1.88-2.38Z" fill="#5155b1"/><path d="M1641.32 1762.77c0-79 82.69-226.12 157.5-285.13 162.35-128.06 443.73-222.36 737.55-222.36 443.35 0 879.27 211.43 897.95 570.21 11.96 229.69-454.6 277.89-897.95 277.89-255.37 0-903.39 82.12-903.39 82.12s8.34-323.43 8.34-422.73Z" fill="#12133a"/><path d="M2121.08 2630.77h1347.55c1.06 0 1.91.62 1.91 1.38v169.1c0 .76-.85 1.38-1.91 1.38H2121.08c-1.05 0-1.91-.62-1.91-1.38v-169.1c0-.76.86-1.38 1.91-1.38Z" fill="#393d89"/><path d="M3261.13 2074.42h116.69c1.04 0 1.88.72 1.88 1.62v553.32c0 .9-.84 1.62-1.88 1.62h-116.69c-1.04 0-1.88-.72-1.88-1.62v-553.32c0-.9.84-1.62 1.88-1.62Zm-1099.77 585.42h1306.06c1.01 0 1.83.84 1.83 1.88v112.33c0 1.04-.82 1.88-1.83 1.88H2161.36c-1.01 0-1.83-.84-1.83-1.88v-112.33c0-1.04.82-1.88 1.83-1.88Z" fill="#5155b1"/><path d="M2965.17 1818.52h389c.99 0 1.78.79 1.78 1.77v545.19c0 .97-.79 1.76-1.78 1.76h-389c-.99 0-1.78-.79-1.78-1.76v-545.19c0-.98.79-1.77 1.78-1.77Z" fill="#8994c4"/><path d="M1601.39 2274.56h593.08c1.03 0 1.86.81 1.86 1.82v878.11c0 1-.83 1.82-1.86 1.82h-593.08c-1.03 0-1.86-.82-1.86-1.82v-878.11c0-1.01.83-1.82 1.86-1.82Z" fill="#3e4192"/><path d="M2982.9 1834.64h355.41c1.25 0 2.26.81 2.26 1.81v513.48c0 1.01-1.01 1.82-2.26 1.82H2982.9c-1.25 0-2.26-.81-2.26-1.82v-513.48c0-1 1.01-1.81 2.26-1.81Z" fill="#ccd5ff"/><path d="M1956.21 1472.02h462.09c.86 0 1.56.77 1.56 1.71v617.07c0 .94-.7 1.71-1.56 1.71h-462.09c-.86 0-1.56-.77-1.56-1.71v-617.07c0-.94.7-1.71 1.56-1.71Z" fill="#8994c4"/><path d="M1973.08 1492.19h426.2c.98 0 1.78.64 1.78 1.43v579.81c0 .79-.8 1.43-1.78 1.43h-426.2c-.98 0-1.78-.64-1.78-1.43v-579.81c0-.79.8-1.43 1.78-1.43Z" fill="#ccd5ff"/><path d="M2317.19 1641.54s-230.52 126.91-250.96 228.01c-20.43 101.1 169.22 176.39 169.22 176.39s166.35 21.51 146.27-55.93c-20.07-77.44-126.55-32.98-140.53-103.25-13.98-70.27 76-245.22 76-245.22Z" fill="#f2a1d2"/><path d="M2262.4 1638.85c14.53 85.96-217.29 73.58-214.24 141.79 3.06 68.2 107.17 112.18 181.93 64.36 74.77-47.81 191.02-170.13 117.13-255.63-40.18-46.5-267.87-59.27-319.39-56.37-51.52 2.91 220.04 19.9 234.57 105.85Z" fill="#7277dd"/><path d="M2173.14 1342.71c4.97 22.85 29.16 46.3 29.16 46.3s23.24-25.29 24.69-47.33c1.46-22.04-20.41-47.02-20.41-47.02l24.25-6.02s24.31 19.12 23.95 49.61c-.37 30.49-26.86 65.36-26.86 65.36s49.91 40.11 54.02 57.5c.9 3.78 1.03 13.96 1.38 11.88.36-2.07-39.1-.47-39.1-.47s.66-.25-.31-7.36c-3.04-22.33-43.97-42.52-43.97-42.52s-27.33 21.74-32.26 50.81c-4.93 29.08 18.53 77.65 18.53 77.65s-52.06-39.41-52.06-77.94c0-26.08 45.51-64.6 45.51-64.6s-35.34-44.46-34.3-72.71c1.04-28.25 33.89-35.57 33.89-35.57s-11.07 19.58-6.11 42.43Zm1029.65 100.73-342.89 495.22 124.81 348.37-240.26-366.37 361.08-535.28s18.67 8.64 43.1 22.91 54.16 35.15 54.16 35.15Z" fill="#1a2659"/><path d="m3200.87 1443.05-98.59 73.92 317.31 428.62-97.91 328.62 182.76-353.33-217.34-362.51-86.23-115.32Z" fill="#1a2659"/><path d="M1672.69 1567.44h166.78c.49 0 .88.72.88 1.61v691.15c0 .89-.39 1.61-.88 1.61h-166.78c-.49 0-.89-.72-.89-1.61v-691.15c0-.89.4-1.61.89-1.61Z" fill="#3e4192"/><path d="M1674.16 1564.9h1755.98c1 0 1.81.84 1.81 1.88v169.62c0 1.03-.81 1.88-1.81 1.88H1674.16c-1 0-1.81-.85-1.81-1.88v-169.62c0-1.04.81-1.88 1.81-1.88Zm-49.23 597.21h273.22c.92 0 1.66.53 1.66 1.19v114.96c0 .66-.74 1.2-1.66 1.2h-273.22c-.91 0-1.66-.54-1.66-1.2V2163.3c0-.66.75-1.19 1.66-1.19Z" fill="#3e4192"/><path d="M1700.36 1598.8h114.94c.74 0 1.33.65 1.33 1.46v655.2c0 .81-.59 1.46-1.33 1.46h-114.94c-.74 0-1.33-.65-1.33-1.46v-655.2c0-.81.59-1.46 1.33-1.46Z" fill="#8e92ee"/><path d="M1649.81 2185.27h223.51c.76 0 1.37.53 1.37 1.17v70.09c0 .64-.61 1.17-1.37 1.17h-223.51c-.76 0-1.37-.53-1.37-1.17v-70.09c0-.64.61-1.17 1.37-1.17Z" fill="#7276dd"/><path d="M1790.63 1598.53h1618.1c1.09 0 1.97.59 1.97 1.33v106.87c0 .73-.88 1.33-1.97 1.33h-1618.1c-1.09 0-1.97-.6-1.97-1.33v-106.87c0-.74.88-1.33 1.97-1.33Z" fill="#8e92ee"/><path d="M2355.86 2105.55c7.85-38.67-2.99-62.45-2.99-62.45s87.38-49.3 205.88-49.93c122.54-.64 202.76 57.03 202.76 57.03s-11.68 21.55-11.29 45.85c.39 24.31 21.4 62.53 21.4 62.53s-13.1 67.07-52.25 146.28c-39.16 79.22-155.05 186.22-155.05 186.22s-104.71-65.29-158.11-152.66c-58.14-95.14-76.12-176.26-76.12-176.26s17.93-17.95 25.77-56.61Z" fill="#4855b2"/><path d="M2392.87 2057.99s86.69-25.91 159.23-28.05c84.85-2.5 163.88 33.26 163.88 33.26s-9.76 31.87-3.46 61.77c6.3 29.89 22.73 56.33 22.73 56.33s-26.32 80.49-68.48 145.57c-35.2 54.33-106.99 119.96-106.99 119.96s-85.39-61.74-125.91-136.2c-40.52-74.45-63.54-144.57-63.54-144.57s15.61-25.82 21.62-49.2c6-23.39.92-58.87.92-58.87Z" fill="url(#b)"/><path d="M2518.67 2111.56c-28.15 26.1-89.04 34.29-89.38 52.54-.34 18.25 78.29 9.04 114.62-10.92 36.34-19.95 37.77-39 34.12-62.08-2.05-12.97-6.82-48.45-36.16-31.39-29.34 17.06 4.94 25.76-23.2 51.85Z" fill="#fff" fill-opacity=".488723"/><path d="m2529.81 1585.62 1-36.88 28.06 21.61 32.51-20.48.81 32.98 331.4 419.37-219.19 330.05 120.62-308.54-266.6-307.27-270.08 317.94 97.68 269.71-203.79-264.61 347.58-453.88Z" fill="#293980"/><path d="M2532.97 1604.27c-88.62 112.47-332.55 437.01-332.55 437.01l169.29 231.93-98.19-241.25 287.82-338.18 284.39 329.72-107.5 242.09 168.45-263.25s-236.35-306.22-312.57-398.87c-19.32-23.49-48.77-12.36-59.14.8Z" fill="#4a60c4"/><path d="M2524.72 1256.01s-18.12 6.67-17.64 34.36c.37 20.98 72.53 81.33 71.39 106.39-1.12 24.64-69.49 92.11-74 127.6-2.93 23.1 36.46 61.26 36.46 61.26l17.75-15.26s-29.24-28.38-28.39-43.25c2.15-37.52 69.46-103.84 69.23-131.3-.22-25.73-71.75-90.57-72.25-109.34-.4-15.24 23.17-25.91 23.17-25.91s24.75 11.79 23.29 23.85c-2.87 23.67-65.71 91.56-66.18 114.2-.55 26.2 74.45 98.51 78.63 123.98 2.57 15.69-26.85 47.72-26.85 47.72l20.61 13.95s30.28-43.43 28.4-60.4c-3.82-34.35-79.19-106.51-79.22-124.12-.04-26.97 64.01-91.53 62.43-117.47-1.65-27.1-17.26-26.25-17.26-26.25s-10.04-.41-22.63-.53c-12.6-.12-26.94.52-26.94.52Z" fill="#293980"/><path d="M1950.19 867.569c-3.44 21.728 500.87 42.427 500.87 42.427s-222 255.644-207.18 272.094c14.81 16.44 266.45-206.308 266.45-206.308s7.24 310.848 22.22 309.738c14.97-1.12 37.68-314.212 37.68-314.212s223.34 222.382 239.76 206.902c16.41-15.49-174.11-268.856-174.11-268.856s424.84-43.496 420.59-65.323c-4.26-21.827-437.61-21.985-437.61-21.985s178.86-194.616 167.4-208.053c-11.46-13.436-213.23 154.306-213.23 154.306s-1.18-416.955-15.71-416.591c-14.54.364-42.44 418.048-42.44 418.048s-241.73-188.695-254.25-175.364c-12.52 13.331 204.17 228.689 204.17 228.689s-511.18 22.759-514.61 44.488Z" fill="#fff" fill-opacity=".933605"/><path d="M2263.37 1408.57c18.03 12.61 257.56-431.664 257.56-431.664s132.56 311.554 153.83 305.434c21.28-6.11-68.73-329.896-68.73-329.896s282.62 129.666 288.17 115.716c5.56-13.95-265.95-171.525-265.95-171.525s297.76-103.348 291.02-124.887c-6.73-21.539-317.95 38.732-317.95 38.732s147.02-400.96 125.53-406.698c-21.48-5.738-211.47 383.746-211.47 383.746s-96.59-246.037-113.69-241.624c-17.1 4.414 45.3 259.279 45.3 259.279s-375.33-181.6-381.37-168.372c-6.04 13.228 357.21 221.283 357.21 221.283S2147.3 992.732 2153.8 1009.83c6.5 17.09 295.02-83.355 295.02-83.355s-203.48 469.485-185.45 482.095Z" fill="#fff" fill-opacity=".480968"/><path d="m2429.34 756.7-9.63 5.6-46.65 55.474-6.19 7.843 169.67 249.163 192.69-225.35-1.64-11.206-42.07-66.65-10.06-7.572-76.82-31.952-96.82-6.473-72.48 31.123Z" fill="#2a3276"/><path d="m2372.76 818.124 46.92-55.793 73.88 39.79-28.11 76.13-92.69-60.127Z" fill="url(#c)"/><path d="m2500.95 804.526-23.09 76.698 140.56 5.363-11.79-76.304-105.68-5.757Z" fill="url(#d)"/><path d="m2614.51 809.449 12.06 74.049 101.25-45.463-42.36-66.817-70.95 38.231Z" fill="url(#e)"/><path d="m2628.29 897.275-80.94 165.315 181.85-213.189-100.91 47.874Z" fill="url(#f)"/><path d="m2478.81 894.175 57.86 166.005 78.19-161.872-136.05-4.133Z" fill="url(#g)"/><path d="m2366.97 825.668 100.82 67.13 59.24 167.732s-55.2-80.317-95.22-139.032c-40.01-58.715-64.84-95.83-64.84-95.83Z" fill="url(#h)"/><path d="m2429.62 756.551 73.6-31.369 95.8 6.395 76.77 32.724-63.89 34.529-115.77-8.24-66.51-34.039Z" fill="url(#i)"/><path d="M2563.43 2173.8c-44.34 26.91-61.89 21.11-77.5 44.87-15.6 23.77 27.14 40.96 27.14 40.96s-60.1 80.18 9.93 102.15c36.18 11.35 37.6-71.64 37.6-71.64s39.92 67.63 82.99 24.12c15.85-16.01-76.88-55.62-67.6-97.41 6.71-30.22 89.66-19.93 102.3-55.87 12.64-35.95-23.01-91.12-51.72-87.91-28.71 3.2-18.79 73.82-63.14 100.73Z" fill="#fff" fill-opacity=".485009"/><path d="m1835.26 1732.88 5.01 68.12s-2.72-35.98 15.63-50.13c18.36-14.16 57.8-12.68 57.8-12.68l-78.44-5.31Z" fill="#3e4192"/><path d="M1815.61 1813.81s-7.51-43.44 15.09-77.67c18.44-27.94 85.5-29.06 85.5-29.06l-108.41-11.74-16.21 82.15 24.03 36.32Zm-164.33 481.44h518.22c1.1 0 1.99.89 1.99 1.98v837.02c0 1.1-.89 1.99-1.99 1.99h-518.22c-1.1 0-2-.89-2-1.99v-837.02c0-1.09.9-1.98 2-1.98Z" fill="#8e92ee"/><path d="M3378.82 2287.38s-3.79-45.41 11.42-62.46c15.21-17.04 52.28-15.53 52.28-15.53l-45.73-28.58-25.24 29.78 7.27 76.79Z" fill="#5155b1"/><path d="M3403.8 2306.11s2.74-20.16 2.74-25.35c-.01-12.51.09-20.81 6.17-29.05 3.61-4.9 11.2-6.64 24.11-6.88 12.91-.24 16.65-1.36 16.65-1.36l-24.58-19.69-35.81 16.43 10.72 65.9Z" fill="#373d89"/><path d="M1703.16 3182.59h1690.58c30.69 0 55.57.96 55.57 2.15v112.07c0 1.19-24.88 2.15-55.57 2.15H1703.16c-30.69 0-55.58-.96-55.58-2.15v-112.07c0-1.19 24.89-2.15 55.58-2.15Z" fill="#5155ad"/><path d="M2659.96 2911.03h784.63c1.07 0 1.94.93 1.94 2.09v218.93c0 1.15-.87 2.09-1.94 2.09h-784.63c-1.07 0-1.94-.94-1.94-2.09v-218.93c0-1.16.87-2.09 1.94-2.09Z" fill="#939ae1"/><path d="M1657.28 3214.59h1786.04c.99 0 1.79.08 1.79.19v52.77c0 .11-.8.19-1.79.19H1657.28c-.99 0-1.79-.08-1.79-.19v-52.77c0-.11.8-.19 1.79-.19Z" fill="#7378d2"/><path d="M1754.94 3195.01h45.35c1.04 0 1.88.84 1.88 1.88v88.13c0 1.04-.84 1.88-1.88 1.88h-45.35c-1.04 0-1.88-.84-1.88-1.88v-88.13c0-1.04.84-1.88 1.88-1.88Zm144.24.94h45.35c1.04 0 1.88.84 1.88 1.88v88.13c0 1.03-.84 1.88-1.88 1.88h-45.35c-1.04 0-1.88-.85-1.88-1.88v-88.13c0-1.04.84-1.88 1.88-1.88Zm145.18-2.81h45.35c1.04 0 1.88.84 1.88 1.88v88.13c0 1.03-.84 1.88-1.88 1.88h-45.35c-1.04 0-1.88-.85-1.88-1.88v-88.13c0-1.04.84-1.88 1.88-1.88Zm136.74-6.56h45.36c1.04 0 1.88.84 1.88 1.88v88.13c0 1.04-.84 1.88-1.88 1.88h-45.36c-1.03 0-1.88-.84-1.88-1.88v-88.13c0-1.04.85-1.88 1.88-1.88Zm135.97 4.49h45.36c1.04 0 1.88.85 1.88 1.88v88.14c0 1.03-.84 1.88-1.88 1.88h-45.36c-1.03 0-1.88-.85-1.88-1.88v-88.14c0-1.03.85-1.88 1.88-1.88Zm134.85 1.13h45.35c1.04 0 1.88.84 1.88 1.88v88.13c0 1.04-.84 1.88-1.88 1.88h-45.35c-1.04 0-1.88-.84-1.88-1.88v-88.13c0-1.04.84-1.88 1.88-1.88Zm142.71 2.24h45.35c1.04 0 1.88.85 1.88 1.88v88.14c0 1.03-.84 1.88-1.88 1.88h-45.35c-1.04 0-1.88-.85-1.88-1.88v-88.14c0-1.03.84-1.88 1.88-1.88Zm130.35-3.37h45.35c1.04 0 1.88.85 1.88 1.88v88.14c0 1.03-.84 1.88-1.88 1.88h-45.35c-1.04 0-1.88-.85-1.88-1.88v-88.14c0-1.03.84-1.88 1.88-1.88Zm130.35-3.37h45.35c1.04 0 1.88.84 1.88 1.88v88.13c0 1.04-.84 1.88-1.88 1.88h-45.35c-1.04 0-1.88-.84-1.88-1.88v-88.13c0-1.04.84-1.88 1.88-1.88Zm140.74 3.09h45.36c1.04 0 1.88.84 1.88 1.88v88.13c0 1.04-.84 1.88-1.88 1.88h-45.36c-1.03 0-1.88-.84-1.88-1.88v-88.13c0-1.04.85-1.88 1.88-1.88Zm135.69-.84h45.36c1.03 0 1.88.84 1.88 1.88v88.13c0 1.04-.85 1.88-1.88 1.88h-45.36c-1.04 0-1.88-.84-1.88-1.88v-88.13c0-1.04.84-1.88 1.88-1.88Zm135.97 2.25h45.36c1.03 0 1.88.84 1.88 1.88v88.13c0 1.04-.85 1.88-1.88 1.88h-45.36c-1.04 0-1.88-.84-1.88-1.88v-88.13c0-1.04.84-1.88 1.88-1.88Zm149.71-9.03h45.35c1.04 0 1.88 1.05 1.88 2.35v110.34c0 1.3-.84 2.35-1.88 2.35h-45.35c-1.04 0-1.88-1.05-1.88-2.35v-110.34c0-1.3.84-2.35 1.88-2.35Z" fill="#5155ad"/><path d="M1498.21 1754.6h131.68c.93 0 1.68.83 1.68 1.85v2438.17c0 1.02-.75 1.85-1.68 1.85h-131.68c-.92 0-1.67-.83-1.67-1.85V1756.45c0-1.02.75-1.85 1.67-1.85Zm1937.36 46.03h130.87c.92 0 1.67.81 1.67 1.81v2379.02c0 1-.75 1.81-1.67 1.81h-130.87c-.91 0-1.66-.81-1.66-1.81V1802.44c0-1 .75-1.81 1.66-1.81Z" fill="#181946"/><path d="M1544.48 1751.38h44.72c.63 0 1.14.82 1.14 1.83v2402.98c0 1.01-.51 1.83-1.14 1.83h-44.72c-.63 0-1.14-.82-1.14-1.83 0 0 .16-2400.23.17-2401.64.02-1.41-.06-2.2.22-3.65.28-1.45.38.48.75.48Z" fill="#b1b7f1"/><path d="M3149.4 1909.09c-62.49 27.02-130.48 145.11-130.48 145.11s189.17-125.23 205.27-82.93c4.26 11.18-.12 127.6-32.78 144.94-24.9 13.22-76.8-75.31-91.62-51.83-39.27 62.22-36 109.48 12.67 152.88 48.67 43.4 127.42 83.31 182.01 20.72 54.59-62.58 32.99-205.71 7.21-264.91-25.78-59.2-89.78-91-152.28-63.98Z" fill="#f2a1d2"/><path d="M3006.33 2206.74c6.91 36.74 23.9 98.96 60.04 115.35 36.15 16.4 86.29-24.13 84.54-49.77-1.74-25.65-82.6-12.27-100.22-59.91-17.52-47.35-19.02-122.14-30.93-131.3-23.9-18.37-20.35 88.89-13.43 125.63Z" fill="#f2a1d2"/><path d="M3031.65 1854.65c-10.16 12.28-10.35 81.02-4.59 92.36 5.76 11.33 64.19-15.07 79.92-38.65 15.72-23.58-24.4.65-39.31-10.48-14.9-11.14-25.87-55.52-36.02-43.23Z" fill="#84dbd9"/><path d="M3147.91 2005.79c-6.71 19.25-.91 49.58 13.13 55.93 14.03 6.34 36.32-11.3 43.02-30.55 6.71-19.25-2.16-40.1-16.2-46.45-14.03-6.34-33.24 1.82-39.95 21.07Z" fill="#a8abe7"/><path d="M3471.2 1795s42.65-11.41 43.7.67c1.94 22.17 1.23 16.9 1.76 25.53l1.8 2312.34c0 1.04-.5 1.88-1.11 1.88h-46.27c-.61 0-1.11-.84-1.11-1.88 0 0 .62-2338.54 1.23-2338.54Z" fill="#b1b7f1"/><path d="M1555.52 4101h1960.3c1.45 0 2.62.84 2.62 1.88v53.27c0 1.03-1.17 1.88-2.62 1.88h-1960.3c-1.45 0-2.62-.85-2.62-1.88v-53.27c0-1.04 1.17-1.88 2.62-1.88Z" fill="#b1b7f1"/><path d="m731.561 4395.47 309.559-136.14 426.97-188.59.96 60.6-685.076 300.41-28.802 12.55-24.866 10.83 1.255-59.66Zm-70.765 214.16s22.783-8.69 44.569-17.96c21.787-9.27 42.34-18.46 42.34-18.46l765.255-376.72.43-43.94-684.474 310.56-169.221 72.35-2.363 41.88 3.464 32.29Z" fill="#181946"/><path d="M3572.29 4178.58s52.14 28.02 105.91 57.94c202.45 112.65 706.66 391.84 706.66 391.84l-1.57-121.75-780.19-417.46-30.81 89.43ZM813.591 4419.94l-132.959 55.15-4.638 57.2 154.088-69.57-16.491-42.78Z" fill="#51589d"/><path d="m662.178 4573.5 834.902-400.89-2.11-86.21-578.338 262.06-103.421 46.86-150.627 68.26-.406 109.92Z" fill="#51589d"/><path d="M3830.58 2810.98c-15.85-46.32-70.53-184.99-112-352.99-34.37-139.22-72.07-263.46-42.55-308.21 48.83-74.03 241.94 161.64 280.14 222.22 43.66 69.26-96.6 523.67-125.59 438.98Zm-60.4 746.24c32.97 115.13 103.51 101.73 125.75 16.67 22.23-85.07 21.19-92.67 49.81-96.45 58.12-7.66 117.76 161.61 165.42 159.04 28.93-1.57-21.71-99.64 2.56-128.38 24.27-28.74 94.18 59.72 136.04 25.55 62.59-51.1-116.66-207.36-81.94-252.47 38.01-49.38 89.4-68.05 98.43-176.89 9.02-108.84-130.63-242.1-109.13-346.02 21.4-103.48-178.56 186.77-178.56 186.77s-71.93 185.86-90.69 193.89c-18.75 8.04-150.67 303.16-117.69 418.29Z" fill="#edb2e8"/><path d="M4073.84 2259.38c-53.75 13.72-51.09 67.15-16.06 140.14 35.04 72.99 172.54 185.41 181.02 259.85 8.48 74.44-78.64 58.38-99.27 150.36-20.62 91.99 87.31 282.85 49.64 345.98-38.18 63.97-87.52 11.12-137.23 56.93-44.56 41.07 77.35 230.4 37.67 272.72-39.68 42.32-196.65-179.39-189.12-92.06 7.53 87.33 44.7 216.22 21.85 269.02-30.64 70.8-86.89 57.82-155.2-64.3-55.7-99.58-76.72-234.35-87.55-302.13-12.5-78.33-14.92-210.48 42.79-238.3 65.58-31.61 148.25 125.76 152.24 66.93 2.6-38.4-140.5-237.48-161.36-335.23-23.35-109.48 141.94-22.97 124.09-91.97-21.95-84.83-185.4-465.68-145.98-532.83 39.41-67.15 252.31 269.04 257.27 165.36 4.96-103.69-28.44-287.37 5.87-347.98 34.31-60.61 101.4-17.15 178.4 67.09 77 84.25 150.96 323.26 117.41 340.03-33.55 16.78-122.73-143.34-176.48-129.61Z" fill="#7277dd"/><path d="m4844.86 2596.37 610.28 1203.83" fill="#edb2e8"/><path d="M3725.27 3246.27c8.44 55.13 57.36 112.83 79.34 99.62 30.94-18.58 13.36-72.04 4.05-113.27-9.91-43.86-37.06-79.93-56.02-75.58-18.95 4.36-35.81 34.09-27.37 89.23Zm-31.9 617.36c-17.1 74.76 6.34 115.99 49.3 152.21 42.96 36.21 75.46-53.77 122.91-39.29 47.45 14.49 53.29 96.18 97.4 91.75 68.61-6.88 35.29-139.74-29.65-210.32-64.93-70.58-69.16-88.93-125.63-90.34-34.13-.85-97.24 21.22-114.33 95.99Zm19.96-2024.25c-18.34 21.39-24.67 75.49 16.24 151.14 40.9 75.66 98.26 125.2 128.74 106.53 32.53-19.92 4.02-147.7-36.89-223.35-40.9-75.66-89.74-55.72-108.09-34.32Z" fill="#7ec9cf"/><path d="M3865.95 1769.56c2.86 57.12 57.02 85.1 85.67 57.12 28.66-27.99 28.36-92.09 0-105.66-28.35-13.57-88.52-8.57-85.67 48.54Z" fill="#7277dd"/><path d="M3971.27 3740.86c14.83 35.97 54.96 59.19 70.06 49.93 15.1-9.26 11.61-39.73-3.22-75.7-14.83-35.97-50.81-77.71-70.87-66.03-20.05 11.67-10.8 55.83 4.03 91.8Z" fill="#7ec9cf"/><path d="M3675.88 3648.1c2.3 39.58 12.44 75.38 36.73 73.46 30.79-2.43 20.67-63.32 19.59-91.42-1.08-28.1-14.69-87.34-39.18-79.18-24.48 8.17-19.44 57.55-17.14 97.14Z" fill="#7277dd"/><path d="M3733.24 2300.02c20.54 36.33 47.19 60.51 66.39 42.28 19.2-18.23 4.28-48.01-10.24-75.79-14.92-28.52-44.51-56.28-60.95-49.35-16.44 6.94-15.91 46.22 4.8 82.86Zm326.19-438.51c-10.12 22.42 3.21 45.09 15.8 50.82 12.59 5.73 27.4-10.46 37.52-32.89 10.12-22.42-43.19-40.36-53.32-17.93Zm156.96 192.62c-10.12 22.42 3.21 45.09 15.8 50.82 12.58 5.73 27.39-10.46 37.51-32.88 10.12-22.43-43.19-40.37-53.31-17.94Z" fill="#7ec9cf"/><path d="M1115.68 2159.67c-24.87-107.02 13.74-207.56 86.25-224.57 72.5-17 151.44 55.97 176.3 162.99 24.87 107.02-13.74 207.56-86.25 224.56-72.5 17.01-151.44-55.96-176.3-162.98Z" fill="#a8acf5"/><path d="M1158.53 2144.23c-14.63-77.72 13.44-146.97 62.69-154.68 49.25-7.7 101.03 49.07 115.66 126.79 14.63 77.73-13.43 146.98-62.68 154.68-49.25 7.71-101.04-49.06-115.67-126.79Z" fill="#6c74e1"/><path d="M1018 3413.73c0-95.2 73.95-172.39 165.18-172.39 91.22 0 165.17 77.19 165.17 172.39 0 95.21-73.95 172.4-165.17 172.4-91.23 0-165.18-77.19-165.18-172.4Z" fill="#62a5aa"/><path d="M1040.24 3410.99c0-81.28 64.4-147.17 143.84-147.17 79.43 0 143.83 65.89 143.83 147.17 0 81.28-64.4 147.17-143.83 147.17-79.44 0-143.84-65.89-143.84-147.17Zm-225.987 217.68c-24.39 1.51-47.275 147.85-46.974 264.99.301 117.13 65.643 79.19 108.402 155.38 42.759 76.18 15.056 157.18 73.473 151.76 58.416-5.42 136.106-94.25 130.086-161.4-6.03-67.15-130.086 34.03-196.332-68.66-66.246-102.68-44.264-343.57-68.655-342.07Z" fill="#7ec9cf"/><path d="M1284.35 3932.38c14.05-23.37 36.07-35.93 49.18-28.05 13.12 7.89 12.35 33.23-1.7 56.6-14.06 23.37-36.08 35.93-49.19 28.05-13.11-7.89-12.35-33.23 1.71-56.6Z" fill="#2e306d"/><path d="m1610.55 1602.35 23.68 11.3s16.2-28.22 33.36-52.72c17.16-24.49 39.42-50.85 39.42-50.85l-9.91-16.01-75.71 79.17-10.84 29.11Z" fill="#b1b7f1"/><path d="m1600.39 1702.71 38.76 94.13s18.72-113.94 51.38-181.36c32.65-67.42 89.38-121.33 89.38-121.33l-2.95-16.02-38.7 3.43s-54.55 50.57-88.42 105.53c-33.87 54.96-49.45 115.62-49.45 115.62Z" fill="#181946"/><path d="M1699.2 1686.58s-2.87-44.46 13.91-65.73c16.77-21.27 58.36-22.64 58.36-22.64l-41.18-20.72-24.75 14.27-6.34 7.46-7.19 22.18 7.19 65.18Z" fill="#3e4192"/><path d="m3436.84 1650.15-52.26-99.7 6.75-23.8 29.59 13.51 41.81 96.8-25.89 13.19Z" fill="#b1b7f1"/><path d="M3427.99 1759.82s-2.86-7.99-7.58-20.54c-10.09-26.86-28.66-74.59-45.76-109.5-25.09-51.22-47-74.83-47-74.83l34.41-24.44s17.62 11.37 42.19 48.92c20.14 30.76 36.27 71.01 36.27 71.01l10.5 80.47-23.03 28.91Z" fill="#181946"/><g fill="#181946"><path d="M4480.98 3134.32h45.28c4.5 0 8.16 3.65 8.16 8.16v133.64c0 4.51-3.66 8.16-8.16 8.16h-45.28c-4.5 0-8.16-3.65-8.16-8.16v-133.64c0-4.51 3.66-8.16 8.16-8.16Zm-3.28-690.14h49.58c4.94 0 8.94 3.65 8.94 8.16v133.64c0 4.51-4 8.16-8.94 8.16h-49.58c-4.93 0-8.94-3.65-8.94-8.16v-133.64c0-4.51 4.01-8.16 8.94-8.16Z"/><path d="M4539.9 2505.01h53.3c4.51 0 8.16 3.61 8.16 8.06v711.21c0 4.45-3.65 8.06-8.16 8.06h-53.3c-4.51 0-8.16-3.61-8.16-8.06v-711.21c0-4.45 3.65-8.06 8.16-8.06Z"/></g><g fill="#181946"><path d="M562.991 3125.22h-52.117c-5.188 0-9.394 3.65-9.394 8.16v133.64c0 4.51 4.206 8.16 9.394 8.16h52.117c5.188 0 9.394-3.65 9.394-8.16v-133.64c0-4.51-4.206-8.16-9.394-8.16Zm.997-690.14h-54.72c-5.447 0-9.863 3.65-9.863 8.16v133.64c0 4.51 4.416 8.16 9.863 8.16h54.72c5.447 0 9.863-3.65 9.863-8.16v-133.64c0-4.51-4.416-8.16-9.863-8.16Z"/><path d="M495.169 2495.91h-61.366c-5.188 0-9.394 3.61-9.394 8.06v711.21c0 4.46 4.206 8.06 9.394 8.06h61.366c5.188 0 9.394-3.6 9.394-8.06v-711.21c0-4.45-4.206-8.06-9.394-8.06Z"/></g><path d="M4552.16 2526.18h30.74c1.24 0 2.24 3.29 2.24 7.35v672.42c0 4.06-1 7.36-2.24 7.36h-30.74c-1.23 0-2.23-3.3-2.23-7.36v-672.42c0-4.06 1-7.35 2.23-7.35Zm-4103.058-7.01h30.744c1.233 0 2.233 3.3 2.233 7.36v672.42c0 4.06-1 7.36-2.233 7.36h-30.744c-1.233 0-2.233-3.3-2.233-7.36v-672.42c0-4.06 1-7.36 2.233-7.36Z" fill="#51589d"/><path d="M1143.31 322.911c-92.22 84.84-18.88 160.483 101.8 188.77 120.67 28.287 14.54-125.001 206.09-156.654 191.55-31.652 335.59.018 441.16-44.39 105.57-44.409 153.49-75.008 29.63-124.596-43.88-17.567 35.65-49.294-56.06-43.072-118.39 8.032-158.93 10.535-311.39 30.344-140.13 18.207-346.93 90.441-411.23 149.598Z" fill="#6d74ab"/><path d="M225.415 1416.16s106.07-4.37 147.78 159.15c41.709 163.52 63.078 313.12 16.618 495.74-46.46 182.62-133.425 282.03-133.425 282.03s16.926-78.28 28.029-189.53c6.171-61.82 9.146-137.84 6.346-219.16-5.968-173.37-41.156-384.77-57.399-477.75-5.084-29.1-7.949-50.48-7.949-50.48Z" fill="#7ec9cf"/><path d="M89.603 4066.54s-.903 182.69 14.858 295.03c15.76 112.34 62.534 229.63 62.534 229.63s29.4 51.12 57.622 90.26c28.222 39.14 58.974 67.62 58.974 67.62s9.495 2.12 15.335-.39c51.311-22.04 65.904-245.68 87.864-338.12 20.583-86.64-17.783-156.43-39.959-243.79-23.15-91.2-31.412-198.34-70.51-206.84-76.551-16.64-186.718 106.6-186.718 106.6Z" fill="#6d74ab"/><path d="M2393.94 2058.68s16.53-6.47 33.88-10.82c17.36-4.36 35.54-6.6 35.54-6.6s-14.84 51.14-38.37 82.32c-23.53 31.18-55.76 42.4-55.76 42.4s15.92-13.08 21.08-45.22c5.17-32.15 3.63-62.08 3.63-62.08Z" fill="#fff"/><path d="M1781.81 1564.83c-2.17.33-18.75-.3-34.41 2.96-18.02 3.76-36.06 10.84-36.06 10.84s6.48-11.3 11.6-16.92c5.11-5.62 5.41-5.4 9.1-8.89 15.56-14.74 28.25-10.89 28.25-10.89s54.81 17.75 21.52 22.9Z" fill="#12133a"/><path d="M2734.72 2180.54s-3.8 61.98-50.91 135.12c-47.12 73.14-123.16 130.67-123.16 130.67l108.78-153.82 65.29-111.97Z" fill="#fff"/><path d="M3182.81 2232.4c-15.8 41.82.99 92.21 27.67 96.16 26.67 3.96 57.96-25.35 73.77-67.18 15.81-41.83 10.87-86.94-10.54-100.12-21.41-13.17-75.09 29.31-90.9 71.14Zm-1147.72-291.07c-21.59 34.72-17.83 79.14 0 98.84 17.83 19.71 39.1.63 71.32-20.01 32.21-20.65 44.41-43.17 45.04-76.33.62-33.15-7.82-59.43-42.54-56.3-34.72 3.13-52.24 19.08-73.82 53.8Z" fill="#7ec9cf"/><path d="M1388.2 1318.62c-168.94 139.35-9.1 131.08 85.42 57.05 157.76-123.59 163.14-139.98 361.54-232.71 241.9-113.06 506.15-128.84 506.15-128.84s-325.26 1.88-557.35 79.18c-170.37 56.73-324.24 166.32-395.76 225.32Zm2293.21 15.94c162.34 139.83 8.75 131.53-82.07 57.24-151.6-124-156.77-140.44-347.41-233.49-232.45-113.45-486.38-129.28-486.38-129.28s312.55 1.89 535.57 79.44c163.71 56.93 311.57 166.89 380.29 226.09Z" fill="#f6f6f6"/><path d="M521.915 2451.22h33.378c4.506 0 8.16 3.65 8.16 8.16v97.16c0 4.51-3.654 8.16-8.16 8.16h-33.378c-4.506 0-8.16-3.65-8.16-8.16v-97.16c0-4.51 3.654-8.16 8.16-8.16Zm-.66 693.48h33.378c4.506 0 8.16 3.66 8.16 8.16v97.17c0 4.5-3.654 8.16-8.16 8.16h-33.378c-4.506 0-8.16-3.66-8.16-8.16v-97.17c0-4.5 3.654-8.16 8.16-8.16Zm3973.385-685.06h17.27c4.89 0 8.86 4.35 8.86 9.7v91.74c0 5.35-3.97 9.7-8.86 9.7h-17.27c-4.89 0-8.86-4.35-8.86-9.7v-91.74c0-5.35 3.97-9.7 8.86-9.7Zm-.71 695.26h17.26c4.9 0 8.86 4.34 8.86 9.7v91.73c0 5.36-3.96 9.7-8.86 9.7h-17.26c-4.9 0-8.86-4.34-8.86-9.7v-91.73c0-5.36 3.96-9.7 8.86-9.7ZM1488.8 1761.88h19.45c2.66 0 4.83 3.66 4.83 8.17v2396.32c0 4.52-2.17 8.17-4.83 8.17h-19.45c-2.67 0-4.83-3.65-4.83-8.17V1770.05c0-4.51 2.16-8.17 4.83-8.17Z" fill="#51589d"/><path d="m1484.65 4178.75 41.56-21.44 5.64 29.48-61.81 26.84 14.61-34.88Zm-31.44-2472.18s48.02 68.46 53.39 77.34c7.88 13.02 7.26 39.66 7.26 39.66l16.55-42-29.76-49.32-47.44-25.68Z" fill="#181946"/><path d="M4094.66 4212.54c-33.31-33.87-58.6-84.31-56.49-112.66 2.11-28.34 30.82-23.87 64.12 10 33.3 33.87 58.59 84.3 56.48 112.65-2.1 28.35-30.81 23.87-64.11-9.99ZM1232.97 5599.16c0-23.29 1.72-42.18 3.84-42.18s3.83 18.89 3.83 42.18c0 23.3-1.71 42.18-3.83 42.18s-3.84-18.88-3.84-42.18Z" fill="#2e306d"/><path d="m3581.25 4183.83-21.02-14.22-22.04 4.93 1.86 21.95 25.29 1.13s-4.72-2.48 3.73 2.26c8.44 4.73 30.04 16.67 30.04 16.67l-17.86-32.72Z" fill="#181946"/></g></svg>