<svg stroke-miterlimit="10" style="fill-rule:nonzero;clip-rule:evenodd;stroke-linecap:round;stroke-linejoin:round" viewBox="0 0 5000 5000" xml:space="preserve" xmlns="http://www.w3.org/2000/svg" xmlns:vectornator="http://vectornator.io"><defs><linearGradient gradientTransform="translate(-32.7851 514.774)" gradientUnits="userSpaceOnUse" id="a" x1="2065.61" x2="3068.34" y1="1373.81" y2="1373.81"><stop offset="0" stop-color="#77b9cf"/><stop offset="1" stop-color="#7574de"/></linearGradient><linearGradient gradientTransform="translate(-12.7397 39.171)" gradientUnits="userSpaceOnUse" id="b" x1="2254.29" x2="2835.49" y1="2231.29" y2="2231.29"><stop offset="0" stop-color="#77b9cf"/><stop offset="1" stop-color="#7574de"/></linearGradient><linearGradient gradientTransform="translate(-12.7397 39.171)" gradientUnits="userSpaceOnUse" id="c" x1="2275.13" x2="2832.2" y1="2771.37" y2="2771.37"><stop offset="0" stop-color="#77b9cf"/><stop offset="1" stop-color="#7574de"/></linearGradient><linearGradient gradientTransform="translate(-12.7397 39.171)" gradientUnits="userSpaceOnUse" id="d" x1="2612.78" x2="3308.43" y1="2626.04" y2="2626.04"><stop offset="0" stop-color="#77b9cf"/><stop offset="1" stop-color="#7574de"/></linearGradient><linearGradient gradientTransform="translate(-12.7397 39.171)" gradientUnits="userSpaceOnUse" id="e" x1="2839.86" x2="3300.02" y1="2145.46" y2="2145.46"><stop offset="0" stop-color="#77b9cf"/><stop offset="1" stop-color="#7574de"/></linearGradient><linearGradient gradientTransform="translate(-12.7397 39.171)" gradientUnits="userSpaceOnUse" id="f" x1="1854.38" x2="2301.74" y1="2124.47" y2="2124.47"><stop offset="0" stop-color="#77b9cf"/><stop offset="1" stop-color="#7574de"/></linearGradient><linearGradient gradientTransform="translate(4.5804 51.5387)" gradientUnits="userSpaceOnUse" id="g" x1="1830.95" x2="2497.69" y1="2638.56" y2="2638.56"><stop offset="0" stop-color="#77b9cf"/><stop offset="1" stop-color="#7574de"/></linearGradient></defs><path d="M1212.74 800.889c-33.4 105.243-36.32 114.201-36.73 682.351-.03 45.17.25 93.65.28 143.92.01 4.68.05 9.36.05 14.07-.1 224.83-.47 491.35-.16 745.25.31 254.27.09 493.39.11 659.51 0 1.28.31 2.82.31 4.09v23.52c.01 124.74-.02 201.56-.02 201.56s.24 698.03-.15 808.54c-.15 44.51 26.58 138.66 113.06 267.5 52.28 77.89 147.89 178.9 248.23 242.83 132.36 84.33 235.37 95.36 315.54 107.77 36.57 5.66 703.85 2.91 711.29 3.4 7.44.5 12.06.85 17.15.81 107.67-.81 209.42-6.34 301.81-7.42 165.32-1.92 297.7-.96 297.7-.96s271.23-45.46 416.37-187.59 185.09-266.05 200.33-311.93c13.17-39.68 26.19-107.56 28.41-147.87.91-16.55 4.2-149.51 3.33-275.95l.45-150.14s-.28-23.52-.21-44.97c.02-6.83.06-39.28.09-47.55.06-20.32-.11-47.48-.07-51.8.04-4.31-.1-11.77-.05-16.85.06-7.16-.11-6.55-.06-12.5.23-28.32-.06-55.71.06-81.14.17-36.2-.2-66.46-.2-79.16 0 0 .57-181.36.26-174.34-.12 2.76.23-107.12.07-234.36-.17-132.36.14-285.76-.1-372.39-.03-13.54.09-30.56.06-40.43-.02-6.95.2-13.06.18-17.9-.02-9.44-.12-26.05-.12-26.05l-.07-510.09-.04-262.06.05-62.32v-74.93l-.1-67.91c0-.66.15-23.04.15-23.7 0-3.18-.15-15.72-.13-18.83.15-26.53-.1-48-.02-69.77.25-65.45-.14-110.03.09-136.97v-1.25c.01-.86 0-1.64 0-2.48 0-9.61 0-16.82-.02-21.6 0-.1.03-1.39.02-2.57-.01-.82-.12-1.48-.24-1.89-.27-.98-2.71-.74-2.71-.84-.69-72.74-5.74-139.84-5.74-139.84l-740.79-744.464s-361.88-2.302-660.13-1.447c-67.91.195-610.8-3.574-666.82 9.74-122.27 29.062-216.75 67.859-363.21 205.839-98.05 92.367-151.01 219.905-177.56 303.561Z" fill="#7277dd" fill-rule="evenodd" vectornator:layerName="Слой 9"/><path d="M3002.71 282.801c-172.16 2.467-463.85 332.592-463.85 332.592L3009 961.589l656.59-411.135.49-.304s.06.123.11.054c.06-.07.25-.257.2-.316-.08-.104-.25-.319-.47-.596-3.09-3.81-12.13-19.923-49.02-59.437-34.71-37.166-81.37-78.531-118.66-101.614-66.72-41.304-132.2-75.136-243.76-91.181-128.49-18.48-195.7-15.062-251.77-14.259ZM1176.27 2468.15l362.48-203.05 111.12 401.76-473.57 289.97-.03-488.68Zm73.09 1818.61s.01-.01.04-.03c.02-.01.05-.03.08-.04 3.82-2.26 93.41-54.92 153.27-76.94 84.25-30.98 200.11-17.07 200.11-17.07l200.88 307.73 54.24 201.12s-148.21-3.93-305.28-99.03c-157.07-95.1-233.7-195.15-286.83-285.88-6.55-11.18-16.51-29.86-16.51-29.86Z" vectornator:layerName="Слой 8" fill="#1f3e97" fill-rule="evenodd"/><path d="m1176.28 3046.53 643.61-342.27s872.27 1329.82 1270.19 1787.32c130.43 149.95 93.77 205.05 93.77 205.05s-103.33 9.37-253.87 11.52c-150.53 2.15-348.28-2.92-348.28-2.92s-167.27-45.78-453.99-192.21c-286.71-146.42-709.58-411.16-709.58-411.16l-241.85-15.23.01-654.84-.01-385.26ZM3530.45 632.326l135.79-82.644s74.36 93.311 109.3 193.758c15.78 45.363 17.55 44.6 28.6 90.735 16.67 69.591 22.95 108.328 24.55 163.281 2.3 79.204 1.42 139.294 1.24 161.334 0 .41.01 1.05.01 1.44-.01.81-.02 1.83-.01 2.72.02.96.01 7.38.01 7.38s-142.24-11.45-145.75 15.21c-3.52 26.65-93.11 29.1-93.11 29.1l-338.44 67.34 158.13-559.9 119.68-89.754Z" vectornator:layerName="Слой 7" fill="#93e0e7" fill-rule="evenodd"/><path d="M1575.74 518.729c70.67-50.775 153.59-67.289 223.76-77.065 172.41-24.022 467.72-27.777 721.47-26.696 104.17.444 221.56-.144 292.53.288 182.34 1.11 252.45 11.411 252.45 11.411s334.51 95.1 448.43 239.245c113.92 144.145 224.93 529.158 224.93 529.158s-.4 90.84.42 251.71c.03 6.41-.14 18.41-.15 22.97-.01 60.48-.03 129.02.01 203.76l-.01 2.1.01 69.82c.04 24.1-.3 48.47-.17 73.59.93 181.49-.94 388.92.13 599.98.18 35.45-.11 71.17-.05 106.8.45 245.73-.49 493.5.33 709.69.36 95.36.43 184.1.36 263.98-.06 71.89-.44 136.49-.61 192.41-.11 37.65-.01 71.42-.08 100.59-.01 3.06.09 6.01.07 8.97-.05 9.01.06 17.51.08 25.37.12 43.22.33 73.86-.32 84.04-9.97 155.11-44.89 277.69-116.89 382.59-75.55 110.09-269.73 206.94-393.61 236.65-170.08 40.79-502.65 22.28-502.65 22.28s-830.92 6.58-941.3-9.81c-85.59-12.71-150.04-43.53-298.26-182.27-148.21-138.73-213.83-254.45-214.1-342.93-1.01-324.27 4.37-743.9.17-1190.88-.14-14.11-.34-28.22-.44-42.38-.9-128.12-.44-257.93-.27-384.9.07-55 .23-99.99.29-147.29.01-10.9-.05-33.28-.03-33.59 0-.21-.01-5.99 0-12.18.01-2.59-.01-4.54.01-8.14.01-5.07-.14-28.27-.17-33.64-.36-59.26.08-117.12.18-173.71.03-12.6-.01-25.18-.01-37.65-.01-11 .01-21.88 0-32.78-.03-30.8-.08-61.26-.01-91.25.28-120.23.24-233.02.01-338.64-.03-14.85.05-30.05 0-44.6-.02-6.59.02-13.33-.01-19.86-.08-23.29.04-46.18-.1-68.64-.25-40.25.04-81.69.12-122.13.08-42.69-.04-84.27.2-121.96.52-83.78 11.21-161.729 15.07-180.674 9.32-45.636 51.48-158.278 99.22-229.002 49.93-73.975 92.32-115.282 188.99-184.735Z" fill="#030303" fill-rule="evenodd" vectornator:layerName="Слой 6"/><path d="M1272.25 2784.14s89.43-59.29 220.64-52.18c62.91 3.42 150.85 56.89 192.53 103.84 146.76 165.3 111.87 367.07 245.38 548.04 133.52 180.97 258.54 208.14 339.98 220.95 143.79 22.61 382.54-54.39 601.81-91.22 144.32-24.24 250.82 33.77 265.98 123.48 22.16 131.14-167.47 588.11-167.47 588.11l-548.05-97.86-579.37-383.64s-254.45-626.34-309.26-591.11c-54.8 35.23-255.13 386.04-255.13 386.04s-6.9-321.96-6.99-321.73c-.1.23-.06-2.37-.06-2.37l-.05-287.46.09-21.65-.03-121.24Zm17 1262.29c10.61-45.88 145.92-57.42 208.23 32.84 39.78 57.62 122.4 246.16 138.82 278.62 45.39 89.79 99.33 174.29 99.33 174.29s-53.84-15-115.75-56.17c-63.65-42.32-136.07-111.52-184.54-162.85-47.04-49.8-90.07-108.39-123.75-167.52-15.97-28.02-29.2-69.55-22.34-99.21ZM2851.71 414.651s-223.03 134.708-427.56 283.664c-204.52 148.956-290.37 261.501-304.21 341.655-15.75 91.28 4.19 171.91 144.03 207.36 132.3 33.54 350.17-21.96 634.19-153.17 284.02-131.204 385.15-232.561 555.84-332.881 170.69-100.321 198.89-12.803 151.13-88.466-46.88-74.262-156.25-162.118-284.92-211.306-147.84-56.516-468.5-46.856-468.5-46.856Z" vectornator:layerName="Слой 5" fill="#001d56" fill-rule="evenodd"/><path d="m1700.88 3247.61 14.44 699.07s283.1 415.97 294.65 459.3c11.56 43.34 499.82 131.32 540.26 151.54 15.27 7.64 150.09 1.24 234.02 2.02 71.81.67 127.01.91 205.86-3 30.78-1.53 87.89-4.63 114.85-7.25 40-3.88 69.06-8.52 69.06-8.52s488.75-568.25 428.7-727.37c-60.05-159.13-618.15 176.61-961.4 178.77-386.57 2.44-516.08-62.3-583.74-117.77-108.04-88.59-139.49-114.69-224.07-272.93-84.58-158.23-132.63-353.86-132.63-353.86Z" fill="#6b74ab" fill-rule="evenodd" vectornator:layerName="Слой 4"/><path d="M3595.31 657.707c-8.51-11.318-14.64-18.198-14.65-18.211-.04-.042-359.17 252.817-524.98 370.804-73.01 51.95-129.49 128.15-109.09 161.12 21.14 34.17 103.38-12.03 103.38-12.03s282.13-182.715 403.29-215.451c98.95-26.734 64.69 76.351 52.7 112.281-15.69 47.02-98.06 238.88-54.71 260.56 35.57 17.78 84.43-41.53 156.83-50.58 72.4-9.04 131.43 13.87 131.43 13.87s.83-15.25.85-43.3c.02-20.46-.39-47.74-1.87-80.87-3.5-78.57-3.13-114.31-11.65-189.553-7.04-62.193-23.98-104.923-46.18-160.07-26.12-64.887-64.65-121.048-85.35-148.57ZM1272.24 3216.38s84.43-173.07 186.83-207.21c102.41-34.13 174.85 31.52 206.35 114.04 60.56 158.67 73.71 440.11 75.09 528.1.64 40.41 30.83 318.65 109.02 466.33 92.05 173.86 264.9 294.7 467.93 349.59 56.75 15.35 453.28 92.29 453.28 92.29s-644.75 9.69-768.36-20.74c-206.81-50.9-350.33-384.31-403.54-461.27-55.83-80.75-147.12-183.39-209.96-178.23-62.85 5.15-116.45 69.34-116.45 69.34s-.09-226.47-.04-354.9c.09-204.17-.15-397.34-.15-397.34Z" vectornator:layerName="Слой 3" fill="#7abbc1" fill-rule="evenodd"/><g vectornator:layerName="Слой 2" fill-rule="evenodd"><path d="m2316.65 1740.86 445.71 2.55 291.94 166.98-299.1 146.48-432.92-5.08-289.25-141.43 283.62-169.5Z" fill="url(#a)"/><path d="m2322.16 2089.65-105.64 297.11 629.99.4-48.06-167.37-36.85-129.63-439.44-.51Z" fill="url(#b)"/><path d="m2222.32 2427.64 628.65-1.07-307.85 713.5-320.8-712.43Z" fill="url(#c)"/><path d="m2890.53 2425.5-308.63 705.55 666.31-923.82-357.68 218.27Z" fill="url(#d)"/><path d="m2792.39 2083.19 95.98 302.48 347.03-216.28-163.49-227.88-279.52 141.68Z" fill="url(#e)"/><path d="m2291.04 2075.3-115.81 312.26-328.95-217.61 167.1-234.94 277.66 140.29Z" fill="url(#f)"/><path d="m1840.83 2208.11 346.06 221.3 321.8 713.04-667.86-934.34Z" fill="url(#g)"/></g></svg>