<?xml version="1.0" encoding="UTF-8" standalone="no"?>
<!DOCTYPE svg PUBLIC "-//W3C//DTD SVG 1.1//EN" "http://www.w3.org/Graphics/SVG/1.1/DTD/svg11.dtd">
<!-- Created with Vectornator (http://vectornator.io/) -->
<svg height="100%" stroke-miterlimit="10" style="fill-rule:nonzero;clip-rule:evenodd;stroke-linecap:round;stroke-linejoin:round;" version="1.1" viewBox="0 0 2048 2048" width="100%" xml:space="preserve" xmlns="http://www.w3.org/2000/svg" xmlns:vectornator="http://vectornator.io" xmlns:xlink="http://www.w3.org/1999/xlink">
<defs/>
<g id="Слой-2" vectornator:layerName="Слой 2">
<path d="M968.579 84.0781C901.188 48.7994 819.749 27.1544 731.336 16.5116C551.75-5.10656 354.656 21.2318 266.961 88.8519C201.003 139.712 93.181 269.657 77.2271 439.273C49.9364 729.416 324.435 964.518 281.007 1106.01C232.758 1263.21 69.7508 1350.55 73.7396 1546.18C77.7284 1741.81 134.475 1895.69 355.016 1958.62C492.339 1997.8 635.845 1982.97 816.802 1980.41C916.978 1978.99 1018.74 2018.34 1124.75 2021.59C1320.74 2027.59 1530.93 1986.14 1558.49 1984.27C1788.31 1968.68 1863.51 1741.78 1863.51 1741.78C1863.51 1741.78 1953.56 1375.77 1988.27 1098.34C2022.97 820.906 1728.36 908.702 1843.15 723.869C1992.88 482.781 1946.24 356.774 1905.39 237.677C1896.57 211.97 1822.88 69.9362 1515.38 56.7226C1440.58 53.5085 1403.11 46.4997 1256.46 85.4303C1195.11 101.718 1163.38 125.499 1096.25 138.796C1049.39 148.08 1013.26 107.47 968.579 84.0781Z" fill="#030303" fill-rule="nonzero" opacity="1" stroke="#4b4f9c" stroke-linecap="butt" stroke-linejoin="round" stroke-opacity="0" stroke-width="7.04596"/>
<path d="M329.213 55.0877C329.213 55.0877 261.585 273.963 326.871 407.184C392.158 540.405 456.575 585.346 586.143 588.527C710.208 591.572 788.277 530.052 776.81 646.84C765.342 763.629 534.588 927.353 540.272 1055.68C545.955 1184.01 799.544 1160.15 799.544 1160.15L1288.17 1306.01L1168.51 1647.01L811.51 1891.43C811.51 1891.43 645.15 1805.05 719.768 1694.32C794.386 1583.59 728.553 1561.35 587.45 1521.44C446.346 1481.52 206.721 1709.5 152.472 1632.15C98.223 1554.79 366.964 1394.36 370.454 1212.04C373.944 1029.71 191.252 838.858 169.314 805.349C147.376 771.84 57.0208 573.147 77.6665 431.068C92.0857 331.839 122.969 242.814 160.328 189.755C204.726 126.698 264.285 87.2585 299.466 68.3987C318.461 58.2159 329.213 55.0877 329.213 55.0877Z" fill="#001d56" fill-rule="nonzero" opacity="1" stroke="#4b4f9c" stroke-linecap="butt" stroke-linejoin="round" stroke-opacity="0" stroke-width="7.04596"/>
<path d="M1637.95 70.4379C1637.95 70.4379 1683.8 106.885 1609.57 205.272C1535.33 303.66 1340.22 463.538 1340.22 463.538C1340.22 463.538 1192.64 721.754 1224.55 715.84C1256.46 709.927 1445.65 761.23 1624.42 663.459C1652.16 648.291 1698.29 609.402 1704.02 565.439C1715.88 474.533 1666.27 352.223 1703.85 305.054C1765.25 227.995 1932.33 324.695 1932.33 324.695C1932.33 324.695 1930.53 233.204 1840.32 149.269C1771.46 85.2031 1637.95 70.4379 1637.95 70.4379Z" fill="#6c74ab" fill-rule="nonzero" opacity="1" stroke="#4b4f9c" stroke-linecap="butt" stroke-linejoin="round" stroke-opacity="0" stroke-width="7.04596"/>
<path d="M435.041 93.8321C441.752 151.81 660.337 132.16 718.462 244.051C738.984 283.557 555.944 369.48 583.764 466.555C615.78 578.277 745.223 588.203 849.319 690.127C953.415 792.051 913.462 905.098 1000.15 874.251C1086.83 843.404 1205.35 701.067 1196.06 566.739C1186.77 432.411 1067.71 267.303 995.34 159.755C899.847 17.8348 788.33 16.7019 696.442 7.96742C569.366-4.11181 428.33 35.8538 435.041 93.8321Z" fill="#6c74ab" fill-rule="nonzero" opacity="1" stroke="#4b4f9c" stroke-linecap="butt" stroke-linejoin="round" stroke-opacity="0" stroke-width="7.04596"/>
<path d="M81.7161 1468.27C81.7161 1468.27 216.81 1305.7 280.706 1389.73C312.981 1432.18 206.908 1563.68 244.582 1589.43C297.531 1625.63 624.842 1419.71 657.835 1457.89C690.828 1496.06 1315.37 1824.97 1179.76 1909.69C1136.66 1936.62 888.729 1906.48 762.499 1916.42C623.906 1927.33 510.454 1996.35 378.582 1968.49C252.669 1941.89 171.945 1864.71 135.301 1814.19C86.7938 1747.32 70.0257 1653.74 69.4812 1580.03C69.0169 1517.19 81.7161 1468.27 81.7161 1468.27Z" fill="#7ec9cf" fill-rule="nonzero" opacity="1" stroke="#4b4f9c" stroke-linecap="butt" stroke-linejoin="round" stroke-opacity="0" stroke-width="7.04596"/>
<path d="M1834.61 529.013C1791.44 559.375 1790.47 654.624 1709.25 769.827C1628.04 885.03 1360.2 1018.01 1385.22 1005.06C1427.1 983.375 1678.09 963.814 1725.46 1089.97C1772.83 1216.12 1332.15 1676.55 1354.09 1654.87C1366.71 1642.39 1500.62 1893.92 1661.61 1803.89C1780.41 1737.46 1946.77 1330.06 1946.77 1330.06C1946.77 1330.06 1954.48 1066.84 1916.32 957.995C1878.17 849.151 1808.35 992.839 1787.92 885.593C1767.5 778.348 1941.81 453.617 1834.61 529.013Z" fill="#001d56" fill-rule="nonzero" opacity="1" stroke="#4b4f9c" stroke-linecap="butt" stroke-linejoin="round" stroke-opacity="0" stroke-width="7.04596"/>
<path d="M1958.22 1292.63C1958.22 1292.63 1822.17 1576.99 1741.5 1568.38C1693.1 1563.22 1712.46 1248.23 1663.1 1284.63C1531.47 1381.71 1433.86 1686.15 1433.86 1686.15L1162.63 1723.6C1162.63 1723.6 1055.9 2051.94 1619.93 1979.96C1807.47 1956.02 1962.03 1729.92 1975.26 1590.75C1988.5 1451.59 1958.22 1292.63 1958.22 1292.63Z" fill="#7ec9cf" fill-rule="nonzero" opacity="1" stroke="#4b4f9c" stroke-linecap="butt" stroke-linejoin="round" stroke-opacity="0" stroke-width="7.04596"/>
</g>
<g id="Слой-3" opacity="0.6" vectornator:layerName="Слой 3">
<path d="M1367.94 60.8154L361.269 1603.16L1404.78 1746.68L1621.22 67.6168C1621.22 67.6168 1611.07 65.0245 1578.74 61.5154C1561.2 59.6112 1544 57.959 1510.18 56.5263C1504.86 56.301 1492.37 55.2669 1487.42 55.0488C1432.62 52.6332 1403.07 55.4433 1386.13 57.9009C1375.34 59.4657 1367.94 60.8154 1367.94 60.8154Z" fill="#fff5d6" fill-rule="nonzero" opacity="1" stroke="#c6ceff" stroke-linecap="butt" stroke-linejoin="round" stroke-opacity="0" stroke-width="7.04596"/>
</g>
<g id="Слой-4" opacity="0.7" vectornator:layerName="Слой 4">
<path d="M306.322 64.2394L706.86 1733.86L1690.82 1612.62L546.185 10.9599C546.185 10.9599 503.618 10.5623 430.348 24.9289C395.722 31.7183 367.997 38.8028 345.927 46.8004C322.941 55.1299 306.322 64.2394 306.322 64.2394Z" fill="#fff5d6" fill-rule="nonzero" opacity="1" stroke="#c6ceff" stroke-linecap="butt" stroke-linejoin="round" stroke-opacity="0" stroke-width="7.04596"/>
</g>
<g id="Слой-5" opacity="0.6" vectornator:layerName="Слой 5">
<path d="M406.842 1755.55L1344.68 1685.99L1450.09 833.588L1469.23 678.748L1545.12 58.0806C1545.12 58.0806 1517.46 56.689 1494.97 55.6352C1472.47 54.5814 1455.14 53.8654 1455.14 53.8654" fill="#fde491" fill-rule="nonzero" opacity="1" stroke="#c6ceff" stroke-linecap="butt" stroke-linejoin="round" stroke-opacity="0" stroke-width="7.04596"/>
</g>
<g id="Слой-6" opacity="0.4" vectornator:layerName="Слой 6">
<path d="M356.071 44.8303L814.616 1784.98L1595.47 1604.16L492.793 15.7554C492.793 15.7554 462.147 18.863 424.371 26.2825C370.085 36.9444 356.071 44.8303 356.071 44.8303Z" fill="#fde491" fill-rule="nonzero" opacity="1" stroke="#c6ceff" stroke-linecap="butt" stroke-linejoin="round" stroke-opacity="0" stroke-width="7.04596"/>
</g>
<clipPath id="ArtboardFrame">
<rect height="2048" width="2048" x="0" y="0"/>
</clipPath>
<g clip-path="url(#ArtboardFrame)" id="Слой-1" vectornator:layerName="Слой 1">
<path d="M1040.11 325.38L1005.99 412.165L1115.71 410.297L1134.51 457.883L1137.04 426.773L1136.9 402.758C1136.9 402.758 1135.09 402.421 1124.12 389.582C1113.15 376.743 1108.47 363.144 1104.74 343.768C1102.49 332.121 1102.44 313.753 1102.44 313.753L1141.55 281.505L1133.7 306.321C1133.7 306.321 1146.69 292.473 1156.72 279.962C1166.75 267.45 1173.83 256.276 1173.83 256.276L1176.41 277.042L1162.08 296.969C1162.08 296.969 1176.74 287.338 1185.33 276.063C1196.12 261.912 1199.96 252.867 1199.96 252.867C1199.96 252.867 1202.46 264.869 1201.61 275.939C1200.77 287.009 1196.59 297.149 1196.59 297.149C1196.59 297.149 1206.15 287.941 1209.83 278.914C1214.47 267.509 1216 258.016 1216 258.016L1235.09 335.827L1204.31 397.633C1204.31 397.633 1199.37 428.358 1210.05 445.493C1220.72 462.628 1247.01 466.173 1247.01 466.173C1247.01 466.173 1290.81 473.437 1304.37 479.015C1335.01 491.612 1369.31 516.604 1369.31 516.604C1369.31 516.604 1373.67 449.244 1363.56 414.059C1353.46 378.874 1326.65 352.287 1326.65 352.287C1326.65 352.287 1311.17 335.849 1291.49 305.277C1271.82 274.705 1264.72 240.142 1230.59 210.569C1203.75 187.31 1136.95 189.008 1112.57 206.736C1065.26 241.131 1040.11 325.38 1040.11 325.38Z" fill="#464ba9" fill-rule="nonzero" opacity="1" stroke="#383c85" stroke-linecap="butt" stroke-linejoin="round" stroke-width="7.04596"/>
<path d="M1218.27 255.56C1218.27 255.56 1246.78 285.837 1254.82 318.752C1265.58 362.756 1241.63 400.116 1260.05 426.627C1268.34 438.555 1277.6 444.024 1287.76 448.496C1300.18 453.964 1313.94 457.942 1328.92 470.411C1356.13 493.079 1369.36 514.906 1369.36 514.906C1369.36 514.906 1333.38 497.04 1292.87 484.134C1275.2 478.506 1259.96 470.64 1243.97 465.794C1224.71 459.955 1213.32 452.626 1213.32 452.626L1194.31 410.038L1234.46 354.815L1222.26 273.288L1218.27 255.56Z" fill="#383c85" fill-rule="nonzero" opacity="1" stroke="#383c85" stroke-linecap="butt" stroke-linejoin="round" stroke-opacity="0.0095441" stroke-width="7.04596"/>
<path d="M1215.17 257.412C1215.17 257.412 1242.26 290.49 1247.76 322.241C1253.27 353.993 1234.91 388.051 1231.79 415.019C1228.67 441.987 1297 480.073 1297 480.073C1297 480.073 1251.12 472.937 1225.12 458.795C1199.13 444.653 1191.13 422.061 1191.13 422.061L1221.52 371L1215.17 257.412Z" fill="#2e3172" fill-rule="nonzero" opacity="1" stroke="#383c85" stroke-linecap="butt" stroke-linejoin="round" stroke-opacity="0.0095441" stroke-width="7.04596"/>
<path d="M1297.64 1471.65L1226.66 1468.82C1226.66 1468.82 1206.55 1469.12 1201.89 1479.63C1197.23 1490.15 1198.98 1523.97 1198.98 1523.97L1210.58 1541.47L1361.21 1525.61C1361.21 1525.61 1366.06 1512.43 1365.69 1499.82C1365.32 1487.21 1363.5 1460.06 1363.5 1460.06L1336.86 1468.53L1297.64 1471.65Z" fill="#2f337e" fill-rule="nonzero" opacity="1" stroke="#4b4f9c" stroke-linecap="butt" stroke-linejoin="round" stroke-opacity="0" stroke-width="7.04596"/>
<path d="M1137.63 432.369C1136.48 443.694 1132.15 450.091 1132.15 450.091L1114.53 526.588L1158.65 541.057L1205.38 533.331L1217.4 453.835C1217.4 453.835 1212.45 447.954 1209.19 440.956C1205.94 433.958 1205.2 427.027 1205.2 427.027L1166.55 424.008C1166.55 424.008 1139.41 414.903 1137.63 432.369Z" fill="#fe9fdb" fill-rule="nonzero" opacity="1" stroke="#03070d" stroke-linecap="butt" stroke-linejoin="round" stroke-opacity="0" stroke-width="9.24449"/>
<path d="M1205.12 407.059C1205.12 407.059 1204.57 422.379 1207.95 434.372C1211.33 446.365 1218.65 455.031 1218.65 455.031L1212.51 469.417C1212.51 469.417 1200.52 451.141 1196.88 440.31C1193.24 429.479 1194.24 418.916 1194.24 418.916L1205.12 407.059Z" fill="#dc7bb8" fill-rule="nonzero" opacity="1" stroke="#03070d" stroke-linecap="butt" stroke-linejoin="round" stroke-opacity="0" stroke-width="9.24449"/>
<path d="M1136.17 391.024C1136.17 391.024 1137.97 404.923 1137.77 417.673C1137.57 430.422 1137.61 434.4 1137.61 434.4C1137.61 434.4 1158.64 446.248 1176.05 443.032C1193.46 439.815 1205.29 427.442 1205.29 427.442C1205.29 427.442 1203.95 422.312 1204.19 414.215C1204.44 406.118 1207.69 392.966 1207.69 392.966L1136.17 391.024Z" fill="#dc7bb8" fill-rule="nonzero" opacity="1" stroke="#03070d" stroke-linecap="butt" stroke-linejoin="round" stroke-opacity="0" stroke-width="9.24449"/>
<path d="M1105.6 312.114C1105.6 312.114 1103.55 327.461 1107.77 345.335C1112.93 367.24 1121.75 385.521 1133.45 397.716C1145.15 409.91 1155.62 415.946 1163.75 417.424C1171.88 418.903 1185.19 418.718 1197.5 412.99C1209.82 407.262 1220.6 400.118 1231.5 377.514C1242.4 354.911 1239.42 340.263 1238.43 322.772C1237.44 305.28 1215.98 261.232 1215.98 261.232C1215.98 261.232 1215.3 274.978 1211.55 281.926C1206.48 291.312 1195.53 298.679 1195.53 298.679C1195.53 298.679 1195.35 296.277 1197.75 284.144C1200.15 272.01 1198 260.739 1198 260.739C1198 260.739 1191.97 273.513 1183.04 282.752C1174.11 291.99 1162.27 297.693 1162.27 297.693C1162.27 297.693 1169.97 286.238 1172.62 276.753C1175.27 267.268 1172.87 259.754 1172.87 259.754C1172.87 259.754 1165.12 274.676 1154.84 286.378C1144.55 298.08 1131.73 306.562 1131.73 306.562L1139.61 286.361L1105.6 312.114Z" fill="#dc7bb8" fill-rule="nonzero" opacity="1" stroke="#03070d" stroke-linecap="butt" stroke-linejoin="round" stroke-opacity="0" stroke-width="9.24449"/>
<path d="M1120.69 301.701C1120.69 301.701 1117.53 322.628 1119.13 344.13C1120.86 367.304 1127.56 391.39 1133.63 397.716C1145.34 409.91 1155.81 415.946 1163.94 417.424C1172.07 418.903 1185.37 418.718 1197.69 412.99C1210.01 407.262 1233.56 394.629 1240.05 349.014C1246.04 306.93 1215.89 260.944 1215.89 260.944C1215.89 260.944 1215.48 274.978 1211.73 281.926C1206.66 291.312 1195.72 298.679 1195.72 298.679C1195.72 298.679 1195.53 296.277 1197.93 284.144C1200.34 272.01 1198.18 260.739 1198.18 260.739C1198.18 260.739 1192.16 273.513 1183.23 282.752C1174.29 291.99 1162.46 297.693 1162.46 297.693C1162.46 297.693 1170.16 286.238 1172.81 276.753C1175.45 267.268 1173.05 259.754 1173.05 259.754C1173.05 259.754 1165.3 274.676 1155.02 286.378C1144.73 298.08 1131.91 306.562 1131.91 306.562L1139.79 286.361L1120.69 301.701Z" fill="#fe9fdb" fill-rule="nonzero" opacity="1" stroke="#03070d" stroke-linecap="butt" stroke-linejoin="round" stroke-opacity="0" stroke-width="9.24449"/>
<path d="M1225.77 297.188C1225.77 297.188 1230.97 330.711 1220.34 358.874C1209.71 387.037 1182.71 413.692 1182.71 413.692C1182.71 413.692 1217.43 397.819 1229.07 370.056C1243.16 336.434 1225.77 297.188 1225.77 297.188Z" fill="#ffb9e4" fill-rule="nonzero" opacity="1" stroke="#03070d" stroke-linecap="butt" stroke-linejoin="round" stroke-opacity="0" stroke-width="9.24449"/>
<path d="M1238.76 242.54C1238.76 242.54 1265.39 292.301 1278.29 332.656C1291.19 373.011 1277.61 379.766 1290.36 403.959C1303.11 428.152 1347.77 436.682 1347.77 436.682C1347.77 436.682 1329.01 433.185 1308.74 393.853C1303.86 384.367 1297.45 361.868 1290.24 346.522C1267.58 298.234 1238.76 242.54 1238.76 242.54Z" fill="#383c85" fill-rule="nonzero" opacity="1" stroke="#383c85" stroke-linecap="butt" stroke-linejoin="round" stroke-opacity="0.0095441" stroke-width="7.04596"/>
<path d="M1025.37 406.796C1025.37 406.796 1042.16 351.988 1057.83 319.978C1073.51 287.968 1122.15 238.567 1122.15 238.567C1122.15 238.567 1086.35 288.64 1070.83 327.096C1055.31 365.553 1062.72 404.695 1062.72 404.695L1025.37 406.796Z" fill="#383c85" fill-rule="nonzero" opacity="1" stroke="#383c85" stroke-linecap="butt" stroke-linejoin="round" stroke-opacity="0.0095441" stroke-width="7.04596"/>
<path d="M1154.4 242.844C1160.88 233.206 1167.67 216.142 1167.67 216.142C1167.67 216.142 1165.88 232.885 1158.67 246.404C1151.46 259.922 1136.7 269.546 1136.7 269.546C1136.7 269.546 1147.92 252.482 1154.4 242.844Z" fill="#383c85" fill-rule="nonzero" opacity="1" stroke="#383c85" stroke-linecap="butt" stroke-linejoin="round" stroke-opacity="0.0095441" stroke-width="7.04596"/>
<path d="M1184.72 238.625C1184.89 230.56 1181.98 218.043 1181.98 218.043C1181.98 218.043 1188.38 228.651 1189.42 237.738C1190.63 248.325 1184.42 260.876 1184.42 260.876C1184.42 260.876 1184.55 246.691 1184.72 238.625Z" fill="#383c85" fill-rule="nonzero" opacity="1" stroke="#383c85" stroke-linecap="butt" stroke-linejoin="round" stroke-opacity="0.0095441" stroke-width="7.04596"/>
<path d="M1236.44 255.721C1236.44 255.721 1255.15 300.434 1263.89 342.979C1269.11 368.384 1258.42 395.797 1262.76 409.439C1274.38 445.926 1330.11 450.66 1330.11 450.66C1330.11 450.66 1290.11 441.375 1275.46 411.724C1265.87 392.29 1277.19 368.214 1270.17 344.18C1258.13 302.968 1236.44 255.721 1236.44 255.721Z" fill="#4f53b3" fill-rule="nonzero" opacity="1" stroke="#383c85" stroke-linecap="butt" stroke-linejoin="round" stroke-opacity="0.0095441" stroke-width="7.04596"/>
<path d="M1148.05 223.37C1146.65 225.28 1142.34 235.733 1131.96 251.61C1121.58 267.487 1106.55 286.878 1106.55 286.878C1106.55 286.878 1131.35 265.034 1139.58 251.787C1147.8 238.54 1151.4 218.802 1148.05 223.37Z" fill="#4f53b3" fill-rule="nonzero" opacity="1" stroke="#383c85" stroke-linecap="butt" stroke-linejoin="round" stroke-opacity="0.0095441" stroke-width="7.04596"/>
<path d="M1183.17 212.296C1184.72 214.089 1193.94 220.637 1207.09 234.303C1220.24 247.97 1235.78 266.962 1235.78 266.962C1235.78 266.962 1220.04 237.898 1208.97 226.92C1197.9 215.942 1179.47 208.009 1183.17 212.296Z" fill="#4f53b3" fill-rule="nonzero" opacity="1" stroke="#383c85" stroke-linecap="butt" stroke-linejoin="round" stroke-opacity="0.0095441" stroke-width="7.04596"/>
<path d="M1132.81 446.336C1132.81 446.336 1139.72 489.237 1150.53 498.703C1165.86 512.12 1217.96 532.061 1217.96 532.061L1148.39 535.753L1113.24 519.726L1132.81 446.336Z" fill="#dc7bb8" fill-rule="nonzero" opacity="1" stroke="#03070d" stroke-linecap="butt" stroke-linejoin="round" stroke-opacity="0" stroke-width="9.24449"/>
<path d="M1252.91 472.244C1252.91 472.244 1298.07 478.214 1339.49 494.031C1379.14 509.169 1410.07 527.127 1410.07 527.127C1410.07 527.127 1417.17 495.683 1430.3 458.771C1441.51 427.274 1460.08 395.091 1460.08 395.091C1460.08 395.091 1453.32 378.041 1449.69 366.343C1446.07 354.686 1442.89 340.346 1444.62 329.551C1448.93 302.66 1476.95 277.579 1489.02 280.67C1497.54 282.853 1493.07 306.091 1493.07 306.091L1498.59 381.29C1498.59 381.29 1502.33 440.912 1496.34 484.684C1490.35 528.455 1468.16 590.491 1431.49 599.617C1404.92 606.229 1364.12 600.975 1328.49 591.729C1282.88 579.894 1239.56 558.65 1239.56 558.65L1252.91 472.244Z" fill="#fe9fdb" fill-rule="nonzero" opacity="1" stroke="#dd7cb9" stroke-linecap="butt" stroke-linejoin="round" stroke-width="7.04596"/>
<path d="M1225.44 532.677C1225.44 532.677 1293.65 565.906 1342.19 580.457C1369.34 588.597 1401.31 595.479 1424.73 586.675C1460.87 573.082 1480.24 536.579 1480.24 536.579C1480.24 536.579 1468.76 589.063 1428.86 599.955C1398.01 608.378 1345.05 595.098 1318.7 587.671C1292.35 580.244 1300.93 583.277 1281.52 576.18C1262.11 569.082 1237.63 556.633 1237.63 556.633L1225.44 532.677Z" fill="#dd7cb9" fill-rule="nonzero" opacity="1" stroke="#dd7cb9" stroke-linecap="butt" stroke-linejoin="round" stroke-opacity="0" stroke-width="7.04596"/>
<path d="M1289.52 1411.32C1289.52 1411.32 1289.61 1420.02 1280.1 1437.24C1270.6 1454.46 1252.05 1473.85 1252.05 1473.85C1252.05 1473.85 1291.76 1490.02 1318.45 1494.18C1345.13 1498.35 1357.97 1484.81 1357.97 1484.81C1357.97 1484.81 1362.11 1469.18 1359.33 1450.1C1356.56 1431.02 1348.79 1410.49 1348.79 1410.49C1348.79 1410.49 1344.04 1423.39 1317.48 1422.53C1293.09 1421.73 1289.52 1411.32 1289.52 1411.32Z" fill="#4b4f9c" fill-rule="nonzero" opacity="1" stroke="#2f337e" stroke-linecap="butt" stroke-linejoin="round" stroke-width="7.04596"/>
<path d="M934.156 1424.91C934.156 1424.91 932.859 1441.96 910.12 1457.15C887.38 1472.34 852.256 1466.99 830.187 1477.16C810.657 1486.15 830.449 1517.91 840.455 1529.71C850.46 1541.51 888.153 1526.22 888.153 1526.22C888.153 1526.22 962.542 1572.61 991.61 1537.07C1020.68 1501.53 999.546 1485.37 998.473 1457.38C997.662 1436.2 996.846 1433.48 996.846 1433.48C996.846 1433.48 986.213 1456.96 954.171 1446.12C934.684 1439.52 934.156 1424.91 934.156 1424.91Z" fill="#4b4f9c" fill-rule="nonzero" opacity="1" stroke="#2f337e" stroke-linecap="butt" stroke-linejoin="round" stroke-width="7.04596"/>
<path d="M1213.15 1014.09C1213.15 1014.09 1218.16 1069.67 1230.39 1125.23C1242.62 1180.79 1249.96 1174.62 1264.52 1239.58C1279.08 1304.54 1291.5 1407.35 1291.5 1407.35C1291.5 1407.35 1304.61 1415.74 1318.84 1415.86C1333.06 1415.98 1348.41 1407.84 1348.41 1407.84C1348.41 1407.84 1344.76 1314.99 1351.5 1240.42C1359.95 1146.88 1323.89 1117.57 1323.89 1117.57L1331.78 960.356L1213.15 1014.09Z" fill="#fe9fdb" fill-rule="nonzero" opacity="1" stroke="#dd7cb9" stroke-linecap="butt" stroke-linejoin="round" stroke-width="8.14522"/>
<path d="M684.944 576.12C684.944 576.12 688.716 566.693 699.008 558.612C709.3 550.531 722.778 545.191 736.775 543.535C750.772 541.879 754.995 551.988 754.995 551.988L748.337 584.803L732.9 587.578L684.944 576.12Z" fill="#fe9fdb" fill-rule="nonzero" opacity="1" stroke="#dd7cb9" stroke-linecap="butt" stroke-linejoin="round" stroke-width="7.04596"/>
<path d="M986.451 977.36C986.451 977.36 974.325 1036.88 969.195 1098.75C964.065 1160.62 973.068 1156.6 967.324 1229.03C961.581 1301.45 934.946 1423.69 934.946 1423.69C934.946 1423.69 947.173 1439.24 961.532 1441.64C982.372 1445.12 997.178 1431.79 997.178 1431.79C997.178 1431.79 1022.02 1333.91 1051.33 1258.47C1088.1 1163.84 1062.52 1117.52 1062.52 1117.52L1117.8 960.367L986.451 977.36Z" fill="#fe9fdb" fill-rule="nonzero" opacity="1" stroke="#dd7cb9" stroke-linecap="butt" stroke-linejoin="round" stroke-width="8.14522"/>
<path d="M974.614 1015.41L973.029 1067.69C973.029 1067.69 985.951 1081 1005.17 1086.09C1024.4 1091.18 1049.41 1082.96 1049.41 1082.96C1049.41 1082.96 1054.97 1120.97 1038.21 1199.57C1021.44 1278.17 966.865 1443.86 966.865 1443.86L995.658 1433.51C995.658 1433.51 1039.07 1310.79 1059.08 1230.12C1075.38 1164.44 1074.64 1150.18 1071 1118.62C1068.57 1097.58 1094.73 1026.44 1094.73 1026.44L1038.27 1011.97L974.614 1015.41Z" fill="#dd7cb9" fill-rule="nonzero" opacity="1" stroke="#4b4f9c" stroke-linecap="butt" stroke-linejoin="round" stroke-opacity="0" stroke-width="7.04596"/>
<path d="M1222.92 1080.99C1222.92 1080.99 1241.17 1089.2 1256.46 1085.5C1271.75 1081.79 1288.25 1071.34 1288.25 1071.34L1308.57 1158.95C1308.57 1158.95 1325.28 1227.64 1329.69 1290.39C1334.11 1353.15 1322.38 1416.62 1322.38 1416.62L1350.79 1409.74C1350.79 1409.74 1365.45 1249.98 1355.53 1177.75C1349.96 1137.24 1334.98 1121.83 1332.02 1099.33C1328.58 1073.15 1335.32 1013.8 1335.32 1013.8L1279.54 987.612L1215.91 986.222C1215.91 986.222 1216.32 1016.79 1215.4 1038C1214.47 1059.21 1222.92 1080.99 1222.92 1080.99Z" fill="#dd7cb9" fill-rule="nonzero" opacity="1" stroke="#4b4f9c" stroke-linecap="butt" stroke-linejoin="round" stroke-opacity="0" stroke-width="7.04596"/>
<path d="M1089.84 523.74L1190.06 530.991L1218.77 455.089C1218.77 455.089 1228.33 457.223 1237.13 460.944C1247.82 465.465 1253.68 470.635 1253.68 470.635C1253.68 470.635 1247.44 507.848 1250.56 536.76C1253.68 565.672 1270.45 568.032 1272.84 600.856C1275.23 633.68 1255.69 659.223 1255.69 659.223L1263.46 711.435C1263.46 711.435 1318.78 788.849 1343.68 845.437C1368.58 902.026 1409.28 1002.94 1409.28 1002.94C1409.28 1002.94 1313.71 1028.83 1246.89 1037.23C1180.06 1045.63 1123.74 1041.36 1123.74 1041.36L1119.21 915.164L1136.56 900.012L1141.56 895.129L1139 883.529L1089.84 523.74Z" fill="#7277dd" fill-rule="nonzero" opacity="1" stroke="#4b4f9c" stroke-linecap="butt" stroke-linejoin="round" stroke-width="7.04596"/>
<path d="M967.684 909.465L965.636 986.06L1105.72 1002.03L1101.21 904.55L967.684 909.465Z" fill="#7277dd" fill-rule="nonzero" opacity="1" stroke="#4b4f9c" stroke-linecap="butt" stroke-linejoin="round" stroke-opacity="0" stroke-width="7.04596"/>
<path d="M921.068 1005.98L954.591 900.074L964.414 998.066L921.068 1005.98Z" fill="#7277dd" fill-rule="nonzero" opacity="1" stroke="#4b4f9c" stroke-linecap="butt" stroke-linejoin="round" stroke-width="7.04596"/>
<path d="M921.809 1017.6C921.809 1017.6 970.908 1036.39 1018.93 1042.84C1066.96 1049.29 1113.91 1043.4 1113.91 1043.4L1114.32 1007.77L921.809 1017.6Z" fill="#7277dd" fill-rule="nonzero" opacity="1" stroke="#4b4f9c" stroke-linecap="butt" stroke-linejoin="round" stroke-width="7.04596"/>
<path d="M1231.09 729.865L1189.06 731.918L1217.21 888.217L1248.53 1039.5L1300.72 1025.4L1231.09 729.865Z" fill="#4b4f9c" fill-rule="nonzero" opacity="1" stroke="#4b4f9c" stroke-linecap="butt" stroke-linejoin="round" stroke-opacity="0" stroke-width="7.04596"/>
<path d="M1191.54 721.868L1151.78 725.553L1148.75 884.337L1149.81 1038.82C1149.81 1038.82 1158.85 1040.4 1172.5 1040.82C1186.16 1041.25 1204.42 1040.52 1204.42 1040.52L1191.54 721.868Z" fill="#4b4f9c" fill-rule="nonzero" opacity="1" stroke="#4b4f9c" stroke-linecap="butt" stroke-linejoin="round" stroke-opacity="0" stroke-width="7.04596"/>
<path d="M1131.12 738.671L1088.74 725.333L1059.87 881.5L1023.42 1041.02C1023.42 1041.02 1041.2 1046.19 1054.84 1045.37C1069.35 1044.5 1089.34 1044.66 1089.34 1044.66L1131.12 738.671Z" fill="#4b4f9c" fill-rule="nonzero" opacity="1" stroke="#4b4f9c" stroke-linecap="butt" stroke-linejoin="round" stroke-opacity="0" stroke-width="7.04596"/>
<path d="M1103.67 701L1046.96 679.996L985.222 844.979L914.883 1012.08L947.233 1025.65L978.339 1036.82C978.339 1036.82 1000.62 990.149 1031.96 906.194C1063.29 822.239 1103.67 701 1103.67 701Z" fill="#4b4f9c" fill-rule="nonzero" opacity="1" stroke="#4b4f9c" stroke-linecap="butt" stroke-linejoin="round" stroke-opacity="0" stroke-width="7.04596"/>
<path d="M1263.57 707.363C1263.57 707.363 1254.2 720.831 1237.51 724.673C1210.86 730.811 1201.64 732.12 1201.64 732.12C1201.64 732.12 1219.16 731.95 1239.18 766.888C1254.56 793.737 1276.03 858.765 1287.71 890.172C1314.58 962.448 1335.26 1018.96 1335.26 1018.96C1335.26 1018.96 1353.21 1016.27 1371.32 1011.44C1389.43 1006.6 1407.69 999.613 1407.69 999.613C1407.69 999.613 1383.61 926.075 1348.56 854.146C1313.52 782.218 1263.57 707.363 1263.57 707.363Z" fill="#4b4f9c" fill-rule="nonzero" opacity="1" stroke="#4b4f9c" stroke-linecap="butt" stroke-linejoin="round" stroke-opacity="0" stroke-width="7.04596"/>
<path d="M1218.52 740.44C1218.52 740.44 1226.78 738.981 1233.99 736.493C1241.21 734.004 1247.38 730.485 1247.38 730.485L1353.76 1010.72C1353.76 1010.72 1337.52 1017.43 1321.61 1021.37C1305.7 1025.31 1290.12 1026.48 1290.12 1026.48L1218.52 740.44Z" fill="#6064bd" fill-rule="nonzero" opacity="1" stroke="#c6ceff" stroke-linecap="butt" stroke-linejoin="round" stroke-opacity="0" stroke-width="7.04596"/>
<path d="M1108.25 735.726C1108.25 735.726 1119.15 737.023 1128.03 737.106C1139.36 737.213 1145.66 734.956 1145.66 734.956L1166.61 1040.03C1166.61 1040.03 1139.61 1038.12 1116.43 1041.39C1096.55 1044.2 1081.79 1043.85 1081.79 1043.85L1108.25 735.726Z" fill="#6064bd" fill-rule="nonzero" opacity="1" stroke="#c6ceff" stroke-linecap="butt" stroke-linejoin="round" stroke-opacity="0" stroke-width="7.04596"/>
<path d="M1169.8 746.201C1169.8 746.201 1177.12 746.419 1188.26 744.919C1197.17 743.72 1205.52 741.804 1205.52 741.804L1250.15 1033.75C1250.15 1033.75 1233.89 1037.45 1217.52 1038.34C1200.92 1039.24 1184.29 1037.66 1184.29 1037.66L1169.8 746.201Z" fill="#7277dd" fill-rule="nonzero" opacity="1" stroke="#c6ceff" stroke-linecap="butt" stroke-linejoin="round" stroke-opacity="0" stroke-width="7.04596"/>
<path d="M1043.28 742.726C1043.28 742.726 1050.53 745.205 1062.17 747.233C1071.47 748.854 1080.45 749.618 1080.45 749.618L1028.93 1041.69C1028.93 1041.69 1011.45 1040.18 994.79 1035.94C977.889 1031.64 961.781 1024.99 961.781 1024.99L1043.28 742.726Z" fill="#7277dd" fill-rule="nonzero" opacity="1" stroke="#c6ceff" stroke-linecap="butt" stroke-linejoin="round" stroke-opacity="0" stroke-width="7.04596"/>
<path d="M715.201 570.07C668.148 572.26 641.359 576.825 590.483 598.405C556.913 612.644 500.922 654.365 505.397 694.856C509.076 728.141 563.98 760.332 624.641 754.181C763.023 740.15 783.572 660.603 783.572 660.603C783.572 660.603 824.206 624.172 803.242 601.612C782.279 579.053 777.553 567.168 715.201 570.07Z" fill="#ebeeff" fill-rule="nonzero" opacity="1" stroke="#c6ceff" stroke-linecap="butt" stroke-linejoin="round" stroke-width="7.04596"/>
<path d="M1246.41 575.677C1261.73 591.781 1251.02 622.986 1215.54 642.559C1180.06 662.131 1069.15 642.559 1069.15 642.559C1069.15 642.559 1154.21 624.06 1182.33 599.062C1207.59 576.612 1228.17 556.501 1246.41 575.677Z" fill="#8083ea" fill-rule="nonzero" opacity="1" stroke="#c6ceff" stroke-linecap="butt" stroke-linejoin="round" stroke-opacity="0" stroke-width="7.04596"/>
<path d="M1114.76 670.432C1114.76 670.432 1143.24 679.136 1176.94 678.642C1210.64 678.149 1252.48 657.993 1252.48 657.993C1252.48 657.993 1254.7 674.088 1256.71 688.475C1258.72 702.861 1260.35 712.404 1260.35 712.404C1260.35 712.404 1250.01 724.22 1216.91 731.811C1183.82 739.402 1118.31 741.5 1118.31 741.5L1114.76 670.432Z" fill="#6064bd" fill-rule="nonzero" opacity="1" stroke="#c6ceff" stroke-linecap="butt" stroke-linejoin="round" stroke-opacity="0" stroke-width="7.04596"/>
<path d="M738.01 426.029L1116.09 401.356C1119.66 401.123 1122.81 403.712 1123.12 407.138L1166.85 895.296C1167.16 898.723 1164.51 901.689 1160.94 901.923L786.17 903.486C782.598 903.719 773.659 896.231 773.352 892.804L732.099 432.656C731.792 429.229 734.438 426.262 738.01 426.029Z" fill="#cdd4fe" fill-rule="nonzero" opacity="1" stroke="#848dc6" stroke-linecap="butt" stroke-linejoin="round" stroke-width="11.9926"/>
<path d="M884.576 1467.78C884.576 1467.78 900.087 1497.87 933.414 1500.36C966.741 1502.85 999.631 1465.5 999.631 1465.5C999.631 1465.5 1007.51 1490.79 1005.01 1509.7C1002.51 1528.61 989.644 1541.13 989.644 1541.13L876.262 1545.37L837.294 1530.41C837.294 1530.41 820.909 1510.87 822.696 1494.07C823.315 1488.26 829.81 1478.69 839.487 1474.71C857.773 1467.21 884.576 1467.78 884.576 1467.78Z" fill="#2f337e" fill-rule="nonzero" opacity="1" stroke="#2f337e" stroke-linecap="butt" stroke-linejoin="round" stroke-width="7.04596"/>
<path d="M886.984 78.6738L902.243 77.9751C905.7 77.8168 908.782 81.3358 909.129 85.8351L979.303 997.578C979.649 1002.08 977.128 1005.85 973.671 1006.01L958.412 1006.71C954.955 1006.87 951.873 1003.35 951.526 998.85L949.088 967.167L881.353 87.107C881.006 82.6078 883.527 78.8321 886.984 78.6738Z" fill="#001d56" fill-rule="nonzero" opacity="1" stroke="#4b4f9c" stroke-linecap="butt" stroke-linejoin="round" stroke-opacity="0" stroke-width="7.04596"/>
<path d="M796.41 433.92L1073.86 419.139C1078.36 418.899 1082.17 421.684 1082.36 425.358L1083.17 440.453C1083.36 444.127 1079.87 447.3 1075.37 447.54L797.923 462.321C793.423 462.561 789.616 459.776 789.42 456.102L788.616 441.007C788.42 437.333 791.91 434.16 796.41 433.92Z" fill="#001d56" fill-rule="nonzero" opacity="1" stroke="#4b4f9c" stroke-linecap="butt" stroke-linejoin="round" stroke-opacity="0" stroke-width="7.04596"/>
<path d="M1000.57 321.174L1014.93 318.8C1018.81 318.158 1022.48 320.907 1023.13 324.938L1216.25 1525.02C1216.9 1529.05 1214.28 1532.84 1210.4 1533.48L1196.04 1535.85C1192.16 1536.49 1188.49 1533.75 1187.84 1529.71L994.726 329.635C994.077 325.603 996.695 321.815 1000.57 321.174Z" fill="#001d56" fill-rule="nonzero" opacity="1" stroke="#4b4f9c" stroke-linecap="butt" stroke-linejoin="round" stroke-opacity="0" stroke-width="7.04596"/>
<path d="M852.199 322.764L866.646 324.543C870.549 325.024 873.276 328.742 872.737 332.848L712.189 1555.05C711.65 1559.16 708.049 1562.1 704.146 1561.62L689.698 1559.84C685.795 1559.36 683.068 1555.64 683.608 1551.53L844.155 329.328C844.695 325.222 848.296 322.283 852.199 322.764Z" fill="#001d56" fill-rule="nonzero" opacity="1" stroke="#4b4f9c" stroke-linecap="butt" stroke-linejoin="round" stroke-opacity="0" stroke-width="7.04596"/>
<path d="M931.262 641.121L945.216 639.974C948.986 639.664 951.792 641.78 951.485 644.7L920.092 942.628L859.895 1513.92C859.588 1516.84 856.283 1519.46 852.513 1519.77L838.559 1520.91C834.789 1521.22 831.983 1519.11 832.291 1516.19L923.88 646.969C924.187 644.049 927.493 641.431 931.262 641.121Z" fill="#001d56" fill-rule="nonzero" opacity="1" stroke="#4b4f9c" stroke-linecap="butt" stroke-linejoin="round" stroke-opacity="0" stroke-width="7.04596"/>
<path d="M696.615 886.212L1237.48 892.826C1241.98 892.882 1245.61 896.607 1245.57 901.148L1245.43 919.054C1245.4 923.595 1241.71 927.232 1237.21 927.177L696.345 920.562C691.838 920.507 688.214 916.781 688.25 912.24L688.391 894.334C688.426 889.793 692.109 886.156 696.615 886.212Z" fill="#001d56" fill-rule="nonzero" opacity="1" stroke="#4b4f9c" stroke-linecap="butt" stroke-linejoin="round" stroke-opacity="0" stroke-width="7.04596"/>
<path d="M695.761 979.891L1157.86 986.51C1161.71 986.565 1164.81 990.293 1164.78 994.837L1164.66 1012.75C1164.63 1017.3 1161.48 1020.94 1157.63 1020.88L695.53 1014.26C691.679 1014.21 688.583 1010.48 688.614 1005.93L688.734 988.018C688.764 983.474 691.91 979.836 695.761 979.891Z" fill="#001d56" fill-rule="nonzero" opacity="1" stroke="#4b4f9c" stroke-linecap="butt" stroke-linejoin="round" stroke-opacity="0" stroke-width="7.04596"/>
<path d="M367.702 1596.78L1683.13 1596.78C1687.64 1596.78 1691.29 1599.68 1691.29 1603.25L1691.29 1933.11C1691.29 1936.68 1687.64 1939.58 1683.13 1939.58L367.702 1939.58C363.195 1939.58 359.542 1936.68 359.542 1933.11L359.542 1603.25C359.542 1599.68 363.195 1596.78 367.702 1596.78Z" fill="#414351" fill-rule="nonzero" opacity="1" stroke="#38394c" stroke-linecap="butt" stroke-linejoin="round" stroke-width="12.5423"/>
<path d="M610.475 1515.77L1420.45 1515.77C1425.16 1515.77 1428.97 1519.78 1428.97 1524.72L1428.97 1627.16C1428.97 1632.11 1425.16 1636.12 1420.45 1636.12L610.475 1636.12C605.772 1636.12 601.959 1632.11 601.959 1627.16L601.959 1524.72C601.959 1519.78 605.772 1515.77 610.475 1515.77Z" fill="#c8cbda" fill-rule="nonzero" opacity="1" stroke="#767792" stroke-linecap="butt" stroke-linejoin="round" stroke-width="12.5423"/>
<path d="M1415.16 520.791C1415.16 520.791 1410.16 539.913 1409.34 550.472C1408.55 560.657 1409.91 571.356 1409.91 571.356C1409.91 571.356 1401.22 558.773 1400.06 548.672C1398.89 538.571 1400.67 524.862 1400.67 524.862L1415.16 520.791Z" fill="#dd7cb9" fill-rule="nonzero" opacity="1" stroke="#dd7cb9" stroke-linecap="butt" stroke-linejoin="round" stroke-opacity="0" stroke-width="7.04596"/>
<path d="M1436.06 198.652C1419.93 202.267 1411.45 213.151 1415.45 231.558C1419.46 249.965 1439.7 247.459 1458.33 269.117C1476.96 290.775 1488.63 319.189 1488.63 319.189C1488.63 319.189 1498.73 267.343 1485.58 237.208C1472.44 207.074 1455.34 194.331 1436.06 198.652Z" fill="#7ec9cf" fill-rule="nonzero" opacity="1" stroke="#4b4f9c" stroke-linecap="butt" stroke-linejoin="round" stroke-opacity="0" stroke-width="7.04596"/>
<path d="M1509.29 194.837C1502.72 192.345 1483.12 262.107 1474.27 324.074C1465.42 386.041 1473.36 447.319 1473.36 447.319C1473.36 447.319 1491.7 396.009 1500.55 334.042C1509.4 272.076 1515.86 197.329 1509.29 194.837Z" fill="#848dc6" fill-rule="nonzero" opacity="1" stroke="#383c85" stroke-linecap="butt" stroke-linejoin="round" stroke-opacity="0.0095441" stroke-width="7.04596"/>
<path d="M667.959 610.121C667.959 599.254 683.343 590.444 702.32 590.444C721.297 590.444 736.681 599.254 736.681 610.121C736.681 620.988 721.297 629.797 702.32 629.797C683.343 629.797 667.959 620.988 667.959 610.121Z" fill="#ffe89f" fill-rule="nonzero" opacity="1" stroke="#c6ceff" stroke-linecap="butt" stroke-linejoin="round" stroke-width="7.04596"/>
<path d="M1490.58 305.514C1507.36 305.317 1512.06 308.255 1511.22 320.217C1510.7 327.473 1503.31 330.397 1491.96 330.397C1480.6 330.397 1469.45 333.556 1469.05 317.561C1468.77 306.095 1478.92 305.651 1490.58 305.514Z" fill="#fe9fdb" fill-rule="nonzero" opacity="1" stroke="#dd7cb9" stroke-linecap="butt" stroke-linejoin="round" stroke-width="7.04596"/>
<path d="M1491.25 328.3C1509.4 328.129 1514.48 330.675 1513.57 341.037C1513.01 347.323 1505.02 349.856 1492.75 349.856C1480.47 349.856 1468.4 352.593 1467.98 338.736C1467.67 328.803 1478.64 328.419 1491.25 328.3Z" fill="#fe9fdb" fill-rule="nonzero" opacity="1" stroke="#dd7cb9" stroke-linecap="butt" stroke-linejoin="round" stroke-width="7.04596"/>
<path d="M1489.6 348.751C1507.75 348.58 1512.84 351.125 1511.92 361.488C1511.37 367.774 1503.38 370.307 1491.1 370.307C1478.82 370.307 1466.76 373.044 1466.33 359.187C1466.02 349.254 1477 348.869 1489.6 348.751Z" fill="#fe9fdb" fill-rule="nonzero" opacity="1" stroke="#dd7cb9" stroke-linecap="butt" stroke-linejoin="round" stroke-width="7.04596"/>
<path d="M691.616 579.577C701.545 563.911 706.738 560.853 715.864 566.956C721.4 570.658 719.313 578.816 712.489 589.355C705.665 599.893 701.504 611.652 688.382 604.908C678.977 600.074 684.718 590.46 691.616 579.577Z" fill="#fe9fdb" fill-rule="nonzero" opacity="1" stroke="#dd7cb9" stroke-linecap="butt" stroke-linejoin="round" stroke-width="7.04596"/>
<path d="M711.88 594.698C720.835 580.951 725.518 578.268 733.749 583.623C738.742 586.872 736.86 594.031 730.706 603.279C724.551 612.526 720.799 622.846 708.964 616.928C700.482 612.686 705.66 604.249 711.88 594.698Z" fill="#fe9fdb" fill-rule="nonzero" opacity="1" stroke="#dd7cb9" stroke-linecap="butt" stroke-linejoin="round" stroke-width="7.04596"/>
<path d="M1489.2 371.619C1504.6 371.465 1508.91 373.748 1508.14 383.039C1507.66 388.676 1500.88 390.947 1490.46 390.947C1480.05 390.947 1469.81 393.401 1469.44 380.976C1469.18 372.07 1478.5 371.725 1489.2 371.619Z" fill="#fe9fdb" fill-rule="nonzero" opacity="1" stroke="#dd7cb9" stroke-linecap="butt" stroke-linejoin="round" stroke-width="7.04596"/>
<path d="M1503.57 197.853L1514.43 191.982L1509.34 258.709C1509.34 258.709 1502.83 261.083 1497.2 260.346C1491.57 259.609 1486.83 255.761 1486.83 255.761L1503.57 197.853Z" fill="#dae0ff" fill-rule="nonzero" opacity="1" stroke="#383c85" stroke-linecap="butt" stroke-linejoin="round" stroke-opacity="0.0095441" stroke-width="7.04596"/>
<path d="M1507.41 200.351C1498.03 199.237 1492.56 183.177 1494.41 169.159C1496.27 155.141 1507.78 152.913 1515.58 137.595C1523.38 122.278 1525.6 107.889 1525.6 107.889C1525.6 107.889 1536.47 150.499 1531.92 173.615C1527.37 196.731 1516.79 201.465 1507.41 200.351Z" fill="#78acb0" fill-rule="nonzero" opacity="1" stroke="#383c85" stroke-linecap="butt" stroke-linejoin="round" stroke-opacity="0.0095441" stroke-width="7.04596"/>
<path d="M1272.54 493.914C1272.54 493.914 1303.84 493.167 1329.81 502.277C1355.78 511.386 1392.39 531.796 1392.39 531.796C1392.39 531.796 1353.93 522.099 1325.06 512.419C1296.18 502.739 1272.54 493.914 1272.54 493.914Z" fill="#ffb9e4" fill-rule="nonzero" opacity="1" stroke="#2f337e" stroke-linecap="butt" stroke-linejoin="round" stroke-opacity="0" stroke-width="7.04596"/>
<path d="M1777.45 709.398C1777.45 709.398 1771.61 660.976 1790.55 624.183C1809.48 587.39 1816.51 574.162 1851.96 552.687C1887.41 531.211 1959.09 542.134 1954.12 584.116C1952.67 596.396 1936.7 619.148 1910.04 631.927C1883.21 644.78 1845.65 647.65 1831.01 656.713C1791.21 681.357 1777.45 709.398 1777.45 709.398Z" fill="#7ec9cf" fill-rule="nonzero" opacity="1" stroke="#4b4f9c" stroke-linecap="butt" stroke-linejoin="round" stroke-opacity="0" stroke-width="7.04596"/>
<path d="M1434.8 1023.51C1434.8 1023.51 1443.22 920.255 1466.42 871.983C1497.94 806.384 1564.39 782.596 1571.83 779.1C1579.27 775.603 1638.97 761.18 1660.99 790.472C1683.01 819.764 1677.53 845.876 1657.4 868.957C1636.75 892.644 1572.37 904.16 1525.79 939.467C1479.2 974.774 1434.8 1023.51 1434.8 1023.51Z" fill="#7ec9cf" fill-rule="nonzero" opacity="1" stroke="#4b4f9c" stroke-linecap="butt" stroke-linejoin="round" stroke-opacity="0" stroke-width="7.04596"/>
<path d="M1547.48 987.434C1547.48 987.434 1640.41 932.103 1694.17 893.304C1747.94 854.504 1741.55 851.409 1779.79 813.339C1818.02 775.27 1826.65 758.944 1862.96 743.81C1899.28 728.677 1922.82 737.84 1946.39 759.621C1969.96 781.401 1972.25 838.334 1919.61 890.003C1866.97 941.673 1821.41 947.312 1735.82 966.301C1650.23 985.289 1547.48 987.434 1547.48 987.434Z" fill="#7ec9cf" fill-rule="nonzero" opacity="1" stroke="#4b4f9c" stroke-linecap="butt" stroke-linejoin="round" stroke-opacity="0" stroke-width="7.04596"/>
<path d="M1609.3 711.074C1609.3 711.074 1628.92 659.82 1678 674.531C1728.9 689.789 1711.93 739.277 1711.93 739.277C1711.93 739.277 1694.45 707.019 1669.2 701.768C1643.94 696.516 1609.3 711.074 1609.3 711.074Z" fill="#7ec9cf" fill-rule="nonzero" opacity="1" stroke="#4b4f9c" stroke-linecap="butt" stroke-linejoin="round" stroke-opacity="0" stroke-width="7.04596"/>
<path d="M1600.4 403.486C1600.4 403.486 1644.94 368.086 1675.52 330.358C1706.1 292.631 1708.1 293.13 1722.72 252.577C1737.35 212.025 1748.65 177.455 1791.2 184.768C1833.75 192.081 1836.4 236.622 1820.45 273.851C1800.63 320.102 1780.4 325.372 1728.04 355.621C1675.69 385.869 1600.4 403.486 1600.4 403.486Z" fill="#7ec9cf" fill-rule="nonzero" opacity="1" stroke="#4b4f9c" stroke-linecap="butt" stroke-linejoin="round" stroke-opacity="0" stroke-width="7.04596"/>
<path d="M1679.16 206.311C1679.16 206.311 1666.94 143.792 1681.96 111.684C1698.2 76.9695 1743.42 51.4049 1770.43 55.6926C1805.7 61.2917 1799.13 91.6674 1784.43 110.005C1769.73 128.342 1738.79 126.382 1716.12 148.079C1693.44 169.776 1679.16 206.311 1679.16 206.311Z" fill="#7ec9cf" fill-rule="nonzero" opacity="1" stroke="#4b4f9c" stroke-linecap="butt" stroke-linejoin="round" stroke-opacity="0" stroke-width="7.04596"/>
<path d="M1521.03 322.159C1521.03 322.159 1517.48 259.841 1519.94 222.341C1522.39 184.841 1522.53 174.068 1536.85 145.432C1551.17 116.796 1566.48 103.496 1590.85 98.523C1617.58 93.0685 1642.12 104.523 1637.76 138.887C1633.39 173.25 1607.48 178.159 1578.3 219.068C1549.12 259.977 1521.03 322.159 1521.03 322.159Z" fill="#7ec9cf" fill-rule="nonzero" opacity="1" stroke="#4b4f9c" stroke-linecap="butt" stroke-linejoin="round" stroke-opacity="0" stroke-width="7.04596"/>
<path d="M1582.55 219.811C1582.55 219.811 1593.84 181.416 1624.35 186.67C1656.03 192.125 1650.55 225.979 1650.55 225.979C1650.55 225.979 1635.54 210.25 1618.54 208.708C1601.54 207.166 1582.55 219.811 1582.55 219.811Z" fill="#7ec9cf" fill-rule="nonzero" opacity="1" stroke="#4b4f9c" stroke-linecap="butt" stroke-linejoin="round" stroke-opacity="0" stroke-width="7.04596"/>
<path d="M492.958 462.939C487.18 461.268 456.476 447.282 403.918 423.307C351.36 399.331 321.604 402.203 282.726 367.039C247.8 335.45 238.433 302.819 235.53 288.606C232.627 274.393 227.092 237.561 260.52 219.98C293.948 202.399 317.091 218.267 333.701 239.137C354.551 265.334 354.72 281.988 379.255 320.65C403.791 359.312 446.421 402.061 446.421 402.061L492.958 462.939Z" fill="#7ec9cf" fill-rule="nonzero" opacity="1" stroke="#4b4f9c" stroke-linecap="butt" stroke-linejoin="round" stroke-opacity="0" stroke-width="7.04596"/>
<path d="M507.876 1082.2C499.853 1082.12 455.459 1074.97 379.455 1062.7C303.451 1050.42 266.079 1065.12 203.861 1033.09C147.967 1004.33 124.664 964.805 116.03 947.16C107.397 929.515 87.5898 883.058 124.633 847.647C161.676 812.235 196.971 824.632 225.565 846.011C261.458 872.847 267.406 894.71 312.338 936.603C357.271 978.496 426.936 1019.13 426.936 1019.13L507.876 1082.2Z" fill="#7ec9cf" fill-rule="nonzero" opacity="1" stroke="#4b4f9c" stroke-linecap="butt" stroke-linejoin="round" stroke-opacity="0" stroke-width="7.04596"/>
<path d="M663.769 1150.49C663.844 1145.29 667.909 1113.79 656.563 1063.25C645.217 1012.72 639.4 998.468 618.384 948.349C598.776 901.587 571.371 877.061 539.139 863.976C520.818 856.539 446.591 835.255 411.168 877.699C383.679 910.636 391.018 945.272 420.599 970.382C449.444 994.867 573.499 1041.96 609.439 1074.95C645.38 1107.94 663.769 1150.49 663.769 1150.49Z" fill="#7ec9cf" fill-rule="nonzero" opacity="1" stroke="#4b4f9c" stroke-linecap="butt" stroke-linejoin="round" stroke-opacity="0" stroke-width="7.04596"/>
<path d="M569.353 543.348C570.178 540.204 574.713 462.047 575 427.506C575.288 392.966 553.879 344.593 539.149 329.307C514.667 303.902 493.597 296.961 467.912 302.39C441.288 308.017 426.175 340.33 436.329 360.621C445.809 379.566 472.447 392.48 495.605 414.237C522.249 439.27 545.742 477.816 553.88 495.278C570.678 531.32 569.353 543.348 569.353 543.348Z" fill="#7ec9cf" fill-rule="nonzero" opacity="1" stroke="#4b4f9c" stroke-linecap="butt" stroke-linejoin="round" stroke-opacity="0" stroke-width="7.04596"/>
<path d="M591.248 350.89C591.248 350.89 568.312 315.839 573.254 285.805C577.44 260.365 578.489 254.56 594.917 228.181C607.809 207.479 632.79 202.865 645.036 213.174C675.18 238.548 632.21 264.887 614.332 290.63C596.453 316.373 591.248 350.89 591.248 350.89Z" fill="#7ec9cf" fill-rule="nonzero" opacity="1" stroke="#4b4f9c" stroke-linecap="butt" stroke-linejoin="round" stroke-opacity="0" stroke-width="7.04596"/>
<path d="M423.959 261.046C423.959 261.046 420.338 222.834 456.422 216.563C492.506 210.291 501.535 258.929 501.535 258.929C501.535 258.929 480.084 237.887 460.555 237.661C441.026 237.436 423.959 261.046 423.959 261.046Z" fill="#7ec9cf" fill-rule="nonzero" opacity="1" stroke="#4b4f9c" stroke-linecap="butt" stroke-linejoin="round" stroke-opacity="0" stroke-width="7.04596"/>
<path d="M289.982 90.8021C281.805 132.22 339.661 148.496 355.377 166.78C374.882 189.472 377.936 216.913 377.936 216.913C377.936 216.913 409.565 162.13 370.318 105.339C360.625 91.3141 340.706 76.4251 323.435 71.7707C309.278 67.9555 293.373 73.6246 289.982 90.8021Z" fill="#7ec9cf" fill-rule="nonzero" opacity="1" stroke="#4b4f9c" stroke-linecap="butt" stroke-linejoin="round" stroke-opacity="0" stroke-width="7.04596"/>
<path d="M107.617 652.986C105.893 709.913 196.721 703.364 224.917 719.342C259.91 739.172 271.462 772.877 271.462 772.877C271.462 772.877 304.93 687.723 231.687 633.563C213.598 620.188 179.967 610.549 152.906 612.766C130.722 614.583 108.332 629.377 107.617 652.986Z" fill="#7ec9cf" fill-rule="nonzero" opacity="1" stroke="#4b4f9c" stroke-linecap="butt" stroke-linejoin="round" stroke-opacity="0" stroke-width="7.04596"/>
<path d="M357.311 828.35C357.311 828.35 349.531 766.828 393.353 748.961C437.174 731.094 464.154 788.045 464.154 788.045C464.154 788.045 427.623 773.811 400.22 786.605C372.818 799.398 357.311 828.35 357.311 828.35Z" fill="#7ec9cf" fill-rule="nonzero" opacity="1" stroke="#4b4f9c" stroke-linecap="butt" stroke-linejoin="round" stroke-opacity="0" stroke-width="7.04596"/>
<path d="M600.336 665.585C598.849 658.387 629.077 638.861 643.349 635.912C657.62 632.964 670.395 636.409 671.882 643.607C673.369 650.805 655.696 667.592 648.733 661.978C641.771 656.364 601.822 672.783 600.336 665.585Z" fill="#7ec9cf" fill-rule="nonzero" opacity="1" stroke="#c6ceff" stroke-linecap="butt" stroke-linejoin="round" stroke-opacity="0" stroke-width="7.04596"/>
<path d="M537.577 691.397C537.33 684.051 548.936 677.699 563.501 677.208C578.066 676.717 574.947 691.149 590.321 689.62C605.695 688.091 580.246 714.75 565.681 715.24C551.117 715.731 537.825 698.742 537.577 691.397Z" fill="#7ec9cf" fill-rule="nonzero" opacity="1" stroke="#c6ceff" stroke-linecap="butt" stroke-linejoin="round" stroke-opacity="0" stroke-width="7.04596"/>
<path d="M618.736 722.788C617.68 715.515 672.295 705.158 668.127 697.811C663.96 690.464 695.096 699.915 696.153 707.188C697.209 714.462 686.374 722.056 671.953 724.151C657.531 726.245 619.793 730.062 618.736 722.788Z" fill="#7ec9cf" fill-rule="nonzero" opacity="1" stroke="#c6ceff" stroke-linecap="butt" stroke-linejoin="round" stroke-opacity="0" stroke-width="7.04596"/>
<path d="M550.054 647.022C550.842 637.528 565.71 628.665 576.32 624.257C586.931 619.849 620.461 607.73 621.806 613.256C622.544 616.291 603.738 623.611 593.46 634.143C585.026 642.784 598.269 650.361 580.663 656.959C563.034 663.566 549.147 657.937 550.054 647.022Z" fill="#ffb9e4" fill-rule="nonzero" opacity="1" stroke="#c6ceff" stroke-linecap="butt" stroke-linejoin="round" stroke-opacity="0" stroke-width="7.04596"/>
<path d="M669.564 680.483C668.22 674.957 686.551 650.39 697.162 645.982C707.772 641.574 727.458 641.967 728.803 647.493C730.147 653.018 712.69 679.041 710.24 671.19C707.789 663.339 670.909 686.008 669.564 680.483Z" fill="#fdedb1" fill-rule="nonzero" opacity="1" stroke="#c6ceff" stroke-linecap="butt" stroke-linejoin="round" stroke-opacity="0" stroke-width="7.04596"/>
<path d="M982.649 1083.9L978.644 1228.6L953.058 1423.74L996.304 1228.81L1024.51 1094.33C1024.51 1094.33 1015.29 1096.18 1002.84 1093.64C990.383 1091.1 982.649 1083.9 982.649 1083.9Z" fill="#ffb9e4" fill-rule="nonzero" opacity="1" stroke="#c6ceff" stroke-linecap="butt" stroke-linejoin="round" stroke-opacity="0" stroke-width="7.04596"/>
<path d="M1231.22 1094.29L1279.57 1230.74L1313.88 1389.02L1296.12 1224.57L1274.04 1088.96C1274.04 1088.96 1266.09 1094 1253.56 1096.11C1241.03 1098.23 1231.22 1094.29 1231.22 1094.29Z" fill="#ffb9e4" fill-rule="nonzero" opacity="1" stroke="#c6ceff" stroke-linecap="butt" stroke-linejoin="round" stroke-opacity="0" stroke-width="7.04596"/>
<path d="M902.593 1472.54C902.593 1472.54 918.542 1471.67 929.106 1467.17C939.67 1462.66 942.962 1450.12 942.962 1450.12C942.962 1450.12 945.171 1455.42 949.636 1457.75C954.101 1460.09 960.821 1459.46 960.821 1459.46C960.821 1459.46 942.759 1478.4 929.449 1480.04C916.139 1481.69 902.593 1472.54 902.593 1472.54Z" fill="#7377c1" fill-rule="nonzero" opacity="1" stroke="#c6ceff" stroke-linecap="butt" stroke-linejoin="round" stroke-opacity="0" stroke-width="7.04596"/>
<path d="M1274.52 1470.33C1274.52 1470.33 1288.48 1462.58 1296.01 1453.91C1303.55 1445.24 1301.02 1432.52 1301.02 1432.52C1301.02 1432.52 1305.33 1436.32 1310.36 1436.47C1315.4 1436.62 1321.17 1433.12 1321.17 1433.12C1321.17 1433.12 1313.2 1458.04 1301.95 1465.34C1290.7 1472.64 1274.52 1470.33 1274.52 1470.33Z" fill="#7377c1" fill-rule="nonzero" opacity="1" stroke="#c6ceff" stroke-linecap="butt" stroke-linejoin="round" stroke-opacity="0" stroke-width="7.04596"/>
<path d="M865.777 289.993L951.124 285.417C955.624 285.176 959.468 288.629 959.709 293.129L960.282 303.81C960.523 308.31 957.071 312.154 952.571 312.395L867.223 316.971C862.723 317.213 858.879 313.76 858.638 309.26L858.066 298.579C857.824 294.078 861.277 290.235 865.777 289.993Z" fill="#001d56" fill-rule="nonzero" opacity="1" stroke="#4b4f9c" stroke-linecap="butt" stroke-linejoin="round" stroke-opacity="0" stroke-width="7.04596"/>
<path d="M443.387 1586.57L1597.09 1586.57C1601.67 1586.57 1605.39 1589.69 1605.39 1593.54L1605.39 1939.78C1605.39 1943.63 1601.67 1946.75 1597.09 1946.75L443.387 1946.75C438.805 1946.75 435.09 1943.63 435.09 1939.78L435.09 1593.54C435.09 1589.69 438.805 1586.57 443.387 1586.57Z" fill="#5f6376" fill-rule="nonzero" opacity="1" stroke="#36374a" stroke-linecap="butt" stroke-linejoin="round" stroke-width="13.6415"/>
<path d="M549.558 1578.18L1500.2 1578.18C1504.29 1578.18 1507.61 1581.16 1507.61 1584.85L1507.61 1940.5C1507.61 1944.18 1504.29 1947.17 1500.2 1947.17L549.558 1947.17C545.463 1947.17 542.143 1944.18 542.143 1940.5L542.143 1584.85C542.143 1581.16 545.463 1578.18 549.558 1578.18Z" fill="#999db3" fill-rule="nonzero" opacity="1" stroke="#45465d" stroke-linecap="butt" stroke-linejoin="round" stroke-width="11.9926"/>
<g opacity="1">
<path d="M1593.45 2438.5C1582.82 2446.77 1572.67 2455.85 1563.9 2466.08" fill="#414351" fill-rule="nonzero" stroke="none"/>
<path d="M1594.12 2432.84C1592.67 2432.67 1591.14 2433.06 1589.91 2434.03C1587.76 2435.91 1585.55 2437.77 1583.66 2439.91C1580.57 2443.39 1577.76 2447.07 1574.91 2450.75C1571.05 2455.73 1567.35 2460.82 1563.91 2466.09C1568.61 2462.04 1573.44 2458.15 1578.59 2454.69C1582.33 2452.18 1586.23 2449.97 1590.09 2447.69C1592.47 2446.28 1594.71 2444.59 1596.97 2443C1599.45 2441.05 1599.89 2437.45 1597.94 2434.97C1596.96 2433.73 1595.58 2433.02 1594.12 2432.84Z" fill="#232540" stroke="none"/>
</g>
<g opacity="1">
<path d="M1587.54 2473.96C1584.26 2483.15 1580.97 2492.34 1577.69 2501.53" fill="#414351" fill-rule="nonzero" stroke="none"/>
<path d="M1587.22 2468.25C1585 2468.38 1582.95 2469.81 1582.16 2472.03C1581.62 2473.99 1580.98 2475.98 1580.72 2478C1580.29 2481.32 1580.07 2484.68 1579.66 2488C1579.09 2492.53 1578.37 2497.02 1577.69 2501.53C1580.02 2497.61 1582.32 2493.67 1584.75 2489.81C1586.54 2486.98 1588.48 2484.25 1590.25 2481.41C1591.32 2479.68 1592.08 2477.73 1592.91 2475.88C1593.97 2472.91 1592.44 2469.65 1589.47 2468.59C1588.73 2468.33 1587.96 2468.21 1587.22 2468.25Z" fill="#232540" stroke="none"/>
</g>
<g opacity="1">
<path d="M1227.75 2220.84C1230.61 2221.13 1233.48 2221.41 1236.35 2221.7" fill="#c8cbda" fill-rule="nonzero" stroke="none"/>
<path d="M1228.44 2213.91C1224.61 2213.52 1221.19 2216.33 1220.81 2220.16C1220.43 2223.98 1223.24 2227.37 1227.06 2227.75C1227.56 2227.62 1228.07 2227.57 1228.53 2227.34C1229.67 2226.79 1230.73 2225.67 1231.69 2224.91C1233.15 2223.73 1234.77 2222.71 1236.34 2221.69C1235.01 2220.37 1233.61 2219.1 1232.41 2217.66C1231.62 2216.71 1230.82 2215.36 1229.81 2214.59C1229.4 2214.28 1228.9 2214.14 1228.44 2213.91Z" fill="#767792" stroke="none"/>
</g>
<path d="M1521.24 1584.19L1562.64 1584.19C1567.15 1584.19 1570.8 1587.84 1570.8 1592.34L1570.8 1940.43C1570.8 1944.94 1567.15 1948.59 1562.64 1948.59L1521.24 1948.59C1516.74 1948.59 1513.08 1944.94 1513.08 1940.43L1513.08 1592.34C1513.08 1587.84 1516.74 1584.19 1521.24 1584.19Z" fill="#353649" fill-opacity="0.385416" fill-rule="nonzero" opacity="1" stroke="#767792" stroke-linecap="butt" stroke-linejoin="round" stroke-opacity="0" stroke-width="12.5423"/>
<path d="M486.966 1582.77L528.363 1582.77C532.87 1582.77 536.523 1586.43 536.523 1590.93L536.523 1939.02C536.523 1943.52 532.87 1947.18 528.363 1947.18L486.966 1947.18C482.459 1947.18 478.806 1943.52 478.806 1939.02L478.806 1590.93C478.806 1586.43 482.459 1582.77 486.966 1582.77Z" fill="#353649" fill-opacity="0.385416" fill-rule="nonzero" opacity="1" stroke="#767792" stroke-linecap="butt" stroke-linejoin="round" stroke-opacity="0" stroke-width="12.5423"/>
<path d="M1518.32 1583.78L1541.58 1583.78C1544.12 1583.78 1546.17 1587.43 1546.17 1591.93L1546.17 1940.02C1546.17 1944.53 1544.12 1948.18 1541.58 1948.18L1518.32 1948.18C1515.78 1948.18 1513.73 1944.53 1513.73 1940.02L1513.73 1591.93C1513.73 1587.43 1515.78 1583.78 1518.32 1583.78Z" fill="#353649" fill-opacity="0.385416" fill-rule="nonzero" opacity="1" stroke="#767792" stroke-linecap="butt" stroke-linejoin="round" stroke-opacity="0" stroke-width="12.5423"/>
<path d="M508.333 1582.3L531.598 1582.3C534.131 1582.3 536.184 1585.95 536.184 1590.46L536.184 1938.54C536.184 1943.05 534.131 1946.7 531.598 1946.7L508.333 1946.7C505.8 1946.7 503.747 1943.05 503.747 1938.54L503.747 1590.46C503.747 1585.95 505.8 1582.3 508.333 1582.3Z" fill="#353649" fill-opacity="0.385416" fill-rule="nonzero" opacity="1" stroke="#767792" stroke-linecap="butt" stroke-linejoin="round" stroke-opacity="0" stroke-width="12.5423"/>
<path d="M1618.66 1593.69L1651 1593.69C1654.52 1593.69 1657.38 1597.17 1657.38 1601.47L1657.38 1933.45C1657.38 1937.75 1654.52 1941.23 1651 1941.23L1618.66 1941.23C1615.14 1941.23 1612.28 1937.75 1612.28 1933.45L1612.28 1601.47C1612.28 1597.17 1615.14 1593.69 1618.66 1593.69Z" fill="#2b2d47" fill-opacity="0.209459" fill-rule="nonzero" opacity="1" stroke="#767792" stroke-linecap="butt" stroke-linejoin="round" stroke-opacity="0" stroke-width="12.5423"/>
<path d="M389.576 1592.74L421.92 1592.74C425.442 1592.74 428.296 1596.23 428.296 1600.52L428.296 1932.51C428.296 1936.8 425.442 1940.29 421.92 1940.29L389.576 1940.29C386.054 1940.29 383.2 1936.8 383.2 1932.51L383.2 1600.52C383.2 1596.23 386.054 1592.74 389.576 1592.74Z" fill="#2b2d47" fill-opacity="0.209459" fill-rule="nonzero" opacity="1" stroke="#767792" stroke-linecap="butt" stroke-linejoin="round" stroke-opacity="0" stroke-width="12.5423"/>
<path d="M1615.69 1595.28L1632.52 1595.28C1634.36 1595.28 1635.84 1598.76 1635.84 1603.06L1635.84 1935.05C1635.84 1939.34 1634.36 1942.83 1632.52 1942.83L1615.69 1942.83C1613.85 1942.83 1612.37 1939.34 1612.37 1935.05L1612.37 1603.06C1612.37 1598.76 1613.85 1595.28 1615.69 1595.28Z" fill="#2b2d47" fill-opacity="0.209459" fill-rule="nonzero" opacity="1" stroke="#767792" stroke-linecap="butt" stroke-linejoin="round" stroke-opacity="0" stroke-width="12.5423"/>
<path d="M408.305 1593.07L425.143 1593.07C426.976 1593.07 428.462 1596.56 428.462 1600.85L428.462 1932.84C428.462 1937.13 426.976 1940.62 425.143 1940.62L408.305 1940.62C406.471 1940.62 404.986 1937.13 404.986 1932.84L404.986 1600.85C404.986 1596.56 406.471 1593.07 408.305 1593.07Z" fill="#2b2d47" fill-opacity="0.209459" fill-rule="nonzero" opacity="1" stroke="#767792" stroke-linecap="butt" stroke-linejoin="round" stroke-opacity="0" stroke-width="12.5423"/>
<path d="M609.672 1553.35L1417.99 1553.35C1422.5 1553.35 1426.15 1555.07 1426.15 1557.2L1426.15 1568.03C1426.15 1570.16 1422.5 1571.88 1417.99 1571.88L609.672 1571.88C605.165 1571.88 601.512 1570.16 601.512 1568.03L601.512 1557.2C601.512 1555.07 605.165 1553.35 609.672 1553.35Z" fill="#767792" fill-opacity="0.460056" fill-rule="nonzero" opacity="1" stroke="#767792" stroke-linecap="butt" stroke-linejoin="round" stroke-opacity="0" stroke-width="12.5423"/>
</g>
</svg>
