<svg stroke-miterlimit="10" style="fill-rule:nonzero;clip-rule:evenodd;stroke-linecap:round;stroke-linejoin:round" viewBox="0 0 5000 5000" xml:space="preserve" xmlns="http://www.w3.org/2000/svg" xmlns:vectornator="http://vectornator.io"><defs><linearGradient gradientUnits="userSpaceOnUse" id="b" x1="940.639" x2="1579.14" y1="1605.57" y2="1605.57"><stop offset="0" stop-color="#77bacf"/><stop offset="1" stop-color="#7573dd"/></linearGradient><linearGradient gradientUnits="userSpaceOnUse" id="c" x1="1072.24" x2="1424.79" y1="1851.71" y2="1851.71"><stop offset="0" stop-color="#77bacf"/><stop offset="1" stop-color="#7573dd"/></linearGradient><linearGradient gradientUnits="userSpaceOnUse" id="d" x1="1447.54" x2="1722.11" y1="1791.59" y2="1791.59"><stop offset="0" stop-color="#77bacf"/><stop offset="1" stop-color="#7573dd"/></linearGradient><linearGradient gradientUnits="userSpaceOnUse" id="e" x1="1353.31" x2="1735.11" y1="2090.53" y2="2090.53"><stop offset="0" stop-color="#77bacf"/><stop offset="1" stop-color="#7573dd"/></linearGradient><linearGradient gradientUnits="userSpaceOnUse" id="f" x1="1096.61" x2="1434.54" y1="2202.64" y2="2202.64"><stop offset="0" stop-color="#77bacf"/><stop offset="1" stop-color="#7573dd"/></linearGradient><linearGradient gradientUnits="userSpaceOnUse" id="g" x1="804.573" x2="1068.63" y1="1790.26" y2="1790.26"><stop offset="0" stop-color="#77bacf"/><stop offset="1" stop-color="#7573dd"/></linearGradient><linearGradient gradientUnits="userSpaceOnUse" id="h" x1="820.888" x2="1168.49" y1="2095.74" y2="2095.74"><stop offset="0" stop-color="#77bacf"/><stop offset="1" stop-color="#7573dd"/></linearGradient></defs><g vectornator:layerName="Слой 11" fill-rule="evenodd"><path d="M432.307 477.403c47.61-66.229 112.821-74.453 154.694-83.055 28.981-5.953 61.126-5.069 61.126-5.069l3732.863.892s28.73 1.084 40.56 2.057c34.73 2.854 97.88 26.237 152.59 73.814 40.9 35.559 68.52 69.739 83.89 132.36 11.69 47.65 11.29 107.351 11.29 107.351l-7.18 2733.577s.38 23.49-2.36 78.8c-2.61 52.79-17.32 104.5-73.35 157.59-56.02 53.08-126.49 84.18-182.62 84.61-50.32.38 56.13-.43 0 0-50.32.38 56.13-.43 0 0-50.32.38 56.13-.43 0 0-50.32.38 56.13-.43 0 0-50.32.38 56.13-.43 0 0-50.32.38 56.13-.43 0 0-50.32.38 56.13-.43 0 0-50.32.38-3800.629 9.25-3852.585-1.75-57.445-12.17-67.374-16.54-122.692-70.84-55.318-54.29-69.865-126.78-68.212-234.42.909-59.14 14.737-2724.098 14.865-2782.922.001-.651.688-51.912 8.004-86.399 10.441-49.223 19.138-64.891 49.117-106.596Z"/><path d="M2106.22 3756.99 2070 3904.92l818.66-.45s-35.06-47.03-47.09-95.41c-12.02-48.37-13.29-46.73-13.29-46.73l-303.11-10.17-418.95 4.83Z" fill="#151618"/><path d="M2074.07 3892.65s-257.36 174.6-352.31 304.1c-94.95 129.51-120.53 209.23-120.53 209.23l1763.96-1.41s-65.72-184.26-184.07-276.49c-118.34-92.24-300.76-236-300.76-236l-806.29.57Z" fill="#3a3b3f"/></g><path d="M527.884 535.055c50.993-50.421 140.08-47.519 140.08-47.519l3700.906 14.121s70.3 16.391 116.08 62.263 60.07 101.376 60.82 140.587c1.12 58.453 23.06 2010.643 30.92 2561.793 1.25 87.49-17.64 96.22-41.69 129.9-36.32 50.84-113.86 65.75-113.86 65.75l-3812.361 5.81s-69.769 5.58-112.307-31c-42.537-36.59-35.562-147.23-35.562-147.23 5.095-32.28 3.082-2600.31 3.082-2600.31s12.899-103.745 63.892-154.165Z" fill="#151618" fill-rule="evenodd" vectornator:layerName="Слой 10"/><clipPath id="a"><path d="M0 0h5000v5000H0z"/></clipPath><g clip-path="url(#a)" vectornator:layerName="Слой 9"><path d="m796.529 2330.9 21.037 491.11 298.004 243.82 366.77 77.11 37.42 169.71 583.67-21.48 33.26-79.46-51.25-26.69-200.9-104.6-277.17-118.79 12.51-272.99-189.64-52.1h-377.19L796.529 2330.9ZM3265.78 735.003l-71.92 199.437L3903.33 1196l245.21 336.75 202.71 205.98 91.2 31.35-3.1-863.947-313.69-246.328-382.53-62.12-353.11 35.964-124.24 101.354Z" fill="#6b74ab" fill-rule="evenodd"/></g><g vectornator:layerName="Слой 8" fill-rule="evenodd"><path d="m1764.49 614.735-306.72 138.926s-154.92 43.001-195.99 157.448c-41.07 114.451-142.92 343.471-142.92 343.471l274.26 73.76 265.03-138.24 318.72-287.109 403.81-164.868 735.22-134.699s-471.1-3.014-805.91-1.798c-334.81 1.216-545.5 13.109-545.5 13.109ZM4237.48 1571.1c-94.43 59.7-156.26 131.15-165.35 307.14-9.09 175.99 89.28 227.6 128.98 396.82 39.7 169.22-11.49 237.15-11.49 237.15l-254.92 164.64-216.32 117.31-63.75 107.79 541.84-134.76 256.93-146.99-3.54-980.75s-117.95-128.04-212.38-68.35ZM569.606 2262.95l161.18-136.08s74.225 352.36 210.274 523.35c136.05 171 289.61 165.29 333.92 160.64 110.72-11.62 297.06-84.88 297.06-84.88l157.27-229.66-129.81-144.78-446.84 147.28-239.644-262.11s-159.764-344.49-187.223-369.46c-27.459-24.96-153.558-87.27-153.558-87.27l-2.629 482.97Z" fill="#001d56"/><path d="m573.114 2879.22 145.676-41.89 160.052 174.05 1296.008 313.26-1239.398-7.21s-105.947-229.4-192.694-290.13c-86.747-60.72-169.892 117.84-169.892 117.84l.248-265.92Z" fill="#030303"/><path d="M572.837 3008.01s56.917-42.22 129.31-16.37c72.394 25.85 193.129 220.86 193.129 220.86l67.024 105.26-286.606 1.05s-65.441 5.8-82.017-19.5c-25.858-39.46-21.864-95.07-21.864-95.07l1.024-196.23Z" fill="#001d56"/></g><g vectornator:layerName="Слой 7" fill-rule="evenodd"><path d="M3106.84 607.721 2441.7 720.999s-327.11 33.415-397.64 104.837c-93.31 94.502-194.89 191.424-194.89 191.424l199.28-72.283 275.6-55.421-97.29 278.744 917.84-90.04 502.49 499.58s359.44-163.13 435.76-275.81c76.33-112.68-130.47-174.92-130.47-174.92s-291.84-107.17-445.89-126.17c-39.84-4.907-351.4-30.104-281.15-146.238 45.49-75.192 104.67-97.494 229.4-140.507 151.81-52.348 397.15-40.145 560.6 80.29 61.92 45.627 345.33 294.545 417.11 283.155 10.06-1.59 5.99-59.72 5.96-77.95-.04-29.013 2.4-42.943 1.64-99.256-1.14-83.422-5.13-176.147-5.13-176.147s-3.02-62.465-63.18-105.723c-60.77-43.7-429.46-10.31-737.88-17.407-283.31-6.52-527.02 6.564-527.02 6.564Z" fill="#79bbc0"/><path d="M4454.99 2498.58s-83.69 103.67-214.03 180.04c-130.34 76.37-115.07 86.75-240.76 109.76-123.21 22.56-170.43.41-282.44 40.12-112.01 39.72-232.17 134.42-232.17 134.42l-154.78 154.77-171.07 32.59-246.26 165.18s945.73-4.58 1317.49-2.26c109.93.69 152.61-15.14 184.95-56.7 31.59-40.62 48.47-59.66 42.55-207.83-7.3-182.68-3.48-550.09-3.48-550.09Z" fill="#001d56"/><path d="M568.128 2220.06s81.642-137.59 139.139-116.11c57.496 21.47 73.033 101.04 90.848 202 21.26 120.49 10.58 130.39 20.055 226.86 9.474 96.46 8.634 103.13 17.844 158.99 19.373 117.49 58.21 208.71 171.066 278.22 156.18 96.2 259.49-2.7 392.12 82.62 132.63 85.32 486.34 272.24 486.34 272.24l-352.77-2.36-221.45-2.91s-131.97-46.14-231.31-85.64c-99.345-39.5-249.056-223.3-288.003-266.38-38.799-42.91-61.04-53.01-115.963-56.29-54.923-3.28-103.728 43.18-103.728 43.18l-4.188-734.42Z" fill="#79bbc0"/></g><path d="M569.487 769.685c-2.196 63.985 1.105 101.982 1.105 101.982l-.986 1071.303s91.923-12.97 126.515 61.05c58.816 125.87 140.043 445.43 291.49 520.21 218.409 107.85 463.049-128.13 572.779-70.35 100.92 53.13 57.08 146.29 46.27 171.9-49.51 117.34-136.51 186.91-122.64 331.77 13.87 144.85 35.35 235 177.73 308.65 142.37 73.64 551.95 19.93 551.95 19.93l791.34-246.42s100.99 205.48 173.41 197c72.43-8.48 116.69-75.97 264.98-199.78 143.73-119.99 137.03-145.86 338.77-264.16 201.75-118.31 431.69-165.35 468.22-209.05 36.52-43.71 50.48-80.91.14-216.36-50.33-135.45-156.48-244.69-164.08-430.72-7.6-186.03 89.35-219.09 143.57-356 54.23-136.91 94.93-182.32 97.86-264.9 2.92-82.59-153.37-48.01-153.37-48.01s-129.77 25.38-224.47 95.33c-85.09 62.85-146.2 138.25-253.78 132.05-138.84-8-189.64-102.03-244.68-201.46-35.07-63.36-17.7-174.39-92.46-239.84-72.21-63.216-131.97-93.174-326.6-88.671-194.64 4.503-261.42 37.205-451.94 106.691-190.52 69.48-293.3 103.31-309.85 59.18-22.71-60.56 193.16-204.044 154.36-265.979-38.81-61.935-204.01-19.804-324.2 31.187-169.87 72.064-66.98-41.883-66.98-41.883s-300.53 296.905-489.7 353.015c-189.16 56.1-281.17 8.35-308.22-95.74-27.05-104.095 136.33-272.05 200.03-320.634 63.7-48.585 355.34-159.217 355.34-159.217l-527.17-8.71s-555.586 8.12-598.715 8.549c-91.408.91-93.546 86.063-96.018 158.087Z" fill="#030303" fill-rule="evenodd" vectornator:layerName="Слой 6"/><g vectornator:layerName="Слой 4" fill-rule="evenodd"><path d="m2166.87 1752.3-5.28 90.23s-93.45-2.91-140.62 4.61c-23.96 3.82-36.88 15.13-43.93 24.13-12.83 16.4 1.64 30.98 15.41 38.5 13.78 7.53 63.9 15.11 98.08 26.72 34.19 11.61 57.31 18.96 57.31 18.96l39.17 16.18-61.21 80.95-8.38 131.82-49.35 4.55-192.4 2.44 2.25-83.92s155.89 4.98 213.22-12.03c57.33-17.01 16.09-56.02 16.09-56.02s-11.36-9.35-58.96-20.26c-49.24-11.28-99.25-29.43-124.55-46.68-34.16-23.3-55.72-61.13-53.61-103.46 1.75-35.07 28.28-67.04 51.35-84.08 23.06-17.05 69.24-29.74 111.15-35.06 56.69-7.19 134.26 2.42 134.26 2.42Zm179.1-88.74 87.72-51.52-.79 136.92h139.29l-2.37 107.64-147.23 3.55-7.12 147.39-77.46 145.38-80.74-65.84 40.31-284.69 24.29-125.63m326.86 75.76-4.67 145.51 6.28 16.19 102.97-58.72 62.52-112.27-167.1 9.29Zm1024.92 18.86s86.87-5.1 127.68 39.59c40.8 44.68 38.03 158.46 38.03 158.46l.76 215.08-99.68 4.05s3.84-263.5-7.57-286.32c-11.41-22.82-68.61-20.03-68.61-20.03l-42.42-35.71 51.81-75.12Zm205.84-194.79 3.82 606.24 110.31-.6s-2.58-206.69 5.97-293c2.76-27.92 22.5-38.95 54.44-48.82 31.65-9.78 62.7 4.65 79.54 15.1 16.84 10.45 27.3 38.11 28.45 65.61 2.9 69.67-4.89 266.69-4.89 266.69l120.71.98s14.47-275.65-6.68-354.87c-9.63-36.06-45.1-64.53-80.75-79.13-31.38-12.87-72.28-18.2-118.13-11.82-45.86 6.38-74.94 35.99-74.94 35.99l-3.08-203.7-114.77 1.33Z" fill="#e6e5e5"/><path d="m911.329 1607.14 195.881-97.22 319.6 3.54 171.58 100.83-191.53 87.3-309.01-11.38-186.521-83.07Z" fill="url(#b)"/><path d="m1121.96 1741.72-61.79 215.46 385.78 4.84-40.29-216.54-283.7-3.76Z" fill="url(#c)"/><path d="m1444.82 1740.88 52.63 198.26 249.13-149.31-15.32-16.77-114.55-125.38-171.89 93.2Z" fill="url(#d)"/><path d="m1506.5 2000.78-202.5 390.2 453.55-552.57-251.05 162.37Z" fill="url(#e)"/><path d="m1077.9 2007.69 373.43-3.76-191.71 412.23-181.72-408.47Z" fill="url(#f)"/><path d="m887.436 1638.49 188.894 91.58-60.48 192.64-223.845-155.83 95.431-128.39Z" fill="url(#g)"/><path d="m774.869 1812.43 255.281 187.59 179.32 389.3-434.601-576.89Z" fill="url(#h)"/></g><g opacity=".442307" vectornator:layerName="Слой 12" fill-rule="evenodd"><path d="M3398.91 1176.21s212.9-40.78 335.76 109.49c122.87 150.26 83.86 226.59 82.12 520.08-1.73 293.5-89.06 653.89-89.06 653.89l60.11 746.03-160.79 133.5-350.23-381.55s38.1 340.09-149.7 510.83c-187.81 170.73-601.53 172.12-601.53 172.12s-28.94 142.14-90.96 301.46c-62.03 159.32-88.95 241.15-157.13 335.81-68.18 94.66-109.49 126.75-109.49 126.75l-199.59 3.21 246.03-862.7 403.07-512.68 148.5-569.25 318.22-413.67 240.42-548.04 74.25-325.28Zm-1229.7 218.88s-63.48-39.06-89.88 86.52c-14.19 67.51 78.35 156.76 82.37 227.05 3.45 60.47-60.99 115.52-116.59 261.54-55.6 146.02-100.59 169.04-105.82 322.56-5.24 153.51 103.39 218.72 103.39 218.72l381.51-27.21s361.04-230.5 316.25-290.85c-44.79-60.36-495.4 49.42-495.4 49.42l66.29-523.34s11.25-194.8-24.28-275.91c-35.53-81.1-117.84-48.5-117.84-48.5Z" opacity="1"/></g><g vectornator:layerName="Слой 5" fill-rule="evenodd"><path d="M2948.46 1833.5c-55.33-41-69.65-37.21-156.53-24.54-50.68 7.4-182.62 76.74-239.57 115.42-56.95 38.68-186.05 117.5-186.05 117.5l71.77 196.44-.66 101.32 226.18-121.99s-36.87 52.69-39.79 112.4c-1.65 33.84 5.78 42.91 6.61 77.58.82 34.66-137.79 111.97-137.79 111.97s133.07 132.28 247.9 203.04c114.84 70.75 129.72 76.3 229.45 101.69 99.74 25.39 169.49-.12 169.49-.12s-5.94-90.84 41.31-168.74c0 0 67.52-62.25 90.02-91.31 22.51-29.06 29.31-134.99 30.32-117.35 1.02 17.64.46 238.23.46 238.23l133.29-27.83 173.74-26.44-20.7-300.5-8.94-129.72-94.53-115.01-112.84-88.74-189.67 126.29-141.71-6.6-72.22-137.9s35.8-104.09-19.54-145.09Z" fill="#4c4f9c"/><path d="M2402.8 2046.06s209.81-149.41 336.43-200.26c48.81-19.6 179.48 11.58 179.48 11.58s-4.49 27.61 6.15 105.62c9.85 72.18 9.58 93.02 51.33 152.26 35.82 50.81 75.38 64.99 131.07 76.8 56.51 12 138.42-25.67 173.2-51.75 34.77-26.08 117.25-92.23 117.25-92.23s51.28 49.99 90.84 97.04c39.57 47.05 55.86 70.24 67.42 91.15 18.23 32.95 11.22 88.5 19.88 175.08 8.66 86.58 8.73 196.79 8.73 196.79s-52.88 8.64-116.9 21.77c-64.02 13.13-139.18 30.76-139.18 30.76s1.07-83.89 2.69-155.47c1.63-71.57 12.12-81.59 11.26-140.56-.6-41.57-26.05-27.55-51.54 41.39-26.9 72.76-22.19 120.71-87.15 176.8-54.97 47.46-167.43-36.9-167.43-36.9s91.47 98.29 83.93 127.09c-15.83 60.48-9.27 136.23-9.27 136.23s-45.07 12.46-141.83-7.88c-79.58-16.72-171.89-61.37-253.09-120.84-78.68-57.62-158.51-129.9-158.51-129.9l95.54-107.71 141.84 5.84s-123.25-17.45-141.3-75.44c-11.97-38.47-14.84-78.32 7.91-130.02 22.74-51.71 32.49-60.19 48.67-87.13 19.52-32.52 17.61-62.39 6.59-62.05-11.02.35-29.29 41.07-50.68 63.44-31.05 32.49-76.99 72.23-76.99 72.23l-130.9 80.62s6.55-68.35-7.31-134.44-48.13-129.91-48.13-129.91Z" fill="#7277dd"/><path d="M2652.83 2441.23s99.54.54 165.99 11.42c66.46 10.87 51.33 8.77 108.72 33.3 57.38 24.53 111.91 63.43 111.91 63.43s67.23 74.31 78.08 103.38c8.66 23.21 1.45 44.15-1.8 73.09-3.26 28.94-2.21 85.2-2.21 85.2s-74.16 6.58-135.66-4.21c-54.48-9.56-98.32-31.56-153.54-57.53-128.47-60.4-269.58-199.66-269.58-199.66l98.09-108.42Z" fill="#6064bd"/><path d="M2786.32 2114.29c-30.14-25.22-112.91 184.31-77 254.11 35.9 69.8 100.65 63.8 113.3 35.2 12.65-28.6-61.15-78.43-62.7-149.61-1.35-62.1 40.45-127.95 26.4-139.7Zm267.61 374.95c29.13-32.38 68.05-12.97 117.34-46.28 49.79-33.65 83.38-127.52 98.2-119.2 29.49 16.57-68.81 188.91-118.1 234.42-49.29 45.51-126.57-36.56-97.44-68.94Zm-327.3-610.55c41.22-22.24-194.07 94.82-194.07 94.82s-96.36 65.2-94.96 84.35c1.41 19.14 23.2 15.68 95.46-29.11 72.26-44.79 152.34-127.83 193.57-150.06Zm748.31 328.95s3.24 257.01 22.57 320.73c19.33 63.72 56.79 49.04 53.24-26.76-3.55-75.79-75.81-293.97-75.81-293.97Z" fill="#8083ea"/><path d="M2517.72 2530.29s-60.01-104.43-174.05-182.14c-114.03-77.71-174.86-140.72-282.08-128.69-107.22 12.03-132.38 75.66-179.13 158.25-48.02 84.84-72.68 209.53-105.43 405.2-32.74 195.67-40.97 383.88-40.97 383.88s69.5 26.95 144.64 31.06c75.14 4.1 147.36 7.65 147.36 7.65l117.47-502.21 260.94 301.49s-192.29 80.21-316.35 278.53c-137.07 219.1-130.59 399.68-196.64 624.98-66.05 225.3-67.55 276.22-67.55 276.22s91.83 34.8 181.81 47.74c89.99 12.94 178.12 4.01 178.12 4.01l314.01-790.55s403.9-28.04 565.76-184.77c161.86-156.73 71.26-437.66 71.26-437.66s-158.64 21.49-312.93-54.09c-74.26-36.37-147.97-93.06-204.46-142.1-60.89-52.85-101.78-96.8-101.78-96.8Z" fill="#13163f"/><path d="m1841.85 4166.25 294.18 35.43 244.04-740.9L2278.18 3331l161.36 57.83s321.74-77.41 459.73-214.12c137.99-136.7 102.46-351.38 102.46-351.38s-111.61.48-255.7-91.29c-70.81-45.1-94.95-63.44-175.58-137.78-111.27-102.59-211.42-226.61-211.42-226.61l-296.47-125.18s-117.39 27.45-179.72 183.28c-88.55 221.36-126.23 719.94-126.23 719.94s50.18 18.45 108.61 27.02c58.44 8.57 125.14 7.27 125.14 7.27l152.72-620.21s150.93 125.14 237.64 166.67c86.71 41.53 109.18-.57 109.18-.57s-31.93 61.65-45.7 126.92c-13.78 65.27-9.4 134.16-9.4 134.16l235.19-111.43s-145.44 102.22-253.05 159.8c-80.24 42.95-180.69 91.7-256.33 190.2-177.06 230.59-177.32 435.41-249.3 693.49-66.71 239.19-69.46 247.24-69.46 247.24Z" fill="#313379"/><path d="M2390.95 3077.03c94.32-70.68 229.3-128.24 229.3-128.24s168.69-92.4 213.3-79.43c44.61 12.96-9.51 71.04-80.47 142.77s-329.68 173.92-329.68 173.92-179.37 77.59-180.41 45.43c-1.04-32.16 53.65-83.78 147.96-154.45Zm-289.31 450.12c-50.07 151.05-42.18 149.28-69.72 296.05s-40.43 291.01-40.43 291.01 127.22-344.14 185.93-532.5c58.7-188.36 39.88-281.33 14.14-263.72-25.73 17.61-39.86 58.1-89.92 209.16Zm-175.41-1066.02c-39.7 132.21-86.81 667.5-68.89 624.99 17.91-42.51 102.6-360.83 137.77-547.11 35.18-186.29 46.2-188.76 22.97-211.66-23.23-22.9-52.16 1.57-91.85 133.78Z" fill="#474a91"/><path d="M2184.42 1377.22s8.91-3.6 17.2-10.85c8.29-7.26 15.97-18.17 15.97-18.17s94.72 97.56 171.97 200.38 134.6 183.74 137.04 210.89c2.44 27.15-43.58-6.35-127.29-102.3-83.71-95.95-214.89-279.95-214.89-279.95Z" fill="#6b74ab"/><path d="m2184.55 1378.12-67.37-81.33 22.38-19.09 78.02 70.23s-2.8 11.17-11.06 18.71c-8.26 7.55-21.97 11.48-21.97 11.48Zm-67.28-80.9c-.17.24-.35.48-.52.72m.07.41-.75.54" fill="#dce0f7"/><path d="M2119.01 1298.83s-32.57 1.37-53.34-16.5c-20.77-17.86-22.9-34.59-37.33-62.58-14.43-27.98-26.18-58.94-26.18-58.94s57.42 31.38 93.94 56.82c36.53 25.44 44.49 61.19 44.49 61.19s-3.69 6.36-9.08 11.36c-5.4 5.01-12.5 8.65-12.5 8.65Z" fill="#7ec9cf"/><path d="M3682.27 3191.72c-42.4-6.75-74.34-11.74-106.41 31.69-32.06 43.43-33.91 77.93-23.59 152.04 10.32 74.1 34.55 107.93 64.88 144.4 39.2 47.13 120.26 122.28 193.27 154.33 85.19 37.4 196.66 66.35 321.43 67.83 63.08.74 138.32-22.75 177.69-64.15 39.38-41.41 57.76-94.6 57.76-94.6s36.12-82.77-8.01-184.94c-44.14-102.17-96.67-159.73-168.54-223.73-71.87-64-103.71-77.82-149.89-97.36-43.32-18.32-89.83-34.69-144.28-32.69-54.45 2.01-103.88 14.9-124.99 42.91-21.11 28.01 6.35 75.31 6.35 75.31s33.57 55.72 25.45 77.63c-8.12 21.92-49.36-10.55-49.36-10.55s-29.36-31.37-71.76-38.12Z" fill="#5d659c"/><path d="M3562.43 3299.35c-9.26 63.15-10.73 125.19 75.67 232.03 89.12 110.21 199.11 151.63 320.62 181.5 152.01 37.36 183.3 22.58 268.18 6.85 44.78-8.3 103.37-66.72 128.88-124.98 22.92-52.34 15.28-104.07 12.01-127.26-9.66-68.53-81.26-187.82-165.13-265.24-53.57-49.44-137.81-120.36-235.23-138.88-100.01-19.01-140.88-7.67-171.98 30.08-31.11 37.76 34.4 84.84 34.78 142.19.1 15.75-7.01 36.51-47.45 44.15-40.45 7.64-89.55-63.31-139.54-73.97-50-10.66-73.69 45.02-80.81 93.53Z" fill="#7880b6"/><path d="M3828.1 3166.92c-1.24 21.08-1.64 45.35 28.85 73.43 18.92 17.42 26.11 64.02 26.11 64.02s6.49 72.11 24.7 100.42c18.21 28.3 38.12.78 38.12.78l14.25-59.01-58.97-158.41-50.71-30.72s-21.11-11.58-22.35 9.49Z" fill="#5d659c"/></g><g opacity=".175213" vectornator:layerName="Слой 13"><path d="M1995.89 1151.81s32.86 54.95 65.04 90.34c32.19 35.39 63.69 51.22 63.69 51.22l313.03 344.26s85.72 107.22 82.98 129.46c-2.74 22.24-43.33-.86-92.62-48.01-49.29-47.16-104.53-140.62-104.53-140.62l-126.32-118.72-83.1-149.27-65.42-25.13c-24.2-65.76-20.18-54.31-20.18-54.31l-32.57-79.22Z" fill-rule="evenodd" opacity="1"/></g><g vectornator:layerName="Слой 3" fill-rule="evenodd"><path d="m3207.19 1319.48-116.86 179.46-23.99 173.2 28.17 106.42-67.82 49.04-76.69 6.4s-9.48 80.18-5.4 125.05c4.17 45.91 21.57 110.61 40.35 135.65 16.85 22.46 69.7 64.65 128.65 71.17 58.95 6.52 86.29-5.44 132.2-37.78 60.7-42.77 148.15-155.46 148.15-155.46l-45.9-68.87s24.45-34.29 48.82-67.49c19.81-26.99 39.57-53.25 46.12-59.8 14.61-14.6 121.03-146.07 121.03-146.07l-114.77-223.28-134.59-129.37-107.47 41.73Z" fill="#dd7bb8"/><path d="m3187.65 1360.15-107.82 245.7 15.19 124.34s28.19 108.48 86.96 132.34c58.78 23.87 150.52-7.72 150.52-7.72s45.92-31.63 85.69-113.78c39.77-82.15 73.38-214.8 73.38-214.8l-95.34-130.73-159.09-79.54-49.49 44.19Z" fill="#fe9edb"/><path d="M3193.95 1430.17c-16.06 31.9-63.26 125.84-67.6 215.69-4.33 89.84 34.2 175.59 50.26 143.69 16.06-31.89-10.28-59.71-5.95-149.56 4.33-89.84 39.35-241.71 23.29-209.82Z" fill="#ffb9e5"/><path d="M3103.51 1795.88s13.78 62.07 43.09 96.3c29.32 34.24 70.16 14.95 94.88 38.68s16.76 51.98 15.75 70.88c-.91 17.15-23.31 50.28-53.74 81.47-30.43 31.18-70.69 37.65-92.16 38.36-37.08 1.24-83.28-7.12-112.32-46.59-29.05-39.48-35.09-55.06-47.69-112.19-12.59-57.12-2.7-116.31-2.7-116.31l13.65-31.83 121.49-17.74 19.75-1.03Z" fill="#fe9edb"/><path d="M2982.93 1874.68c19.2-12.61 48.44-1.77 58.93 12.51 11.2 15.23 20.28 23.77 45.36 68.92 15.14 27.24 30.71 45 55.24 59.49 24.53 14.5 54.13 15.17 54.13 15.17s-30.44 29.19-67.41 40.18c-18.65 5.54-49.48 7.9-85.58-20.44-36.11-28.34-58.85-92.92-58.85-92.92s-20.44-70.68-1.82-82.91Z" fill="#ffb9e5"/><path d="M2221.44 1424.09c-27.72-24.97-28.03-30.5-44.4-33.8-14.55-2.93-28.63 6.4-20.03 31.37 8.6 24.97 70.02 80.06 63.59 78.01-6.44-2.05-58.87-14.11-57.71 18.72.5 14.26 31.5 25.14 53.69 38.21 22.19 13.07 31.61 32.83 31.61 32.83s-19.78 22.61-28.89 55.43c-6.04 21.74-3.23 57.85-.38 95.65 1.46 19.28 6.4 43.13 3.01 57.22-10.03 41.71-47.46 121.55-75.12 203.31-27.66 81.76-99.53 217.57-79.76 265.54 23.23 56.4 46.3 57.58 138.59 69.3 92.29 11.71 230.55-22.45 230.55-22.45s9.01-33.43-1.16-101.91c-10.16-68.48-56.08-169.03-56.08-169.03l-81.15 49.75s32.18-185.36 63.56-334.65c10.64-50.58 82.29-88.85 84.99-120.75 2.92-34.42-33.56-175.67-46.35-194.46-11.87-17.43-93.44-65.43-127.5-79.08-34.06-13.64-37.08-1.12-17.33 29.88 19.76 31 96.36 94.13 96.36 94.13s.38 110.04-1.92 131.44c-2.3 21.4-20.62-67.44-52.54-119.11-31.91-51.67-47.9-50.58-75.63-75.55Z" fill="#dd7bb8"/><path d="M2213.16 1436.37c-8.39 24.47 38.05 149.18 38.05 149.18s-18.54 32.94-24.89 70.19c-6.36 37.24-.53 78.78-.53 78.78l10.7 66.01-29.15 134.98s-99.1 311.99-83.86 354.55c11.92 33.3 46.2 26.72 113.76 31.92 67.56 5.19 156.47-11.15 156.47-11.15s19.37-44.73 12.42-105.13c-6.95-60.4-40.23-136.47-40.23-136.47l-57.14 31.72-63.79 166.07 41.86-175.46 66.07-352.23s73.87-91.71 79.53-107.12c10.9-29.66-42.73-186.63-42.73-186.63s-103.82-79.42-133.75-81.7c-13.82-1.05.56 18.49 24.74 49.07 24.18 30.59 64.59 46.96 77.47 71.44 6.96 13.25-.88 121.73-4.07 147.45-3.3 26.51-28.76-41.34-28.76-41.34l-40.59-102.84s-63.2-75.76-71.58-51.29Z" fill="#fe9edb"/><path d="m3342.73 2674.54 241.75-40.42s-5.78 89.83 29.34 163.15c31.39 65.51 185.69 268.29 185.69 268.29s-30.97 10.58-31.82 48.25c-.86 37.66 33.17 68.64 38.03 106.24 4.87 37.61-18.54 43.64-36.66 37.44-57.89-19.81-187.39-135.95-187.39-135.95s-100.76-51.7-158.33-166.13c-57.56-114.44-80.61-280.87-80.61-280.87Z" fill="#dd7bb8"/><path d="M3466.28 2652.29c42.22-6.83 102.77-13.23 102.77-13.23s14.96 117.35 30.94 150.66c11.48 23.91 105.39 165.83 105.39 165.83l87.93 114.76s-28.15 13.61-26.03 50.86c2.11 37.26 48.92 97.44 30.19 77.66-34.29-36.21-208.34-189.99-208.34-189.99s-123.27-129.82-145.97-188.87c-21.26-55.31-36.19-156.56-36.19-156.56s17.09-4.3 59.31-11.12Z" fill="#fe9edb"/><path d="M2270.48 1615.19s-26.31 103.71-16.67 138.56c9.63 34.85 28.35-14.58 28.35-14.58s19.81-71.84 13.54-129.31c-6.28-57.48-55.86-114-55.86-114l30.64 119.33Zm1309.73 1255.6c42.25 74.9 133.7 136.93 146.62 154.14 12.91 17.21-86.37-145.56-86.37-145.56l-62.23-102.17s-44.01-102.22-51.33-102.69c-7.32-.47 11.07 121.38 53.31 196.28Z" fill="#ffb9e5"/><path d="m1774.58 3178.03-30.69 94.86s34.41 19.3 83.7 26.97c49.29 7.67 119.04-7.44 119.04-7.44l21.39-90.21s-60.45-1.39-108.81-7.44c-48.36-6.04-84.63-16.74-84.63-16.74Zm109.03 1026.24s-2.22 67.31-19.07 143.52c-16.86 76.21-59.59 170.93-59.59 170.93s59.7 4.23 121.52-7c61.81-11.23 135.01-41.22 135.01-41.22s.71-72.32 12.84-131.3c12.13-58.98 38.78-101.51 38.78-101.51s-57.68-3.5-107.45-9.52c-49.77-6.03-122.04-23.9-122.04-23.9Z" fill="#dd7bb8"/><path d="m1769.65 3186.19-26.59 89.48s30.08 16.8 65.44 22.47c35.37 5.67 79.16 2.84 79.16 2.84s26.99-56.53 7.69-72.68c-8.64-7.23-38.63-10.65-63.26-18.23-33.57-10.32-62.44-23.88-62.44-23.88Zm109.46 1058.05s41.75 15.04 83.76 20.07c42.02 5.03 84.31.03 84.31.03l-44.87 180.63-22.93 54.85s-48.63 4.01-93.17 7.68c-44.54 3.68-84.99 7.01-84.99 7.01s34.12-64.24 53.6-131.81c19.47-67.57 24.29-138.46 24.29-138.46Z" fill="#fe9edb"/><path d="m1799.71 4513.97-197.72 119.94s-101.58 5.82-142.55 46.59c-40.97 40.77-54.78 130.44-8.91 158.71 45.88 28.26 90.71 32.73 227.98-2.9 59.43-15.43 95.41-62.77 153.6-89.84 76.21-35.46 111.11 6.57 176.78-26.08s74.92-40.68 85.89-104.53c10.97-63.85-33.74-149.97-33.74-149.97l-261.33 48.08Z" fill="#4c4f9c"/><path d="m1806.92 4532.17-159.68 98.65 74.41 36.32s-73.07-17.43-124.77-13.91c-48.62 3.31-98.59 19.18-120.22 37.14-44.63 37.06-67.23 117.91 7.05 146.62 67.24 26 207.52-10.54 297.29-82.54 105.2-84.37 98.4-25.11 166.24-91.19 67.83-66.08 36.58-164.82 36.58-164.82l-176.9 33.73Z" fill="#6064bd"/><path d="M1600.32 4670.51c-44.31 3.2-80.52 14.84-101 36.91-20.48 22.06-15.93 45.82 19.07 51.35 35.01 5.53 71.12-1.78 110.66-17.81 39.54-16.04 47.52-46.31 47.52-46.31s-31.94-27.33-76.25-24.14Zm213.87-120.27c-39.17 16.09-80.54 55.62-77.89 72.28 2.66 16.66 49.34 10.44 88.51-5.65s64.17-47.22 68.19-58.71c4.02-11.49-39.63-24.01-78.81-7.92Z" fill="#7277dd"/><path d="M1746 3270.35s-63.52 22.43-138.6 39.87c-75.07 17.43-117.73-25.08-192.06-14.5-74.33 10.57-87.8 25.45-107.43 57.78-19.64 32.34-16.74 79.79 19.39 101.24 36.13 21.45 103.84 5.68 205.95 8.33 102.1 2.64 202.46 2.26 202.46 2.26l153.91 1.91s44.87 2.71 65.9-1.85c21.02-4.55 19.87-51.5 19.87-51.5l-25.62-119.92-203.77-23.62Z" fill="#4c4f9c"/><path d="M1744.78 3284.59s-58.33 23.14-94.42 34.28c-20.72 6.4-53.91 6.18-74.55 10.88l-16.46 63.72s-19.68-59.94-21.84-60.14c-19.57-1.81-93.27-19.37-130-11.35-36.73 8.03-87.29 20.55-86.13 78.91.43 21.54 53.68 48.57 144.5 48.82 124.52.34 305.15-5.3 305.15-5.3s47.35-6.46 76.62-42.84c29.27-36.37 40.45-102.68 40.45-102.68l-143.32-14.3Z" fill="#6064bd"/><path d="M1428.4 3359.03c-39.63 3.52-69.9 31.16-66.39 45.85 3.5 14.69 40.79 16.44 80.42 12.91 39.63-3.52 78.1-26.99 78.1-26.99s-52.5-35.29-92.13-31.77Z" fill="#7277dd"/><path d="M3830.81 3175.65c3.64 26.26 54.77 65.93 54.77 65.93s15.92 110.92 35.76 141.94c19.84 31.01 33.25 21.79 43.58-17.88 10.34-39.68 3.64-99.19-4.47-152-4.42-28.85-17.8-51.75-27.94-59.23-22.35-16.48-38.27-16.48-63.7-11.17-25.42 5.31-41.63 6.14-38 32.41Z" fill="#dd7bb8"/><path d="M4068.33 3258.91c-35.79-20.88-38.95 87.62-14.09 104.52 24.85 16.9 94.58 5.62 113.52-36.92 18.93-42.53-16.82-114.96-37.78-133.22-20.97-18.26-25.85 86.5-61.65 65.62Z" fill="#79bbc0"/><path d="M3745.32 3451.22c-20.65 37.8 6.62 34.29 21.82 67.02 15.19 32.72 11.69 56.1 38.96 63.89 27.27 7.8 48.31-1.94 70.13-32.72 21.82-30.78 28.83-51.82 17.15-90.39-11.69-38.58-69.36-12.47-84.16-9.36-14.81 3.12-43.25-36.23-63.9 1.56Z" fill="#001d56"/><path d="M4127.3 3463.88c-13.38-50.19-84.8 107.45-77.27 153.04 7.53 45.6 75.52 46.68 107.39 29.34 31.86-17.35 17.09-83.02 20.08-98.72 5.54-29.1-36.81-33.46-50.2-83.66Z" fill="#e6e5e5"/><path d="M3843.83 3172.76c-1.13 18.83 52.03 54.61 52.03 54.61s13.5 153.23 43.68 160.45c30.19 7.23 18.16-122.39 7.97-182.31-10.18-59.91-47.12-53.48-47.12-53.48s-55.43 1.89-56.56 20.73Z" fill="#fe9edb"/></g><g vectornator:layerName="Слой 2" fill-rule="evenodd"><path d="M2757.36 1818.96s52.46-95.2 107.43-183.64c54.96-88.45 59.16-99.57 117.88-176.28 58.72-76.7 75.78-95.55 114.9-135.92 39.12-40.36 79.3-76.29 132.18-98.78 78.18-33.26 119.07-42.28 205.61-23.44 86.53 18.85 147.48 92.75 147.48 92.75s11.77 10.73 26.61 33.71c18.52 28.68 41.81 76.43 52.96 146.18 1.07 6.68 2.04 13.56 2.92 20.59 15.72 125.07 3.26 298.39 3.26 298.39l5.64 185.76s7.13 100.62-16.48 161.8c-23.61 61.19-76.28 111.74-76.28 111.74s-4.28-36.45-40.74-78.98c-36.45-42.52-43.03-51.93-89.66-103.69-46.62-51.77-103.43-79.03-126.53-105.61-23.09-26.58-25.85-40.75-19.48-61.91 8.91-29.59 18.5-44.07 18.5-44.07s36.72-13.5 64.21-35.01c27.5-21.5 45.76-51 45.76-51s21.89-33.44 45.08-79.37c27.52-54.54 45.15-99.47 45.15-99.47s-63.4-67.42-76.15-41.15c-12.74 26.27-47.91-40.89-47.91-40.89s0 10.74-5.36 19c-5.37 8.26-51.63-68.56-51.63-68.56s4.54 41.71-5.78 36.34c-11.51-5.98-62.37-90.03-85.08-108.62-6.81-5.57-6.51 5.44-13.37 21.41-10.96 25.56-10.18 24.32-15.64 30.37-12.73 14.1-16.33-68.21-16.33-68.21s-79.91 132.65-92.94 179.7c-14.86 53.67-23.46 93.47-20.99 131.03 2.89 44.16 17.89 94.87 17.89 94.87s-10.63 58.11-44.68 67.29c-47.65 12.86-150.11-8.24-150.11-8.24l-158.32-18.09Z" fill="#2e3273"/><path d="m3219.24 1341.28 2.45 68.32 30.22-64.16s76.56 131.47 79.03 139.03c9.72 29.66-18.51-120.4-18.51-120.4s70.45 145.05 76.87 153.3c11.09 14.21-28.98-112.58-28.98-112.58s63.82 128.19 72.53 135.7c4.84 4.17 2.64-46.82 2.64-46.82s14.09 13.33 29 24.61c25.95 19.62 76.06 75.73 70.87 85.23-7.26 13.31-19.53 60.16-34.31 121.14-4.24 17.5 1.8 35.01-3.8 52.68-25.12 79.27-1.48 102.65-.51 187.53.98 84.88-13.99 0 27.72 63.42 41.71 63.41 81.53 166.09 81.53 166.09s15.53-16.64 26.07-48.25c21.16-63.48 22.72-101.68 19.42-209.11-3.33-108.16-4.67-161.19-.54-271.5 3.92-104.77-1.43-112.09-13.15-199.05-6.33-46.92-23.24-86.96-39.31-115.43-12.66-22.42-24.81-37.66-30.87-43.42-25.92-24.67-59.59-54.54-121.46-76.68-61.87-22.15-101.92-18.87-124.58-14-23.3 5-49.11 6.81-100.08 35.35-50.98 28.53-105.19 88.28-105.19 88.28s-82.4 81.29-139.48 165.93c-57.07 84.63-70.57 100.45-109.85 171.66-39.28 71.2-71.18 120.25-71.18 120.25s136.67 40.74 188.67-21.4c9.32-11.13 68.43-175.94 68.43-175.94s58.41-114.5 94.5-175.18c31.27-52.57 71.85-84.6 71.85-84.6Z" fill="#464ba7"/><path d="M3525.05 1518.83s-25.54-39.96-43.48-78.55c-12.49-26.86-20.62-57.04-16.78-55.98 9.34 2.59 60.26 134.53 60.26 134.53Z" fill="#2e3273"/><path d="m3540.09 1591.42-28.78 148.67s-13.75 82.64 6.99 130.47c16.39 37.83 65.2 94.2 87.4 171.13 22.2 76.94-.25 156.9-.25 156.9s-21.76-47.04-65.8-118.15c-44.04-71.12-82.01-82.6-110.36-166.32-11.26-33.25-1.8-76.76 6.54-101.79 29.35-88.03 104.26-220.91 104.26-220.91Z" fill="#383c85"/><path d="M3538.17 1650.31c3.11 102.99 31.73 169.45 39.29 202.03 7.56 32.58 49.16 30.96 50.71 10.02 1.55-20.95-36.62-128.34-52.59-228.5-15.96-100.17-11.27-172.16-11.27-172.16s-29.24 85.62-26.14 188.61Z" fill="#2e3273"/><path d="M3563.04 1457.91s-.97 66.95 2.69 120.01c3.67 53.06 4.01 58.79 7.13 98.24 4.29 54.21 5.77 66.98 14.82 115.8 8.71 46.96 23.52 93.22 40.05 75.08 12.21-13.4 10.32-44.5 7.92-92.97-2.41-48.46-19.2-109.05-19.2-109.05s-15.34-82.38-28.77-125.98c-13.43-43.61-24.64-81.13-24.64-81.13Zm-613 225.41c38.79-65.89 101.68-161.91 101.68-161.91l155.94-218.67s-107.61 100.08-119.65 111.51C3075.97 1425.68 2981.5 1550 2981.5 1550s-59.32 78.16-70.58 116.03c-11.26 37.87.32 83.17 39.12 17.29Z" fill="#383c85"/><path d="m3380.54 1357.75 43.21 114.89s-15.82-74.02-31.63-121.75c-15.82-47.72-26.92-74.78-31.64-69.15-4.71 5.63 20.06 76.01 20.06 76.01Zm-111.07-60.25s33.49 110.71 38.73 120.79c5.24 10.09-17.77-80.45-17.77-80.45l-10.5-59.35s-11.38-32.86-15.18-24.48c-3.8 8.38 4.72 43.49 4.72 43.49Zm256.33 394.9c.9 14.47.9 115.73.9 115.73l31.65 67.81s53.34 113.93 57.86 127.49c4.53 13.56-10.85-59.68-10.85-59.68l-47.01-105.78-20.8-86.8s-12.66-73.24-11.75-58.77Zm-523.13-24.52c29.43-53.09 136.77-253.93 136.77-253.93l-105.03 160.44s-55.52 86.13-70.41 121.77c-14.89 35.64-33.79 67.29-31.74 81.37 2.05 14.09 40.97-56.55 70.41-109.65Z" fill="#4f53b4"/></g></svg>