<svg width="506" height="518" viewBox="0 0 506 518" fill="none" xmlns="http://www.w3.org/2000/svg">
<path d="M499.926 437.843C495.877 433.454 490.494 431.259 483.778 431.259H451.926L451.926 423.746V417.621C451.926 416.015 451.432 414.677 450.444 413.606C449.457 412.535 448.222 412 446.741 412H426V518H451.926V451.84H474.889C476.37 451.84 477.605 452.371 478.593 453.442C479.58 454.513 480.074 455.861 480.074 457.467V518H506V455.349C506 448.069 503.975 442.233 499.926 437.843Z" fill="white"/>
<path d="M408.774 437.843C404.623 433.454 399.106 431.259 392.222 431.259H359.574L359.574 423.746V417.621C359.574 416.015 359.068 414.677 358.056 413.606C357.043 412.535 355.778 412 354.259 412H333V518H359.574V451.84H383.111C384.63 451.84 385.895 452.371 386.907 453.442C387.92 454.513 388.426 455.861 388.426 457.467V518H415V455.349C415 448.069 412.925 442.233 408.774 437.843Z" fill="white"/>
<path d="M242 496.249C262.272 496.25 280.084 496.25 292.111 496.25C293.63 496.25 294.895 495.713 295.907 494.639C296.92 493.565 297.426 492.222 297.426 490.611V484.972H264.778C257.894 484.972 252.377 482.771 248.226 478.367C244.075 473.963 242 468.11 242 460.806V455.167C242 447.864 244.075 442.01 248.226 437.606C252.377 433.203 257.894 431.001 264.778 431.001L317.774 431V451.629H273.889C272.37 451.629 271.105 452.087 270.093 453.161C269.08 454.235 268.574 455.774 268.574 457.385C268.574 458.996 269.08 460.538 270.093 461.612C271.105 462.686 272.37 463.223 273.889 463.223H301.222C308.106 463.223 313.623 465.424 317.774 469.828C321.925 474.232 324 480.085 324 487.389V493.833C324 501.137 321.925 506.991 317.774 511.394C313.623 515.798 308.106 518 301.222 518C282.784 518.001 263.259 518 242 518L242 496.249Z" fill="white"/>
<path d="M187.028 496.324C192.295 496.324 197.961 496.324 204.915 496.324V482.562H183.302C181.811 482.562 180.569 483.098 179.575 484.17C178.582 485.242 178.085 486.582 178.085 488.19V490.696C178.085 492.304 178.582 493.644 179.575 494.716C180.569 495.788 181.811 496.324 183.302 496.324H187.028ZM159.453 431.222C178.234 431.222 193.851 431 208.641 431C215.399 431 220.814 433.197 224.889 437.592C228.963 441.987 231 447.829 231 455.118V517.897H209.66L206.406 508.288C203.507 512.273 201.152 514.954 196.184 516.562C192.073 518.452 182.954 517.935 179.575 517.935H174.358C167.601 517.935 162.186 515.738 158.111 511.343C154.037 506.948 152 501.106 152 493.818V487.48C152 480.191 154.037 474.349 158.111 469.955C162.186 465.56 167.601 463.362 174.358 463.362H204.915V457.23C204.915 455.622 204.418 454.283 203.425 453.211C202.431 452.139 201.189 451.603 199.698 451.603C193.239 451.603 186.187 451.603 178.234 451.669C170.28 451.736 164.071 451.669 159.453 451.619V431.222Z" fill="white"/>
<path d="M142 518C132.409 518 122.5 518 113.5 518C106.7 518 101.25 515.805 97.15 511.415C93.05 507.025 91 501.19 91 493.909V451.758H82V431.273H91L97.15 412H117.25V431.273H142V451.758H117.25V490.791C117.25 492.397 117.75 493.736 118.75 494.806C119.75 495.877 121 496.412 122.5 496.412H142V518Z" fill="white"/>
<path d="M3.07164e-06 496.249C20.2719 496.25 38.0837 496.25 50.1111 496.25C51.6296 496.25 52.8951 495.713 53.9074 494.639C54.9198 493.565 55.4259 492.222 55.4259 490.611V484.972H22.7778C15.8938 484.972 10.3765 482.771 6.22593 478.367C2.07531 473.963 0 468.11 0 460.806V455.167C0 447.864 2.07531 442.01 6.22593 437.606C10.3765 433.203 15.8938 431.001 22.7778 431.001L71.5728 431V451.629H31.8889C30.3704 451.629 29.1049 452.087 28.0926 453.161C27.0803 454.235 26.5741 455.774 26.5741 457.385C26.5741 458.996 27.0803 460.538 28.0926 461.612C29.1049 462.686 30.3704 463.223 31.8889 463.223H59.2222C66.1062 463.223 71.6235 465.424 75.7741 469.828C79.9247 474.232 82 480.085 82 487.389V493.833C82 501.137 79.9247 506.991 75.7741 511.394C71.6235 515.798 66.1062 518 59.2222 518C40.7835 518.001 21.2593 518 0 518L3.07164e-06 496.249Z" fill="white"/>
<g filter="url(#filter0_d_1957_2150)">
<path d="M160.716 169.638L250.837 273.818L340.958 169.638L301.325 111.536C298.389 107.233 293.61 104.673 288.511 104.673H213.163C208.065 104.673 203.285 107.233 200.349 111.536L160.716 169.638Z" fill="url(#paint0_linear_1957_2150)"/>
<path d="M160.716 169.638L250.837 273.818L340.958 169.638L301.325 111.536C298.389 107.233 293.61 104.673 288.511 104.673H213.163C208.065 104.673 203.285 107.233 200.349 111.536L160.716 169.638Z" fill="url(#paint1_radial_1957_2150)" fill-opacity="0.36"/>
<path d="M160.716 169.638L250.837 273.818L340.958 169.638L301.325 111.536C298.389 107.233 293.61 104.673 288.511 104.673H213.163C208.065 104.673 203.285 107.233 200.349 111.536L160.716 169.638Z" fill="url(#paint2_radial_1957_2150)" fill-opacity="0.36"/>
<path d="M76 169.638L111.954 269.311C113.014 272.252 113.223 275.448 112.555 278.509L99.7321 337.271C97.5251 347.384 104.976 357 115.02 357H386.601C396.638 357 404.088 347.396 401.892 337.287L389.119 278.474C388.452 275.4 388.668 272.192 389.742 269.243L426 169.712H393.432C388.928 169.712 384.645 171.709 381.667 175.197C341.717 221.989 287.473 284.774 271.428 303.333C268.456 306.77 264.225 308.711 259.761 308.711H244.049C240.066 308.711 236.242 307.174 233.401 304.292C207.671 278.188 155.166 216.9 119.522 175.112C116.546 171.623 112.273 169.638 107.769 169.638H76Z" fill="url(#paint3_linear_1957_2150)"/>
<path d="M76 169.638L111.954 269.311C113.014 272.252 113.223 275.448 112.555 278.509L99.7321 337.271C97.5251 347.384 104.976 357 115.02 357H386.601C396.638 357 404.088 347.396 401.892 337.287L389.119 278.474C388.452 275.4 388.668 272.192 389.742 269.243L426 169.712H393.432C388.928 169.712 384.645 171.709 381.667 175.197C341.717 221.989 287.473 284.774 271.428 303.333C268.456 306.77 264.225 308.711 259.761 308.711H244.049C240.066 308.711 236.242 307.174 233.401 304.292C207.671 278.188 155.166 216.9 119.522 175.112C116.546 171.623 112.273 169.638 107.769 169.638H76Z" fill="url(#paint4_radial_1957_2150)" fill-opacity="0.36"/>
<path d="M76 169.638L111.954 269.311C113.014 272.252 113.223 275.448 112.555 278.509L99.7321 337.271C97.5251 347.384 104.976 357 115.02 357H386.601C396.638 357 404.088 347.396 401.892 337.287L389.119 278.474C388.452 275.4 388.668 272.192 389.742 269.243L426 169.712H393.432C388.928 169.712 384.645 171.709 381.667 175.197C341.717 221.989 287.473 284.774 271.428 303.333C268.456 306.77 264.225 308.711 259.761 308.711H244.049C240.066 308.711 236.242 307.174 233.401 304.292C207.671 278.188 155.166 216.9 119.522 175.112C116.546 171.623 112.273 169.638 107.769 169.638H76Z" fill="url(#paint5_radial_1957_2150)" fill-opacity="0.36"/>
<path d="M147.13 125.926C144.19 130.191 139.432 132.723 134.361 132.723H76.0006L104.544 54.0445C114.809 25.7495 141.009 7 170.281 7H331.719C360.992 7 387.191 25.7495 397.456 54.0445L426 132.723H367.313C362.242 132.723 357.484 130.191 354.544 125.926L330.672 91.3002C320.627 76.7299 304.372 68.077 287.046 68.077H214.628C197.302 68.077 181.048 76.7299 171.002 91.3002L147.13 125.926Z" fill="url(#paint6_linear_1957_2150)"/>
<path d="M147.13 125.926C144.19 130.191 139.432 132.723 134.361 132.723H76.0006L104.544 54.0445C114.809 25.7495 141.009 7 170.281 7H331.719C360.992 7 387.191 25.7495 397.456 54.0445L426 132.723H367.313C362.242 132.723 357.484 130.191 354.544 125.926L330.672 91.3002C320.627 76.7299 304.372 68.077 287.046 68.077H214.628C197.302 68.077 181.048 76.7299 171.002 91.3002L147.13 125.926Z" fill="url(#paint7_radial_1957_2150)" fill-opacity="0.36"/>
<path d="M147.13 125.926C144.19 130.191 139.432 132.723 134.361 132.723H76.0006L104.544 54.0445C114.809 25.7495 141.009 7 170.281 7H331.719C360.992 7 387.191 25.7495 397.456 54.0445L426 132.723H367.313C362.242 132.723 357.484 130.191 354.544 125.926L330.672 91.3002C320.627 76.7299 304.372 68.077 287.046 68.077H214.628C197.302 68.077 181.048 76.7299 171.002 91.3002L147.13 125.926Z" fill="url(#paint8_radial_1957_2150)" fill-opacity="0.36"/>
</g>
<defs>
<filter id="filter0_d_1957_2150" x="61" y="0" width="380" height="380" filterUnits="userSpaceOnUse" color-interpolation-filters="sRGB">
<feFlood flood-opacity="0" result="BackgroundImageFix"/>
<feColorMatrix in="SourceAlpha" type="matrix" values="0 0 0 0 0 0 0 0 0 0 0 0 0 0 0 0 0 0 127 0" result="hardAlpha"/>
<feOffset dy="8"/>
<feGaussianBlur stdDeviation="7.5"/>
<feComposite in2="hardAlpha" operator="out"/>
<feColorMatrix type="matrix" values="0 0 0 0 0.32549 0 0 0 0 0.901961 0 0 0 0 0.85098 0 0 0 0.4 0"/>
<feBlend mode="normal" in2="BackgroundImageFix" result="effect1_dropShadow_1957_2150"/>
<feBlend mode="normal" in="SourceGraphic" in2="effect1_dropShadow_1957_2150" result="shape"/>
</filter>
<linearGradient id="paint0_linear_1957_2150" x1="0.792084" y1="182" x2="389.562" y2="347.795" gradientUnits="userSpaceOnUse">
<stop stop-color="#B3FFED"/>
<stop offset="0.166667" stop-color="#AFF5EA"/>
<stop offset="0.333333" stop-color="#5EEAD4"/>
<stop offset="0.5" stop-color="#22D3EE"/>
<stop offset="0.666667" stop-color="#0EA5E9"/>
<stop offset="0.833333" stop-color="#2563EB"/>
<stop offset="1" stop-color="#4338CA"/>
</linearGradient>
<radialGradient id="paint1_radial_1957_2150" cx="0" cy="0" r="1" gradientUnits="userSpaceOnUse" gradientTransform="translate(251 357) rotate(-90) scale(175)">
<stop stop-color="#5B21B6"/>
<stop offset="1" stop-color="#5B21B6" stop-opacity="0"/>
</radialGradient>
<radialGradient id="paint2_radial_1957_2150" cx="0" cy="0" r="1" gradientUnits="userSpaceOnUse" gradientTransform="translate(251 7) rotate(90) scale(175)">
<stop stop-color="#99F6E4"/>
<stop offset="1" stop-color="#67E8F9" stop-opacity="0"/>
</radialGradient>
<linearGradient id="paint3_linear_1957_2150" x1="0.792084" y1="182" x2="389.562" y2="347.795" gradientUnits="userSpaceOnUse">
<stop stop-color="#B3FFED"/>
<stop offset="0.166667" stop-color="#AFF5EA"/>
<stop offset="0.333333" stop-color="#5EEAD4"/>
<stop offset="0.5" stop-color="#22D3EE"/>
<stop offset="0.666667" stop-color="#0EA5E9"/>
<stop offset="0.833333" stop-color="#2563EB"/>
<stop offset="1" stop-color="#4338CA"/>
</linearGradient>
<radialGradient id="paint4_radial_1957_2150" cx="0" cy="0" r="1" gradientUnits="userSpaceOnUse" gradientTransform="translate(251 357) rotate(-90) scale(175)">
<stop stop-color="#5B21B6"/>
<stop offset="1" stop-color="#5B21B6" stop-opacity="0"/>
</radialGradient>
<radialGradient id="paint5_radial_1957_2150" cx="0" cy="0" r="1" gradientUnits="userSpaceOnUse" gradientTransform="translate(251 7) rotate(90) scale(175)">
<stop stop-color="#99F6E4"/>
<stop offset="1" stop-color="#67E8F9" stop-opacity="0"/>
</radialGradient>
<linearGradient id="paint6_linear_1957_2150" x1="0.792084" y1="182" x2="389.562" y2="347.795" gradientUnits="userSpaceOnUse">
<stop stop-color="#B3FFED"/>
<stop offset="0.166667" stop-color="#AFF5EA"/>
<stop offset="0.333333" stop-color="#5EEAD4"/>
<stop offset="0.5" stop-color="#22D3EE"/>
<stop offset="0.666667" stop-color="#0EA5E9"/>
<stop offset="0.833333" stop-color="#2563EB"/>
<stop offset="1" stop-color="#4338CA"/>
</linearGradient>
<radialGradient id="paint7_radial_1957_2150" cx="0" cy="0" r="1" gradientUnits="userSpaceOnUse" gradientTransform="translate(251 357) rotate(-90) scale(175)">
<stop stop-color="#5B21B6"/>
<stop offset="1" stop-color="#5B21B6" stop-opacity="0"/>
</radialGradient>
<radialGradient id="paint8_radial_1957_2150" cx="0" cy="0" r="1" gradientUnits="userSpaceOnUse" gradientTransform="translate(251 7) rotate(90) scale(175)">
<stop stop-color="#99F6E4"/>
<stop offset="1" stop-color="#67E8F9" stop-opacity="0"/>
</radialGradient>
</defs>
</svg>
