<svg width="506" height="511" viewBox="0 0 506 511" fill="none" xmlns="http://www.w3.org/2000/svg">
<path d="M499.926 430.843C495.877 426.454 490.494 424.259 483.778 424.259H451.926L451.926 416.746V410.621C451.926 409.015 451.432 407.677 450.444 406.606C449.457 405.535 448.222 405 446.741 405H426V511H451.926V444.84H474.889C476.37 444.84 477.605 445.371 478.593 446.442C479.58 447.513 480.074 448.861 480.074 450.467V511H506V448.349C506 441.069 503.975 435.233 499.926 430.843Z" fill="white"/>
<path d="M408.774 430.843C404.623 426.454 399.106 424.259 392.222 424.259H359.574L359.574 416.746V410.621C359.574 409.015 359.068 407.677 358.056 406.606C357.043 405.535 355.778 405 354.259 405H333V511H359.574V444.84H383.111C384.63 444.84 385.895 445.371 386.907 446.442C387.92 447.513 388.426 448.861 388.426 450.467V511H415V448.349C415 441.069 412.925 435.233 408.774 430.843Z" fill="white"/>
<path d="M242 489.249C262.272 489.25 280.084 489.25 292.111 489.25C293.63 489.25 294.895 488.713 295.907 487.639C296.92 486.565 297.426 485.222 297.426 483.611V477.972H264.778C257.894 477.972 252.377 475.771 248.226 471.367C244.075 466.963 242 461.11 242 453.806V448.167C242 440.864 244.075 435.01 248.226 430.606C252.377 426.203 257.894 424.001 264.778 424.001L317.774 424V444.629H273.889C272.37 444.629 271.105 445.087 270.093 446.161C269.08 447.235 268.574 448.774 268.574 450.385C268.574 451.996 269.08 453.538 270.093 454.612C271.105 455.686 272.37 456.223 273.889 456.223H301.222C308.106 456.223 313.623 458.424 317.774 462.828C321.925 467.232 324 473.085 324 480.389V486.833C324 494.137 321.925 499.991 317.774 504.394C313.623 508.798 308.106 511 301.222 511C282.784 511.001 263.259 511 242 511L242 489.249Z" fill="white"/>
<path d="M187.028 489.324C192.295 489.324 197.961 489.324 204.915 489.324V475.562H183.302C181.811 475.562 180.569 476.098 179.575 477.17C178.582 478.242 178.085 479.582 178.085 481.19V483.696C178.085 485.304 178.582 486.644 179.575 487.716C180.569 488.788 181.811 489.324 183.302 489.324H187.028ZM159.453 424.222C178.234 424.222 193.851 424 208.641 424C215.399 424 220.814 426.197 224.889 430.592C228.963 434.987 231 440.829 231 448.118V510.897H209.66L206.406 501.288C203.507 505.273 201.152 507.954 196.184 509.562C192.073 511.452 182.954 510.935 179.575 510.935H174.358C167.601 510.935 162.186 508.738 158.111 504.343C154.037 499.948 152 494.106 152 486.818V480.48C152 473.191 154.037 467.349 158.111 462.955C162.186 458.56 167.601 456.362 174.358 456.362H204.915V450.23C204.915 448.622 204.418 447.283 203.425 446.211C202.431 445.139 201.189 444.603 199.698 444.603C193.239 444.603 186.187 444.603 178.234 444.669C170.28 444.736 164.071 444.669 159.453 444.619V424.222Z" fill="white"/>
<path d="M142 511C132.409 511 122.5 511 113.5 511C106.7 511 101.25 508.805 97.15 504.415C93.05 500.025 91 494.19 91 486.909V444.758H82V424.273H91L97.15 405H117.25V424.273H142V444.758H117.25V483.791C117.25 485.397 117.75 486.736 118.75 487.806C119.75 488.877 121 489.412 122.5 489.412H142V511Z" fill="white"/>
<path d="M3.07164e-06 489.249C20.2719 489.25 38.0837 489.25 50.1111 489.25C51.6296 489.25 52.8951 488.713 53.9074 487.639C54.9198 486.565 55.4259 485.222 55.4259 483.611V477.972H22.7778C15.8938 477.972 10.3765 475.771 6.22593 471.367C2.07531 466.963 0 461.11 0 453.806V448.167C0 440.864 2.07531 435.01 6.22593 430.606C10.3765 426.203 15.8938 424.001 22.7778 424.001L71.5728 424V444.629H31.8889C30.3704 444.629 29.1049 445.087 28.0926 446.161C27.0803 447.235 26.5741 448.774 26.5741 450.385C26.5741 451.996 27.0803 453.538 28.0926 454.612C29.1049 455.686 30.3704 456.223 31.8889 456.223H59.2222C66.1062 456.223 71.6235 458.424 75.7741 462.828C79.9247 467.232 82 473.085 82 480.389V486.833C82 494.137 79.9247 499.991 75.7741 504.394C71.6235 508.798 66.1062 511 59.2222 511C40.7835 511.001 21.2593 511 0 511L3.07164e-06 489.249Z" fill="white"/>
<path d="M160.716 162.638L250.837 266.818L340.958 162.638L301.325 104.536C298.389 100.233 293.61 97.6733 288.511 97.6733H213.163C208.065 97.6733 203.285 100.233 200.349 104.536L160.716 162.638Z" fill="url(#paint0_linear_2050_1796)"/>
<path d="M160.716 162.638L250.837 266.818L340.958 162.638L301.325 104.536C298.389 100.233 293.61 97.6733 288.511 97.6733H213.163C208.065 97.6733 203.285 100.233 200.349 104.536L160.716 162.638Z" fill="url(#paint1_radial_2050_1796)" fill-opacity="0.36"/>
<path d="M160.716 162.638L250.837 266.818L340.958 162.638L301.325 104.536C298.389 100.233 293.61 97.6733 288.511 97.6733H213.163C208.065 97.6733 203.285 100.233 200.349 104.536L160.716 162.638Z" fill="url(#paint2_radial_2050_1796)" fill-opacity="0.36"/>
<path d="M76 162.638L111.954 262.311C113.014 265.252 113.223 268.448 112.555 271.509L99.7321 330.271C97.5251 340.384 104.976 350 115.02 350H386.601C396.638 350 404.088 340.396 401.892 330.287L389.119 271.474C388.452 268.4 388.668 265.192 389.742 262.243L426 162.712H393.432C388.928 162.712 384.645 164.709 381.667 168.197C341.717 214.989 287.473 277.774 271.428 296.333C268.456 299.77 264.225 301.711 259.761 301.711H244.049C240.066 301.711 236.242 300.174 233.401 297.292C207.671 271.188 155.166 209.9 119.522 168.112C116.546 164.623 112.273 162.638 107.769 162.638H76Z" fill="url(#paint3_linear_2050_1796)"/>
<path d="M76 162.638L111.954 262.311C113.014 265.252 113.223 268.448 112.555 271.509L99.7321 330.271C97.5251 340.384 104.976 350 115.02 350H386.601C396.638 350 404.088 340.396 401.892 330.287L389.119 271.474C388.452 268.4 388.668 265.192 389.742 262.243L426 162.712H393.432C388.928 162.712 384.645 164.709 381.667 168.197C341.717 214.989 287.473 277.774 271.428 296.333C268.456 299.77 264.225 301.711 259.761 301.711H244.049C240.066 301.711 236.242 300.174 233.401 297.292C207.671 271.188 155.166 209.9 119.522 168.112C116.546 164.623 112.273 162.638 107.769 162.638H76Z" fill="url(#paint4_radial_2050_1796)" fill-opacity="0.36"/>
<path d="M76 162.638L111.954 262.311C113.014 265.252 113.223 268.448 112.555 271.509L99.7321 330.271C97.5251 340.384 104.976 350 115.02 350H386.601C396.638 350 404.088 340.396 401.892 330.287L389.119 271.474C388.452 268.4 388.668 265.192 389.742 262.243L426 162.712H393.432C388.928 162.712 384.645 164.709 381.667 168.197C341.717 214.989 287.473 277.774 271.428 296.333C268.456 299.77 264.225 301.711 259.761 301.711H244.049C240.066 301.711 236.242 300.174 233.401 297.292C207.671 271.188 155.166 209.9 119.522 168.112C116.546 164.623 112.273 162.638 107.769 162.638H76Z" fill="url(#paint5_radial_2050_1796)" fill-opacity="0.36"/>
<path d="M147.13 118.926C144.19 123.191 139.432 125.723 134.361 125.723H76.0006L104.544 47.0445C114.809 18.7495 141.009 0 170.281 0H331.719C360.992 0 387.191 18.7495 397.456 47.0445L426 125.723H367.313C362.242 125.723 357.484 123.191 354.544 118.926L330.672 84.3002C320.627 69.7299 304.372 61.077 287.046 61.077H214.628C197.302 61.077 181.048 69.7299 171.002 84.3002L147.13 118.926Z" fill="url(#paint6_linear_2050_1796)"/>
<path d="M147.13 118.926C144.19 123.191 139.432 125.723 134.361 125.723H76.0006L104.544 47.0445C114.809 18.7495 141.009 0 170.281 0H331.719C360.992 0 387.191 18.7495 397.456 47.0445L426 125.723H367.313C362.242 125.723 357.484 123.191 354.544 118.926L330.672 84.3002C320.627 69.7299 304.372 61.077 287.046 61.077H214.628C197.302 61.077 181.048 69.7299 171.002 84.3002L147.13 118.926Z" fill="url(#paint7_radial_2050_1796)" fill-opacity="0.36"/>
<path d="M147.13 118.926C144.19 123.191 139.432 125.723 134.361 125.723H76.0006L104.544 47.0445C114.809 18.7495 141.009 0 170.281 0H331.719C360.992 0 387.191 18.7495 397.456 47.0445L426 125.723H367.313C362.242 125.723 357.484 123.191 354.544 118.926L330.672 84.3002C320.627 69.7299 304.372 61.077 287.046 61.077H214.628C197.302 61.077 181.048 69.7299 171.002 84.3002L147.13 118.926Z" fill="url(#paint8_radial_2050_1796)" fill-opacity="0.36"/>
<defs>
<linearGradient id="paint0_linear_2050_1796" x1="0.792084" y1="175" x2="389.562" y2="340.795" gradientUnits="userSpaceOnUse">
<stop stop-color="#B3FFED"/>
<stop offset="0.166667" stop-color="#AFF5EA"/>
<stop offset="0.333333" stop-color="#5EEAD4"/>
<stop offset="0.5" stop-color="#22D3EE"/>
<stop offset="0.666667" stop-color="#0EA5E9"/>
<stop offset="0.833333" stop-color="#2563EB"/>
<stop offset="1" stop-color="#4338CA"/>
</linearGradient>
<radialGradient id="paint1_radial_2050_1796" cx="0" cy="0" r="1" gradientUnits="userSpaceOnUse" gradientTransform="translate(251 350) rotate(-90) scale(175)">
<stop stop-color="#5B21B6"/>
<stop offset="1" stop-color="#5B21B6" stop-opacity="0"/>
</radialGradient>
<radialGradient id="paint2_radial_2050_1796" cx="0" cy="0" r="1" gradientUnits="userSpaceOnUse" gradientTransform="translate(251) rotate(90) scale(175)">
<stop stop-color="#99F6E4"/>
<stop offset="1" stop-color="#67E8F9" stop-opacity="0"/>
</radialGradient>
<linearGradient id="paint3_linear_2050_1796" x1="0.792084" y1="175" x2="389.562" y2="340.795" gradientUnits="userSpaceOnUse">
<stop stop-color="#B3FFED"/>
<stop offset="0.166667" stop-color="#AFF5EA"/>
<stop offset="0.333333" stop-color="#5EEAD4"/>
<stop offset="0.5" stop-color="#22D3EE"/>
<stop offset="0.666667" stop-color="#0EA5E9"/>
<stop offset="0.833333" stop-color="#2563EB"/>
<stop offset="1" stop-color="#4338CA"/>
</linearGradient>
<radialGradient id="paint4_radial_2050_1796" cx="0" cy="0" r="1" gradientUnits="userSpaceOnUse" gradientTransform="translate(251 350) rotate(-90) scale(175)">
<stop stop-color="#5B21B6"/>
<stop offset="1" stop-color="#5B21B6" stop-opacity="0"/>
</radialGradient>
<radialGradient id="paint5_radial_2050_1796" cx="0" cy="0" r="1" gradientUnits="userSpaceOnUse" gradientTransform="translate(251) rotate(90) scale(175)">
<stop stop-color="#99F6E4"/>
<stop offset="1" stop-color="#67E8F9" stop-opacity="0"/>
</radialGradient>
<linearGradient id="paint6_linear_2050_1796" x1="0.792084" y1="175" x2="389.562" y2="340.795" gradientUnits="userSpaceOnUse">
<stop stop-color="#B3FFED"/>
<stop offset="0.166667" stop-color="#AFF5EA"/>
<stop offset="0.333333" stop-color="#5EEAD4"/>
<stop offset="0.5" stop-color="#22D3EE"/>
<stop offset="0.666667" stop-color="#0EA5E9"/>
<stop offset="0.833333" stop-color="#2563EB"/>
<stop offset="1" stop-color="#4338CA"/>
</linearGradient>
<radialGradient id="paint7_radial_2050_1796" cx="0" cy="0" r="1" gradientUnits="userSpaceOnUse" gradientTransform="translate(251 350) rotate(-90) scale(175)">
<stop stop-color="#5B21B6"/>
<stop offset="1" stop-color="#5B21B6" stop-opacity="0"/>
</radialGradient>
<radialGradient id="paint8_radial_2050_1796" cx="0" cy="0" r="1" gradientUnits="userSpaceOnUse" gradientTransform="translate(251) rotate(90) scale(175)">
<stop stop-color="#99F6E4"/>
<stop offset="1" stop-color="#67E8F9" stop-opacity="0"/>
</radialGradient>
</defs>
</svg>
