<?xml version="1.0" encoding="UTF-8" standalone="no"?>
<svg
   width="5484"
   height="1000"
   viewBox="0 0 5484 1000"
   fill="none"
   version="1.1"
   id="svg63"
   sodipodi:docname="logo-wordmark-cool.svg"
   inkscape:version="1.3.2 (091e20e, 2023-11-25, custom)"
   xmlns:inkscape="http://www.inkscape.org/namespaces/inkscape"
   xmlns:sodipodi="http://sodipodi.sourceforge.net/DTD/sodipodi-0.dtd"
   xmlns="http://www.w3.org/2000/svg"
   xmlns:svg="http://www.w3.org/2000/svg">
  <sodipodi:namedview
     id="namedview63"
     pagecolor="#ffffff"
     bordercolor="#666666"
     borderopacity="1.0"
     inkscape:showpageshadow="2"
     inkscape:pageopacity="0.0"
     inkscape:pagecheckerboard="0"
     inkscape:deskcolor="#d1d1d1"
     inkscape:zoom="0.24043429"
     inkscape:cx="2742.9532"
     inkscape:cy="501.17644"
     inkscape:window-width="2496"
     inkscape:window-height="1575"
     inkscape:window-x="-9"
     inkscape:window-y="-9"
     inkscape:window-maximized="1"
     inkscape:current-layer="svg63" />
  <g
     id="g53"
     transform="translate(-0.01782283,2.2582968)"
     style="fill:#ffffff">
    <path
       d="m 5428.73,280.877 c -32.84,-32.159 -76.48,-48.239 -130.93,-48.239 h -258.24 v -55.033 -44.872 c 0,-11.766 -4.01,-21.571 -12.02,-29.415 -8,-7.8433 -18.01,-11.7653 -30.03,-11.7653 H 4829.36 V 868.091 h 210.2 V 383.417 h 186.17 c 12.01,0 22.02,3.89 30.03,11.734 8.01,7.844 12.01,17.719 12.01,29.485 v 443.455 h 210.2 V 409.124 c 0,-53.338 -16.41,-96.087 -49.24,-128.247 z"
       fill="url(#paint0_linear_109_244)"
       id="path1"
       style="fill:#ffffff" />
    <path
       d="m 4693.73,280.877 c -32.83,-32.159 -76.47,-48.239 -130.92,-48.239 h -258.25 v -55.033 -44.872 c 0,-11.766 -4,-21.571 -12.01,-29.415 -8.01,-7.8433 -18.02,-11.7653 -30.03,-11.7653 H 4094.36 V 868.091 h 210.2 V 383.417 h 186.18 c 12.01,0 22.02,3.89 30.03,11.734 8.01,7.844 12.01,17.719 12.01,29.485 v 443.455 h 210.2 V 409.124 c 0,-53.338 -16.41,-96.087 -49.25,-128.247 z"
       fill="url(#paint1_linear_109_244)"
       id="path2"
       style="fill:#ffffff" />
    <path
       d="m 3365.77,709.245 c 160.35,0.004 301.24,0.004 396.38,0.004 12.01,0 22.02,-3.922 30.03,-11.766 8,-7.843 12.01,-17.648 12.01,-29.414 v -41.18 h -258.25 c -54.45,0 -98.09,-16.08 -130.92,-48.239 -32.83,-32.16 -49.25,-74.909 -49.25,-128.247 v -41.18 c 0,-53.338 16.42,-96.087 49.25,-128.246 32.83,-32.16 76.47,-48.24 130.92,-48.24 l 419.2,-0.007 v 150.65 h -347.13 c -12.01,0 -22.02,3.348 -30.03,11.192 -8.01,7.843 -12.01,19.083 -12.01,30.849 0,11.766 4,23.021 12.01,30.865 8.01,7.844 18.02,11.766 30.03,11.766 h 216.21 c 54.45,0 98.09,16.08 130.92,48.239 32.83,32.16 49.25,74.909 49.25,128.247 v 47.063 c 0,53.338 -16.42,96.086 -49.25,128.246 -32.83,32.16 -76.47,48.24 -130.92,48.24 -145.85,0.006 -300.29,0 -468.45,0 z"
       fill="url(#paint2_linear_109_244)"
       id="path3"
       style="fill:#ffffff" />
    <path
       d="m 2918.69,709.943 c 42.44,0 88.1,0 144.13,0 V 609.244 h -174.16 c -12.01,0 -22.02,3.922 -30.03,11.766 -8.01,7.843 -12.01,17.648 -12.01,29.414 v 18.339 c 0,11.765 4,21.57 12.01,29.414 8.01,7.844 18.02,11.766 30.03,11.766 z M 2696.48,233.551 c 151.34,0 277.18,-1.621 396.37,-1.621 54.45,0 98.1,16.08 130.93,48.239 32.83,32.16 49.24,74.909 49.24,128.247 v 459.392 h -171.96 l -26.22,-70.312 c -23.37,29.161 -42.34,48.778 -82.37,60.544 -33.13,13.83 -106.61,10.05 -133.84,10.05 h -42.04 c -54.45,0 -98.09,-16.08 -130.93,-48.24 -32.83,-32.159 -49.24,-74.908 -49.24,-128.246 v -46.373 c 0,-53.338 16.41,-96.087 49.24,-128.246 32.84,-32.16 76.48,-48.24 130.93,-48.24 h 246.23 v -44.872 c 0,-11.765 -4,-21.57 -12.01,-29.414 -8.01,-7.844 -18.01,-11.766 -30.03,-11.766 -52.05,0 -108.87,0 -172.96,0.487 -64.09,0.486 -114.13,0 -151.34,-0.366 z"
       fill="url(#paint3_linear_109_244)"
       id="path4"
       style="fill:#ffffff" />
    <path
       d="m 2550.81,868.091 c -76.81,0 -156.15,0 -228.22,0 -54.45,0 -98.1,-16.08 -130.93,-48.24 -32.83,-32.159 -49.24,-74.908 -49.24,-128.246 v -308.79 h -72.07 V 232.741 h 72.07 l 49.24,-141.1883 h 160.96 V 232.741 h 198.19 v 150.074 h -198.19 v 285.949 c 0,11.765 4,21.57 12.01,29.414 8.01,7.844 18.02,11.766 30.03,11.766 h 156.15 z"
       fill="url(#paint4_linear_109_244)"
       id="path5"
       style="fill:#ffffff" />
    <path
       d="m 1417.39,709.249 c 160.35,0.004 301.24,0.004 396.37,0.004 12.02,0 22.03,-3.922 30.03,-11.766 8.01,-7.843 12.01,-17.648 12.01,-29.414 v -41.18 h -258.24 c -54.45,0 -98.1,-16.08 -130.93,-48.239 -32.83,-32.16 -49.24,-74.909 -49.24,-128.247 v -41.18 c 0,-53.338 16.41,-96.087 49.24,-128.246 32.83,-32.16 76.48,-48.24 130.93,-48.24 l 385.97,-0.007 v 150.65 h -313.9 c -12.01,0 -22.02,3.348 -30.03,11.191 -8.01,7.844 -12.01,19.084 -12.01,30.85 0,11.766 4,23.021 12.01,30.865 8.01,7.844 18.02,11.766 30.03,11.766 h 216.2 c 54.45,0 98.1,16.079 130.93,48.239 32.83,32.16 49.24,74.909 49.24,128.247 v 47.062 c 0,53.338 -16.41,96.087 -49.24,128.247 -32.83,32.16 -76.48,48.239 -130.93,48.239 -145.85,0.007 -300.28,0 -468.44,0 z"
       fill="url(#paint5_linear_109_244)"
       id="path6"
       style="fill:#ffffff" />
  </g>
  <path
     d="M266.694 464.451L548.71 761.716L830.726 464.451L706.701 298.665C697.516 286.386 682.558 279.081 666.603 279.081H430.818C414.863 279.081 399.905 286.386 390.719 298.665L266.694 464.451Z"
     fill="url(#paint6_linear_109_193)"
     id="path7" />
  <path
     d="M266.694 464.451L548.71 761.716L830.726 464.451L706.701 298.665C697.516 286.386 682.558 279.081 666.603 279.081H430.818C414.863 279.081 399.905 286.386 390.719 298.665L266.694 464.451Z"
     fill="url(#paint7_radial_109_193)"
     fill-opacity="0.36"
     id="path8" />
  <path
     d="M266.694 464.451L548.71 761.716L830.726 464.451L706.701 298.665C697.516 286.386 682.558 279.081 666.603 279.081H430.818C414.863 279.081 399.905 286.386 390.719 298.665L266.694 464.451Z"
     fill="url(#paint8_radial_109_193)"
     fill-opacity="0.36"
     id="path9" />
  <path
     d="M1.59375 464.451L114.103 748.857C117.422 757.248 118.077 766.367 115.986 775.102L75.8584 942.773C68.952 971.631 92.2689 999.068 123.7 999.068H973.554C1004.96 999.068 1028.28 971.665 1021.41 942.819L981.436 775.003C979.347 766.232 980.025 757.078 983.386 748.664L1096.85 464.661H994.93C980.838 464.661 967.434 470.361 958.116 480.312C833.1 613.828 663.356 792.978 613.145 845.934C603.845 855.742 590.604 861.28 576.637 861.28H527.469C515.005 861.28 503.037 856.895 494.148 848.672C413.631 774.188 249.328 599.307 137.786 480.071C128.474 470.116 115.101 464.451 101.009 464.451H1.59375Z"
     fill="url(#paint9_linear_109_193)"
     id="path10" />
  <path
     d="M1.59375 464.451L114.103 748.857C117.422 757.248 118.077 766.367 115.986 775.102L75.8584 942.773C68.952 971.631 92.2689 999.068 123.7 999.068H973.554C1004.96 999.068 1028.28 971.665 1021.41 942.819L981.436 775.003C979.347 766.232 980.025 757.078 983.386 748.664L1096.85 464.661H994.93C980.838 464.661 967.434 470.361 958.116 480.312C833.1 613.828 663.356 792.978 613.145 845.934C603.845 855.742 590.604 861.28 576.637 861.28H527.469C515.005 861.28 503.037 856.895 494.148 848.672C413.631 774.188 249.328 599.307 137.786 480.071C128.474 470.116 115.101 464.451 101.009 464.451H1.59375Z"
     fill="url(#paint10_radial_109_193)"
     fill-opacity="0.36"
     id="path11" />
  <path
     d="m 80.617421,1084.1629 112.509249,284.406 c 3.319,8.391 3.974,17.51 1.883,26.245 l -40.1276,167.671 c -6.9064,28.858 16.4105,56.295 47.8416,56.295 h 849.85403 c 31.406,0 54.726,-27.403 47.856,-56.249 l -39.974,-167.816 c -2.089,-8.771 -1.411,-17.925 1.95,-26.339 l 113.464,-284.003 h -101.92 c -14.092,0 -27.496,5.7 -36.814,15.651 -125.01603,133.516 -294.76003,312.666 -344.97103,365.622 -9.3,9.808 -22.541,15.346 -36.508,15.346 h -49.168 c -12.464,0 -24.432,-4.385 -33.321,-12.608 -80.517,-74.484 -244.82,-249.365 -356.362,-368.601 -9.312,-9.955 -22.685,-15.62 -36.777,-15.62 z"
     fill="url(#paint11_radial_109_193)"
     fill-opacity="0.36"
     id="path12"
     style="fill:url(#paint11_radial_109_193)" />
  <path
     d="M224.18 339.725C214.98 351.893 200.092 359.119 184.224 359.119H1.59575L90.9174 134.617C123.04 53.8806 205.025 0.380859 296.628 0.380859H801.814C893.417 0.380859 975.402 53.8806 1007.52 134.617L1096.85 359.119H913.197C897.328 359.119 882.441 351.893 873.24 339.725L798.536 240.922C767.102 199.348 716.236 174.658 662.018 174.658H435.402C381.185 174.658 330.318 199.348 298.884 240.922L224.18 339.725Z"
     fill="url(#paint12_linear_109_193)"
     id="path13" />
  <path
     d="M224.18 339.725C214.98 351.893 200.092 359.119 184.224 359.119H1.59575L90.9174 134.617C123.04 53.8806 205.025 0.380859 296.628 0.380859H801.814C893.417 0.380859 975.402 53.8806 1007.52 134.617L1096.85 359.119H913.197C897.328 359.119 882.441 351.893 873.24 339.725L798.536 240.922C767.102 199.348 716.236 174.658 662.018 174.658H435.402C381.185 174.658 330.318 199.348 298.884 240.922L224.18 339.725Z"
     fill="url(#paint13_radial_109_193)"
     fill-opacity="0.36"
     id="path14" />
  <path
     d="M224.18 339.725C214.98 351.893 200.092 359.119 184.224 359.119H1.59575L90.9174 134.617C123.04 53.8806 205.025 0.380859 296.628 0.380859H801.814C893.417 0.380859 975.402 53.8806 1007.52 134.617L1096.85 359.119H913.197C897.328 359.119 882.441 351.893 873.24 339.725L798.536 240.922C767.102 199.348 716.236 174.658 662.018 174.658H435.402C381.185 174.658 330.318 199.348 298.884 240.922L224.18 339.725Z"
     fill="url(#paint14_radial_109_193)"
     fill-opacity="0.36"
     id="path15" />
  <defs
     id="defs63">
    <filter
       id="filter0_d_109_193"
       x="2632.42"
       y="231.93"
       width="644.605"
       height="644.633"
       filterUnits="userSpaceOnUse"
       color-interpolation-filters="sRGB">
      <feFlood
         flood-opacity="0"
         result="BackgroundImageFix"
         id="feFlood15" />
      <feColorMatrix
         in="SourceAlpha"
         type="matrix"
         values="0 0 0 0 0 0 0 0 0 0 0 0 0 0 0 0 0 0 127 0"
         result="hardAlpha"
         id="feColorMatrix15" />
      <feOffset
         dy="4"
         id="feOffset15" />
      <feGaussianBlur
         stdDeviation="2"
         id="feGaussianBlur15" />
      <feComposite
         in2="hardAlpha"
         operator="out"
         id="feComposite15" />
      <feColorMatrix
         type="matrix"
         values="0 0 0 0 0 0 0 0 0 0 0 0 0 0 0 0 0 0 0.25 0"
         id="feColorMatrix16" />
      <feBlend
         mode="normal"
         in2="BackgroundImageFix"
         result="effect1_dropShadow_109_193"
         id="feBlend16" />
      <feBlend
         mode="normal"
         in="SourceGraphic"
         in2="effect1_dropShadow_109_193"
         result="shape"
         id="feBlend17" />
    </filter>
    <filter
       id="filter1_d_109_193"
       x="2066.35"
       y="91.5527"
       width="488.457"
       height="784.538"
       filterUnits="userSpaceOnUse"
       color-interpolation-filters="sRGB">
      <feFlood
         flood-opacity="0"
         result="BackgroundImageFix"
         id="feFlood17" />
      <feColorMatrix
         in="SourceAlpha"
         type="matrix"
         values="0 0 0 0 0 0 0 0 0 0 0 0 0 0 0 0 0 0 127 0"
         result="hardAlpha"
         id="feColorMatrix17" />
      <feOffset
         dy="4"
         id="feOffset17" />
      <feGaussianBlur
         stdDeviation="2"
         id="feGaussianBlur17" />
      <feComposite
         in2="hardAlpha"
         operator="out"
         id="feComposite17" />
      <feColorMatrix
         type="matrix"
         values="0 0 0 0 0 0 0 0 0 0 0 0 0 0 0 0 0 0 0.25 0"
         id="feColorMatrix18" />
      <feBlend
         mode="normal"
         in2="BackgroundImageFix"
         result="effect1_dropShadow_109_193"
         id="feBlend18" />
      <feBlend
         mode="normal"
         in="SourceGraphic"
         in2="effect1_dropShadow_109_193"
         result="shape"
         id="feBlend19" />
    </filter>
    <linearGradient
       id="paint0_linear_109_193"
       x1="5153.66"
       y1="91.5527"
       x2="5153.66"
       y2="868.091"
       gradientUnits="userSpaceOnUse">
      <stop
         stop-color="white"
         id="stop19" />
      <stop
         offset="1"
         stop-color="#D1D2DB"
         id="stop20" />
    </linearGradient>
    <linearGradient
       id="paint1_linear_109_193"
       x1="4418.67"
       y1="91.5527"
       x2="4418.67"
       y2="868.091"
       gradientUnits="userSpaceOnUse">
      <stop
         stop-color="white"
         id="stop21" />
      <stop
         offset="1"
         stop-color="#D1D2DB"
         id="stop22" />
    </linearGradient>
    <linearGradient
       id="paint2_linear_109_193"
       x1="3690.08"
       y1="232.73"
       x2="3690.08"
       y2="868.089"
       gradientUnits="userSpaceOnUse">
      <stop
         stop-color="white"
         id="stop23" />
      <stop
         offset="1"
         stop-color="#D1D2DB"
         id="stop24" />
    </linearGradient>
    <linearGradient
       id="paint3_linear_109_193"
       x1="2954.72"
       y1="231.93"
       x2="2954.72"
       y2="868.562"
       gradientUnits="userSpaceOnUse">
      <stop
         stop-color="white"
         id="stop25" />
      <stop
         offset="1"
         stop-color="#D1D2DB"
         id="stop26" />
    </linearGradient>
    <linearGradient
       id="paint4_linear_109_193"
       x1="2310.58"
       y1="91.5527"
       x2="2310.58"
       y2="868.091"
       gradientUnits="userSpaceOnUse">
      <stop
         stop-color="white"
         id="stop27" />
      <stop
         offset="1"
         stop-color="#D1D2DB"
         id="stop28" />
    </linearGradient>
    <linearGradient
       id="paint5_linear_109_193"
       x1="1741.7"
       y1="232.734"
       x2="1741.7"
       y2="868.093"
       gradientUnits="userSpaceOnUse">
      <stop
         stop-color="white"
         id="stop29" />
      <stop
         offset="1"
         stop-color="#D1D2DB"
         id="stop30" />
    </linearGradient>
    <linearGradient
       id="paint6_linear_109_193"
       x1="-233.754"
       y1="499.724"
       x2="946.015"
       y2="1051.5"
       gradientUnits="userSpaceOnUse">
      <stop
         stop-color="#B3FFED"
         id="stop31" />
      <stop
         offset="0.166667"
         stop-color="#AFF5EA"
         id="stop32" />
      <stop
         offset="0.333333"
         stop-color="#5EEAD4"
         id="stop33" />
      <stop
         offset="0.5"
         stop-color="#22D3EE"
         id="stop34" />
      <stop
         offset="0.666667"
         stop-color="#0EA5E9"
         id="stop35" />
      <stop
         offset="0.833333"
         stop-color="#2563EB"
         id="stop36" />
      <stop
         offset="1"
         stop-color="#4338CA"
         id="stop37" />
    </linearGradient>
    <radialGradient
       id="paint7_radial_109_193"
       cx="0"
       cy="0"
       r="1"
       gradientUnits="userSpaceOnUse"
       gradientTransform="translate(549.22 999.068) rotate(-90) scale(499.344 547.626)">
      <stop
         stop-color="#5B21B6"
         id="stop38" />
      <stop
         offset="1"
         stop-color="#5B21B6"
         stop-opacity="0"
         id="stop39" />
    </radialGradient>
    <radialGradient
       id="paint8_radial_109_193"
       cx="0"
       cy="0"
       r="1"
       gradientUnits="userSpaceOnUse"
       gradientTransform="translate(549.22 0.380859) rotate(90) scale(499.344 547.626)">
      <stop
         stop-color="#99F6E4"
         id="stop40" />
      <stop
         offset="1"
         stop-color="#67E8F9"
         stop-opacity="0"
         id="stop41" />
    </radialGradient>
    <linearGradient
       id="paint9_linear_109_193"
       x1="-233.754"
       y1="499.724"
       x2="946.015"
       y2="1051.5"
       gradientUnits="userSpaceOnUse">
      <stop
         stop-color="#B3FFED"
         id="stop42" />
      <stop
         offset="0.166667"
         stop-color="#AFF5EA"
         id="stop43" />
      <stop
         offset="0.333333"
         stop-color="#5EEAD4"
         id="stop44" />
      <stop
         offset="0.5"
         stop-color="#22D3EE"
         id="stop45" />
      <stop
         offset="0.666667"
         stop-color="#0EA5E9"
         id="stop46" />
      <stop
         offset="0.833333"
         stop-color="#2563EB"
         id="stop47" />
      <stop
         offset="1"
         stop-color="#4338CA"
         id="stop48" />
    </linearGradient>
    <radialGradient
       id="paint10_radial_109_193"
       cx="0"
       cy="0"
       r="1"
       gradientUnits="userSpaceOnUse"
       gradientTransform="translate(549.22 999.068) rotate(-90) scale(499.344 547.626)">
      <stop
         stop-color="#5B21B6"
         id="stop49" />
      <stop
         offset="1"
         stop-color="#5B21B6"
         stop-opacity="0"
         id="stop50" />
    </radialGradient>
    <radialGradient
       id="paint11_radial_109_193"
       cx="0"
       cy="0"
       r="1"
       gradientUnits="userSpaceOnUse"
       gradientTransform="matrix(0,499.344,-547.626,0,628.24367,620.0928)">
      <stop
         stop-color="#99F6E4"
         id="stop51" />
      <stop
         offset="1"
         stop-color="#67E8F9"
         stop-opacity="0"
         id="stop52" />
    </radialGradient>
    <linearGradient
       id="paint12_linear_109_193"
       x1="-233.754"
       y1="499.724"
       x2="946.015"
       y2="1051.5"
       gradientUnits="userSpaceOnUse">
      <stop
         stop-color="#B3FFED"
         id="stop53" />
      <stop
         offset="0.166667"
         stop-color="#AFF5EA"
         id="stop54" />
      <stop
         offset="0.333333"
         stop-color="#5EEAD4"
         id="stop55" />
      <stop
         offset="0.5"
         stop-color="#22D3EE"
         id="stop56" />
      <stop
         offset="0.666667"
         stop-color="#0EA5E9"
         id="stop57" />
      <stop
         offset="0.833333"
         stop-color="#2563EB"
         id="stop58" />
      <stop
         offset="1"
         stop-color="#4338CA"
         id="stop59" />
    </linearGradient>
    <radialGradient
       id="paint13_radial_109_193"
       cx="0"
       cy="0"
       r="1"
       gradientUnits="userSpaceOnUse"
       gradientTransform="translate(549.22 999.068) rotate(-90) scale(499.344 547.626)">
      <stop
         stop-color="#5B21B6"
         id="stop60" />
      <stop
         offset="1"
         stop-color="#5B21B6"
         stop-opacity="0"
         id="stop61" />
    </radialGradient>
    <radialGradient
       id="paint14_radial_109_193"
       cx="0"
       cy="0"
       r="1"
       gradientUnits="userSpaceOnUse"
       gradientTransform="translate(549.22 0.380859) rotate(90) scale(499.344 547.626)">
      <stop
         stop-color="#99F6E4"
         id="stop62" />
      <stop
         offset="1"
         stop-color="#67E8F9"
         stop-opacity="0"
         id="stop63" />
    </radialGradient>
    <linearGradient
       id="paint6_linear_109_244"
       x1="261.39401"
       y1="0.38087401"
       x2="737.87097"
       y2="1038.88"
       gradientUnits="userSpaceOnUse">
      <stop
         stop-color="#FEE272"
         id="stop27-0" />
      <stop
         offset="0.25"
         stop-color="#FDBA74"
         id="stop28-4" />
      <stop
         offset="0.505208"
         stop-color="#F87171"
         id="stop29-2" />
      <stop
         offset="0.755208"
         stop-color="#F43F5E"
         id="stop30-0" />
      <stop
         offset="1"
         stop-color="#DB2777"
         id="stop31-9" />
    </linearGradient>
    <radialGradient
       id="paint7_radial_109_244"
       cx="0"
       cy="0"
       r="1"
       gradientUnits="userSpaceOnUse"
       gradientTransform="matrix(0,-499.344,547.626,0,3444.6263,112.68714)">
      <stop
         stop-color="#9E26E8"
         id="stop32-4" />
      <stop
         offset="1"
         stop-color="#9E26E8"
         stop-opacity="0"
         id="stop33-2" />
    </radialGradient>
    <radialGradient
       id="paint8_radial_109_244"
       cx="0"
       cy="0"
       r="1"
       gradientUnits="userSpaceOnUse"
       gradientTransform="matrix(0,499.344,-547.626,0,3444.6263,-886)">
      <stop
         stop-color="#FFFBEB"
         id="stop34-2" />
      <stop
         offset="1"
         stop-color="#FFFBEB"
         stop-opacity="0"
         id="stop35-8" />
    </radialGradient>
    <radialGradient
       id="paint10_radial_109_244"
       cx="0"
       cy="0"
       r="1"
       gradientUnits="userSpaceOnUse"
       gradientTransform="matrix(0,-499.344,547.626,0,3444.6263,112.68714)">
      <stop
         stop-color="#9E26E8"
         id="stop41-8" />
      <stop
         offset="1"
         stop-color="#9E26E8"
         stop-opacity="0"
         id="stop42-0" />
    </radialGradient>
    <radialGradient
       id="paint11_radial_109_244"
       cx="0"
       cy="0"
       r="1"
       gradientUnits="userSpaceOnUse"
       gradientTransform="matrix(0,499.344,-547.626,0,3444.6263,-886)">
      <stop
         stop-color="#FFFBEB"
         id="stop43-1" />
      <stop
         offset="1"
         stop-color="#FFFBEB"
         stop-opacity="0"
         id="stop44-4" />
    </radialGradient>
    <radialGradient
       id="paint13_radial_109_244"
       cx="0"
       cy="0"
       r="1"
       gradientUnits="userSpaceOnUse"
       gradientTransform="matrix(0,-499.344,547.626,0,3444.6263,112.68714)">
      <stop
         stop-color="#9E26E8"
         id="stop50-0" />
      <stop
         offset="1"
         stop-color="#9E26E8"
         stop-opacity="0"
         id="stop51-2" />
    </radialGradient>
    <radialGradient
       id="paint14_radial_109_244"
       cx="0"
       cy="0"
       r="1"
       gradientUnits="userSpaceOnUse"
       gradientTransform="matrix(0,499.344,-547.626,0,3444.6263,-886)">
      <stop
         stop-color="#FFFBEB"
         id="stop52-2" />
      <stop
         offset="1"
         stop-color="#FFFBEB"
         stop-opacity="0"
         id="stop53-1" />
    </radialGradient>
  </defs>
</svg>
