<?xml version="1.0" encoding="UTF-8" standalone="no"?>
<svg
   width="5484"
   height="1000"
   viewBox="0 0 5484 1000"
   fill="none"
   version="1.1"
   id="svg53"
   sodipodi:docname="logo-wordmark-warm.svg"
   inkscape:version="1.3.2 (091e20e, 2023-11-25, custom)"
   xmlns:inkscape="http://www.inkscape.org/namespaces/inkscape"
   xmlns:sodipodi="http://sodipodi.sourceforge.net/DTD/sodipodi-0.dtd"
   xmlns="http://www.w3.org/2000/svg"
   xmlns:svg="http://www.w3.org/2000/svg">
  <sodipodi:namedview
     id="namedview53"
     pagecolor="#ffffff"
     bordercolor="#666666"
     borderopacity="1.0"
     inkscape:showpageshadow="2"
     inkscape:pageopacity="0.0"
     inkscape:pagecheckerboard="0"
     inkscape:deskcolor="#d1d1d1"
     inkscape:zoom="0.24043429"
     inkscape:cx="2740.8736"
     inkscape:cy="501.17644"
     inkscape:window-width="2496"
     inkscape:window-height="1575"
     inkscape:window-x="-9"
     inkscape:window-y="-9"
     inkscape:window-maximized="1"
     inkscape:current-layer="svg53" />
  <g
     id="g53"
     style="fill:#ffffff">
    <path
       d="M5428.73 280.877C5395.89 248.718 5352.25 232.638 5297.8 232.638H5039.56L5039.56 177.605V132.733C5039.56 120.967 5035.55 111.162 5027.54 103.318C5019.54 95.4747 5009.53 91.5527 4997.51 91.5527H4829.36V868.091H5039.56V383.417H5225.73C5237.74 383.417 5247.75 387.307 5255.76 395.151C5263.77 402.995 5267.77 412.87 5267.77 424.636V868.091H5477.97V409.124C5477.97 355.786 5461.56 313.037 5428.73 280.877Z"
       fill="url(#paint0_linear_109_244)"
       id="path1"
       style="fill:#ffffff" />
    <path
       d="M4693.73 280.877C4660.9 248.718 4617.26 232.638 4562.81 232.638H4304.56L4304.56 177.605V132.733C4304.56 120.967 4300.56 111.162 4292.55 103.318C4284.54 95.4747 4274.53 91.5527 4262.52 91.5527H4094.36V868.091H4304.56V383.417H4490.74C4502.75 383.417 4512.76 387.307 4520.77 395.151C4528.78 402.995 4532.78 412.87 4532.78 424.636V868.091H4742.98V409.124C4742.98 355.786 4726.57 313.037 4693.73 280.877Z"
       fill="url(#paint1_linear_109_244)"
       id="path2"
       style="fill:#ffffff" />
    <path
       d="M3365.77 709.245C3526.12 709.249 3667.01 709.249 3762.15 709.249C3774.16 709.249 3784.17 705.327 3792.18 697.483C3800.18 689.64 3804.19 679.835 3804.19 668.069V626.889H3545.94C3491.49 626.889 3447.85 610.809 3415.02 578.65C3382.19 546.49 3365.77 503.741 3365.77 450.403V409.223C3365.77 355.885 3382.19 313.136 3415.02 280.977C3447.85 248.817 3491.49 232.737 3545.94 232.737L3965.14 232.73V383.38H3618.01C3606 383.38 3595.99 386.728 3587.98 394.572C3579.97 402.415 3575.97 413.655 3575.97 425.421C3575.97 437.187 3579.97 448.442 3587.98 456.286C3595.99 464.13 3606 468.052 3618.01 468.052H3834.22C3888.67 468.052 3932.31 484.132 3965.14 516.291C3997.97 548.451 4014.39 591.2 4014.39 644.538V691.601C4014.39 744.939 3997.97 787.687 3965.14 819.847C3932.31 852.007 3888.67 868.087 3834.22 868.087C3688.37 868.093 3533.93 868.087 3365.77 868.087L3365.77 709.245Z"
       fill="url(#paint2_linear_109_244)"
       id="path3"
       style="fill:#ffffff" />
    <path
       d="M2918.69 709.943C2961.13 709.943 3006.79 709.943 3062.82 709.943V609.244H2888.66C2876.65 609.244 2866.64 613.166 2858.63 621.01C2850.62 628.853 2846.62 638.658 2846.62 650.424V668.763C2846.62 680.528 2850.62 690.333 2858.63 698.177C2866.64 706.021 2876.65 709.943 2888.66 709.943H2918.69ZM2696.48 233.551C2847.82 233.551 2973.66 231.93 3092.85 231.93C3147.3 231.93 3190.95 248.01 3223.78 280.169C3256.61 312.329 3273.02 355.078 3273.02 408.416V867.808H3101.06L3074.84 797.496C3051.47 826.657 3032.5 846.274 2992.47 858.04C2959.34 871.87 2885.86 868.09 2858.63 868.09H2816.59C2762.14 868.09 2718.5 852.01 2685.66 819.85C2652.83 787.691 2636.42 744.942 2636.42 691.604V645.231C2636.42 591.893 2652.83 549.144 2685.66 516.985C2718.5 484.825 2762.14 468.745 2816.59 468.745H3062.82V423.873C3062.82 412.108 3058.82 402.303 3050.81 394.459C3042.8 386.615 3032.8 382.693 3020.78 382.693C2968.73 382.693 2911.91 382.693 2847.82 383.18C2783.73 383.666 2733.69 383.18 2696.48 382.814V233.551Z"
       fill="url(#paint3_linear_109_244)"
       id="path4"
       style="fill:#ffffff" />
    <path
       d="M2550.81 868.091C2474 868.091 2394.66 868.091 2322.59 868.091C2268.14 868.091 2224.49 852.011 2191.66 819.851C2158.83 787.692 2142.42 744.943 2142.42 691.605V382.815H2070.35V232.741H2142.42L2191.66 91.5527H2352.62V232.741H2550.81V382.815H2352.62V668.764C2352.62 680.529 2356.62 690.334 2364.63 698.178C2372.64 706.022 2382.65 709.944 2394.66 709.944H2550.81V868.091Z"
       fill="url(#paint4_linear_109_244)"
       id="path5"
       style="fill:#ffffff" />
    <path
       d="M1417.39 709.249C1577.74 709.253 1718.63 709.253 1813.76 709.253C1825.78 709.253 1835.79 705.331 1843.79 697.487C1851.8 689.644 1855.8 679.839 1855.8 668.073V626.893H1597.56C1543.11 626.893 1499.46 610.813 1466.63 578.654C1433.8 546.494 1417.39 503.745 1417.39 450.407V409.227C1417.39 355.889 1433.8 313.14 1466.63 280.981C1499.46 248.821 1543.11 232.741 1597.56 232.741L1983.53 232.734V383.384H1669.63C1657.62 383.384 1647.61 386.732 1639.6 394.575C1631.59 402.419 1627.59 413.659 1627.59 425.425C1627.59 437.191 1631.59 448.446 1639.6 456.29C1647.61 464.134 1657.62 468.056 1669.63 468.056H1885.83C1940.28 468.056 1983.93 484.135 2016.76 516.295C2049.59 548.455 2066 591.204 2066 644.542V691.604C2066 744.942 2049.59 787.691 2016.76 819.851C1983.93 852.011 1940.28 868.09 1885.83 868.09C1739.98 868.097 1585.55 868.09 1417.39 868.09L1417.39 709.249Z"
       fill="url(#paint5_linear_109_244)"
       id="path6"
       style="fill:#ffffff" />
  </g>
  <path
     d="M266.694 464.451L548.71 761.716L830.726 464.451L706.701 298.665C697.516 286.386 682.558 279.081 666.603 279.081H430.818C414.863 279.081 399.905 286.386 390.719 298.665L266.694 464.451Z"
     fill="url(#paint6_linear_109_244)"
     id="path7" />
  <path
     d="M266.694 464.451L548.71 761.716L830.726 464.451L706.701 298.665C697.516 286.386 682.558 279.081 666.603 279.081H430.818C414.863 279.081 399.905 286.386 390.719 298.665L266.694 464.451Z"
     fill="url(#paint7_radial_109_244)"
     fill-opacity="0.36"
     id="path8" />
  <path
     d="M266.694 464.451L548.71 761.716L830.726 464.451L706.701 298.665C697.516 286.386 682.558 279.081 666.603 279.081H430.818C414.863 279.081 399.905 286.386 390.719 298.665L266.694 464.451Z"
     fill="url(#paint8_radial_109_244)"
     fill-opacity="0.36"
     id="path9" />
  <path
     d="M1.59375 464.451L114.103 748.857C117.422 757.248 118.077 766.367 115.986 775.102L75.8584 942.773C68.952 971.631 92.2689 999.068 123.7 999.068H973.554C1004.96 999.068 1028.28 971.665 1021.41 942.819L981.436 775.003C979.347 766.232 980.025 757.078 983.386 748.664L1096.85 464.661H994.93C980.838 464.661 967.434 470.361 958.116 480.312C833.1 613.828 663.356 792.978 613.145 845.934C603.845 855.742 590.604 861.28 576.637 861.28H527.469C515.005 861.28 503.037 856.895 494.148 848.672C413.631 774.188 249.328 599.307 137.786 480.071C128.474 470.116 115.101 464.451 101.009 464.451H1.59375Z"
     fill="url(#paint9_linear_109_244)"
     id="path10" />
  <path
     d="M1.59375 464.451L114.103 748.857C117.422 757.248 118.077 766.367 115.986 775.102L75.8584 942.773C68.952 971.631 92.2689 999.068 123.7 999.068H973.554C1004.96 999.068 1028.28 971.665 1021.41 942.819L981.436 775.003C979.347 766.232 980.025 757.078 983.386 748.664L1096.85 464.661H994.93C980.838 464.661 967.434 470.361 958.116 480.312C833.1 613.828 663.356 792.978 613.145 845.934C603.845 855.742 590.604 861.28 576.637 861.28H527.469C515.005 861.28 503.037 856.895 494.148 848.672C413.631 774.188 249.328 599.307 137.786 480.071C128.474 470.116 115.101 464.451 101.009 464.451H1.59375Z"
     fill="url(#paint10_radial_109_244)"
     fill-opacity="0.36"
     id="path11" />
  <path
     d="M1.59375 464.451L114.103 748.857C117.422 757.248 118.077 766.367 115.986 775.102L75.8584 942.773C68.952 971.631 92.2689 999.068 123.7 999.068H973.554C1004.96 999.068 1028.28 971.665 1021.41 942.819L981.436 775.003C979.347 766.232 980.025 757.078 983.386 748.664L1096.85 464.661H994.93C980.838 464.661 967.434 470.361 958.116 480.312C833.1 613.828 663.356 792.978 613.145 845.934C603.845 855.742 590.604 861.28 576.637 861.28H527.469C515.005 861.28 503.037 856.895 494.148 848.672C413.631 774.188 249.328 599.307 137.786 480.071C128.474 470.116 115.101 464.451 101.009 464.451H1.59375Z"
     fill="url(#paint11_radial_109_244)"
     fill-opacity="0.36"
     id="path12" />
  <path
     d="M224.18 339.725C214.98 351.893 200.092 359.119 184.224 359.119H1.59575L90.9174 134.617C123.04 53.8806 205.025 0.380859 296.628 0.380859H801.814C893.417 0.380859 975.402 53.8806 1007.52 134.617L1096.85 359.119H913.197C897.328 359.119 882.441 351.893 873.24 339.725L798.536 240.922C767.102 199.348 716.236 174.658 662.018 174.658H435.402C381.185 174.658 330.318 199.348 298.884 240.922L224.18 339.725Z"
     fill="url(#paint12_linear_109_244)"
     id="path13" />
  <path
     d="M224.18 339.725C214.98 351.893 200.092 359.119 184.224 359.119H1.59575L90.9174 134.617C123.04 53.8806 205.025 0.380859 296.628 0.380859H801.814C893.417 0.380859 975.402 53.8806 1007.52 134.617L1096.85 359.119H913.197C897.328 359.119 882.441 351.893 873.24 339.725L798.536 240.922C767.102 199.348 716.236 174.658 662.018 174.658H435.402C381.185 174.658 330.318 199.348 298.884 240.922L224.18 339.725Z"
     fill="url(#paint13_radial_109_244)"
     fill-opacity="0.36"
     id="path14" />
  <path
     d="M224.18 339.725C214.98 351.893 200.092 359.119 184.224 359.119H1.59575L90.9174 134.617C123.04 53.8806 205.025 0.380859 296.628 0.380859H801.814C893.417 0.380859 975.402 53.8806 1007.52 134.617L1096.85 359.119H913.197C897.328 359.119 882.441 351.893 873.24 339.725L798.536 240.922C767.102 199.348 716.236 174.658 662.018 174.658H435.402C381.185 174.658 330.318 199.348 298.884 240.922L224.18 339.725Z"
     fill="url(#paint14_radial_109_244)"
     fill-opacity="0.36"
     id="path15" />
  <defs
     id="defs53">
    <linearGradient
       id="paint0_linear_109_244"
       x1="5153.66"
       y1="91.5527"
       x2="5153.66"
       y2="868.091"
       gradientUnits="userSpaceOnUse">
      <stop
         stop-color="white"
         id="stop15" />
      <stop
         offset="1"
         stop-color="#D1D2DB"
         id="stop16" />
    </linearGradient>
    <linearGradient
       id="paint1_linear_109_244"
       x1="4418.67"
       y1="91.5527"
       x2="4418.67"
       y2="868.091"
       gradientUnits="userSpaceOnUse">
      <stop
         stop-color="white"
         id="stop17" />
      <stop
         offset="1"
         stop-color="#D1D2DB"
         id="stop18" />
    </linearGradient>
    <linearGradient
       id="paint2_linear_109_244"
       x1="3690.08"
       y1="232.73"
       x2="3690.08"
       y2="868.089"
       gradientUnits="userSpaceOnUse">
      <stop
         stop-color="white"
         id="stop19" />
      <stop
         offset="1"
         stop-color="#D1D2DB"
         id="stop20" />
    </linearGradient>
    <linearGradient
       id="paint3_linear_109_244"
       x1="2954.72"
       y1="231.93"
       x2="2954.72"
       y2="868.562"
       gradientUnits="userSpaceOnUse">
      <stop
         stop-color="white"
         id="stop21" />
      <stop
         offset="1"
         stop-color="#D1D2DB"
         id="stop22" />
    </linearGradient>
    <linearGradient
       id="paint4_linear_109_244"
       x1="2310.58"
       y1="91.5527"
       x2="2310.58"
       y2="868.091"
       gradientUnits="userSpaceOnUse">
      <stop
         stop-color="white"
         id="stop23" />
      <stop
         offset="1"
         stop-color="#D1D2DB"
         id="stop24" />
    </linearGradient>
    <linearGradient
       id="paint5_linear_109_244"
       x1="1741.7"
       y1="232.734"
       x2="1741.7"
       y2="868.093"
       gradientUnits="userSpaceOnUse">
      <stop
         stop-color="white"
         id="stop25" />
      <stop
         offset="1"
         stop-color="#D1D2DB"
         id="stop26" />
    </linearGradient>
    <linearGradient
       id="paint6_linear_109_244"
       x1="261.394"
       y1="0.380874"
       x2="737.871"
       y2="1038.88"
       gradientUnits="userSpaceOnUse">
      <stop
         stop-color="#FEE272"
         id="stop27" />
      <stop
         offset="0.25"
         stop-color="#FDBA74"
         id="stop28" />
      <stop
         offset="0.505208"
         stop-color="#F87171"
         id="stop29" />
      <stop
         offset="0.755208"
         stop-color="#F43F5E"
         id="stop30" />
      <stop
         offset="1"
         stop-color="#DB2777"
         id="stop31" />
    </linearGradient>
    <radialGradient
       id="paint7_radial_109_244"
       cx="0"
       cy="0"
       r="1"
       gradientUnits="userSpaceOnUse"
       gradientTransform="translate(549.22 999.068) rotate(-90) scale(499.344 547.626)">
      <stop
         stop-color="#9E26E8"
         id="stop32" />
      <stop
         offset="1"
         stop-color="#9E26E8"
         stop-opacity="0"
         id="stop33" />
    </radialGradient>
    <radialGradient
       id="paint8_radial_109_244"
       cx="0"
       cy="0"
       r="1"
       gradientUnits="userSpaceOnUse"
       gradientTransform="translate(549.22 0.380859) rotate(90) scale(499.344 547.626)">
      <stop
         stop-color="#FFFBEB"
         id="stop34" />
      <stop
         offset="1"
         stop-color="#FFFBEB"
         stop-opacity="0"
         id="stop35" />
    </radialGradient>
    <linearGradient
       id="paint9_linear_109_244"
       x1="261.394"
       y1="0.380874"
       x2="737.871"
       y2="1038.88"
       gradientUnits="userSpaceOnUse">
      <stop
         stop-color="#FEE272"
         id="stop36" />
      <stop
         offset="0.25"
         stop-color="#FDBA74"
         id="stop37" />
      <stop
         offset="0.505208"
         stop-color="#F87171"
         id="stop38" />
      <stop
         offset="0.755208"
         stop-color="#F43F5E"
         id="stop39" />
      <stop
         offset="1"
         stop-color="#DB2777"
         id="stop40" />
    </linearGradient>
    <radialGradient
       id="paint10_radial_109_244"
       cx="0"
       cy="0"
       r="1"
       gradientUnits="userSpaceOnUse"
       gradientTransform="translate(549.22 999.068) rotate(-90) scale(499.344 547.626)">
      <stop
         stop-color="#9E26E8"
         id="stop41" />
      <stop
         offset="1"
         stop-color="#9E26E8"
         stop-opacity="0"
         id="stop42" />
    </radialGradient>
    <radialGradient
       id="paint11_radial_109_244"
       cx="0"
       cy="0"
       r="1"
       gradientUnits="userSpaceOnUse"
       gradientTransform="translate(549.22 0.380859) rotate(90) scale(499.344 547.626)">
      <stop
         stop-color="#FFFBEB"
         id="stop43" />
      <stop
         offset="1"
         stop-color="#FFFBEB"
         stop-opacity="0"
         id="stop44" />
    </radialGradient>
    <linearGradient
       id="paint12_linear_109_244"
       x1="261.394"
       y1="0.380874"
       x2="737.871"
       y2="1038.88"
       gradientUnits="userSpaceOnUse">
      <stop
         stop-color="#FEE272"
         id="stop45" />
      <stop
         offset="0.25"
         stop-color="#FDBA74"
         id="stop46" />
      <stop
         offset="0.505208"
         stop-color="#F87171"
         id="stop47" />
      <stop
         offset="0.755208"
         stop-color="#F43F5E"
         id="stop48" />
      <stop
         offset="1"
         stop-color="#DB2777"
         id="stop49" />
    </linearGradient>
    <radialGradient
       id="paint13_radial_109_244"
       cx="0"
       cy="0"
       r="1"
       gradientUnits="userSpaceOnUse"
       gradientTransform="translate(549.22 999.068) rotate(-90) scale(499.344 547.626)">
      <stop
         stop-color="#9E26E8"
         id="stop50" />
      <stop
         offset="1"
         stop-color="#9E26E8"
         stop-opacity="0"
         id="stop51" />
    </radialGradient>
    <radialGradient
       id="paint14_radial_109_244"
       cx="0"
       cy="0"
       r="1"
       gradientUnits="userSpaceOnUse"
       gradientTransform="translate(549.22 0.380859) rotate(90) scale(499.344 547.626)">
      <stop
         stop-color="#FFFBEB"
         id="stop52" />
      <stop
         offset="1"
         stop-color="#FFFBEB"
         stop-opacity="0"
         id="stop53" />
    </radialGradient>
  </defs>
</svg>
