<svg width="1000" height="969" viewBox="0 0 1000 969" fill="none" xmlns="http://www.w3.org/2000/svg">
<path d="M242.649 450.544L499.903 738.667L757.158 450.544L644.022 289.857C635.643 277.956 621.999 270.876 607.444 270.876H392.362C377.807 270.876 364.163 277.956 355.784 289.857L242.649 450.544Z" fill="url(#paint0_linear_84_129)"/>
<path d="M242.649 450.544L499.903 738.667L757.158 450.544L644.022 289.857C635.643 277.956 621.999 270.876 607.444 270.876H392.362C377.807 270.876 364.163 277.956 355.784 289.857L242.649 450.544Z" fill="url(#paint1_radial_84_129)" fill-opacity="0.36"/>
<path d="M242.649 450.544L499.903 738.667L757.158 450.544L644.022 289.857C635.643 277.956 621.999 270.876 607.444 270.876H392.362C377.807 270.876 364.163 277.956 355.784 289.857L242.649 450.544Z" fill="url(#paint2_radial_84_129)" fill-opacity="0.36"/>
<path d="M0.824219 450.544L103.455 726.204C106.483 734.337 107.08 743.175 105.173 751.642L68.5684 914.156C62.2683 942.127 83.538 968.72 112.209 968.72H887.445C916.098 968.72 937.363 942.159 931.096 914.201L894.635 751.546C892.729 743.044 893.348 734.172 896.414 726.017L999.912 450.748H906.944C894.089 450.748 881.862 456.273 873.363 465.918C759.323 595.328 604.483 768.968 558.68 820.295C550.197 829.802 538.119 835.169 525.378 835.169H480.527C469.157 835.169 458.24 830.919 450.131 822.949C376.684 750.755 226.807 581.254 125.059 465.684C116.564 456.036 104.366 450.544 91.5104 450.544H0.824219Z" fill="url(#paint3_linear_84_129)"/>
<path d="M0.824219 450.544L103.455 726.204C106.483 734.337 107.08 743.175 105.173 751.642L68.5684 914.156C62.2683 942.127 83.538 968.72 112.209 968.72H887.445C916.098 968.72 937.363 942.159 931.096 914.201L894.635 751.546C892.729 743.044 893.348 734.172 896.414 726.017L999.912 450.748H906.944C894.089 450.748 881.862 456.273 873.363 465.918C759.323 595.328 604.483 768.968 558.68 820.295C550.197 829.802 538.119 835.169 525.378 835.169H480.527C469.157 835.169 458.24 830.919 450.131 822.949C376.684 750.755 226.807 581.254 125.059 465.684C116.564 456.036 104.366 450.544 91.5104 450.544H0.824219Z" fill="url(#paint4_radial_84_129)" fill-opacity="0.36"/>
<path d="M0.824219 450.544L103.455 726.204C106.483 734.337 107.08 743.175 105.173 751.642L68.5684 914.156C62.2683 942.127 83.538 968.72 112.209 968.72H887.445C916.098 968.72 937.363 942.159 931.096 914.201L894.635 751.546C892.729 743.044 893.348 734.172 896.414 726.017L999.912 450.748H906.944C894.089 450.748 881.862 456.273 873.363 465.918C759.323 595.328 604.483 768.968 558.68 820.295C550.197 829.802 538.119 835.169 525.378 835.169H480.527C469.157 835.169 458.24 830.919 450.131 822.949C376.684 750.755 226.807 581.254 125.059 465.684C116.564 456.036 104.366 450.544 91.5104 450.544H0.824219Z" fill="url(#paint5_radial_84_129)" fill-opacity="0.36"/>
<path d="M203.867 329.654C195.475 341.448 181.894 348.453 167.419 348.453H0.826039L82.3051 130.855C111.607 52.6014 186.394 0.74707 269.954 0.74707H730.784C814.344 0.74707 889.131 52.6014 918.433 130.855L999.912 348.453H832.387C817.912 348.453 804.331 341.448 795.939 329.654L727.794 233.891C699.12 193.595 652.72 169.664 603.263 169.664H396.544C347.087 169.664 300.686 193.595 272.012 233.891L203.867 329.654Z" fill="url(#paint6_linear_84_129)"/>
<path d="M203.867 329.654C195.475 341.448 181.894 348.453 167.419 348.453H0.826039L82.3051 130.855C111.607 52.6014 186.394 0.74707 269.954 0.74707H730.784C814.344 0.74707 889.131 52.6014 918.433 130.855L999.912 348.453H832.387C817.912 348.453 804.331 341.448 795.939 329.654L727.794 233.891C699.12 193.595 652.72 169.664 603.263 169.664H396.544C347.087 169.664 300.686 193.595 272.012 233.891L203.867 329.654Z" fill="url(#paint7_radial_84_129)" fill-opacity="0.36"/>
<path d="M203.867 329.654C195.475 341.448 181.894 348.453 167.419 348.453H0.826039L82.3051 130.855C111.607 52.6014 186.394 0.74707 269.954 0.74707H730.784C814.344 0.74707 889.131 52.6014 918.433 130.855L999.912 348.453H832.387C817.912 348.453 804.331 341.448 795.939 329.654L727.794 233.891C699.12 193.595 652.72 169.664 603.263 169.664H396.544C347.087 169.664 300.686 193.595 272.012 233.891L203.867 329.654Z" fill="url(#paint8_radial_84_129)" fill-opacity="0.36"/>
<defs>
<linearGradient id="paint0_linear_84_129" x1="-213.86" y1="484.733" x2="884.853" y2="968.352" gradientUnits="userSpaceOnUse">
<stop stop-color="#B3FFED"/>
<stop offset="0.166667" stop-color="#AFF5EA"/>
<stop offset="0.333333" stop-color="#5EEAD4"/>
<stop offset="0.5" stop-color="#22D3EE"/>
<stop offset="0.666667" stop-color="#0EA5E9"/>
<stop offset="0.833333" stop-color="#2563EB"/>
<stop offset="1" stop-color="#4338CA"/>
</linearGradient>
<radialGradient id="paint1_radial_84_129" cx="0" cy="0" r="1" gradientUnits="userSpaceOnUse" gradientTransform="translate(500.368 968.72) rotate(-90) scale(483.986 499.544)">
<stop stop-color="#5B21B6"/>
<stop offset="1" stop-color="#5B21B6" stop-opacity="0"/>
</radialGradient>
<radialGradient id="paint2_radial_84_129" cx="0" cy="0" r="1" gradientUnits="userSpaceOnUse" gradientTransform="translate(500.368 0.74707) rotate(90) scale(483.986 499.544)">
<stop stop-color="#99F6E4"/>
<stop offset="1" stop-color="#67E8F9" stop-opacity="0"/>
</radialGradient>
<linearGradient id="paint3_linear_84_129" x1="-213.86" y1="484.733" x2="884.853" y2="968.352" gradientUnits="userSpaceOnUse">
<stop stop-color="#B3FFED"/>
<stop offset="0.166667" stop-color="#AFF5EA"/>
<stop offset="0.333333" stop-color="#5EEAD4"/>
<stop offset="0.5" stop-color="#22D3EE"/>
<stop offset="0.666667" stop-color="#0EA5E9"/>
<stop offset="0.833333" stop-color="#2563EB"/>
<stop offset="1" stop-color="#4338CA"/>
</linearGradient>
<radialGradient id="paint4_radial_84_129" cx="0" cy="0" r="1" gradientUnits="userSpaceOnUse" gradientTransform="translate(500.368 968.72) rotate(-90) scale(483.986 499.544)">
<stop stop-color="#5B21B6"/>
<stop offset="1" stop-color="#5B21B6" stop-opacity="0"/>
</radialGradient>
<radialGradient id="paint5_radial_84_129" cx="0" cy="0" r="1" gradientUnits="userSpaceOnUse" gradientTransform="translate(500.368 0.74707) rotate(90) scale(483.986 499.544)">
<stop stop-color="#99F6E4"/>
<stop offset="1" stop-color="#67E8F9" stop-opacity="0"/>
</radialGradient>
<linearGradient id="paint6_linear_84_129" x1="-213.86" y1="484.733" x2="884.853" y2="968.352" gradientUnits="userSpaceOnUse">
<stop stop-color="#B3FFED"/>
<stop offset="0.166667" stop-color="#AFF5EA"/>
<stop offset="0.333333" stop-color="#5EEAD4"/>
<stop offset="0.5" stop-color="#22D3EE"/>
<stop offset="0.666667" stop-color="#0EA5E9"/>
<stop offset="0.833333" stop-color="#2563EB"/>
<stop offset="1" stop-color="#4338CA"/>
</linearGradient>
<radialGradient id="paint7_radial_84_129" cx="0" cy="0" r="1" gradientUnits="userSpaceOnUse" gradientTransform="translate(500.368 968.72) rotate(-90) scale(483.986 499.544)">
<stop stop-color="#5B21B6"/>
<stop offset="1" stop-color="#5B21B6" stop-opacity="0"/>
</radialGradient>
<radialGradient id="paint8_radial_84_129" cx="0" cy="0" r="1" gradientUnits="userSpaceOnUse" gradientTransform="translate(500.368 0.74707) rotate(90) scale(483.986 499.544)">
<stop stop-color="#99F6E4"/>
<stop offset="1" stop-color="#67E8F9" stop-opacity="0"/>
</radialGradient>
</defs>
</svg>
