<svg width="4065" height="780" viewBox="0 0 4065 780" fill="none" xmlns="http://www.w3.org/2000/svg">
<path d="M4013.73 190.877C3980.89 158.718 3937.25 142.638 3882.8 142.638H3624.56L3624.56 87.6047V42.7328C3624.56 30.9671 3620.55 21.1623 3612.54 13.3185C3604.54 5.47465 3594.53 1.55273 3582.51 1.55273H3414.36V778.091H3624.56V293.417H3810.73C3822.74 293.417 3832.75 297.307 3840.76 305.151C3848.77 312.995 3852.77 322.87 3852.77 334.636V778.091H4062.97V319.124C4062.97 265.786 4046.56 223.037 4013.73 190.877Z" fill="url(#paint0_linear_2190_1696)"/>
<path d="M3278.73 190.877C3245.9 158.718 3202.26 142.638 3147.81 142.638H2889.56L2889.56 87.6047V42.7328C2889.56 30.9671 2885.56 21.1623 2877.55 13.3185C2869.54 5.47465 2859.53 1.55273 2847.52 1.55273H2679.36V778.091H2889.56V293.417H3075.74C3087.75 293.417 3097.76 297.307 3105.77 305.151C3113.78 312.995 3117.78 322.87 3117.78 334.636V778.091H3327.98V319.124C3327.98 265.786 3311.57 223.037 3278.73 190.877Z" fill="url(#paint1_linear_2190_1696)"/>
<path d="M1950.77 619.245C2111.12 619.249 2252.01 619.249 2347.15 619.249C2359.16 619.249 2369.17 615.327 2377.18 607.483C2385.18 599.64 2389.19 589.835 2389.19 578.069V536.889H2130.94C2076.49 536.889 2032.85 520.809 2000.02 488.65C1967.19 456.49 1950.77 413.741 1950.77 360.403V319.223C1950.77 265.885 1967.19 223.136 2000.02 190.977C2032.85 158.817 2076.49 142.737 2130.94 142.737L2550.14 142.73V293.38H2203.01C2191 293.38 2180.99 296.728 2172.98 304.572C2164.97 312.415 2160.97 323.655 2160.97 335.421C2160.97 347.187 2164.97 358.442 2172.98 366.286C2180.99 374.13 2191 378.052 2203.01 378.052H2419.22C2473.67 378.052 2517.31 394.132 2550.14 426.291C2582.97 458.451 2599.39 501.2 2599.39 554.538V601.601C2599.39 654.939 2582.97 697.687 2550.14 729.847C2517.31 762.007 2473.67 778.087 2419.22 778.087C2273.37 778.093 2118.93 778.087 1950.77 778.087L1950.77 619.245Z" fill="url(#paint2_linear_2190_1696)"/>
<path d="M1503.69 619.943C1546.13 619.943 1591.79 619.943 1647.82 619.943V519.244H1473.66C1461.65 519.244 1451.64 523.166 1443.63 531.01C1435.62 538.853 1431.62 548.658 1431.62 560.424V578.763C1431.62 590.528 1435.62 600.333 1443.63 608.177C1451.64 616.021 1461.65 619.943 1473.66 619.943H1503.69ZM1281.48 143.551C1432.82 143.551 1558.66 141.93 1677.85 141.93C1732.3 141.93 1775.95 158.01 1808.78 190.169C1841.61 222.329 1858.02 265.078 1858.02 318.416V777.808H1686.06L1659.84 707.496C1636.47 736.657 1617.5 756.274 1577.47 768.04C1544.34 781.87 1470.86 778.09 1443.63 778.09H1401.59C1347.14 778.09 1303.5 762.01 1270.66 729.85C1237.83 697.691 1221.42 654.942 1221.42 601.604V555.231C1221.42 501.893 1237.83 459.144 1270.66 426.985C1303.5 394.825 1347.14 378.745 1401.59 378.745H1647.82V333.873C1647.82 322.108 1643.82 312.303 1635.81 304.459C1627.8 296.615 1617.8 292.693 1605.78 292.693C1553.73 292.693 1496.91 292.693 1432.82 293.18C1368.73 293.666 1318.69 293.18 1281.48 292.814V143.551Z" fill="url(#paint3_linear_2190_1696)"/>
<path d="M1135.81 778.091C1059 778.091 979.657 778.091 907.588 778.091C853.136 778.091 809.494 762.011 776.663 729.851C743.832 697.692 727.416 654.943 727.416 601.605V292.815H655.348V142.741H727.416L776.663 1.55273H937.616V142.741H1135.81V292.815H937.616V578.764C937.616 590.529 941.62 600.334 949.628 608.178C957.636 616.022 967.645 619.944 979.657 619.944H1135.81V778.091Z" fill="url(#paint4_linear_2190_1696)"/>
<path d="M2.38674 619.249C162.737 619.253 303.628 619.253 398.764 619.253C410.775 619.253 420.785 615.331 428.793 607.487C436.8 599.644 440.804 589.839 440.804 578.073V536.893H182.558C128.106 536.893 84.4649 520.813 51.6336 488.654C18.8024 456.494 2.38672 413.745 2.38672 360.407V319.227C2.38672 265.889 18.8024 223.14 51.6336 190.981C84.4649 158.821 128.106 142.741 182.558 142.741L568.525 142.734V293.384H254.627C242.615 293.384 232.606 296.732 224.598 304.575C216.591 312.419 212.587 323.659 212.587 335.425C212.587 347.191 216.591 358.446 224.598 366.29C232.606 374.134 242.615 378.056 254.627 378.056H470.833C525.285 378.056 568.926 394.135 601.757 426.295C634.589 458.455 651.004 501.204 651.004 554.542V601.604C651.004 654.942 634.589 697.691 601.757 729.851C568.926 762.011 525.285 778.09 470.833 778.09C324.983 778.097 170.547 778.09 2.38672 778.09L2.38674 619.249Z" fill="url(#paint5_linear_2190_1696)"/>
<defs>
<linearGradient id="paint0_linear_2190_1696" x1="3738.66" y1="1.55273" x2="3738.66" y2="778.091" gradientUnits="userSpaceOnUse">
<stop stop-color="white"/>
<stop offset="1" stop-color="#D1D2DB"/>
</linearGradient>
<linearGradient id="paint1_linear_2190_1696" x1="3003.67" y1="1.55273" x2="3003.67" y2="778.091" gradientUnits="userSpaceOnUse">
<stop stop-color="white"/>
<stop offset="1" stop-color="#D1D2DB"/>
</linearGradient>
<linearGradient id="paint2_linear_2190_1696" x1="2275.08" y1="142.73" x2="2275.08" y2="778.089" gradientUnits="userSpaceOnUse">
<stop stop-color="white"/>
<stop offset="1" stop-color="#D1D2DB"/>
</linearGradient>
<linearGradient id="paint3_linear_2190_1696" x1="1539.72" y1="141.93" x2="1539.72" y2="778.562" gradientUnits="userSpaceOnUse">
<stop stop-color="white"/>
<stop offset="1" stop-color="#D1D2DB"/>
</linearGradient>
<linearGradient id="paint4_linear_2190_1696" x1="895.576" y1="1.55273" x2="895.576" y2="778.091" gradientUnits="userSpaceOnUse">
<stop stop-color="white"/>
<stop offset="1" stop-color="#D1D2DB"/>
</linearGradient>
<linearGradient id="paint5_linear_2190_1696" x1="326.695" y1="142.734" x2="326.695" y2="778.093" gradientUnits="userSpaceOnUse">
<stop stop-color="white"/>
<stop offset="1" stop-color="#D1D2DB"/>
</linearGradient>
</defs>
</svg>
