<?xml version="1.0" encoding="UTF-8" standalone="no"?>
<svg
   data-name="Layer 1"
   viewBox="0 0 45172.6 20449.158"
   width="1100"
   height="550"
   class="css-1tw2bcv"
   version="1.1"
   id="svg31"
   sodipodi:docname="logo-wordmark.svg"
   inkscape:version="1.2 (dc2aedaf03, 2022-05-15)"
   inkscape:export-filename="..\rasterised\logo-wordmark.png"
   inkscape:export-xdpi="96"
   inkscape:export-ydpi="96"
   xmlns:inkscape="http://www.inkscape.org/namespaces/inkscape"
   xmlns:sodipodi="http://sodipodi.sourceforge.net/DTD/sodipodi-0.dtd"
   xmlns:xlink="http://www.w3.org/1999/xlink"
   xmlns="http://www.w3.org/2000/svg"
   xmlns:svg="http://www.w3.org/2000/svg">
  <sodipodi:namedview
     id="namedview28"
     pagecolor="#ffffff"
     bordercolor="#666666"
     borderopacity="1.0"
     inkscape:pageshadow="2"
     inkscape:pageopacity="0.0"
     inkscape:pagecheckerboard="0"
     showgrid="false"
     units="px"
     inkscape:zoom="1.6171429"
     inkscape:cx="505.52119"
     inkscape:cy="225.39752"
     inkscape:window-width="2496"
     inkscape:window-height="1575"
     inkscape:window-x="-9"
     inkscape:window-y="-9"
     inkscape:window-maximized="1"
     inkscape:current-layer="svg31"
     inkscape:document-units="in"
     showguides="true"
     inkscape:guide-bbox="true"
     inkscape:showpageshadow="2"
     inkscape:deskcolor="#d1d1d1" />
  <defs
     id="defs15">
    <linearGradient
       id="linearGradient306">
      <stop
         style="stop-color:#1c2c4d;stop-opacity:1"
         offset="0"
         id="stop302" />
      <stop
         style="stop-color:#200e36;stop-opacity:1"
         offset="1"
         id="stop304" />
    </linearGradient>
    <linearGradient
       id="prefix__a"
       x1="455.51001"
       y1="1008.52"
       x2="994.83002"
       y2="1008.52"
       gradientUnits="userSpaceOnUse">
      <stop
         offset="0"
         stop-color="#84d5d1"
         id="stop2" />
      <stop
         offset="0.51"
         stop-color="#5b87e1"
         id="stop4" />
      <stop
         offset="1"
         stop-color="#806ce0"
         id="stop6" />
    </linearGradient>
    <linearGradient
       id="prefix__b"
       x1="299.89999"
       y1="1211.4301"
       x2="913.03003"
       y2="1211.4301"
       gradientTransform="matrix(0.89,0.11,0.11,0.9,-353.39,-297.52)"
       xlink:href="#prefix__a" />
    <linearGradient
       id="prefix__c"
       x1="798.96997"
       y1="853.39001"
       x2="1182.0699"
       y2="853.39001"
       gradientTransform="matrix(1.42,0,0,0.97,-678.68,-334.13)"
       xlink:href="#prefix__a" />
    <linearGradient
       id="prefix__d"
       x1="253.63"
       y1="772.84003"
       x2="784.57001"
       y2="772.84003"
       gradientTransform="matrix(0.82,-0.05,-0.11,0.92,-103.48,-285.07)"
       xlink:href="#prefix__a" />
    <linearGradient
       id="prefix__e"
       x1="228.42999"
       y1="132.94"
       x2="1216.15"
       y2="132.94"
       xlink:href="#prefix__a" />
    <linearGradient
       id="prefix__f"
       x1="1483.5"
       y1="812.15002"
       x2="2014.42"
       y2="812.15002"
       gradientTransform="matrix(-0.82,-0.05,0.11,0.92,2543.06,-255.2)"
       xlink:href="#prefix__a" />
    <linearGradient
       id="prefix__g"
       x1="1418.13"
       y1="1087.5"
       x2="2014.51"
       y2="1087.5"
       gradientTransform="matrix(-0.89,0.11,-0.11,0.9,2770.01,-297.52)"
       xlink:href="#prefix__a" />
    <linearGradient
       xlink:href="#prefix__a"
       id="linearGradient46"
       gradientUnits="userSpaceOnUse"
       x1="455.51001"
       y1="1008.52"
       x2="994.83002"
       y2="1008.52" />
    <linearGradient
       xlink:href="#linearGradient306"
       id="linearGradient308"
       x1="-38297.727"
       y1="-2229.1086"
       x2="-38297.727"
       y2="20187.582"
       gradientUnits="userSpaceOnUse"
       gradientTransform="matrix(2.0000001,0,0,0.99999985,97973.767,1221.6178)" />
  </defs>
  <rect
     style="fill:url(#linearGradient308);fill-opacity:1;fill-rule:evenodd;stroke-width:58.0765"
     id="rect258"
     width="45172.602"
     height="22586.301"
     x="-0.00078125001"
     y="-1068.5714" />
  <g
     id="g3640"
     transform="translate(2053.3,-1.5126001e-5)">
    <g
       id="g42"
       transform="matrix(9.4285714,0,0,9.4672292,4295.825,4064.679)">
      <path
         fill="url(#prefix__a)"
         d="M 725.17,1301.31 455.51,715.72 h 539.32 z"
         id="path17"
         style="fill:url(#linearGradient46)" />
      <path
         fill="url(#prefix__b)"
         d="M 375.57,704.88 630.78,1247.98 0,460.57 Z"
         id="path19"
         style="fill:url(#prefix__b)" />
      <path
         fill="url(#prefix__c)"
         d="M 994.45,638.43 451.64,640.77 523.35,337 916.2,335.31 Z"
         id="path21"
         style="fill:url(#prefix__c)" />
      <path
         fill="url(#prefix__d)"
         d="M 380.27,617.06 23.93,391.06 176.78,185.26 462.92,323.24 Z"
         id="path23"
         style="fill:url(#prefix__d)" />
      <path
         fill="url(#prefix__e)"
         d="M 905.25,0 1216.14,132.84 931.02,265.89 499.83,262.82 228.43,130.59 527.44,0 Z"
         id="path25"
         style="fill:url(#prefix__e)" />
      <path
         fill="url(#prefix__f)"
         d="M 1060.73,620.27 1416.37,394.71 1253.84,193.04 978,326.5 Z"
         id="path27"
         style="fill:url(#prefix__f)" />
      <path
         fill="url(#prefix__g)"
         d="m 1074.13,708.4 -251.74,543.11 614.92,-777.3 z"
         id="path29"
         style="fill:url(#prefix__g)" />
    </g>
    <g
       aria-label="stashh"
       id="text3397"
       style="font-size:7884.67px;line-height:1.25;font-family:Stickler;-inkscape-font-specification:Stickler;stroke-width:70.3989"
       transform="translate(9724.102,5741.3071)">
      <path
         d="m 10346.396,6505.6898 q 520.388,181.3474 961.93,181.3474 662.312,0 1009.238,-244.4247 354.81,-252.3095 354.81,-685.9663 0,-299.6175 -118.27,-473.0802 -118.27,-173.4628 -307.502,-260.1941 -189.232,-94.6161 -536.158,-197.1168 l -157.693,-47.308 q -370.58,-118.27 -457.311,-173.4627 -149.809,-78.8467 -149.809,-205.0015 0,-126.1547 118.27,-181.3474 149.809,-63.0773 465.196,-63.0773 275.963,0 772.697,134.0394 v -638.6583 q -457.311,-110.3854 -780.582,-110.3854 -654.428,0 -969.814,220.7708 -315.387,212.8861 -315.387,607.1196 0,583.4655 583.465,843.6596 236.54,110.3854 583.466,212.8861 307.502,102.5007 417.887,157.6934 126.155,55.1927 126.155,165.5781 0,149.8087 -134.039,220.7708 -126.155,70.962 -465.196,70.962 -362.695,0 -1001.353,-220.7708 z"
         style="fill:#ffffff"
         id="path3890" />
      <path
         d="m 15132.383,5906.4549 q -346.925,86.7314 -544.042,86.7314 -496.734,0 -496.734,-441.5415 V 4179.7122 h 1040.776 7.885 v -591.3503 h -1048.661 v -867.3136 h -756.929 v 867.3136 h -504.618 v 591.3503 h 504.618 v 1387.7019 q 0,551.9269 244.425,796.3517 252.31,244.4247 843.66,244.4247 102.501,0 291.733,-31.5387 l 417.887,-102.5007 z"
         style="fill:#ffffff"
         id="path3892" />
      <path
         d="m 17355.849,5890.6856 q -189.232,110.3853 -315.387,141.924 -118.27,31.5387 -307.502,31.5387 -236.54,0 -370.579,-102.5007 -134.04,-102.5007 -134.04,-283.8481 0,-181.3474 141.924,-275.9635 141.925,-94.616 449.427,-118.27 l 536.157,-39.4234 z M 15707.953,4250.6742 q 165.578,-63.0773 433.657,-102.5007 275.964,-39.4233 480.965,-39.4233 307.502,0 449.426,47.308 141.924,47.308 197.117,173.4627 55.193,110.3854 55.193,402.1182 l -591.351,31.5387 q -607.119,31.5386 -938.275,283.8481 -323.272,244.4247 -323.272,685.9663 0,402.1181 291.733,654.4276 291.733,244.4247 780.582,244.4247 528.273,0 883.083,-283.8481 l 7.885,268.0788 h 678.082 V 4700.1004 q 0,-615.0042 -323.272,-883.083 -315.387,-275.9635 -1048.661,-275.9635 -205.001,0 -520.388,47.308 -307.502,39.4234 -512.504,110.3854 z"
         style="fill:#ffffff"
         id="path3894" />
      <path
         d="m 18538.535,6505.6898 q 520.388,181.3474 961.93,181.3474 662.312,0 1009.237,-244.4247 354.81,-252.3095 354.81,-685.9663 0,-299.6175 -118.27,-473.0802 -118.27,-173.4628 -307.502,-260.1941 -189.232,-94.6161 -536.157,-197.1168 l -157.694,-47.308 q -370.579,-118.27 -457.311,-173.4627 -149.808,-78.8467 -149.808,-205.0015 0,-126.1547 118.27,-181.3474 149.809,-63.0773 465.195,-63.0773 275.964,0 772.698,134.0394 v -638.6583 q -457.311,-110.3854 -780.582,-110.3854 -654.428,0 -969.815,220.7708 -315.387,212.8861 -315.387,607.1196 0,583.4655 583.466,843.6596 236.54,110.3854 583.466,212.8861 307.502,102.5007 417.887,157.6934 126.155,55.1927 126.155,165.5781 0,149.8087 -134.04,220.7708 -126.154,70.962 -465.195,70.962 -362.695,0 -1001.353,-220.7708 z"
         style="fill:#ffffff"
         id="path3896" />
      <path
         d="m 22654.325,4234.9049 q 291.733,0 417.887,149.8087 126.155,141.9241 126.155,465.1955 v 1766.1661 h 756.928 V 4952.4098 q 0,-693.8509 -252.309,-1017.1224 -252.309,-331.1561 -851.544,-331.1561 -473.081,0 -914.622,197.1167 V 2279.5067 h -756.928 v 4336.5685 h 756.928 V 4400.4829 q 425.772,-165.578 717.505,-165.578 z"
         style="fill:#ffffff"
         id="path3898" />
      <path
         d="m 25745.102,4234.9049 q 291.733,0 417.888,149.8087 126.154,141.9241 126.154,465.1955 v 1766.1661 h 756.929 V 4952.4098 q 0,-693.8509 -252.31,-1017.1224 -252.309,-331.1561 -851.544,-331.1561 -473.08,0 -914.622,197.1167 V 2279.5067 h -756.928 v 4336.5685 h 756.928 V 4400.4829 q 425.772,-165.578 717.505,-165.578 z"
         style="fill:#ffffff"
         id="path3900" />
    </g>
  </g>
</svg>
